<?xml version="1.0" encoding="UTF-8" standalone="no"?>
<svg
   xmlns:dc="http://purl.org/dc/elements/1.1/"
   xmlns:cc="http://creativecommons.org/ns#"
   xmlns:rdf="http://www.w3.org/1999/02/22-rdf-syntax-ns#"
   xmlns:svg="http://www.w3.org/2000/svg"
   xmlns="http://www.w3.org/2000/svg"
   xmlns:xlink="http://www.w3.org/1999/xlink"
   xmlns:sodipodi="http://sodipodi.sourceforge.net/DTD/sodipodi-0.dtd"
   xmlns:inkscape="http://www.inkscape.org/namespaces/inkscape"
   width="64"
   height="64"
   viewBox="0 0 16.933 16.933"
   version="1.1"
   id="svg19"
   sodipodi:docname="application-pdf0.svg"
   inkscape:version="1.0.2 (e86c870879, 2021-01-15)">
  <metadata
     id="metadata23">
    <rdf:RDF>
      <cc:Work
         rdf:about="">
        <dc:format>image/svg+xml</dc:format>
        <dc:type
           rdf:resource="http://purl.org/dc/dcmitype/StillImage" />
      </cc:Work>
    </rdf:RDF>
  </metadata>
  <sodipodi:namedview
     pagecolor="#ffffff"
     bordercolor="#666666"
     borderopacity="1"
     objecttolerance="10"
     gridtolerance="10"
     guidetolerance="10"
     inkscape:pageopacity="0"
     inkscape:pageshadow="2"
     inkscape:window-width="640"
     inkscape:window-height="480"
     id="namedview21"
     showgrid="false"
     inkscape:zoom="8.4375"
     inkscape:cx="78.617284"
     inkscape:cy="41.846154"
     inkscape:current-layer="svg19" />
  <defs
     id="defs5">
    <filter
       id="a"
       x="-.039"
       y="-.033"
       width="1.078"
       height="1.067"
       color-interpolation-filters="sRGB">
      <feGaussianBlur
         stdDeviation=".206"
         id="feGaussianBlur2" />
    </filter>
    <linearGradient
       id="a-3"
       x1="49.571"
       x2="51.714"
       y1="52.714"
       y2="54.857"
       gradientTransform="matrix(2.3333,0,0,2.3333,-68.667,-72.001)"
       gradientUnits="userSpaceOnUse">
      <stop
         offset="0"
         id="stop2" />
      <stop
         stop-opacity="0"
         offset="1"
         id="stop4" />
    </linearGradient>
    <linearGradient
       inkscape:collect="always"
       xlink:href="#linearGradient850"
       id="linearGradient933"
       x1="82.301567"
       y1="50.782787"
       x2="82.620834"
       y2="1.3043127"
       gradientUnits="userSpaceOnUse"
       gradientTransform="translate(-59.525514,5.3015532)" />
    <linearGradient
       inkscape:collect="always"
       id="linearGradient850">
      <stop
         style="stop-color:#e84b43;stop-opacity:1"
         offset="0"
         id="stop846" />
      <stop
         style="stop-color:#e86b43;stop-opacity:1"
         offset="1"
         id="stop848" />
    </linearGradient>
  </defs>
  <g
     fill-rule="evenodd"
     id="g13">
    <path
       d="M 3.44,1.354 A 1.32,1.32 0 0 0 2.117,2.677 v 12.171 c 0,0.733 0.59,1.323 1.323,1.323 h 10.053 a 1.32,1.32 0 0 0 1.323,-1.323 V 4.53 L 11.641,1.355 Z"
       filter="url(#a)"
       opacity="0.15"
       style="paint-order:stroke fill markers"
       id="path7" />
    <path
       id="rect914"
       style="fill:url(#linearGradient933);fill-opacity:1;stroke-width:0.5;stroke-linecap:square"
       d="m 13.001953,3.9980469 c -0.173126,0 -0.345177,0.010335 -0.513672,0.027344 -0.165153,0.016672 -0.326409,0.040038 -0.486328,0.072266 -0.0053,0.00106 -0.01035,0.00282 -0.01563,0.00391 -0.321835,0.065944 -0.632009,0.1628729 -0.927734,0.2871094 -0.0041,0.0017 -0.0077,0.00415 -0.01172,0.00586 -0.29068,0.1230263 -0.566981,0.2720057 -0.826172,0.4453126 a 4.9890746,4.9890746 0 0 0 -0.03125,0.019531 C 9.9295676,5.035937 9.6863106,5.2377605 9.4648438,5.4589844 c -0.0013,0.0013 -0.00261,0.00261 -0.00391,0.00391 a 4.9890746,4.9890746 0 0 0 -0.00781,0.00781 C 9.2339894,5.6910478 9.0363974,5.9312944 8.8613281,6.1894531 a 4.9890746,4.9890746 0 0 0 -0.00391,0.00586 c -0.00347,0.00513 -0.00632,0.010485 -0.00977,0.015625 -0.1746439,0.2603988 -0.3273511,0.5378044 -0.4511718,0.8300781 -0.0025,0.00589 -0.00534,0.011677 -0.00781,0.017578 -0.1242236,0.2964219 -0.2194724,0.607089 -0.2851507,0.929687 -0.031902,0.1566948 -0.057251,0.3167657 -0.074219,0.4785157 a 4.9890746,4.9890746 0 0 0 -0.00195,0.017578 c -1.305e-4,0.00129 1.294e-4,0.00262 0,0.00391 -0.016882,0.1678722 -0.025391,0.3372986 -0.025391,0.5097657 a 4.9890746,4.9890746 0 0 0 0,0.00195 V 54.998047 55 c 6.58e-5,0.172453 0.00845,0.343863 0.025391,0.511719 6.42e-5,6.39e-4 -6.46e-5,0.0013 0,0.002 0.017007,0.167829 0.043106,0.333681 0.076172,0.496094 1.27e-4,6.25e-4 -1.272e-4,0.0013 0,0.002 0.06638,0.325411 0.163131,0.638771 0.2890625,0.9375 2.394e-4,5.68e-4 -2.396e-4,0.0014 0,0.002 0.1260472,0.298712 0.2819014,0.582211 0.4609375,0.847656 3.184e-4,4.73e-4 -3.185e-4,0.0015 0,0.002 0.1791509,0.265442 0.3837936,0.510747 0.609375,0.736328 0.9037474,0.903748 2.1540524,1.460938 3.5390624,1.460938 h 38 c 0.346253,0 0.683637,-0.03322 1.009766,-0.09961 0.3247,-0.0661 0.637338,-0.163691 0.935547,-0.289063 a 4.9890746,4.9890746 0 0 0 0.0078,-0.0039 c 0.291691,-0.123231 0.570029,-0.275408 0.830078,-0.449219 a 4.9890746,4.9890746 0 0 0 0.0293,-0.01953 c 0.0039,-0.0026 0.0078,-0.0052 0.01172,-0.0078 0.251828,-0.171945 0.485502,-0.366072 0.701172,-0.580078 a 4.9890746,4.9890746 0 0 0 0.01953,-0.01953 4.9890746,4.9890746 0 0 0 0.0039,-0.0039 c 0.20873,-0.209893 0.397522,-0.439288 0.566407,-0.683594 a 4.9890746,4.9890746 0 0 0 0.06055,-0.0918 c 0.15968,-0.242299 0.299877,-0.498043 0.416016,-0.767578 a 4.9890746,4.9890746 0 0 0 0.002,-0.002 4.9890746,4.9890746 0 0 0 0.0293,-0.07422 c 0.111549,-0.271212 0.198828,-0.554639 0.261719,-0.847656 a 4.9890746,4.9890746 0 0 0 0.03125,-0.152344 4.9890746,4.9890746 0 0 0 0.0059,-0.04102 c 0.0083,-0.04786 0.01649,-0.0962 0.02344,-0.144531 a 4.9890746,4.9890746 0 0 0 0.0039,-0.02539 4.9890746,4.9890746 0 0 0 0.0332,-0.310546 c 0.0056,-0.07422 0.0093,-0.149498 0.01172,-0.22461 a 4.9890746,4.9890746 0 0 0 0,-0.0059 A 4.9890746,4.9890746 0 0 0 55.998047,55 V 16 L 44.001953,3.9980469 Z"
       transform="scale(0.26457812)" />
    <path
       d="M 14.816,4.233 11.641,1.058 V 2.91 c 0,0.733 0.59,1.323 1.323,1.323 z"
       fill="#ffffff"
       opacity="0.35"
       style="paint-order:stroke fill markers"
       id="path11" />
  </g>
  <path
     d="M6.942 9.175c.264-.517.563-1.1.803-1.684l.095-.23c-.313-1.193-.501-2.15-.333-2.769.045-.16.232-.259.431-.259l.122.002h.022c.274-.004.403.344.417.479.024.225-.08.606-.08.606 0-.154.006-.402-.09-.617-.114-.248-.222-.397-.319-.42-.049.032-.096.1-.113.23a3.317 3.317 0 0 0-.043.532c0 .419.082.973.244 1.543.031-.088.058-.173.08-.253.033-.125.244-.956.244-.956S8.37 6.485 8.294 6.82c-.015.07-.033.14-.051.212.267.748.698 1.415 1.213 1.896.203.19.459.342.701.481a9.573 9.573 0 0 1 1.424-.107c.54.007.935.087 1.096.245.078.077.11.17.12.274a.83.83 0 0 1-.023.159c.006-.029.006-.17-.428-.31-.34-.108-.98-.105-1.745-.023.886.433 1.75.649 2.023.52.067-.033.148-.144.148-.144s-.049.219-.083.274a.431.431 0 0 1-.213.145c-.432.116-1.557-.151-2.537-.711-1.095.161-2.298.459-3.263.775-.947 1.66-1.66 2.423-2.24 2.133l-.212-.107c-.087-.05-.1-.17-.08-.268.068-.33.482-.829 1.315-1.326.09-.054.489-.265.489-.265s-.296.286-.365.342c-.665.545-1.155 1.23-1.143 1.496l.002.023c.565-.08 1.412-1.23 2.5-3.36m.345.177c-.182.343-.36.66-.524.952.908-.38 1.884-.624 2.814-.797a4.64 4.64 0 0 1-.36-.274 4.826 4.826 0 0 1-1.185-1.543c-.18.483-.393.997-.745 1.662"
     enable-background="new"
     fill="#fff"
     id="path15" />
  <path
     d="M11.641 2.91v.155c0 .794.59 1.433 1.323 1.433h1.852v-.265h-1.852A1.32 1.32 0 0 1 11.64 2.91z"
     fill-rule="evenodd"
     opacity=".1"
     style="paint-order:stroke fill markers"
     id="path17" />
</svg>
