<?xml version="1.0" encoding="UTF-8" standalone="no"?>
<svg
   width="64"
   height="64"
   viewBox="0 0 16.933 16.933"
   version="1.1"
   id="svg19"
   sodipodi:docname="application-blan.svg"
   inkscape:version="1.1.2 (0a00cf5339, 2022-02-04)"
   xmlns:inkscape="http://www.inkscape.org/namespaces/inkscape"
   xmlns:sodipodi="http://sodipodi.sourceforge.net/DTD/sodipodi-0.dtd"
   xmlns:xlink="http://www.w3.org/1999/xlink"
   xmlns="http://www.w3.org/2000/svg"
   xmlns:svg="http://www.w3.org/2000/svg">
  <sodipodi:namedview
     id="namedview21"
     pagecolor="#ffffff"
     bordercolor="#666666"
     borderopacity="1.0"
     inkscape:pageshadow="2"
     inkscape:pageopacity="0.0"
     inkscape:pagecheckerboard="0"
     showgrid="false"
     inkscape:zoom="7.6990134"
     inkscape:cx="-6.559282"
     inkscape:cy="20.262336"
     inkscape:current-layer="svg19" />
  <defs
     id="defs5">
    <linearGradient
       inkscape:collect="always"
       id="linearGradient4601">
      <stop
         style="stop-color:#ededed;stop-opacity:1"
         offset="0"
         id="stop4597" />
      <stop
         style="stop-color:#fcfcfc;stop-opacity:1"
         offset="1"
         id="stop4599" />
    </linearGradient>
    <filter
       id="a"
       x="-0.038932178"
       y="-0.033367063"
       width="1.0778644"
       height="1.0667341"
       color-interpolation-filters="sRGB">
      <feGaussianBlur
         stdDeviation=".206"
         id="feGaussianBlur2" />
    </filter>
    <linearGradient
       id="f"
       x1="10.901"
       x2="12.836"
       y1="15.17"
       y2="9.935"
       gradientTransform="matrix(3.7796,0,0,3.7796,-94.510903,-13.764435)"
       gradientUnits="userSpaceOnUse">
      <stop
         stop-color="#1a1a1a"
         offset="0"
         id="stop838" />
      <stop
         stop-color="#666"
         offset="1"
         id="stop840" />
    </linearGradient>
    <linearGradient
       id="linearGradient2022"
       x1="32.002"
       x2="32"
       y1="50"
       y2="14"
       gradientUnits="userSpaceOnUse"
       gradientTransform="translate(-80.507556,0.2376586)">
      <stop
         stop-color="#e0e0e0"
         offset="0"
         id="stop843" />
      <stop
         stop-color="#ffffff"
         offset="1"
         id="stop845" />
    </linearGradient>
    <filter
       id="e-7"
       x="-0.017271428"
       y="-0.069075846"
       width="1.0345429"
       height="1.1381517"
       color-interpolation-filters="sRGB">
      <feGaussianBlur
         stdDeviation=".403"
         id="feGaussianBlur848" />
    </filter>
    <filter
       id="d-6"
       x="-0.017271428"
       y="-0.069075846"
       width="1.0345429"
       height="1.1381517"
       color-interpolation-filters="sRGB">
      <feGaussianBlur
         stdDeviation=".403"
         id="feGaussianBlur851" />
    </filter>
    <linearGradient
       id="b-3"
       x1="30"
       x2="30"
       y1="6"
       y2="58"
       gradientUnits="userSpaceOnUse">
      <stop
         stop-color="#f8deac"
         offset="0"
         id="stop854" />
      <stop
         stop-color="#edcaa2"
         offset="1"
         id="stop856" />
    </linearGradient>
    <linearGradient
       id="a-6"
       x1="7.937"
       x2="7.937"
       y1="15.081"
       y2="1.852"
       gradientTransform="matrix(3.7795 0 0 3.7795 0 .032)"
       gradientUnits="userSpaceOnUse">
      <stop
         stop-color="#c18434"
         offset="0"
         id="stop859" />
      <stop
         stop-color="#e4b154"
         offset="1"
         id="stop861" />
    </linearGradient>
    <linearGradient
       inkscape:collect="always"
       xlink:href="#linearGradient4601"
       id="linearGradient4603"
       x1="50.458839"
       y1="10.484413"
       x2="6.2926192"
       y2="59.021236"
       gradientUnits="userSpaceOnUse" />
  </defs>
  <g
     fill-rule="evenodd"
     id="g15">
    <path
       d="M3.44 1.354a1.32 1.32 0 0 0-1.323 1.323v12.171c0 .733.59 1.323 1.323 1.323h10.053a1.32 1.32 0 0 0 1.323-1.323V4.53l-3.175-3.175z"
       filter="url(#a)"
       opacity=".15"
       style="paint-order:stroke fill markers"
       id="path7" />
    <path
       transform="scale(.26458)"
       d="M13 4c-2.77 0-5 2.23-5 5v46c0 2.77 2.23 5 5 5h38c2.77 0 5-2.23 5-5V16L44 4H13z"
       fill="#f4f4f4"
       style="paint-order:stroke fill markers;fill-opacity:1;fill:url(#linearGradient4603)"
       id="path9" />
    <path
       d="m14.816 4.233-3.175-3.175V2.91c0 .733.59 1.323 1.323 1.323z"
       fill="#bbb"
       style="paint-order:stroke fill markers"
       id="path11" />
    <path
       d="M11.641 2.91v.155c0 .794.59 1.433 1.323 1.433h1.852v-.265h-1.852A1.32 1.32 0 0 1 11.64 2.91z"
       opacity=".1"
       style="paint-order:stroke fill markers"
       id="path13" />
  </g>
  <g
     id="g916"
     transform="matrix(0.26457812,0,0,0.26457812,21.428487,0.63672856)">
    <path
       d="m 4,18.002 v -1 C 4,9.799 9.8,4 17.002,4 H 46.998 C 54.201,4 60,9.8 60,17.002 v 1 C 60,10.799 54.2,5 46.998,5 H 17.002 C 9.799,5 4,10.8 4,18.002 Z"
       fill="#ffffff"
       filter="url(#e-7)"
       opacity="0.15"
       id="path878" />
  </g>
</svg>
