<?xml version="1.0" encoding="UTF-8" standalone="no"?>
<svg
   xmlns:dc="http://purl.org/dc/elements/1.1/"
   xmlns:cc="http://creativecommons.org/ns#"
   xmlns:rdf="http://www.w3.org/1999/02/22-rdf-syntax-ns#"
   xmlns:svg="http://www.w3.org/2000/svg"
   xmlns="http://www.w3.org/2000/svg"
   xmlns:sodipodi="http://sodipodi.sourceforge.net/DTD/sodipodi-0.dtd"
   xmlns:inkscape="http://www.inkscape.org/namespaces/inkscape"
   width="64"
   height="64"
   version="1.1"
   viewBox="0 0 16.933 16.933"
   id="svg24"
   sodipodi:docname="application-rtf.svg"
   inkscape:version="1.0.2 (e86c870879, 2021-01-15)">
  <metadata
     id="metadata28">
    <rdf:RDF>
      <cc:Work
         rdf:about="">
        <dc:format>image/svg+xml</dc:format>
        <dc:type
           rdf:resource="http://purl.org/dc/dcmitype/StillImage" />
        <dc:title></dc:title>
      </cc:Work>
    </rdf:RDF>
  </metadata>
  <sodipodi:namedview
     pagecolor="#ffffff"
     bordercolor="#666666"
     borderopacity="1"
     objecttolerance="10"
     gridtolerance="10"
     guidetolerance="10"
     inkscape:pageopacity="0"
     inkscape:pageshadow="2"
     inkscape:window-width="1848"
     inkscape:window-height="1056"
     id="namedview26"
     showgrid="false"
     inkscape:zoom="11.453125"
     inkscape:cx="29.562528"
     inkscape:cy="37.795242"
     inkscape:window-x="72"
     inkscape:window-y="24"
     inkscape:window-maximized="1"
     inkscape:current-layer="svg24" />
  <defs
     id="defs10">
    <clipPath
       id="a">
      <path
         d="m102.92 44c-35.297 0-39.095 3.6254-38.922 38.994v146.01c-0.17299 35.368 3.6249 38.994 38.922 38.994h98.157c35.297 0 38.922-3.625 38.922-38.994v-146.01c0-35.369-3.6249-38.994-38.922-38.994z"
         color="#000000"
         fill="url(#linearGradient3288)"
         id="path2" />
    </clipPath>
    <linearGradient
       id="b"
       x1="49.571"
       x2="51.714"
       y1="52.714"
       y2="54.857"
       gradientTransform="matrix(2.3333,0,0,2.3333,-68.667,-72.001)"
       gradientUnits="userSpaceOnUse">
      <stop
         offset="0"
         id="stop5" />
      <stop
         stop-opacity="0"
         offset="1"
         id="stop7" />
    </linearGradient>
  </defs>
  <g
     transform="scale(.26458)"
     id="g16">
    <rect
       x="8"
       y="4"
       width="48"
       height="56"
       ry="5"
       fill="#f4f4f4"
       style="paint-order:stroke fill markers"
       id="rect12" />
    <path
       d="m56 46-14 14h9c2.77 0 5-2.23 5-5z"
       fill="url(#b)"
       fill-rule="evenodd"
       opacity=".1"
       stroke-width="8.8191"
       style="paint-order:stroke fill markers;opacity:0.0312574"
       id="path14" />
  </g>
  <g
     transform="translate(-7.9617 -24.175)"
     fill="#999"
     id="g22">
    <path
       d="m 16.958,27.879532 v 0.26458 h 3.1749 v -0.26458 z m 0,0.79373 v 0.26458 h 3.1749 v -0.26458 z m 0,0.79374 v 0.26458 h 3.1749 v -0.26458 z m 0,0.79373 v 0.26458 h 3.1749 v -0.26458 z m 0,0.79373 v 0.26458 h 3.1749 v -0.26458 z m -4.2332,0.79373 v 0.26458 h 7.4082 v -0.26458 z m 0,0.79374 v 0.26458 h 7.4082 v -0.26458 z m 0,0.79373 v 0.26458 h 7.4082 v -0.26458 z m 0,0.79374 v 0.26458 h 7.4082 v -0.26458 z m 0,0.79373 v 0.26458 h 4.2332 v -0.26458 z"
       enable-background="new"
       id="path18"
       style="fill:#919191;fill-opacity:1" />
    <path
       d="m 14.35,27.614532 -1.3053,3.4395 h -0.32064 v 0.26458 h 0.92601 v -0.26458 H 13.3536 l 0.30928,-0.79429 h 1.5347 l 0.30891,0.79429 h -0.40052 v 0.26458 h 1.3283 v -0.26458 h -0.36644 l -1.3056,-3.4395 z m 0.08025,0.59547 0.67572,1.7863 h -1.3401 z"
       color="#bebebe"
       enable-background="new"
       font-size="13.717px"
       font-weight="400"
       letter-spacing="0"
       overflow="visible"
       stroke-width="0.066145"
       word-spacing="0"
       id="path20"
       style="fill:#919191;fill-opacity:1" />
  </g>
  <path
     d="m 2.08219,13.034508 v 0.757243 c -0.012524,1.935126 0.26242,2.133465 2.8175602,2.133465 H 12.00551 c 2.555212,0 2.817633,-0.198339 2.817633,-2.13352 V 13.034453 H 2.08219 Z"
     fill="#111111"
     opacity="0.2"
     id="path43"
     style="isolation:isolate;stroke-width:0.0629352;opacity:0.14992348" />
  <path
     d="M 6.6648807,15.226227 H 6.3869178 V 13.67471 h 0.7180708 q 0.2802792,0 0.4065206,0.132988 0.1262416,0.132988 0.1262416,0.339117 0,0.14407 -0.085705,0.270407 -0.085705,0.126338 -0.2478503,0.172884 l 0.3242901,0.636121 H 7.315777 L 7.0030688,14.61892 H 6.6648807 Z m 0,-1.298841 v 0.438858 h 0.4447405 q 0.1250834,0 0.1829923,-0.06206 0.05791,-0.06205 0.05791,-0.157369 0,-0.09309 -0.055592,-0.156259 -0.055592,-0.06317 -0.1853086,-0.06317 z m 2.4043789,0.0022 H 8.6083044 v 1.296626 H 8.3303416 V 13.929603 H 7.8693865 V 13.67471 h 1.1998731 z m 0.567507,1.296626 H 9.3588044 v -1.551518 h 1.0469926 v 0.250459 H 9.6367666 v 0.37458 h 0.4910684 v 0.250459 H 9.6367666 Z"
     fill-rule="evenodd"
     fill="#3b3b3b"
     id="path45"
     style="isolation:isolate;stroke-width:0.0566463;fill:#5f5f5f;fill-opacity:1" />
</svg>
