<?xml version="1.0" encoding="UTF-8" standalone="no"?>
<svg
   xmlns:dc="http://purl.org/dc/elements/1.1/"
   xmlns:cc="http://creativecommons.org/ns#"
   xmlns:rdf="http://www.w3.org/1999/02/22-rdf-syntax-ns#"
   xmlns:svg="http://www.w3.org/2000/svg"
   xmlns="http://www.w3.org/2000/svg"
   xmlns:xlink="http://www.w3.org/1999/xlink"
   xmlns:sodipodi="http://sodipodi.sourceforge.net/DTD/sodipodi-0.dtd"
   xmlns:inkscape="http://www.inkscape.org/namespaces/inkscape"
   width="64"
   height="64"
   version="1.1"
   viewBox="0 0 16.933 16.933"
   id="svg17"
   sodipodi:docname="application-pdf.svg"
   inkscape:version="1.0.2 (e86c870879, 2021-01-15)">
  <metadata
     id="metadata21">
    <rdf:RDF>
      <cc:Work
         rdf:about="">
        <dc:format>image/svg+xml</dc:format>
        <dc:type
           rdf:resource="http://purl.org/dc/dcmitype/StillImage" />
      </cc:Work>
    </rdf:RDF>
  </metadata>
  <sodipodi:namedview
     pagecolor="#ffffff"
     bordercolor="#666666"
     borderopacity="1"
     objecttolerance="10"
     gridtolerance="10"
     guidetolerance="10"
     inkscape:pageopacity="0"
     inkscape:pageshadow="2"
     inkscape:window-width="1848"
     inkscape:window-height="1056"
     id="namedview19"
     showgrid="false"
     inkscape:zoom="11.453125"
     inkscape:cx="50.279838"
     inkscape:cy="29.007661"
     inkscape:window-x="72"
     inkscape:window-y="24"
     inkscape:window-maximized="1"
     inkscape:current-layer="svg17" />
  <defs
     id="defs7">
    <linearGradient
       inkscape:collect="always"
       id="linearGradient850">
      <stop
         style="stop-color:#e84b43;stop-opacity:1"
         offset="0"
         id="stop846" />
      <stop
         style="stop-color:#e86b43;stop-opacity:1"
         offset="1"
         id="stop848" />
    </linearGradient>
    <linearGradient
       id="a"
       x1="49.571"
       x2="51.714"
       y1="52.714"
       y2="54.857"
       gradientTransform="matrix(2.3333,0,0,2.3333,-68.667,-72.001)"
       gradientUnits="userSpaceOnUse">
      <stop
         offset="0"
         id="stop2" />
      <stop
         stop-opacity="0"
         offset="1"
         id="stop4" />
    </linearGradient>
    <linearGradient
       inkscape:collect="always"
       xlink:href="#linearGradient850"
       id="linearGradient933"
       x1="82.301567"
       y1="50.782787"
       x2="82.620834"
       y2="1.3043127"
       gradientUnits="userSpaceOnUse"
       gradientTransform="matrix(0.26457812,0,0,0.26457812,-15.755947,1.4111784)" />
  </defs>
  <path
     id="rect914"
     style="opacity:1;fill:url(#linearGradient933);fill-opacity:1;stroke-width:0.132289;stroke-linecap:square"
     d="m 3.4332017,1.0665034 c -0.732887,0 -1.322891,0.590004 -1.322891,1.3228905 V 14.559986 c 0,0.732886 0.590004,1.32289 1.322891,1.32289 H 13.487169 c 0.732887,0 1.323409,-0.590004 1.323409,-1.32289 V 2.3893939 c 0,-0.7328865 -0.590522,-1.3228905 -1.323409,-1.3228905 z" />
  <g
     transform="scale(.26458)"
     id="g13"
     style="fill:#e86b43;fill-opacity:1">
    <path
       d="m56 46-14 14h9c2.77 0 5-2.23 5-5z"
       fill="url(#a)"
       fill-rule="evenodd"
       opacity=".15"
       stroke-width="8.8191"
       style="paint-order:stroke fill markers;fill:#b03b17;fill-opacity:1"
       id="path11" />
  </g>
  <path
     d="m6.942 9.1745c0.26366-0.51679 0.56331-1.099 0.80315-1.6836l0.09483-0.23076c-0.31327-1.1921-0.50112-2.149-0.3333-2.7677 0.04518-0.16131 0.23201-0.25919 0.43176-0.25919l0.12172 0.0018h0.02234c0.27347-0.0042 0.40223 0.34367 0.41685 0.47892 0.02413 0.22525-0.08008 0.60646-0.08008 0.60646 0-0.15394 6e-3 -0.40268-0.09113-0.61733-0.1131-0.24837-0.22113-0.39674-0.31798-0.42026-0.0489 0.03266-0.09643 0.1003-0.11272 0.23041-0.03372 0.18243-0.04383 0.4127-0.04383 0.5314 0 0.41939 0.08258 0.97295 0.24486 1.5436 0.03061-0.08835 0.05755-0.17324 0.07897-0.25278 0.03328-0.12535 0.24483-0.95628 0.24483-0.95628s-0.05331 1.1061-0.12778 1.4408c-0.01596 0.07072-0.03356 0.14067-0.05189 0.21226 0.2676 0.7477 0.6988 1.415 1.2132 1.8953 0.20281 0.18954 0.45896 0.34238 0.70139 0.48168 0.52942-0.07565 1.0169-0.11138 1.4235-0.10688 0.53953 0.0071 0.93557 0.08691 1.0959 0.24488 0.07852 0.07678 0.11039 0.16951 0.12028 0.27346 0.0023 0.04044-0.01734 0.13546-0.02312 0.15931 0.0058-0.02887 0.0058-0.17083-0.42733-0.30908-0.34111-0.10904-0.9795-0.10565-1.7455-0.02411 0.88603 0.43348 1.7492 0.64886 2.0228 0.51974 0.06688-0.03259 0.148-0.14373 0.148-0.14373s-0.04822 0.21908-0.08284 0.27384c-0.04419 0.0595-0.13086 0.12396-0.21304 0.14569-0.43202 0.11526-1.5566-0.15146-2.537-0.71164-1.0953 0.16131-2.2982 0.45931-3.2625 0.77558-0.94754 1.6606-1.6599 2.4232-2.2394 2.1331l-0.21306-0.10714c-0.08661-0.04954-0.09983-0.17013-0.0798-0.26833 0.06757-0.33057 0.48208-0.82846 1.3147-1.3256 0.08962-0.05423 0.48884-0.26531 0.48884-0.26531s-0.29555 0.28605-0.36479 0.34219c-0.66458 0.5446-1.1551 1.2298-1.1428 1.4954l0.0024 0.02316c0.56454-0.08045 1.4111-1.2295 2.4995-3.3591m0.34492 0.17661c-0.18179 0.34238-0.35948 0.65982-0.52353 0.95129 0.90746-0.3802 1.8841-0.6235 2.8139-0.79634-0.12495-0.08628-0.24624-0.17764-0.36038-0.27422-0.51198-0.43346-0.90232-0.97424-1.1853-1.5433-0.17944 0.48342-0.39281 0.99712-0.7447 1.6626"
     enable-background="new"
     fill="#fff"
     stroke-width=".025916"
     id="path15" />
</svg>
