<?xml version="1.0" encoding="UTF-8" standalone="no"?>
<svg
   xmlns:dc="http://purl.org/dc/elements/1.1/"
   xmlns:cc="http://creativecommons.org/ns#"
   xmlns:rdf="http://www.w3.org/1999/02/22-rdf-syntax-ns#"
   xmlns:svg="http://www.w3.org/2000/svg"
   xmlns="http://www.w3.org/2000/svg"
   xmlns:xlink="http://www.w3.org/1999/xlink"
   xmlns:sodipodi="http://sodipodi.sourceforge.net/DTD/sodipodi-0.dtd"
   xmlns:inkscape="http://www.inkscape.org/namespaces/inkscape"
   width="64"
   height="64"
   viewBox="0 0 16.933 16.933"
   version="1.1"
   id="svg19"
   sodipodi:docname="application-x-shared.svg"
   inkscape:version="1.0.2 (e86c870879, 2021-01-15)">
  <metadata
     id="metadata23">
    <rdf:RDF>
      <cc:Work
         rdf:about="">
        <dc:format>image/svg+xml</dc:format>
        <dc:type
           rdf:resource="http://purl.org/dc/dcmitype/StillImage" />
      </cc:Work>
    </rdf:RDF>
  </metadata>
  <sodipodi:namedview
     pagecolor="#ffffff"
     bordercolor="#666666"
     borderopacity="1"
     objecttolerance="10"
     gridtolerance="10"
     guidetolerance="10"
     inkscape:pageopacity="0"
     inkscape:pageshadow="2"
     inkscape:window-width="640"
     inkscape:window-height="480"
     id="namedview21"
     showgrid="false"
     inkscape:zoom="13.165579"
     inkscape:cx="22.852641"
     inkscape:cy="33.89813"
     inkscape:current-layer="g15" />
  <defs
     id="defs5">
    <filter
       id="a"
       x="-.039"
       y="-.033"
       width="1.078"
       height="1.067"
       color-interpolation-filters="sRGB">
      <feGaussianBlur
         stdDeviation=".206"
         id="feGaussianBlur2" />
    </filter>
    <linearGradient
       id="a-36"
       x1="49.571"
       x2="51.714"
       y1="52.714"
       y2="54.857"
       gradientTransform="matrix(2.3333,0,0,2.3333,-68.667,-72.001)"
       gradientUnits="userSpaceOnUse">
      <stop
         offset="0"
         id="stop2" />
      <stop
         stop-opacity="0"
         offset="1"
         id="stop4" />
    </linearGradient>
    <linearGradient
       id="b"
       x1="7.9369998"
       x2="7.9369998"
       y1="15.346"
       y2="16.933001"
       gradientUnits="userSpaceOnUse"
       xlink:href="#a-3" />
    <linearGradient
       id="a-3">
      <stop
         offset="0"
         id="stop3" />
      <stop
         stop-opacity="0"
         offset="1"
         id="stop5" />
    </linearGradient>
    <radialGradient
       id="c"
       cx="35"
       cy="4"
       r="3.7279999"
       gradientTransform="matrix(1.696,0,0,1.0731,-24.361,-0.292)"
       gradientUnits="userSpaceOnUse"
       xlink:href="#a-3" />
    <linearGradient
       id="d"
       x1="43"
       x2="46.748001"
       y1="12"
       y2="8.2519999"
       gradientUnits="userSpaceOnUse"
       xlink:href="#a-3" />
    <radialGradient
       id="e"
       cx="52"
       cy="22"
       r="5.2059999"
       gradientTransform="matrix(0.96042,0,0,1.3331,2.058,-7.328)"
       gradientUnits="userSpaceOnUse"
       xlink:href="#a-3" />
    <linearGradient
       id="f"
       x1="5.8210001"
       x2="5.8210001"
       y1="1.058"
       gradientUnits="userSpaceOnUse"
       xlink:href="#a-3" />
    <radialGradient
       id="g"
       cx="3.175"
       cy="1.323"
       r="0.79400003"
       gradientTransform="matrix(0,-1.3333,1.6667,0,0.97,5.292)"
       gradientUnits="userSpaceOnUse"
       xlink:href="#a-3" />
    <linearGradient
       id="h"
       x1="13.758"
       x2="15.081"
       y1="10.583"
       y2="10.583"
       gradientUnits="userSpaceOnUse"
       xlink:href="#a-3" />
    <linearGradient
       id="i"
       x1="3.175"
       x2="1.852"
       y1="8.4659996"
       y2="8.4659996"
       gradientUnits="userSpaceOnUse"
       xlink:href="#a-3" />
    <radialGradient
       id="j"
       cx="13.758"
       cy="15.346"
       r="0.79400003"
       gradientTransform="matrix(0,2,-1.6667,0,39.334,-12.171)"
       gradientUnits="userSpaceOnUse"
       xlink:href="#a-3" />
    <radialGradient
       id="k"
       cx="3.175"
       cy="15.346"
       r="0.79400003"
       gradientTransform="matrix(-1.6667,0,0,-2,8.466,46.037)"
       gradientUnits="userSpaceOnUse"
       xlink:href="#a-3" />
    <linearGradient
       id="l"
       x1="7.9369998"
       x2="7.9369998"
       y1="15.346"
       y2="16.667999"
       gradientUnits="userSpaceOnUse"
       xlink:href="#a-3" />
    <radialGradient
       id="m"
       cx="35"
       cy="4"
       r="3.7279999"
       gradientTransform="matrix(1.6115,0,0,0.80482,-21.403,0.78)"
       gradientUnits="userSpaceOnUse"
       xlink:href="#a-3" />
    <linearGradient
       id="n"
       x1="43"
       x2="46.004002"
       y1="12"
       y2="8.9960003"
       gradientUnits="userSpaceOnUse"
       xlink:href="#a-3" />
    <radialGradient
       id="o"
       cx="52"
       cy="22"
       r="5.2059999"
       gradientTransform="matrix(0.76834,0,0,1.2272,12.047,-4.999)"
       gradientUnits="userSpaceOnUse"
       xlink:href="#a-3" />
    <linearGradient
       id="p"
       x1="5.8210001"
       x2="5.8210001"
       y1="1.058"
       y2="0.26499999"
       gradientUnits="userSpaceOnUse"
       xlink:href="#a-3" />
    <radialGradient
       id="q"
       cx="3.175"
       cy="1.323"
       r="0.79400003"
       gradientTransform="matrix(0,-1,1.3333,0,1.411,4.233)"
       gradientUnits="userSpaceOnUse"
       xlink:href="#a-3" />
    <linearGradient
       id="r"
       x1="13.758"
       x2="14.816"
       y1="10.583"
       y2="10.583"
       gradientUnits="userSpaceOnUse"
       xlink:href="#a-3" />
    <linearGradient
       id="s"
       x1="3.175"
       x2="2.1170001"
       y1="8.4659996"
       y2="8.4659996"
       gradientUnits="userSpaceOnUse"
       xlink:href="#a-3" />
    <radialGradient
       id="t"
       cx="13.758"
       cy="15.346"
       r="0.79400003"
       gradientTransform="matrix(0,1.6667,-1.3333,0,34.219,-7.585)"
       gradientUnits="userSpaceOnUse"
       xlink:href="#a-3" />
    <radialGradient
       id="u"
       cx="3.175"
       cy="15.346"
       r="0.79400003"
       gradientTransform="matrix(-1.3333,0,0,-1.6667,7.408,40.921)"
       gradientUnits="userSpaceOnUse"
       xlink:href="#a-3" />
    <linearGradient
       id="v"
       x1="21.039"
       x2="21.039"
       y1="2"
       y2="62"
       gradientTransform="matrix(0.26458,0,0,0.26458,45.221,-0.507)"
       gradientUnits="userSpaceOnUse">
      <stop
         stop-color="#42dfff"
         offset="0"
         id="stop17" />
      <stop
         stop-color="#1f89e6"
         offset="1"
         id="stop19" />
    </linearGradient>
    <radialGradient
       id="w"
       cx="40"
       cy="12"
       r="8"
       gradientTransform="matrix(0.39687,0,0,-0.52916,41.517,10.341)"
       gradientUnits="userSpaceOnUse"
       xlink:href="#a-3" />
    <radialGradient
       id="x"
       cx="10.583"
       cy="4.2329998"
       r="2.1170001"
       gradientTransform="matrix(-2,0,0,-2,76.971,12.457)"
       gradientUnits="userSpaceOnUse"
       xlink:href="#a-3" />
    <radialGradient
       id="y"
       cx="40"
       cy="12"
       r="8"
       gradientTransform="matrix(0,-0.39687,0.52916,0,49.455,18.278)"
       gradientUnits="userSpaceOnUse"
       xlink:href="#a-3" />
    <linearGradient
       id="z"
       x1="10.583"
       x2="6.3499999"
       y1="3.175"
       y2="3.175"
       gradientTransform="matrix(1,0,0,0.66667,45.221,1.169)"
       gradientUnits="userSpaceOnUse"
       xlink:href="#a-3" />
    <linearGradient
       id="A"
       x1="10.583"
       x2="8.7309999"
       y1="3.043"
       y2="3.043"
       gradientTransform="matrix(1,0,0,0.66667,45.221,1.169)"
       gradientUnits="userSpaceOnUse"
       xlink:href="#a-3" />
    <radialGradient
       id="B"
       cx="10.583"
       cy="4.2329998"
       r="2.1170001"
       gradientTransform="matrix(-0.875,0,0,-0.87849,65.065,7.71)"
       gradientUnits="userSpaceOnUse"
       xlink:href="#a-3" />
    <radialGradient
       id="C"
       cx="40"
       cy="12"
       r="8"
       gradientTransform="matrix(0,-0.34601,0.23278,0,53.011,16.244)"
       gradientUnits="userSpaceOnUse"
       xlink:href="#a-3" />
    <linearGradient
       id="D"
       x1="10.583"
       x2="6.3499999"
       y1="3.175"
       y2="3.175"
       gradientTransform="matrix(1,0,0,0.66667,-14.574,54.57)"
       gradientUnits="userSpaceOnUse"
       xlink:href="#a-3" />
    <linearGradient
       id="E"
       x1="10.583"
       x2="8.724"
       y1="3.043"
       y2="3.043"
       gradientTransform="matrix(1,0,0,0.66667,-14.574,54.57)"
       gradientUnits="userSpaceOnUse"
       xlink:href="#a-3" />
    <radialGradient
       id="F"
       cx="40"
       cy="12"
       r="8"
       gradientTransform="matrix(0.3793,0,0,-0.23243,42.22,6.78)"
       gradientUnits="userSpaceOnUse"
       xlink:href="#a-3" />
    <linearGradient
       id="G"
       x1="40"
       x2="46"
       y1="17"
       y2="11"
       gradientTransform="matrix(0.26458,0,0,0.26458,45.221,-0.507)"
       gradientUnits="userSpaceOnUse">
      <stop
         stop-color="#fefefe"
         offset="0"
         id="stop26" />
      <stop
         stop-color="#e9e9e9"
         offset="1"
         id="stop28" />
    </linearGradient>
    <linearGradient
       inkscape:collect="always"
       xlink:href="#a-5"
       id="linearGradient935"
       x1="79.942627"
       y1="23.204197"
       x2="74.82576"
       y2="89.989792"
       gradientUnits="userSpaceOnUse"
       gradientTransform="translate(18.487647,-33.856909)" />
    <linearGradient
       id="a-6"
       x1="21.039"
       x2="21.039"
       y1="2"
       y2="62"
       gradientTransform="matrix(0.26458,0,0,0.26458,-3.1532804,0.68939121)"
       gradientUnits="userSpaceOnUse">
      <stop
         stop-color="#858585"
         offset="0"
         id="stop7" />
      <stop
         stop-color="#383838"
         offset="1"
         id="stop9" />
    </linearGradient>
    <linearGradient
       id="b-3"
       x1="40"
       x2="46"
       y1="17"
       y2="11"
       gradientTransform="matrix(0.26458,0,0,0.26458,-14.682382,-3.3853172)"
       gradientUnits="userSpaceOnUse">
      <stop
         stop-color="#fefefe"
         offset="0"
         id="stop2-6" />
      <stop
         stop-color="#e9e9e9"
         offset="1"
         id="stop4-7" />
    </linearGradient>
    <linearGradient
       id="a-5"
       x1="45.800999"
       x2="9.802"
       y1="10"
       y2="61"
       gradientTransform="matrix(0.26458,0,0,0.26458,-14.624382,-3.3853172)"
       gradientUnits="userSpaceOnUse">
      <stop
         stop-color="#ededed"
         offset="0"
         id="stop7-3" />
      <stop
         stop-color="#fcfcfc"
         offset="1"
         id="stop9-5" />
    </linearGradient>
    <linearGradient
       id="b-36"
       x1="40"
       x2="46"
       y1="17"
       y2="11"
       gradientTransform="matrix(0.26458,0,0,0.26458,64.749179,-17.979529)"
       gradientUnits="userSpaceOnUse">
      <stop
         stop-color="#fefefe"
         offset="0"
         id="stop2-7" />
      <stop
         stop-color="#e9e9e9"
         offset="1"
         id="stop4-5" />
    </linearGradient>
    <linearGradient
       id="a-35"
       x1="45.800999"
       x2="9.802"
       y1="10"
       y2="61"
       gradientTransform="matrix(0.26458,0,0,0.26458,64.807179,-17.979529)"
       gradientUnits="userSpaceOnUse">
      <stop
         stop-color="#ededed"
         offset="0"
         id="stop7-6" />
      <stop
         stop-color="#fcfcfc"
         offset="1"
         id="stop9-2" />
    </linearGradient>
  </defs>
  <g
     fill-rule="evenodd"
     id="g15">
    <path
       d="M 3.44,1.354 A 1.32,1.32 0 0 0 2.117,2.677 v 12.171 c 0,0.733 0.59,1.323 1.323,1.323 h 10.053 a 1.32,1.32 0 0 0 1.323,-1.323 V 4.53 L 11.641,1.355 Z"
       filter="url(#a)"
       opacity="0.15"
       style="paint-order:stroke fill markers"
       id="path7" />
  </g>
  <g
     id="g1044"
     transform="translate(0.01429603,-0.01388441)">
    <path
       id="rect926"
       style="fill:url(#linearGradient935);fill-opacity:1;stroke-width:0.5;stroke-linecap:square"
       d="m 91.230469,-9.6894531 c -2.770018,0 -5,2.22998 -5,5 V 41.3125 c 0,1.029991 0.310084,1.98552 0.839843,2.779297 0.902538,1.289449 2.393554,2.134765 4.09375,2.134765 h 37.999998 c 2.77002,0 5,-2.229978 5,-5 V 2.2265625 L 122.24805,-9.6894531 Z"
       transform="matrix(0.26457812,0,0,0.26457812,-20.712342,3.6358217)" />
    <g
       transform="scale(0.26458)"
       id="g13" />
    <g
       id="g1034"
       transform="matrix(0.90110741,-0.34267728,0.34267728,0.90110741,-1.6243885,6.6281757)">
      <path
         d="m 8.5018704,4.8008294 a 3.6579697,3.6579697 0 0 0 -3.65797,3.6579697 3.6579697,3.6579697 0 0 0 3.65797,3.6569059 A 3.6579697,3.6579697 0 0 0 12.15984,8.4577358 3.6579697,3.6579697 0 0 0 8.5018704,4.7997661 Z m 0,1.4812651 A 2.1756413,2.1756413 0 0 1 10.677511,8.4577358 2.1756413,2.1756413 0 0 1 8.5018704,10.632313 2.1756413,2.1756413 0 0 1 6.3262292,8.4577358 2.1756413,2.1756413 0 0 1 8.5018704,6.2820945 Z"
         opacity="0.15"
         style="opacity:0.0998266;stroke-width:1.06336;paint-order:stroke markers fill"
         id="path15" />
      <path
         id="rect1062"
         style="opacity:1;fill:#b3b3b3;fill-opacity:1;stroke-width:0.155744;stroke-linecap:square"
         d="M 8.4729953,4.1020621 C 8.2659376,4.1203487 8.2659379,4.2949779 8.1919255,4.7226059 A 3.7673683,3.7485316 0 0 0 7.7757964,4.7816183 C 7.5921372,4.3389526 7.5290804,4.1843403 7.3560167,4.2432054 7.1558754,4.3103119 7.2025149,4.4814705 7.2331249,4.9288453 A 3.7673683,3.7485316 0 0 0 6.8474145,5.0876315 C 6.537784,4.7144265 6.4317505,4.5850526 6.2822332,4.6921872 6.113879,4.8134494 6.2041325,4.9625318 6.3607137,5.3687013 A 3.7673683,3.7485316 0 0 0 6.0254985,5.6266527 C 5.6358114,5.3393908 5.5001358,5.2395529 5.3812284,5.379652 5.2470158,5.5385877 5.3732839,5.6594485 5.6264038,6.0208804 A 3.7673683,3.7485316 0 0 0 5.3733194,6.3481866 C 4.9647954,6.1963145 4.8138876,6.1080834 4.6949803,6.2776144 4.589023,6.4271321 4.7197319,6.5323202 5.0952916,6.8348871 A 3.7673683,3.7485316 0 0 0 4.9340721,7.2230314 C 4.5043565,7.1818258 4.3361047,7.1370671 4.2654666,7.331322 4.2030695,7.5020308 4.3547744,7.5707209 4.7868448,7.7614437 a 3.7673683,3.7485316 0 0 0 -0.052928,0.4106542 c -0.4238291,0.082411 -0.5990763,0.084775 -0.6120265,0.2908035 -0.011773,0.1789503 0.1527204,0.203345 0.6071594,0.2622102 a 3.7673683,3.7485316 0 0 0 0.059012,0.4380307 C 4.3995518,9.3338514 4.2312854,9.3773837 4.2642498,9.57988 4.2925051,9.7600072 4.4596585,9.7450757 4.9352887,9.7003384 A 3.7673683,3.7485316 0 0 0 5.1050256,10.1043 c -0.3319994,0.256652 -0.4828016,0.34088 -0.402745,0.528071 0.071815,0.168354 0.230632,0.112008 0.6862482,-0.04928 a 3.7673683,3.7485316 0 0 0 0.2451754,0.31818 c -0.249588,0.367318 -0.3756194,0.49077 -0.2378747,0.648529 0.1200847,0.137743 0.2530504,0.03657 0.6333193,-0.251867 a 3.7673683,3.7485316 0 0 0 0.3364319,0.258558 c -0.1518722,0.42383 -0.2436351,0.577036 -0.070572,0.694765 0.1530495,0.10478 0.2553536,-0.02803 0.5590976,-0.410654 l -0.074222,-0.04381 a 3.7673683,3.7485316 0 0 0 0.4428977,0.188596 c -0.029433,0.435602 -0.070715,0.60511 0.1247172,0.671041 0.1707088,0.05651 0.2352355,-0.09398 0.4106537,-0.520165 a 3.7673683,3.7485316 0 0 0 0.4264717,0.05719 c 0.081234,0.480337 0.107144,0.64668 0.2908034,0.627842 0.2060282,-0.02001 0.2024439,-0.195656 0.2707275,-0.624193 a 3.7673683,3.7485316 0 0 0 0.43073,-0.05537 c 0.1765957,0.432072 0.2417703,0.583973 0.4124791,0.527462 0.1977868,-0.06593 0.1553664,-0.235435 0.1259338,-0.671039 a 3.7673683,3.7485316 0 0 0 0.3905776,-0.158785 c 0.294325,0.372026 0.399237,0.501519 0.548755,0.399095 0.170708,-0.11773 0.08446,-0.268518 -0.06388,-0.67469 a 3.7673683,3.7485316 0 0 0 0.348599,-0.264643 c 0.364964,0.276666 0.497946,0.372087 0.615677,0.237874 0.134212,-0.153048 0.01698,-0.2805 -0.220841,-0.626627 a 3.7673683,3.7485316 0 0 0 0.254301,-0.322438 c 0.445021,0.156581 0.601049,0.211588 0.672864,0.04441 0.08006,-0.186014 -0.06819,-0.270693 -0.396661,-0.523812 a 3.7673683,3.7485316 0 0 0 0.172173,-0.4082066 c 0.468566,0.04356 0.634267,0.058492 0.662521,-0.1204584 0.03296,-0.2001414 -0.132632,-0.2470481 -0.514078,-0.4118707 a 3.7673683,3.7485316 0 0 0 0.05658,-0.4428977 c 0.44973,-0.058865 0.611633,-0.084437 0.59986,-0.2622102 -0.01177,-0.2036732 -0.185449,-0.209491 -0.59986,-0.2883701 a 3.7673683,3.7485316 0 0 0 -0.05658,-0.4179544 c 0.425007,-0.1883683 0.575259,-0.255723 0.512862,-0.4252546 -0.07064,-0.1919004 -0.23622,-0.1495361 -0.658872,-0.109508 A 3.7673683,3.7485316 0 0 0 11.876859,6.8275867 c 0.368496,-0.29668 0.496575,-0.4004543 0.391795,-0.5499719 -0.117731,-0.1695314 -0.268481,-0.08134 -0.673473,0.069355 A 3.7673683,3.7485316 0 0 0 11.334796,6.0129714 C 11.60793,5.6268162 11.703605,5.4902001 11.562329,5.3760017 11.403393,5.2464984 11.282065,5.3691498 10.943001,5.6187437 A 3.7673683,3.7485316 0 0 0 10.599269,5.3547086 C 10.779396,4.9143974 10.84322,4.7612928 10.679569,4.6812362 10.4912,4.5882292 10.402668,4.7412682 10.10952,5.0803308 A 3.7673683,3.7485316 0 0 0 9.7195577,4.9203282 C 9.759586,4.437634 9.7761059,4.2726775 9.5936237,4.2444224 9.3899505,4.2138125 9.3488515,4.3823548 9.1793198,4.7767513 A 3.7673683,3.7485316 0 0 0 8.7522397,4.7238225 C 8.6806016,4.2528899 8.6554674,4.0876833 8.4742119,4.1020621 Z M 8.3221179,5.2549348 c 0.4167652,-0.00706 0.9124537,0.065598 1.0725669,0.1350596 0.7004952,0.2130918 1.3484122,0.6054492 1.9005672,1.5166814 0.102425,0.1695314 0.176316,0.3341808 0.20928,0.4848755 a 0.62632498,0.62632498 0 0 1 -0.08092,0.4873091 c -0.08712,0.1153757 -0.196687,0.2237476 -0.347382,0.2378751 -0.472099,0.04356 -1.1126091,0.017446 -1.6176722,0.011561 -0.084766,0 -0.1650503,-0.034938 -0.1885963,-0.060837 C 9.1192708,7.9732753 9.0180109,7.7692472 8.8520111,7.7115596 8.5847657,7.5891176 8.4776796,7.6914104 8.326985,7.5077512 A 26.081963,26.081963 0 0 1 7.5385297,6.1589816 C 7.3595796,5.8493511 7.4757358,5.5395284 7.7441606,5.3723513 7.8501179,5.2899401 8.0725297,5.2584661 8.3221179,5.2549348 Z M 6.4635292,6.2070434 c 0.022369,0 0.043335,7.87e-5 0.065704,0.00244 0.1436312,0.020014 0.2918585,0.061369 0.3778016,0.1861632 0.2707798,0.3885097 0.5629658,0.9571679 0.80549,1.3986564 0.041206,0.07417 0.050709,0.161147 0.038936,0.1952887 C 7.7432195,8.166184 7.6149931,8.3531129 7.6456035,8.5261763 7.6691495,8.8181474 7.8124211,8.8608989 7.725301,9.0822321 7.4745356,9.5402028 7.2075071,9.9965771 6.9331956,10.431001 6.7507135,10.7371 6.4231921,10.787896 6.1453487,10.636024 5.8192358,10.499453 5.3802815,9.4707961 5.3520264,9.1929527 5.1942677,8.4795075 5.2175265,7.7237052 5.7426037,6.7971681 A 1.6599967,1.6599967 0 0 1 6.0632178,6.377997 C 6.1691751,6.2838128 6.31048,6.2117524 6.4635292,6.2070434 Z M 8.4815126,8.1495879 A 0.31198519,0.31198519 0 0 1 8.7930011,8.4616848 0.31198519,0.31198519 0 0 1 8.4815126,8.772565 0.31198519,0.31198519 0 0 1 8.1706324,8.4616848 0.31198519,0.31198519 0 0 1 8.4815126,8.1495879 Z M 10.194091,8.801767 h 0.0012 c 0.261361,0.00118 0.522717,0.007 0.780546,0.016426 0.356723,0.00471 0.565378,0.263657 0.571265,0.579174 0.04474,0.3508363 -0.628765,1.243529 -0.855986,1.407174 -0.540381,0.494467 -1.2080806,0.850216 -2.274717,0.859635 A 1.6694151,1.6694151 0 0 1 7.8913876,11.596646 0.62514768,0.62514768 0 0 1 7.5135863,11.279074 C 7.4582531,11.146039 7.4196717,10.99643 7.4856006,10.858686 7.6880968,10.431325 8.0339879,9.8946123 8.2953489,9.4648968 8.3400864,9.391904 8.410907,9.3399431 8.4462261,9.3328792 8.6039848,9.2528226 8.8309979,9.2706482 8.9663877,9.1564503 9.2077349,8.9916279 9.1738251,8.844426 9.4092855,8.8102843 c 0.2613613,-0.00589 0.5234439,-0.00969 0.7848055,-0.00851 z" />
    </g>
    <g
       id="g1242"
       transform="translate(4.7626098,21.535604)"
       style="opacity:0.5">
      <path
         id="rect926-7-2"
         style="opacity:0.1;fill:#010101;fill-opacity:1;stroke-width:0.5;stroke-linecap:square"
         d="m -7.4257812,-66.199219 a 6.3050465,6.3050465 0 0 0 -1.4414063,0.195313 6.3050465,6.3050465 0 0 0 -1.1054687,0.394531 v 3.078125 a 3.7500364,3.7500364 0 0 1 1.7382812,-0.998047 3.7500364,3.7500364 0 0 1 4.5605469,2.707031 3.7500364,3.7500364 0 0 1 -2.7050781,4.560547 3.7500364,3.7500364 0 0 1 -3.59375,-0.998047 v 3.076172 a 6.3050465,6.3050465 0 0 0 4.2246093,0.396485 6.3050465,6.3050465 0 0 0 4.5507813,-7.667969 h -0.00195 a 6.3050465,6.3050465 0 0 0 -6.2265624,-4.744141 z"
         transform="scale(0.26457812)" />
      <path
         id="rect926-7"
         style="fill:#b3b3b3;fill-opacity:1;stroke-width:0.5;stroke-linecap:square"
         d="m -7.2304688,-67.451172 c -0.3116997,-0.03144 -0.3617483,0.251785 -0.4960937,1.054688 a 6.493611,6.4611432 75.681563 0 0 -0.7089844,0.08594 c -0.3183032,-0.672708 -0.3964845,-0.964634 -0.7460937,-0.898437 -0.3038841,0.05662 -0.2750932,0.3429 -0.1796875,1.126953 a 6.493611,6.4611432 75.681563 0 0 -0.6113281,0.242187 v 1.050782 c 0.026115,-0.01226 0.074201,-0.04681 0.095703,-0.05469 1.1242785,-0.567598 2.3967279,-0.84916 4.1679687,-0.367188 a 2.8612474,2.8612474 0 0 1 0.8359375,0.355469 c 0.2024645,0.136811 0.3839255,0.342103 0.4570313,0.595703 0.00954,0.03736 0.017846,0.07296 0.023437,0.111328 0.027801,0.248411 0.021393,0.514207 -0.1503907,0.710938 -0.5334243,0.617843 -1.3582383,1.34817 -1.9921874,1.941406 -0.1063065,0.100435 -0.2485082,0.153546 -0.3105469,0.148438 -0.2984405,0.06151 -0.6634679,-0.07411 -0.9394531,0.05078 -0.4775849,0.163785 -0.4896978,0.422244 -0.8964844,0.371094 -0.4345757,-0.111458 -0.8590049,-0.248535 -1.2910156,-0.373047 v 1.210937 c 0.3064604,0.09481 0.6206724,0.193071 0.8964843,0.277344 0.1409761,0.0436 0.25635,0.139337 0.2832031,0.195313 0.2009517,0.229347 0.2691424,0.615533 0.5175782,0.792968 0.378151,0.332815 0.6101867,0.213108 0.7675781,0.591797 0.1212491,0.43399 0.2382147,0.87159 0.3476563,1.308594 v 0.002 c 0.1094413,0.437003 0.2124766,0.875928 0.3066406,1.310547 0.1441964,0.597772 -0.2001729,1.054889 -0.7246094,1.199219 -0.476184,0.188398 -1.7615216,-0.295769 -2.3945312,-0.642578 v 1.041015 a 6.493611,6.4611432 75.681563 0 0 0.4238281,0.179688 c -0.071805,0.809978 -0.096927,1.093903 0.2128906,1.142578 0.3447903,0.05441 0.4223626,-0.23024 0.7050781,-0.886719 a 6.493611,6.4611432 75.681563 0 0 0.75586,0.113234 c 0.1269889,0.801123 0.1734653,1.085736 0.484375,1.056641 0.3483069,-0.03027 0.3560806,-0.327842 0.46875,-1.035156 a 6.493611,6.4611432 75.681563 0 0 0.7636719,-0.09375 c 0.2900199,0.726003 0.4014783,0.986067 0.6933593,0.890625 0.3351381,-0.106478 0.2695268,-0.399267 0.2246094,-1.125 a 6.493611,6.4611432 75.681563 0 0 0.6738282,-0.273438 c 0.495765,0.629509 0.6731505,0.852258 0.9296874,0.675781 0.2903814,-0.199778 0.1493614,-0.457674 -0.097656,-1.146484 a 6.493611,6.4611432 75.681563 0 0 0.5878906,-0.439453 c 0.6525675,0.488959 0.8808929,0.658651 1.0859375,0.419922 0.2329491,-0.26889 0.021971,-0.483562 -0.4023437,-1.095703 a 6.493611,6.4611432 75.681563 0 0 0.4472656,-0.578125 c 0.7613497,0.291553 1.02965573,0.394 1.16015625,0.109375 0.14853324,-0.320644 -0.10853926,-0.471765 -0.66992185,-0.931641 a 6.493611,6.4611432 75.681563 0 0 0.2949218,-0.685547 c 0.81214919,0.113137 1.09426093,0.153144 1.15820318,-0.154297 0.07503405,-0.354242 -0.21697144,-0.436197 -0.90820313,-0.78125 a 6.493611,6.4611432 75.681563 0 0 0.1015625,-0.71875 c 0.82321237,-0.138909 1.10481766,-0.183191 1.07421875,-0.5 -0.0356994,-0.353203 -0.33545593,-0.34983 -1.06640625,-0.464843 a 6.493611,6.4611432 75.681563 0 0 -0.09375,-0.734375 c 0.75596853,-0.320391 1.0212009,-0.433883 0.91992188,-0.730469 v -0.002 c -0.11880433,-0.338013 -0.41051727,-0.263758 -1.15625003,-0.205078 a 6.493611,6.4611432 75.681563 0 0 -0.2753906,-0.669922 c 0.66100793,-0.495428 0.8927869,-0.665746 0.72070312,-0.929688 -0.1973903,-0.305651 -0.46315172,-0.155889 -1.19726562,0.08594 a 6.493611,6.4611432 75.681563 0 0 -0.4296875,-0.576172 c 0.4913028,-0.676204 0.6606303,-0.907288 0.4179687,-1.111328 -0.2742858,-0.229478 -0.4841049,-0.01668 -1.0957031,0.417969 a 6.493611,6.4611432 75.681563 0 0 -0.5742187,-0.449219 c 0.3136427,-0.773271 0.4233393,-1.042774 0.1386718,-1.181641 -0.3226507,-0.156398 -0.4710672,0.106788 -0.9667968,0.683594 a 6.493611,6.4611432 75.681563 0 0 -0.6542969,-0.283203 c 0.079498,-0.747017 0.1619467,-1.037742 -0.171875,-1.164063 -0.2948771,-0.113224 -0.4145398,0.15005 -0.7597656,0.90625 a 6.493611,6.4611432 75.681563 0 0 -0.7167969,-0.103515 c -0.11436,-0.735235 -0.1103066,-1.035146 -0.4648438,-1.070313 z m 4.0703126,4.667969 c 0.246045,0.0088 0.4867806,0.118124 0.6835937,0.306641 0.1828023,0.141829 0.3291151,0.500682 0.4414063,0.916015 0.189448,0.693032 0.2801774,1.550641 0.2324218,1.847656 -0.057281,1.260736 -0.4361748,2.511673 -1.7226562,3.822266 -0.2394736,0.243328 -0.4830792,0.435397 -0.7207032,0.554687 a 1.0795628,1.0795628 0 0 1 -0.8476562,0.07227 c -0.2298266,-0.09632 -0.4590429,-0.232861 -0.546875,-0.478516 -0.2739944,-0.769885 -0.5035165,-1.849296 -0.7089844,-2.695312 -0.036134,-0.141568 -0.011732,-0.291432 0.021484,-0.341797 0.093062,-0.291817 0.3904332,-0.547782 0.4160156,-0.849609 0.09057,-0.498522 -0.1253048,-0.632926 0.1171875,-0.962891 a 44.956083,44.956083 0 0 1 1.9160157,-1.892578 c 0.2204163,-0.215427 0.4727049,-0.307581 0.71875,-0.298828 z m -4.171875,2.320312 a 0.53775217,0.53775217 0 0 1 0.53125,0.402344 0.53775217,0.53775217 0 0 1 -0.3886719,0.652344 0.53775217,0.53775217 0 0 1 -0.6523438,-0.386719 0.53775217,0.53775217 0 0 1 0.3867188,-0.652344 0.53775217,0.53775217 0 0 1 0.1230469,-0.01563 z"
         transform="scale(0.26457812)" />
    </g>
    <g
       id="g1188"
       transform="translate(-24.132351,16.582872)"
       style="opacity:0.3" />
    <g
       id="g1034-9-1"
       transform="matrix(0.88664114,0,0,0.88664114,29.588082,-20.168493)" />
    <g
       id="g1034-9-6-8"
       transform="matrix(0.11278341,0.44187284,-0.44187284,0.11278341,0.84515679,-20.557718)" />
  </g>
  <path
     d="m 11.623829,2.888037 v 0.155 c 0,0.794 0.59,1.433 1.323,1.433 h 1.852 v -0.265 h -1.852 a 1.32,1.32 0 0 1 -1.324,-1.323 z"
     opacity="0.1"
     style="paint-order:stroke fill markers"
     id="path13" />
  <path
     d="m 14.798829,4.211037 -3.175,-3.175 v 1.852 c 0,0.733 0.59,1.323 1.323,1.323 z"
     fill="#bbbbbb"
     style="paint-order:stroke fill markers"
     id="path11" />
  <path
     id="rect926-0-1"
     style="display:inline;opacity:0.04;fill:#000000;fill-opacity:1;stroke-width:0.132289;stroke-linecap:square"
     d="M 11.447549,1.0575783 A 3.2433063,3.2433063 0 0 0 9.76603,3.8997261 3.2433063,3.2433063 0 0 0 13.009179,7.1423583 3.2433063,3.2433063 0 0 0 14.798698,6.6033839 V 4.6180143 A 1.929013,1.929013 0 0 1 13.009179,5.8272191 1.929013,1.929013 0 0 1 11.080134,3.8992094 1.929013,1.929013 0 0 1 12.58389,2.0177073 l -0.96013,-0.960129 z" />
  <path
     id="rect926-0-2-2"
     style="opacity:0.3;fill:#b3b3b3;fill-opacity:1;stroke-width:0.132289;stroke-linecap:square"
     d="m 11.069361,1.0583169 c 0.01373,0.034647 0.0249,0.062327 0.04031,0.1023173 A 3.3403038,3.3236023 0 0 0 10.812535,1.3895563 C 10.467017,1.134858 10.346949,1.0462351 10.24152,1.1704526 10.122526,1.3113717 10.23412,1.4184217 10.458559,1.7388821 A 3.3403038,3.3236023 0 0 0 10.234286,2.029298 C 9.8720738,1.894642 9.7382128,1.8164573 9.6327838,1.966771 c -0.09395,0.1325684 0.02201,0.2257488 0.355011,0.494017 a 3.3403038,3.3236023 0 0 0 -0.143142,0.3441583 c -0.381003,-0.036535 -0.530085,-0.076118 -0.592716,0.096116 -0.05532,0.1513579 0.0794,0.2122616 0.462496,0.3813645 a 3.3403038,3.3236023 0 0 0 -0.04703,0.363795 c -0.375783,0.07307 -0.531109,0.07519 -0.542592,0.2578603 -0.01045,0.1586651 0.135533,0.1803473 0.538459,0.2325393 a 3.3403038,3.3236023 0 0 0 0.05219,0.3885991 c -0.344468,0.1513579 -0.493788,0.1899371 -0.464562,0.3694793 0.02505,0.1597078 0.173071,0.1466329 0.594784,0.1069681 a 3.3403038,3.3236023 0 0 0 0.150892,0.3581105 c -0.294364,0.2275591 -0.428058,0.3022072 -0.357077,0.4681791 0.06368,0.1492692 0.204251,0.099076 0.6082202,-0.043924 a 3.3403038,3.3236023 0 0 0 0.217554,0.2821477 c -0.221295,0.3256801 -0.332966,0.4352715 -0.210837,0.5751473 0.106472,0.122128 0.224035,0.0325 0.561197,-0.2232378 a 3.3403038,3.3236023 0 0 0 0.298682,0.2289223 c -0.134654,0.3757848 -0.216493,0.5115869 -0.06304,0.6159707 0.135699,0.0929 0.226772,-0.02454 0.496084,-0.363795 l -0.06614,-0.038756 a 3.3403038,3.3236023 0 0 0 0.392735,0.1669117 c -0.02609,0.3862219 -0.06269,0.5368417 0.110583,0.5953008 0.151359,0.0501 0.208781,-0.083589 0.364313,-0.4614615 a 3.3403038,3.3236023 0 0 0 0.378262,0.050642 c 0.07202,0.4258869 0.09502,0.5732471 0.257861,0.5565443 0.182672,-0.01774 0.179233,-0.1734847 0.239774,-0.5534437 a 3.3403038,3.3236023 0 0 0 0.381881,-0.049092 c 0.15658,0.3830919 0.214507,0.5177675 0.365864,0.4676625 0.175365,-0.05846 0.137713,-0.208559 0.111617,-0.5947841 a 3.3403038,3.3236023 0 0 0 0.346222,-0.1405573 c 0.18031,0.2279132 0.280045,0.3505052 0.368446,0.376197 V 6.1085551 c -0.453357,0.3699 -1.01661,0.6265524 -1.866514,0.6340575 A 1.4801721,1.4801721 0 0 1 12.46718,6.6826686 0.55428164,0.55428164 0 0 1 12.131806,6.4010376 c -0.04906,-0.117954 -0.08327,-0.2504497 -0.0248,-0.3725797 0.17954,-0.3789161 0.486557,-0.8545553 0.71829,-1.2355592 0.03966,-0.06472 0.102524,-0.1110403 0.13384,-0.1173031 0.139874,-0.07098 0.340898,-0.05532 0.460942,-0.1565764 0.213988,-0.1461382 0.183967,-0.276681 0.392735,-0.3069522 0.231733,-0.0052 0.463818,-0.00833 0.695552,-0.00723 h 0.0016 c 0.09674,4.489e-4 0.192349,0.0044 0.288864,0.0062 L 14.198823,3.6110825 c -0.114427,-0.00195 -0.237536,-0.00238 -0.342608,-0.00362 -0.07516,0 -0.146033,-0.030782 -0.166911,-0.053742 C 13.5557,3.4702125 13.465973,3.289135 13.318791,3.237986 13.08184,3.129424 12.986809,3.220476 12.853197,3.0576388 A 23.125341,23.125341 0 0 1 12.154028,1.8613529 C 12.082328,1.7372962 12.065938,1.614052 12.089438,1.501692 L 11.646063,1.0583169 Z m 0.131773,0.8459265 c 0.01984,0 0.03804,-1.96e-5 0.05788,0.00207 0.127349,0.017745 0.25917,0.054197 0.335371,0.1648445 0.240086,0.3444688 0.499124,0.8487687 0.714155,1.2402101 0.03654,0.06576 0.04454,0.1428416 0.03411,0.1731126 -0.0073,0.156574 -0.120676,0.3224846 -0.09353,0.4759307 0.02088,0.258873 0.148039,0.2967402 0.0708,0.4929834 -0.222339,0.4060558 -0.45957,0.810591 -0.702786,1.1957689 C 11.455339,5.9205636 11.165348,5.965717 10.919,5.831061 10.629825,5.7099732 10.240737,4.7979218 10.215684,4.5515751 10.075807,3.919005 10.096354,3.248705 10.561908,2.4271987 a 1.4718213,1.4718213 0 0 1 0.284215,-0.3715463 c 0.09395,-0.083508 0.219309,-0.1472339 0.355011,-0.151409 z m 1.787453,1.7223417 a 0.27661891,0.27661891 0 0 1 0.0015,0 0.27661891,0.27661891 0 0 1 0.275947,0.2764635 0.27661891,0.27661891 0 0 1 -0.275947,0.2759465 0.27661891,0.27661891 0 0 1 -0.275429,-0.2759465 0.27661891,0.27661891 0 0 1 0.273881,-0.2764635 z" />
</svg>
