<?xml version="1.0" encoding="UTF-8" standalone="no"?>
<svg
   width="64"
   height="64"
   viewBox="0 0 16.933 16.933"
   version="1.1"
   id="svg23"
   sodipodi:docname="application-json.svg"
   inkscape:version="1.1.2 (0a00cf5339, 2022-02-04)"
   xmlns:inkscape="http://www.inkscape.org/namespaces/inkscape"
   xmlns:sodipodi="http://sodipodi.sourceforge.net/DTD/sodipodi-0.dtd"
   xmlns:xlink="http://www.w3.org/1999/xlink"
   xmlns="http://www.w3.org/2000/svg"
   xmlns:svg="http://www.w3.org/2000/svg">
  <sodipodi:namedview
     id="namedview25"
     pagecolor="#ffffff"
     bordercolor="#666666"
     borderopacity="1.0"
     inkscape:pageshadow="2"
     inkscape:pageopacity="0.0"
     inkscape:pagecheckerboard="0"
     showgrid="false"
     inkscape:zoom="7.0625"
     inkscape:cx="17.699115"
     inkscape:cy="39.362832"
     inkscape:current-layer="svg23" />
  <defs
     id="defs5">
    <filter
       id="a"
       x="-0.038932178"
       y="-0.033367063"
       width="1.0778644"
       height="1.0667341"
       color-interpolation-filters="sRGB">
      <feGaussianBlur
         stdDeviation=".206"
         id="feGaussianBlur2" />
    </filter>
    <linearGradient
       id="d"
       x1="-666.12"
       x2="-553.27"
       y1="413.04"
       y2="525.91"
       gradientTransform="matrix(0.99884,0,0,0.9987,689.01,-388.84)"
       gradientUnits="userSpaceOnUse"
       xlink:href="#a-3" />
    <linearGradient
       id="a-3">
      <stop
         stop-color="#3b3b3b"
         offset="0"
         id="stop28" />
      <stop
         stop-color="#fff"
         offset="1"
         id="stop30" />
    </linearGradient>
    <linearGradient
       id="e"
       x1="-553.27"
       x2="-666.12"
       y1="525.91"
       y2="413.05"
       gradientTransform="matrix(0.99884,0,0,0.9987,689.01,-388.84)"
       gradientUnits="userSpaceOnUse"
       xlink:href="#a-3" />
    <linearGradient
       id="c"
       x1="40"
       x2="46"
       y1="17"
       y2="11"
       gradientTransform="matrix(0.26458,0,0,0.26458,-0.006,-0.265)"
       gradientUnits="userSpaceOnUse">
      <stop
         stop-color="#fefefe"
         offset="0"
         id="stop34" />
      <stop
         stop-color="#e9e9e9"
         offset="1"
         id="stop36" />
    </linearGradient>
    <linearGradient
       id="b"
       x1="45.801"
       x2="9.802"
       y1="10"
       y2="61"
       gradientTransform="translate(.052 -.265) scale(.26458)"
       gradientUnits="userSpaceOnUse">
      <stop
         stop-color="#ededed"
         offset="0"
         id="stop39" />
      <stop
         stop-color="#fcfcfc"
         offset="1"
         id="stop41" />
    </linearGradient>
    <linearGradient
       inkscape:collect="always"
       xlink:href="#b"
       id="linearGradient1182"
       x1="50.343365"
       y1="11.080533"
       x2="9.6001806"
       y2="59.116539"
       gradientUnits="userSpaceOnUse" />
  </defs>
  <g
     fill-rule="evenodd"
     id="g21">
    <path
       d="M3.44 1.354a1.32 1.32 0 0 0-1.323 1.323v12.171c0 .733.59 1.323 1.323 1.323h10.053a1.32 1.32 0 0 0 1.323-1.323V4.53l-3.175-3.175z"
       filter="url(#a)"
       opacity=".15"
       style="paint-order:stroke fill markers"
       id="path7" />
    <path
       transform="scale(.26458)"
       d="M13 4c-2.77 0-5 2.23-5 5v46c0 2.77 2.23 5 5 5h38c2.77 0 5-2.23 5-5V16L44 4H13z"
       fill="#f4f4f4"
       style="paint-order:stroke fill markers;fill-opacity:1;fill:url(#linearGradient1182)"
       id="path9" />
    <path
       d="m14.816 4.233-3.175-3.175V2.91c0 .733.59 1.323 1.323 1.323z"
       fill="#bbb"
       style="paint-order:stroke fill markers"
       id="path11" />
    <g
       color="#000"
       id="g17" />
    <path
       d="M11.641 2.91v.155c0 .794.59 1.433 1.323 1.433h1.852v-.265h-1.852A1.32 1.32 0 0 1 11.64 2.91z"
       opacity=".1"
       style="paint-order:stroke fill markers"
       id="path19" />
  </g>
  <g
     id="g82"
     transform="translate(8.656e-4,-1.0874007)">
    <g
       fill-rule="evenodd"
       color="#000000"
       id="g58">
      <path
         d="m 79.865,119.1 c 35.398,48.255 70.04,-13.469 69.989,-50.587 C 149.794,24.627 105.313,0.099 79.836,0.099 38.944,0.099 0,33.895 0,80.135 0,131.531 44.64,160 79.836,160 71.871,158.853 45.33,153.166 44.973,92.033 44.733,50.686 58.461,34.167 79.778,41.434 c 0.477,0.177 23.514,9.265 23.514,38.951 0,29.56 -23.427,38.715 -23.427,38.715 z"
         fill="url(#d)"
         transform="matrix(0.0496,0,0,0.0496,4.498,6.345)"
         id="path54"
         style="fill:url(#d)" />
      <path
         d="M 79.823,41.401 C 56.433,33.339 27.78,52.617 27.78,91.23 27.78,154.278 74.501,160 80.164,160 121.056,160 160,126.204 160,79.964 160,28.568 115.36,0.099 80.164,0.099 c 9.748,-1.35 52.541,10.55 52.541,69.037 0,38.141 -31.953,58.905 -52.735,50.033 -0.477,-0.177 -23.514,-9.264 -23.514,-38.951 0,-29.56 23.367,-38.818 23.367,-38.818 z"
         fill="url(#e)"
         transform="matrix(0.0496,0,0,0.0496,4.498,6.345)"
         id="path56"
         style="fill:url(#e)" />
    </g>
  </g>
</svg>
