<?xml version="1.0" encoding="UTF-8" standalone="no"?>
<svg
   xmlns:dc="http://purl.org/dc/elements/1.1/"
   xmlns:cc="http://creativecommons.org/ns#"
   xmlns:rdf="http://www.w3.org/1999/02/22-rdf-syntax-ns#"
   xmlns:svg="http://www.w3.org/2000/svg"
   xmlns="http://www.w3.org/2000/svg"
   xmlns:xlink="http://www.w3.org/1999/xlink"
   xmlns:sodipodi="http://sodipodi.sourceforge.net/DTD/sodipodi-0.dtd"
   xmlns:inkscape="http://www.inkscape.org/namespaces/inkscape"
   width="64"
   height="64"
   version="1.1"
   id="svg17"
   sodipodi:docname="drawing.svg"
   inkscape:version="1.0.2 (e86c870879, 2021-01-15)">
  <metadata
     id="metadata21">
    <rdf:RDF>
      <cc:Work
         rdf:about="">
        <dc:format>image/svg+xml</dc:format>
        <dc:type
           rdf:resource="http://purl.org/dc/dcmitype/StillImage" />
        <dc:title></dc:title>
      </cc:Work>
    </rdf:RDF>
  </metadata>
  <sodipodi:namedview
     pagecolor="#ffffff"
     bordercolor="#666666"
     borderopacity="1"
     objecttolerance="10"
     gridtolerance="10"
     guidetolerance="10"
     inkscape:pageopacity="0"
     inkscape:pageshadow="2"
     inkscape:window-width="1848"
     inkscape:window-height="1056"
     id="namedview19"
     showgrid="false"
     inkscape:zoom="11.453125"
     inkscape:cx="36.513731"
     inkscape:cy="35.358343"
     inkscape:window-x="72"
     inkscape:window-y="24"
     inkscape:window-maximized="1"
     inkscape:current-layer="svg17" />
  <defs
     id="defs7">
    <linearGradient
       inkscape:collect="always"
       id="linearGradient1044">
      <stop
         style="stop-color:#e73153;stop-opacity:1;"
         offset="0"
         id="stop1040" />
      <stop
         style="stop-color:#db3d4e;stop-opacity:1"
         offset="1"
         id="stop1042" />
    </linearGradient>
    <linearGradient
       id="linearGradient964"
       x1="21.039"
       x2="21.039"
       y1="2"
       y2="62"
       gradientTransform="matrix(0.26458,0,0,0.26458,-3.1532804,0.68939121)"
       gradientUnits="userSpaceOnUse">
      <stop
         stop-color="#858585"
         offset="0"
         id="stop960"
         style="stop-color:#e73153;stop-opacity:1" />
      <stop
         stop-color="#383838"
         offset="1"
         id="stop962"
         style="stop-color:#e73144;stop-opacity:1" />
    </linearGradient>
    <linearGradient
       id="a"
       x1="49.571"
       x2="51.714"
       y1="52.714"
       y2="54.857"
       gradientTransform="matrix(2.3333,0,0,2.3333,-68.667,-72.001)"
       gradientUnits="userSpaceOnUse">
      <stop
         offset="0"
         id="stop2" />
      <stop
         stop-opacity="0"
         offset="1"
         id="stop4" />
    </linearGradient>
    <linearGradient
       id="a-6"
       x1="21.039"
       x2="21.039"
       y1="2"
       y2="62"
       gradientTransform="matrix(0.26458,0,0,0.26458,-3.1532804,0.68939121)"
       gradientUnits="userSpaceOnUse">
      <stop
         stop-color="#858585"
         offset="0"
         id="stop7" />
      <stop
         stop-color="#383838"
         offset="1"
         id="stop9" />
    </linearGradient>
    <linearGradient
       inkscape:collect="always"
       xlink:href="#linearGradient964"
       id="linearGradient1004"
       gradientUnits="userSpaceOnUse"
       gradientTransform="translate(-8.2831793,0.1893053)"
       x1="-41.452484"
       y1="8.6889162"
       x2="-42.027714"
       y2="60.503395" />
    <linearGradient
       inkscape:collect="always"
       xlink:href="#linearGradient1044"
       id="linearGradient1046"
       x1="16.870373"
       y1="4.0798998"
       x2="17.067003"
       y2="59.886951"
       gradientUnits="userSpaceOnUse" />
    <filter
       inkscape:collect="always"
       style="color-interpolation-filters:sRGB"
       id="filter1057"
       x="-0.027000001"
       width="1.054"
       y="-0.027000001"
       height="1.054">
      <feGaussianBlur
         inkscape:collect="always"
         stdDeviation="0.61875"
         id="feGaussianBlur1059" />
    </filter>
    <linearGradient
       inkscape:collect="always"
       xlink:href="#linearGradient1051"
       id="linearGradient1053"
       x1="-127"
       y1="60"
       x2="-72"
       y2="5"
       gradientUnits="userSpaceOnUse"
       gradientTransform="translate(131.5,-0.5099971)" />
    <linearGradient
       inkscape:collect="always"
       id="linearGradient1051">
      <stop
         style="stop-color:#dee0e2;stop-opacity:1"
         offset="0"
         id="stop1047" />
      <stop
         style="stop-color:#f1f3f5;stop-opacity:0.99607843"
         offset="1"
         id="stop1049" />
    </linearGradient>
    <filter
       id="filter1091-2"
       x="-0.084016003"
       y="-0.084016003"
       width="1.168"
       height="1.168"
       color-interpolation-filters="sRGB">
      <feGaussianBlur
         stdDeviation="0.30215974"
         id="feGaussianBlur14-9" />
    </filter>
    <linearGradient
       inkscape:collect="always"
       xlink:href="#linearGradient1063"
       id="linearGradient1019"
       gradientUnits="userSpaceOnUse"
       gradientTransform="matrix(3.7796,0,0,3.7796,-16.898,66.534)"
       x1="8.5858002"
       y1="-5.5948"
       x2="16.465"
       y2="-13.703" />
    <linearGradient
       id="linearGradient1063"
       x1="8.5858002"
       x2="16.465"
       y1="-5.5948"
       y2="-13.703"
       gradientTransform="matrix(3.7796,0,0,3.7796,-16.898,66.534)"
       gradientUnits="userSpaceOnUse">
      <stop
         stop-color="#f5f5f5"
         offset="0"
         id="stop4-6" />
      <stop
         stop-color="#fff"
         offset="1"
         id="stop6" />
    </linearGradient>
    <linearGradient
       inkscape:collect="always"
       xlink:href="#linearGradient1127"
       id="linearGradient1129"
       x1="31.99684"
       y1="46.315933"
       x2="55.194225"
       y2="23.118547"
       gradientUnits="userSpaceOnUse"
       gradientTransform="translate(-14.912692,8.86e-4)" />
    <linearGradient
       inkscape:collect="always"
       id="linearGradient1127">
      <stop
         style="stop-color:#e2e4e6;stop-opacity:1"
         offset="0"
         id="stop1123" />
      <stop
         style="stop-color:#ffffff;stop-opacity:0.99704713"
         offset="1"
         id="stop1125" />
    </linearGradient>
    <linearGradient
       inkscape:collect="always"
       xlink:href="#linearGradient1063"
       id="linearGradient1248"
       gradientUnits="userSpaceOnUse"
       gradientTransform="matrix(3.7796,0,0,3.7796,33.521569,21.159491)"
       x1="8.5858002"
       y1="-5.5948"
       x2="16.465"
       y2="-13.703" />
    <linearGradient
       inkscape:collect="always"
       xlink:href="#linearGradient1127"
       id="linearGradient1250"
       gradientUnits="userSpaceOnUse"
       gradientTransform="translate(35.506877,-45.373623)"
       x1="31.99684"
       y1="46.315933"
       x2="55.194225"
       y2="23.118547" />
  </defs>
  <path
     id="rect966"
     style="opacity:1;fill:url(#linearGradient1046);fill-opacity:1;stroke-width:0.5;stroke-linecap:square"
     d="m 13.010401,3.940081 c -2.770017,0 -5,2.2299805 -5,5.0000004 V 54.942034 c 0,2.770017 2.229983,5 5,5 h 38 c 2.770018,0 5,-2.229983 5,-5 V 8.9400814 c 0,-2.7700199 -2.229982,-5.0000004 -5,-5.0000004 z" />
  <path
     d="m56 46-14 14h9c2.77 0 5-2.23 5-5z"
     fill="url(#a)"
     fill-rule="evenodd"
     opacity=".15"
     stroke-width="8.8191"
     style="paint-order:stroke fill markers"
     id="path11" />
  <g
     id="g1260"
     transform="matrix(0.8245956,0,0,0.8245956,1.3400896,10.962781)">
    <circle
       cx="28"
       cy="30"
       r="10"
       fill="#ffffff"
       opacity="0.8"
       id="circle13" />
    <rect
       x="29.528717"
       y="31.14629"
       width="18"
       height="18"
       fill="#ffffff"
       opacity="0.6"
       id="rect15" />
  </g>
  <path
     id="rect966-5"
     style="fill:url(#linearGradient1004);fill-opacity:1;stroke-width:0.5;stroke-linecap:square"
     d="m -56.765601,6.4959459 c -2.770017,0 -5,2.2299805 -5,5.0000001 v 46.001953 c 0,2.770017 2.229983,5 5,5 h 38 c 2.770018,0 5,-2.229983 5,-5 V 11.495946 c 0,-2.7700196 -2.229982,-5.0000001 -5,-5.0000001 z" />
  <g
     fill="#5e4aa6"
     id="g45"
     transform="translate(85.020388,-4.6867004)">
    <circle
       cx="-1248.6"
       cy="-1241.1"
       r="0"
       id="circle27" />
    <circle
       cx="-1162.5"
       cy="-1256.9"
       r="0"
       id="circle29" />
    <circle
       cx="-1248.6"
       cy="-1241.1"
       r="0"
       id="circle31" />
    <circle
       cx="-1325.3"
       cy="-1259.1"
       r="0"
       id="circle33" />
    <circle
       cx="-1239.1"
       cy="-1274.8"
       r="0"
       id="circle35" />
    <circle
       cx="-1325.3"
       cy="-1259.1"
       r="0"
       id="circle37" />
    <circle
       cx="-1325.4"
       cy="-1259.5"
       r="0"
       id="circle39" />
    <circle
       cx="-1239.2"
       cy="-1275.3"
       r="0"
       id="circle41" />
    <circle
       cx="-1248.7"
       cy="-1241.6"
       r="0"
       id="circle43" />
  </g>
  <circle
     cx="-64.129608"
     cy="19.168299"
     r="0"
     fill="#5e4aa6"
     fill-rule="evenodd"
     id="circle47" />
  <g
     transform="translate(85.020408,-4.6866834)"
     fill="#5e4aa6"
     id="g67">
    <circle
       cx="-1325.3"
       cy="-1259.1"
       r="0"
       id="circle55" />
    <circle
       cx="-1239.1"
       cy="-1274.8"
       r="0"
       id="circle57" />
    <circle
       cx="-1325.3"
       cy="-1259.1"
       r="0"
       id="circle59" />
    <circle
       cx="-1325.4"
       cy="-1259.5"
       r="0"
       id="circle61" />
    <circle
       cx="-1239.2"
       cy="-1275.3"
       r="0"
       id="circle63" />
    <circle
       cx="-1248.7"
       cy="-1241.6"
       r="0"
       id="circle65" />
  </g>
  <circle
     cx="-64.129608"
     cy="19.168299"
     r="0"
     fill="#5e4aa6"
     fill-rule="evenodd"
     id="circle69" />
  <g
     id="g1017"
     transform="translate(76.108223,-2.8313436)">
    <rect
       ry="15"
       y="4.4999995"
       x="4.4999995"
       height="55"
       width="55"
       id="rect1055"
       style="opacity:0.3;fill:#141414;fill-opacity:1;stroke-width:2.74436;stroke-linecap:round;filter:url(#filter1057)" />
    <rect
       style="fill:url(#linearGradient1053);fill-opacity:1;stroke-width:2.74436;stroke-linecap:round"
       id="rect1045"
       width="54.999996"
       height="54.999996"
       x="4.5000019"
       y="4.5000019"
       ry="14.999999" />
    <g
       fill="#5e4aa6"
       id="g43">
      <circle
         cx="-1325.3"
         cy="-1259.1"
         r="0"
         id="circle31-3" />
      <circle
         cx="-1239.1"
         cy="-1274.8"
         r="0"
         id="circle33-6" />
      <circle
         cx="-1325.3"
         cy="-1259.1"
         r="0"
         id="circle35-0" />
      <circle
         cx="-1325.4"
         cy="-1259.5"
         r="0"
         id="circle37-6" />
      <circle
         cx="-1239.2"
         cy="-1275.3"
         r="0"
         id="circle39-2" />
      <circle
         cx="-1248.7"
         cy="-1241.6"
         r="0"
         id="circle41-6" />
    </g>
    <circle
       cx="-149.14999"
       cy="23.855"
       r="0"
       fill="#5e4aa6"
       fill-rule="evenodd"
       id="circle45" />
    <g
       transform="matrix(4.9158,0,0,5.0647,-9.6223,-8.64)"
       fill="#c8c8c8"
       id="g55">
      <path
         d="M 3.9856,6.9374 C 3.97975,6.966989 3.97613,6.997848 3.970519,7.02817 h 8.9931 c -0.0053,-0.030317 -0.0092,-0.061202 -0.01567,-0.09077 z"
         stroke-width="0.60512"
         style="paint-order:normal"
         id="path47" />
      <path
         d="m 4.1332,4.9655 c 0.00521,0.030317 0.010173,0.060579 0.015962,0.09077 h 8.6371 c 0.0054,-0.032616 0.01,-0.058576 0.01482,-0.09077 z"
         stroke-width="0.59404"
         style="paint-order:normal"
         id="path49-1" />
      <path
         d="M 3.9856,8.9093 C 3.97975,8.938889 3.97613,8.969748 3.970519,9.00007 h 8.9931 c -0.0053,-0.030317 -0.0092,-0.061202 -0.01567,-0.09077 z"
         stroke-width="0.60512"
         style="paint-order:normal"
         id="path51-8" />
      <path
         d="m 3.9856,10.881 c -0.00585,0.02959 -0.00947,0.06045 -0.015081,0.09077 h 8.9931 c -0.0053,-0.03032 -0.0092,-0.0612 -0.01567,-0.09077 z"
         stroke-width="0.60512"
         style="paint-order:normal"
         id="path53-7" />
    </g>
    <g
       transform="matrix(3.7363,0,0,3.5947,-16.067,65.631)"
       fill="#f08705"
       filter="url(#filter1091)"
       opacity="0.5"
       id="g61"
       style="fill:#6a737c;fill-opacity:1;filter:url(#filter1091-2)">
      <path
         d="m 8.8145,-5.537 c 0,0 -0.19283,-0.13005 -0.19283,-0.19731 0,-0.067264 0.5286,-1.9107 0.58567,-2.0122 0.057077,-0.10147 6.1025,-6.1025 6.1025,-6.1025 0,0 0.27603,-0.21726 0.44643,-0.08272 0.17041,0.13453 0.74406,0.74406 0.74406,0.74406 z"
         id="path57"
         style="fill:#6a737c;fill-opacity:1" />
      <path
         d="m 8.8145,-5.537 c 0,0 0.13005,0.19283 0.19731,0.19283 0.067264,0 1.9107,-0.5286 2.0122,-0.58567 0.10147,-0.057077 6.1025,-6.1025 6.1025,-6.1025 0,0 0.21725,-0.27603 0.08272,-0.44643 -0.13453,-0.17041 -0.74406,-0.74406 -0.74406,-0.74406 z"
         id="path59"
         style="fill:#6a737c;fill-opacity:1" />
    </g>
    <g
       id="g1208">
      <path
         d="m 16.417284,45.606355 c 0,0 -0.72882,-0.491537 -0.72882,-0.745753 0,-0.254231 1.997896,-7.221682 2.213598,-7.605311 0.215728,-0.383516 23.065009,-23.065009 23.065009,-23.065009 0,0 1.043283,-0.821156 1.687327,-0.312649 0.644082,0.50847 2.812249,2.812249 2.812249,2.812249 z"
         fill="url(#linearGradient1063)"
         id="path63"
         style="fill:url(#linearGradient1019);stroke-width:3.7796" />
      <path
         id="rect1119"
         style="opacity:1;fill:url(#linearGradient1129);fill-opacity:1;stroke-width:2"
         d="M 45.333298,16.557527 16.417284,45.606355 c 0,0 0.489925,0.730468 0.744141,0.730469 0.254231,0 7.22184,-1.999142 7.605469,-2.214844 0.383516,-0.215728 23.066404,-23.064453 23.066404,-23.064453 0,0 0.82097,-1.043456 0.3125,-1.6875 -0.50847,-0.644082 -2.8125,-2.8125 -2.8125,-2.8125 z" />
    </g>
  </g>
  <g
     id="g1256"
     transform="matrix(0.64671934,0,0,0.64671934,-11.088235,32.980597)">
    <path
       d="m 66.836853,0.2318464 c 0,0 -0.72882,-0.491537 -0.72882,-0.745753 0,-0.254231 1.997896,-7.221682 2.213598,-7.605311 0.215728,-0.383516 23.065009,-23.0650094 23.065009,-23.0650094 0,0 1.043283,-0.821156 1.687327,-0.312649 0.644082,0.508471 2.812249,2.81225 2.812249,2.81225 z"
       fill="url(#linearGradient1063)"
       id="path63-7"
       style="fill:url(#linearGradient1248);stroke-width:3.7796" />
    <path
       id="rect1119-0"
       style="fill:url(#linearGradient1250);fill-opacity:1;stroke-width:2"
       d="M 95.752867,-28.816981 66.836853,0.2318464 c 0,0 0.489925,0.730468 0.744141,0.730469 0.254231,0 7.22184,-1.999142 7.605469,-2.214844 0.383516,-0.215728 23.066404,-23.0644524 23.066404,-23.0644524 0,0 0.82097,-1.043456 0.3125,-1.6875 -0.50847,-0.644082 -2.8125,-2.8125 -2.8125,-2.8125 z" />
  </g>
</svg>
