<?xml version="1.0" encoding="UTF-8" standalone="no"?>
<svg
   xmlns:dc="http://purl.org/dc/elements/1.1/"
   xmlns:cc="http://creativecommons.org/ns#"
   xmlns:rdf="http://www.w3.org/1999/02/22-rdf-syntax-ns#"
   xmlns:svg="http://www.w3.org/2000/svg"
   xmlns="http://www.w3.org/2000/svg"
   xmlns:sodipodi="http://sodipodi.sourceforge.net/DTD/sodipodi-0.dtd"
   xmlns:inkscape="http://www.inkscape.org/namespaces/inkscape"
   width="64"
   height="64"
   viewBox="0 0 16.933 16.933"
   version="1.1"
   id="svg19"
   sodipodi:docname="audio-x-generic1.svg"
   inkscape:version="1.0.2 (e86c870879, 2021-01-15)">
  <metadata
     id="metadata23">
    <rdf:RDF>
      <cc:Work
         rdf:about="">
        <dc:format>image/svg+xml</dc:format>
        <dc:type
           rdf:resource="http://purl.org/dc/dcmitype/StillImage" />
      </cc:Work>
    </rdf:RDF>
  </metadata>
  <sodipodi:namedview
     pagecolor="#ffffff"
     bordercolor="#666666"
     borderopacity="1"
     objecttolerance="10"
     gridtolerance="10"
     guidetolerance="10"
     inkscape:pageopacity="0"
     inkscape:pageshadow="2"
     inkscape:window-width="640"
     inkscape:window-height="480"
     id="namedview21"
     showgrid="false"
     inkscape:zoom="8.4375"
     inkscape:cx="24.987654"
     inkscape:cy="32.26048"
     inkscape:current-layer="svg19" />
  <defs
     id="defs5">
    <filter
       id="a"
       x="-.039"
       y="-.033"
       width="1.078"
       height="1.067"
       color-interpolation-filters="sRGB">
      <feGaussianBlur
         stdDeviation=".206"
         id="feGaussianBlur2" />
    </filter>
    <linearGradient
       id="b"
       x1="318.56"
       x2="338.95"
       y1="43.832"
       y2="38.408"
       gradientTransform="matrix(0.12734,0,0,0.12734,-12.938,-0.111)"
       gradientUnits="userSpaceOnUse">
      <stop
         stop-color="#f4587a"
         offset="0"
         id="stop848" />
      <stop
         stop-color="#f15c7c"
         offset="1"
         id="stop850" />
    </linearGradient>
    <linearGradient
       id="c"
       x1="338.66"
       x2="361.42"
       y1="39.82"
       y2="35.21"
       gradientTransform="matrix(0.12734,0,0,0.12734,-12.938,-0.111)"
       gradientUnits="userSpaceOnUse">
      <stop
         stop-color="#f05c7c"
         offset="0"
         id="stop853" />
      <stop
         stop-color="#e4618a"
         offset="1"
         id="stop855" />
    </linearGradient>
    <linearGradient
       id="d"
       x1="353.24"
       x2="349.17"
       y1="92.659"
       y2="47.788"
       gradientTransform="matrix(0.12734,0,0,0.12734,-12.938,-0.111)"
       gradientUnits="userSpaceOnUse">
      <stop
         stop-color="#49abf5"
         offset="0"
         id="stop858" />
      <stop
         stop-color="#4daaf6"
         offset=".302"
         id="stop860" />
      <stop
         stop-color="#7f85e1"
         offset=".566"
         id="stop862" />
      <stop
         stop-color="#ba6ab8"
         offset=".797"
         id="stop864" />
      <stop
         stop-color="#d4629f"
         stop-opacity="0"
         offset="1"
         id="stop866" />
    </linearGradient>
    <linearGradient
       id="e"
       x1="337.89"
       x2="346.87"
       y1="97.453"
       y2="90.166"
       gradientTransform="matrix(0.12734,0,0,0.12734,-12.938,-0.111)"
       gradientUnits="userSpaceOnUse">
      <stop
         stop-color="#5793fa"
         offset="0"
         id="stop869" />
      <stop
         stop-color="#5793fa"
         stop-opacity="0"
         offset="1"
         id="stop871" />
    </linearGradient>
    <linearGradient
       id="f"
       x1="311.51"
       x2="324.03"
       y1="107.02"
       y2="54.408"
       gradientTransform="matrix(0.12734,0,0,0.12734,-12.938,-0.111)"
       gradientUnits="userSpaceOnUse">
      <stop
         stop-color="#8763fe"
         offset="0"
         id="stop874" />
      <stop
         stop-color="#7e68fe"
         offset=".187"
         id="stop876" />
      <stop
         stop-color="#7d69fd"
         offset=".306"
         id="stop878" />
      <stop
         stop-color="#8b61f4"
         offset=".553"
         id="stop880" />
      <stop
         stop-color="#a359df"
         offset=".71"
         id="stop882" />
      <stop
         stop-color="#c754c0"
         offset=".871"
         id="stop884" />
      <stop
         stop-color="#de549e"
         stop-opacity="0"
         offset="1"
         id="stop886" />
    </linearGradient>
    <linearGradient
       id="a-3"
       x1="45.801"
       x2="9.802"
       y1="10"
       y2="61"
       gradientTransform="matrix(0.26458,0,0,0.26458,0.052,-0.265)"
       gradientUnits="userSpaceOnUse">
      <stop
         stop-color="#ededed"
         offset="0"
         id="stop889" />
      <stop
         stop-color="#fcfcfc"
         offset="1"
         id="stop891" />
    </linearGradient>
    <linearGradient
       id="g"
       x1="40"
       x2="46"
       y1="17"
       y2="11"
       gradientTransform="matrix(0.26458,0,0,0.26458,-0.006,-0.265)"
       gradientUnits="userSpaceOnUse">
      <stop
         stop-color="#fefefe"
         offset="0"
         id="stop894" />
      <stop
         stop-color="#e9e9e9"
         offset="1"
         id="stop896" />
    </linearGradient>
  </defs>
  <path
     d="M3.44 1.354a1.32 1.32 0 0 0-1.323 1.323v12.171c0 .733.59 1.323 1.323 1.323h10.053a1.32 1.32 0 0 0 1.323-1.323V4.53l-3.175-3.175z"
     fill-rule="evenodd"
     filter="url(#a)"
     opacity=".15"
     style="paint-order:stroke fill markers"
     id="path7" />
  <g
     fill-rule="evenodd"
     id="g13">
    <path
       transform="scale(.26458)"
       d="M13 4c-2.77 0-5 2.23-5 5v46c0 2.77 2.23 5 5 5h38c2.77 0 5-2.23 5-5V16L44 4H13z"
       fill="#f4f4f4"
       style="paint-order:stroke fill markers"
       id="path9" />
    <path
       d="m14.816 4.233-3.175-3.175V2.91c0 .733.59 1.323 1.323 1.323z"
       fill="#bbb"
       style="paint-order:stroke fill markers"
       id="path11" />
  </g>
  <path
     d="M11.641 2.91v.155c0 .794.59 1.433 1.323 1.433h1.852v-.265h-1.852A1.32 1.32 0 0 1 11.64 2.91z"
     fill-rule="evenodd"
     opacity=".1"
     style="paint-order:stroke fill markers"
     id="path17" />
  <g
     id="g963"
     transform="translate(0.23346712,-0.18612147)">
    <path
       d="M 30.085,3.656 27.643,4.138 C 27.252,4.222 27.176,4.44 27.185,4.785 l 0.006,5.387 c -0.017,0.379 -0.059,0.587 -0.494,0.657 -1.542,0.23 -1.84,0.707 -1.832,1.385 0.01,0.676 0.558,1.218 1.313,1.142 0.662,-0.074 1.156,-0.266 1.459,-0.879 0.117,-0.23 0.157,-0.71 0.128,-1.197 L 27.759,6.995 c 0.001,-0.3 -0.05,-0.467 0.348,-0.55 L 30.5,5.963 Z"
       fill="url(#b)"
       transform="matrix(0.79584,0,0,0.79584,-14.963,3.176)"
       id="path905"
       style="fill:url(#b)" />
    <path
       d="m 32.264,5.97 0.006,3.201 c -0.018,0.379 -0.054,0.552 -0.49,0.622 -1.542,0.23 -1.845,0.741 -1.836,1.42 0.01,0.676 0.566,1.183 1.321,1.107 0.663,-0.073 1.139,-0.245 1.442,-0.857 0.118,-0.231 0.127,-0.69 0.137,-1.184 L 32.84,3.723 c 0,-0.491 -0.112,-0.618 -0.671,-0.492 l -2.397,0.487 0.427,2.305 1.722,-0.347 c 0.23,-0.047 0.34,0.032 0.343,0.293 z"
       fill="url(#c)"
       transform="matrix(0.79584,0,0,0.79584,-14.963,3.176)"
       id="path907"
       style="fill:url(#c)" />
    <path
       d="m 32.264,5.97 0.006,3.201 c -0.018,0.379 -0.054,0.552 -0.49,0.622 -1.542,0.23 -1.845,0.741 -1.836,1.42 0.01,0.676 0.566,1.183 1.321,1.107 0.663,-0.073 1.139,-0.245 1.442,-0.857 0.118,-0.231 0.127,-0.69 0.137,-1.184 L 32.84,3.723 c 0,-0.491 -0.112,-0.618 -0.671,-0.492 l -2.397,0.487 0.427,2.305 1.722,-0.347 c 0.23,-0.047 0.34,0.032 0.343,0.293 z"
       fill="url(#d)"
       transform="matrix(0.79584,0,0,0.79584,-14.963,3.176)"
       id="path909"
       style="fill:url(#d)" />
    <path
       d="m 32.264,5.97 0.006,3.201 c -0.018,0.379 -0.054,0.552 -0.49,0.622 -1.542,0.23 -1.845,0.741 -1.836,1.42 0.01,0.676 0.566,1.183 1.321,1.107 0.663,-0.073 1.139,-0.245 1.442,-0.857 0.118,-0.231 0.127,-0.69 0.137,-1.184 L 32.84,3.723 c 0,-0.491 -0.112,-0.618 -0.671,-0.492 l -2.397,0.487 0.427,2.305 1.722,-0.347 c 0.23,-0.047 0.34,0.032 0.343,0.293 z"
       fill="url(#e)"
       transform="matrix(0.79584,0,0,0.79584,-14.963,3.176)"
       id="path911"
       style="fill:url(#e)" />
    <path
       d="M 30.085,3.656 27.643,4.138 C 27.252,4.222 27.176,4.44 27.185,4.785 l 0.006,5.387 c -0.017,0.379 -0.059,0.587 -0.494,0.657 -1.542,0.23 -1.84,0.707 -1.832,1.385 0.01,0.676 0.558,1.218 1.313,1.142 0.662,-0.074 1.156,-0.266 1.459,-0.879 0.117,-0.23 0.157,-0.71 0.128,-1.197 L 27.759,6.995 c 0.001,-0.3 -0.05,-0.467 0.348,-0.55 L 30.5,5.963 Z"
       fill="url(#f)"
       transform="matrix(0.79584,0,0,0.79584,-14.963,3.176)"
       id="path913"
       style="fill:url(#f)" />
  </g>
</svg>
