<?xml version="1.0" encoding="UTF-8" standalone="no"?>
<svg
   xmlns:dc="http://purl.org/dc/elements/1.1/"
   xmlns:cc="http://creativecommons.org/ns#"
   xmlns:rdf="http://www.w3.org/1999/02/22-rdf-syntax-ns#"
   xmlns:svg="http://www.w3.org/2000/svg"
   xmlns="http://www.w3.org/2000/svg"
   xmlns:xlink="http://www.w3.org/1999/xlink"
   xmlns:sodipodi="http://sodipodi.sourceforge.net/DTD/sodipodi-0.dtd"
   xmlns:inkscape="http://www.inkscape.org/namespaces/inkscape"
   width="64"
   height="64"
   viewBox="0 0 16.933 16.933"
   version="1.1"
   id="svg875"
   sodipodi:docname="font-x-generic0.svg"
   inkscape:version="1.0.2 (e86c870879, 2021-01-15)">
  <metadata
     id="metadata879">
    <rdf:RDF>
      <cc:Work
         rdf:about="">
        <dc:format>image/svg+xml</dc:format>
        <dc:type
           rdf:resource="http://purl.org/dc/dcmitype/StillImage" />
      </cc:Work>
    </rdf:RDF>
  </metadata>
  <sodipodi:namedview
     pagecolor="#ffffff"
     bordercolor="#666666"
     borderopacity="1"
     objecttolerance="10"
     gridtolerance="10"
     guidetolerance="10"
     inkscape:pageopacity="0"
     inkscape:pageshadow="2"
     inkscape:window-width="640"
     inkscape:window-height="480"
     id="namedview877"
     showgrid="false"
     inkscape:zoom="8.5815959"
     inkscape:cx="22.965805"
     inkscape:cy="33.9453"
     inkscape:current-layer="svg875"
     inkscape:document-rotation="0" />
  <defs
     id="defs861">
    <filter
       id="a"
       x="-.039"
       y="-.033"
       width="1.078"
       height="1.067"
       color-interpolation-filters="sRGB">
      <feGaussianBlur
         stdDeviation=".206"
         id="feGaussianBlur858" />
    </filter>
    <linearGradient
       id="a-3"
       x1="49.571"
       x2="51.714"
       y1="52.714"
       y2="54.857"
       gradientTransform="matrix(2.3333,0,0,2.3333,-68.667,-72.001)"
       gradientUnits="userSpaceOnUse">
      <stop
         offset="0"
         id="stop4" />
      <stop
         stop-opacity="0"
         offset="1"
         id="stop6" />
    </linearGradient>
    <linearGradient
       id="b"
       x1="40"
       x2="46"
       y1="17"
       y2="11"
       gradientTransform="matrix(0.26458,0,0,0.26458,-3.1582804,0.68939121)"
       gradientUnits="userSpaceOnUse">
      <stop
         stop-color="#fefefe"
         offset="0"
         id="stop2" />
      <stop
         stop-color="#e9e9e9"
         offset="1"
         id="stop4-3" />
    </linearGradient>
    <linearGradient
       id="a-6"
       x1="21.039"
       x2="21.039"
       y1="2"
       y2="62"
       gradientTransform="matrix(0.26458,0,0,0.26458,-3.1532804,0.68939121)"
       gradientUnits="userSpaceOnUse">
      <stop
         stop-color="#858585"
         offset="0"
         id="stop7"
         style="stop-color:#808080;stop-opacity:1" />
      <stop
         stop-color="#383838"
         offset="1"
         id="stop9" />
    </linearGradient>
    <linearGradient
       id="b-6"
       x1="399.57"
       x2="399.57"
       y1="545.8"
       y2="517.8"
       gradientTransform="matrix(2.1429,0,0,2.1429,-826.36,-1107.5)"
       gradientUnits="userSpaceOnUse">
      <stop
         stop-color="#3889e9"
         offset="0"
         id="stop885" />
      <stop
         stop-color="#5ea5fb"
         offset="1"
         id="stop887" />
    </linearGradient>
    <linearGradient
       id="f"
       x1="30.479"
       x2="31.074"
       y1="14.368"
       y2="49.608"
       gradientUnits="userSpaceOnUse">
      <stop
         stop-color="#f9f9f9"
         offset="0"
         id="stop890" />
      <stop
         stop-color="#ccf2f6"
         offset="1"
         id="stop892" />
    </linearGradient>
    <linearGradient
       id="linearGradient874"
       x1="357.8"
       x2="357.8"
       y1="546.73"
       y2="523.48"
       gradientTransform="matrix(2.1429,0,0,2.1429,-736.33,-1114)"
       gradientUnits="userSpaceOnUse">
      <stop
         stop-color="#197ff1"
         offset="0"
         id="stop895" />
      <stop
         stop-color="#21c6fb"
         offset="1"
         id="stop897" />
    </linearGradient>
    <radialGradient
       inkscape:collect="always"
       xlink:href="#a-6"
       id="radialGradient946"
       cx="8.523613"
       cy="6.7190423"
       fx="8.523613"
       fy="6.7190423"
       r="6.3498745"
       gradientTransform="matrix(11.636587,0.00444054,-0.00298431,7.8204353,7.8566244,-32.693346)"
       gradientUnits="userSpaceOnUse" />
  </defs>
  <path
     d="M3.44 1.354a1.32 1.32 0 0 0-1.323 1.323v12.171c0 .733.59 1.323 1.323 1.323h10.053a1.32 1.32 0 0 0 1.323-1.323V4.53l-3.175-3.175z"
     fill-rule="evenodd"
     filter="url(#a)"
     opacity=".15"
     style="paint-order:stroke fill markers"
     id="path863" />
  <g
     id="g883"
     transform="translate(-0.00487276,0.00680353)"
     style="display:inline">
    <path
       id="rect926"
       style="opacity:1;fill:url(#radialGradient946);fill-opacity:1;stroke-width:0.5;stroke-linecap:square"
       d="m 87.412109,5.5078125 c -2.770017,0 -5,2.22998 -5,4.9999995 v 46 0.002 c 0,0.173126 0.01033,0.343224 0.02734,0.511718 0.01701,0.168495 0.04103,0.333056 0.07422,0.496094 1.27e-4,6.26e-4 -1.27e-4,0.0013 0,0.002 0.06638,0.325414 0.165082,0.638769 0.291016,0.9375 2.39e-4,5.68e-4 -2.4e-4,0.0014 0,0.002 0.126048,0.298713 0.279946,0.58221 0.458984,0.847657 3.19e-4,4.73e-4 -3.19e-4,0.0015 0,0.002 0.179153,0.265445 0.385743,0.512696 0.611328,0.738281 0.451878,0.451878 0.989293,0.817967 1.587891,1.070313 0.598598,0.252345 1.256713,0.390624 1.949218,0.390624 h 38.001954 c 0.69251,0 1.35062,-0.138279 1.94922,-0.390624 0.5986,-0.252346 1.13601,-0.618435 1.58789,-1.070313 0.1861,-0.186095 0.34902,-0.395763 0.50391,-0.609375 0.0326,-0.04507 0.0743,-0.08271 0.10547,-0.128906 5.1e-4,-7.62e-4 0.001,-0.0012 0.002,-0.002 0.082,-0.121705 0.13971,-0.259609 0.21094,-0.388672 0.31819,-0.575911 0.54381,-1.208333 0.61328,-1.896485 0.017,-0.168494 0.0254,-0.338592 0.0254,-0.511718 V 17.505859 L 118.41406,5.5078125 Z"
       transform="matrix(0.26457812,0,0,0.26457812,-19.682854,-0.40519079)" />
    <g
       transform="scale(0.26458)"
       id="g15" />
    <g
       transform="translate(-10.987,-0.90035)"
       fill="#666666"
       aria-label="A"
       id="g19">
      <path
         d="m 19.454,6.6502 -1.3596,3.6867 h 2.7241 z M 18.88834,5.66277 h 1.1363 l 2.8233,7.4082 h -1.042 l -0.67482,-1.9004 h -3.3394 l -0.67482,1.9004 H 16.06 Z"
         fill="#ffffff"
         stroke-width="0.25405"
         id="path17" />
    </g>
  </g>
  <path
     d="m 14.81652,4.23332 -3.175,-3.175 v 1.852 c 0,0.733 0.59,1.323 1.323,1.323 z"
     fill="#bbbbbb"
     style="display:inline;opacity:0.6;paint-order:stroke fill markers"
     id="path867" />
  <path
     d="m 11.64148,2.91028 v 0.155 c 0,0.794 0.59,1.433 1.323,1.433 h 1.852 v -0.265 h -1.852 a 1.32,1.32 0 0 1 -1.324,-1.323 z"
     fill-rule="evenodd"
     opacity=".1"
     style="display:inline;opacity:0.2;paint-order:stroke fill markers"
     id="path873" />
</svg>
