<?xml version="1.0" encoding="UTF-8" standalone="no"?>
<svg
   xmlns:dc="http://purl.org/dc/elements/1.1/"
   xmlns:cc="http://creativecommons.org/ns#"
   xmlns:rdf="http://www.w3.org/1999/02/22-rdf-syntax-ns#"
   xmlns:svg="http://www.w3.org/2000/svg"
   xmlns="http://www.w3.org/2000/svg"
   xmlns:sodipodi="http://sodipodi.sourceforge.net/DTD/sodipodi-0.dtd"
   xmlns:inkscape="http://www.inkscape.org/namespaces/inkscape"
   width="64"
   height="64"
   version="1.1"
   viewBox="0 0 16.933 16.933"
   id="svg23"
   sodipodi:docname="image-png.svg"
   inkscape:version="1.0.2 (e86c870879, 2021-01-15)">
  <metadata
     id="metadata27">
    <rdf:RDF>
      <cc:Work
         rdf:about="">
        <dc:format>image/svg+xml</dc:format>
        <dc:type
           rdf:resource="http://purl.org/dc/dcmitype/StillImage" />
      </cc:Work>
    </rdf:RDF>
  </metadata>
  <sodipodi:namedview
     pagecolor="#ffffff"
     bordercolor="#666666"
     borderopacity="1"
     objecttolerance="10"
     gridtolerance="10"
     guidetolerance="10"
     inkscape:pageopacity="0"
     inkscape:pageshadow="2"
     inkscape:window-width="1848"
     inkscape:window-height="1056"
     id="namedview25"
     showgrid="false"
     inkscape:zoom="11.453125"
     inkscape:cx="33.200546"
     inkscape:cy="38.562823"
     inkscape:window-x="72"
     inkscape:window-y="24"
     inkscape:window-maximized="1"
     inkscape:current-layer="svg23" />
  <defs
     id="defs7">
    <linearGradient
       id="a"
       x1="49.571"
       x2="51.714"
       y1="52.714"
       y2="54.857"
       gradientTransform="matrix(2.3333,0,0,2.3333,-68.667,-72.001)"
       gradientUnits="userSpaceOnUse">
      <stop
         offset="0"
         id="stop2" />
      <stop
         stop-opacity="0"
         offset="1"
         id="stop4" />
    </linearGradient>
  </defs>
  <g
     transform="matrix(0 .26458 .26458 0 -6e-5 -6e-5)"
     id="g13">
    <rect
       x="8"
       y="4"
       width="48"
       height="56"
       ry="5"
       fill="#7f7fff"
       style="paint-order:stroke fill markers"
       id="rect9" />
    <path
       d="m56 46-14 14h9c2.77 0 5-2.23 5-5z"
       fill="url(#a)"
       fill-rule="evenodd"
       opacity=".15"
       stroke-width="8.8191"
       style="paint-order:stroke fill markers"
       id="path11" />
  </g>
  <g
     fill="#fff"
     id="g21">
    <path
       d="M 9.8110084,7.6126141 8.7791161,9.2002576 10.262461,11.48221 h 2.063785 z"
       color="#000000"
       opacity="0.25"
       stroke-width="0.257973"
       id="path15" />
    <path
       d="M 6.9087335,6.3226708 3.5551228,11.482132 h 6.7072212 z"
       color="#000000"
       opacity="0.65"
       id="path17"
       style="stroke-width:0.975029" />
    <path
       d="m 11.294412,4.3611732 c -0.712366,0 -1.289865,0.5775094 -1.289865,1.2898653 0,0.7123948 0.57749,1.2898653 1.289865,1.2898653 0.712366,0 1.289865,-0.5775095 1.289865,-1.2898653 0,-0.7123949 -0.57749,-1.2898653 -1.289865,-1.2898653 z"
       color="#000000"
       opacity="0.65"
       id="path19"
       style="stroke-width:0.975029" />
  </g>
  <path
     d="m 6.2919472,12.618882 v 0.556 h 0.2669759 q 0.1489109,0 0.2297482,-0.073 0.081901,-0.072 0.081901,-0.206 0,-0.132 -0.081901,-0.205 -0.080837,-0.072 -0.2297482,-0.072 z m -0.2127298,-0.164 h 0.4797057 q 0.2648486,0 0.399932,0.112 0.1361471,0.112 0.1361471,0.33 0,0.218 -0.1361471,0.33 -0.1350834,0.112 -0.399932,0.112 H 6.2919472 v 0.595 H 6.0792174 Z m 1.3008428,0 h 0.2871852 l 0.6966902,1.237 v -1.237 h 0.2074115 v 1.48 H 8.2841619 l -0.6977538,-1.238 v 1.237 H 7.3800602 Z m 2.6867778,1.268 v -0.397 H 9.7190245 v -0.165 H 10.27744 v 0.635 q -0.123383,0.083 -0.27123,0.125 -0.1489111,0.042 -0.3180313,0.042 -0.3680226,0 -0.5775615,-0.202 -0.2074116,-0.203 -0.2074116,-0.565 0,-0.363 0.2074116,-0.565 0.2095389,-0.203 0.5775615,-0.203 0.1542291,0 0.2925031,0.036 0.1382752,0.036 0.2552762,0.105 v 0.213 q -0.117001,-0.094 -0.2499572,-0.142 -0.1329565,-0.047 -0.2797401,-0.047 -0.2882489,0 -0.4339688,0.151 -0.1446563,0.152 -0.1446563,0.452 0,0.3 0.1446563,0.45 0.1457199,0.152 0.4339688,0.152 0.1127468,0 0.2020931,-0.018 0.08828,-0.018 0.1584842,-0.057 z"
     id="path95"
     style="fill:#ffffff;fill-opacity:1;stroke-width:1.03133;opacity:0.7" />
</svg>
