<?xml version="1.0" encoding="UTF-8" standalone="no"?>
<svg
   xmlns:dc="http://purl.org/dc/elements/1.1/"
   xmlns:cc="http://creativecommons.org/ns#"
   xmlns:rdf="http://www.w3.org/1999/02/22-rdf-syntax-ns#"
   xmlns:svg="http://www.w3.org/2000/svg"
   xmlns="http://www.w3.org/2000/svg"
   xmlns:xlink="http://www.w3.org/1999/xlink"
   xmlns:sodipodi="http://sodipodi.sourceforge.net/DTD/sodipodi-0.dtd"
   xmlns:inkscape="http://www.inkscape.org/namespaces/inkscape"
   version="1.1"
   viewBox="0 0 64 64"
   id="svg37"
   sodipodi:docname="image-svg+xml.svg"
   inkscape:version="1.0.2 (e86c870879, 2021-01-15)">
  <metadata
     id="metadata41">
    <rdf:RDF>
      <cc:Work
         rdf:about="">
        <dc:format>image/svg+xml</dc:format>
        <dc:type
           rdf:resource="http://purl.org/dc/dcmitype/StillImage" />
      </cc:Work>
    </rdf:RDF>
  </metadata>
  <sodipodi:namedview
     pagecolor="#ffffff"
     bordercolor="#666666"
     borderopacity="1"
     objecttolerance="10"
     gridtolerance="10"
     guidetolerance="10"
     inkscape:pageopacity="0"
     inkscape:pageshadow="2"
     inkscape:window-width="640"
     inkscape:window-height="480"
     id="namedview39"
     showgrid="false"
     inkscape:zoom="5.6516572"
     inkscape:cx="18.297996"
     inkscape:cy="11.204884"
     inkscape:current-layer="svg37" />
  <defs
     id="defs5">
    <linearGradient
       inkscape:collect="always"
       id="linearGradient972">
      <stop
         style="stop-color:#2cbebe;stop-opacity:1"
         offset="0"
         id="stop968" />
      <stop
         style="stop-color:#229595;stop-opacity:1"
         offset="1"
         id="stop970" />
    </linearGradient>
    <filter
       id="a-6"
       x="-.038932"
       y="-.033367"
       width="1.0779"
       height="1.0667"
       color-interpolation-filters="sRGB">
      <feGaussianBlur
         stdDeviation=".206"
         id="feGaussianBlur2" />
    </filter>
    <filter
       id="a"
       x="-.039"
       y="-.033"
       width="1.078"
       height="1.067"
       color-interpolation-filters="sRGB">
      <feGaussianBlur
         stdDeviation=".206"
         id="feGaussianBlur909" />
    </filter>
    <filter
       id="a-7"
       x="-.039"
       y="-.033"
       width="1.078"
       height="1.067"
       color-interpolation-filters="sRGB">
      <feGaussianBlur
         stdDeviation=".206"
         id="feGaussianBlur858" />
    </filter>
    <linearGradient
       id="a-3"
       x1="49.571"
       x2="51.714"
       y1="52.714"
       y2="54.857"
       gradientTransform="matrix(2.3333,0,0,2.3333,-68.667,-72.001)"
       gradientUnits="userSpaceOnUse">
      <stop
         offset="0"
         id="stop4" />
      <stop
         stop-opacity="0"
         offset="1"
         id="stop6" />
    </linearGradient>
    <linearGradient
       id="b"
       x1="40"
       x2="46"
       y1="17"
       y2="11"
       gradientTransform="matrix(0.26458,0,0,0.26458,-3.1582804,0.68939121)"
       gradientUnits="userSpaceOnUse">
      <stop
         stop-color="#fefefe"
         offset="0"
         id="stop2" />
      <stop
         stop-color="#e9e9e9"
         offset="1"
         id="stop4-3" />
    </linearGradient>
    <linearGradient
       id="a-6-5"
       x1="21.039"
       x2="21.039"
       y1="2"
       y2="62"
       gradientTransform="matrix(0.26458,0,0,0.26458,-3.1532804,0.68939121)"
       gradientUnits="userSpaceOnUse">
      <stop
         stop-color="#858585"
         offset="0"
         id="stop7"
         style="stop-color:#808080;stop-opacity:1" />
      <stop
         stop-color="#383838"
         offset="1"
         id="stop9" />
    </linearGradient>
    <linearGradient
       id="b-6"
       x1="399.57"
       x2="399.57"
       y1="545.8"
       y2="517.8"
       gradientTransform="matrix(2.1429,0,0,2.1429,-826.36,-1107.5)"
       gradientUnits="userSpaceOnUse">
      <stop
         stop-color="#3889e9"
         offset="0"
         id="stop885" />
      <stop
         stop-color="#5ea5fb"
         offset="1"
         id="stop887" />
    </linearGradient>
    <linearGradient
       id="f"
       x1="30.479"
       x2="31.074"
       y1="14.368"
       y2="49.608"
       gradientUnits="userSpaceOnUse">
      <stop
         stop-color="#f9f9f9"
         offset="0"
         id="stop890" />
      <stop
         stop-color="#ccf2f6"
         offset="1"
         id="stop892" />
    </linearGradient>
    <linearGradient
       id="linearGradient874"
       x1="357.8"
       x2="357.8"
       y1="546.73"
       y2="523.48"
       gradientTransform="matrix(2.1429,0,0,2.1429,-736.33,-1114)"
       gradientUnits="userSpaceOnUse">
      <stop
         stop-color="#197ff1"
         offset="0"
         id="stop895" />
      <stop
         stop-color="#21c6fb"
         offset="1"
         id="stop897" />
    </linearGradient>
    <radialGradient
       inkscape:collect="always"
       xlink:href="#linearGradient972"
       id="radialGradient946"
       cx="8.4495878"
       cy="7.6689081"
       fx="8.4495878"
       fy="7.6689081"
       r="6.3498745"
       gradientTransform="matrix(10.530294,-0.02465397,0.01475284,6.3012905,-57.187312,-22.536901)"
       gradientUnits="userSpaceOnUse" />
  </defs>
  <path
     transform="scale(3.7796)"
     d="m3.44 1.354a1.32 1.32 0 0 0-1.323 1.323v12.171c0 0.733 0.59 1.323 1.323 1.323h10.053a1.32 1.32 0 0 0 1.323-1.323v-10.318l-3.175-3.175z"
     filter="url(#a-6)"
     opacity=".15"
     style="paint-order:stroke fill markers"
     id="path7" />
  <path
     id="rect926"
     style="display:inline;fill:url(#radialGradient946);fill-opacity:1;stroke-width:0.5;stroke-linecap:square"
     d="m 12.998358,4.0013971 c -2.770013,0 -4.999997,2.22998 -4.999997,5.000001 v 45.9999999 0.002 c 0,0.173124 0.01021,0.343225 0.02721,0.511718 0.01701,0.168494 0.04105,0.333055 0.07423,0.496094 1.25e-4,6.26e-4 -1.28e-4,0.0013 0,0.002 0.06637,0.325412 0.165093,0.638769 0.29103,0.9375 2.38e-4,5.68e-4 -2.42e-4,0.0014 0,0.002 0.126049,0.298713 0.279955,0.58221 0.458983,0.847657 3.18e-4,4.73e-4 -3.21e-4,0.0015 0,0.002 0.179153,0.265445 0.385743,0.512696 0.611328,0.738281 0.451878,0.451878 0.989292,0.817967 1.58789,1.070313 0.598598,0.252345 1.256714,0.390624 1.949217,0.390624 h 38.00197 c 0.69251,0 1.350622,-0.138281 1.94922,-0.390624 0.598602,-0.252345 1.136012,-0.618435 1.58789,-1.070313 0.186108,-0.186096 0.349008,-0.395763 0.503912,-0.609375 0.0325,-0.04507 0.07431,-0.08271 0.105451,-0.128907 5.1e-4,-7.62e-4 9.97e-4,-0.0012 0.002,-0.002 0.08202,-0.121707 0.139694,-0.25961 0.21094,-0.388672 0.318204,-0.575911 0.543809,-1.208333 0.613278,-1.896485 0.01701,-0.168495 0.02532,-0.338592 0.02532,-0.511718 V 15.999445 L 44.000124,4.0013971 Z" />
  <path
     d="M 55.998554,15.999047 43.998324,3.9988168 v 6.9998192 c 0,2.770447 2.229964,5.000411 5.00041,5.000411 z"
     fill="#ffffff"
     opacity="0.35"
     style="fill-rule:evenodd;stroke-width:3.7796;paint-order:stroke fill markers"
     id="path11" />
  <path
     d="m43.998 10.999v0.58584c0 3.001 2.23 5.4162 5.0004 5.4162h6.9998v-1.0016h-6.9998a4.9891 4.9891 0 0 1-5.0042-5.0004z"
     opacity=".1"
     stroke-width="3.7796"
     style="paint-order:stroke fill markers"
     id="path15" />
  <g
     transform="translate(8,14.312)"
     fill="#ffffff"
     shape-rendering="auto"
     id="g35">
    <path
       d="m 27.391,12.269 a 3.3635,3.3635 0 0 1 -0.50279,1.7119 l 4.9477,2.8594 a 3.3506,3.3506 0 0 1 0.93155,-1.4652 z m -6.7213,0.05244 -5.4042,3.1216 a 3.3506,3.3506 0 0 1 0.86369,1.4251 l 5.0279,-2.9057 a 3.3635,3.3635 0 0 1 -0.48736,-1.641 z m -6.7738,8.7201 a 3.3506,3.3506 0 0 1 -0.97165,0.14498 3.3506,3.3506 0 0 1 -0.59224,-0.05243 v 6.0581 a 3.3506,3.3506 0 0 1 0.59224,-0.05553 3.3506,3.3506 0 0 1 0.97165,0.14498 z m 20.22,0.01548 v 6.2093 a 3.3506,3.3506 0 0 1 0.91921,-0.12955 3.3506,3.3506 0 0 1 0.78349,0.09871 v -6.1445 a 3.3506,3.3506 0 0 1 -0.78349,0.09563 3.3506,3.3506 0 0 1 -0.91921,-0.12955 z m -17.909,10.108 a 3.3506,3.3506 0 0 1 -0.65085,1.3912 l 5.1328,2.9643 a 3.3506,3.3506 0 0 1 0.51513,-1.4683 z m 15.556,0.02776 -4.923,2.844 a 3.3506,3.3506 0 0 1 0.52438,1.5423 l 5.1019,-2.9458 a 3.3506,3.3506 0 0 1 -0.70329,-1.4405 z"
       color="#000000"
       color-rendering="auto"
       image-rendering="auto"
       opacity="0.5"
       solid-color="#000000"
       style="isolation:auto;mix-blend-mode:normal"
       id="path17" />
    <path
       d="m 23.958,9.6875 a 2.369,2.369 0 0 0 -2.369,2.369 2.369,2.369 0 0 0 2.369,2.369 2.369,2.369 0 0 0 2.369,-2.369 2.369,2.369 0 0 0 -2.369,-2.369 z m -0.05553,1.5793 a 0.78966,0.78966 0 0 1 0.05553,0 0.78966,0.78966 0 0 1 0.78966,0.78966 0.78966,0.78966 0 0 1 -0.78966,0.78966 0.78966,0.78966 0 0 1 -0.78966,-0.78966 0.78966,0.78966 0 0 1 0.73413,-0.78966 z"
       color="#000000"
       color-rendering="auto"
       image-rendering="auto"
       opacity="0.5"
       solid-color="#000000"
       style="isolation:auto;mix-blend-mode:normal"
       id="path19" />
    <path
       d="m 35.055,28.044 a 2.369,2.369 0 0 0 -2.369,2.369 2.369,2.369 0 0 0 2.369,2.369 2.369,2.369 0 0 0 2.369,-2.369 2.369,2.369 0 0 0 -2.369,-2.369 z m -0.05553,1.5793 a 0.78966,0.78966 0 0 1 0.05553,0 0.78966,0.78966 0 0 1 0.78966,0.78966 0.78966,0.78966 0 0 1 -0.78966,0.78966 0.78966,0.78966 0 0 1 -0.78966,-0.78966 0.78966,0.78966 0 0 1 0.73413,-0.78966 z"
       color="#000000"
       color-rendering="auto"
       image-rendering="auto"
       opacity="0.5"
       solid-color="#000000"
       style="isolation:auto;mix-blend-mode:normal"
       id="path21" />
    <path
       d="m 35.055,15.393 a 2.369,2.369 0 0 0 -2.369,2.369 2.369,2.369 0 0 0 2.369,2.369 2.369,2.369 0 0 0 2.369,-2.369 2.369,2.369 0 0 0 -2.369,-2.369 z m -0.05553,1.5793 a 0.78966,0.78966 0 0 1 0.05553,0 0.78966,0.78966 0 0 1 0.78966,0.78966 0.78966,0.78966 0 0 1 -0.78966,0.78966 0.78966,0.78966 0 0 1 -0.78966,-0.78966 0.78966,0.78966 0 0 1 0.73413,-0.78966 z"
       color="#000000"
       color-rendering="auto"
       image-rendering="auto"
       solid-color="#000000"
       style="isolation:auto;mix-blend-mode:normal"
       id="path23" />
    <path
       d="m 12.945,28.044 a 2.369,2.369 0 0 0 -2.369,2.369 2.369,2.369 0 0 0 2.369,2.369 2.369,2.369 0 0 0 2.369,-2.369 2.369,2.369 0 0 0 -2.369,-2.369 z m -0.05553,1.5793 a 0.78966,0.78966 0 0 1 0.05553,0 0.78966,0.78966 0 0 1 0.78966,0.78966 0.78966,0.78966 0 0 1 -0.78966,0.78966 0.78966,0.78966 0 0 1 -0.78966,-0.78966 0.78966,0.78966 0 0 1 0.73413,-0.78966 z"
       color="#000000"
       color-rendering="auto"
       image-rendering="auto"
       opacity="0.5"
       solid-color="#000000"
       style="isolation:auto;mix-blend-mode:normal"
       id="path25" />
    <path
       d="m 12.945,15.393 a 2.369,2.369 0 0 0 -2.369,2.369 2.369,2.369 0 0 0 2.369,2.369 2.369,2.369 0 0 0 2.369,-2.369 2.369,2.369 0 0 0 -2.369,-2.369 z m -0.05553,1.5793 a 0.78966,0.78966 0 0 1 0.05553,0 0.78966,0.78966 0 0 1 0.78966,0.78966 0.78966,0.78966 0 0 1 -0.78966,0.78966 0.78966,0.78966 0 0 1 -0.78966,-0.78966 0.78966,0.78966 0 0 1 0.73413,-0.78966 z"
       color="#000000"
       color-rendering="auto"
       image-rendering="auto"
       solid-color="#000000"
       style="isolation:auto;mix-blend-mode:normal"
       id="path27" />
    <path
       d="m 23.958,33.575 a 2.369,2.369 0 0 0 -2.369,2.369 2.369,2.369 0 0 0 2.369,2.369 2.369,2.369 0 0 0 2.369,-2.369 2.369,2.369 0 0 0 -2.369,-2.369 z m -0.05553,1.5793 a 0.78966,0.78966 0 0 1 0.05553,0 0.78966,0.78966 0 0 1 0.78966,0.78966 0.78966,0.78966 0 0 1 -0.78966,0.78966 0.78966,0.78966 0 0 1 -0.78966,-0.78966 0.78966,0.78966 0 0 1 0.73413,-0.78966 z"
       color="#000000"
       color-rendering="auto"
       image-rendering="auto"
       solid-color="#000000"
       style="isolation:auto;mix-blend-mode:normal"
       id="path29" />
    <path
       d="m 15.49,19.993 a 3.3506,3.3506 0 0 1 -1.2832,0.93463 l 7.3259,12.69 a 3.3506,3.3506 0 0 1 1.3048,-0.89453 z"
       color="#000000"
       color-rendering="auto"
       image-rendering="auto"
       solid-color="#000000"
       style="isolation:auto;mix-blend-mode:normal"
       id="path31" />
    <path
       d="m 32.523,20.052 -7.3167,12.675 a 3.3506,3.3506 0 0 1 1.3079,0.89453 l 7.3105,-12.665 A 3.3506,3.3506 0 0 1 32.523,20.05274 Z"
       color="#000000"
       color-rendering="auto"
       image-rendering="auto"
       solid-color="#000000"
       style="isolation:auto;mix-blend-mode:normal"
       id="path33" />
  </g>
</svg>
