<?xml version="1.0" encoding="UTF-8" standalone="no"?>
<svg
   xmlns:dc="http://purl.org/dc/elements/1.1/"
   xmlns:cc="http://creativecommons.org/ns#"
   xmlns:rdf="http://www.w3.org/1999/02/22-rdf-syntax-ns#"
   xmlns:svg="http://www.w3.org/2000/svg"
   xmlns="http://www.w3.org/2000/svg"
   xmlns:sodipodi="http://sodipodi.sourceforge.net/DTD/sodipodi-0.dtd"
   xmlns:inkscape="http://www.inkscape.org/namespaces/inkscape"
   width="64"
   height="64"
   version="1.1"
   viewBox="0 0 16.933 16.933"
   id="svg23"
   sodipodi:docname="image-webp.svg"
   inkscape:version="1.0.2 (e86c870879, 2021-01-15)">
  <metadata
     id="metadata27">
    <rdf:RDF>
      <cc:Work
         rdf:about="">
        <dc:format>image/svg+xml</dc:format>
        <dc:type
           rdf:resource="http://purl.org/dc/dcmitype/StillImage" />
      </cc:Work>
    </rdf:RDF>
  </metadata>
  <sodipodi:namedview
     pagecolor="#ffffff"
     bordercolor="#666666"
     borderopacity="1"
     objecttolerance="10"
     gridtolerance="10"
     guidetolerance="10"
     inkscape:pageopacity="0"
     inkscape:pageshadow="2"
     inkscape:window-width="1848"
     inkscape:window-height="1056"
     id="namedview25"
     showgrid="false"
     inkscape:zoom="11.453125"
     inkscape:cx="16.974989"
     inkscape:cy="41.63315"
     inkscape:window-x="72"
     inkscape:window-y="24"
     inkscape:window-maximized="1"
     inkscape:current-layer="svg23"
     inkscape:document-rotation="0" />
  <defs
     id="defs7">
    <linearGradient
       id="a"
       x1="49.571"
       x2="51.714"
       y1="52.714"
       y2="54.857"
       gradientTransform="matrix(2.3333,0,0,2.3333,-68.667,-72.001)"
       gradientUnits="userSpaceOnUse">
      <stop
         offset="0"
         id="stop2" />
      <stop
         stop-opacity="0"
         offset="1"
         id="stop4" />
    </linearGradient>
  </defs>
  <g
     transform="matrix(0 .26458 .26458 0 -6e-5 -6e-5)"
     id="g13">
    <rect
       x="8"
       y="4"
       width="48"
       height="56"
       ry="5"
       fill="#7f7fff"
       style="paint-order:stroke fill markers"
       id="rect9" />
    <path
       d="m56 46-14 14h9c2.77 0 5-2.23 5-5z"
       fill="url(#a)"
       fill-rule="evenodd"
       opacity=".15"
       stroke-width="8.8191"
       style="paint-order:stroke fill markers"
       id="path11" />
  </g>
  <g
     fill="#fff"
     id="g21">
    <path
       d="M 9.8110084,7.6126141 8.7791161,9.2002576 10.262461,11.48221 h 2.063785 z"
       color="#000000"
       opacity="0.25"
       stroke-width="0.257973"
       id="path15" />
    <path
       d="M 6.9087335,6.3226708 3.5551228,11.482132 h 6.7072212 z"
       color="#000000"
       opacity="0.65"
       id="path17"
       style="stroke-width:0.975029" />
    <path
       d="m 11.294412,4.3611732 c -0.712366,0 -1.289865,0.5775094 -1.289865,1.2898653 0,0.7123948 0.57749,1.2898653 1.289865,1.2898653 0.712366,0 1.289865,-0.5775095 1.289865,-1.2898653 0,-0.7123949 -0.57749,-1.2898653 -1.289865,-1.2898653 z"
       color="#000000"
       opacity="0.65"
       id="path19"
       style="stroke-width:0.975029" />
  </g>
  <g
     fill="#7b7b7b"
     stroke-width="0.053"
     aria-label="WEBP"
     id="g97"
     transform="translate(-0.2990644,-1.045118)">
    <path
       d="m 5.475,13.5 h 0.21 L 6.007,14.797 6.329,13.5 H 6.562 L 6.885,14.797 7.207,13.5 h 0.21 L 7.032,15.035 H 6.772 L 6.447,13.702 6.12,15.035 H 5.86 Z m 2.218,0 h 0.97 v 0.175 H 7.901 v 0.454 h 0.73 v 0.175 h -0.73 v 0.556 h 0.78 v 0.175 H 7.693 Z m 1.537,0.802 v 0.562 h 0.334 q 0.167,0 0.247,-0.069 0.082,-0.07 0.082,-0.212 0,-0.144 -0.082,-0.212 -0.08,-0.069 -0.247,-0.069 z m 0,-0.631 v 0.462 h 0.308 q 0.152,0 0.226,-0.056 0.075,-0.058 0.075,-0.175 0,-0.116 -0.075,-0.174 Q 9.69,13.671 9.538,13.671 Z m -0.207,-0.17 h 0.53 q 0.238,0 0.366,0.098 0.129,0.099 0.129,0.28 0,0.141 -0.066,0.225 -0.066,0.083 -0.193,0.103 0.153,0.033 0.237,0.138 0.086,0.104 0.086,0.26 0,0.206 -0.14,0.318 -0.14,0.112 -0.398,0.112 h -0.55 z m 1.652,0.17 v 0.577 h 0.261 q 0.145,0 0.224,-0.075 0.08,-0.075 0.08,-0.214 0,-0.138 -0.08,-0.213 -0.079,-0.075 -0.224,-0.075 z m -0.208,-0.17 h 0.47 q 0.257,0 0.389,0.117 0.132,0.116 0.132,0.34 0,0.228 -0.132,0.344 -0.132,0.116 -0.39,0.116 h -0.261 v 0.617 h -0.208 z"
       id="path95-3"
       style="fill:#ffffff;fill-opacity:1;opacity:0.7" />
  </g>
</svg>
