<?xml version="1.0" encoding="UTF-8" standalone="no"?>
<svg
   xmlns:dc="http://purl.org/dc/elements/1.1/"
   xmlns:cc="http://creativecommons.org/ns#"
   xmlns:rdf="http://www.w3.org/1999/02/22-rdf-syntax-ns#"
   xmlns:svg="http://www.w3.org/2000/svg"
   xmlns="http://www.w3.org/2000/svg"
   xmlns:sodipodi="http://sodipodi.sourceforge.net/DTD/sodipodi-0.dtd"
   xmlns:inkscape="http://www.inkscape.org/namespaces/inkscape"
   width="64"
   height="64"
   version="1.1"
   viewBox="0 0 16.933 16.933"
   id="svg24"
   sodipodi:docname="text-x-generic.svg"
   inkscape:version="1.0.2 (e86c870879, 2021-01-15)">
  <metadata
     id="metadata28">
    <rdf:RDF>
      <cc:Work
         rdf:about="">
        <dc:format>image/svg+xml</dc:format>
        <dc:type
           rdf:resource="http://purl.org/dc/dcmitype/StillImage" />
      </cc:Work>
    </rdf:RDF>
  </metadata>
  <sodipodi:namedview
     pagecolor="#ffffff"
     bordercolor="#666666"
     borderopacity="1"
     objecttolerance="10"
     gridtolerance="10"
     guidetolerance="10"
     inkscape:pageopacity="0"
     inkscape:pageshadow="2"
     inkscape:window-width="1848"
     inkscape:window-height="1056"
     id="namedview26"
     showgrid="false"
     inkscape:zoom="11.453125"
     inkscape:cx="32"
     inkscape:cy="32"
     inkscape:window-x="72"
     inkscape:window-y="24"
     inkscape:window-maximized="1"
     inkscape:current-layer="svg24" />
  <defs
     id="defs10">
    <clipPath
       id="a">
      <path
         d="m102.92 44c-35.297 0-39.095 3.6254-38.922 38.994v146.01c-0.17299 35.368 3.6249 38.994 38.922 38.994h98.157c35.297 0 38.922-3.625 38.922-38.994v-146.01c0-35.369-3.6249-38.994-38.922-38.994z"
         color="#000000"
         fill="url(#linearGradient3288)"
         id="path2" />
    </clipPath>
    <linearGradient
       id="b"
       x1="49.571"
       x2="51.714"
       y1="52.714"
       y2="54.857"
       gradientTransform="matrix(2.3333,0,0,2.3333,-68.667,-72.001)"
       gradientUnits="userSpaceOnUse">
      <stop
         offset="0"
         id="stop5" />
      <stop
         stop-opacity="0"
         offset="1"
         id="stop7" />
    </linearGradient>
  </defs>
  <g
     transform="scale(.26458)"
     id="g16">
    <rect
       x="8"
       y="4"
       width="48"
       height="56"
       ry="5"
       fill="#f4f4f4"
       style="paint-order:stroke fill markers"
       id="rect12" />
    <path
       d="m56 46-14 14h9c2.77 0 5-2.23 5-5z"
       fill="url(#b)"
       fill-rule="evenodd"
       opacity=".1"
       stroke-width="8.8191"
       style="paint-order:stroke fill markers"
       id="path14" />
  </g>
  <g
     transform="translate(-7.9617 -24.175)"
     fill="#999"
     id="g22" />
  <path
     d="M 4.763001,6.87946 V 7.14404 H 12.1712 V 6.87946 Z m 0,0.79374 V 7.93778 H 12.1712 V 7.6732 Z m 0,0.7937302 v 0.26458 H 12.1712 v -0.26458 z m 0,0.79374 v 0.26458 H 12.1712 v -0.26458 z"
     enable-background="new"
     id="path18-3"
     sodipodi:nodetypes="cccccccccccccccccccc"
     style="fill:#919191;fill-opacity:1" />
  <path
     d="m 4.7631,9.26066 v 0.26458 h 7.4082 V 9.26066 Z m 0,0.79374 v 0.26458 h 7.4082 V 10.0544 Z m 0,0.79373 v 0.26458 h 7.4082 v -0.26458 z m 0,0.79374 v 0.26458 h 7.4082 v -0.26458 z m 0,0.79373 v 0.26458 H 8.9963 V 12.4356 Z"
     enable-background="new"
     id="path18-7"
     style="fill:#919191;fill-opacity:1"
     sodipodi:nodetypes="ccccccccccccccccccccccccc" />
  <path
     d="M 4.7630011,5.292 V 5.55658 H 12.1712 V 5.292 Z m 0,0.79374 V 6.35032 H 12.1712 V 6.08574 Z m 0,0.7937302 v 0.26458 H 12.1712 v -0.26458 z m 0,0.79374 v 0.26458 H 12.1712 v -0.26458 z"
     enable-background="new"
     id="path18-3-6"
     sodipodi:nodetypes="cccccccccccccccccccc"
     style="fill:#919191;fill-opacity:1" />
</svg>
