<?xml version="1.0" encoding="UTF-8" standalone="no"?>
<svg
   width="64"
   height="64"
   viewBox="0 0 16.933 16.933"
   version="1.1"
   id="svg23"
   sodipodi:docname="text-richtext.svg"
   inkscape:version="1.1.2 (0a00cf5339, 2022-02-04)"
   xmlns:inkscape="http://www.inkscape.org/namespaces/inkscape"
   xmlns:sodipodi="http://sodipodi.sourceforge.net/DTD/sodipodi-0.dtd"
   xmlns:xlink="http://www.w3.org/1999/xlink"
   xmlns="http://www.w3.org/2000/svg"
   xmlns:svg="http://www.w3.org/2000/svg">
  <sodipodi:namedview
     id="namedview25"
     pagecolor="#ffffff"
     bordercolor="#666666"
     borderopacity="1.0"
     inkscape:pageshadow="2"
     inkscape:pageopacity="0.0"
     inkscape:pagecheckerboard="0"
     showgrid="false"
     inkscape:zoom="12.387285"
     inkscape:cx="27.164952"
     inkscape:cy="30.19225"
     inkscape:current-layer="svg23" />
  <defs
     id="defs5">
    <linearGradient
       inkscape:collect="always"
       id="linearGradient853">
      <stop
         style="stop-color:#f5f5f5;stop-opacity:1"
         offset="0"
         id="stop849" />
      <stop
         style="stop-color:#fcfcfc;stop-opacity:1"
         offset="1"
         id="stop851" />
    </linearGradient>
    <filter
       id="a"
       x="-0.038932178"
       y="-0.033367063"
       width="1.0778644"
       height="1.0667341"
       color-interpolation-filters="sRGB">
      <feGaussianBlur
         stdDeviation=".206"
         id="feGaussianBlur2" />
    </filter>
    <linearGradient
       inkscape:collect="always"
       xlink:href="#linearGradient853"
       id="linearGradient855"
       x1="50.593143"
       y1="10.518523"
       x2="9.6089268"
       y2="58.782906"
       gradientUnits="userSpaceOnUse" />
  </defs>
  <path
     d="M3.44 1.354a1.32 1.32 0 0 0-1.323 1.323v12.171c0 .733.59 1.323 1.323 1.323h10.053a1.32 1.32 0 0 0 1.323-1.323V4.53l-3.175-3.175z"
     filter="url(#a)"
     opacity=".15"
     style="paint-order:stroke fill markers"
     id="path7" />
  <g
     fill-rule="evenodd"
     id="g13">
    <path
       transform="scale(.26458)"
       d="M13 4c-2.77 0-5 2.23-5 5v46c0 2.77 2.23 5 5 5h38c2.77 0 5-2.23 5-5V16L44 4H13z"
       fill="#f4f4f4"
       style="paint-order:stroke fill markers;fill-opacity:1;fill:url(#linearGradient855)"
       id="path9" />
    <path
       d="m14.816 4.233-3.175-3.175V2.91c0 .733.59 1.323 1.323 1.323z"
       fill="#bbb"
       style="paint-order:stroke fill markers"
       id="path11" />
  </g>
  <g
     fill="#999"
     id="g19">
    <path
       d="M8.996 5.292v.265h3.175v-.265zm0 .794v.264h3.175v-.264zm0 .793v.265h3.175v-.265zm0 .794v.265h3.175v-.265zm0 .794v.265h3.175v-.265zm-4.233.794v.264h7.408v-.264zm0 .793v.265h7.408v-.265zm0 .794v.265h7.408v-.265zm0 .794v.264h7.408v-.264zm0 .794v.264h4.233v-.264z"
       enable-background="new"
       id="path15" />
    <path
       d="m6.388 5.027-1.305 3.44h-.32v.264h.925v-.264h-.296l.31-.795h1.534l.309.795h-.4v.264h1.328v-.264h-.367l-1.305-3.44zm.08.595.676 1.787h-1.34z"
       color="#bebebe"
       enable-background="new"
       font-size="13.717"
       font-weight="400"
       letter-spacing="0"
       overflow="visible"
       word-spacing="0"
       id="path17" />
  </g>
  <path
     d="M11.641 2.91v.155c0 .794.59 1.433 1.323 1.433h1.852v-.265h-1.852A1.32 1.32 0 0 1 11.64 2.91z"
     opacity=".1"
     style="paint-order:stroke fill markers"
     id="path21" />
</svg>
