<?xml version="1.0" encoding="UTF-8" standalone="no"?>
<svg
   xmlns:dc="http://purl.org/dc/elements/1.1/"
   xmlns:cc="http://creativecommons.org/ns#"
   xmlns:rdf="http://www.w3.org/1999/02/22-rdf-syntax-ns#"
   xmlns:svg="http://www.w3.org/2000/svg"
   xmlns="http://www.w3.org/2000/svg"
   xmlns:sodipodi="http://sodipodi.sourceforge.net/DTD/sodipodi-0.dtd"
   xmlns:inkscape="http://www.inkscape.org/namespaces/inkscape"
   width="64"
   height="64"
   viewBox="0 0 16.933 16.933"
   version="1.1"
   id="svg23"
   sodipodi:docname="text-markdown-.svg"
   inkscape:version="1.0.2 (e86c870879, 2021-01-15)">
  <metadata
     id="metadata27">
    <rdf:RDF>
      <cc:Work
         rdf:about="">
        <dc:format>image/svg+xml</dc:format>
        <dc:type
           rdf:resource="http://purl.org/dc/dcmitype/StillImage" />
      </cc:Work>
    </rdf:RDF>
  </metadata>
  <sodipodi:namedview
     pagecolor="#ffffff"
     bordercolor="#666666"
     borderopacity="1"
     objecttolerance="10"
     gridtolerance="10"
     guidetolerance="10"
     inkscape:pageopacity="0"
     inkscape:pageshadow="2"
     inkscape:window-width="640"
     inkscape:window-height="480"
     id="namedview25"
     showgrid="false"
     inkscape:zoom="12.109814"
     inkscape:cx="41.006142"
     inkscape:cy="34.898916"
     inkscape:current-layer="g904" />
  <defs
     id="defs5">
    <filter
       id="a"
       x="-.039"
       y="-.033"
       width="1.078"
       height="1.067"
       color-interpolation-filters="sRGB">
      <feGaussianBlur
         stdDeviation=".206"
         id="feGaussianBlur2" />
    </filter>
    <linearGradient
       id="a-7"
       x1="49.571"
       x2="51.714"
       y1="52.714"
       y2="54.857"
       gradientTransform="matrix(0.61734,0,0,0.61734,-18.168,-19.05)"
       gradientUnits="userSpaceOnUse">
      <stop
         offset="0"
         id="stop4" />
      <stop
         stop-opacity="0"
         offset="1"
         id="stop6" />
    </linearGradient>
    <linearGradient
       id="b"
       x1="40"
       x2="46"
       y1="17"
       y2="11"
       gradientTransform="matrix(0.26458,0,0,0.26458,-0.006,-0.265)"
       gradientUnits="userSpaceOnUse">
      <stop
         stop-color="#fefefe"
         offset="0"
         id="stop850" />
      <stop
         stop-color="#e9e9e9"
         offset="1"
         id="stop852" />
    </linearGradient>
    <linearGradient
       id="a-3"
       x1="45.801"
       x2="9.802"
       y1="10"
       y2="61"
       gradientTransform="matrix(0.26458,0,0,0.26458,0.052,-0.265)"
       gradientUnits="userSpaceOnUse">
      <stop
         stop-color="#ededed"
         offset="0"
         id="stop855" />
      <stop
         stop-color="#fcfcfc"
         offset="1"
         id="stop857" />
    </linearGradient>
  </defs>
  <path
     d="M3.44 1.354a1.32 1.32 0 0 0-1.323 1.323v12.171c0 .733.59 1.323 1.323 1.323h10.053a1.32 1.32 0 0 0 1.323-1.323V4.53l-3.175-3.175z"
     filter="url(#a)"
     opacity=".15"
     style="paint-order:stroke fill markers"
     id="path7" />
  <g
     fill-rule="evenodd"
     id="g13" />
  <g
     transform="translate(-20.849,-2.077)"
     id="g19">
    <rect
       x="25.875999"
       y="8.691"
       width="6.8790002"
       height="3.704"
       rx="0.26499999"
       ry="0.26499999"
       enable-background="new"
       fill="none"
       stroke="#455a64"
       stroke-width="0.529"
       id="rect15" />
    <path
       d="M 26.934,11.601 V 9.484 h 0.53 l 0.66,0.827 0.662,-0.827 h 0.53 v 2.117 h -0.53 v -1.29 l -0.661,0.827 -0.662,-0.827 v 1.29 z m 3.969,0 -0.794,-1.058 h 0.53 V 9.484 h 0.529 v 1.059 h 0.529 z"
       enable-background="new"
       fill="#455a64"
       id="path17" />
  </g>
  <g
     id="g904"
     transform="translate(-0.01643214,0.01465221)"
     style="display:inline">
    <path
       id="rect11"
       style="display:inline;paint-order:stroke fill markers;fill:#455a64;fill-opacity:1"
       d="m 12.9375,4.0546875 c -0.346252,0 -0.683689,0.035175 -1.009766,0.1015625 -0.652153,0.1327744 -1.257222,0.3912865 -1.789062,0.75 C 9.872752,5.0856067 9.6243766,5.291639 9.3984375,5.5175781 8.4953086,6.4212514 7.9375,7.6702222 7.9375,9.0546875 v 46.0000005 0.002 c 6.61e-5,0.172451 0.00845,0.341912 0.025391,0.509765 6.45e-5,6.42e-4 -6.47e-5,0.0013 0,0.002 0.017008,0.16783 0.043106,0.333681 0.076172,0.496094 1.27e-4,6.25e-4 -1.272e-4,0.0013 0,0.002 0.066381,0.325414 0.1650822,0.638769 0.2910156,0.9375 2.392e-4,5.68e-4 -2.393e-4,0.0014 0,0.002 0.1260486,0.298713 0.2799468,0.58221 0.4589844,0.847657 3.19e-4,4.73e-4 -3.192e-4,0.0015 0,0.002 0.1791529,0.265444 0.3837914,0.510744 0.609375,0.736328 0.9037565,0.903756 2.1540525,1.462891 3.5390625,1.462891 h 38.001953 c 1.38501,0 2.633353,-0.559135 3.537109,-1.462891 0.186387,-0.186387 0.348827,-0.395387 0.503907,-0.609375 0.03239,-0.04474 0.07455,-0.08111 0.105469,-0.126953 5.14e-4,-7.63e-4 0.0014,-0.0012 0.002,-0.002 0.08199,-0.121706 0.139704,-0.259608 0.210937,-0.388672 0.322065,-0.582916 0.548334,-1.226275 0.615234,-1.923828 0.01526,-0.159736 0.02344,-0.32051 0.02344,-0.484375 V 16.054688 l -12,-12.0000005 z"
       transform="matrix(0.26457812,0,0,0.26457812,0.01643214,-0.01465221)" />
    <g
       transform="translate(-20.849,-1.5984924)"
       fill="#ffffff"
       id="g21">
      <path
         d="m 26.040763,7.8297979 c -0.297691,0 -0.546012,0.2483202 -0.546012,0.5460114 v 3.2760687 c 0,0.297692 0.248321,0.546012 0.546012,0.546012 h 6.550074 c 0.297691,0 0.546012,-0.24832 0.546012,-0.546012 V 8.3758093 c 0,-0.2976911 -0.248321,-0.5460114 -0.546012,-0.5460114 z m 0,0.5460114 h 6.550074 v 3.2760687 h -6.550074 z"
         color="#000000"
         color-rendering="auto"
         dominant-baseline="auto"
         enable-background="new"
         image-rendering="auto"
         shape-rendering="auto"
         solid-color="#000000"
         style="font-variant-ligatures:normal;font-variant-position:normal;font-variant-caps:normal;font-variant-numeric:normal;font-variant-alternates:normal;font-feature-settings:normal;text-indent:0;text-decoration:none;text-decoration-line:none;text-decoration-style:solid;text-decoration-color:#000000;text-transform:none;text-orientation:mixed;white-space:normal;shape-padding:0;isolation:auto;mix-blend-mode:normal;stroke-width:1.03157"
         id="path15" />
      <path
         d="M 26.8588,11.105248 V 8.9218208 h 0.545867 l 0.682324,0.8529149 0.682333,-0.8529149 h 0.545867 V 11.105248 H 28.769324 V 9.7747247 L 28.086991,10.62764 27.404667,9.7747247 v 1.3305233 z"
         enable-background="new"
         id="path17-5"
         style="stroke-width:1.03157" />
      <path
         d="m 30.953112,11.105248 -0.81879,-1.091713 h 0.545867 V 8.9218208 h 0.545867 v 1.0917142 h 0.545867 z"
         enable-background="new"
         id="path19"
         style="stroke-width:1.03157" />
    </g>
    <path
       d="M 4.4120696,12.365941 H 4.612326 l 0.2527508,0.698577 0.2546951,-0.698577 h 0.1992843 v 1.026726 H 5.1887923 V 12.490758 L 4.9331251,13.195374 H 4.7980007 L 4.5423335,12.490758 v 0.901909 H 4.4120696 Z m 1.5048396,0.13589 -0.1817862,0.51135 H 6.0996675 Z M 5.8410842,12.364933 H 5.9946789 L 6.3728331,13.39166 H 6.2328477 L 6.1424407,13.127933 H 5.6952661 L 5.6058311,13.39166 H 5.4639019 Z m 1.1451557,0.545576 q 0.043745,0.0151 0.083602,0.06443 0.041801,0.05033 0.08263,0.136897 l 0.1360966,0.279833 H 7.1446949 L 7.0183195,13.128939 Q 6.9687415,13.02526 6.9220795,12.992042 6.8763895,12.95782 6.7957041,12.95782 H 6.6498866 v 0.433842 H 6.5167063 v -1.026726 h 0.3023289 q 0.1701208,0 0.253723,0.07348 0.083602,0.07349 0.083602,0.221451 0,0.09764 -0.043745,0.161055 -0.042773,0.06443 -0.1263754,0.08959 z M 6.6508587,12.479686 v 0.364387 h 0.1681765 q 0.097212,0 0.1458178,-0.04631 0.05055,-0.04731 0.05055,-0.136897 0,-0.08959 -0.05055,-0.13589 -0.048606,-0.04529 -0.1458178,-0.04529 z M 7.4616056,12.365941 H 7.595758 v 0.433842 l 0.4452303,-0.433842 h 0.172065 l -0.491892,0.479139 0.5268882,0.547587 H 8.0720961 L 7.595758,12.898429 v 0.494238 H 7.4616056 Z m 1.0255851,0.113745 v 0.79823 h 0.1623438 q 0.205117,0 0.3003847,-0.09563 0.095268,-0.09663 0.095268,-0.303992 0,-0.206351 -0.095268,-0.301978 -0.095268,-0.09663 -0.3003847,-0.09663 z M 8.3530383,12.365941 H 8.62912 q 0.2877471,0 0.4228716,0.123811 0.1351245,0.123811 0.1351245,0.388545 0,0.264735 -0.1360966,0.389553 Q 8.915895,13.392667 8.62912,13.392667 H 8.3530383 Z m 1.4504008,0.09362 q -0.1458176,0 -0.2333083,0.112739 -0.084574,0.112738 -0.084574,0.307011 0,0.194273 0.085546,0.307011 0.086519,0.112739 0.2323362,0.112739 0.1458178,0 0.231364,-0.112739 0.08555,-0.112738 0.08555,-0.307011 0,-0.194273 -0.08555,-0.307011 -0.085546,-0.112739 -0.2313639,-0.112739 z m 0,-0.112739 q 0.2080339,0 0.3334369,0.14495 0.124431,0.144949 0.124431,0.387539 0,0.243596 -0.124431,0.388546 -0.125403,0.143943 -0.3334369,0.143943 -0.2090053,0 -0.3344086,-0.143943 -0.1254033,-0.14495 -0.1254033,-0.388546 0,-0.243596 0.1254033,-0.387539 0.1254033,-0.14495 0.3344086,-0.14495 z m 0.5803549,0.01913 h 0.135125 l 0.209005,0.867685 0.207061,-0.867685 h 0.150679 l 0.209005,0.867685 0.208034,-0.867685 h 0.136096 l -0.248862,1.026726 h -0.169149 l -0.209005,-0.890836 -0.21095,0.890836 h -0.169149 z m 1.432903,0 h 0.179842 l 0.44037,0.858625 v -0.858625 h 0.130263 v 1.026726 h -0.180814 l -0.439397,-0.858625 v 0.858625 h -0.130264 z"
       id="path870-6"
       style="opacity:1;fill:#ffffff;fill-opacity:1;stroke-width:0.989207" />
  </g>
  <path
     d="m 14.81648,4.23328 -3.175,-3.175 v 1.852 c 0,0.733 0.59,1.323 1.323,1.323 z"
     fill="#bbbbbb"
     style="paint-order:stroke fill markers"
     id="path11" />
  <path
     d="m 11.64148,2.91028 v 0.155 c 0,0.794 0.59,1.433 1.323,1.433 h 1.852 v -0.265 h -1.852 a 1.32,1.32 0 0 1 -1.324,-1.323 z"
     opacity="0.1"
     style="paint-order:stroke fill markers"
     id="path21" />
</svg>
