<?xml version="1.0" encoding="UTF-8" standalone="no"?>
<svg
   xmlns:dc="http://purl.org/dc/elements/1.1/"
   xmlns:cc="http://creativecommons.org/ns#"
   xmlns:rdf="http://www.w3.org/1999/02/22-rdf-syntax-ns#"
   xmlns:svg="http://www.w3.org/2000/svg"
   xmlns="http://www.w3.org/2000/svg"
   xmlns:sodipodi="http://sodipodi.sourceforge.net/DTD/sodipodi-0.dtd"
   xmlns:inkscape="http://www.inkscape.org/namespaces/inkscape"
   width="64"
   height="64"
   viewBox="0 0 16.933 16.933"
   version="1.1"
   id="svg23"
   sodipodi:docname="text-x-go0.svg"
   inkscape:version="1.0.2 (e86c870879, 2021-01-15)">
  <metadata
     id="metadata27">
    <rdf:RDF>
      <cc:Work
         rdf:about="">
        <dc:format>image/svg+xml</dc:format>
        <dc:type
           rdf:resource="http://purl.org/dc/dcmitype/StillImage" />
      </cc:Work>
    </rdf:RDF>
  </metadata>
  <sodipodi:namedview
     pagecolor="#ffffff"
     bordercolor="#666666"
     borderopacity="1"
     objecttolerance="10"
     gridtolerance="10"
     guidetolerance="10"
     inkscape:pageopacity="0"
     inkscape:pageshadow="2"
     inkscape:window-width="640"
     inkscape:window-height="480"
     id="namedview25"
     showgrid="false"
     inkscape:zoom="8.4375"
     inkscape:cx="21.08642"
     inkscape:cy="32"
     inkscape:current-layer="svg23" />
  <defs
     id="defs5">
    <filter
       id="a"
       x="-.039"
       y="-.033"
       width="1.078"
       height="1.067"
       color-interpolation-filters="sRGB">
      <feGaussianBlur
         stdDeviation=".206"
         id="feGaussianBlur2" />
    </filter>
    <linearGradient
       id="a-3"
       x1="45.801"
       x2="9.802"
       y1="10"
       y2="61"
       gradientTransform="translate(.052 -.265) scale(.26458)"
       gradientUnits="userSpaceOnUse">
      <stop
         stop-color="#ededed"
         offset="0"
         id="stop852" />
      <stop
         stop-color="#fcfcfc"
         offset="1"
         id="stop854" />
    </linearGradient>
    <linearGradient
       id="b"
       x1="40"
       x2="46"
       y1="17"
       y2="11"
       gradientTransform="translate(-.006 -.265) scale(.26458)"
       gradientUnits="userSpaceOnUse">
      <stop
         stop-color="#fefefe"
         offset="0"
         id="stop857" />
      <stop
         stop-color="#e9e9e9"
         offset="1"
         id="stop859" />
    </linearGradient>
  </defs>
  <path
     d="M3.44 1.354a1.32 1.32 0 0 0-1.323 1.323v12.171c0 .733.59 1.323 1.323 1.323h10.053a1.32 1.32 0 0 0 1.323-1.323V4.53l-3.175-3.175z"
     filter="url(#a)"
     opacity=".15"
     style="paint-order:stroke fill markers"
     id="path7" />
  <g
     fill-rule="evenodd"
     id="g13">
    <path
       transform="scale(.26458)"
       d="M13 4c-2.77 0-5 2.23-5 5v46c0 2.77 2.23 5 5 5h38c2.77 0 5-2.23 5-5V16L44 4z"
       fill="#f4f4f4"
       style="paint-order:stroke fill markers"
       id="path9" />
    <path
       d="m14.816 4.233-3.175-3.175V2.91c0 .733.59 1.323 1.323 1.323z"
       fill="#bbb"
       style="paint-order:stroke fill markers"
       id="path11" />
  </g>
  <path
     d="M11.641 2.91v.155c0 .794.59 1.433 1.323 1.433h1.852v-.265h-1.852A1.32 1.32 0 0 1 11.64 2.91z"
     opacity=".1"
     style="paint-order:stroke fill markers"
     id="path15" />
  <g
     fill="#31c6b7"
     id="g21">
    <path
       d="M 8.376,7.474 C 8.006,7.568 7.754,7.638 7.391,7.732 7.303,7.755 7.297,7.762 7.221,7.673 A 0.785,0.785 0 0 0 6.945,7.45 C 6.576,7.269 6.219,7.322 5.885,7.538 A 1.247,1.247 0 0 0 5.287,8.652 c 0.005,0.469 0.328,0.856 0.79,0.92 0.4,0.053 0.734,-0.088 0.997,-0.386 0.053,-0.065 0.1,-0.135 0.159,-0.217 H 6.1 C 5.977,8.969 5.948,8.892 5.989,8.793 6.065,8.611 6.206,8.306 6.288,8.153 A 0.158,0.158 0 0 1 6.434,8.06 H 8.57 C 8.558,8.218 8.558,8.377 8.535,8.535 A 2.5,2.5 0 0 1 8.055,9.684 C 7.632,10.241 7.081,10.586 6.384,10.68 5.809,10.756 5.276,10.645 4.807,10.293 A 1.841,1.841 0 0 1 4.062,8.993 C 3.986,8.353 4.174,7.779 4.561,7.275 A 2.601,2.601 0 0 1 6.2,6.26 c 0.551,-0.1 1.078,-0.036 1.553,0.287 0.311,0.205 0.534,0.486 0.68,0.826 0.035,0.053 0.012,0.082 -0.058,0.1 z"
       id="path17" />
    <path
       d="M 10.316,10.715 C 9.782,10.704 9.296,10.551 8.886,10.2 A 1.838,1.838 0 0 1 8.253,9.068 C 8.147,8.406 8.329,7.82 8.727,7.298 9.155,6.735 9.671,6.442 10.369,6.319 c 0.597,-0.105 1.16,-0.047 1.67,0.3 0.463,0.316 0.75,0.744 0.827,1.306 0.1,0.792 -0.13,1.436 -0.674,1.987 a 2.686,2.686 0 0 1 -1.407,0.75 c -0.159,0.03 -0.317,0.036 -0.47,0.053 z M 11.711,8.347 C 11.705,8.271 11.705,8.212 11.693,8.154 11.588,7.574 11.054,7.245 10.498,7.374 9.952,7.497 9.601,7.844 9.472,8.394 a 0.965,0.965 0 0 0 0.539,1.108 c 0.322,0.14 0.645,0.123 0.955,-0.035 0.464,-0.24 0.716,-0.616 0.745,-1.12 z"
       id="path19" />
  </g>
  <g
     id="g903"
     transform="translate(-16.619426,2.3013052)">
    <g
       fill="#31c6b7"
       id="g876">
      <path
         d="m 24.968426,5.1716948 c -0.37,0.095 -0.621,0.165 -0.985,0.259 -0.088,0.023 -0.093,0.03 -0.17,-0.059 a 0.785,0.785 0 0 0 -0.275,-0.223 c -0.37,-0.181 -0.727,-0.129 -1.061,0.088 a 1.247,1.247 0 0 0 -0.598,1.114 c 0.006,0.469 0.328,0.856 0.791,0.92 0.399,0.053 0.733,-0.088 0.997,-0.387 0.053,-0.064 0.1,-0.134 0.158,-0.216 h -1.131 c -0.123,0 -0.153,-0.077 -0.112,-0.176 0.077,-0.182 0.217,-0.487 0.3,-0.64 a 0.158,0.158 0 0 1 0.146,-0.093 h 2.133 c -0.012,0.158 -0.012,0.317 -0.036,0.475 a 2.5,2.5 0 0 1 -0.48,1.149 c -0.422,0.557 -0.973,0.902 -1.67,0.996 -0.575,0.076 -1.109,-0.035 -1.578,-0.387 a 1.841,1.841 0 0 1 -0.744,-1.301 c -0.076,-0.639 0.111,-1.213 0.498,-1.717 a 2.601,2.601 0 0 1 1.641,-1.015 c 0.551,-0.1 1.079,-0.035 1.554,0.288 0.31,0.205 0.533,0.486 0.68,0.826 0.035,0.053 0.011,0.082 -0.059,0.1 z"
         id="path872" />
      <path
         d="m 26.934426,8.4136948 c -0.54,-0.012 -1.032,-0.166 -1.448,-0.522 a 1.86,1.86 0 0 1 -0.64,-1.145 c -0.107,-0.67 0.077,-1.264 0.48,-1.792 0.433,-0.57 0.955,-0.866 1.661,-0.99 0.606,-0.107 1.175,-0.048 1.691,0.302 0.47,0.32 0.76,0.753 0.837,1.323 0.1,0.801 -0.13,1.454 -0.682,2.011 a 2.719,2.719 0 0 1 -1.424,0.76 c -0.16,0.03 -0.32,0.035 -0.475,0.053 z m 1.412,-2.397 c -0.006,-0.077 -0.006,-0.136 -0.018,-0.195 -0.106,-0.588 -0.646,-0.92 -1.21,-0.79 -0.552,0.125 -0.908,0.475 -1.038,1.033 a 0.977,0.977 0 0 0 0.546,1.121 c 0.326,0.143 0.652,0.125 0.967,-0.035 0.468,-0.244 0.723,-0.623 0.753,-1.134 z"
         id="path874" />
    </g>
    <g
       fill="#7b7b7b"
       stroke-width="0.054"
       aria-label="TEXT-GO"
       id="g880">
      <path
         d="m 20.367426,10.563205 h 1.344 v 0.18 h -0.564 v 1.407 h -0.216 v -1.406 h -0.564 z m 1.55,0 h 1.004 v 0.18 h -0.789 v 0.47 h 0.756 v 0.181 h -0.756 v 0.576 h 0.808 v 0.18 h -1.023 z m 1.3,0 h 0.23 l 0.395,0.59 0.397,-0.59 h 0.23 l -0.51,0.762 0.544,0.825 h -0.23 l -0.447,-0.675 -0.45,0.675 h -0.232 l 0.567,-0.847 z m 1.31,0 h 1.343 v 0.18 h -0.564 v 1.407 h -0.216 v -1.406 h -0.563 z m 1.243,0.904 h 0.573 v 0.174 h -0.573 z m 2.055,0.457 v -0.426 h -0.35 v -0.177 h 0.563 v 0.682 q -0.125,0.088 -0.275,0.134 -0.15,0.044 -0.32,0.044 -0.372,0 -0.582,-0.217 -0.21,-0.218 -0.21,-0.606 0,-0.389 0.21,-0.606 0.21,-0.218 0.582,-0.218 0.156,0 0.295,0.039 0.14,0.038 0.258,0.112 v 0.229 q -0.119,-0.101 -0.253,-0.152 -0.134,-0.051 -0.282,-0.051 -0.291,0 -0.438,0.162 -0.145,0.163 -0.145,0.485 0,0.321 0.145,0.484 0.147,0.163 0.438,0.163 0.114,0 0.203,-0.02 0.09,-0.02 0.161,-0.061 z m 1.249,-1.215 q -0.234,0 -0.372,0.174 -0.137,0.175 -0.137,0.476 0,0.3 0.137,0.474 0.138,0.174 0.372,0.174 0.234,0 0.37,-0.174 0.137,-0.174 0.137,-0.474 0,-0.301 -0.137,-0.476 -0.136,-0.174 -0.37,-0.174 z m 0,-0.174 q 0.334,0 0.534,0.224 0.2,0.223 0.2,0.6 0,0.375 -0.2,0.6 -0.2,0.223 -0.534,0.223 -0.335,0 -0.536,-0.224 -0.2,-0.223 -0.2,-0.6 0,-0.377 0.2,-0.599 0.201,-0.224 0.536,-0.224 z"
         id="path878" />
    </g>
  </g>
</svg>
