<?xml version="1.0" encoding="UTF-8" standalone="no"?>
<svg
   xmlns:dc="http://purl.org/dc/elements/1.1/"
   xmlns:cc="http://creativecommons.org/ns#"
   xmlns:rdf="http://www.w3.org/1999/02/22-rdf-syntax-ns#"
   xmlns:svg="http://www.w3.org/2000/svg"
   xmlns="http://www.w3.org/2000/svg"
   xmlns:sodipodi="http://sodipodi.sourceforge.net/DTD/sodipodi-0.dtd"
   xmlns:inkscape="http://www.inkscape.org/namespaces/inkscape"
   width="64"
   height="64"
   viewBox="0 0 16.933 16.933"
   version="1.1"
   id="svg19"
   sodipodi:docname="text-x-c0.svg"
   inkscape:version="1.0.2 (e86c870879, 2021-01-15)">
  <metadata
     id="metadata23">
    <rdf:RDF>
      <cc:Work
         rdf:about="">
        <dc:format>image/svg+xml</dc:format>
        <dc:type
           rdf:resource="http://purl.org/dc/dcmitype/StillImage" />
      </cc:Work>
    </rdf:RDF>
  </metadata>
  <sodipodi:namedview
     pagecolor="#ffffff"
     bordercolor="#666666"
     borderopacity="1"
     objecttolerance="10"
     gridtolerance="10"
     guidetolerance="10"
     inkscape:pageopacity="0"
     inkscape:pageshadow="2"
     inkscape:window-width="640"
     inkscape:window-height="480"
     id="namedview21"
     showgrid="false"
     inkscape:zoom="8.4375"
     inkscape:cx="78.346438"
     inkscape:cy="41.585674"
     inkscape:current-layer="g893" />
  <defs
     id="defs5">
    <filter
       id="a"
       x="-.039"
       y="-.033"
       width="1.078"
       height="1.067"
       color-interpolation-filters="sRGB">
      <feGaussianBlur
         stdDeviation=".206"
         id="feGaussianBlur2" />
    </filter>
    <linearGradient
       id="b"
       x1="40"
       x2="46"
       y1="17"
       y2="11"
       gradientTransform="matrix(0.26458,0,0,0.26458,-0.006,-0.265)"
       gradientUnits="userSpaceOnUse">
      <stop
         stop-color="#fefefe"
         offset="0"
         id="stop848" />
      <stop
         stop-color="#e9e9e9"
         offset="1"
         id="stop850" />
    </linearGradient>
    <linearGradient
       id="a-3"
       x1="45.801"
       x2="9.802"
       y1="10"
       y2="61"
       gradientTransform="matrix(0.26458,0,0,0.26458,0.052,-0.265)"
       gradientUnits="userSpaceOnUse">
      <stop
         stop-color="#ededed"
         offset="0"
         id="stop853" />
      <stop
         stop-color="#fcfcfc"
         offset="1"
         id="stop855" />
    </linearGradient>
  </defs>
  <path
     d="M3.44 1.354a1.32 1.32 0 0 0-1.323 1.323v12.171c0 .733.59 1.323 1.323 1.323h10.053a1.32 1.32 0 0 0 1.323-1.323V4.53l-3.175-3.175z"
     filter="url(#a)"
     opacity=".15"
     style="paint-order:stroke fill markers"
     id="path7" />
  <g
     fill-rule="evenodd"
     id="g13">
    <path
       transform="scale(0.26458)"
       d="M 13,4 C 10.23,4 8,6.23 8,9 v 46 c 0,2.77 2.23,5 5,5 h 38 c 2.77,0 5,-2.23 5,-5 V 16 L 44,4 Z"
       fill="#f4f4f4"
       style="paint-order:stroke fill markers"
       id="path9" />
    <path
       d="M 14.816,4.233 11.641,1.058 V 2.91 c 0,0.733 0.59,1.323 1.323,1.323 z"
       fill="#bbbbbb"
       style="paint-order:stroke fill markers"
       id="path11" />
  </g>
  <path
     d="M11.641 2.91v.155c0 .794.59 1.433 1.323 1.433h1.852v-.265h-1.852A1.32 1.32 0 0 1 11.64 2.91z"
     opacity=".1"
     style="paint-order:stroke fill markers"
     id="path15" />
  <g
     id="g893"
     transform="translate(17.382852,1.0241607)">
    <g
       fill="#7b7b7b"
       stroke-width="0.054"
       aria-label="TEXT-C"
       id="g870">
      <path
         d="m -12.473852,11.802539 h 1.343 v 0.18 h -0.563 v 1.407 h -0.216 v -1.406 h -0.564 z m 1.551,0 h 1.003 v 0.18 h -0.788 v 0.47 h 0.756 v 0.181 h -0.756 v 0.576 h 0.808 v 0.18 h -1.024 z m 1.299,0 h 0.23 l 0.395,0.59 0.397,-0.59 h 0.23 l -0.51,0.762 0.544,0.825 h -0.23 l -0.447,-0.675 -0.45,0.675 h -0.231 l 0.566,-0.847 z m 1.31,0 h 1.343 v 0.18 h -0.564 v 1.407 h -0.216 v -1.406 h -0.563 z m 1.243,0.904 h 0.573 v 0.174 h -0.573 z m 2.082,-0.782 v 0.226 q -0.109,-0.1 -0.232,-0.15 -0.122,-0.05 -0.26,-0.05 -0.273,0 -0.417,0.166 -0.145,0.166 -0.145,0.481 0,0.314 0.145,0.48 0.144,0.167 0.416,0.167 0.139,0 0.26,-0.05 0.124,-0.05 0.233,-0.151 v 0.224 q -0.113,0.076 -0.24,0.115 -0.125,0.038 -0.265,0.038 -0.36,0 -0.568,-0.22 -0.208,-0.221 -0.208,-0.603 0,-0.383 0.208,-0.603 0.207,-0.221 0.568,-0.221 0.142,0 0.268,0.038 0.126,0.038 0.237,0.113 z"
         id="path868" />
    </g>
    <path
       d="m -6.152852,8.2218107 q -0.03,0.645 -0.348,1.141 -0.318,0.492 -0.895,0.7639993 -0.572,0.271 -1.31,0.271 -1.218,0 -1.918,-0.7929993 -0.7,-0.793 -0.7,-2.24 v -0.305 q 0,-0.908 0.314,-1.586 0.318,-0.683 0.912,-1.052 0.594,-0.374 1.374,-0.374 1.125,0 1.807,0.594 0.683,0.59 0.777,1.63 h -1.485 q -0.017,-0.565 -0.284,-0.811 -0.267,-0.246 -0.815,-0.246 -0.555,0 -0.814,0.416 -0.259,0.416 -0.271,1.326 v 0.437 q 0,0.988 0.246,1.413 0.25,0.424 0.856,0.424 0.514,0 0.785,-0.242 0.272,-0.242 0.289,-0.768 z"
       fill="#2f5fdd"
       id="path872"
       style="display:inline" />
  </g>
</svg>
