<?xml version="1.0" encoding="UTF-8" standalone="no"?>
<svg
   xmlns:dc="http://purl.org/dc/elements/1.1/"
   xmlns:cc="http://creativecommons.org/ns#"
   xmlns:rdf="http://www.w3.org/1999/02/22-rdf-syntax-ns#"
   xmlns:svg="http://www.w3.org/2000/svg"
   xmlns="http://www.w3.org/2000/svg"
   xmlns:sodipodi="http://sodipodi.sourceforge.net/DTD/sodipodi-0.dtd"
   xmlns:inkscape="http://www.inkscape.org/namespaces/inkscape"
   width="64"
   height="64"
   viewBox="0 0 16.933 16.933"
   version="1.1"
   id="svg21"
   sodipodi:docname="text-x-python0.svg"
   inkscape:version="1.0.2 (e86c870879, 2021-01-15)">
  <metadata
     id="metadata25">
    <rdf:RDF>
      <cc:Work
         rdf:about="">
        <dc:format>image/svg+xml</dc:format>
        <dc:type
           rdf:resource="http://purl.org/dc/dcmitype/StillImage" />
      </cc:Work>
    </rdf:RDF>
  </metadata>
  <sodipodi:namedview
     pagecolor="#ffffff"
     bordercolor="#666666"
     borderopacity="1"
     objecttolerance="10"
     gridtolerance="10"
     guidetolerance="10"
     inkscape:pageopacity="0"
     inkscape:pageshadow="2"
     inkscape:window-width="640"
     inkscape:window-height="480"
     id="namedview23"
     showgrid="false"
     inkscape:zoom="8.4375"
     inkscape:cx="24.345679"
     inkscape:cy="31.583232"
     inkscape:current-layer="svg21" />
  <defs
     id="defs5">
    <filter
       id="a"
       x="-.039"
       y="-.033"
       width="1.078"
       height="1.067"
       color-interpolation-filters="sRGB">
      <feGaussianBlur
         stdDeviation=".206"
         id="feGaussianBlur2" />
    </filter>
    <linearGradient
       id="a-3"
       x1="45.801"
       x2="9.802"
       y1="10"
       y2="61"
       gradientTransform="matrix(0.26458,0,0,0.26458,0.052,-0.265)"
       gradientUnits="userSpaceOnUse">
      <stop
         stop-color="#ededed"
         offset="0"
         id="stop850" />
      <stop
         stop-color="#fcfcfc"
         offset="1"
         id="stop852" />
    </linearGradient>
    <linearGradient
       id="b"
       x1="40"
       x2="46"
       y1="17"
       y2="11"
       gradientTransform="matrix(0.26458,0,0,0.26458,-0.006,-0.265)"
       gradientUnits="userSpaceOnUse">
      <stop
         stop-color="#fefefe"
         offset="0"
         id="stop855" />
      <stop
         stop-color="#e9e9e9"
         offset="1"
         id="stop857" />
    </linearGradient>
  </defs>
  <path
     d="M3.44 1.354a1.32 1.32 0 0 0-1.323 1.323v12.171c0 .733.59 1.323 1.323 1.323h10.053a1.32 1.32 0 0 0 1.323-1.323V4.53l-3.175-3.175z"
     filter="url(#a)"
     opacity=".15"
     style="paint-order:stroke fill markers"
     id="path7" />
  <g
     fill-rule="evenodd"
     id="g13">
    <path
       transform="scale(.26458)"
       d="M13 4c-2.77 0-5 2.23-5 5v46c0 2.77 2.23 5 5 5h38c2.77 0 5-2.23 5-5V16L44 4z"
       fill="#f4f4f4"
       style="paint-order:stroke fill markers"
       id="path9" />
    <path
       d="m14.816 4.233-3.175-3.175V2.91c0 .733.59 1.323 1.323 1.323z"
       fill="#bbb"
       style="paint-order:stroke fill markers"
       id="path11" />
  </g>
  <path
     d="M11.641 2.91v.155c0 .794.59 1.433 1.323 1.433h1.852v-.265h-1.852A1.32 1.32 0 0 1 11.64 2.91z"
     opacity=".1"
     style="paint-order:stroke fill markers"
     id="path15" />
  <g
     fill="#7b7b7b"
     stroke-width="0.054"
     aria-label="PYTHON"
     id="g874"
     transform="translate(0,-0.1992202)">
    <path
       d="m 4.442,13.676 v 0.597 h 0.27 q 0.15,0 0.232,-0.078 0.082,-0.078 0.082,-0.221 0,-0.143 -0.082,-0.22 Q 4.862,13.676 4.712,13.676 Z M 4.227,13.5 h 0.485 q 0.267,0 0.403,0.12 0.137,0.12 0.137,0.354 0,0.235 -0.137,0.355 -0.136,0.12 -0.403,0.12 h -0.27 v 0.638 H 4.227 Z m 1.047,0 h 0.231 l 0.44,0.653 0.437,-0.653 h 0.231 l -0.561,0.831 v 0.756 H 5.836 v -0.756 z"
       id="path870" />
    <path
       d="m 6.603,13.5 h 1.343 v 0.18 H 7.382 v 1.407 H 7.166 V 13.681 H 6.603 Z m 1.55,0 h 0.215 v 0.65 h 0.78 V 13.5 h 0.215 v 1.587 H 9.148 v -0.755 h -0.78 v 0.755 H 8.153 Z m 2.282,0.146 q -0.234,0 -0.372,0.174 -0.137,0.175 -0.137,0.476 0,0.3 0.137,0.474 0.138,0.174 0.372,0.174 0.234,0 0.37,-0.174 0.137,-0.174 0.137,-0.474 0,-0.301 -0.137,-0.476 -0.136,-0.174 -0.37,-0.174 z m 0,-0.174 q 0.334,0 0.534,0.224 0.2,0.223 0.2,0.6 0,0.375 -0.2,0.6 -0.2,0.223 -0.534,0.223 -0.335,0 -0.536,-0.224 -0.2,-0.223 -0.2,-0.6 0,-0.377 0.2,-0.599 0.201,-0.224 0.536,-0.224 z m 1.069,0.028 h 0.29 l 0.703,1.328 V 13.5 h 0.208 v 1.587 H 12.416 L 11.712,13.76 v 1.328 h -0.208 z"
       id="path872" />
  </g>
  <path
     d="m 8.334,4.5697819 c -0.879999,0 -1.586999,0.353999 -1.586999,0.794 v 1.058 H 8.334 v 0.265 h -2.91 c -0.439999,0 -0.794,0.707999 -0.794,1.587 v 0.265999 c 0,0.880001 0.354001,1.5870001 0.794,1.5870001 H 6.482 V 9.3337809 c 0,0 0,-1.058999 1.058,-1.058999 h 2.117 c 0,0 0.53,0 0.53,-0.529 v -2.382 c 0,-0.440001 -0.709,-0.794 -1.588,-0.794 z m -0.794,0.53 a 0.265,0.265 0 1 1 0,0.529 0.265,0.265 0 0 1 0,-0.53 z"
     fill="#347ab4"
     id="path876" />
  <path
     d="m 8.599,12.242782 c 0.880001,0 1.587,-0.354 1.587,-0.794001 v -1.058 H 8.6 v -0.265 h 2.91 c 0.44,0 0.794,-0.7080001 0.794,-1.5869991 v -0.265 c 0,-0.880001 -0.354,-1.587 -0.794,-1.587 h -1.057999 v 1.058 c 0,0.794 -0.794001,0.794 -0.794001,0.794 H 7.541001 c -0.794,0 -0.794,0.794 -0.794,0.794 v 2.1159991 c 0,0.44 0.708,0.794001 1.586999,0.794001 z m 0.794,-0.794001 a 0.265,0.265 0 1 1 0,-0.529 0.265,0.265 0 0 1 0,0.53 z"
     fill="#ffd43b"
     id="path878" />
</svg>
