<?xml version="1.0" encoding="UTF-8" standalone="no"?>
<svg
   xmlns:dc="http://purl.org/dc/elements/1.1/"
   xmlns:cc="http://creativecommons.org/ns#"
   xmlns:rdf="http://www.w3.org/1999/02/22-rdf-syntax-ns#"
   xmlns:svg="http://www.w3.org/2000/svg"
   xmlns="http://www.w3.org/2000/svg"
   xmlns:xlink="http://www.w3.org/1999/xlink"
   xmlns:sodipodi="http://sodipodi.sourceforge.net/DTD/sodipodi-0.dtd"
   xmlns:inkscape="http://www.inkscape.org/namespaces/inkscape"
   width="64"
   height="64"
   viewBox="0 0 16.933 16.933"
   version="1.1"
   id="svg23"
   sodipodi:docname="text-markdown0.svg"
   inkscape:version="1.0.2 (e86c870879, 2021-01-15)">
  <metadata
     id="metadata27">
    <rdf:RDF>
      <cc:Work
         rdf:about="">
        <dc:format>image/svg+xml</dc:format>
        <dc:type
           rdf:resource="http://purl.org/dc/dcmitype/StillImage" />
      </cc:Work>
    </rdf:RDF>
  </metadata>
  <sodipodi:namedview
     pagecolor="#ffffff"
     bordercolor="#666666"
     borderopacity="1"
     objecttolerance="10"
     gridtolerance="10"
     guidetolerance="10"
     inkscape:pageopacity="0"
     inkscape:pageshadow="2"
     inkscape:window-width="640"
     inkscape:window-height="480"
     id="namedview25"
     showgrid="false"
     inkscape:zoom="7.6229638"
     inkscape:cx="44.878097"
     inkscape:cy="19.825243"
     inkscape:current-layer="g13" />
  <defs
     id="defs5">
    <filter
       id="a"
       x="-.039"
       y="-.033"
       width="1.078"
       height="1.067"
       color-interpolation-filters="sRGB">
      <feGaussianBlur
         stdDeviation=".206"
         id="feGaussianBlur2" />
    </filter>
    <radialGradient
       id="c"
       cx="233.65"
       cy="90.547"
       r="54.818"
       gradientTransform="matrix(-0.4341,1.9402,-2.0119,-0.45015,331.24,540.89)"
       gradientUnits="userSpaceOnUse">
      <stop
         stop-color="#c7d6e4"
         offset="0"
         id="stop852" />
      <stop
         stop-color="#808fa3"
         offset=".284"
         id="stop854" />
      <stop
         stop-color="#5b6474"
         offset=".515"
         id="stop856" />
      <stop
         stop-color="#282825"
         offset="1"
         id="stop858" />
    </radialGradient>
    <radialGradient
       id="d"
       cx="249.55"
       cy="75.627"
       r="54.818"
       gradientTransform="matrix(-0.06126,0.85207,-0.94837,-0.06818,150.77,768.83)"
       gradientUnits="userSpaceOnUse">
      <stop
         stop-color="#d7e4f1"
         offset="0"
         id="stop861" />
      <stop
         stop-color="#fff"
         stop-opacity="0"
         offset="1"
         id="stop863" />
    </radialGradient>
    <radialGradient
       id="h"
       cx="-498.85"
       cy="944.67"
       r="11.015"
       gradientTransform="matrix(0,6.8084,-6.0425,0,5754,4332.9)"
       gradientUnits="userSpaceOnUse">
      <stop
         stop-color="#bcc5d5"
         offset="0"
         id="stop866" />
      <stop
         stop-color="#6e78a9"
         offset=".515"
         id="stop868" />
      <stop
         stop-color="#232a30"
         offset="1"
         id="stop870" />
    </radialGradient>
    <radialGradient
       id="i"
       cx="53.787"
       cy="1025.4"
       r="25.322"
       gradientTransform="matrix(0,3.5865,-4.3126,0,4465.4,778.52)"
       gradientUnits="userSpaceOnUse">
      <stop
         stop-color="#bcc5d5"
         offset="0"
         id="stop873" />
      <stop
         stop-color="#94a5b9"
         offset=".284"
         id="stop875" />
      <stop
         stop-color="#69758a"
         offset=".515"
         id="stop877" />
      <stop
         stop-color="#282825"
         offset="1"
         id="stop879" />
    </radialGradient>
    <linearGradient
       id="e"
       x1="305.99"
       x2="305.99"
       y1="9.011"
       y2="116.17"
       gradientTransform="matrix(0.48638,0,0,0.48638,-99.391,941.69)"
       gradientUnits="userSpaceOnUse">
      <stop
         stop-color="#0023bc"
         offset="0"
         id="stop882" />
      <stop
         stop-color="#109cd8"
         offset="1"
         id="stop884" />
    </linearGradient>
    <linearGradient
       id="f"
       x1="301.06"
       x2="301.06"
       y1="149.41"
       y2="-38.003"
       gradientTransform="matrix(0.7,0,0,0.7,66.103,-6.442)"
       gradientUnits="userSpaceOnUse">
      <stop
         stop-color="#0beafa"
         offset="0"
         id="stop887" />
      <stop
         stop-color="#1532ff"
         stop-opacity="0"
         offset="1"
         id="stop889" />
    </linearGradient>
    <linearGradient
       id="b"
       x1="40"
       x2="46"
       y1="17"
       y2="11"
       gradientTransform="matrix(0.26458,0,0,0.26458,-0.005,-0.265)"
       gradientUnits="userSpaceOnUse">
      <stop
         stop-color="#fefefe"
         offset="0"
         id="stop892" />
      <stop
         stop-color="#e9e9e9"
         offset="1"
         id="stop894" />
    </linearGradient>
    <linearGradient
       id="a-3"
       x1="21.039"
       x2="21.039"
       y1="2"
       y2="62"
       gradientTransform="matrix(0.26458,0,0,0.26458,0,-0.265)"
       gradientUnits="userSpaceOnUse">
      <stop
         stop-color="#18cdfd"
         offset="0"
         id="stop897" />
      <stop
         stop-color="#08f"
         offset="1"
         id="stop899" />
    </linearGradient>
    <filter
       id="g">
      <feGaussianBlur
         stdDeviation="3.263"
         id="feGaussianBlur902" />
    </filter>
    <linearGradient
       inkscape:collect="always"
       xlink:href="#a-3"
       id="linearGradient1044"
       gradientUnits="userSpaceOnUse"
       gradientTransform="matrix(0.303917,0,0,0.27380568,-1.4621033,-0.7578674)"
       x1="21.039"
       y1="2"
       x2="21.039"
       y2="62" />
  </defs>
  <path
     d="M3.44 1.354a1.32 1.32 0 0 0-1.323 1.323v12.171c0 .733.59 1.323 1.323 1.323h10.053a1.32 1.32 0 0 0 1.323-1.323V4.53l-3.175-3.175z"
     filter="url(#a)"
     opacity=".15"
     style="paint-order:stroke fill markers"
     id="path7" />
  <g
     fill-rule="evenodd"
     id="g13">
    <path
       id="path909-3"
       style="fill:url(#linearGradient1044);stroke-width:1.09029"
       d="m 3.4391407,1.0580626 c -0.732887,0 -1.322891,0.5900041 -1.322891,1.3228906 V 14.552063 c 0,0.732887 0.590004,1.322891 1.322891,1.322891 H 13.493109 c 0.732887,0 1.322891,-0.590004 1.322891,-1.322891 V 4.233 L 11.641062,1.0580626 Z" />
    <path
       d="M 14.816,4.233 11.641,1.058 V 2.91 c 0,0.733 0.59,1.323 1.323,1.323 z"
       fill="#bbbbbb"
       style="paint-order:stroke fill markers;fill:#e5e5e5;fill-opacity:1"
       id="path11" />
  </g>
  <path
     d="M11.641 2.91v.155c0 .794.59 1.433 1.323 1.433h1.852v-.265h-1.852A1.32 1.32 0 0 1 11.64 2.91z"
     opacity=".1"
     style="paint-order:stroke fill markers"
     id="path21" />
  <g
     id="g977"
     transform="translate(-0.061169,-0.7499818)">
    <g
       transform="matrix(0.06173,0,0,0.06174,4.516,-50.982)"
       id="g927">
      <ellipse
         cx="63.75"
         cy="988.40002"
         rx="59.75"
         ry="59.751999"
         fill="url(#c)"
         id="ellipse915"
         style="fill:url(#c)" />
      <ellipse
         cx="63.75"
         cy="988.40002"
         rx="59.75"
         ry="59.751999"
         fill="url(#d)"
         id="ellipse917"
         style="fill:url(#d)" />
      <circle
         cx="64"
         cy="988.40002"
         r="38.089001"
         fill="url(#e)"
         id="circle919"
         style="fill:url(#e)" />
      <circle
         transform="matrix(0.64194,0,0,0.64196,-130.78,948.15)"
         cx="303.04001"
         cy="62.699001"
         r="54.818001"
         fill="url(#f)"
         filter="url(#g)"
         id="circle921"
         style="fill:url(#f)" />
      <path
         d="m 63.765,976.3 c -6.678,0 -12.109,5.431 -12.109,12.109 a 10.958,10.958 0 0 0 2.779,7.684 c 0.14,0.157 0.26,0.33 0.411,0.48 l 0.103,0.104 c 0.212,0.225 0.424,0.443 0.652,0.651 l 51.282,51.316 H 124 l -0.137,-17.218 -50.767,-50.735 c -0.123,-0.149 -0.282,-0.268 -0.412,-0.411 l -0.377,-0.446 c -0.122,-0.122 -0.25,-0.226 -0.377,-0.343 -0.15,-0.15 -0.324,-0.272 -0.48,-0.412 a 10.957,10.957 0 0 0 -7.684,-2.778 z"
         fill="url(#h)"
         id="path923"
         style="fill:url(#h)" />
      <path
         d="m 63.765,976.3 c -6.678,0 -12.109,5.431 -12.109,12.109 a 10.958,10.958 0 0 0 2.779,7.684 c 0.14,0.157 0.26,0.33 0.411,0.48 l 0.103,0.104 c 0.212,0.225 0.424,0.443 0.652,0.651 l 51.282,51.316 H 124 l -0.137,-17.218 -50.767,-50.735 c -0.123,-0.149 -0.282,-0.268 -0.412,-0.411 l -0.377,-0.446 c -0.122,-0.122 -0.25,-0.226 -0.377,-0.343 -0.15,-0.15 -0.324,-0.272 -0.48,-0.412 a 10.957,10.957 0 0 0 -7.684,-2.778 z"
         fill="url(#i)"
         id="path925"
         style="fill:url(#i)" />
    </g>
  </g>
</svg>
