<?xml version="1.0" encoding="UTF-8" standalone="no"?>
<svg
   version="1.1"
   viewBox="0 0 22 22"
   id="svg7"
   sodipodi:docname="folder-open-recent.svg"
   inkscape:version="1.2.2 (b0a8486541, 2022-12-01)"
   xmlns:inkscape="http://www.inkscape.org/namespaces/inkscape"
   xmlns:sodipodi="http://sodipodi.sourceforge.net/DTD/sodipodi-0.dtd"
   xmlns="http://www.w3.org/2000/svg"
   xmlns:svg="http://www.w3.org/2000/svg">
  <sodipodi:namedview
     id="namedview9"
     pagecolor="#ffffff"
     bordercolor="#666666"
     borderopacity="1.0"
     inkscape:pageshadow="2"
     inkscape:pageopacity="0.0"
     inkscape:pagecheckerboard="0"
     showgrid="false"
     inkscape:zoom="16.844068"
     inkscape:cx="0.47494465"
     inkscape:cy="8.6083718"
     inkscape:current-layer="svg7"
     inkscape:showpageshadow="2"
     inkscape:deskcolor="#d1d1d1"
     inkscape:window-width="1920"
     inkscape:window-height="1026"
     inkscape:window-x="0"
     inkscape:window-y="24"
     inkscape:window-maximized="1" />
  <defs
     id="defs3">
    <style
       type="text/css"
       id="current-color-scheme">
            .ColorScheme-Text {
                color:#ccdcff;
            }
        </style>
  </defs>
  <rect
     style="fill:none;stroke-width:5.97921;stroke-opacity:0.372549;fill-opacity:1"
     id="rect898"
     width="22"
     height="22"
     x="0"
     y="0" />
  <path
     style="clip-rule:evenodd;fill:currentColor;fill-rule:evenodd;stroke-width:1.19286;stroke-linejoin:round;stroke-miterlimit:2"
     class="ColorScheme-Text"
     d="m 6.3471769,4.4924015 c 0.4270435,0 0.6310224,0.2206789 0.9495157,0.642951 0.3184934,0.4210792 0.4640222,0.6882797 1.0473302,0.710944 h 8.7400782 c 0.526051,0 0.949516,0.4222721 0.949516,0.9483229 V 16.52835 c 0,0.526051 -0.423465,0.949516 -0.949516,0.949516 h -7.019975 c 0.155071,-0.282708 0.2839,-0.582115 0.380522,-0.894644 h 6.118174 c 0.318493,0 0.57615,-0.257658 0.57615,-0.576151 V 7.3158988 c 0,-0.3184934 -0.257657,-0.5749581 -0.57615,-0.5749581 H 8.0815939 c -0.363822,0 -1.0091587,-0.4389721 -1.2393805,-0.6691939 C 6.6119916,5.841525 6.4235199,5.3870458 5.8258975,5.3870458 H 3.3984294 c -0.3184933,0 -0.5761509,0.2576575 -0.5761509,0.5761509 V 11.341798 C 2.4858923,11.60542 2.1852918,11.911984 1.9276343,12.254335 V 5.4419173 c 0,-0.5260508 0.4234649,-0.9495158 0.9495157,-0.9495158 z"
     id="path5-3"
     inkscape:label="path5" />
  <path
     style="clip-rule:evenodd;fill:currentColor;fill-opacity:0.3;fill-rule:evenodd;stroke-width:1.19286;stroke-linejoin:round;stroke-miterlimit:2"
     class="ColorScheme-Text"
     d="M 4.1451592,4.4924015 V 3.7206222 c 0,-0.5260508 0.4222721,-0.9495157 0.9483229,-0.9495157 h 3.4712197 c 0.4270435,0 0.6310226,0.2218717 0.9483231,0.642951 0.3184934,0.4210792 0.4640222,0.6882791 1.0485231,0.7109434 h 8.740078 c 0.524858,0 0.948323,0.423465 0.948323,0.9483229 v 9.7349232 c 0,0.524858 -0.423465,0.948323 -0.948323,0.948323 H 18.033617 V 6.7946194 c 0,-0.5260508 -0.423465,-0.9483229 -0.949516,-0.9483229 H 8.3440228 C 7.7607148,5.8236322 7.615186,5.5564317 7.2966926,5.1353525 6.9781993,4.7130804 6.7742204,4.4924015 6.3471769,4.4924015 Z"
     id="path7" />
  <path
     style="clip-rule:evenodd;fill:currentColor;fill-rule:evenodd;stroke-width:1.19286;stroke-linejoin:round;stroke-miterlimit:2"
     class="ColorScheme-Text"
     d="m 5.8056189,10.985133 c -2.2902893,0 -4.1750065,1.884717 -4.1750065,4.175008 0,2.290289 1.8847172,4.175006 4.1750065,4.175006 2.2902893,0 4.1750067,-1.884717 4.1750067,-4.175006 0,-2.290291 -1.8847174,-4.175008 -4.1750067,-4.175008 z m -0.3184934,1.192859 h 0.6369867 l 0.2779362,2.385719 2.385718,0.379329 v 0.434201 l -3.578577,0.379329 z"
     id="path9" />
</svg>
