<?xml version="1.0" encoding="UTF-8" standalone="no"?>
<svg
   width="22"
   height="22"
   version="1.1"
   id="svg7"
   sodipodi:docname="notifications-disabled.svg"
   inkscape:version="1.2.2 (b0a8486541, 2022-12-01)"
   xmlns:inkscape="http://www.inkscape.org/namespaces/inkscape"
   xmlns:sodipodi="http://sodipodi.sourceforge.net/DTD/sodipodi-0.dtd"
   xmlns="http://www.w3.org/2000/svg"
   xmlns:svg="http://www.w3.org/2000/svg">
  <defs
     id="defs11" />
  <sodipodi:namedview
     id="namedview9"
     pagecolor="#ffffff"
     bordercolor="#000000"
     borderopacity="0.25"
     inkscape:showpageshadow="2"
     inkscape:pageopacity="0.0"
     inkscape:pagecheckerboard="0"
     inkscape:deskcolor="#d1d1d1"
     showgrid="false"
     inkscape:zoom="25.772652"
     inkscape:cx="8.342176"
     inkscape:cy="7.7601637"
     inkscape:window-width="1920"
     inkscape:window-height="1026"
     inkscape:window-x="0"
     inkscape:window-y="24"
     inkscape:window-maximized="1"
     inkscape:current-layer="svg7" />
  <style
     id="current-color-scheme"
     type="text/css">.ColorScheme-Text {
            color:#a1adc8;
        }
        .ColorScheme-NegativeText {
            color:#da4453;
        }</style>
  <rect
     x="-1.002"
     y="-64.012001"
     width="22"
     height="22"
     fill="none"
     stroke-linecap="round"
     stroke-linejoin="round"
     stroke-width="1.6923"
     id="rect42"
     style="display:inline"
     transform="translate(1.0019653,64.011966)" />
  <path
     class="ColorScheme-Text"
     d="M 11,3 A 1,1 0 0 0 10.006,4.1 4.988,4.988 0 0 0 6,9 v 4.5 l -2,2 V 16 h 14 v -0.5 l -2,-2 V 9 A 4.987,4.987 0 0 0 11.994,4.1 1,1 0 0 0 11,3 Z m 0,2 a 4,4 0 0 1 4,4 v 4.922 L 16,15 H 6 L 7,13.922 V 9 A 4,4 0 0 1 11,5 Z M 9.27,17 a 2,2 0 0 0 1.73,1 2,2 0 0 0 1.729,-1 z"
     fill="currentColor"
     opacity="0.35"
     id="path3"
     style="display:none" />
  <rect
     class="ColorScheme-Text"
     transform="rotate(45)"
     x="4.5563002"
     y="-0.5"
     width="22"
     height="1"
     rx="0.5"
     ry="0.5"
     fill="currentColor"
     id="rect5"
     style="display:none" />
  <path
     id="path44"
     style="display:inline;opacity:0.4;fill:currentColor;fill-opacity:1"
     class="ColorScheme-Text"
     transform="translate(1.0019653,64.011966)"
     d="m 9.9960816,-60.918216 c -1.6392968,0 -3.1286927,0.632826 -4.2128907,1.664062 l 0.7070313,0.707032 c 0.9017582,-0.848378 2.139462,-1.371094 3.5058594,-1.371094 2.6969944,0 4.8929484,2.034026 4.9980464,4.607422 l 0.0039,0.205078 v 3.6875 l 0.03906,0.191406 0.875,2.09961 0.851563,0.853515 c 0.15,-0.1749 0.236328,-0.399425 0.236328,-0.640625 l -0.0098,-0.130859 -0.01563,-0.08594 c -0.0127,-0.0569 -0.03013,-0.113868 -0.05273,-0.167968 l -0.925781,-2.220704 0.002,-3.595703 -0.0039,-0.224609 -0.01367,-0.222656 c -0.2405,-3.020494 -2.835482,-5.355469 -5.9843754,-5.355469 z m -5.4140625,3.291017 c -0.3424594,0.692298 -0.5479982,1.461925 -0.5800782,2.277343 l -0.00391,0.22461 -0.00195,3.607422 -0.921875,2.21875 -0.042969,0.128906 -0.021484,0.126953 c -0.0504,0.4635 0.1927365,0.881736 0.6035157,1.052734 l 0.1230468,0.04297 c 0.08456,0.0228 0.1718159,0.0332 0.2597657,0.0332 h 3.5019531 l 0.00586,0.160156 c 0.0847,1.304098 1.1686432,2.335938 2.4941406,2.335938 1.3251972,0 2.4090402,-1.030288 2.4941402,-2.333984 l 0.0059,-0.16211 h 1.796875 l -0.998047,-0.99803 -9.3007813,-0.002 0.9628906,-2.3125 0.039063,-0.191406 v -3.697266 l 0.00391,-0.205078 0.013672,-0.21289 c 0.04004,-0.46927 0.1495429,-0.919296 0.3203125,-1.339844 -0.3109932,-0.313374 -0.502031,-0.498933 -0.7539507,-0.753874 z m 3.9160156,9.712891 h 3.0000003 l -0.0078,0.140625 c -0.0726,0.760598 -0.712489,1.355469 -1.4921873,1.355469 l -0.1445313,-0.0078 C 9.140698,-46.494114 8.57441,-47.06097 8.5058602,-47.77367 Z"
     sodipodi:nodetypes="sccsccccccccccccccsscccccccccsccsccccccccccccccccccc" />
  <path
     class="ColorScheme-Text"
     d="m 2.14446,-60.064849 c -0.1666653,-0.166665 -0.19527,-0.51184 0,-0.7071 0.19526,-0.19527 0.51184,-0.19527 0.7071,0 l 15,15 c 0.1952,0.1953 0.1952,0.5119 0,0.7072 -0.1953,0.1952 -0.5119,0.1952 -0.7072,0 -9.0121627,-9.004798 -9.6449964,-9.645196 -14.9999,-15.0001 z"
     id="path6263"
     style="fill:currentColor;display:inline;opacity:0.7"
     transform="translate(1.0019653,64.011966)"
     sodipodi:nodetypes="scccccs"
     inkscape:label="path42" />
</svg>
