<?xml version="1.0" encoding="UTF-8" standalone="no"?>
<svg
   style="isolation:isolate"
   width="64"
   height="64"
   viewBox="0 0 64 64"
   version="1.1"
   id="svg41"
   sodipodi:docname="anjuta.svg"
   inkscape:version="1.2.2 (b0a8486541, 2022-12-01)"
   xmlns:inkscape="http://www.inkscape.org/namespaces/inkscape"
   xmlns:sodipodi="http://sodipodi.sourceforge.net/DTD/sodipodi-0.dtd"
   xmlns:xlink="http://www.w3.org/1999/xlink"
   xmlns="http://www.w3.org/2000/svg"
   xmlns:svg="http://www.w3.org/2000/svg">
  <sodipodi:namedview
     id="namedview43"
     pagecolor="#ffffff"
     bordercolor="#000000"
     borderopacity="0.25"
     inkscape:showpageshadow="2"
     inkscape:pageopacity="0.0"
     inkscape:pagecheckerboard="0"
     inkscape:deskcolor="#d1d1d1"
     showgrid="false"
     inkscape:zoom="6.7413355"
     inkscape:cx="-2.9667712"
     inkscape:cy="17.800627"
     inkscape:window-width="1920"
     inkscape:window-height="1026"
     inkscape:window-x="0"
     inkscape:window-y="24"
     inkscape:window-maximized="1"
     inkscape:current-layer="svg41" />
  <defs
     id="defs13">
    <linearGradient
       inkscape:collect="always"
       id="linearGradient2446">
      <stop
         style="stop-color:#000000;stop-opacity:1;"
         offset="0"
         id="stop2442" />
      <stop
         style="stop-color:#ffffff;stop-opacity:1;"
         offset="1"
         id="stop2444" />
    </linearGradient>
    <filter
       id="2SnFYTsEm5IstvZotAFRjmC9syskkvTI"
       width="1.0920143"
       height="1.1098714"
       x="-0.046007144"
       y="-0.046007144"
       color-interpolation-filters="sRGB"
       filterUnits="objectBoundingBox">
      <feGaussianBlur
         in="SourceGraphic"
         stdDeviation="4.294"
         id="feGaussianBlur2" />
      <feOffset
         dx="0"
         dy="4"
         result="pf_100_offsetBlur"
         id="feOffset4" />
      <feFlood
         flood-opacity=".4"
         id="feFlood6" />
      <feComposite
         in2="pf_100_offsetBlur"
         operator="in"
         result="pf_100_dropShadow"
         id="feComposite8" />
      <feBlend
         in="SourceGraphic"
         in2="pf_100_dropShadow"
         mode="normal"
         id="feBlend10" />
    </filter>
    <linearGradient
       id="_lgradient_105"
       x1="0.51700002"
       x2="0.51700002"
       y1="0"
       y2="1"
       gradientTransform="matrix(244.651,0,0,228.341,5.68,11.95)"
       gradientUnits="userSpaceOnUse">
      <stop
         offset="0%"
         style="stop-color:#ffffff"
         id="stop26" />
      <stop
         offset="12.5%"
         stop-opacity=".098"
         style="stop-color:#ffffff"
         id="stop28" />
      <stop
         offset="92.5%"
         style="stop-color:#000000"
         id="stop30" />
      <stop
         offset="100%"
         style="stop-color:#000000"
         id="stop32" />
    </linearGradient>
    <linearGradient
       id="_lgradient_104"
       x1="-0.39700001"
       x2="0.73500001"
       y1="1.572"
       y2="-0.54100001"
       gradientTransform="matrix(244.648,0,0,228.338,5.676,11.947)"
       gradientUnits="userSpaceOnUse">
      <stop
         offset="0%"
         style="stop-color:#2657eb"
         id="stop15" />
      <stop
         offset="100%"
         style="stop-color:#de6161"
         id="stop17" />
    </linearGradient>
    <linearGradient
       inkscape:collect="always"
       xlink:href="#_lgradient_104"
       id="linearGradient1594"
       x1="-22.862314"
       y1="92.723587"
       x2="46.37307"
       y2="-27.895966"
       gradientUnits="userSpaceOnUse" />
    <linearGradient
       inkscape:collect="always"
       xlink:href="#_lgradient_104"
       id="linearGradient1596"
       gradientUnits="userSpaceOnUse"
       gradientTransform="matrix(244.648,0,0,228.338,5.676,11.947)"
       x1="-0.39700001"
       y1="1.572"
       x2="0.73500001"
       y2="-0.54100001" />
    <linearGradient
       inkscape:collect="always"
       xlink:href="#linearGradient2446"
       id="linearGradient2448"
       x1="25.288603"
       y1="59.07917"
       x2="25.288603"
       y2="2.1075683"
       gradientUnits="userSpaceOnUse"
       gradientTransform="matrix(0.98245614,0,0,0.98245614,7.4818281,1.8727177)" />
  </defs>
  <path
     id="path20"
     style="display:inline;fill:url(#linearGradient1596);filter:url(#2SnFYTsEm5IstvZotAFRjmC9syskkvTI)"
     d="M 68,16 C 39.192029,16 16,39.192029 16,68 v 120 c 0,24.81827 17.226334,45.42811 40.414062,50.67188 6.49064,0.69217 13.87591,1.1511 22.101563,1.32812 h 98.968755 c 8.22565,-0.17702 15.61092,-0.63595 22.10156,-1.32812 C 222.77367,233.42811 240,212.81827 240,188 V 68 C 240,39.192029 216.80797,16 188,16 Z"
     transform="scale(0.25)" />
  <rect
     style="display:inline;opacity:1;fill:url(#linearGradient1594);fill-opacity:1;stroke-width:1.57"
     id="rect1586"
     width="56"
     height="56"
     x="4"
     y="4"
     rx="13"
     ry="13" />
  <path
     id="rect2417"
     style="color:#000000;display:inline;opacity:0.1;fill:url(#linearGradient2448);-inkscape-stroke:none"
     d="M 17,4 C 9.7980072,4 4,9.7980072 4,17 v 30 c 0,7.201993 5.7980072,13 13,13 h 30 c 7.201993,0 13,-5.798007 13,-13 V 17 C 60,9.7980072 54.201993,4 47,4 Z m 0.191406,0.9824219 h 29.617188 c 6.772083,0 12.208984,5.4369011 12.208984,12.2089841 v 29.617188 c 0,6.772083 -5.436901,12.208984 -12.208984,12.208984 H 17.191406 c -6.772083,0 -12.2089841,-5.436901 -12.2089841,-12.208984 V 17.191406 c 0,-6.772083 5.4369011,-12.2089841 12.2089841,-12.2089841 z" />
  <path
     id="path24"
     style="display:inline;opacity:1;isolation:isolate;fill:#ffffff;fill-opacity:1;stroke-width:0.25"
     d="M 41.505859 10.224609 C 41.505859 10.224609 36.674264 13.374348 36.322266 15.402344 C 36.322266 15.402344 22.55898 11.291096 13 20.580078 C 13 20.580078 19.478393 20.10133 20.775391 20.580078 C 20.775391 20.580078 7.4163394 28.221016 5.2460938 36.0625 L 5.2460938 36.101562 C 5.2808437 36.075813 9.2317059 33.176641 10.408203 33.525391 C 8.8642067 36.855633 7.0449343 41.816588 5.4609375 46.830078 C 5.4729251 46.987388 4.8374402 47.908589 4.1660156 48.988281 C 5.1198942 55.237222 10.47623 60 17 60 L 38.488281 60 C 39.136319 57.71232 39.290232 54.886239 37.53125 52.585938 C 34.576756 48.713444 27.283981 37.164883 33.730469 33.525391 C 33.730469 33.525391 38.499729 39.780955 43.574219 40.376953 C 43.574219 40.376953 45.648838 45.842105 50.236328 43.099609 C 51.873324 42.210861 52.544324 38.468027 50.892578 36.082031 L 49.591797 34.177734 C 49.591797 34.177734 46.17026 23.449603 43.103516 20.349609 C 43.103516 20.349609 43.034207 15.314199 44.095703 12.814453 C 44.095703 12.814453 42.096109 13.036127 41.505859 14.109375 C 41.505859 14.109375 40.914111 10.816609 41.505859 10.224609 z " />
</svg>
