<?xml version="1.0" encoding="UTF-8" standalone="no"?>
<svg
   width="64"
   height="64"
   version="1.1"
   id="svg44"
   sodipodi:docname="applications-multimedia.svg"
   inkscape:version="1.2.2 (b0a8486541, 2022-12-01)"
   xmlns:inkscape="http://www.inkscape.org/namespaces/inkscape"
   xmlns:sodipodi="http://sodipodi.sourceforge.net/DTD/sodipodi-0.dtd"
   xmlns="http://www.w3.org/2000/svg"
   xmlns:svg="http://www.w3.org/2000/svg"
   xmlns:rdf="http://www.w3.org/1999/02/22-rdf-syntax-ns#"
   xmlns:cc="http://creativecommons.org/ns#"
   xmlns:dc="http://purl.org/dc/elements/1.1/">
  <sodipodi:namedview
     id="namedview46"
     pagecolor="#ffffff"
     bordercolor="#000000"
     borderopacity="0.25"
     inkscape:showpageshadow="2"
     inkscape:pageopacity="0.0"
     inkscape:pagecheckerboard="0"
     inkscape:deskcolor="#d1d1d1"
     showgrid="false"
     inkscape:zoom="9.1787718"
     inkscape:cx="43.905656"
     inkscape:cy="41.399874"
     inkscape:window-width="1920"
     inkscape:window-height="1026"
     inkscape:window-x="0"
     inkscape:window-y="24"
     inkscape:window-maximized="1"
     inkscape:current-layer="svg44" />
  <metadata
     id="metadata2">
    <rdf:RDF>
      <cc:Work
         rdf:about="">
        <dc:format>image/svg+xml</dc:format>
        <dc:type
           rdf:resource="http://purl.org/dc/dcmitype/StillImage" />
      </cc:Work>
    </rdf:RDF>
  </metadata>
  <defs
     id="defs32">
    <linearGradient
       id="f"
       x1="2.819"
       x2="11.758"
       y1="1044.3"
       y2="1044.3"
       gradientUnits="userSpaceOnUse">
      <stop
         stop-color="#333538"
         offset="0"
         id="stop4" />
      <stop
         stop-color="#566069"
         offset="1"
         id="stop6" />
    </linearGradient>
    <linearGradient
       id="g"
       x1="429.88"
       x2="431"
       y1="539.34998"
       y2="521.96997"
       gradientTransform="matrix(1.7212908,0,0,1.7212908,-710.14938,-881.65867)"
       gradientUnits="userSpaceOnUse">
      <stop
         stop-color="#ffd4d4"
         offset="0"
         id="stop9" />
      <stop
         stop-color="#fdfbfb"
         offset="1"
         id="stop11" />
    </linearGradient>
    <linearGradient
       id="e"
       x1="400.39999"
       x2="400.39999"
       y1="545.62"
       y2="517.62"
       gradientTransform="matrix(2.0387735,0,0,2.0387735,-912.72006,-1023.6)"
       gradientUnits="userSpaceOnUse">
      <stop
         stop-color="#8d3aff"
         offset="0"
         id="stop14" />
      <stop
         stop-color="#ff3680"
         offset="1"
         id="stop16" />
    </linearGradient>
    <filter
       id="h"
       x="-0.041217929"
       y="-0.031955497"
       width="1.0824359"
       height="1.063911"
       color-interpolation-filters="sRGB">
      <feGaussianBlur
         stdDeviation="0.20803111"
         id="feGaussianBlur19" />
    </filter>
    <linearGradient
       id="linearGradient898"
       x1="400.39999"
       x2="400.39999"
       y1="545.62"
       y2="517.62"
       gradientTransform="matrix(1.9740001,0,0,1.9740001,-819.8534,-1016.7493)"
       gradientUnits="userSpaceOnUse">
      <stop
         stop-color="#d3d3d3"
         offset="0"
         id="stop22" />
      <stop
         stop-color="#fcf9f9"
         offset="1"
         id="stop24" />
    </linearGradient>
    <linearGradient
       id="linearGradient863"
       x1="399.57001"
       x2="399.57001"
       y1="545.79999"
       y2="517.79999"
       gradientTransform="matrix(1.8666668,0,0,1.8666668,-715.73072,-960.69333)"
       gradientUnits="userSpaceOnUse">
      <stop
         stop-color="#ff3069"
         offset="0"
         id="stop27" />
      <stop
         stop-color="#ffa548"
         offset="1"
         id="stop29" />
    </linearGradient>
  </defs>
  <rect
     x="4"
     y="4"
     width="56"
     height="56"
     rx="13"
     ry="13"
     fill="url(#linearGradient863)"
     id="rect34"
     style="fill:url(#linearGradient863);stroke-width:1.86667" />
  <circle
     cx="-29.133337"
     cy="32.989391"
     r="0"
     fill="url(#linearGradient898)"
     id="circle36"
     style="fill:url(#linearGradient898);stroke-width:1.86667" />
  <circle
     cx="-96.071999"
     cy="60.560047"
     r="0"
     fill="none"
     stroke="url(#e)"
     stroke-width="2.6503"
     id="circle38"
     style="stroke:url(#e)" />
  <path
     d="m 13.943,10.156 c -0.51643,0.14493 -0.93213,0.72123 -0.93213,1.2811 v 8.8757 c -0.52367,-0.2871 -1.1962,-0.4032 -1.8934,-0.21346 -1.2582,0.34228 -2.0466,1.4485 -1.7769,2.4706 0.26971,1.022 1.5091,1.5928 2.7673,1.2505 1.0037,-0.27306 1.6957,-1.0457 1.806,-1.8605 l 0.0294,-8.3877 6.525,-1.8301 v 6.6187 c -0.52366,-0.28712 -1.1962,-0.40321 -1.8934,-0.21354 -1.2581,0.34229 -2.0466,1.4486 -1.7769,2.4706 0.26972,1.022 1.5091,1.5928 2.7673,1.2505 1.0038,-0.27306 1.6957,-1.0457 1.806,-1.8605 l 0.0295,-10.919 c 0,-0.41982 -0.24781,-0.73392 -0.58258,-0.793 l -6.8745,1.8605 z"
     filter="url(#h)"
     opacity="0.15"
     id="path40"
     transform="matrix(1.8666668,0,0,1.8666668,2.1333333,2.1333892)" />
  <path
     d="m 28.160268,21.091256 c -0.964004,0.270536 -1.739976,1.346296 -1.739976,2.391388 v 16.567972 c -0.97752,-0.53592 -2.232908,-0.75264 -3.534348,-0.39846 -2.34864,0.638924 -3.82032,2.703868 -3.31688,4.611788 0.50346,1.907732 2.816988,2.973228 5.165628,2.334268 1.873572,-0.509712 3.165304,-1.951976 3.3712,-3.472936 l 0.05488,-15.65704 12.18,-3.416184 V 36.406956 C 39.363272,35.871 38.107864,35.6543 36.806424,36.008348 c -2.348452,0.638944 -3.82032,2.704056 -3.31688,4.611788 0.503476,1.907732 2.816988,2.973228 5.165628,2.334268 1.87376,-0.509712 3.165304,-1.951976 3.3712,-3.472936 l 0.05508,-20.382132 c 0,-0.783664 -0.462578,-1.369984 -1.087482,-1.480268 l -12.8324,3.472936 z"
     fill="url(#g)"
     opacity="0.9"
     id="path42"
     style="fill:url(#g);stroke-width:1.86667" />
</svg>
