<?xml version="1.0" encoding="UTF-8" standalone="no"?>
<svg
   clip-rule="evenodd"
   fill-rule="evenodd"
   stroke-linejoin="round"
   stroke-miterlimit="2"
   viewBox="0 0 64 64"
   version="1.1"
   id="svg18"
   sodipodi:docname="applications-php.svg"
   width="64"
   height="64"
   inkscape:version="1.2.2 (b0a8486541, 2022-12-01)"
   xmlns:inkscape="http://www.inkscape.org/namespaces/inkscape"
   xmlns:sodipodi="http://sodipodi.sourceforge.net/DTD/sodipodi-0.dtd"
   xmlns="http://www.w3.org/2000/svg"
   xmlns:svg="http://www.w3.org/2000/svg">
  <defs
     id="defs22" />
  <sodipodi:namedview
     id="namedview20"
     pagecolor="#ffffff"
     bordercolor="#000000"
     borderopacity="0.25"
     inkscape:showpageshadow="2"
     inkscape:pageopacity="0.0"
     inkscape:pagecheckerboard="0"
     inkscape:deskcolor="#d1d1d1"
     showgrid="false"
     inkscape:zoom="11.800099"
     inkscape:cx="17.626971"
     inkscape:cy="31.440414"
     inkscape:window-width="1920"
     inkscape:window-height="1026"
     inkscape:window-x="0"
     inkscape:window-y="24"
     inkscape:window-maximized="1"
     inkscape:current-layer="svg18" />
  <linearGradient
     id="a"
     x2="1"
     gradientTransform="matrix(0.57717373,-45.464465,45.464465,0.57717373,300.33119,57.484162)"
     gradientUnits="userSpaceOnUse">
    <stop
       stop-color="#016882"
       offset="0"
       id="stop2" />
    <stop
       stop-color="#2a9fc7"
       offset="1"
       id="stop4" />
  </linearGradient>
  <linearGradient
     id="b"
     x2="1"
     gradientTransform="matrix(-0.46952595,-32.772199,32.772199,-0.46952595,1656.8994,25.91632)"
     gradientUnits="userSpaceOnUse">
    <stop
       stop-color="#687914"
       stop-opacity=".28"
       offset="0"
       id="stop7" />
    <stop
       stop-color="#cbba2d"
       stop-opacity=".28"
       offset="1"
       id="stop9" />
  </linearGradient>
  <path
     id="path12"
     style="fill:url(#a);stroke-width:1.29223"
     d="M 17 4 C 9.7980072 4 4 9.7980072 4 17 L 4 47 C 4 54.201993 9.7980072 60 17 60 L 47 60 C 54.201993 60 60 54.201993 60 47 L 60 17 C 60 9.7980072 54.201993 4 47 4 L 17 4 z " />
  <path
     id="path14"
     style="fill:url(#b);stroke-width:1.29223"
     d="M 17 4 C 9.7980072 4 4 9.7980072 4 17 L 4 47 C 4 54.201993 9.7980072 60 17 60 L 32 60 L 32 4 L 17 4 z " />
  <path
     d="m 38.917297,27.733063 h 4.33801 c 1.272845,0.01034 2.195496,0.37733 2.766661,1.100978 0.572457,0.722356 0.761122,1.709618 0.567288,2.961787 -0.07624,0.571165 -0.242939,1.131992 -0.501384,1.682481 -0.250693,0.550489 -0.594425,1.046705 -1.036367,1.488647 -0.540152,0.562119 -1.116486,0.917482 -1.731586,1.068673 -0.615101,0.15119 -1.252169,0.22614 -1.909913,0.22614 h -1.942219 l -0.615101,3.075503 h -2.249769 z m 1.894407,1.845301 -0.971756,4.854902 c 0.06461,0.01034 0.129223,0.0168 0.193835,0.0168 h 0.227432 c 1.035074,0.01034 1.898283,-0.09175 2.589625,-0.307551 0.69005,-0.227432 1.15396,-1.014399 1.39173,-2.363485 0.193834,-1.133284 0,-1.785859 -0.582795,-1.957726 -0.572457,-0.173158 -1.289644,-0.254569 -2.152852,-0.242939 -0.129223,0.01034 -0.253277,0.01551 -0.372162,0.01551 H 40.794905 Z M 29.964741,24.642053 h 2.23297 l -0.630607,3.09101 h 2.00683 c 1.099686,0.02197 1.920251,0.248107 2.45911,0.679712 0.550489,0.431604 0.712018,1.252169 0.485878,2.460402 l -1.08418,5.388592 h -2.265276 l 1.035075,-5.145653 c 0.108547,-0.540151 0.07495,-0.922651 -0.09692,-1.150083 -0.173158,-0.22614 -0.54532,-0.339856 -1.116485,-0.339856 l -1.797489,-0.01551 -1.327119,6.651099 h -2.23297 z m -10.234447,3.09101 h 4.336717 c 1.274137,0.01034 2.195496,0.37733 2.767953,1.100978 0.572457,0.722356 0.761122,1.709618 0.565996,2.961787 -0.07495,0.571165 -0.241647,1.131992 -0.501385,1.682481 -0.248107,0.550489 -0.593132,1.046705 -1.035074,1.488647 -0.540152,0.562119 -1.117778,0.917482 -1.732878,1.068673 -0.613809,0.15119 -1.250877,0.22614 -1.908621,0.22614 h -1.942219 l -0.615101,3.075503 h -2.249769 z m 1.893114,1.845301 -0.970464,4.854902 c 0.06461,0.01034 0.129223,0.0168 0.193835,0.0168 h 0.22614 c 1.036367,0.01034 1.899575,-0.09175 2.589625,-0.307551 0.691342,-0.227432 1.155252,-1.014399 1.39173,-2.363485 0.195126,-1.133284 0,-1.785859 -0.581503,-1.957726 -0.572457,-0.173158 -1.289644,-0.254569 -2.152852,-0.242939 -0.129223,0.01034 -0.253277,0.01551 -0.372162,0.01551 h -0.339856 z"
     fill="#ffffff"
     fill-rule="nonzero"
     id="path16"
     style="stroke-width:1.29223" />
</svg>
