<?xml version="1.0" encoding="UTF-8" standalone="no"?>
<svg
   clip-rule="evenodd"
   fill-rule="evenodd"
   stroke-linejoin="round"
   stroke-miterlimit="2"
   viewBox="0 0 64 64"
   version="1.1"
   id="svg133"
   sodipodi:docname="au.edu.uq.esys.escript.svg"
   width="64"
   height="64"
   inkscape:version="1.2.2 (b0a8486541, 2022-12-01)"
   xmlns:inkscape="http://www.inkscape.org/namespaces/inkscape"
   xmlns:sodipodi="http://sodipodi.sourceforge.net/DTD/sodipodi-0.dtd"
   xmlns="http://www.w3.org/2000/svg"
   xmlns:svg="http://www.w3.org/2000/svg">
  <defs
     id="defs137" />
  <sodipodi:namedview
     id="namedview135"
     pagecolor="#ffffff"
     bordercolor="#000000"
     borderopacity="0.25"
     inkscape:showpageshadow="2"
     inkscape:pageopacity="0.0"
     inkscape:pagecheckerboard="0"
     inkscape:deskcolor="#d1d1d1"
     showgrid="false"
     inkscape:zoom="12.737886"
     inkscape:cx="23.473284"
     inkscape:cy="32.10894"
     inkscape:window-width="1920"
     inkscape:window-height="1026"
     inkscape:window-x="0"
     inkscape:window-y="24"
     inkscape:window-maximized="1"
     inkscape:current-layer="svg133" />
  <linearGradient
     id="a"
     x2="1"
     gradientTransform="matrix(0,-43.53155,43.53155,0,1194.075,53.257413)"
     gradientUnits="userSpaceOnUse">
    <stop
       stop-color="#6999d1"
       offset="0"
       id="stop2" />
    <stop
       stop-color="#98c0f0"
       offset="1"
       id="stop4" />
  </linearGradient>
  <path
     id="path7"
     style="fill:url(#a);stroke-width:1.29223"
     d="M 17 4 C 9.7980072 4 4 9.7980072 4 17 L 4 47 C 4 54.201993 9.7980072 60 17 60 L 47 60 C 54.201993 60 60 54.201993 60 47 L 60 17 C 60 9.7980072 54.201993 4 47 4 L 17 4 z " />
  <g
     transform="matrix(0.19001052,0,0,0.19001052,8.136151,50.871313)"
     fill-rule="nonzero"
     id="g131">
    <path
       d="m 51.475,-125.334 44.712,13.917 -33.049,28.574 z"
       fill="#006fef"
       id="path9" />
    <path
       d="m 96.187,-111.417 35.382,24.121 -25.177,4.665 z"
       fill="#005bc3"
       id="path11" />
    <path
       d="m 131.569,-87.296 25.468,15.957 -28.092,13.704 z"
       fill="#005bc3"
       id="path13" />
    <path
       d="m 157.037,-71.339 33.924,6.919 -36.548,28.865 z"
       fill="#0050ac"
       id="path15" />
    <path
       d="m 190.961,-64.42 29.842,4.877 -22.844,30.032 z"
       fill="#006fef"
       id="path17" />
    <path
       d="m 163.16,-111.788 18.179,27.911 -24.302,12.538 z"
       fill="#006fef"
       id="path19" />
    <path
       d="m 146.249,-115.5 49.377,-16.115 -32.466,19.827 z"
       fill="#003776"
       id="path21" />
    <path
       d="m 81.317,-149.826 29.842,10.709 -14.972,27.7 z"
       fill="#006fef"
       id="path23" />
    <path
       d="m 111.451,-169.07 27.509,22.372 -27.801,7.581 z"
       fill="#006fef"
       id="path25" />
    <path
       d="m 138.96,-146.698 33.924,-5.91 -26.635,37.108 z"
       fill="#0050ac"
       id="path27" />
    <path
       d="m 63.138,-82.843 30.425,36.367 -44.42,-18.369 z"
       fill="#003d82"
       id="path29" />
    <path
       d="m 93.563,-46.476 33.633,20.623 -45.296,7.58 z"
       fill="#003776"
       id="path31" />
    <path
       d="M 49.143,-64.845 81.9,-18.273 41.562,-26.437 Z"
       fill="#006fef"
       id="path33" />
    <path
       d="m 39.711,-145.665 11.764,20.331 -21.094,28.283 z"
       fill="#00234b"
       id="path35" />
    <path
       d="m 47.976,-166.658 33.341,16.832 -29.842,24.492 z"
       fill="#006fef"
       id="path37" />
    <path
       d="m 82.483,-185.902 28.968,16.832 -30.134,19.244 z"
       fill="#006fef"
       id="path39" />
    <path
       d="m 102.995,-186.485 53.751,36.659 -45.295,-19.244 z"
       fill="#153153"
       id="path41" />
    <path
       d="m 190.67,-174.53 -33.924,24.704 16.138,-2.782 z"
       fill="#00234b"
       id="path43" />
    <path
       d="m 154.413,-35.555 -27.217,9.702 33.34,13.703 z"
       fill="#003d82"
       id="path45" />
    <path
       d="m 154.413,-35.555 43.546,6.044 -37.423,17.361 z"
       fill="#003776"
       id="path47" />
    <path
       d="m 128.945,-57.635 25.468,22.08 -27.217,9.702 z"
       fill="#006fef"
       id="path49" />
    <path
       d="m 106.392,-82.631 22.553,24.996 -35.382,11.159 z"
       fill="#0050ac"
       id="path51" />
    <path
       d="m 96.187,-111.417 10.205,28.786 -43.254,-0.212 z"
       fill="#0050ac"
       id="path53" />
    <path
       d="m 81.317,-149.826 14.87,38.409 -44.712,-13.917 z"
       fill="#258bff"
       id="path55" />
    <path
       d="M 51.475,-125.334 63.138,-82.843 30.381,-97.051 Z"
       fill="#003d82"
       id="path57" />
    <path
       d="m 49.143,-64.845 44.42,18.369 -31.109,0.583 z"
       fill="#003776"
       id="path59" />
    <path
       d="m 111.159,-139.117 27.801,-7.581 -11.283,28.574 z"
       fill="#258bff"
       id="path61" />
    <path
       d="m 127.677,-118.124 18.572,2.624 -14.68,28.204 z"
       fill="#003776"
       id="path63" />
    <path
       d="m 96.187,-111.417 31.49,-6.707 3.892,30.828 z"
       fill="#258bff"
       id="path65" />
    <path
       d="m 131.569,-87.296 31.591,-24.492 -6.123,40.449 z"
       fill="#0050ac"
       id="path67" />
    <path
       d="m 163.16,-111.788 32.466,-19.827 7.581,29.369 z"
       fill="#006fef"
       id="path69" />
    <path
       d="m 172.884,-152.608 29.449,12.325 -6.707,8.668 z"
       fill="#00234b"
       id="path71" />
    <path
       d="m 82.483,-185.902 -1.166,36.076 -20.22,-34.618 z"
       fill="#003d82"
       id="path73" />
    <path
       d="m 181.339,-83.877 21.868,-18.369 8.747,9.835 z"
       fill="#153153"
       id="path75" />
    <g
       fill="#003776"
       id="g83">
      <path
         d="m 190.961,-64.42 16.911,-22.372 12.931,27.249 z"
         id="path77" />
      <path
         d="m 157.037,-71.339 24.302,-12.538 9.622,19.457 z"
         id="path79" />
      <path
         d="m 172.884,-152.608 17.786,-21.922 11.663,34.247 z"
         id="path81" />
    </g>
    <path
       d="m 195.626,-131.615 6.707,-8.668 9.621,47.872 z"
       fill="#153153"
       id="path85" />
    <path
       d="m 195.626,-131.615 7.581,29.369 8.747,9.835 z"
       fill="#00234b"
       id="path87" />
    <path
       d="m 181.339,-83.877 30.615,-8.534 -20.993,27.991 z"
       fill="#003d82"
       id="path89" />
    <path
       d="m 154.413,-35.555 36.548,-28.865 6.998,34.909 z"
       fill="#005bc3"
       id="path91" />
    <path
       d="M 62.454,-45.893 93.563,-46.476 81.9,-18.273 Z"
       fill="#003d82"
       id="path93" />
    <path
       d="m 30.381,-97.051 32.757,14.208 -13.995,17.998 z"
       fill="#003776"
       id="path95" />
    <path
       d="m 63.138,-82.843 43.254,0.212 -12.829,36.155 z"
       fill="#005bc3"
       id="path97" />
    <path
       d="m 106.392,-82.631 25.177,-4.665 -2.624,29.661 z"
       fill="#0050ac"
       id="path99" />
    <path
       d="m 146.249,-115.5 16.911,3.712 -31.591,24.492 z"
       fill="#003d82"
       id="path101" />
    <path
       d="m 138.96,-146.698 7.289,31.198 -18.572,-2.624 z"
       fill="#003d82"
       id="path103" />
    <path
       d="m 157.621,-162.443 33.049,-12.087 -33.924,24.704 z"
       fill="#153153"
       id="path105" />
    <path
       d="m 138.567,-161.276 19.054,-1.167 -0.875,12.617 z"
       fill="#00234b"
       id="path107" />
    <path
       d="m 111.451,-169.07 45.295,19.244 -17.786,3.128 z"
       fill="#003776"
       id="path109" />
    <path
       d="m 81.317,-149.826 30.134,-19.244 -0.292,29.953 z"
       fill="#258bff"
       id="path111" />
    <path
       d="m 96.187,-111.417 14.972,-27.7 16.518,20.993 z"
       fill="#006fef"
       id="path113" />
    <path
       d="m 47.976,-166.658 13.121,-17.786 20.22,34.618 z"
       fill="#003776"
       id="path115" />
    <path
       d="m 39.711,-145.665 8.265,-20.993 3.499,41.324 z"
       fill="#153153"
       id="path117" />
    <path
       d="m 82.483,-185.902 20.512,-0.583 8.456,17.415 z"
       fill="#00234b"
       id="path119" />
    <path
       d="m 146.249,-115.5 26.635,-37.108 22.742,20.993 z"
       fill="#005bc3"
       id="path121" />
    <g
       fill="#258bff"
       id="g129">
      <path
         d="m 181.339,-83.877 -18.179,-27.911 40.047,9.542 z"
         id="path123" />
      <path
         d="m 154.413,-35.555 -25.468,-22.08 28.092,-13.704 z"
         id="path125" />
      <path
         d="M 127.196,-25.853 93.563,-46.476 128.945,-57.635 Z"
         id="path127" />
    </g>
  </g>
</svg>
