<?xml version="1.0" encoding="UTF-8" standalone="no"?>
<svg
   xmlns:dc="http://purl.org/dc/elements/1.1/"
   xmlns:cc="http://creativecommons.org/ns#"
   xmlns:rdf="http://www.w3.org/1999/02/22-rdf-syntax-ns#"
   xmlns:svg="http://www.w3.org/2000/svg"
   xmlns="http://www.w3.org/2000/svg"
   xmlns:xlink="http://www.w3.org/1999/xlink"
   xmlns:sodipodi="http://sodipodi.sourceforge.net/DTD/sodipodi-0.dtd"
   xmlns:inkscape="http://www.inkscape.org/namespaces/inkscape"
   width="128"
   height="128"
   viewBox="0 0 33.866666 33.866668"
   version="1.1"
   id="svg1443"
   inkscape:version="1.0.2 (e86c870879, 2021-01-15)"
   sodipodi:docname="cove.svg">
  <defs
     id="defs1437">
    <linearGradient
       inkscape:collect="always"
       id="linearGradient2000">
      <stop
         style="stop-color:#ffffff;stop-opacity:0.9891004"
         offset="0"
         id="stop1996" />
      <stop
         style="stop-color:#2c9af9;stop-opacity:1"
         offset="1"
         id="stop1998" />
    </linearGradient>
    <linearGradient
       inkscape:collect="always"
       id="linearGradient1997">
      <stop
         style="stop-color:#34d7ee;stop-opacity:1"
         offset="0"
         id="stop1993" />
      <stop
         style="stop-color:#2b93fa;stop-opacity:1"
         offset="1"
         id="stop1995" />
    </linearGradient>
    <filter
       color-interpolation-filters="sRGB"
       height="1.1311001"
       width="1.1106"
       y="-0.065563001"
       x="-0.055319"
       id="c-9">
      <feGaussianBlur
         id="feGaussianBlur1093"
         stdDeviation="1.1062912" />
    </filter>
    <linearGradient
       gradientUnits="userSpaceOnUse"
       gradientTransform="matrix(0.13235,0,0,0.13075,-32.379,1.0873)"
       y2="269.48999"
       y1="235.14999"
       x2="657.65002"
       x1="319.20999"
       id="a-12">
      <stop
         id="stop1076"
         offset="0"
         stop-color="#e54c18" />
      <stop
         id="stop1078"
         offset="1"
         stop-color="#fec350" />
    </linearGradient>
    <radialGradient
       inkscape:collect="always"
       xlink:href="#linearGradient1997"
       id="radialGradient1999"
       cx="17.076008"
       cy="4.6282434"
       fx="17.076008"
       fy="4.6282434"
       r="14.543719"
       gradientUnits="userSpaceOnUse"
       gradientTransform="matrix(4.7283357,0,0,1.6998039,-63.506476,-2.7937172)" />
    <linearGradient
       inkscape:collect="always"
       xlink:href="#linearGradient2000"
       id="linearGradient2002"
       x1="9.4399672"
       y1="11.542709"
       x2="9.4399672"
       y2="58.58252"
       gradientUnits="userSpaceOnUse" />
    <style
       id="style2">.cls-1,.cls-3{fill:#0b2d47;}.cls-1,.cls-2{fill-rule:evenodd;}</style>
  </defs>
  <sodipodi:namedview
     id="base"
     pagecolor="#ffffff"
     bordercolor="#666666"
     borderopacity="1.0"
     inkscape:pageopacity="0.0"
     inkscape:pageshadow="2"
     inkscape:zoom="1.979899"
     inkscape:cx="-20.960666"
     inkscape:cy="92.428958"
     inkscape:document-units="px"
     inkscape:current-layer="layer1"
     inkscape:document-rotation="0"
     showgrid="false"
     units="px"
     inkscape:window-width="1920"
     inkscape:window-height="1033"
     inkscape:window-x="0"
     inkscape:window-y="24"
     inkscape:window-maximized="1"
     inkscape:pagecheckerboard="0" />
  <metadata
     id="metadata1440">
    <rdf:RDF>
      <cc:Work
         rdf:about="">
        <dc:format>image/svg+xml</dc:format>
        <dc:type
           rdf:resource="http://purl.org/dc/dcmitype/StillImage" />
      </cc:Work>
    </rdf:RDF>
  </metadata>
  <g
     inkscape:label="Capa 1"
     inkscape:groupmode="layer"
     id="layer1">
    <g
       style="opacity:0.187536"
       transform="matrix(0.97573206,0,0,0.96360993,-65.737228,-36.327649)"
       id="g1702">
      <rect
         ry="6.6098609"
         rx="6.6098609"
         y="40.709618"
         x="69.839508"
         height="29.810888"
         width="29.810888"
         id="rect1634"
         style="fill:none;fill-opacity:1;stroke:#000000;stroke-width:0.1;stroke-linecap:round;stroke-linejoin:round;stroke-miterlimit:4;stroke-dasharray:none;stroke-opacity:0.02" />
      <rect
         style="fill:none;fill-opacity:1;stroke:#000000;stroke-width:0.2;stroke-linecap:round;stroke-linejoin:round;stroke-miterlimit:4;stroke-dasharray:none;stroke-opacity:0.02"
         id="rect1638"
         width="29.810888"
         height="29.810888"
         x="69.839508"
         y="40.709618"
         rx="6.6098609"
         ry="6.6098609" />
      <rect
         ry="6.6098609"
         rx="6.6098609"
         y="40.709618"
         x="69.839508"
         height="29.810888"
         width="29.810888"
         id="rect1640"
         style="fill:none;fill-opacity:1;stroke:#000000;stroke-width:0.3;stroke-linecap:round;stroke-linejoin:round;stroke-miterlimit:4;stroke-dasharray:none;stroke-opacity:0.02" />
      <rect
         style="fill:none;fill-opacity:1;stroke:#000000;stroke-width:0.4;stroke-linecap:round;stroke-linejoin:round;stroke-miterlimit:4;stroke-dasharray:none;stroke-opacity:0.02"
         id="rect1642"
         width="29.810888"
         height="29.810888"
         x="69.839508"
         y="40.709618"
         rx="6.6098609"
         ry="6.6098609" />
      <rect
         ry="6.6098609"
         rx="6.6098609"
         y="40.709618"
         x="69.839508"
         height="29.810888"
         width="29.810888"
         id="rect1644"
         style="fill:none;fill-opacity:1;stroke:#000000;stroke-width:0.5;stroke-linecap:round;stroke-linejoin:round;stroke-miterlimit:4;stroke-dasharray:none;stroke-opacity:0.02" />
      <rect
         style="fill:none;fill-opacity:1;stroke:#000000;stroke-width:0.6;stroke-linecap:round;stroke-linejoin:round;stroke-miterlimit:4;stroke-dasharray:none;stroke-opacity:0.02"
         id="rect1646"
         width="29.810888"
         height="29.810888"
         x="69.839508"
         y="40.709618"
         rx="6.6098609"
         ry="6.6098609" />
      <rect
         ry="6.6098609"
         rx="6.6098609"
         y="40.709618"
         x="69.839508"
         height="29.810888"
         width="29.810888"
         id="rect1648"
         style="fill:none;fill-opacity:1;stroke:#000000;stroke-width:0.7;stroke-linecap:round;stroke-linejoin:round;stroke-miterlimit:4;stroke-dasharray:none;stroke-opacity:0.02" />
      <rect
         style="fill:none;fill-opacity:1;stroke:#000000;stroke-width:0.8;stroke-linecap:round;stroke-linejoin:round;stroke-miterlimit:4;stroke-dasharray:none;stroke-opacity:0.02"
         id="rect1650"
         width="29.810888"
         height="29.810888"
         x="69.839508"
         y="40.709618"
         rx="6.6098609"
         ry="6.6098609" />
      <rect
         ry="6.6098609"
         rx="6.6098609"
         y="40.709618"
         x="69.839508"
         height="29.810888"
         width="29.810888"
         id="rect1652"
         style="fill:none;fill-opacity:1;stroke:#000000;stroke-width:1;stroke-linecap:round;stroke-linejoin:round;stroke-miterlimit:4;stroke-dasharray:none;stroke-opacity:0.02" />
      <rect
         style="fill:none;fill-opacity:1;stroke:#000000;stroke-width:1.2;stroke-linecap:round;stroke-linejoin:round;stroke-miterlimit:4;stroke-dasharray:none;stroke-opacity:0.02"
         id="rect1654"
         width="29.810888"
         height="29.810888"
         x="69.839508"
         y="40.709618"
         rx="6.6098609"
         ry="6.6098609" />
      <rect
         ry="6.6098609"
         rx="6.6098609"
         y="40.709618"
         x="69.839508"
         height="29.810888"
         width="29.810888"
         id="rect1656"
         style="fill:none;fill-opacity:1;stroke:#000000;stroke-width:1.4;stroke-linecap:round;stroke-linejoin:round;stroke-miterlimit:4;stroke-dasharray:none;stroke-opacity:0.02" />
      <rect
         style="fill:none;fill-opacity:1;stroke:#000000;stroke-width:1.6;stroke-linecap:round;stroke-linejoin:round;stroke-miterlimit:4;stroke-dasharray:none;stroke-opacity:0.02"
         id="rect1658"
         width="29.810888"
         height="29.810888"
         x="69.839508"
         y="40.709618"
         rx="6.6098609"
         ry="6.6098609" />
      <rect
         ry="6.6098609"
         rx="6.6098609"
         y="40.709618"
         x="69.839508"
         height="29.810888"
         width="29.810888"
         id="rect1660"
         style="fill:none;fill-opacity:1;stroke:#000000;stroke-width:1.8;stroke-linecap:round;stroke-linejoin:round;stroke-miterlimit:4;stroke-dasharray:none;stroke-opacity:0.02" />
      <rect
         style="fill:none;fill-opacity:1;stroke:#000000;stroke-width:2;stroke-linecap:round;stroke-linejoin:round;stroke-miterlimit:4;stroke-dasharray:none;stroke-opacity:0.02"
         id="rect1662"
         width="29.810888"
         height="29.810888"
         x="69.839508"
         y="40.709618"
         rx="6.6098609"
         ry="6.6098609" />
      <rect
         ry="6.6098609"
         rx="6.6098609"
         y="40.709618"
         x="69.839508"
         height="29.810888"
         width="29.810888"
         id="rect1664"
         style="fill:none;fill-opacity:1;stroke:#000000;stroke-width:2.2;stroke-linecap:round;stroke-linejoin:round;stroke-miterlimit:4;stroke-dasharray:none;stroke-opacity:0.02" />
      <rect
         style="fill:none;fill-opacity:1;stroke:#000000;stroke-width:2.6;stroke-linecap:round;stroke-linejoin:round;stroke-miterlimit:4;stroke-dasharray:none;stroke-opacity:0.02"
         id="rect1666"
         width="29.810888"
         height="29.810888"
         x="69.839508"
         y="40.709618"
         rx="6.6098609"
         ry="6.6098609" />
      <rect
         ry="6.6098609"
         rx="6.6098609"
         y="40.709618"
         x="69.839508"
         height="29.810888"
         width="29.810888"
         id="rect1668"
         style="fill:none;fill-opacity:1;stroke:#000000;stroke-width:3;stroke-linecap:round;stroke-linejoin:round;stroke-miterlimit:4;stroke-dasharray:none;stroke-opacity:0.02" />
      <rect
         style="fill:none;fill-opacity:1;stroke:#000000;stroke-width:3.4;stroke-linecap:round;stroke-linejoin:round;stroke-miterlimit:4;stroke-dasharray:none;stroke-opacity:0.02"
         id="rect1670"
         width="29.810888"
         height="29.810888"
         x="69.839508"
         y="40.709618"
         rx="6.6098609"
         ry="6.6098609" />
      <rect
         ry="6.6098609"
         rx="6.6098609"
         y="40.709618"
         x="69.839508"
         height="29.810888"
         width="29.810888"
         id="rect1672"
         style="fill:none;fill-opacity:1;stroke:#000000;stroke-width:3.8;stroke-linecap:round;stroke-linejoin:round;stroke-miterlimit:4;stroke-dasharray:none;stroke-opacity:0.02" />
      <rect
         style="fill:none;fill-opacity:1;stroke:#000000;stroke-width:4.2;stroke-linecap:round;stroke-linejoin:round;stroke-miterlimit:4;stroke-dasharray:none;stroke-opacity:0.02"
         id="rect1674"
         width="29.810888"
         height="29.810888"
         x="69.839508"
         y="40.709618"
         rx="6.6098609"
         ry="6.6098609" />
      <rect
         ry="6.6098609"
         rx="6.6098609"
         y="40.709618"
         x="69.839508"
         height="29.810888"
         width="29.810888"
         id="rect1676"
         style="fill:none;fill-opacity:1;stroke:#000000;stroke-width:4.6;stroke-linecap:round;stroke-linejoin:round;stroke-miterlimit:4;stroke-dasharray:none;stroke-opacity:0.02" />
      <rect
         style="fill:none;fill-opacity:1;stroke:#000000;stroke-width:5;stroke-linecap:round;stroke-linejoin:round;stroke-miterlimit:4;stroke-dasharray:none;stroke-opacity:0.02"
         id="rect1678"
         width="29.810888"
         height="29.810888"
         x="69.839508"
         y="40.709618"
         rx="6.6098609"
         ry="6.6098609" />
    </g>
    <rect
       ry="6.4494534"
       rx="6.4494534"
       y="2.5391712"
       x="2.4074187"
       height="29.087439"
       width="29.087439"
       id="rect849"
       style="fill:url(#radialGradient1999);fill-opacity:1;stroke-width:2.68768;stroke-linecap:round;stroke-linejoin:round" />
    <g
       id="g1277"
       style="display:none;opacity:0.522744">
      <path
         id="path1142"
         style="fill:#06028a;fill-opacity:0.0976533;stroke-width:0.327631"
         d="m 17.31659,8.9985547 c -4.709697,0 -7.5355161,0.9828921 -7.5355161,0.9828921 V 20.006831 c 1.9657871,4.717887 7.5355161,7.339063 7.5355161,7.339063 0,0 5.569727,-2.621048 7.535513,-7.207883 V 9.9814468 c 0,0 -2.825816,-0.9828921 -7.535513,-0.9828921 z m -6.552622,1.6381563 h 2.621048 l 3.931574,3.866301 3.931573,-3.866301 h 2.621048 v 9.5013 c 0,0.655261 -2.621048,3.276312 -2.621048,3.276312 v -8.846041 l -2.62105,2.62105 v 3.60394 h -2.621048 v -3.60394 l -2.621049,-2.62105 v 8.846041 c 0,0 -2.621048,-2.621051 -2.621048,-3.276312 z" />
      <path
         id="path1270"
         style="fill:#06028a;fill-opacity:0.0976533;stroke-width:0.327631"
         d="m 17.737123,9.4294726 c -4.709697,0 -7.535516,0.9828924 -7.535516,0.9828924 v 10.025384 c 1.965787,4.717887 7.535516,7.339063 7.535516,7.339063 0,0 5.569727,-2.621048 7.535513,-7.207883 V 10.412365 c 0,0 -2.825816,-0.9828924 -7.535513,-0.9828924 z m -6.552622,1.6381564 h 2.621048 l 3.931574,3.866301 3.931573,-3.866301 h 2.621048 v 9.5013 c 0,0.655261 -2.621048,3.276312 -2.621048,3.276312 V 14.9992 l -2.62105,2.62105 v 3.60394 H 16.426598 V 17.62025 L 13.805549,14.9992 v 8.846041 c 0,0 -2.621048,-2.621051 -2.621048,-3.276312 z" />
      <path
         id="path1272"
         style="fill:#06028a;fill-opacity:0.0976533;stroke-width:0.327631"
         d="m 18.202529,9.8593263 c -4.709697,0 -7.535516,0.9828927 -7.535516,0.9828927 v 10.025384 c 1.965787,4.717887 7.535516,7.339063 7.535516,7.339063 0,0 5.569727,-2.621048 7.535513,-7.207883 V 10.842219 c 0,0 -2.825816,-0.9828927 -7.535513,-0.9828927 z m -6.552622,1.6381567 h 2.621048 l 3.931574,3.866301 3.931573,-3.866301 h 2.621048 v 9.5013 c 0,0.655261 -2.621048,3.276312 -2.621048,3.276312 v -8.846041 l -2.62105,2.62105 v 3.60394 h -2.621048 v -3.60394 l -2.621049,-2.62105 v 8.846041 c 0,0 -2.621048,-2.621051 -2.621048,-3.276312 z" />
    </g>
    <path
       id="path4"
       style="display:none;fill:url(#linearGradient2002);fill-opacity:1;stroke-width:0.327631"
       d="m 16.975483,8.8897771 c -4.709697,0 -7.5355157,0.9828923 -7.5355157,0.9828923 V 19.898053 c 1.9657867,4.717887 7.5355157,7.339063 7.5355157,7.339063 0,0 5.569727,-2.621048 7.535513,-7.207883 V 9.8726694 c 0,0 -2.825816,-0.9828923 -7.535513,-0.9828923 z m -6.552622,1.6381559 h 2.621048 l 3.931574,3.866301 3.931573,-3.866301 h 2.621048 v 9.5013 c 0,0.655261 -2.621048,3.276312 -2.621048,3.276312 v -8.846041 l -2.62105,2.62105 v 3.60394 h -2.621048 v -3.60394 l -2.621049,-2.62105 v 8.846041 c 0,0 -2.621048,-2.621051 -2.621048,-3.276312 z" />
    <path
       id="path1510"
       style="color:#000000;display:none;opacity:0.140199;fill:#052fe4;fill-opacity:0.312457;stroke-width:3.77953;stroke-linecap:round;stroke-linejoin:round"
       d="m 64.160156,33.599609 c -1.699538,0 -3.333764,0.03444 -4.90039,0.0957 1.456548,-0.05137 2.977305,-0.08008 4.560546,-0.08008 16.91765,0 26.691707,3.220324 27.541016,3.50586 V 74.509766 C 84.216902,90.994379 64.54718,100.56162 63.828125,100.9082 63.120223,100.56714 43.439992,91.005055 36.285156,74.03125 V 37.121094 c -0.38946,0.119685 -0.607422,0.193359 -0.607422,0.193359 v 37.890625 c 7.255026,17.412058 27.444508,27.241402 28.392578,27.695312 a 0.94497638,0.94497638 0 0 0 0.15625,-0.0352 c 0,0 3.431649,-1.59976 8.03125,-4.660152 0.01216,-0.0082 0.02493,-0.01721 0.03711,-0.02539 6.754481,-4.53945 15.94223,-12.203745 20.345703,-22.478516 V 37.314453 c 0,0 -10.680039,-3.714844 -28.480469,-3.714844 z m -25.099609,4.3125 a 0.94497638,0.94497638 0 0 0 -0.945313,0.94336 v 35.914062 c 0,0.624533 0.2295,1.120018 0.533204,1.689453 0.303685,0.569439 0.714934,1.185178 1.195312,1.845704 0.960763,1.321043 2.211104,2.80878 3.460938,4.214843 2.499666,2.812127 4.99023,5.300782 4.990234,5.300781 a 0.94497638,0.94497638 0 0 0 0.957031,0.214844 C 48.977255,87.759961 39.392578,78.14241 39.392578,75.701172 V 39.791016 h 9.908203 l 14.810547,14.566406 a 0.94497638,0.94497638 0 0 0 0.19336,-0.0957 L 79.019531,39.791016 h 9.90625 v 35.910156 c 0,2.390351 -9.144497,11.618161 -9.787109,12.263672 a 0.94497638,0.94497638 0 0 0 0.21289,-0.144532 c 0,0 2.490565,-2.488654 4.990235,-5.300781 1.249833,-1.406063 2.500178,-2.8938 3.460937,-4.214843 C 88.283116,77.644162 88.6963,77.028423 89,76.458984 c 0.303685,-0.569435 0.53125,-1.06492 0.53125,-1.689453 V 38.855469 a 0.94497638,0.94497638 0 0 0 -0.945312,-0.94336 h -9.90625 a 0.94497638,0.94497638 0 0 0 -0.65625,0.271485 L 63.820312,52.142578 49.625,38.183594 a 0.94497638,0.94497638 0 0 0 -0.664062,-0.271485 z m 10.240234,16.738282 v 33.373047 a 0.94497638,0.94497638 0 0 0 0.603516,-0.875 V 55.996094 l 8.017578,8.017578 v 13.228516 a 0.94497638,0.94497638 0 0 0 0.945313,0.945312 h 9.90625 a 0.94497638,0.94497638 0 0 0 0.04883,-0.0098 H 59.207031 V 64.556641 Z m 29.71875,0 -9.90625,9.90625 v 13.5625 A 0.94497638,0.94497638 0 0 0 69.71875,77.242188 V 64.013672 l 8.015625,-8.009766 v 31.144532 a 0.94497638,0.94497638 0 0 0 1.285156,0.884765 z"
       transform="scale(0.26458333)" />
    <g
       id="g908"
       transform="matrix(0.18335639,0,0,0.18335639,4.277028,5.8771009)"
       style="display:inline">
      <path
         class="cls-1"
         d="m 294.06,236.51 a 60.93,60.93 0 0 1 43.57,18.26 l -10.51,11 A 45.39,45.39 0 0 0 294,251.51 a 46.25,46.25 0 0 0 -37.22,73 l -1.54,1.36 a 48.07,48.07 0 0 1 -8,-18.34 l -3.07,1.19 a 51.67,51.67 0 0 0 8.64,19.28 v 0 a 49.66,49.66 0 0 1 -3.24,-5.08 l -2.87,2.73 a 50.79,50.79 0 0 0 13.73,15.75 l 2.43,-3 a 51.57,51.57 0 0 1 -9.05,-9.09 v 0 a 51.23,51.23 0 0 0 20.9,16 l 1.25,-3 a 48.1,48.1 0 0 1 -19.7,-15.12 l 1.53,-1.35 a 45.77,45.77 0 0 0 24.75,16.51 l 9.51,16.39 a 61,61 0 0 1 -45.77,-23 l 2.35,-4.85 -8.24,-4 a 60.79,60.79 0 0 1 -7.34,-25.24 h 4.79 v -14.26 h -4.06 a 60.79,60.79 0 0 1 5.82,-17.56 v 2.23 h 9.4 v -9.94 h -4.7 a 61.37,61.37 0 0 1 20.94,-18.4 l 1.2,2.06 v 0 l 0.8,1.31 v 0 l 0.68,1.12 v 0 l 1.45,2.33 a 51.57,51.57 0 0 1 12.14,-4.64 l -2,-2.31 a 54.9,54.9 0 0 1 24.56,-1 l -0.4,-3 a 57.47,57.47 0 0 0 -33.1,4.1 l -1.11,-2.08 a 60.82,60.82 0 0 1 24.6,-5.1 z"
         transform="translate(-210.33,-236.51)"
         id="path8"
         style="fill:#f7f7f7;fill-opacity:1" />
      <path
         class="cls-2"
         d="M 258.86,277.31 A 40,40 0 0 1 283.57,259 c 8.4,-0.47 12.81,-3.83 14.28,-7.33 -1.24,-0.1 -2.5,-0.15 -3.76,-0.15 a 46.15,46.15 0 0 0 -36.82,18.33 v 0 a 48.86,48.86 0 0 0 -9.27,27.7 45.51,45.51 0 0 0 6.23,22.83 c 0.21,0.39 0.42,0.78 0.64,1.17 0.61,1 1.26,2 1.94,3 l -0.07,0.07 c 0.31,0.46 0.62,0.92 0.95,1.37 l 0.11,-0.09 a 45.77,45.77 0 0 0 24.75,16.51 v 0 c 1,0.23 2.08,0.43 3.17,0.6 a 46.63,46.63 0 0 0 15.45,0.24 v 0 a 45.65,45.65 0 0 0 6.84,-1.59 46.23,46.23 0 0 0 24.61,-19.05 l -5,-3.78 -0.08,0.13 a 40,40 0 0 1 -55.06,13.69 40.42,40.42 0 0 1 -13.62,-55.34 z"
         transform="translate(-210.33,-236.51)"
         id="path10"
         style="fill:#f7f7f7;fill-opacity:1" />
      <rect
         class="cls-3"
         x="25.139999"
         y="22.889999"
         width="9.4099998"
         height="9.9399996"
         id="rect12"
         style="fill:#f7f7f7;fill-opacity:1" />
      <rect
         class="cls-3"
         x="22.35"
         y="16.280001"
         width="4.6999998"
         height="4.9699998"
         id="rect14"
         style="fill:#f7f7f7;fill-opacity:1" />
      <rect
         class="cls-3"
         x="9.3999996"
         y="48.439999"
         width="13.54"
         height="14.31"
         id="rect16"
         style="fill:#f7f7f7;fill-opacity:1" />
      <rect
         class="cls-3"
         x="3.6700001"
         y="63.68"
         width="9.5100002"
         height="10.06"
         id="rect18"
         style="fill:#f7f7f7;fill-opacity:1" />
      <rect
         class="cls-3"
         x="2.3900001"
         y="49.119999"
         width="4.7600002"
         height="5.0300002"
         id="rect20"
         style="fill:#f7f7f7;fill-opacity:1" />
      <rect
         class="cls-3"
         y="55.349998"
         width="2.3800001"
         height="2.51"
         id="rect22"
         style="fill:#f7f7f7;fill-opacity:1"
         x="0" />
      <rect
         class="cls-3"
         x="234.99001"
         y="329.39999"
         width="10.06"
         height="9.5100002"
         transform="rotate(-64.14,-53.906342,383.73216)"
         id="rect24"
         style="fill:#f7f7f7;fill-opacity:1" />
      <rect
         class="cls-3"
         x="228.67"
         y="330.22"
         width="5.0500002"
         height="4.77"
         transform="rotate(-64.13,-62.718033,382.2327)"
         id="rect26"
         style="fill:#f7f7f7;fill-opacity:1" />
      <rect
         class="cls-3"
         x="243.19"
         y="341.70999"
         width="3.46"
         height="3.27"
         transform="rotate(-64.13,-48.997055,392.97313)"
         id="rect28"
         style="fill:#f7f7f7;fill-opacity:1" />
      <rect
         class="cls-3"
         x="235.03999"
         y="341.54001"
         width="2.3199999"
         height="2.1900001"
         transform="rotate(-64.13,-57.750745,392.2572)"
         id="rect30"
         style="fill:#f7f7f7;fill-opacity:1" />
      <path
         class="cls-2"
         d="m 324.72,294.28 a 5.11,5.11 0 1 1 -4.82,6.81 h -11.07 a 13.89,13.89 0 1 1 0,-3.81 h 11.23 a 5.12,5.12 0 0 1 4.66,-3 z m -24.35,6.35 h -2.16 l 0.3,-2.06 H 301 v -2.17 h -2.17 l 0.71,-4.85 h -2.19 l -0.71,4.85 h -2.08 l 0.68,-4.85 h -2.15 l -0.72,4.85 h -2.76 v 2.17 h 2.44 l -0.31,2.06 h -2.82 v 2.18 h 2.5 l -0.78,5.24 h 2.2 l 0.76,-5.24 h 2.09 l -0.77,5.24 h 2.2 l 0.77,-5.24 h 2.48 z m -4.06,-2.06 h -2.09 l -0.3,2.06 H 296 l 0.3,-2.06 z m 28.41,-1.33 a 2.15,2.15 0 1 0 2.14,2.15 2.15,2.15 0 0 0 -2.14,-2.15 z"
         transform="translate(-210.33,-236.51)"
         id="path32"
         style="fill:#f7f7f7;fill-opacity:1" />
      <path
         class="cls-2"
         d="m 294.41,358.67 a 61.36,61.36 0 0 0 41.67,-17.4 l -10.77,-6 a 46.2,46.2 0 0 1 -15.73,8.83 44.45,44.45 0 0 1 -6.84,1.59 v 0 a 45.11,45.11 0 0 1 -7,0.52 48.21,48.21 0 0 1 -8.52,-0.44 l -0.21,-0.38 z"
         transform="translate(-210.33,-236.51)"
         id="path34"
         style="fill:#f7f7f7;fill-opacity:1" />
    </g>
  </g>
</svg>
