<?xml version="1.0" encoding="UTF-8" standalone="no"?>
<svg
   viewBox="0 0 64 64"
   id="svg2"
   version="1.1"
   inkscape:version="1.2.2 (b0a8486541, 2022-12-01)"
   sodipodi:docname="xsensors.svg"
   width="64"
   height="64"
   xmlns:inkscape="http://www.inkscape.org/namespaces/inkscape"
   xmlns:sodipodi="http://sodipodi.sourceforge.net/DTD/sodipodi-0.dtd"
   xmlns:xlink="http://www.w3.org/1999/xlink"
   xmlns="http://www.w3.org/2000/svg"
   xmlns:svg="http://www.w3.org/2000/svg"
   xmlns:rdf="http://www.w3.org/1999/02/22-rdf-syntax-ns#"
   xmlns:cc="http://creativecommons.org/ns#"
   xmlns:dc="http://purl.org/dc/elements/1.1/"
   xmlns:sketch="http://www.bohemiancoding.com/sketch/ns">
  <metadata
     id="metadata77">
    <rdf:RDF>
      <cc:Work
         rdf:about="">
        <dc:format>image/svg+xml</dc:format>
        <dc:type
           rdf:resource="http://purl.org/dc/dcmitype/StillImage" />
      </cc:Work>
    </rdf:RDF>
  </metadata>
  <sodipodi:namedview
     pagecolor="#6b6b6b"
     bordercolor="#666666"
     borderopacity="1"
     objecttolerance="10"
     gridtolerance="10"
     guidetolerance="10"
     inkscape:pageopacity="0"
     inkscape:pageshadow="2"
     inkscape:window-width="1920"
     inkscape:window-height="1056"
     id="namedview75"
     showgrid="false"
     showborder="false"
     inkscape:zoom="7.9086801"
     inkscape:cx="9.2303645"
     inkscape:cy="26.42666"
     inkscape:window-x="0"
     inkscape:window-y="24"
     inkscape:window-maximized="1"
     inkscape:current-layer="svg2"
     inkscape:showpageshadow="2"
     inkscape:pagecheckerboard="0"
     inkscape:deskcolor="#5e5e5e" />
  <defs
     id="defs4">
    <linearGradient
       inkscape:collect="always"
       id="linearGradient886">
      <stop
         style="stop-color:#47606a;stop-opacity:1"
         offset="0"
         id="stop884" />
      <stop
         style="stop-color:#2e3e46;stop-opacity:1"
         offset="1"
         id="stop882" />
    </linearGradient>
    <linearGradient
       id="linearGradient3764"
       x1="1"
       x2="47"
       gradientUnits="userSpaceOnUse"
       gradientTransform="rotate(-90,23.999998,24)">
      <stop
         stop-color="#436769"
         stop-opacity="1"
         id="stop7" />
      <stop
         offset="1"
         stop-color="#4b7376"
         stop-opacity="1"
         id="stop9" />
    </linearGradient>
    <clipPath
       id="clipPath-475650238">
      <g
         transform="translate(0,-1004.3622)"
         id="g12">
        <path
           d="m -24,13 c 0,1.105 -0.672,2 -1.5,2 -0.828,0 -1.5,-0.895 -1.5,-2 0,-1.105 0.672,-2 1.5,-2 0.828,0 1.5,0.895 1.5,2 z"
           transform="matrix(15.333333,0,0,11.5,414.99999,878.8622)"
           fill="#1890d0"
           id="path14" />
      </g>
    </clipPath>
    <clipPath
       id="clipPath-483987597">
      <g
         transform="translate(0,-1004.3622)"
         id="g17">
        <path
           d="m -24,13 c 0,1.105 -0.672,2 -1.5,2 -0.828,0 -1.5,-0.895 -1.5,-2 0,-1.105 0.672,-2 1.5,-2 0.828,0 1.5,0.895 1.5,2 z"
           transform="matrix(15.333333,0,0,11.5,414.99999,878.8622)"
           fill="#1890d0"
           id="path19" />
      </g>
    </clipPath>
    <linearGradient
       id="linearGradient4232">
      <stop
         id="stop4234-0"
         offset="0"
         style="stop-color:#3889e9;stop-opacity:1" />
      <stop
         id="stop4236"
         offset="1"
         style="stop-color:#5ea5fb;stop-opacity:1" />
    </linearGradient>
    <linearGradient
       id="linearGradient4207"
       inkscape:swatch="gradient">
      <stop
         id="stop3371"
         offset="0"
         style="stop-color:#3498db;stop-opacity:1;" />
      <stop
         id="stop3373"
         offset="1"
         style="stop-color:#3498db;stop-opacity:0;" />
    </linearGradient>
    <linearGradient
       id="linearGradient4422">
      <stop
         style="stop-color:#ff9300;stop-opacity:1"
         offset="0"
         id="stop4424" />
      <stop
         style="stop-color:#ffd702;stop-opacity:1"
         offset="1"
         id="stop4426" />
    </linearGradient>
    <linearGradient
       id="linearGradient4422-3">
      <stop
         id="stop4424-5"
         offset="0"
         style="stop-color:#197ff1;stop-opacity:1" />
      <stop
         id="stop4426-5"
         offset="1"
         style="stop-color:#21c6fb;stop-opacity:1" />
    </linearGradient>
    <linearGradient
       inkscape:collect="always"
       xlink:href="#linearGradient4422"
       id="linearGradient4453"
       gradientUnits="userSpaceOnUse"
       x1="61.753845"
       y1="132.3382"
       x2="63.052723"
       y2="-1.9349151"
       gradientTransform="matrix(0.2547302,0,0,0.2547302,14.586499,14.599016)" />
    <linearGradient
       inkscape:collect="always"
       xlink:href="#linearGradient886"
       id="linearGradient880"
       x1="24.443716"
       y1="-4.3893132"
       x2="24.443716"
       y2="52.270378"
       gradientUnits="userSpaceOnUse"
       gradientTransform="translate(7.9076426,7.9204183)" />
  </defs>
  <rect
     style="display:inline;fill:none;stroke-width:1.20481;stroke-opacity:0.701669;stroke:none"
     id="rect6057"
     width="64"
     height="64"
     x="0"
     y="0" />
  <rect
     style="display:inline;fill:url(#linearGradient880);fill-opacity:1;stroke-width:0.447506;stroke-opacity:0.701669"
     id="rect306"
     width="56"
     height="56"
     x="3.907644"
     y="3.9204166"
     rx="13"
     ry="13" />
  <path
     style="fill:url(#linearGradient4453);fill-opacity:1;stroke-width:0.25473"
     inkscape:connector-curvature="0"
     sketch:type="MSShapeGroup"
     id="path1074-2"
     d="m 48.407028,44.66355 -7.118436,-7.118436 c 1.715609,-2.476488 2.573794,-5.236998 2.573794,-8.28077 0,-1.978489 -0.384132,-3.870626 -1.152144,-5.676154 -0.767757,-1.805782 -1.805528,-3.362184 -3.113058,-4.669714 -1.30753,-1.30753 -2.863677,-2.345301 -4.669205,-3.113057 -1.806037,-0.768013 -3.698173,-1.15189 -5.676662,-1.15189 -1.97849,0 -3.870626,0.383877 -5.676154,1.15189 -1.805781,0.767756 -3.362183,1.805527 -4.669714,3.113057 -1.307529,1.30753 -2.3453,2.864187 -3.113057,4.669714 -0.768011,1.805784 -1.15189,3.697665 -1.15189,5.676154 0,1.97849 0.383879,3.870116 1.15189,5.676153 0.767757,1.805528 1.805528,3.361675 3.113057,4.669205 1.307531,1.307785 2.864188,2.345301 4.669714,3.113313 1.805783,0.76801 3.697664,1.151889 5.676154,1.151889 3.044281,0 5.804536,-0.858185 8.281024,-2.573794 l 7.118436,7.097548 c 0.497998,0.525765 1.120048,0.788646 1.867682,0.788646 0.719358,0 1.342428,-0.262881 1.867682,-0.788646 0.525763,-0.525507 0.788645,-1.148322 0.788645,-1.867681 2.53e-4,-0.732858 -0.255496,-1.355674 -0.767758,-1.867427 z M 35.820045,35.832563 c -1.819538,1.819537 -4.008944,2.729178 -6.568728,2.729178 -2.559529,0 -4.748935,-0.909896 -6.568473,-2.729178 -1.819538,-1.819539 -2.729179,-4.008691 -2.729179,-6.568474 0,-2.55953 0.909896,-4.74919 2.729179,-6.568473 1.819283,-1.819538 4.008944,-2.72918 6.568473,-2.72918 2.559529,0 4.748935,0.909897 6.568728,2.72918 1.819538,1.819283 2.729433,4.008943 2.729433,6.568473 0,2.559783 -0.91015,4.748935 -2.729433,6.568474 z" />
</svg>
