<?xml version="1.0" encoding="UTF-8" standalone="no"?>
<svg
   clip-rule="evenodd"
   fill-rule="evenodd"
   stroke-linejoin="round"
   stroke-miterlimit="2"
   viewBox="0 0 64 64"
   version="1.1"
   id="svg11"
   sodipodi:docname="blogger.svg"
   width="64"
   height="64"
   inkscape:version="1.2.2 (b0a8486541, 2022-12-01)"
   xmlns:inkscape="http://www.inkscape.org/namespaces/inkscape"
   xmlns:sodipodi="http://sodipodi.sourceforge.net/DTD/sodipodi-0.dtd"
   xmlns="http://www.w3.org/2000/svg"
   xmlns:svg="http://www.w3.org/2000/svg">
  <defs
     id="defs15" />
  <sodipodi:namedview
     id="namedview13"
     pagecolor="#ffffff"
     bordercolor="#000000"
     borderopacity="0.25"
     inkscape:showpageshadow="2"
     inkscape:pageopacity="0.0"
     inkscape:pagecheckerboard="0"
     inkscape:deskcolor="#d1d1d1"
     showgrid="false"
     inkscape:zoom="6.5410793"
     inkscape:cx="33.327833"
     inkscape:cy="30.881754"
     inkscape:window-width="1920"
     inkscape:window-height="1026"
     inkscape:window-x="0"
     inkscape:window-y="24"
     inkscape:window-maximized="1"
     inkscape:current-layer="svg11" />
  <linearGradient
     id="a"
     x2="1"
     gradientTransform="matrix(0,-56.001681,56.001681,0,392.48386,60.000906)"
     gradientUnits="userSpaceOnUse">
    <stop
       stop-color="#a64700"
       offset="0"
       id="stop2" />
    <stop
       stop-color="#fc7b01"
       offset="1"
       id="stop4" />
  </linearGradient>
  <path
     id="path7"
     style="fill:url(#a);stroke-width:1.29223"
     d="M 17 4 C 9.7980072 4 4 9.7980072 4 17 L 4 47 C 4 54.201993 9.7980072 60 17 60 L 47 60 C 54.201993 60 60 54.201993 60 47 L 60 17 C 60 9.7980072 54.201993 4 47 4 L 17 4 z " />
  <path
     d="m 31.35647,16.502308 c -0.675835,-0.0065 -1.514491,0 -2.579287,0.01034 -3.961972,0.03489 -3.961972,0.03489 -4.880746,0.282998 -1.877607,0.505262 -3.856009,1.811704 -5.073288,3.240909 -1.342625,1.575226 -2.332472,3.362377 -2.332472,5.512645 v 11.039505 c 0.211926,8.338749 5.073288,10.721617 9.045598,10.928374 h 12.922281 c 4.941481,-0.399299 8.918959,-5.002215 9.045598,-8.319365 v -4.623592 c 0.0168,-3.831457 0.0168,-5.153406 -0.418682,-5.669005 -0.454865,-0.540152 -0.797305,-0.792136 -2.170944,-0.792136 -1.337456,0 -1.816872,0.06073 -2.25623,-0.27266 -0.555658,-0.418682 -0.696511,-0.786967 -0.786967,-1.983571 -0.302381,-4.281152 -2.963079,-7.708141 -6.935389,-8.955141 -0.97434,-0.30755 -1.559719,-0.404467 -3.588517,-0.418682 m -5.033229,7.779214 h 5.688388 c 1.141038,0 2.07015,0.918774 2.07015,2.070149 0,1.146207 -0.923943,1.806535 -2.07015,1.806535 h -5.688388 c -1.146206,0 -2.070149,-0.661621 -2.070149,-1.806535 0,-1.146206 0.918774,-2.070149 2.070149,-2.070149 m 0,11.630053 h 11.3729 c 1.146207,0 2.07015,0.66679 2.07015,1.806535 0,1.146207 -0.918775,2.07015 -2.07015,2.07015 h -11.3729 c -1.146206,0 -2.070149,-0.918774 -2.070149,-2.07015 0,-1.141037 0.918774,-1.806535 2.070149,-1.806535"
     fill="#ffffff"
     fill-opacity="0.85"
     fill-rule="nonzero"
     id="path9"
     style="stroke-width:1.29223" />
</svg>
