<?xml version="1.0" encoding="UTF-8" standalone="no"?>
<!-- Created with Inkscape (http://www.inkscape.org/) -->

<svg
   width="64"
   height="64"
   viewBox="0 0 16.933333 16.933333"
   version="1.1"
   id="svg5"
   inkscape:version="1.2.2 (b0a8486541, 2022-12-01)"
   sodipodi:docname="celluloid.svg"
   xmlns:inkscape="http://www.inkscape.org/namespaces/inkscape"
   xmlns:sodipodi="http://sodipodi.sourceforge.net/DTD/sodipodi-0.dtd"
   xmlns:xlink="http://www.w3.org/1999/xlink"
   xmlns="http://www.w3.org/2000/svg"
   xmlns:svg="http://www.w3.org/2000/svg">
  <sodipodi:namedview
     id="namedview7"
     pagecolor="#ffffff"
     bordercolor="#666666"
     borderopacity="1.0"
     inkscape:pageshadow="2"
     inkscape:pageopacity="0.0"
     inkscape:pagecheckerboard="0"
     inkscape:document-units="px"
     showgrid="false"
     units="px"
     height="48px"
     inkscape:zoom="12.491639"
     inkscape:cx="28.338956"
     inkscape:cy="32.982061"
     inkscape:window-width="1920"
     inkscape:window-height="1026"
     inkscape:window-x="0"
     inkscape:window-y="24"
     inkscape:window-maximized="1"
     inkscape:current-layer="svg5"
     inkscape:lockguides="true"
     showguides="false"
     inkscape:showpageshadow="2"
     inkscape:deskcolor="#d1d1d1" />
  <defs
     id="defs2">
    <linearGradient
       inkscape:collect="always"
       id="linearGradient5446">
      <stop
         style="stop-color:#000000;stop-opacity:1;"
         offset="0"
         id="stop5442" />
      <stop
         style="stop-color:#000000;stop-opacity:0;"
         offset="1"
         id="stop5444" />
    </linearGradient>
    <linearGradient
       inkscape:collect="always"
       id="linearGradient4701">
      <stop
         style="stop-color:#ffffff;stop-opacity:1;"
         offset="0"
         id="stop4697" />
      <stop
         style="stop-color:#ffffff;stop-opacity:0;"
         offset="1"
         id="stop4699" />
    </linearGradient>
    <linearGradient
       inkscape:collect="always"
       id="linearGradient2174">
      <stop
         style="stop-color:#378bec;stop-opacity:1"
         offset="0"
         id="stop2170" />
      <stop
         style="stop-color:#ca2466;stop-opacity:1"
         offset="1"
         id="stop2172" />
    </linearGradient>
    <linearGradient
       inkscape:collect="always"
       id="linearGradient37218">
      <stop
         style="stop-color:#1a1a1a;stop-opacity:1"
         offset="0"
         id="stop37214" />
      <stop
         style="stop-color:#e6e6e6;stop-opacity:0.00306325"
         offset="0.49741825"
         id="stop37220" />
      <stop
         style="stop-color:#ffffff;stop-opacity:1"
         offset="1"
         id="stop37216" />
    </linearGradient>
    <linearGradient
       inkscape:collect="always"
       xlink:href="#linearGradient4701"
       id="linearGradient4703"
       x1="8.9953117"
       y1="4.4414716"
       x2="8.9726896"
       y2="13.810887"
       gradientUnits="userSpaceOnUse"
       gradientTransform="matrix(1.1816496,0,0,1.1816496,-1.5859029,-1.5382409)" />
    <linearGradient
       inkscape:collect="always"
       xlink:href="#linearGradient5446"
       id="linearGradient5448"
       x1="17.952316"
       y1="35.782471"
       x2="45.954128"
       y2="17.782467"
       gradientUnits="userSpaceOnUse"
       gradientTransform="translate(-0.98828355,8.4473078)" />
    <linearGradient
       inkscape:collect="always"
       xlink:href="#linearGradient2174"
       id="linearGradient1538"
       x1="2.1166668"
       y1="1.5875007"
       x2="16.933332"
       y2="16.933334"
       gradientUnits="userSpaceOnUse" />
    <linearGradient
       inkscape:collect="always"
       xlink:href="#linearGradient37218"
       id="linearGradient809"
       x1="16.933332"
       y1="16.933332"
       x2="1.2e-07"
       y2="1.3366316e-07"
       gradientUnits="userSpaceOnUse" />
  </defs>
  <path
     id="rect863"
     style="fill:url(#linearGradient1538);stroke-width:0.264583;fill-opacity:1"
     d="M 4.4979166 1.0583333 C 2.5923893 1.0583333 1.0583333 2.5923893 1.0583333 4.4979166 L 1.0583333 12.435416 C 1.0583333 14.340944 2.5923893 15.875 4.4979166 15.875 L 12.435416 15.875 C 14.340944 15.875 15.875 14.340944 15.875 12.435416 L 15.875 4.4979166 C 15.875 2.5923893 14.340944 1.0583333 12.435416 1.0583333 L 4.4979166 1.0583333 z " />
  <path
     id="path799"
     style="fill:url(#linearGradient809);stroke-width:0.264583;fill-opacity:1;opacity:0.3"
     d="M 4.4979166 1.0583333 C 2.5923912 1.0583333 1.0583333 2.5923912 1.0583333 4.4979166 L 1.0583333 12.435416 C 1.0583333 14.340943 2.5923912 15.875 4.4979166 15.875 L 12.435416 15.875 C 14.340943 15.875 15.875 14.340943 15.875 12.435416 L 15.875 4.4979166 C 15.875 2.5923912 14.340943 1.0583333 12.435416 1.0583333 L 4.4979166 1.0583333 z M 4.6379597 1.3192993 L 12.295373 1.3192993 C 14.133717 1.3192993 15.614034 2.7996155 15.614034 4.6379597 L 15.614034 12.295373 C 15.614034 14.133717 14.133717 15.614034 12.295373 15.614034 L 4.6379597 15.614034 C 2.7996155 15.614034 1.3192993 14.133717 1.3192993 12.295373 L 1.3192993 4.6379597 C 1.3192993 2.7996155 2.7996155 1.3192993 4.6379597 1.3192993 z " />
  <path
     style="color:#000000;fill:url(#linearGradient4703);fill-opacity:1;stroke-width:1.18165;stroke-linecap:round;stroke-linejoin:round;stroke-miterlimit:1;-inkscape-stroke:none"
     d="M 6.3809998,5.1177694 C 5.890329,4.8507489 5.2925504,5.2053634 5.2916666,5.7639839 v 5.8967081 c 8.838e-4,0.55862 0.5986624,0.913236 1.0893332,0.646215 L 11.786123,9.3597066 c 0.512946,-0.2791654 0.512946,-1.0155717 0,-1.2947372 z"
     id="path3846"
     sodipodi:nodetypes="ccccccc" />
  <path
     id="path3846-7"
     style="color:#000000;opacity:0.3;fill:url(#linearGradient5448);fill-opacity:1;stroke-width:3.77953;stroke-linecap:round;stroke-linejoin:round;stroke-miterlimit:1;-inkscape-stroke:none"
     d="M 45.955078,33.427734 C 45.81548,34.209082 45.347126,34.939472 44.546875,35.375 L 24.117188,46.513672 C 22.262683,47.522885 20.003341,46.183585 20,44.072266 v 1 c 0.0033,2.111319 2.262683,3.450619 4.117188,2.441406 L 44.546875,36.375 c 1.138577,-0.619657 1.606977,-1.835609 1.408203,-2.947266 z"
     transform="scale(0.26458333)"
     sodipodi:nodetypes="cccccccc" />
</svg>
