<?xml version="1.0" encoding="UTF-8" standalone="no"?>
<svg
   width="64"
   height="64"
   version="1.1"
   viewBox="0 0 16.933 16.933"
   id="svg21"
   sodipodi:docname="eog.svg"
   inkscape:version="1.2.2 (b0a8486541, 2022-12-01)"
   xmlns:inkscape="http://www.inkscape.org/namespaces/inkscape"
   xmlns:sodipodi="http://sodipodi.sourceforge.net/DTD/sodipodi-0.dtd"
   xmlns="http://www.w3.org/2000/svg"
   xmlns:svg="http://www.w3.org/2000/svg"
   xmlns:rdf="http://www.w3.org/1999/02/22-rdf-syntax-ns#"
   xmlns:cc="http://creativecommons.org/ns#"
   xmlns:dc="http://purl.org/dc/elements/1.1/">
  <sodipodi:namedview
     id="namedview23"
     pagecolor="#ffffff"
     bordercolor="#000000"
     borderopacity="0.25"
     inkscape:showpageshadow="2"
     inkscape:pageopacity="0.0"
     inkscape:pagecheckerboard="0"
     inkscape:deskcolor="#d1d1d1"
     showgrid="false"
     inkscape:zoom="11.264065"
     inkscape:cx="31.871264"
     inkscape:cy="33.824378"
     inkscape:window-width="1920"
     inkscape:window-height="1056"
     inkscape:window-x="0"
     inkscape:window-y="24"
     inkscape:window-maximized="1"
     inkscape:current-layer="svg21" />
  <defs
     id="defs7">
    <linearGradient
       id="linearGradient864"
       x1="1.1905"
       x2="15.742"
       y1="1.1905"
       y2="15.742"
       gradientUnits="userSpaceOnUse">
      <stop
         stop-color="#2aaeea"
         offset="0"
         id="stop2" />
      <stop
         stop-color="#818ce4"
         offset="1"
         id="stop4" />
    </linearGradient>
  </defs>
  <metadata
     id="metadata9">
    <rdf:RDF>
      <cc:Work
         rdf:about="">
        <dc:format>image/svg+xml</dc:format>
        <dc:type
           rdf:resource="http://purl.org/dc/dcmitype/StillImage" />
        <dc:title />
      </cc:Work>
    </rdf:RDF>
  </metadata>
  <rect
     style="fill:none;fill-opacity:1;stroke-width:0.255879;stroke-opacity:0.701669"
     id="rect788"
     width="16.630857"
     height="16.63102"
     x="0.021242604"
     y="0.021231171"
     transform="matrix(1.0181676,0,0,1.0181577,-0.02162853,-0.02161668)" />
  <g
     id="g17"
     transform="matrix(1.0181676,0,0,1.0181577,-0.15381591,-0.15380429)">
    <rect
       x="1.1905"
       y="1.1905"
       width="14.552"
       height="14.552"
       ry="3.4395001"
       fill="url(#linearGradient864)"
       stroke-linecap="round"
       stroke-width="2.2002"
       id="rect11"
       style="fill:url(#linearGradient864)" />
    <path
       transform="scale(0.26458)"
       d="m 43.629,29.338 c -1.446,0 -2.892,0.55411 -4,1.6621 l -27.391,27.391 c 1.608,0.70932 3.3855,1.1094 5.2617,1.1094 h 29 c 7.202,0 13,-5.798 13,-13 v -3.6289 l -11.871,-11.871 c -1.108,-1.108 -2.554,-1.6621 -4,-1.6621 z"
       fill="#406ccd"
       id="path13" />
    <path
       transform="scale(0.26458)"
       d="m 23.998,23.646 c -1.0181,0 -2.0363,0.38984 -2.8164,1.1699 l -16.682,16.682 v 5.002 c 0,7.202 5.798,13 13,13 h 29 c 4.1126,0 7.7619,-1.8944 10.141,-4.8574 l -29.826,-29.826 c -0.7801,-0.7801 -1.7983,-1.1699 -2.8164,-1.1699 z"
       fill="#13427e"
       id="path15" />
    <circle
       cx="11.112"
       cy="4.4977999"
       r="1.3229001"
       fill="#ffffff"
       id="circle19" />
  </g>
</svg>
