<?xml version="1.0" encoding="UTF-8" standalone="no"?>
<svg
   width="64"
   height="64"
   version="1.1"
   id="svg35"
   sodipodi:docname="geany.svg"
   xml:space="preserve"
   inkscape:version="1.2.2 (b0a8486541, 2022-12-01)"
   xmlns:inkscape="http://www.inkscape.org/namespaces/inkscape"
   xmlns:sodipodi="http://sodipodi.sourceforge.net/DTD/sodipodi-0.dtd"
   xmlns:xlink="http://www.w3.org/1999/xlink"
   xmlns="http://www.w3.org/2000/svg"
   xmlns:svg="http://www.w3.org/2000/svg"><sodipodi:namedview
     id="namedview37"
     pagecolor="#ffffff"
     bordercolor="#000000"
     borderopacity="0.25"
     inkscape:showpageshadow="2"
     inkscape:pageopacity="0.0"
     inkscape:pagecheckerboard="0"
     inkscape:deskcolor="#d1d1d1"
     showgrid="false"
     inkscape:zoom="12.87996"
     inkscape:cx="30.279596"
     inkscape:cy="26.319957"
     inkscape:window-width="1920"
     inkscape:window-height="1026"
     inkscape:window-x="0"
     inkscape:window-y="24"
     inkscape:window-maximized="1"
     inkscape:current-layer="svg35" /><defs
     id="defs15"><linearGradient
       id="c"
       x1="35.03553"
       x2="35.03553"
       y1="33.363995"
       y2="24.684389"
       gradientUnits="userSpaceOnUse"
       gradientTransform="matrix(1.1263637,0,0,1.1263637,-4.2737607,-4.043637)"><stop
         offset="0"
         style="stop-color:#e52517;stop-opacity:1;"
         id="stop2" /><stop
         offset="1"
         style="stop-color:#ff5f1a;stop-opacity:1;"
         id="stop4" /></linearGradient><linearGradient
       id="a"
       x1="7.937"
       x2="7.937"
       y1="15.081"
       y2="1.852"
       gradientTransform="translate(0 .032) scale(3.7795)"
       gradientUnits="userSpaceOnUse"><stop
         offset="0"
         stop-color="#e8900d"
         id="stop7" /><stop
         offset="1"
         stop-color="#ffdc52"
         id="stop9" /></linearGradient><filter
       id="b"
       width="1.0968848"
       height="1.157441"
       x="-0.048442418"
       y="-0.078720495"
       color-interpolation-filters="sRGB"><feGaussianBlur
         stdDeviation=".767"
         id="feGaussianBlur12" /></filter><linearGradient
       inkscape:collect="always"
       id="linearGradient1870"><stop
         style="stop-color:#ffffff;stop-opacity:1;"
         offset="0"
         id="stop1866" /><stop
         style="stop-color:#fef3d4;stop-opacity:1"
         offset="1"
         id="stop1868" /></linearGradient><linearGradient
       id="lgrad"
       x1="32"
       y1="32"
       x2="32"
       y2="992"
       gradientUnits="userSpaceOnUse"
       gradientTransform="translate(0,-896)"><stop
         offset="0%"
         stop-color="#f8f8f8"
         id="stop2-3" /><stop
         offset="100%"
         stop-color="#ccc"
         id="stop4-6" /></linearGradient><radialGradient
       id="rgrad"
       x1="0%"
       y1="0%"
       x2="0%"
       y2="100%"
       fx="512"
       fy="494.39999"
       cx="512"
       cy="512"
       r="440"
       gradientUnits="userSpaceOnUse"
       gradientTransform="translate(0,-896)"><stop
         offset="0%"
         stop-color="#00f0ff"
         id="stop7-7" /><stop
         offset="100%"
         stop-color="#0070e0"
         id="stop9-5" /></radialGradient><radialGradient
       gradientTransform="matrix(0.03099337,0,0,0.03032562,85.198869,42.985295)"
       gradientUnits="userSpaceOnUse"
       r="440"
       cy="306.1813"
       cx="523.57568"
       fy="306.1813"
       fx="523.57568"
       y2="100%"
       x2="0%"
       y1="0%"
       x1="0%"
       id="rgrad-3"><stop
         style="stop-color:#03d7e4;stop-opacity:1"
         id="stop7-6"
         stop-color="#00f0ff"
         offset="0%" /><stop
         id="stop9-7"
         stop-color="#0070e0"
         offset="100%" /></radialGradient><filter
       id="b-3"
       color-interpolation-filters="sRGB"
       height="1.024007"
       width="1.023993"
       x="-0.011996"
       y="-0.012004"><feGaussianBlur
         stdDeviation=".47521291"
         id="feGaussianBlur7" /></filter><linearGradient
       id="k"
       gradientUnits="userSpaceOnUse"
       x1="-350.6571"
       x2="-376.36255"
       y1="-73.89106"
       y2="-319.05783"><stop
         offset="0"
         stop-color="#83a3d4"
         id="stop50" /><stop
         offset="1"
         stop-color="#6bb5e3"
         id="stop52" /></linearGradient><linearGradient
       id="i"
       gradientUnits="userSpaceOnUse"
       x1="-206.76952"
       x2="10.51211"
       y1="-12.925184"
       y2="-156.88734"><stop
         offset="0"
         stop-color="#70c2bd"
         id="stop40" /><stop
         offset="1"
         stop-color="#67c381"
         id="stop42" /></linearGradient><linearGradient
       id="e"
       gradientUnits="userSpaceOnUse"
       x1="134.56509"
       x2="148.51404"
       y1="117.30138"
       y2="-149.18999"><stop
         offset="0"
         stop-color="#faaa32"
         id="stop20" /><stop
         offset="1"
         stop-color="#fdc22b"
         id="stop22" /></linearGradient><linearGradient
       id="c-5"
       gradientUnits="userSpaceOnUse"
       x1="-146.054"
       x2="123.35784"
       y1="144.89951"
       y2="144.89951"><stop
         offset="0"
         stop-color="#a0cf63"
         id="stop10" /><stop
         offset="1"
         stop-color="#c4da45"
         id="stop12" /></linearGradient><linearGradient
       id="m"
       gradientUnits="userSpaceOnUse"
       x1="206.7137"
       x2="28.495264"
       y1="-12.740612"
       y2="-150.01163"><stop
         offset="0"
         stop-color="#b28cc0"
         id="stop60" /><stop
         offset="1"
         stop-color="#9a8ec4"
         id="stop62" /></linearGradient><linearGradient
       id="q"
       gradientUnits="userSpaceOnUse"
       x1="189.94229"
       x2="-19.617525"
       y1="147.05296"
       y2="76.406288"><stop
         offset="0"
         stop-color="#f48155"
         id="stop80" /><stop
         offset="1"
         stop-color="#f16168"
         id="stop82" /></linearGradient><linearGradient
       id="l"
       gradientUnits="userSpaceOnUse"
       x1="116.504"
       x2="21.156284"
       y1="308.30261"
       y2="34.179653"><stop
         offset="0"
         stop-color="#735194"
         id="stop55" /><stop
         offset="1"
         stop-color="#525da3"
         id="stop57" /></linearGradient><linearGradient
       id="j"
       gradientUnits="userSpaceOnUse"
       x1="30.131145"
       x2="123.3283"
       y1="111.50156"
       y2="-107.16671"><stop
         offset="0"
         stop-color="#416db9"
         id="stop45" /><stop
         offset="1"
         stop-color="#337e8d"
         id="stop47" /></linearGradient><linearGradient
       id="h"
       gradientUnits="userSpaceOnUse"
       x1="-103.67039"
       x2="205.55051"
       y1="133.12218"
       y2="0.071801998"><stop
         offset="0"
         stop-color="#2e9274"
         id="stop35" /><stop
         offset="1"
         stop-color="#469d3c"
         id="stop37" /></linearGradient><linearGradient
       id="f"
       gradientUnits="userSpaceOnUse"
       x1="26.97802"
       x2="146.80986"
       y1="120.22743"
       y2="-100.48971"><stop
         offset="0"
         stop-color="#ec4001"
         id="stop25" /><stop
         offset="1"
         stop-color="#fb6f01"
         id="stop27" /></linearGradient><linearGradient
       id="d"
       gradientUnits="userSpaceOnUse"
       x1="-14.298616"
       x2="309.397"
       y1="73.499695"
       y2="73.499695"><stop
         offset="0"
         stop-color="#58a920"
         id="stop15" /><stop
         offset="1"
         stop-color="#98b811"
         id="stop17" /></linearGradient><linearGradient
       id="o"
       gradientUnits="userSpaceOnUse"
       x1="-123.11901"
       x2="145.987"
       y1="144.897"
       y2="144.897"><stop
         offset="0"
         stop-color="#d287af"
         id="stop70" /><stop
         offset="1"
         stop-color="#e07993"
         id="stop72" /></linearGradient><linearGradient
       id="p"
       gradientUnits="userSpaceOnUse"
       x1="-205.78"
       x2="117.81888"
       y1="-71.695564"
       y2="-71.695564"><stop
         offset="0"
         stop-color="#bd090f"
         id="stop75" /><stop
         offset="1"
         stop-color="#e11f07"
         id="stop77" /></linearGradient><linearGradient
       id="n"
       gradientUnits="userSpaceOnUse"
       x1="0.176406"
       x2="-308.72031"
       y1="-14.582834"
       y2="-143.7106"><stop
         offset="0"
         stop-color="#c23857"
         id="stop65" /><stop
         offset="1"
         stop-color="#914475"
         id="stop67" /></linearGradient><linearGradient
       id="g"
       gradientUnits="userSpaceOnUse"
       x1="41.409683"
       x2="117.31723"
       y1="108.52529"
       y2="319.1076"><stop
         offset="0"
         stop-color="#e69e08"
         id="stop30" /><stop
         offset="1"
         stop-color="#cbc507"
         id="stop32" /></linearGradient><rect
       id="path-1"
       x="0"
       y="0"
       width="120"
       height="120"
       rx="28" /><path
       d="M125 104c21.54 0 39-17.46 39-39s-17.46-39-39-39-39 17.46-39 39 17.46 39 39 39zm0 26c-35.899 0-65-29.101-65-65S89.101 0 125 0s65 29.101 65 65-29.101 65-65 65z"
       id="path-3" /><path
       id="path-4"
       d="M0 75l129 90.787v35L0 110z" /><path
       id="path-5"
       d="M22 65h27v120H22z" /><filter
       x="-5.6%"
       y="-1.2%"
       width="111.1%"
       height="102.5%"
       filterUnits="objectBoundingBox"
       id="filter-6"><feMorphology
         radius="0.5"
         operator="dilate"
         in="SourceAlpha"
         result="shadowSpreadOuter1"
         id="feMorphology12690" /><feOffset
         dx="0"
         dy="0"
         in="shadowSpreadOuter1"
         result="shadowOffsetOuter1"
         id="feOffset12692" /><feColorMatrix
         values="0 0 0 0 0 0 0 0 0 0 0 0 0 0 0 0 0 0 0.139945652 0"
         type="matrix"
         in="shadowOffsetOuter1"
         id="feColorMatrix12694" /></filter><circle
       id="path-7"
       cx="21"
       cy="21"
       r="21" /><filter
       x="-16.7%"
       y="-11.9%"
       width="133.3%"
       height="133.3%"
       filterUnits="objectBoundingBox"
       id="filter-8"><feOffset
         dx="0"
         dy="2"
         in="SourceAlpha"
         result="shadowOffsetOuter1"
         id="feOffset12698" /><feGaussianBlur
         stdDeviation="2"
         in="shadowOffsetOuter1"
         result="shadowBlurOuter1"
         id="feGaussianBlur12700" /><feColorMatrix
         values="0 0 0 0 0 0 0 0 0 0 0 0 0 0 0 0 0 0 0.15197577 0"
         type="matrix"
         in="shadowBlurOuter1"
         id="feColorMatrix12702" /></filter><path
       d="M40.74 1.31A21.591 21.591 0 0 1 45 14.2c0 12.155-10.074 22.01-22.5 22.01S0 26.354 0 14.2C0 9.385 1.58 4.932 4.26 1.31 6.447 2.922 9.553 3.928 13 3.928c3.866 0 7.305-1.267 9.5-3.234 2.195 1.967 5.634 3.234 9.5 3.234 3.446 0 6.552-1.006 8.74-2.618z"
       id="path-9" /><rect
       id="path-1-2"
       x="0"
       y="0"
       width="120"
       height="120"
       rx="28" /><clipPath
       id="clipPath849"><rect
         width="384"
         height="384"
         id="rect847" /></clipPath><clipPath
       id="clipPath853"><rect
         width="384"
         height="384"
         id="rect851" /></clipPath><clipPath
       id="clipPath857"><rect
         width="384"
         height="384"
         id="rect855" /></clipPath><linearGradient
       gradientTransform="translate(-1.755e-5,1.52e-6)"
       xlink:href="#linearGradient4177"
       id="linearGradient4205"
       x1="388.735"
       y1="503.991"
       x2="428.408"
       y2="543.932"
       gradientUnits="userSpaceOnUse" /><linearGradient
       id="linearGradient4177"><stop
         offset="0"
         style="stop-color:#3f3f3f;stop-opacity:1;"
         id="stop844" /><stop
         style="stop-color:#de7d9c;stop-opacity:1"
         offset=".11"
         id="stop846" /><stop
         offset=".449"
         style="stop-color:#cc3d8a;stop-opacity:1"
         id="stop848" /><stop
         style="stop-color:#5f2b76;stop-opacity:1"
         offset=".934"
         id="stop850" /><stop
         offset="1"
         style="stop-color:#3f3f3f;stop-opacity:0;"
         id="stop852" /></linearGradient><linearGradient
       id="linearGradient3820-7-2-8-6"><stop
         id="stop3822-2-6-5-0"
         style="stop-color:#3d3d3d;stop-opacity:1"
         offset="0" /><stop
         id="stop3864-8-7-4-1"
         style="stop-color:#686868;stop-opacity:0.49803922"
         offset="0.5" /><stop
         id="stop3824-1-2-6-7"
         style="stop-color:#686868;stop-opacity:0"
         offset="1" /></linearGradient><linearGradient
       id="linearGradient4806"><stop
         offset="0"
         style="stop-color:#ffffff;stop-opacity:1"
         id="stop4808" /><stop
         offset="0.42447853"
         style="stop-color:#ffffff;stop-opacity:0.23529412"
         id="stop4810" /><stop
         offset="0.82089913"
         style="stop-color:#ffffff;stop-opacity:0.15686275"
         id="stop4812" /><stop
         offset="1"
         style="stop-color:#ffffff;stop-opacity:0.39215687"
         id="stop4814" /></linearGradient><linearGradient
       xlink:href="#linearGradient4806"
       id="linearGradient3118"
       gradientUnits="userSpaceOnUse"
       gradientTransform="matrix(4.16388,0,0,4.16388,-236.03265,-50.036246)"
       x1="71.204407"
       y1="15.369057"
       x2="71.204407"
       y2="40.495617" /><radialGradient
       xlink:href="#linearGradient3820-7-2-8-6"
       id="radialGradient3163"
       gradientUnits="userSpaceOnUse"
       gradientTransform="matrix(0.6869404,0,0,0.21461693,-4.02174,68.573331)"
       cx="99.157013"
       cy="186.17059"
       fx="99.157013"
       fy="186.17059"
       r="62.769119" /><radialGradient
       cx="7.4605465"
       cy="9.9571075"
       r="12.671875"
       fx="6.9303164"
       fy="9.9571075"
       id="radialGradient5521-1"
       xlink:href="#linearGradient2867-449-88-871-390-598-476-591-434-148-57-177-3-8-8-9"
       gradientUnits="userSpaceOnUse"
       gradientTransform="matrix(0,46.861858,-92.320077,0,985.84907,-380.50601)" /><linearGradient
       id="linearGradient2867-449-88-871-390-598-476-591-434-148-57-177-3-8-8-9"><stop
         offset="0"
         style="stop-color:#90dbec;stop-opacity:1"
         id="stop3750-8-9-0" /><stop
         offset="0.26238"
         style="stop-color:#42baea;stop-opacity:1"
         id="stop3752-3-2-2" /><stop
         offset="0.704952"
         style="stop-color:#3689e6;stop-opacity:1"
         id="stop3754-7-2-2" /><stop
         offset="1"
         style="stop-color:#2b63a0;stop-opacity:1"
         id="stop3756-9-3-05" /></linearGradient><linearGradient
       id="linearGradient1225"><stop
         id="stop1221"
         offset="0"
         style="stop-color:#f37329;stop-opacity:1" /><stop
         id="stop1223"
         offset="1"
         style="stop-color:#e95420;stop-opacity:1" /></linearGradient><linearGradient
       xlink:href="#linearGradient4806"
       id="linearGradient3118-2"
       gradientUnits="userSpaceOnUse"
       gradientTransform="matrix(4.16388,0,0,4.16388,-237.90031,-51.829821)"
       x1="71.204407"
       y1="15.369057"
       x2="71.204407"
       y2="40.495617" /><radialGradient
       xlink:href="#linearGradient3820-7-2-8-6"
       id="radialGradient3163-9"
       gradientUnits="userSpaceOnUse"
       gradientTransform="matrix(0.75814376,0,0,0.2368626,-10.029824,66.656498)"
       cx="99.157013"
       cy="186.17059"
       fx="99.157013"
       fy="186.17059"
       r="62.769119" /><linearGradient
       gradientUnits="userSpaceOnUse"
       y2="118.04783"
       x2="64.5"
       y1="13.998179"
       x1="64.5"
       id="linearGradient1227"
       xlink:href="#linearGradient1225" /><path
       id="b16bjkfelL"
       d="M272.58 33.21L278.33 33.78L284.01 34.57L289.61 35.58L295.14 36.8L300.58 38.22L305.94 39.85L311.2 41.67L316.37 43.69L321.43 45.9L326.39 48.29L331.24 50.87L335.97 53.61L340.58 56.53L345.07 59.62L349.43 62.87L353.65 66.27L357.74 69.83L361.68 73.53L365.48 77.38L367.5 79.6L369.17 78.22L372.07 76L375.06 73.9L378.13 71.91L381.28 70.03L384.51 68.28L387.81 66.65L391.19 65.14L394.63 63.76L398.13 62.52L401.7 61.41L405.32 60.44L409 59.61L412.73 58.92L416.51 58.38L420.34 57.99L424.21 57.75L428.12 57.68L432.03 57.75L435.9 57.99L439.73 58.38L443.51 58.92L447.25 59.61L450.93 60.44L454.55 61.41L458.12 62.52L461.62 63.76L465.06 65.14L468.43 66.65L471.74 68.28L474.96 70.03L478.11 71.91L481.19 73.9L484.17 76L487.08 78.22L489.89 80.54L492.61 82.97L495.24 85.49L497.77 88.12L500.19 90.84L502.51 93.65L504.73 96.56L506.83 99.55L508.82 102.62L510.7 105.77L512.45 109L514.08 112.3L515.12 114.62L517.85 114.89L522.32 115.49L526.73 116.26L531.08 117.2L535.36 118.29L539.57 119.54L543.71 120.94L547.78 122.49L551.76 124.18L555.66 126.02L559.48 127.99L563.2 130.1L566.83 132.34L570.36 134.7L573.79 137.19L577.11 139.81L580.33 142.53L583.43 145.38L586.42 148.33L589.29 151.39L592.03 154.55L594.65 157.82L597.13 161.18L599.48 164.63L601.7 168.18L603.77 171.81L605.7 175.52L607.48 179.31L609.11 183.18L610.58 187.12L611.89 191.13L613.04 195.21L614.02 199.35L614.83 203.54L615.47 207.8L615.93 212.1L616.21 216.45L616.3 220.85L616.21 225.25L615.93 229.6L615.47 233.91L614.83 238.16L614.02 242.35L613.04 246.49L611.89 250.57L610.58 254.58L609.11 258.52L607.48 262.39L605.7 266.18L603.77 269.89L601.7 273.52L599.48 277.07L597.13 280.52L594.65 283.88L592.03 287.15L589.29 290.31L586.42 293.37L583.43 296.32L580.33 299.17L577.11 301.9L573.79 304.51L570.36 307L566.83 309.36L563.2 311.6L559.48 313.71L558.8 314.06L558.87 317.17L558.78 321.51L558.52 325.81L558.09 330.06L557.49 334.26L556.72 338.4L555.8 342.49L554.72 346.51L553.49 350.47L552.11 354.36L550.58 358.18L548.91 361.93L547.09 365.59L545.15 369.18L543.07 372.68L540.86 376.09L538.52 379.41L536.06 382.63L533.48 385.75L530.79 388.77L527.98 391.69L525.06 394.5L522.04 397.19L518.92 399.77L515.7 402.23L512.38 404.56L508.97 406.77L505.47 408.86L501.88 410.8L498.22 412.62L494.47 414.29L490.65 415.82L486.76 417.2L482.8 418.43L478.78 419.51L474.69 420.43L470.55 421.2L466.35 421.79L462.1 422.23L457.8 422.49L453.46 422.58L449.12 422.49L444.82 422.23L440.57 421.79L436.37 421.2L432.23 420.43L428.14 419.51L424.12 418.43L420.16 417.2L416.27 415.82L412.45 414.29L408.7 412.62L406.61 411.58L403.12 415.59L399.38 419.57L395.49 423.4L391.46 427.08L387.3 430.6L383 433.95L378.58 437.14L374.04 440.16L369.37 443L364.59 445.66L359.71 448.13L354.72 450.41L349.62 452.5L344.44 454.39L339.16 456.07L333.79 457.54L328.35 458.8L322.82 459.84L317.23 460.66L311.56 461.25L305.83 461.61L300.05 461.73L294.26 461.61L288.53 461.25L282.87 460.66L277.27 459.84L271.75 458.8L266.3 457.54L260.93 456.07L255.66 454.39L250.47 452.5L245.38 450.41L240.39 448.13L235.5 445.66L230.72 443L226.06 440.16L221.51 437.14L217.09 433.95L212.79 430.6L208.63 427.08L204.6 423.4L200.71 419.57L196.97 415.59L193.38 411.46L189.94 407.2L186.67 402.8L183.55 398.27L180.61 393.61L177.83 388.84L176.86 387.01L176.7 387.05L171.8 388.17L166.83 389.1L161.8 389.83L156.7 390.36L151.55 390.68L146.35 390.78L141.14 390.68L135.99 390.36L130.9 389.83L125.86 389.1L120.9 388.17L116 387.05L111.18 385.74L106.43 384.23L101.76 382.55L97.19 380.69L92.7 378.65L88.3 376.44L84.01 374.07L79.81 371.54L75.72 368.85L71.75 366L67.88 363L64.14 359.86L60.52 356.58L57.02 353.16L53.66 349.61L50.43 345.93L47.34 342.13L44.39 338.2L41.59 334.16L38.94 330.01L36.44 325.75L34.11 321.38L31.94 316.92L29.93 312.36L28.1 307.7L26.44 302.96L24.97 298.14L23.67 293.24L22.57 288.26L21.65 283.22L20.93 278.1L20.42 272.93L20.1 267.69L20 262.4L20.1 257.12L20.42 251.88L20.93 246.71L21.65 241.59L22.57 236.55L23.67 231.57L24.97 226.67L26.44 221.85L28.1 217.11L29.93 212.45L31.94 207.89L34.11 203.43L36.44 199.06L38.94 194.8L41.59 190.65L44.39 186.61L47.34 182.68L50.43 178.88L53.66 175.2L57.02 171.65L60.52 168.23L64.14 164.95L67.88 161.8L71.75 158.81L75.72 155.96L79.81 153.27L84.01 150.74L88.3 148.36L92.7 146.16L97.19 144.12L101.76 142.26L106.43 140.58L111.18 139.07L116 137.76L120.9 136.64L123.1 136.23L123.93 133.19L125.6 127.96L127.47 122.82L129.54 117.78L131.8 112.84L134.25 107.99L136.88 103.26L139.7 98.64L142.69 94.14L145.85 89.76L149.17 85.5L152.66 81.38L156.31 77.38L160.1 73.53L164.05 69.83L168.13 66.27L172.36 62.87L176.72 59.62L181.21 56.53L185.82 53.61L190.55 50.87L195.4 48.29L200.36 45.9L205.42 43.69L210.59 41.67L215.85 39.85L221.21 38.22L226.65 36.8L232.18 35.58L237.78 34.57L243.46 33.78L249.21 33.21L255.02 32.86L260.89 32.75L266.77 32.86L272.58 33.21Z" /><linearGradient
       y2="461.73"
       x2="318.15"
       y1="32.75"
       x1="318.15"
       gradientUnits="userSpaceOnUse"
       id="gradientc33HQh27aZ"><stop
         id="stop1229"
         offset="0%"
         style="stop-color: #ffffff;stop-opacity: 1" /><stop
         id="stop1231"
         offset="100%"
         style="stop-color: #e0e0e0;stop-opacity: 1" /></linearGradient><path
       id="k1z5szEyZ7"
       d="M452.91 509.7C452.91 536.18 429.29 557.68 400.21 557.68C371.12 557.68 347.5 536.18 347.5 509.7C347.5 483.23 371.12 461.73 400.21 461.73C429.29 461.73 452.91 483.23 452.91 509.7Z" /><path
       id="i1dWBxciv4"
       d="M296.53 555.3C296.53 576.55 278.65 593.81 256.63 593.81C234.6 593.81 216.72 576.55 216.72 555.3C216.72 534.04 234.6 516.78 256.63 516.78C278.65 516.78 296.53 534.04 296.53 555.3Z" /><path
       id="a3sduYxIbo"
       d="M361.39 170.92L327.54 198.07L296.53 222.95" /><path
       id="b1Uu1ewGb"
       d="M490.72 139.23C494.82 139.23 498.14 142.55 498.14 146.65C498.14 160.3 498.14 193.83 498.14 207.48C498.14 211.58 494.82 214.9 490.72 214.9C463.42 214.9 388.95 214.9 361.65 214.9C357.55 214.9 354.22 211.58 354.22 207.48C354.22 193.83 354.22 160.3 354.22 146.65C354.22 142.55 357.55 139.23 361.65 139.23C388.95 139.23 463.42 139.23 490.72 139.23Z" /><path
       id="b4EML11Oyk"
       d="M361.39 333.62L327.54 306.47L296.53 281.59" /><path
       id="b24bcEG6b5"
       d="M297.34 214.9C302.86 214.9 307.34 219.38 307.34 224.9C307.34 238.04 307.34 267.45 307.34 280.58C307.34 286.1 302.86 290.58 297.34 290.58C260.55 290.58 160.2 290.58 123.42 290.58C117.9 290.58 113.42 286.1 113.42 280.58C113.42 267.45 113.42 238.04 113.42 224.9C113.42 219.38 117.9 214.9 123.42 214.9C160.2 214.9 260.55 214.9 297.34 214.9Z" /><path
       id="d4HHCachsN"
       d="M490.72 290.58C494.82 290.58 498.14 293.9 498.14 298C498.14 311.65 498.14 345.18 498.14 358.83C498.14 362.93 494.82 366.26 490.72 366.26C463.42 366.26 388.95 366.26 361.65 366.26C357.55 366.26 354.22 362.93 354.22 358.83C354.22 345.18 354.22 311.65 354.22 298C354.22 293.9 357.55 290.58 361.65 290.58C388.95 290.58 463.42 290.58 490.72 290.58Z" /><filter
       color-interpolation-filters="sRGB"
       height="1.1575"
       width="1.0969"
       y="-.078752"
       x="-.048461"
       id="filter4592"><feGaussianBlur
         id="feGaussianBlur1778"
         stdDeviation="0.76729678" /></filter><linearGradient
       gradientUnits="userSpaceOnUse"
       gradientTransform="matrix(3.7795 0 0 3.7795 .00014309 .031541)"
       y2="1.852"
       y1="15.081"
       x2="7.9373"
       x1="7.9373"
       id="linearGradient862-3"><stop
         id="stop1781"
         offset="0"
         stop-color="#e8900d" /><stop
         id="stop1783"
         offset="1"
         stop-color="#ffdc52" /></linearGradient><linearGradient
       gradientTransform="matrix(0.26458333,0,0,0.26458333,5.8506546,10.011806)"
       gradientUnits="userSpaceOnUse"
       y2="20.308001"
       y1="43.692001"
       x2="33.820999"
       x1="33.820999"
       id="linearGradient4572-0"><stop
         id="stop1773-6"
         offset="0"
         stop-color="#d11628" /><stop
         id="stop1775-2"
         offset="1"
         stop-color="#ff2919" /></linearGradient><linearGradient
       inkscape:collect="always"
       xlink:href="#linearGradient1870"
       id="linearGradient1872"
       x1="15.120027"
       y1="18.838947"
       x2="15.120027"
       y2="16.545454"
       gradientUnits="userSpaceOnUse"
       gradientTransform="matrix(2.2138542,0,0,2.2138542,-53.952509,-23.280835)" /></defs><g
     color="#000"
     id="g27"><path
       d="M4.37.53C2.254.53.53 2.312.53 4.496v8.468c0 2.184 1.725 3.968 3.84 3.968h8.194c2.114 0 3.84-1.783 3.84-3.968V4.497c0-2.184-1.726-3.968-3.84-3.968zm.256.52h7.681c1.844 0 3.33 1.534 3.33 3.44v7.937c0 1.906-1.485 3.44-3.33 3.44h-7.68c-1.845 0-3.33-1.534-3.33-3.44V4.49c0-1.906 1.485-3.44 3.33-3.44z"
       opacity=".01"
       style="font-feature-settings:normal;font-variant-alternates:normal;font-variant-caps:normal;font-variant-east-asian:normal;font-variant-ligatures:normal;font-variant-numeric:normal;font-variant-position:normal;font-variation-settings:normal;inline-size:0;isolation:auto;mix-blend-mode:normal;shape-margin:0;shape-padding:0;text-decoration-color:#000;text-decoration-line:none;text-decoration-style:solid;text-indent:0;text-orientation:mixed;text-transform:none;white-space:normal"
       transform="scale(3.7796)"
       id="path17" /><path
       d="M4.359.794C2.392.794.795 2.447.795 4.48v8.5c0 2.035 1.597 3.688 3.564 3.688h8.216c1.967 0 3.564-1.653 3.564-3.688v-8.5c0-2.034-1.597-3.687-3.564-3.687zm.272.256h7.672c1.842 0 3.325 1.534 3.325 3.44v7.937c0 1.906-1.483 3.44-3.325 3.44H4.63c-1.842 0-3.325-1.534-3.325-3.44V4.49c0-1.906 1.483-3.44 3.325-3.44z"
       opacity=".01"
       style="font-feature-settings:normal;font-variant-alternates:normal;font-variant-caps:normal;font-variant-east-asian:normal;font-variant-ligatures:normal;font-variant-numeric:normal;font-variant-position:normal;font-variation-settings:normal;inline-size:0;isolation:auto;mix-blend-mode:normal;shape-margin:0;shape-padding:0;text-decoration-color:#000;text-decoration-line:none;text-decoration-style:solid;text-indent:0;text-orientation:mixed;text-transform:none;white-space:normal"
       transform="scale(3.7796)"
       id="path19" /><path
       d="M4.31 1.058c-1.866 0-3.375 1.539-3.375 3.44v8.467c0 1.9 1.57 3.439 3.435 3.439h8.2c1.866 0 3.427-1.538 3.427-3.44V4.498c0-1.9-1.51-3.439-3.375-3.439h-.097c1.794.087 3.214 1.582 3.214 3.432v7.937c0 1.906-1.506 3.44-3.377 3.44h-7.79c-1.871 0-3.377-1.534-3.377-3.44V4.49c0-1.85 1.42-3.345 3.214-3.432z"
       opacity=".03"
       style="font-feature-settings:normal;font-variant-alternates:normal;font-variant-caps:normal;font-variant-east-asian:normal;font-variant-ligatures:normal;font-variant-numeric:normal;font-variant-position:normal;font-variation-settings:normal;inline-size:0;isolation:auto;mix-blend-mode:normal;shape-margin:0;shape-padding:0;text-decoration-color:#000;text-decoration-line:none;text-decoration-style:solid;text-indent:0;text-orientation:mixed;text-transform:none;white-space:normal"
       transform="scale(3.7796)"
       id="path21" /><path
       d="M4 46.969V49c0 6.648 5.896 12 12.544 12h30.961C54.153 61 60 55.648 60 49v-1.992a12.972 12.972 0 0 1-13 12.963H17.002A12.973 12.973 0 0 1 4 46.969z"
       opacity=".03"
       style="font-feature-settings:normal;font-variant-alternates:normal;font-variant-caps:normal;font-variant-east-asian:normal;font-variant-ligatures:normal;font-variant-numeric:normal;font-variant-position:normal;font-variation-settings:normal;inline-size:0;isolation:auto;mix-blend-mode:normal;shape-margin:0;shape-padding:0;text-decoration-color:#000;text-decoration-line:none;text-decoration-style:solid;text-indent:0;text-orientation:mixed;text-transform:none;white-space:normal"
       id="path23" /><path
       d="M1.058 11.906v.592c0 1.939 1.573 3.5 3.332 3.5h8.16c1.76 0 3.325-1.561 3.325-3.5v-.58c-.006 2.095-1.537 3.78-3.44 3.78H4.498c-1.905 0-3.44-1.692-3.44-3.792z"
       opacity=".05"
       style="font-feature-settings:normal;font-variant-alternates:normal;font-variant-caps:normal;font-variant-east-asian:normal;font-variant-ligatures:normal;font-variant-numeric:normal;font-variant-position:normal;font-variation-settings:normal;inline-size:0;isolation:auto;mix-blend-mode:normal;shape-margin:0;shape-padding:0;text-decoration-color:#000;text-decoration-line:none;text-decoration-style:solid;text-indent:0;text-orientation:mixed;text-transform:none;white-space:normal"
       transform="scale(3.7796)"
       id="path25" /></g><rect
     width="56"
     height="56"
     x="4"
     y="4"
     fill="url(#a)"
     rx="13.002"
     ry="13.002"
     id="rect29" /><path
     id="path1806-6"
     d="m -26.35629,24.476385 c 0.194111,-0.794628 0.821922,-1.370887 1.367898,-1.834977 0.357894,-0.230509 0.376092,-0.421587 0.08796,-0.555038 -1.45582,-0.670273 -2.653851,-1.085802 -3.857974,-1.74395 -2.038174,-1.131315 -3.205864,-2.772173 -3.515257,-4.937688 -0.0637,-0.518639 -0.0637,-1.058505 0.0273,-1.437661 0.124355,-0.269938 0.385189,-0.430683 0.694581,-0.430683 0.197144,0 0.312397,0.04549 0.864391,0.35183 1.258715,0.694579 2.490076,1.24653 3.133052,1.407318 0.263869,0.06369 0.29117,0.06369 0.439786,-0.01815 0.709693,-0.391257 1.258716,-0.985699 1.504379,-1.073678 h 5.641347 c 1.968411,2.101842 4.725412,2.675115 7.112164,1.398182 0.633897,-0.373057 1.012995,-0.755205 1.219236,-1.398182 h 1.57713 c 0,0.118287 -0.327562,0.988743 -0.561106,1.301182 -0.752162,1.006961 -1.922896,1.819806 -3.700236,2.565932 -2.550761,1.267795 -4.267414,3.002666 -6.469597,4.015659 -0.427648,0.215342 -0.07279,0.339694 0.11222,0.552005 0.594478,0.53684 1.022132,1.107064 1.219236,1.834975 m -8.228599,-5.641347 -0.388224,-1.932035 c -0.03336,-0.02125 -0.197144,-0.08492 -0.366995,-0.139517 -0.336664,-0.109188 -1.219235,-0.476178 -1.604423,-0.670271 -0.285103,-0.14255 -0.439787,-0.157715 -0.439787,-0.04246 0,0.151649 0.354859,0.855311 0.615682,1.225328 0.288135,0.406422 0.6066,0.730955 1.043336,1.067585 0.403386,0.306335 0.93415,0.621774 1.055459,0.621774 0.09099,0 0.100088,-0.01815 0.08189,-0.127385 z m 2.365722,-5.483664 c 0.01815,-0.03336 0.209276,-0.397325 0.424622,-0.746127 0.897777,-1.44065 1.313307,-1.822852 1.986626,-1.822852 0.642977,0 1.097928,0.406422 1.950191,1.756076 0.266902,0.418554 0.482248,0.797674 0.482248,0.812843 z"
     inkscape:connector-curvature="0"
     style="fill:url(#linearGradient1872);fill-opacity:1;stroke-width:3.03301"
     transform="matrix(1.9254492,0,0,1.9254492,74.620212,-1.9416802)" /><path
     d="m 25,43.692 c 0.331,-1.357 1.403,-2.34 2.335,-3.133 0.611,-0.393 0.642,-0.72 0.15,-0.947 -2.485,-1.145 -4.53,-1.854 -6.586,-2.978 -3.48,-1.931 -5.473,-4.732 -6.001,-8.43 -0.109,-0.885 -0.109,-1.806 0.046,-2.454 0.213,-0.46 0.658,-0.735 1.186,-0.735 0.337,0 0.533,0.078 1.476,0.6 2.149,1.187 4.251,2.129 5.349,2.403 0.45,0.11 0.497,0.11 0.75,-0.03 1.212,-0.669 2.15,-1.684 2.569,-1.834 h 9.63 c 3.361,3.589 8.068,4.567 12.143,2.387 1.082,-0.637 1.73,-1.29 2.081,-2.387 h 2.693 c 0,0.202 -0.56,1.688 -0.958,2.222 -1.284,1.719 -3.283,3.106 -6.317,4.38 -4.355,2.165 -7.286,5.126 -11.045,6.856 -0.73,0.367 -0.125,0.58 0.191,0.942 1.015,0.917 1.745,1.89 2.082,3.133 M 22.726,34.056 22.063,30.758 a 4.714,4.714 0 0 0 -0.627,-0.239 c -0.574,-0.186 -2.081,-0.813 -2.739,-1.144 -0.486,-0.243 -0.75,-0.27 -0.75,-0.072 0,0.258 0.605,1.46 1.05,2.091 0.493,0.694 1.036,1.248 1.782,1.823 0.689,0.523 1.595,1.062 1.802,1.062 0.155,0 0.17,-0.032 0.14,-0.218 z m 4.039,-9.362 c 0.03,-0.057 0.357,-0.678 0.725,-1.274 1.532,-2.46 2.242,-3.112 3.391,-3.112 1.098,0 1.875,0.694 3.33,2.998 0.455,0.715 0.823,1.362 0.823,1.388 z"
     filter="url(#b)"
     opacity="0.15"
     id="path31"
     transform="matrix(1.1263637,0,0,1.1263637,-4.2737607,-4.043637)"
     style="display:none" /><path
     fill="url(#c)"
     d="m 23.885331,45.169444 c 0.372826,-1.528476 1.580288,-2.635691 2.630059,-3.528898 0.688208,-0.44266 0.723125,-0.810981 0.168954,-1.066666 -2.799013,-1.289686 -5.102427,-2.088278 -7.418231,-3.354311 -3.919745,-2.175008 -6.164588,-5.329953 -6.759308,-9.495245 -0.122774,-0.996832 -0.122774,-2.034213 0.05181,-2.764097 0.239915,-0.518127 0.741147,-0.827877 1.335867,-0.827877 0.379585,0 0.600352,0.08786 1.662513,0.675818 2.420555,1.336994 4.788172,2.398028 6.024919,2.706652 0.506864,0.1239 0.559803,0.1239 0.844773,-0.03379 1.365153,-0.753537 2.421682,-1.896796 2.893628,-2.065751 H 36.1672 c 3.785708,4.042519 9.087502,5.144103 13.677434,2.68863 1.218725,-0.717494 1.948609,-1.453009 2.343963,-2.68863 h 3.033297 c 0,0.227525 -0.630764,1.901302 -1.079056,2.50278 -1.446251,1.936219 -3.697852,3.498486 -7.11524,4.933473 -4.905313,2.438577 -8.206685,5.77374 -12.440686,7.722349 -0.822246,0.413376 -0.140796,0.653291 0.215135,1.061035 1.143259,1.032875 1.965505,2.128827 2.345089,3.528897 M 21.32398,34.315804 20.577201,30.601056 a 5.3096783,5.3096783 0 0 0 -0.70623,-0.269201 c -0.646533,-0.209503 -2.343963,-0.915733 -3.08511,-1.28856 -0.547413,-0.273706 -0.844773,-0.304118 -0.844773,-0.0811 0,0.290602 0.68145,1.644491 1.182682,2.355227 0.555297,0.781696 1.166912,1.405701 2.00718,2.053361 0.776064,0.589088 1.79655,1.196198 2.029707,1.196198 0.174586,0 0.191482,-0.03604 0.157691,-0.245548 z m 4.549383,-10.545017 c 0.03379,-0.0642 0.402111,-0.763674 0.816613,-1.434987 1.725589,-2.770855 2.525308,-3.505244 3.819499,-3.505244 1.236748,0 2.111932,0.781696 3.750791,3.376838 0.512496,0.80535 0.926998,1.534108 0.926998,1.563393 z"
     id="path33"
     style="display:inline;fill:url(#c);stroke-width:1.12636" /><style
     id="style3"
     type="text/css">
	.st0{fill:url(#SVGID_1_);}
	.st1{fill:url(#SVGID_2_);}
	.st2{fill:url(#SVGID_3_);}
	.st3{fill:url(#SVGID_4_);}
	.st4{fill:url(#SVGID_5_);}
	.st5{fill:url(#SVGID_6_);}
	.st6{opacity:0.29;}
	.st7{fill:url(#SVGID_7_);}
</style></svg>
