<?xml version="1.0" encoding="UTF-8" standalone="no"?>
<svg
   xmlns:dc="http://purl.org/dc/elements/1.1/"
   xmlns:cc="http://creativecommons.org/ns#"
   xmlns:rdf="http://www.w3.org/1999/02/22-rdf-syntax-ns#"
   xmlns:svg="http://www.w3.org/2000/svg"
   xmlns="http://www.w3.org/2000/svg"
   xmlns:xlink="http://www.w3.org/1999/xlink"
   xmlns:sodipodi="http://sodipodi.sourceforge.net/DTD/sodipodi-0.dtd"
   xmlns:inkscape="http://www.inkscape.org/namespaces/inkscape"
   width="64"
   height="64"
   version="1.1"
   id="svg29"
   sodipodi:docname="ghidra.svg"
   inkscape:version="1.0.2 (e86c870879, 2021-01-15)">
  <metadata
     id="metadata33">
    <rdf:RDF>
      <cc:Work
         rdf:about="">
        <dc:format>image/svg+xml</dc:format>
        <dc:type
           rdf:resource="http://purl.org/dc/dcmitype/StillImage" />
      </cc:Work>
    </rdf:RDF>
  </metadata>
  <sodipodi:namedview
     pagecolor="#ffffff"
     bordercolor="#666666"
     borderopacity="1"
     objecttolerance="10"
     gridtolerance="10"
     guidetolerance="10"
     inkscape:pageopacity="0"
     inkscape:pageshadow="2"
     inkscape:window-width="1920"
     inkscape:window-height="992"
     id="namedview31"
     showgrid="false"
     inkscape:zoom="5.7265625"
     inkscape:cx="46.826157"
     inkscape:cy="20.007764"
     inkscape:window-x="0"
     inkscape:window-y="24"
     inkscape:window-maximized="1"
     inkscape:current-layer="svg29"
     inkscape:document-rotation="0" />
  <defs
     id="defs15">
    <linearGradient
       id="linearGradient1009"
       x1="29.794"
       x2="29.794"
       y1="18.047"
       y2="45.675"
       gradientUnits="userSpaceOnUse">
      <stop
         stop-color="#505459"
         offset="0"
         id="stop1005"
         style="stop-color:#595959;stop-opacity:1" />
      <stop
         stop-color="#2d2f32"
         offset="1"
         id="stop1007"
         style="stop-color:#4d4d4d;stop-opacity:1" />
    </linearGradient>
    <linearGradient
       id="linearGradient945"
       x1="29.794"
       x2="29.794"
       y1="18.047"
       y2="45.675"
       gradientUnits="userSpaceOnUse">
      <stop
         stop-color="#505459"
         offset="0"
         id="stop941" />
      <stop
         stop-color="#2d2f32"
         offset="1"
         id="stop943"
         style="stop-color:#4a4a4a;stop-opacity:1" />
    </linearGradient>
    <linearGradient
       id="linearGradient862-3"
       x1="7.9373"
       x2="7.9373"
       y1="15.081"
       y2="1.852"
       gradientTransform="scale(3.7796)"
       gradientUnits="userSpaceOnUse">
      <stop
         stop-color="#f1efeb"
         offset="0"
         id="stop2" />
      <stop
         stop-color="#fdfcfc"
         offset="1"
         id="stop4" />
    </linearGradient>
    <linearGradient
       id="linearGradient890"
       x1="29.794"
       x2="29.794"
       y1="18.047"
       y2="45.675"
       gradientUnits="userSpaceOnUse">
      <stop
         stop-color="#505459"
         offset="0"
         id="stop7" />
      <stop
         stop-color="#2d2f32"
         offset="1"
         id="stop9"
         style="stop-color:#424242;stop-opacity:1" />
    </linearGradient>
    <filter
       id="filter902"
       x="-.10872"
       y="-.10729"
       width="1.2174"
       height="1.2146"
       color-interpolation-filters="sRGB">
      <feGaussianBlur
         stdDeviation="1.4304909"
         id="feGaussianBlur12" />
    </filter>
    <filter
       style="color-interpolation-filters:sRGB"
       inkscape:label="Drop Shadow"
       id="filter1982"
       x="-0.079121545"
       y="-0.048404019"
       width="1.1582431"
       height="1.096808">
      <feFlood
         flood-opacity="0.498039"
         flood-color="rgb(0,0,0)"
         result="flood"
         id="feFlood1972" />
      <feComposite
         in="flood"
         in2="SourceGraphic"
         operator="in"
         result="composite1"
         id="feComposite1974" />
      <feGaussianBlur
         in="composite1"
         stdDeviation="5"
         result="blur"
         id="feGaussianBlur1976" />
      <feOffset
         dx="4.57967e-15"
         dy="0"
         result="offset"
         id="feOffset1978" />
      <feComposite
         in="SourceGraphic"
         in2="offset"
         operator="over"
         result="composite2"
         id="feComposite1980" />
    </filter>
    <radialGradient
       inkscape:collect="always"
       xlink:href="#linearGradient1009"
       id="radialGradient910"
       cx="61.991814"
       cy="15.366984"
       fx="61.991814"
       fy="15.366984"
       r="29.159"
       gradientTransform="matrix(1.1500441,-0.00508273,0.00500219,1.1525567,-9.3783724,-2.0292489)"
       gradientUnits="userSpaceOnUse" />
  </defs>
  <g
     id="g937"
     transform="matrix(0.96028662,0,0,0.95160897,-27.528912,17.34624)">
    <rect
       style="fill:url(#radialGradient910);fill-opacity:1;stroke-width:1.50579"
       id="rect1285"
       width="58.318001"
       height="58.849804"
       x="32.832813"
       y="-14.057918"
       ry="13.449197" />
    <path
       style="opacity:0.2;stroke-width:1"
       d="m 70.997171,-8.027122 c -1.070489,0.033812 -2.097523,0.181124 -3.040629,0.473047 -3.74108,1.174777 -7.247137,3.83509 -9.37892,6.616742 L 57.42098,0.572042 c 0,0 -1.70414,-0.671786 -2.597662,-0.658984 -1.387379,0.02818 -2.199853,0.646389 -3.070708,1.577734 -0.606821,0.649057 -1.021458,1.398437 -1.282424,2.313281 -1.119116,3.923162 -2.841686,5.585674 -8.691216,7.24654 -2.375931,0.6746 -3.836977,2.0882 -4.514461,4.36953 -0.438053,1.47511 -0.443515,3.861998 -0.01094,4.897266 0.470727,1.126608 1.741456,2.918604 1.968753,2.778126 0.104626,-0.06466 0.26234,-0.613686 0.352735,-1.219532 0.0904,-0.605848 0.313151,-1.458626 0.494923,-1.894922 l 0.33086,-0.792968 0.896876,0.877734 c 0.666621,0.650934 1.303815,0.987088 2.477348,1.3125 0.868458,0.240814 1.657306,0.4375 1.75547,0.4375 0.344212,0 0.173643,-0.475258 -0.514062,-1.42461 -0.686821,-0.948124 -0.884907,-1.580468 -0.492189,-1.580468 0.111678,0 0.600891,0.1639 1.08555,0.366406 0.649707,0.271464 1.219742,0.325778 2.168362,0.207812 0.707639,-0.088 1.370213,-0.209962 1.47383,-0.273436 0.103624,-0.06348 -0.239729,-0.48189 -0.762886,-0.929688 -0.523158,-0.447804 -0.88429,-0.882208 -0.803907,-0.9625 0.08037,-0.08028 0.804785,-0.14492 1.610548,-0.14492 1.710839,0 3.222792,-0.484638 3.940255,-2.13828 0.23458,-0.540674 0.521557,-0.984374 0.637109,-0.984374 0.115561,0 0.257915,0.504224 0.317188,1.121092 0.06138,0.638706 0.472028,1.859512 0.954298,2.835548 0.76703,1.552346 0.847474,1.88878 0.836721,3.562892 -0.0066,1.01661 -0.09151,3.365612 -0.18868,4.240646 -0.249063,2.242798 -1.369788,2.305488 -4.906864,2.119142 -1.734316,-0.09136 -3.896491,-0.56875 -3.896491,-0.56875 0,0 4.304637,4.292504 5.490634,5.003904 0.682014,0.409098 1.940497,0.927658 2.794536,1.151174 1.523141,0.398634 1.563427,0.39591 2.195705,-0.06288 0.824235,-0.598108 2.15929,-3.341032 4.492586,-9.233986 1.007426,-2.544346 1.928497,-5.6587 2.048051,-5.941428 0.12258,-0.289886 0.498187,-0.570564 0.861329,-0.645312 1.814647,-0.373522 4.319904,-0.784736 5.332281,-1.782814 2.22033,-1.926576 1.823551,-3.054344 1.684379,-4.68125 0,0 1.271144,-1.20891 3.650154,-0.355468 2.501583,0.878856 3.839642,2.030598 4.656649,5.23086 1.677213,5.430174 0.04238,12.70099 -3.675005,16.521094 -1.996683,2.051848 -5.541918,4.059048 -8.971499,5.077734 -1.681221,0.49937 -2.612853,0.618122 -5.386729,0.689062 -3.396938,0.08688 -5.082338,-0.1072 -7.989857,-0.921484 -4.752067,-1.117322 -9.008108,-3.482068 -13.833224,-3.69961 0.503998,0.609398 1.040933,1.188636 1.594143,1.752736 0.09798,0.09992 0.193111,0.202336 0.292579,0.30078 0.541418,0.535758 1.106117,1.046488 1.689845,1.53672 0.123354,0.10362 0.246717,0.207476 0.371876,0.308984 0.589085,0.477606 1.196307,0.93529 1.823831,1.364452 0.124881,0.08542 0.253749,0.16538 0.380079,0.248828 0.650258,0.429354 1.314546,0.8391 2.001566,1.214062 0.08831,0.04822 0.179076,0.09216 0.26797,0.13946 0.665662,0.354 1.348687,0.681138 2.045314,0.981642 0.09784,0.04222 0.19414,0.08738 0.29258,0.12852 0.73974,0.309042 1.496055,0.582586 2.2668,0.828516 0.127381,0.04068 0.25465,0.08142 0.382812,0.12032 0.749454,0.227258 1.513667,0.42296 2.288676,0.58789 0.257773,0.05488 0.516173,0.1081 0.776563,0.15586 0.191141,0.03504 0.381713,0.07 0.574221,0.10118 0.269829,0.04372 0.542436,0.07884 0.814845,0.11484 0.235527,0.0311 0.470832,0.06498 0.708203,0.09022 0.341507,0.03636 0.685717,0.06344 1.030862,0.0875 0.141361,0.0098 0.281887,0.02504 0.423829,0.03282 0.518715,0.02831 1.040752,0.04372 1.566805,0.04372 15.512024,0 28.000044,-12.488 28.000044,-28 0,-0.614144 -0.02648,-1.22289 -0.06562,-1.826564 -0.009,-0.1397 -0.0192,-0.279234 -0.03008,-0.418358 -0.04124,-0.516124 -0.09508,-1.026498 -0.16406,-1.533984 -0.0112,-0.08366 -0.02088,-0.16816 -0.03282,-0.251562 -0.08934,-0.615326 -0.19662,-1.225288 -0.325391,-1.826564 -0.0013,-0.0062 -0.0013,-0.0128 -0.0028,-0.0192 -0.14418,-0.679916 -0.324516,-1.34662 -0.516799,-2.00703 -0.13172,-0.447334 -0.27895,-0.888536 -0.432032,-1.326172 -0.08094,-0.233604 -0.1674,-0.46382 -0.254297,-0.694532 -0.627513,-1.652098 -1.397494,-3.232681 -2.307815,-4.71953 -0.0042,-0.007 -0.0068,-0.01496 -0.011,-0.02188 -1.248781,-0.202926 -2.32149,-0.349999 -2.32149,-0.35 0,0 0.709089,-0.407677 1.520317,-0.916014 -0.02146,-0.03112 -0.04678,-0.05921 -0.06836,-0.09023 -0.863856,-1.241568 -1.827411,-2.40635 -2.876525,-3.489065 -0.05034,-0.05194 -0.0942,-0.109788 -0.14492,-0.161328 -4.063753,-0.279007 -8.347573,-0.238739 -13.458528,3.016076 2.680592,-4.769657 6.513952,-5.518043 10.78439,-5.386719 -0.254878,-0.2001 -0.517358,-0.391113 -0.779297,-0.582422 -2.055948,-0.633268 -4.266125,-1.0963742 -6.365635,-1.1703126 -0.36532,-0.01286 -0.725983,-0.014 -1.082816,-0.00274 z m -16.000017,10.778461 0.03554,3.16914 -2.800005,1.03086 c 1.180936,-1.117008 2.110239,-2.50842 2.764457,-4.2 z m -12.06448,9.999664 v 1.4 c -0.933335,-0.499472 -1.86667,-0.477864 -2.800004,-0.232422 z"
       id="path6" />
    <path
       id="path8"
       style="fill:#f04339;stroke-width:0.955938"
       d="m 40.648438,8.7558594 c -1.027977,0.032176 -2.01427,0.1733755 -2.919922,0.4511718 -3.592509,1.1179288 -6.958737,3.6478768 -9.00586,6.2949218 l -1.111328,1.4375 c 0,0 -1.636103,-0.639135 -2.49414,-0.626953 -1.332282,0.02682 -2.112949,0.613724 -2.949219,1.5 -0.582722,0.617648 -0.979867,1.330598 -1.230469,2.201172 -1.074672,3.733316 -2.728478,5.315989 -8.345703,6.896484 -2.281575,0.641956 -3.6853588,1.987269 -4.3359376,4.158203 -0.4206565,1.403728 -0.4251616,3.674986 -0.00977,4.660157 0.4520328,1.07209 1.6723547,2.778211 1.8906256,2.644531 0.100471,-0.06153 0.251085,-0.583628 0.33789,-1.160156 0.08681,-0.576531 0.300057,-1.389505 0.47461,-1.804688 l 0.318359,-0.753906 0.861328,0.835937 c 0.640147,0.619435 1.251978,0.938382 2.378906,1.248047 0.833969,0.229161 1.591282,0.416016 1.685547,0.416016 0.330543,0 0.166254,-0.452057 -0.49414,-1.355469 -0.659545,-0.902243 -0.849778,-1.503906 -0.472657,-1.503906 0.107243,0 0.577558,0.156903 1.042969,0.349609 0.623905,0.258328 1.171084,0.309523 2.082031,0.197266 0.679537,-0.08374 1.316514,-0.199363 1.416016,-0.259766 0.09951,-0.06041 -0.230041,-0.458637 -0.732422,-0.884765 -0.502381,-0.426135 -0.850628,-0.839609 -0.773437,-0.916016 0.07718,-0.07639 0.773111,-0.138672 1.546875,-0.138672 1.642896,0 3.096186,-0.461536 3.785156,-2.035156 0.225264,-0.51451 0.500365,-0.935547 0.611328,-0.935547 0.110972,0 0.247769,0.479389 0.304688,1.066406 0.05894,0.607799 0.452898,1.768461 0.916015,2.697266 0.736569,1.477226 0.813061,1.797525 0.802735,3.390625 -0.0063,0.967415 -0.08638,3.204419 -0.179688,4.037109 -0.239172,2.134267 -1.316284,2.192954 -4.71289,2.015625 -1.665441,-0.08694 -3.742188,-0.541015 -3.742188,-0.541015 0,0 4.13454,4.084744 5.273438,4.761718 0.654928,0.389302 1.863471,0.883004 2.683593,1.095703 1.462652,0.379344 1.500254,0.376042 2.107422,-0.06055 0.791502,-0.569165 2.07382,-3.179322 4.314453,-8.78711 0.967418,-2.421222 1.851991,-5.38525 1.966797,-5.654297 0.117712,-0.275858 0.479405,-0.54215 0.828125,-0.613281 1.742581,-0.355447 4.146969,-0.747486 5.119141,-1.697266 2.132153,-1.833347 1.752785,-2.904946 1.61914,-4.453124 0,0 1.219375,-1.151987 3.503907,-0.339844 2.402236,0.836327 3.688095,1.933117 4.472656,4.978515 1.610605,5.167403 0.04046,12.085458 -3.529297,15.720703 -1.917388,1.952557 -5.321854,3.862641 -8.615234,4.832032 -1.614454,0.475205 -2.510112,0.588743 -5.173829,0.65625 -3.262034,0.08268 -4.879823,-0.102073 -7.671874,-0.876953 -4.563347,-1.063254 -8.649709,-3.312517 -13.283204,-3.519532 0.483983,0.579909 0.998057,1.131167 1.529297,1.667969 0.09409,0.09508 0.185732,0.191476 0.28125,0.285156 0.519917,0.509832 1.062501,0.996382 1.623047,1.462891 0.118455,0.09861 0.237233,0.196373 0.357422,0.292969 0.56569,0.454494 1.14935,0.890433 1.751953,1.298828 0.119922,0.08129 0.243921,0.156918 0.365235,0.236328 0.624434,0.408577 1.262138,0.799433 1.921874,1.15625 0.0848,0.04589 0.170496,0.0878 0.25586,0.132812 0.639226,0.33687 1.295882,0.647632 1.964844,0.933594 0.09395,0.04018 0.186719,0.0839 0.28125,0.123047 0.710362,0.294087 1.435645,0.55308 2.175781,0.787109 0.122322,0.03871 0.246068,0.07822 0.369141,0.115235 0.71969,0.216261 1.453034,0.403598 2.197265,0.560547 0.247536,0.05222 0.496045,0.101035 0.746094,0.146484 0.18355,0.03334 0.365918,0.06799 0.550781,0.09766 0.259113,0.0416 0.521613,0.07512 0.783203,0.109375 0.226174,0.0296 0.451744,0.06192 0.679688,0.08594 0.327944,0.0346 0.658796,0.05913 0.990234,0.08203 0.135747,0.0093 0.269945,0.02385 0.40625,0.03125 0.498115,0.02694 0.998745,0.04297 1.503906,0.04297 11.016134,0 22.710909,-6.289095 28.058594,-15.533203 V 19.732785 C 57.454522,16.858775 52.625,17.113282 52.625,17.113281 c 0,0 0.679973,-0.387355 1.458984,-0.871093 0.424268,-0.2734 2.046671,-1.004924 4.378907,-1.238282 -2.087232,-1.706721 -3.92426,-2.065258 -7.115235,-2.259765 -0.06901,-0.0042 -0.181763,-0.01345 -0.230468,-0.0625 -3.902368,-0.265506 -8.015847,-0.226218 -12.923829,2.871093 2.574137,-4.538848 6.254625,-5.251922 10.355469,-5.126953 -0.244756,-0.190417 -0.676198,-0.370683 -0.927734,-0.5527341 -1.9743,-0.6026235 -3.91551,-1.044874 -5.931641,-1.1152344 -0.350812,-0.012238 -0.698354,-0.012668 -1.041015,-0.00195 z m -15.365235,10.2578126 0.03516,3.015625 -2.689453,0.980469 c 1.134037,-1.062955 2.02606,-2.386371 2.654297,-3.996094 z m -11.583984,9.515625 v 1.332031 C 12.80295,29.386026 11.906034,29.40706 11.009766,29.640625 Z"
       transform="matrix(1.0413558,0,0,1.0508518,28.667391,-18.228328)"
       sodipodi:nodetypes="scccccsscssscccssssssssssssssccscsscsssccccsssccsccccccccccccccccccscccccsccccssscccsccccc" />
    <path
       style="fill:#ff9e18;stroke-width:1"
       d="m 77.759294,10.821705 c 1.14696,0.83677 1.905502,2.044148 2.43633,4.123438 1.677215,5.430176 0.04238,12.700992 -3.675006,16.521094 -1.996681,2.05185 -5.541915,4.05905 -8.971498,5.077734 -1.681219,0.49937 -2.612852,0.618122 -5.386729,0.689064 -3.396937,0.08688 -5.082336,-0.1072 -7.989854,-0.921484 -4.75207,-1.117324 -9.00811,-3.482068 -13.833226,-3.699612 0,0 5.478023,3.455282 9.398061,4.708596 11.285063,3.964688 21.054944,3.8642 27.477779,-1.987892 8.98365,-8.941072 5.775466,-22.949102 0.544143,-24.510938 z"
       id="path10" />
    <path
       style="opacity:0.74;fill:#fe7e40;stroke-width:1"
       d="m 70.997171,-9.027122 c -1.070489,0.033812 -2.097523,0.181124 -3.040629,0.4730468 -3.74108,1.1747772 -7.247137,3.8350902 -9.37892,6.6167422 l -1.156642,1.509375 c 6.715764,-5.255271 13.363881,-8.4591264 21.803939,-6.843695 -0.254878,-0.2001 -0.705087,-0.3902567 -0.967026,-0.5815659 -2.055948,-0.633268 -4.078396,-1.0972303 -6.177906,-1.1711687 -0.36532,-0.01286 -0.725983,-0.014 -1.082816,-0.00274 z m 7.80392,4.022266 c -3.158832,0.04616 -6.527348,0.678809 -10.360562,3.119922 4.368735,-1.357639 16.092584,-0.9128046 21.10726,-0.5769706 C 86.91756,-4.440307 85.953436,-4.3872489 83.597743,-4.7212116 83.297068,-4.7638378 82.09869,-4.84941 81.899145,-4.90095 80.883186,-4.97072 79.854038,-5.020244 78.801094,-5.004856 Z M 71.224366,5.577175 c -0.09548,4.759632 -2.129755,8.525724 -6.724079,11.035938 -2.863113,2.571962 -7.129316,13.224826 -8.588685,13.165648 -1.698696,-0.06888 -8.92228,-3.516406 -8.92228,-3.516406 0,0 4.304638,4.292502 5.490633,5.003906 0.682014,0.409098 1.940497,0.927656 2.794537,1.151172 1.523139,0.398636 1.563425,0.39591 2.195706,-0.06288 0.824235,-0.598106 2.159289,-3.341028 4.492585,-9.233982 1.007424,-2.544346 1.928495,-5.658704 2.048049,-5.94143 0.12258,-0.289888 0.498189,-0.570564 0.861329,-0.645312 0.843088,-0.17354 2.142588,-0.359412 2.972513,-0.604298 -0.004,-0.0022 -0.004,-0.006 -0.0082,-0.0082 0.478366,-0.14056 0.935321,-0.298934 1.339846,-0.489454 0.19032,-0.08964 0.366117,-0.18746 0.530469,-0.292578 0.01039,-0.0068 0.02262,-0.0124 0.03282,-0.0192 0.0017,-0.0011 0.0038,-0.0015 0.0054,-0.0028 0.170642,-0.1119 0.324995,-0.23392 0.459376,-0.366406 2.220329,-1.926576 1.823555,-3.054344 1.684378,-4.68125 0,0 0.008,-0.0054 0.0082,-0.0054 z"
       id="path12"
       sodipodi:nodetypes="scccccssssccscssccscsscsssccsccccccc" />
    <path
       style="opacity:0.01;fill:#ffffff;stroke-width:1"
       d="m 61.932705,-13.248997 a 28.000044,28 0 0 0 -28.000046,28 28.000044,28 0 0 0 0.01758,0.492188 28.000044,28 0 0 1 27.982468,-27.492188 28.000044,28 0 0 1 27.974653,27.492188 28.000044,28 0 0 0 0.02539,-0.492188 28.000044,28 0 0 0 -28.000045,-28 z"
       id="path14" />
    <path
       d="m 46.879237,23.150365 h 0.321784 V 21.3624 h -0.546795 v 0.302431 h 0.225011 z"
       fill="#ffc730"
       id="path8-7"
       style="stroke-width:0.108054" />
    <path
       d="m 50.004152,19.853645 c 0,-0.35057 -0.226707,-0.577277 -0.577277,-0.577277 -0.355248,0 -0.579611,0.229041 -0.579611,0.591302 v 0.588969 c 0,0.165938 0.03272,0.282798 0.109847,0.387967 0.107508,0.142566 0.273452,0.219695 0.483789,0.219695 0.198657,0 0.352915,-0.07245 0.453405,-0.210348 0.07712,-0.109848 0.109847,-0.224363 0.109847,-0.397314 z m -0.84605,0.01403 c 0,-0.18931 0.102834,-0.30617 0.271107,-0.30617 0.168273,0 0.264094,0.109847 0.264094,0.30617 v 0.586624 c 0,0.217361 -0.08647,0.324864 -0.26176,0.324864 -0.177619,0 -0.273452,-0.11686 -0.273452,-0.331876 z"
       fill="#ffc730"
       id="path10-9"
       style="stroke-width:0.108054" />
    <path
       d="m 45.661471,22.611177 c 0,-0.35057 -0.226707,-0.577277 -0.577277,-0.577277 -0.355248,0 -0.579611,0.229041 -0.579611,0.591302 v 0.588958 c 0,0.165938 0.03272,0.282798 0.109847,0.387967 0.107511,0.142566 0.273452,0.219695 0.48379,0.219695 0.198656,0 0.352914,-0.07245 0.453404,-0.210337 0.07713,-0.109848 0.109847,-0.224363 0.109847,-0.397314 z m -0.84605,0.01403 c 0,-0.18931 0.102835,-0.30617 0.271107,-0.30617 0.168272,0 0.264105,0.109848 0.264105,0.30617 v 0.586624 c 0,0.217361 -0.08648,0.324864 -0.26176,0.324864 -0.177619,0 -0.273452,-0.11686 -0.273452,-0.331876 z"
       fill="#ffc730"
       id="path12-2"
       style="stroke-width:0.108054" />
    <path
       d="m 43.408118,22.611177 c 0,-0.35057 -0.226707,-0.577277 -0.577277,-0.577277 -0.355248,0 -0.579611,0.229041 -0.579611,0.591302 v 0.588958 c 0,0.165938 0.03272,0.282798 0.109847,0.387967 0.107508,0.142566 0.273452,0.219695 0.483789,0.219695 0.198657,0 0.352915,-0.07245 0.453405,-0.210337 0.07713,-0.109848 0.109847,-0.224363 0.109847,-0.397314 z m -0.84605,0.01403 c 0,-0.18931 0.102835,-0.30617 0.271107,-0.30617 0.168272,0 0.264105,0.109848 0.264105,0.30617 v 0.586624 c 0,0.217361 -0.08648,0.324864 -0.26176,0.324864 -0.177619,0 -0.273452,-0.11686 -0.273452,-0.331876 z"
       fill="#ffc730"
       id="path14-0"
       style="stroke-width:0.108054" />
    <path
       d="m 45.661471,25.013212 c 0,-0.35057 -0.226707,-0.577277 -0.577277,-0.577277 -0.355248,0 -0.579611,0.229041 -0.579611,0.591302 v 0.588958 c 0,0.165938 0.03272,0.282799 0.109847,0.387967 0.107511,0.142566 0.273452,0.219695 0.48379,0.219695 0.198656,0 0.352914,-0.07245 0.453404,-0.210348 0.07713,-0.109848 0.109847,-0.224363 0.109847,-0.397314 z m -0.84605,0.01403 c 0,-0.189311 0.102835,-0.306171 0.271107,-0.306171 0.168272,0 0.264105,0.109848 0.264105,0.306171 v 0.586623 c 0,0.217361 -0.08648,0.324864 -0.26176,0.324864 -0.177619,0 -0.273452,-0.11686 -0.273452,-0.331876 z"
       fill="#ffc730"
       id="path16"
       style="stroke-width:0.108054" />
    <path
       d="m 43.408118,25.013212 c 0,-0.35057 -0.226707,-0.577277 -0.577277,-0.577277 -0.355248,0 -0.579611,0.229041 -0.579611,0.591302 v 0.588958 c 0,0.165938 0.03272,0.282799 0.109847,0.387967 0.107508,0.142566 0.273452,0.219695 0.483789,0.219695 0.198657,0 0.352915,-0.07245 0.453405,-0.210348 0.07713,-0.109848 0.109847,-0.224363 0.109847,-0.397314 z m -0.84605,0.01403 c 0,-0.189311 0.102835,-0.306171 0.271107,-0.306171 0.168272,0 0.264105,0.109848 0.264105,0.306171 v 0.586623 c 0,0.217361 -0.08648,0.324864 -0.26176,0.324864 -0.177619,0 -0.273452,-0.11686 -0.273452,-0.331876 z"
       fill="#ffc730"
       id="path18"
       style="stroke-width:0.108054" />
    <path
       d="m 43.408118,27.282341 c 0,-0.35057 -0.226707,-0.577277 -0.577277,-0.577277 -0.355248,0 -0.579611,0.229041 -0.579611,0.591302 v 0.588958 c 0,0.165938 0.03272,0.282799 0.109847,0.387967 0.107508,0.142566 0.273452,0.219695 0.483789,0.219695 0.198657,0 0.352915,-0.07245 0.453405,-0.210337 0.07713,-0.109848 0.109847,-0.224363 0.109847,-0.397314 z m -0.84605,0.01403 c 0,-0.189311 0.102835,-0.306171 0.271107,-0.306171 0.168272,0 0.264105,0.109848 0.264105,0.306171 v 0.586623 c 0,0.217351 -0.08648,0.324864 -0.26176,0.324864 -0.177619,0 -0.273452,-0.11686 -0.273452,-0.331876 z"
       fill="#ffc730"
       id="path20"
       style="stroke-width:0.108054" />
    <path
       d="m 38.148818,26.238542 h 0.321795 v -1.787966 h -0.546796 v 0.302432 h 0.225012 z"
       fill="#ffc730"
       id="path22"
       style="stroke-width:0.108054" />
    <path
       d="m 41.153576,25.013212 c 0,-0.35057 -0.226707,-0.577277 -0.577276,-0.577277 -0.355249,0 -0.579612,0.229041 -0.579612,0.591302 v 0.588958 c 0,0.165938 0.03272,0.282799 0.109848,0.387967 0.107508,0.142566 0.273452,0.219695 0.483789,0.219695 0.198656,0 0.352914,-0.07245 0.453404,-0.210348 0.07713,-0.109848 0.109847,-0.224363 0.109847,-0.397314 z m -0.846049,0.01403 c 0,-0.189311 0.102834,-0.306171 0.271107,-0.306171 0.168271,0 0.264104,0.109848 0.264104,0.306171 v 0.586623 c 0,0.217361 -0.08648,0.324864 -0.26176,0.324864 -0.177618,0 -0.273451,-0.11686 -0.273451,-0.331876 z"
       fill="#ffc730"
       id="path24"
       style="stroke-width:0.108054" />
    <path
       d="m 40.575597,28.560617 h 0.321784 v -1.787966 h -0.546795 v 0.302432 h 0.225011 z"
       fill="#ffc730"
       id="path26"
       style="stroke-width:0.108054" />
    <path
       d="m 41.227917,29.604416 c 0,-0.350569 -0.226707,-0.577277 -0.577276,-0.577277 -0.355249,0 -0.579612,0.229042 -0.579612,0.591303 v 0.588968 c 0,0.165939 0.03272,0.282799 0.109848,0.387968 0.10751,0.142566 0.273452,0.219694 0.483789,0.219694 0.198656,0 0.352914,-0.07245 0.453404,-0.210348 0.07713,-0.109847 0.109847,-0.224363 0.109847,-0.397314 z m -0.846049,0.01403 c 0,-0.18931 0.102834,-0.30617 0.271107,-0.30617 0.168271,0 0.264104,0.109847 0.264104,0.30617 v 0.586624 c 0,0.217361 -0.08648,0.324864 -0.26176,0.324864 -0.177618,0 -0.273451,-0.116861 -0.273451,-0.331877 z"
       fill="#ffc730"
       id="path28"
       style="stroke-width:0.108054" />
    <path
       d="m 38.283669,28.688121 h 0.321795 v -1.787966 h -0.546795 v 0.302432 h 0.225011 z"
       fill="#ffc730"
       id="path30"
       style="stroke-width:0.108054" />
  </g>
</svg>
