<?xml version="1.0" encoding="UTF-8" standalone="no"?>
<svg
   width="64"
   height="64"
   version="1.1"
   id="svg9913"
   sodipodi:docname="gnome-paint.svg"
   xml:space="preserve"
   inkscape:version="1.2.2 (b0a8486541, 2022-12-01)"
   xmlns:inkscape="http://www.inkscape.org/namespaces/inkscape"
   xmlns:sodipodi="http://sodipodi.sourceforge.net/DTD/sodipodi-0.dtd"
   xmlns:xlink="http://www.w3.org/1999/xlink"
   xmlns="http://www.w3.org/2000/svg"
   xmlns:svg="http://www.w3.org/2000/svg"><sodipodi:namedview
     id="namedview9915"
     pagecolor="#ffffff"
     bordercolor="#000000"
     borderopacity="0.25"
     inkscape:showpageshadow="2"
     inkscape:pageopacity="0.0"
     inkscape:pagecheckerboard="0"
     inkscape:deskcolor="#d1d1d1"
     showgrid="false"
     inkscape:zoom="30.934523"
     inkscape:cx="27.477392"
     inkscape:cy="39.276507"
     inkscape:window-width="1920"
     inkscape:window-height="1026"
     inkscape:window-x="0"
     inkscape:window-y="24"
     inkscape:window-maximized="1"
     inkscape:current-layer="svg9913" /><defs
     id="defs9891"><linearGradient
       inkscape:collect="always"
       id="linearGradient28720"><stop
         style="stop-color:#ffe5f0;stop-opacity:1;"
         offset="0"
         id="stop28716" /><stop
         style="stop-color:#ff2579;stop-opacity:1;"
         offset="1"
         id="stop28718" /></linearGradient><linearGradient
       id="c"
       x1="28.285"
       x2="28.774"
       y1="13.142"
       y2="52.167"
       gradientUnits="userSpaceOnUse"><stop
         stop-color="#ff6c1c"
         offset="0"
         id="stop9878" /><stop
         stop-color="#ff2579"
         offset="1"
         id="stop9880" /></linearGradient><linearGradient
       id="a"
       x1="7.937"
       x2="7.937"
       y1="15.081"
       y2="1.852"
       gradientTransform="translate(0 .032) scale(3.7795)"
       gradientUnits="userSpaceOnUse"><stop
         stop-color="#f1efeb"
         offset="0"
         id="stop9883" /><stop
         stop-color="#fdfcfc"
         offset="1"
         id="stop9885" /></linearGradient><filter
       id="b"
       x="-0.058880826"
       y="-0.061156847"
       width="1.1177617"
       height="1.1223137"
       color-interpolation-filters="sRGB"><feGaussianBlur
         stdDeviation="10.562"
         id="feGaussianBlur9888" /></filter><linearGradient
       inkscape:collect="always"
       xlink:href="#linearGradient4237-67"
       id="linearGradient4276"
       x1="408.24762"
       y1="547.60199"
       x2="407.93527"
       y2="498.89407"
       gradientUnits="userSpaceOnUse"
       gradientTransform="matrix(1.1801404,0,0,1.1801411,-65.774865,-86.449638)" /><linearGradient
       id="linearGradient4207"
       inkscape:swatch="gradient"><stop
         id="stop3371"
         offset="0"
         style="stop-color:#3498db;stop-opacity:1;" /><stop
         id="stop3373"
         offset="1"
         style="stop-color:#3498db;stop-opacity:0;" /></linearGradient><linearGradient
       id="linearGradient4237-67"><stop
         id="stop4239-85"
         style="stop-color:#833cfc;stop-opacity:1"
         offset="0" /><stop
         id="stop4241-07"
         style="stop-color:#f461d4;stop-opacity:1"
         offset="1" /></linearGradient><linearGradient
       inkscape:collect="always"
       xlink:href="#c"
       id="linearGradient23378"
       gradientUnits="userSpaceOnUse"
       gradientTransform="matrix(0.98702948,0.16028981,-0.16028981,0.98702948,10.281646,-1.995993)"
       x1="28.285"
       y1="13.142"
       x2="28.773996"
       y2="52.167019" /><linearGradient
       inkscape:collect="always"
       xlink:href="#c"
       id="linearGradient23386"
       x1="416.37805"
       y1="514.47656"
       x2="416.86703"
       y2="553.5"
       gradientUnits="userSpaceOnUse" /><linearGradient
       inkscape:collect="always"
       xlink:href="#linearGradient28720"
       id="linearGradient28722"
       x1="25.203775"
       y1="35.465847"
       x2="27.725103"
       y2="48.662197"
       gradientUnits="userSpaceOnUse"
       gradientTransform="matrix(0.9228443,0.04863949,-0.04863949,0.9228443,6.749307,4.0148172)" /></defs><g
     color="#000"
     id="g9903"><path
       d="M4.37.53C2.254.53.53 2.312.53 4.496v8.468c0 2.184 1.725 3.968 3.84 3.968h8.194c2.114 0 3.84-1.783 3.84-3.968V4.497c0-2.184-1.726-3.968-3.84-3.968zm.256.52h7.681c1.844 0 3.33 1.534 3.33 3.44v7.937c0 1.906-1.485 3.44-3.33 3.44h-7.68c-1.845 0-3.33-1.534-3.33-3.44V4.49c0-1.906 1.485-3.44 3.33-3.44z"
       opacity=".01"
       style="font-feature-settings:normal;font-variant-alternates:normal;font-variant-caps:normal;font-variant-east-asian:normal;font-variant-ligatures:normal;font-variant-numeric:normal;font-variant-position:normal;font-variation-settings:normal;inline-size:0;isolation:auto;mix-blend-mode:normal;shape-margin:0;shape-padding:0;text-decoration-color:#000;text-decoration-line:none;text-decoration-style:solid;text-indent:0;text-orientation:mixed;text-transform:none;white-space:normal"
       transform="scale(3.7796)"
       id="path9893" /><path
       d="M4.359.794C2.392.794.795 2.447.795 4.48v8.5c0 2.035 1.597 3.688 3.564 3.688h8.216c1.967 0 3.564-1.653 3.564-3.688v-8.5c0-2.034-1.597-3.687-3.564-3.687zm.272.256h7.672c1.842 0 3.325 1.534 3.325 3.44v7.937c0 1.906-1.483 3.44-3.325 3.44H4.63c-1.842 0-3.325-1.534-3.325-3.44V4.49c0-1.906 1.483-3.44 3.325-3.44z"
       opacity=".01"
       style="font-feature-settings:normal;font-variant-alternates:normal;font-variant-caps:normal;font-variant-east-asian:normal;font-variant-ligatures:normal;font-variant-numeric:normal;font-variant-position:normal;font-variation-settings:normal;inline-size:0;isolation:auto;mix-blend-mode:normal;shape-margin:0;shape-padding:0;text-decoration-color:#000;text-decoration-line:none;text-decoration-style:solid;text-indent:0;text-orientation:mixed;text-transform:none;white-space:normal"
       transform="scale(3.7796)"
       id="path9895" /><path
       d="M4.31 1.058c-1.866 0-3.375 1.539-3.375 3.44v8.467c0 1.9 1.57 3.439 3.435 3.439h8.2c1.866 0 3.427-1.538 3.427-3.44V4.498c0-1.9-1.51-3.439-3.375-3.439h-.097c1.794.087 3.214 1.582 3.214 3.432v7.937c0 1.906-1.506 3.44-3.377 3.44h-7.79c-1.871 0-3.377-1.534-3.377-3.44V4.49c0-1.85 1.42-3.345 3.214-3.432z"
       opacity=".03"
       style="font-feature-settings:normal;font-variant-alternates:normal;font-variant-caps:normal;font-variant-east-asian:normal;font-variant-ligatures:normal;font-variant-numeric:normal;font-variant-position:normal;font-variation-settings:normal;inline-size:0;isolation:auto;mix-blend-mode:normal;shape-margin:0;shape-padding:0;text-decoration-color:#000;text-decoration-line:none;text-decoration-style:solid;text-indent:0;text-orientation:mixed;text-transform:none;white-space:normal"
       transform="scale(3.7796)"
       id="path9897" /><path
       d="M4 46.969V49c0 6.648 5.896 12 12.544 12h30.961C54.153 61 60 55.648 60 49v-1.992a12.972 12.972 0 0 1-13 12.963H17.002A12.973 12.973 0 0 1 4 46.969z"
       opacity=".03"
       style="font-feature-settings:normal;font-variant-alternates:normal;font-variant-caps:normal;font-variant-east-asian:normal;font-variant-ligatures:normal;font-variant-numeric:normal;font-variant-position:normal;font-variation-settings:normal;inline-size:0;isolation:auto;mix-blend-mode:normal;shape-margin:0;shape-padding:0;text-decoration-color:#000;text-decoration-line:none;text-decoration-style:solid;text-indent:0;text-orientation:mixed;text-transform:none;white-space:normal"
       id="path9899" /><path
       d="M1.058 11.906v.592c0 1.939 1.573 3.5 3.332 3.5h8.16c1.76 0 3.325-1.561 3.325-3.5v-.58c-.006 2.095-1.537 3.78-3.44 3.78H4.498c-1.905 0-3.44-1.692-3.44-3.792z"
       opacity=".05"
       style="font-feature-settings:normal;font-variant-alternates:normal;font-variant-caps:normal;font-variant-east-asian:normal;font-variant-ligatures:normal;font-variant-numeric:normal;font-variant-position:normal;font-variation-settings:normal;inline-size:0;isolation:auto;mix-blend-mode:normal;shape-margin:0;shape-padding:0;text-decoration-color:#000;text-decoration-line:none;text-decoration-style:solid;text-indent:0;text-orientation:mixed;text-transform:none;white-space:normal"
       transform="scale(3.7796)"
       id="path9901" /></g><g
     inkscape:label="Capa 1"
     id="layer1"
     transform="translate(-384.57144,-499.798)"
     style="display:inline"><rect
       style="opacity:1;fill:#f2f2f2;fill-opacity:1;stroke:none;stroke-width:0.5;stroke-dasharray:none;stroke-opacity:1"
       id="rect4166"
       width="56"
       height="56"
       x="388.57144"
       y="503.798"
       ry="13"
       rx="13" /><path
       style="fill:url(#linearGradient23386);stroke-width:1.16666;fill-opacity:1.0"
       inkscape:connector-curvature="0"
       d="m 418.98465,529.70165 a 2.3333323,2.3333336 0 0 1 -2.33335,-2.33335 2.3333323,2.3333336 0 0 1 2.33335,-2.3333 2.3333323,2.3333336 0 0 1 2.33333,2.3333 2.3333323,2.3333336 0 0 1 -2.33333,2.33335 m -4.66668,-6.22223 a 2.3333323,2.3333336 0 0 1 -2.33334,-2.33334 2.3333323,2.3333336 0 0 1 2.33334,-2.33332 2.3333323,2.3333336 0 0 1 2.33333,2.33332 2.3333323,2.3333336 0 0 1 -2.33333,2.33334 m -7.77777,0 a 2.3333323,2.3333336 0 0 1 -2.33333,-2.33334 2.3333323,2.3333336 0 0 1 2.33333,-2.33332 2.3333323,2.3333336 0 0 1 2.33333,2.33332 2.3333323,2.3333336 0 0 1 -2.33333,2.33334 m -4.66667,6.22223 a 2.3333323,2.3333336 0 0 1 -2.33332,-2.33335 2.3333323,2.3333336 0 0 1 2.33332,-2.3333 2.3333323,2.3333336 0 0 1 2.33334,2.3333 2.3333323,2.3333336 0 0 1 -2.33334,2.33335 m 8.55556,-14.00001 a 13.999994,14.000001 0 0 0 -14.00001,14.00001 13.999994,14.000001 0 0 0 14.00001,13.99999 2.3333323,2.3333336 0 0 0 2.33331,-2.33333 c 0,-0.60667 -0.2333,-1.15111 -0.60664,-1.55556 -0.3578,-0.41999 -0.59113,-0.96444 -0.59113,-1.55555 a 2.3333323,2.3333336 0 0 1 2.33334,-2.33333 h 2.75333 a 7.7777742,7.7777787 0 0 0 7.77779,-7.77778 c 0,-6.87556 -6.26891,-12.44445 -14,-12.44445 z"
       id="path4190" /><path
       style="display:none;fill:#f2f2f2;fill-opacity:1;stroke-width:1.16666"
       inkscape:connector-curvature="0"
       d="m 438.23765,525.8288 -1.56333,-1.56334 c -0.43167,-0.455 -1.19001,-0.455 -1.64501,0 l -10.45333,10.45334 3.20833,3.20833 10.45334,-10.45333 c 0.455,-0.45501 0.455,-1.21334 0,-1.645 m -15.99501,10.93166 a 3.5000002,3.5000022 0 0 0 -3.49999,3.50001 c 0,1.52832 -1.35334,2.33333 -2.33334,2.33333 1.07333,1.42334 2.91667,2.33334 4.66667,2.33334 a 4.6666669,4.6666696 0 0 0 4.66667,-4.66667 3.5000002,3.5000022 0 0 0 -3.50001,-3.50001 z"
       id="path4201" /></g><g
     transform="matrix(0.08965,0,0,0.08965,12.684,12.68)"
     fill-opacity="0.847"
     filter="url(#b)"
     opacity="0.15"
     stroke-width="0.792"
     id="g9909"
     style="display:none"><path
       d="m 406.36,8.039 a 23.19,23.19 0 0 0 -18.256,10.174 c -4.3,6.338 -105.407,155.475 -118.422,177.917 -6.51,11.224 -13.854,29.44 -19.956,46.097 l 52.545,30.804 c 11.443,-13.575 23.66,-29.073 30.26,-40.455 13.17,-22.709 92.256,-184.275 95.616,-191.146 5.357,-10.945 1.347,-24.171 -9.194,-30.281 A 23.129,23.129 0 0 0 406.361,8.034 Z M 26.89,185.655 a 2.041,2.041 0 0 0 -1.439,0.37 c -15.78,11.433 -26.224,32.211 -25.4,50.52 0.438,9.765 4.19,23.325 19.606,32.504 8.298,4.94 21.726,5.966 34.703,6.972 12.768,0.989 25.974,2.029 30.043,6.993 1.065,1.3 1.48,2.875 1.241,4.858 -0.888,9.078 -5.302,18.021 -9.563,26.664 -8.047,16.328 -16.364,33.201 -1.983,51.936 12.631,16.45 29.394,16.459 46.62,16.338 1.41,-0.01 2.837,-0.022 4.249,-0.022 7.515,0 16.179,0.22 24.05,2.962 5.602,2.171 8.42,6.668 9.738,15.577 1.009,5.462 3.445,9.768 6.666,13.006 a 14.975,14.975 0 0 1 3.29,-6.928 c 8.458,-9.986 6.796,-19.325 2.57,-37.819 -1.962,-8.595 -4.137,-18.134 -4.683,-28.516 -4.498,-1.502 -8.887,-2.385 -13.333,-2.658 a 39.066,39.066 0 0 0 -2.374,-0.066 c -6.69,0 -15.093,1.48 -23.223,2.898 -7.245,1.265 -14.09,2.44 -18.866,2.44 -3.359,0 -4.526,-0.595 -4.901,-0.915 -4.06,-5.095 1.824,-18.93 4.335,-24.857 0.642,-1.512 1.146,-2.72 1.438,-3.573 4.072,-11.981 7.054,-24.733 1.416,-36.838 -4.687,-10.065 -15.64,-18.076 -27.82,-20.39 -3.547,-0.839 -7.613,-1.22 -12.809,-1.22 -4.277,0 -8.862,0.26 -13.289,0.522 -4.54,0.27 -9.228,0.567 -13.725,0.567 -15.464,0 -24.376,-3.545 -29.759,-11.786 -9.992,-15.865 2.012,-44.285 14.336,-56.118 a 1.998,1.998 0 0 0 0.152,-2.723 1.984,1.984 0 0 0 -1.285,-0.697 z m 216.588,68.058 a 55.41,55.41 0 0 0 -8.605,1.742 c -13.718,3.937 -33.543,15.223 -50.171,46.664 -13.202,24.962 -8.33,46.325 -4.03,65.182 4.108,18.023 7.344,32.27 -4.728,46.511 a 4.973,4.973 0 0 0 -0.85,5.032 5.058,5.058 0 0 0 2.157,2.527 5.08,5.08 0 0 0 1.896,0.632 c 30.535,3.836 76.23,-14.183 104.416,-62.785 12.802,-22.073 18.301,-43.287 15.903,-61.369 -0.624,-4.717 -1.792,-9.177 -3.442,-13.332 l -52.545,-30.804 z"
       fill-opacity="1"
       id="path9907" /></g><path
     transform="matrix(0.99996,0,0,0.99996,-0.017,-0.02)"
     d="m 49.133,13.422 a 2.08,2.08 0 0 0 -1.637,0.912 c -0.385,0.568 -9.45,13.94 -10.617,15.951 -0.583,1.006 -1.242,2.64 -1.789,4.133 l 4.711,2.762 c 1.026,-1.217 2.121,-2.607 2.713,-3.627 1.18,-2.036 8.271,-16.521 8.572,-17.137 A 2.08,2.08 0 0 0 49.133,13.422 Z M 15.112,29.346 a 0.183,0.183 0 0 0 -0.129,0.033 c -1.415,1.025 -2.351,2.888 -2.277,4.53 0.04,0.875 0.376,2.09 1.758,2.914 0.744,0.442 1.947,0.534 3.11,0.625 1.146,0.088 2.33,0.182 2.694,0.627 a 0.547,0.547 0 0 1 0.112,0.435 c -0.08,0.814 -0.476,1.616 -0.858,2.39 -0.721,1.465 -1.467,2.977 -0.178,4.657 1.133,1.475 2.636,1.475 4.18,1.465 l 0.381,-0.002 c 0.674,0 1.45,0.02 2.156,0.265 0.502,0.195 0.755,0.598 0.873,1.397 0.09,0.49 0.31,0.876 0.598,1.166 0.042,-0.225 0.141,-0.44 0.295,-0.621 0.758,-0.896 0.61,-1.733 0.23,-3.39 -0.176,-0.771 -0.37,-1.627 -0.42,-2.557 a 4.64,4.64 0 0 0 -1.195,-0.239 3.502,3.502 0 0 0 -0.213,-0.006 c -0.6,0 -1.353,0.133 -2.082,0.26 -0.65,0.114 -1.263,0.219 -1.691,0.219 -0.301,0 -0.406,-0.053 -0.44,-0.082 -0.364,-0.457 0.164,-1.697 0.389,-2.229 a 5.52,5.52 0 0 0 0.129,-0.32 c 0.365,-1.074 0.632,-2.217 0.127,-3.303 -0.42,-0.902 -1.402,-1.62 -2.494,-1.828 a 4.979,4.979 0 0 0 -1.149,-0.11 c -0.383,0 -0.794,0.024 -1.191,0.048 -0.407,0.024 -0.827,0.05 -1.23,0.05 -1.387,0 -2.186,-0.317 -2.668,-1.056 -0.896,-1.423 0.18,-3.97 1.285,-5.031 a 0.18,0.18 0 0 0 -0.102,-0.307 z m 19.418,6.102 c -0.257,0.03 -0.515,0.083 -0.771,0.156 -1.23,0.353 -3.008,1.365 -4.498,4.183 -1.184,2.238 -0.747,4.154 -0.362,5.844 0.368,1.616 0.659,2.893 -0.424,4.17 a 0.446,0.446 0 0 0 0.118,0.678 c 0.05,0.03 0.109,0.049 0.17,0.057 2.737,0.343 6.834,-1.272 9.36,-5.63 1.149,-1.978 1.642,-3.88 1.427,-5.501 a 5.014,5.014 0 0 0 -0.309,-1.196 l -4.71,-2.761 z"
     fill="url(#c)"
     id="path9911"
     style="display:none" /><path
     d="m 54.626095,21.127894 c -0.655239,-0.079 -1.309086,0.157679 -1.761951,0.637777 -0.471051,0.498921 -9.562008,10.243994 -11.036216,12.041852 -0.736689,0.899502 -1.649055,2.406678 -2.428272,3.792634 l 4.207175,3.481301 c 1.207765,-1.036757 2.511365,-2.233212 3.259182,-3.14509 1.491045,-1.82045 8.812009,-12.980499 9.207843,-13.540262 0.912066,-1.286016 0.11753,-3.079623 -1.447761,-3.268212 z M 38.68182,38.527035 c -0.258475,-0.01158 -0.521624,-6.24e-4 -0.786005,0.03039 -1.270629,0.151265 -3.187779,0.865144 -5.11015,3.407762 -1.527371,2.019187 -1.403155,3.980383 -1.294038,5.710175 0.104197,1.654026 0.186733,2.961106 -1.086909,4.047949 -0.214291,0.180826 -0.210538,0.512195 0.0078,0.688121 0.04454,0.03763 0.09973,0.06583 0.158659,0.08351 2.646521,0.777264 6.949248,-0.160081 10.141027,-4.056663 1.45115,-1.768171 2.242627,-3.566479 2.290246,-5.200916 0.01308,-0.413109 -0.02497,-0.826247 -0.113286,-1.230017 l -4.206351,-3.480151 z"
     fill="url(#c)"
     id="path23372"
     style="display:inline;fill:url(#linearGradient23378);fill-opacity:1;stroke-width:0.99996"
     sodipodi:nodetypes="cccccccccccccccccccc" /><path
     d="m 19.267955,31.831646 c -0.04183,-0.0074 -0.0849,0.0012 -0.120652,0.02418 -1.35568,0.877091 -2.310078,2.550823 -2.321653,4.069733 -0.0056,0.809434 0.245332,1.947033 1.480624,2.774676 0.665098,0.444086 1.770805,0.5875 2.839647,0.728046 1.053299,0.136958 2.074906,0.332569 2.389177,0.76094 0.08181,0.150091 0.108686,0.185875 0.0822,0.406885 -0.11342,0.747304 -0.451408,1.416883 -0.841581,2.112584 -0.736627,1.316899 -1.498612,2.675954 -0.39078,4.289028 0.97384,1.416305 2.360873,1.48941 3.786232,1.55528 l 0.351698,0.01673 c 0.621997,0.03278 1.337152,0.08898 1.976763,0.349421 0.453783,0.204371 0.667661,0.588583 0.737694,1.331675 0.05922,0.456571 0.243474,0.82349 0.495146,1.105123 0.0497,-0.205597 0.151524,-0.399193 0.302446,-0.558738 1.098353,-1.910483 0.127267,-3.564128 0.113918,-5.497396 -0.349891,-0.140464 -0.71678,-0.234166 -1.091174,-0.278684 -0.06524,-0.0073 -0.130703,-0.0126 -0.196277,-0.01585 -0.553706,-0.02918 -1.255076,0.05693 -1.934007,0.138672 -0.605394,0.07359 -1.176206,0.140673 -1.571182,0.119855 -0.277777,-0.01464 -0.372096,-0.06866 -0.402063,-0.09708 -0.313687,-0.439445 0.233887,-1.55809 0.467403,-2.038099 0.04787,-0.09492 0.09276,-0.191311 0.134612,-0.289036 0.389077,-0.973381 0.691071,-2.015205 0.277858,-3.041978 -0.343722,-0.852834 -1.215032,-1.563199 -2.212661,-1.808266 -0.344374,-0.0932 -0.69842,-0.146011 -1.054998,-0.157399 -0.353449,-0.01863 -0.733905,-0.01647 -1.101442,-0.01363 -0.376765,0.0024 -0.765625,0.0059 -1.13753,-0.01368 -1.279986,-0.06746 -2.00192,-0.398868 -2.410787,-1.104293 -0.757654,-1.356789 0.359212,-3.654937 1.430561,-4.580329 0.103934,-0.09159 0.05694,-0.262644 -0.0792,-0.288274 z"
     id="path27948"
     style="display:inline;fill:url(#linearGradient28722);fill-opacity:1;stroke-width:0.924125"
     sodipodi:nodetypes="cccccccccccccccccccscccccccscccc" /></svg>
