<?xml version="1.0" encoding="UTF-8" standalone="no"?>
<svg
   xmlns:dc="http://purl.org/dc/elements/1.1/"
   xmlns:cc="http://creativecommons.org/ns#"
   xmlns:rdf="http://www.w3.org/1999/02/22-rdf-syntax-ns#"
   xmlns:svg="http://www.w3.org/2000/svg"
   xmlns="http://www.w3.org/2000/svg"
   xmlns:sodipodi="http://sodipodi.sourceforge.net/DTD/sodipodi-0.dtd"
   xmlns:inkscape="http://www.inkscape.org/namespaces/inkscape"
   width="64"
   height="64"
   fill="none"
   version="1.1"
   viewBox="0 0 64 64"
   id="svg32"
   sodipodi:docname="htop.svg"
   inkscape:version="1.0.2 (e86c870879, 2021-01-15)">
  <sodipodi:namedview
     pagecolor="#ffffff"
     bordercolor="#666666"
     borderopacity="1"
     objecttolerance="10"
     gridtolerance="10"
     guidetolerance="10"
     inkscape:pageopacity="0"
     inkscape:pageshadow="2"
     inkscape:window-width="1920"
     inkscape:window-height="992"
     id="namedview34"
     showgrid="false"
     inkscape:zoom="11.453125"
     inkscape:cx="32"
     inkscape:cy="32"
     inkscape:window-x="0"
     inkscape:window-y="24"
     inkscape:window-maximized="1"
     inkscape:current-layer="g30"
     inkscape:document-rotation="0" />
  <metadata
     id="metadata2">
    <rdf:RDF>
      <cc:Work
         rdf:about="">
        <dc:format>image/svg+xml</dc:format>
        <dc:type
           rdf:resource="http://purl.org/dc/dcmitype/StillImage" />
      </cc:Work>
    </rdf:RDF>
  </metadata>
  <defs
     id="defs16">
    <mask
       id="mask6">
      <path
         d="m0.625 3.743h62.749v60.254h-62.749z"
         fill="#fff"
         stroke="#000"
         stroke-miterlimit="10"
         id="path4" />
    </mask>
    <filter
       id="filter1057"
       x="-.027"
       y="-.027"
       width="1.054"
       height="1.054"
       color-interpolation-filters="sRGB">
      <feGaussianBlur
         stdDeviation="0.61875"
         id="feGaussianBlur8" />
    </filter>
    <linearGradient
       id="linearGradient1053-3"
       x1="-127"
       x2="-72"
       y1="60"
       y2="5"
       gradientTransform="translate(192.81 23.753)"
       gradientUnits="userSpaceOnUse">
      <stop
         stop-color="#323741"
         offset="0"
         id="stop11" />
      <stop
         stop-color="#465064"
         offset="1"
         id="stop13" />
    </linearGradient>
  </defs>
  <g
     transform="translate(-61.305,-24.263)"
     id="g30">
    <rect
       x="65.805"
       y="28.763"
       width="55"
       height="55"
       ry="15"
       fill="#141414"
       filter="url(#filter1057)"
       image-rendering="optimizeSpeed"
       opacity="0.3"
       stroke-linecap="round"
       stroke-width="2.7444"
       id="rect18" />
    <rect
       x="65.805"
       y="28.763"
       width="55"
       height="55"
       ry="15"
       fill="url(#linearGradient1053-3)"
       image-rendering="optimizeSpeed"
       stroke-linecap="round"
       stroke-width="2.7444"
       id="rect20" />
    <path
       d="m 87.0726,34.594602 -0.05833,43.336796 h 0.17814 l 0.06621,-43.336796 z m 6.167184,0 -0.0599,43.336796 h 0.186021 l 0.05833,-43.336796 z m 6.23806,0 -0.05833,43.336796 h 0.17812 l 0.05993,-43.336796 z m -18.434079,0.04406 c -0.06173,0.0078 -0.124617,0.0078 -0.186022,0.0117 l -0.05833,43.21609 c 0.05923,0.0078 0.118602,0.0117 0.17814,0.0195 z m 24.690185,0.003 -0.06,43.246009 c 0.0595,-0.0078 0.12052,-0.0078 0.17971,-0.0117 l 0.0647,-43.217122 c -0.0613,-0.0078 -0.12284,-0.0117 -0.18443,-0.0195 z m 6.11984,2.779349 -0.0505,37.729611 c 0.0591,-0.05537 0.12201,-0.107233 0.17971,-0.163769 l 0.0552,-37.398441 c -0.0588,-0.05849 -0.12435,-0.109956 -0.18443,-0.167277 z m -37.048704,0.05693 c -0.05962,0.05771 -0.119943,0.114248 -0.178141,0.173125 l -0.05676,37.160123 c 0.05974,0.06161 0.118447,0.123998 0.179719,0.184434 z"
       color="#000000"
       color-rendering="auto"
       dominant-baseline="auto"
       fill="#42d2b2"
       image-rendering="auto"
       shape-rendering="auto"
       solid-color="#000000"
       style="font-variant-ligatures:normal;font-variant-position:normal;font-variant-caps:normal;font-variant-numeric:normal;font-variant-alternates:normal;font-feature-settings:normal;text-indent:0;text-decoration:none;text-decoration-line:none;text-decoration-style:solid;text-decoration-color:#000000;text-transform:none;text-orientation:mixed;white-space:normal;shape-padding:0;isolation:auto;mix-blend-mode:normal;stroke-width:1.03168"
       id="path22" />
    <path
       d="m 74.617113,37.60092 c -0.05721,0.05732 -0.108109,0.120872 -0.163954,0.17976 h 37.704851 c -0.0559,-0.05888 -0.10676,-0.122439 -0.16392,-0.17976 z m -2.927497,6.190706 c -0.006,0.05927 -0.0046,0.120097 -0.0095,0.17976 h 43.252194 c -0.005,-0.05927 -0.004,-0.12049 -0.01,-0.17976 z m -0.0536,6.203396 v 0.178191 h 43.338864 v -0.178191 z m 0,6.171825 v 0.184434 h 43.338864 v -0.184434 z m 0,6.190809 v 0.179761 h 43.338864 v -0.179761 z m 0.04415,6.184516 c 0.005,0.06161 0.0034,0.124771 0.0095,0.185991 h 43.232594 c 0.007,-0.06122 0.004,-0.12439 0.01,-0.185991 z m 2.774603,6.203395 c 0.05535,0.05809 0.105676,0.121264 0.162377,0.178193 h 37.376774 c 0.0567,-0.05693 0.10704,-0.119706 0.1624,-0.178193 z"
       color="#000000"
       color-rendering="auto"
       dominant-baseline="auto"
       fill="#42d2b2"
       image-rendering="auto"
       shape-rendering="auto"
       solid-color="#000000"
       style="font-variant-ligatures:normal;font-variant-position:normal;font-variant-caps:normal;font-variant-numeric:normal;font-variant-alternates:normal;font-feature-settings:normal;text-indent:0;text-decoration:none;text-decoration-line:none;text-decoration-style:solid;text-decoration-color:#000000;text-transform:none;text-orientation:mixed;white-space:normal;shape-padding:0;isolation:auto;mix-blend-mode:normal;stroke-width:1.03168"
       id="path24" />
    <path
       d="m 91.254287,42.704503 c -0.08605,0.01176 -0.154945,0.1187 -0.2462,0.346303 -0.176467,0.44021 -0.217066,1.073809 -0.448739,6.985883 -0.122277,3.120373 -0.388612,5.916425 -0.617917,6.488468 -0.296836,0.740483 -0.791582,0.508838 -2.035076,-0.951825 -0.63993,-0.75172 -1.364352,-1.516706 -1.609998,-1.700062 -0.422787,-0.315353 -0.470673,-0.318101 -0.899885,-0.05132 -0.249418,0.155133 -0.574538,0.559927 -0.722219,0.900042 -0.381359,0.878223 -0.903867,1.353872 -1.630613,1.483226 -0.346193,0.06151 -2.132156,0.01567 -3.968273,-0.105381 l -3.186616,-0.207241 c 5.29e-4,0.168846 0.0013,0.337691 0.0012,0.506682 l 1.66999,0.1375 c 1.000904,0.08267 2.782154,0.150822 3.958564,0.150822 2.494514,0 2.921229,-0.166493 3.475239,-1.35439 0.188945,-0.405105 0.422122,-0.782399 0.51786,-0.838494 0.367725,-0.215458 0.877297,0.142207 1.922835,1.350347 0.596157,0.688887 1.280798,1.37512 1.521426,1.524687 0.58563,0.363934 1.139759,0.174721 1.431107,-0.488314 0.296575,-0.67475 0.591063,-3.495481 0.714333,-6.84492 0.106537,-2.894625 0.198752,-3.569798 0.43903,-3.201116 0.138856,0.213114 0.275805,1.406111 0.444483,3.874527 0.0348,0.509356 0.191389,2.289725 0.34807,3.956723 0.525922,5.596044 0.714747,6.595227 1.217641,6.437264 0.26481,-0.08345 0.614353,-1.470684 0.636713,-2.5276 0.0094,-0.442905 0.133196,-1.067695 0.274692,-1.388905 0.2922,-0.663265 0.433924,-0.688649 2.159972,-0.387049 1.567128,0.273832 1.899927,0.101068 2.57294,-1.334282 0.903784,-1.927469 0.937814,-1.974423 1.459594,-2.031844 0.40674,-0.04467 0.64891,0.113611 1.41169,0.925933 2.8008,2.981587 3.11942,3.100887 4.63888,1.737999 0.51625,-0.463087 1.01505,-0.841979 1.1091,-0.841979 0.094,0 0.59249,0.340821 1.10727,0.7574 0.76489,0.619233 1.06343,0.757989 1.63421,0.757989 h 0.16615 V 56.26666 h -0.0594 c -0.4412,0 -0.82411,-0.190778 -1.52513,-0.758031 -1.25964,-1.019716 -1.67697,-1.00706 -2.73667,0.08383 -1.19767,1.233016 -1.25495,1.214464 -3.4916,-1.151961 -2.29762,-2.430896 -2.82906,-2.400216 -3.903922,0.226039 -0.227429,0.555613 -0.600052,1.196013 -0.827731,1.423316 -0.400241,0.399662 -0.448018,0.40667 -1.449324,0.210761 -1.515427,-0.296945 -2.09976,-0.258553 -2.514695,0.16414 -0.197978,0.201754 -0.406153,0.504566 -0.462677,0.673495 -0.130239,0.389007 -0.381426,0.395547 -0.50392,0.01176 -0.141964,-0.443766 -0.441417,-2.971843 -0.543372,-4.588881 -0.129367,-2.051538 -0.783576,-8.587062 -0.913838,-9.129253 -0.06054,-0.251891 -0.219488,-0.54437 -0.353533,-0.649873 -0.07238,-0.0572 -0.130273,-0.08502 -0.18191,-0.07835 z"
       fill="#000000"
       opacity="0.25"
       stroke-width="0.864237"
       id="path26" />
    <path
       d="m 91.254287,42.523115 c -0.08605,0.01175 -0.154945,0.118699 -0.2462,0.346303 -0.176467,0.44017 -0.217066,1.073811 -0.448739,6.985884 -0.122277,3.120373 -0.388612,5.916425 -0.617917,6.488365 -0.296836,0.740515 -0.791582,0.508879 -2.035076,-0.951784 -0.63993,-0.751719 -1.364352,-1.516808 -1.609998,-1.700062 -0.422787,-0.315354 -0.470673,-0.318101 -0.899885,-0.05132 -0.249418,0.155133 -0.574538,0.559968 -0.722219,0.900043 -0.381359,0.878253 -0.903867,1.353975 -1.630613,1.483225 -0.346193,0.06151 -2.132156,0.01567 -3.968273,-0.105379 l -3.186616,-0.207237 c 5.29e-4,0.168845 0.0013,0.33769 0.0012,0.506649 l 1.66999,0.137501 c 1.000904,0.08267 2.782154,0.15082 3.958564,0.15082 2.494514,0 2.921229,-0.166491 3.475239,-1.354389 0.188945,-0.405104 0.422122,-0.782399 0.51786,-0.838494 0.367725,-0.215457 0.877297,0.142207 1.922835,1.350348 0.596157,0.688844 1.280798,1.375119 1.521426,1.524582 0.58563,0.363935 1.139759,0.174722 1.431107,-0.488272 0.296575,-0.67475 0.591063,-3.495482 0.714333,-6.844919 0.106537,-2.894625 0.198752,-3.569799 0.43903,-3.201117 0.138856,0.213113 0.275805,1.406111 0.444483,3.874528 0.0348,0.509386 0.191389,2.289827 0.34807,3.956824 0.525922,5.596046 0.714747,6.595228 1.217641,6.437266 0.26481,-0.08345 0.614353,-1.470686 0.636713,-2.5276 0.0094,-0.442874 0.133196,-1.067696 0.274692,-1.388906 0.2922,-0.663263 0.433924,-0.688648 2.159972,-0.387047 1.567128,0.273831 1.899927,0.101068 2.57294,-1.334282 0.903784,-1.927469 0.937814,-1.974423 1.459594,-2.031845 0.40674,-0.04466 0.64891,0.11361 1.41169,0.925934 2.8008,2.981585 3.11942,3.100886 4.63888,1.737997 0.51625,-0.463046 1.01505,-0.841947 1.1091,-0.841947 0.094,0 0.59249,0.340821 1.10727,0.7574 0.76489,0.619233 1.06343,0.757991 1.63421,0.757991 h 0.16615 V 56.08526 h -0.0594 c -0.4412,0 -0.82411,-0.190777 -1.52513,-0.75799 -1.25964,-1.019758 -1.67697,-1.007102 -2.73667,0.08383 -1.19767,1.233016 -1.25495,1.214463 -3.4916,-1.151963 -2.29762,-2.430894 -2.82906,-2.400111 -3.903922,0.22604 -0.227429,0.555696 -0.600052,1.196013 -0.827731,1.42342 -0.400241,0.399663 -0.448018,0.40667 -1.449324,0.210761 -1.515427,-0.296945 -2.09976,-0.258554 -2.514695,0.16414 -0.197978,0.201754 -0.406153,0.504524 -0.462677,0.673453 -0.130239,0.389007 -0.381426,0.395548 -0.50392,0.01175 -0.141964,-0.443727 -0.441417,-2.971834 -0.543372,-4.588873 -0.129367,-2.051537 -0.783576,-8.587062 -0.913838,-9.129253 -0.06054,-0.25189 -0.219488,-0.544328 -0.353533,-0.649874 -0.07238,-0.05681 -0.130273,-0.08501 -0.18191,-0.07796 z"
       fill="#00e6b5"
       stroke-width="0.864237"
       id="path28" />
  </g>
</svg>
