<?xml version="1.0" encoding="UTF-8" standalone="no"?>
<svg
   xmlns:dc="http://purl.org/dc/elements/1.1/"
   xmlns:cc="http://creativecommons.org/ns#"
   xmlns:rdf="http://www.w3.org/1999/02/22-rdf-syntax-ns#"
   xmlns:svg="http://www.w3.org/2000/svg"
   xmlns="http://www.w3.org/2000/svg"
   xmlns:xlink="http://www.w3.org/1999/xlink"
   xmlns:sodipodi="http://sodipodi.sourceforge.net/DTD/sodipodi-0.dtd"
   xmlns:inkscape="http://www.inkscape.org/namespaces/inkscape"
   width="32"
   height="32"
   version="1.1"
   viewBox="0 0 32 32"
   id="svg36"
   sodipodi:docname="kalgebra.svg"
   inkscape:version="1.0.2 (e86c870879, 2021-01-15)">
  <sodipodi:namedview
     id="namedview38"
     pagecolor="#ffffff"
     bordercolor="#666666"
     borderopacity="1.0"
     inkscape:pageshadow="2"
     inkscape:pageopacity="0.0"
     inkscape:pagecheckerboard="0"
     showgrid="false"
     inkscape:zoom="25.28125"
     inkscape:cx="15.584672"
     inkscape:cy="16.746502"
     inkscape:window-width="1920"
     inkscape:window-height="970"
     inkscape:window-x="0"
     inkscape:window-y="26"
     inkscape:window-maximized="1"
     inkscape:current-layer="g30"
     inkscape:document-rotation="0" />
  <metadata
     id="metadata2">
    <rdf:RDF>
      <cc:Work
         rdf:about="">
        <dc:format>image/svg+xml</dc:format>
        <dc:type
           rdf:resource="http://purl.org/dc/dcmitype/StillImage" />
        <dc:title />
      </cc:Work>
    </rdf:RDF>
  </metadata>
  <defs
     id="defs20">
    <linearGradient
       id="linearGradient864">
      <stop
         stop-color="#e3e3e3"
         offset="0"
         id="stop859"
         style="stop-color:#ff6b4c;stop-opacity:1" />
      <stop
         stop-color="#fffcff"
         offset="1"
         id="stop862"
         style="stop-color:#ffb399;stop-opacity:1" />
    </linearGradient>
    <linearGradient
       id="linearGradient865">
      <stop
         stop-color="#e3e3e3"
         offset="0"
         id="stop861" />
      <stop
         stop-color="#fffcff"
         offset="1"
         id="stop863"
         style="stop-color:#fcfdff;stop-opacity:1" />
    </linearGradient>
    <linearGradient
       id="d"
       x1="399.57"
       x2="399.57"
       y1="545.8"
       y2="517.8"
       gradientTransform="translate(-384.57,-515.8)"
       gradientUnits="userSpaceOnUse">
      <stop
         stop-color="#3889e9"
         offset="0"
         id="stop4" />
      <stop
         stop-color="#5ea5fb"
         offset="1"
         id="stop6" />
    </linearGradient>
    <linearGradient
       id="b">
      <stop
         stop-color="#e3e3e3"
         offset="0"
         id="stop9" />
      <stop
         stop-color="#fffcff"
         offset="1"
         id="stop11" />
    </linearGradient>
    <linearGradient
       id="a"
       x1="41.165"
       x2="54.039"
       y1="89.364"
       y2="20.836"
       gradientUnits="userSpaceOnUse"
       xlink:href="#b" />
    <linearGradient
       id="linearGradient863"
       x1="406.31952"
       x2="397.87292"
       y1="544.37524"
       y2="518.93304"
       gradientTransform="matrix(0.94395135,0,0,0.94395135,-362.11859,-485.99333)"
       gradientUnits="userSpaceOnUse">
      <stop
         stop-color="#39414b"
         offset="0"
         id="stop15"
         style="stop-color:#2c4058;stop-opacity:1" />
      <stop
         stop-color="#72818d"
         offset="1"
         id="stop17"
         style="stop-color:#5784a8;stop-opacity:1" />
    </linearGradient>
    <linearGradient
       inkscape:collect="always"
       xlink:href="#linearGradient864"
       id="linearGradient1346"
       gradientUnits="userSpaceOnUse"
       x1="41.165"
       y1="89.364"
       x2="54.039"
       y2="20.836"
       gradientTransform="matrix(0.92545582,0,0,0.92545582,20.855023,10.784915)" />
    <linearGradient
       inkscape:collect="always"
       xlink:href="#b"
       id="linearGradient1348"
       gradientUnits="userSpaceOnUse"
       x1="41.165"
       y1="89.364"
       x2="54.039"
       y2="20.836" />
    <linearGradient
       inkscape:collect="always"
       xlink:href="#b"
       id="linearGradient1350"
       gradientUnits="userSpaceOnUse"
       x1="41.165"
       y1="89.364"
       x2="54.039"
       y2="20.836" />
  </defs>
  <rect
     x="1.8407298"
     y="1.8406998"
     width="28.318541"
     height="28.318541"
     rx="7.5516109"
     ry="7.5516109"
     fill="url(#linearGradient863)"
     id="rect22"
     style="fill:url(#linearGradient863);stroke-width:0.943951" />
  <circle
     cx="16"
     cy="16"
     r="0"
     fill="url(#d)"
     id="circle24" />
  <circle
     cx="16.075001"
     cy="16.058001"
     r="15.646"
     fill-opacity="0"
     stroke-width="1.1176"
     id="circle26" />
  <g
     id="g6662"
     transform="matrix(1.267468,0,0,1.267468,-7.480198,-6.1535137)">
    <g
       transform="matrix(0.10931044,0,0,0.10931044,11.786952,11.592939)"
       fill="url(#a)"
       opacity="0.9"
       id="g34"
       style="fill:url(#a)">
      <g
         fill="url(#a)"
         id="g32"
         style="fill:url(#linearGradient1350)">
        <g
           fill="url(#a)"
           id="g30"
           style="fill:url(#linearGradient1348)">
          <path
             d="M 88.19674,79.523145 C 75.827097,69.851206 84.556922,30.068637 84.556922,30.068637 h 15.118246 c 1.577902,0 7.763642,-0.992088 7.763642,-8.399436 0,-9.112039 -7.559116,-8.552138 -7.559116,-8.552138 H 44.216303 c -9.137024,0 -17.383761,10.461353 -22.117468,17.943663 -2.520015,3.996118 -1.094813,5.11592 3.232617,3.232617 15.170072,-6.642922 19.445678,-4.250619 19.445678,-4.250619 1.068902,5.11592 1.425202,28.201415 -2.468191,37.312528 -3.945218,8.57805 -11.223928,19.445676 -0.534913,25.834098 8.348537,4.733707 17.103349,-4.989133 16.238047,-21.533505 -0.4072,-8.755737 -1.094814,-41.588134 -1.094814,-41.588134 h 13.94847 c -0.43404,5.11592 -2.799504,31.229506 -0.330388,46.704979 2.569991,25.8341 30.643689,20.819978 35.886399,6.186671 1.29749,-4.047017 0.99301,-7.152848 0.025,-9.495176 -1.78243,-4.351493 -4.76054,-4.58008 -4.4283,-2.545003 0.20452,1.297488 0.0768,2.56999 -0.12772,3.716631 -0.61172,3.538017 -7.839534,9.085199 -13.693967,4.887332 z"
             fill="url(#a)"
             id="path28"
             style="fill:url(#linearGradient1346);stroke-width:0.925456" />
        </g>
      </g>
    </g>
  </g>
  <g
     id="g6674"
     transform="matrix(1.267468,0,0,1.267468,-7.299879,-5.8143823)"
     style="fill:#fffcff;fill-opacity:0.1">
    <g
       transform="matrix(0.10931044,0,0,0.10931044,11.786952,11.592939)"
       fill="url(#a)"
       opacity="0.9"
       id="g6670"
       style="fill:#fffcff;fill-opacity:0.1">
      <g
         fill="url(#a)"
         id="g6668"
         style="fill:#fffcff;fill-opacity:0.1">
        <g
           fill="url(#a)"
           id="g6666"
           style="fill:#fffcff;fill-opacity:0.1">
          <path
             d="M 88.342867,79.797971 C 75.973225,70.126032 84.703049,30.343463 84.703049,30.343463 h 15.118246 c 1.577905,0 7.763645,-0.992088 7.763645,-8.399436 0,-9.112039 -7.55912,-8.552138 -7.55912,-8.552138 H 44.36243 c -9.137024,0 -17.38376,10.461353 -22.117467,17.943663 -2.520016,3.996118 -1.094814,5.11592 3.232616,3.232617 15.170072,-6.642922 19.445678,-4.250619 19.445678,-4.250619 1.068902,5.11592 1.425202,28.201415 -2.46819,37.312528 -3.945219,8.57805 -11.223929,19.445676 -0.534914,25.834098 C 50.26869,98.197883 59.023502,88.475043 58.1582,71.930671 57.751,63.174934 57.063386,30.342537 57.063386,30.342537 h 13.94847 c -0.434039,5.11592 -2.799504,31.229506 -0.330387,46.704979 2.56999,25.834094 30.643691,20.819978 35.886391,6.186671 1.2975,-4.047017 0.99302,-7.152848 0.025,-9.495176 -1.78243,-4.351493 -4.76055,-4.58008 -4.42831,-2.545003 0.20453,1.297488 0.0768,2.56999 -0.12771,3.71663 -0.61173,3.538018 -7.839536,9.0852 -13.69397,4.887333 z"
             fill="url(#a)"
             id="path6664"
             style="fill:#fffcff;fill-opacity:0.1;stroke-width:0.925456" />
        </g>
      </g>
    </g>
  </g>
</svg>
