<?xml version="1.0" encoding="UTF-8" standalone="no"?>
<!-- Created with Inkscape (http://www.inkscape.org/) -->

<svg
   width="64"
   height="64"
   id="svg3070"
   version="1.1"
   inkscape:version="1.2.2 (b0a8486541, 2022-12-01)"
   sodipodi:docname="multisystem.svg"
   xmlns:inkscape="http://www.inkscape.org/namespaces/inkscape"
   xmlns:sodipodi="http://sodipodi.sourceforge.net/DTD/sodipodi-0.dtd"
   xmlns:xlink="http://www.w3.org/1999/xlink"
   xmlns="http://www.w3.org/2000/svg"
   xmlns:svg="http://www.w3.org/2000/svg"
   xmlns:rdf="http://www.w3.org/1999/02/22-rdf-syntax-ns#"
   xmlns:cc="http://creativecommons.org/ns#"
   xmlns:dc="http://purl.org/dc/elements/1.1/"
   xmlns:ns2="http://ns.adobe.com/AdobeIllustrator/10.0/">
  <defs
     id="defs3072">
    <linearGradient
       id="linearGradient4422-55">
      <stop
         style="stop-color:#f15f19;stop-opacity:1"
         offset="0"
         id="stop4424-5" />
      <stop
         style="stop-color:#fbb521;stop-opacity:1"
         offset="1"
         id="stop4426-0" />
    </linearGradient>
    <linearGradient
       y2="147.64192"
       x2="3.4191015"
       y1="204.54808"
       x1="0.9673245"
       gradientUnits="userSpaceOnUse"
       id="linearGradient4991"
       xlink:href="#linearGradient4581-9"
       inkscape:collect="always"
       gradientTransform="matrix(0.42677743,-3.0887295e-4,3.2401593e-4,0.40683138,12.933352,-61.430495)" />
    <linearGradient
       id="linearGradient4207"
       inkscape:swatch="gradient">
      <stop
         id="stop3371"
         offset="0"
         style="stop-color:#3498db;stop-opacity:1;" />
      <stop
         id="stop3373"
         offset="1"
         style="stop-color:#3498db;stop-opacity:0;" />
    </linearGradient>
    <linearGradient
       inkscape:collect="always"
       xlink:href="#linearGradient4711"
       id="linearGradient4579"
       gradientUnits="userSpaceOnUse"
       x1="23.689587"
       y1="264.73993"
       x2="24.303373"
       y2="154.70567"
       gradientTransform="matrix(0.4277804,-3.0959884e-4,3.2477741e-4,0.40778747,12.804745,-61.732757)" />
    <linearGradient
       inkscape:collect="always"
       xlink:href="#linearGradient4264"
       id="linearGradient4581"
       gradientUnits="userSpaceOnUse"
       x1="23.689587"
       y1="264.73993"
       x2="24.303373"
       y2="154.70567"
       gradientTransform="matrix(0.42619232,-3.0844949e-4,3.2357171e-4,0.40627361,12.84585,-61.423417)" />
    <linearGradient
       inkscape:collect="always"
       xlink:href="#linearGradient4501"
       id="linearGradient4583"
       gradientUnits="userSpaceOnUse"
       x1="23.689587"
       y1="264.73993"
       x2="24.303373"
       y2="154.70567"
       gradientTransform="matrix(0.44224176,-3.20065e-4,3.3575669e-4,0.42157295,12.465718,-64.598259)" />
    <linearGradient
       id="linearGradient4581-9"
       inkscape:collect="always">
      <stop
         id="stop4583"
         offset="0"
         style="stop-color:#ec396c;stop-opacity:1" />
      <stop
         id="stop4585"
         offset="1"
         style="stop-color:#ff709a;stop-opacity:1" />
    </linearGradient>
    <linearGradient
       id="linearGradient4232">
      <stop
         style="stop-color:#3889e9;stop-opacity:1"
         offset="0"
         id="stop4234-0" />
      <stop
         style="stop-color:#5ea5fb;stop-opacity:1"
         offset="1"
         id="stop4236" />
    </linearGradient>
    <style
       id="current-color-scheme"
       type="text/css">.ColorScheme-Text {
        color:#31363b;
      }
      .ColorScheme-Background{
        color:#eff0f1;
      }
      .ColorScheme-ViewText {
        color:#31363b;
      }
      .ColorScheme-ViewBackground{
        color:#fcfcfc;
      }
      .ColorScheme-ViewHover {
        color:#3daee9;
      }
      .ColorScheme-ViewFocus{
        color:#3daee9;
      }
      .ColorScheme-ButtonText {
        color:#31363b;
      }
      .ColorScheme-ButtonBackground{
        color:#eff0f1;
      }
      .ColorScheme-ButtonHover {
        color:#3daee9;
      }
      .ColorScheme-ButtonFocus{
        color:#3daee9;
      }</style>
    <style
       id="current-color-scheme-8"
       type="text/css">.ColorScheme-Text {
        color:#31363b;
      }
      .ColorScheme-Background{
        color:#eff0f1;
      }
      .ColorScheme-ViewText {
        color:#31363b;
      }
      .ColorScheme-ViewBackground{
        color:#fcfcfc;
      }
      .ColorScheme-ViewHover {
        color:#3daee9;
      }
      .ColorScheme-ViewFocus{
        color:#3daee9;
      }
      .ColorScheme-ButtonText {
        color:#31363b;
      }
      .ColorScheme-ButtonBackground{
        color:#eff0f1;
      }
      .ColorScheme-ButtonHover {
        color:#3daee9;
      }
      .ColorScheme-ButtonFocus{
        color:#3daee9;
      }</style>
    <style
       id="current-color-scheme-7"
       type="text/css">.ColorScheme-Text {
        color:#31363b;
      }
      .ColorScheme-Background{
        color:#eff0f1;
      }
      .ColorScheme-ViewText {
        color:#31363b;
      }
      .ColorScheme-ViewBackground{
        color:#fcfcfc;
      }
      .ColorScheme-ViewHover {
        color:#3daee9;
      }
      .ColorScheme-ViewFocus{
        color:#3daee9;
      }
      .ColorScheme-ButtonText {
        color:#31363b;
      }
      .ColorScheme-ButtonBackground{
        color:#eff0f1;
      }
      .ColorScheme-ButtonHover {
        color:#3daee9;
      }
      .ColorScheme-ButtonFocus{
        color:#3daee9;
      }</style>
    <style
       id="current-color-scheme-6"
       type="text/css">.ColorScheme-Text {
        color:#31363b;
      }
      .ColorScheme-Background{
        color:#eff0f1;
      }
      .ColorScheme-ViewText {
        color:#31363b;
      }
      .ColorScheme-ViewBackground{
        color:#fcfcfc;
      }
      .ColorScheme-ViewHover {
        color:#3daee9;
      }
      .ColorScheme-ViewFocus{
        color:#3daee9;
      }
      .ColorScheme-ButtonText {
        color:#31363b;
      }
      .ColorScheme-ButtonBackground{
        color:#eff0f1;
      }
      .ColorScheme-ButtonHover {
        color:#3daee9;
      }
      .ColorScheme-ButtonFocus{
        color:#3daee9;
      }</style>
    <style
       id="current-color-scheme-8-8"
       type="text/css">.ColorScheme-Text {
        color:#31363b;
      }
      .ColorScheme-Background{
        color:#eff0f1;
      }
      .ColorScheme-ViewText {
        color:#31363b;
      }
      .ColorScheme-ViewBackground{
        color:#fcfcfc;
      }
      .ColorScheme-ViewHover {
        color:#3daee9;
      }
      .ColorScheme-ViewFocus{
        color:#3daee9;
      }
      .ColorScheme-ButtonText {
        color:#31363b;
      }
      .ColorScheme-ButtonBackground{
        color:#eff0f1;
      }
      .ColorScheme-ButtonHover {
        color:#3daee9;
      }
      .ColorScheme-ButtonFocus{
        color:#3daee9;
      }</style>
    <style
       id="current-color-scheme-7-9"
       type="text/css">.ColorScheme-Text {
        color:#31363b;
      }
      .ColorScheme-Background{
        color:#eff0f1;
      }
      .ColorScheme-ViewText {
        color:#31363b;
      }
      .ColorScheme-ViewBackground{
        color:#fcfcfc;
      }
      .ColorScheme-ViewHover {
        color:#3daee9;
      }
      .ColorScheme-ViewFocus{
        color:#3daee9;
      }
      .ColorScheme-ButtonText {
        color:#31363b;
      }
      .ColorScheme-ButtonBackground{
        color:#eff0f1;
      }
      .ColorScheme-ButtonHover {
        color:#3daee9;
      }
      .ColorScheme-ButtonFocus{
        color:#3daee9;
      }</style>
    <linearGradient
       inkscape:collect="always"
       id="linearGradient4711">
      <stop
         style="stop-color:#3585df;stop-opacity:1"
         offset="0"
         id="stop4713" />
      <stop
         style="stop-color:#a0dff0;stop-opacity:1"
         offset="1"
         id="stop4715" />
    </linearGradient>
    <linearGradient
       inkscape:collect="always"
       xlink:href="#linearGradient4711"
       id="linearGradient4717"
       x1="413.31241"
       y1="-547.80597"
       x2="413.31241"
       y2="-499.79605"
       gradientUnits="userSpaceOnUse" />
    <style
       id="current-color-scheme-2"
       type="text/css">.ColorScheme-Text {
        color:#31363b;
      }
      .ColorScheme-Background{
        color:#eff0f1;
      }
      .ColorScheme-ViewText {
        color:#31363b;
      }
      .ColorScheme-ViewBackground{
        color:#fcfcfc;
      }
      .ColorScheme-ViewHover {
        color:#3daee9;
      }
      .ColorScheme-ViewFocus{
        color:#3daee9;
      }
      .ColorScheme-ButtonText {
        color:#31363b;
      }
      .ColorScheme-ButtonBackground{
        color:#eff0f1;
      }
      .ColorScheme-ButtonHover {
        color:#3daee9;
      }
      .ColorScheme-ButtonFocus{
        color:#3daee9;
      }</style>
    <style
       id="current-color-scheme-8-0"
       type="text/css">.ColorScheme-Text {
        color:#31363b;
      }
      .ColorScheme-Background{
        color:#eff0f1;
      }
      .ColorScheme-ViewText {
        color:#31363b;
      }
      .ColorScheme-ViewBackground{
        color:#fcfcfc;
      }
      .ColorScheme-ViewHover {
        color:#3daee9;
      }
      .ColorScheme-ViewFocus{
        color:#3daee9;
      }
      .ColorScheme-ButtonText {
        color:#31363b;
      }
      .ColorScheme-ButtonBackground{
        color:#eff0f1;
      }
      .ColorScheme-ButtonHover {
        color:#3daee9;
      }
      .ColorScheme-ButtonFocus{
        color:#3daee9;
      }</style>
    <style
       id="current-color-scheme-7-2"
       type="text/css">.ColorScheme-Text {
        color:#31363b;
      }
      .ColorScheme-Background{
        color:#eff0f1;
      }
      .ColorScheme-ViewText {
        color:#31363b;
      }
      .ColorScheme-ViewBackground{
        color:#fcfcfc;
      }
      .ColorScheme-ViewHover {
        color:#3daee9;
      }
      .ColorScheme-ViewFocus{
        color:#3daee9;
      }
      .ColorScheme-ButtonText {
        color:#31363b;
      }
      .ColorScheme-ButtonBackground{
        color:#eff0f1;
      }
      .ColorScheme-ButtonHover {
        color:#3daee9;
      }
      .ColorScheme-ButtonFocus{
        color:#3daee9;
      }</style>
    <linearGradient
       inkscape:collect="always"
       id="linearGradient4264">
      <stop
         style="stop-color:#0a80fd;stop-opacity:1"
         offset="0"
         id="stop4266" />
      <stop
         style="stop-color:#56c5fa;stop-opacity:1"
         offset="1"
         id="stop4268" />
    </linearGradient>
    <style
       id="current-color-scheme-4"
       type="text/css">.ColorScheme-Text {
        color:#31363b;
      }
      .ColorScheme-Background{
        color:#eff0f1;
      }
      .ColorScheme-ViewText {
        color:#31363b;
      }
      .ColorScheme-ViewBackground{
        color:#fcfcfc;
      }
      .ColorScheme-ViewHover {
        color:#3daee9;
      }
      .ColorScheme-ViewFocus{
        color:#3daee9;
      }
      .ColorScheme-ButtonText {
        color:#31363b;
      }
      .ColorScheme-ButtonBackground{
        color:#eff0f1;
      }
      .ColorScheme-ButtonHover {
        color:#3daee9;
      }
      .ColorScheme-ButtonFocus{
        color:#3daee9;
      }</style>
    <style
       id="current-color-scheme-8-9"
       type="text/css">.ColorScheme-Text {
        color:#31363b;
      }
      .ColorScheme-Background{
        color:#eff0f1;
      }
      .ColorScheme-ViewText {
        color:#31363b;
      }
      .ColorScheme-ViewBackground{
        color:#fcfcfc;
      }
      .ColorScheme-ViewHover {
        color:#3daee9;
      }
      .ColorScheme-ViewFocus{
        color:#3daee9;
      }
      .ColorScheme-ButtonText {
        color:#31363b;
      }
      .ColorScheme-ButtonBackground{
        color:#eff0f1;
      }
      .ColorScheme-ButtonHover {
        color:#3daee9;
      }
      .ColorScheme-ButtonFocus{
        color:#3daee9;
      }</style>
    <style
       id="current-color-scheme-7-1"
       type="text/css">.ColorScheme-Text {
        color:#31363b;
      }
      .ColorScheme-Background{
        color:#eff0f1;
      }
      .ColorScheme-ViewText {
        color:#31363b;
      }
      .ColorScheme-ViewBackground{
        color:#fcfcfc;
      }
      .ColorScheme-ViewHover {
        color:#3daee9;
      }
      .ColorScheme-ViewFocus{
        color:#3daee9;
      }
      .ColorScheme-ButtonText {
        color:#31363b;
      }
      .ColorScheme-ButtonBackground{
        color:#eff0f1;
      }
      .ColorScheme-ButtonHover {
        color:#3daee9;
      }
      .ColorScheme-ButtonFocus{
        color:#3daee9;
      }</style>
    <linearGradient
       id="linearGradient4501">
      <stop
         id="stop4503"
         offset="0"
         style="stop-color:#ff6835;stop-opacity:1" />
      <stop
         id="stop4505"
         offset="1"
         style="stop-color:#ff956f;stop-opacity:1" />
    </linearGradient>
  </defs>
  <sodipodi:namedview
     id="base"
     pagecolor="#666666"
     bordercolor="#ffffff"
     borderopacity="1"
     inkscape:pageopacity="0"
     inkscape:pageshadow="2"
     inkscape:zoom="11.404994"
     inkscape:cx="30.775991"
     inkscape:cy="42.437549"
     inkscape:document-units="px"
     inkscape:current-layer="svg3070"
     showgrid="false"
     inkscape:window-width="1920"
     inkscape:window-height="1026"
     inkscape:window-x="0"
     inkscape:window-y="24"
     inkscape:window-maximized="1"
     inkscape:snap-bbox="true"
     inkscape:bbox-nodes="true"
     inkscape:object-nodes="true"
     showborder="false"
     inkscape:showpageshadow="false"
     inkscape:pagecheckerboard="0"
     inkscape:deskcolor="#5a5a5a">
    <inkscape:grid
       type="xygrid"
       id="grid3078"
       empspacing="5"
       visible="true"
       enabled="true"
       snapvisiblegridlinesonly="true"
       originx="0"
       originy="0" />
  </sodipodi:namedview>
  <metadata
     id="metadata3075">
    <rdf:RDF>
      <cc:Work
         rdf:about="">
        <dc:format>image/svg+xml</dc:format>
        <dc:type
           rdf:resource="http://purl.org/dc/dcmitype/StillImage" />
      </cc:Work>
    </rdf:RDF>
  </metadata>
  <g
     id="g1045"
     transform="matrix(1.2403227,0,0,1.2403227,3.3798391,3.2690123)">
    <path
       id="path4271-0"
       style="display:inline;fill:url(#linearGradient4991);fill-opacity:1;fill-rule:evenodd;stroke:none;stroke-width:0.4031209;stroke-linecap:butt;stroke-linejoin:miter;stroke-opacity:1;stroke-dasharray:none"
       d="M 10.981143 0.58935284 C 5.1745954 0.58935284 0.49999964 5.2639486 0.49999964 11.070496 L 0.49999964 23.154675 L 23.211768 23.15625 L 23.211768 0.58935284 L 10.981143 0.58935284 z " />
    <path
       id="path4271"
       style="display:inline;fill:url(#linearGradient4579);fill-opacity:1;fill-rule:evenodd;stroke:none;stroke-width:0.4031209;stroke-linecap:butt;stroke-linejoin:miter;stroke-opacity:1;stroke-dasharray:none"
       d="M 0.49999964 23.033424 L 0.49999964 35.25775 C 0.49999964 41.064298 5.1745954 45.738893 10.981143 45.738893 L 23.107838 45.738893 L 23.107838 23.033424 L 0.49999964 23.033424 z " />
    <path
       id="path4271-0-9"
       style="fill:url(#linearGradient4581);fill-opacity:1;fill-rule:evenodd;stroke:none;stroke-width:0.4031209;stroke-linecap:butt;stroke-linejoin:miter;stroke-opacity:1;stroke-dasharray:none"
       d="M 23.041701 0.58935284 L 23.041701 23.15625 L 45.64954 23.15625 L 45.64954 11.070496 C 45.64954 5.2639486 40.974944 0.58935284 35.168397 0.58935284 L 23.041701 0.58935284 z " />
    <path
       id="path4271-4"
       style="fill:url(#linearGradient4583);fill-opacity:1;fill-rule:evenodd;stroke:none;stroke-width:0.4031209;stroke-linecap:butt;stroke-linejoin:miter;stroke-opacity:1;stroke-dasharray:none"
       d="M 22.996035 23.031849 L 22.996035 45.738893 L 35.168397 45.738893 C 40.974944 45.738893 45.64954 41.064298 45.64954 35.25775 L 45.64954 23.031849 L 22.996035 23.031849 z " />
    <g
       id="g1030">
      <path
         inkscape:connector-curvature="0"
         style="fill:#ffffff;fill-opacity:0.85;stroke-width:0.410875"
         id="rect4244"
         d="m 37.949569,27.161794 c -0.064,-0.0042 -0.127087,-0.0033 -0.189236,8.22e-4 -0.414347,0.02925 -0.798058,0.258801 -1.021521,0.645771 -0.356241,0.61849 -0.142988,1.404374 0.476779,1.761921 0.61849,0.356233 1.405689,0.149168 1.761921,-0.471277 0.357498,-0.616559 0.152759,-1.417025 -0.465739,-1.773865 -0.174305,-0.100254 -0.370206,-0.151498 -0.562191,-0.163516 z m -3.394314,1.370604 c -0.894108,0 -1.730312,0.211194 -2.480261,0.583311 l 0.898431,1.622277 c 0.483879,-0.225949 1.014182,-0.359179 1.58188,-0.359179 1.976155,0 3.607184,1.512171 3.777352,3.445768 l 1.834494,-0.02297 c -0.09145,-1.424971 -0.71491,-2.706777 -1.671899,-3.647869 -0.49277,0.18484 -1.052423,0.156511 -1.543266,-0.128608 -0.490839,-0.283848 -0.801353,-0.758273 -0.886487,-1.27964 -0.4788,-0.131459 -0.990146,-0.213117 -1.510194,-0.213117 z m -3.114134,0.948007 c -1.132843,0.756297 -1.967128,1.916989 -2.31767,3.27212 0.410221,0.333375 0.656824,0.831836 0.656824,1.402726 0,0.567036 -0.245962,1.084027 -0.656824,1.419285 0.350537,1.354468 1.184827,2.510316 2.31767,3.266614 l 0.947724,-1.593964 C 31.41667,36.56393 30.784021,35.434 30.784021,34.155111 c 0,-1.280203 0.632649,-2.408773 1.604824,-3.092074 z M 27.9669,32.864607 c -0.715657,0 -1.290648,0.574983 -1.290648,1.290644 0,0.713122 0.574991,1.290648 1.290648,1.290648 0.71627,0 1.297086,-0.577526 1.297086,-1.290648 0,-0.715661 -0.580816,-1.290644 -1.297086,-1.290644 z m 10.365707,1.63333 c -0.17018,1.930441 -1.801188,3.445768 -3.777352,3.445768 -0.568346,0 -1.097996,-0.127577 -1.581875,-0.353669 l -0.898436,1.610333 c 0.74995,0.373399 1.586203,0.577805 2.480262,0.577805 0.520098,0 1.031398,-0.06942 1.510199,-0.202097 0.0851,-0.520706 0.394982,-0.993631 0.886495,-1.278745 0.49215,-0.283803 1.050533,-0.311348 1.543258,-0.124014 0.956989,-0.942362 1.580372,-2.221629 1.671898,-3.647869 z m -0.566801,4.079591 c -0.187269,0.01594 -0.376296,0.07824 -0.550244,0.179133 -0.619714,0.355008 -0.833007,1.139195 -0.476779,1.756416 0.357527,0.62042 1.153827,0.828401 1.772929,0.472168 0.619241,-0.356889 0.823228,-1.144323 0.465739,-1.762812 -0.223446,-0.386946 -0.61261,-0.615716 -1.027023,-0.644876 -0.06223,-0.0052 -0.122276,-0.0052 -0.184639,0 z" />
      <path
         d="m 33.890488,5.8987824 c -0.578627,1.4186049 -0.927606,2.3465292 -1.571806,3.7228313 0.39496,0.4186913 0.879787,0.9062483 1.667161,1.4569263 -0.846486,-0.348339 -1.423876,-0.698036 -1.855372,-1.060922 -0.824454,1.7204 -2.116179,4.171002 -4.73747,8.880836 2.060249,-1.18939 3.657187,-1.922667 5.145663,-2.202493 -0.06391,-0.274877 -0.100255,-0.572215 -0.09779,-0.882454 l 0.0019,-0.06601 c 0.03269,-1.319944 0.719312,-2.334967 1.53268,-2.26604 0.813372,0.0689 1.445615,1.195432 1.41292,2.515375 -0.0061,0.248397 -0.03418,0.487297 -0.0831,0.708915 1.47223,0.288004 3.0522,1.019404 5.084562,2.192707 -0.400751,-0.737773 -0.758443,-1.402849 -1.100014,-2.036256 -0.538072,-0.417031 -1.099268,-0.959772 -2.244036,-1.547372 0.786854,0.204462 1.350226,0.440344 1.789367,0.704015 C 35.36227,9.5527151 35.08115,8.6934247 33.890041,5.8984551 Z"
         style="fill:#ffffff;fill-opacity:0.85;fill-rule:evenodd;stroke-width:0.481371;enable-background:new"
         id="path4071"
         inkscape:connector-curvature="0" />
      <path
         style="fill:#ffffff;fill-opacity:0.85;stroke-width:0.256692"
         inkscape:connector-curvature="0"
         ns2:knockout="Off"
         d="M 12.692272,18.972618 C 10.639503,18.234114 9.4202146,17.327733 8.083361,15.304997 7.7553082,14.747718 7.1520812,13.504044 7.1749268,11.880722 7.1215348,10.262276 7.9393566,8.3974069 9.4656492,7.4022107 10.939576,6.3518256 12.841666,6.3361674 13.973166,6.7509822 c 1.16718,0.4332967 1.640521,1.1551156 1.653869,1.1207188 -0.03568,0.00898 0.625302,0.5649798 0.919985,1.7752842 0.32831,1.1633298 -0.0051,3.0916018 -1.609717,3.8811878 -0.737991,0.395563 -1.69648,0.46718 -2.448075,0.184305 -0.751595,-0.303153 -1.297066,-0.968757 -1.478805,-1.664136 -0.396076,-1.535277 0.768794,-2.3862119 1.282692,-2.4734873 2.090759,-0.6971764 3.149615,2.5746243 0.704364,2.8528783 1.114558,0.372204 2.263513,-0.771617 2.045068,-1.936744 C 14.998397,9.3256064 13.587614,8.1689507 12.031546,8.6430615 11.625202,8.755236 11.00991,9.0404212 10.528355,9.6818954 10.034479,10.319519 9.810387,11.318822 10.067079,12.290146 c 0.250275,0.976714 1.011368,1.911588 2.071507,2.331793 1.070921,0.39505 2.263256,0.282105 3.247928,-0.230253 2.102054,-1.039861 2.522772,-3.573671 2.105134,-4.9677664 C 17.123038,7.9256064 16.309066,7.2394677 16.351164,7.2289434 16.336019,7.2697574 15.750504,6.3795484 14.303529,5.839211 12.888641,5.3232594 10.682627,5.3597097 8.9163276,6.5982503 7.1087002,7.7574729 6.129419,10.035361 6.2005227,11.871224 c -0.024386,1.864356 0.6704804,3.291309 1.049615,3.925596 1.5283461,2.330766 3.2795013,3.059259 5.4421343,3.175798"
         id="path4159" />
      <path
         style="opacity:0.85;fill:#ffffff;fill-opacity:1;stroke:#ffffff;stroke-width:0.210234;stroke-miterlimit:4;stroke-dasharray:none;stroke-opacity:1"
         id="path4096"
         inkscape:connector-curvature="0"
         d="m 11.737474,27.706795 c -3.5317946,0 -6.3948806,2.863087 -6.3948806,6.394881 0,3.531802 2.863086,6.394884 6.3948806,6.394884 3.531795,0 6.394881,-2.863082 6.394881,-6.394884 0,-3.531794 -2.863086,-6.394881 -6.394881,-6.394881 z m 0,0.532906 c 2.685156,0 4.948655,1.805457 5.642817,4.268584 -0.597882,1.233195 -1.448625,2.343508 -2.484678,3.240741 -0.497708,0.431015 -1.041105,0.815255 -1.641353,1.085798 -0.600248,0.270543 -1.260477,0.424047 -1.917798,0.386357 -0.493858,-0.02832 -0.981711,-0.165894 -1.4142011,-0.405675 1.1461781,-0.621076 2.1803531,-1.449156 3.0269101,-2.440716 0.555663,-0.65084 1.041825,-1.390498 1.229016,-2.225551 0.0936,-0.417526 0.109457,-0.854796 0.02198,-1.273648 -0.08747,-0.418851 -0.281133,-0.817998 -0.574206,-1.129762 -0.286315,-0.304573 -0.662181,-0.520321 -1.065148,-0.631494 -0.402967,-0.111173 -0.831794,-0.11978 -1.243005,-0.04463 -0.822422,0.150298 -1.556694,0.628275 -2.1456154,1.221688 -1.0380597,1.045976 -1.6797995,2.521868 -1.5620829,3.990806 0.058858,0.734468 0.3049889,1.456184 0.7267516,2.060353 0.094144,0.134852 0.1976419,0.26331 0.3084198,0.385025 -0.6144166,0.215027 -1.2505963,0.368092 -1.8958138,0.454302 -0.5539633,-0.895123 -0.8739671,-1.950172 -0.8739671,-3.080203 0,-3.237479 2.6244952,-5.861975 5.8619738,-5.861975 z m 0.0373,1.184386 c 0.412073,5.33e-4 0.826947,0.125309 1.155742,0.373701 0.296228,0.22379 0.515724,0.542167 0.640154,0.891952 0.124429,0.349786 0.156362,0.729632 0.113909,1.098454 -0.08491,0.737646 -0.457029,1.414124 -0.906608,2.005062 -0.796036,1.046329 -1.854128,1.883788 -3.0309072,2.470025 -0.1204526,0.06001 -0.2428143,0.11704 -0.3657073,0.171863 -0.2560541,-0.224074 -0.4755238,-0.489848 -0.6428147,-0.78604 -0.34956,-0.618913 -0.4648354,-1.354119 -0.3970156,-2.061683 0.06782,-0.707563 0.3106378,-1.389504 0.6368236,-2.021049 0.3781979,-0.732247 0.893714,-1.425844 1.6153732,-1.823874 0.36083,-0.199014 0.768981,-0.31897 1.181055,-0.318411 z m 5.772046,3.892884 c 0.03434,0.256701 0.05262,0.518604 0.05262,0.784705 0,3.237478 -2.624495,5.861977 -5.861975,5.861977 -1.8182007,0 -3.4431684,-0.827711 -4.5183826,-2.126964 0.6636527,-0.150733 1.3122925,-0.36724 1.9344515,-0.642819 0.2720748,0.207207 0.5725494,0.377151 0.8919531,0.4996 0.919818,0.352638 1.96412,0.301612 2.895016,-0.02065 0.930895,-0.322262 1.75639,-0.900693 2.476018,-1.573407 0.857262,-0.801388 1.580048,-1.745956 2.130294,-2.782442 z" />
    </g>
  </g>
  <style
     type="text/css"
     id="style26">
	.specularity {opacity:0.5;}
	.low-specularity {opacity:0.25;}
	.full-specularity {opacity:1;}
	.black {fill:#000000;}
	.white {fill:#ffffff;}
	.outline-big {stroke-width:16;stroke:none;opacity:0.1;fill:none;}
	.outline-small {stroke-width:8;stroke:none;opacity:0.2;fill:none;}
	.stroke-highlight {fill:none;stroke:none;opacity:0.2;}
       	.base-shadow 	{fill:black;opacity:75;}
	</style>
  <style
     type="text/css"
     id="style26-7">
	.specularity {opacity:0.5;}
	.low-specularity {opacity:0.25;}
	.full-specularity {opacity:1;}
	.black {fill:#000000;}
	.white {fill:#ffffff;}
	.outline-big {stroke-width:16;stroke:none;opacity:0.1;fill:none;}
	.outline-small {stroke-width:8;stroke:none;opacity:0.2;fill:none;}
	.stroke-highlight {fill:none;stroke:none;opacity:0.2;}
       	.base-shadow 	{fill:black;opacity:75;}
	</style>
  <style
     id="style26-9"
     type="text/css">
	.specularity {opacity:0.5;}
	.low-specularity {opacity:0.25;}
	.full-specularity {opacity:1;}
	.black {fill:#000000;}
	.white {fill:#ffffff;}
	.outline-big {stroke-width:16;stroke:none;opacity:0.1;fill:none;}
	.outline-small {stroke-width:8;stroke:none;opacity:0.2;fill:none;}
	.stroke-highlight {fill:none;stroke:none;opacity:0.2;}
       	.base-shadow 	{fill:black;opacity:75;}
	</style>
</svg>
