<?xml version="1.0" encoding="UTF-8" standalone="no"?>
<!-- Created with Inkscape (http://www.inkscape.org/) -->

<svg
   width="64"
   height="64"
   id="svg5453"
   version="1.1"
   inkscape:version="1.2.2 (b0a8486541, 2022-12-01)"
   sodipodi:docname="preferences-desktop-peripherals.svg"
   xmlns:inkscape="http://www.inkscape.org/namespaces/inkscape"
   xmlns:sodipodi="http://sodipodi.sourceforge.net/DTD/sodipodi-0.dtd"
   xmlns:xlink="http://www.w3.org/1999/xlink"
   xmlns="http://www.w3.org/2000/svg"
   xmlns:svg="http://www.w3.org/2000/svg"
   xmlns:rdf="http://www.w3.org/1999/02/22-rdf-syntax-ns#"
   xmlns:cc="http://creativecommons.org/ns#"
   xmlns:dc="http://purl.org/dc/elements/1.1/">
  <defs
     id="defs5455">
    <linearGradient
       id="linearGradient8311-06">
      <stop
         id="stop8313-6"
         style="stop-color:#a9a3d4;stop-opacity:1"
         offset="0" />
      <stop
         offset="0.47001833"
         style="stop-color:#87baff;stop-opacity:1"
         id="stop4462" />
      <stop
         id="stop8315-2"
         style="stop-color:#89ec85;stop-opacity:1"
         offset="1" />
    </linearGradient>
    <linearGradient
       id="linearGradient4915">
      <stop
         style="stop-color:#8645a3;stop-opacity:1"
         offset="0"
         id="stop4917" />
      <stop
         id="stop4919"
         offset="1"
         style="stop-color:#d164ff;stop-opacity:1" />
    </linearGradient>
    <linearGradient
       id="linearGradient3687-2">
      <stop
         id="stop3689-6"
         offset="0"
         style="stop-color:#1a1a1a;stop-opacity:1" />
      <stop
         style="stop-color:#2c2c2e;stop-opacity:1"
         offset="0.11054216"
         id="stop3691-8" />
      <stop
         style="stop-color:#2b2b2d;stop-opacity:1"
         offset="0.29001436"
         id="stop3693-8" />
      <stop
         style="stop-color:#2a2b2d;stop-opacity:1"
         offset="0.5118711"
         id="stop3695-4" />
      <stop
         style="stop-color:#2b2b2d;stop-opacity:1"
         offset="0.75173318"
         id="stop3699-86" />
      <stop
         id="stop3701-8"
         offset="0.89659214"
         style="stop-color:#323232;stop-opacity:1" />
      <stop
         id="stop3703-9"
         offset="1"
         style="stop-color:#171717;stop-opacity:1" />
    </linearGradient>
    <linearGradient
       id="linearGradient4642">
      <stop
         id="stop4644"
         style="stop-color:#0bac83;stop-opacity:1"
         offset="0" />
      <stop
         id="stop4646"
         style="stop-color:#13ffaf;stop-opacity:1"
         offset="1" />
    </linearGradient>
    <linearGradient
       id="linearGradient4179-7">
      <stop
         id="stop4181-2"
         style="stop-color:#e8d800;stop-opacity:1"
         offset="0" />
      <stop
         id="stop4183-1"
         style="stop-color:#feff68;stop-opacity:1"
         offset="1" />
    </linearGradient>
    <linearGradient
       id="linearGradient4422">
      <stop
         style="stop-color:#ff9300;stop-opacity:1"
         offset="0"
         id="stop4424" />
      <stop
         style="stop-color:#ffd702;stop-opacity:1"
         offset="1"
         id="stop4426" />
    </linearGradient>
    <linearGradient
       id="linearGradient8467-7">
      <stop
         offset="0"
         style="stop-color:#3ec896;stop-opacity:1"
         id="stop8469-4" />
      <stop
         offset="1"
         style="stop-color:#66d9af;stop-opacity:1"
         id="stop8471-7" />
    </linearGradient>
    <linearGradient
       id="linearGradient5845">
      <stop
         style="stop-color:#974eb7;stop-opacity:1"
         offset="0"
         id="stop5847" />
      <stop
         id="stop5849"
         offset="1"
         style="stop-color:#d164ff;stop-opacity:1" />
    </linearGradient>
    <linearGradient
       y2="513.9823"
       x2="357.30374"
       y1="547.43585"
       x1="357.30374"
       gradientUnits="userSpaceOnUse"
       id="linearGradient4642-6"
       xlink:href="#linearGradient4191"
       inkscape:collect="always"
       gradientTransform="matrix(1.1609735,0,0,1.1609735,-402.00143,-606.50106)" />
    <linearGradient
       inkscape:collect="always"
       id="linearGradient4191">
      <stop
         style="stop-color:#2e3e46;stop-opacity:1"
         offset="0"
         id="stop4193" />
      <stop
         style="stop-color:#47606a;stop-opacity:1"
         offset="1"
         id="stop4195" />
    </linearGradient>
  </defs>
  <sodipodi:namedview
     id="base"
     pagecolor="#666666"
     bordercolor="#666666"
     borderopacity="1.0"
     inkscape:pageopacity="0"
     inkscape:pageshadow="2"
     inkscape:zoom="5.904633"
     inkscape:cx="7.2824171"
     inkscape:cy="14.903551"
     inkscape:document-units="px"
     inkscape:current-layer="svg5453"
     showgrid="false"
     fit-margin-top="0"
     fit-margin-left="0"
     fit-margin-right="0"
     fit-margin-bottom="0"
     inkscape:window-width="1920"
     inkscape:window-height="1026"
     inkscape:window-x="0"
     inkscape:window-y="24"
     inkscape:window-maximized="1"
     inkscape:showpageshadow="false"
     borderlayer="true"
     showguides="false"
     showborder="false"
     inkscape:pagecheckerboard="0"
     inkscape:deskcolor="#5a5a5a">
    <inkscape:grid
       type="xygrid"
       id="grid4063"
       originx="0"
       originy="0" />
    <sodipodi:guide
       position="1.1650391e-05,63.999996"
       orientation="4,0"
       id="guide4146"
       inkscape:locked="false" />
    <sodipodi:guide
       position="1.1650391e-05,59.999996"
       orientation="0,48"
       id="guide4148"
       inkscape:locked="false" />
    <sodipodi:guide
       position="48.000012,59.999996"
       orientation="-4,0"
       id="guide4150"
       inkscape:locked="false" />
    <sodipodi:guide
       position="48.000012,63.999996"
       orientation="0,-48"
       id="guide4152"
       inkscape:locked="false" />
    <sodipodi:guide
       position="1.1650391e-05,20.000026"
       orientation="4,0"
       id="guide4154"
       inkscape:locked="false" />
    <sodipodi:guide
       position="1.1650391e-05,16.000026"
       orientation="0,48"
       id="guide4156"
       inkscape:locked="false" />
    <sodipodi:guide
       position="48.000012,16.000026"
       orientation="-4,0"
       id="guide4158"
       inkscape:locked="false" />
    <sodipodi:guide
       position="48.000012,20.000026"
       orientation="0,-48"
       id="guide4160"
       inkscape:locked="false" />
    <sodipodi:guide
       position="48.000012,64.000026"
       orientation="0,-4"
       id="guide4162"
       inkscape:locked="false" />
    <sodipodi:guide
       position="44.000012,64.000026"
       orientation="48,0"
       id="guide4164"
       inkscape:locked="false" />
    <sodipodi:guide
       position="44.000012,16.000026"
       orientation="0,4"
       id="guide4166"
       inkscape:locked="false" />
    <sodipodi:guide
       position="48.000012,16.000026"
       orientation="-48,0"
       id="guide4168"
       inkscape:locked="false" />
    <sodipodi:guide
       position="4.0000422,64.000026"
       orientation="0,-4"
       id="guide4170"
       inkscape:locked="false" />
    <sodipodi:guide
       position="4.2167969e-05,64.000026"
       orientation="48,0"
       id="guide4172"
       inkscape:locked="false" />
    <sodipodi:guide
       position="4.2167969e-05,16.000026"
       orientation="0,4"
       id="guide4174"
       inkscape:locked="false" />
    <sodipodi:guide
       position="4.0000422,16.000026"
       orientation="-48,0"
       id="guide4176"
       inkscape:locked="false" />
    <sodipodi:guide
       position="20,46"
       orientation="39.999969,0"
       id="guide4153"
       inkscape:locked="false" />
    <sodipodi:guide
       position="20.000012,20.000026"
       orientation="0,8"
       id="guide4155"
       inkscape:locked="false" />
    <sodipodi:guide
       position="25,46"
       orientation="-39.999969,0"
       id="guide4157"
       inkscape:locked="false" />
    <sodipodi:guide
       position="28.000012,59.999996"
       orientation="0,-8"
       id="guide4159"
       inkscape:locked="false" />
    <sodipodi:guide
       position="22,27"
       orientation="5,0"
       id="guide4342"
       inkscape:locked="false" />
  </sodipodi:namedview>
  <metadata
     id="metadata5458">
    <rdf:RDF>
      <cc:Work
         rdf:about="">
        <dc:format>image/svg+xml</dc:format>
        <dc:type
           rdf:resource="http://purl.org/dc/dcmitype/StillImage" />
      </cc:Work>
    </rdf:RDF>
  </metadata>
  <g
     transform="matrix(1.1833418,0,0,1.1833418,20.524859,16.749634)"
     style="fill:#ffffff;fill-opacity:0.852041;stroke-width:1.31742;stroke-miterlimit:4;stroke-dasharray:none"
     id="g3426">
    <rect
       ry="10.985837"
       y="-10.774261"
       x="-13.96457"
       height="47.323605"
       width="47.323605"
       id="rect4195-7"
       style="opacity:1;fill:url(#linearGradient4642-6);fill-opacity:1;stroke:none;stroke-width:0.232195;stroke-linecap:round;stroke-linejoin:round;stroke-miterlimit:4;stroke-dasharray:none;stroke-opacity:1" />
    <ellipse
       style="opacity:1;fill:#ffffff;fill-opacity:0.852041;stroke:none;stroke-width:0.186534;stroke-linecap:round;stroke-linejoin:round;stroke-miterlimit:4;stroke-dasharray:none;stroke-opacity:1"
       id="path4224-8-87"
       cx="-7.6407394"
       cy="-0.49673733"
       rx="2.0985084"
       ry="2.0985086" />
    <ellipse
       style="opacity:1;fill:#ffffff;fill-opacity:0.852041;stroke:none;stroke-width:0.186534;stroke-linecap:round;stroke-linejoin:round;stroke-miterlimit:4;stroke-dasharray:none;stroke-opacity:1"
       id="path4224-8-8"
       cx="-7.5726562"
       cy="5.1028724"
       rx="2.0985084"
       ry="2.0985086" />
    <ellipse
       style="opacity:1;fill:#ffffff;fill-opacity:0.852041;stroke:none;stroke-width:0.186534;stroke-linecap:round;stroke-linejoin:round;stroke-miterlimit:4;stroke-dasharray:none;stroke-opacity:1"
       id="path4224-8-5"
       cx="-7.5828743"
       cy="10.464816"
       rx="2.0985084"
       ry="2.0985086" />
    <path
       style="fill:#ffffff;fill-opacity:0.852041;stroke-width:1.31741"
       inkscape:connector-curvature="0"
       d="m 11.726917,26.898706 c -0.033,0 -0.066,-0.004 -0.099,-0.011 -0.116998,-0.027 -0.218997,-0.1 -0.282996,-0.201 -0.743992,-1.19 1.773979,-3.053 7.69691,-7.016 1.584981,-1.062 3.522959,-2.357 4.846943,-3.372 -1.341984,0.865 -3.149963,2.076 -4.831943,3.203 -7.478913,5.009 -9.1038939,6 -9.6578876,5.88 -0.1189986,-0.025 -0.255997,-0.119 -0.3209962,-0.223 -0.1299985,-0.207 -0.069999,-0.48 0.1349984,-0.615 7.0899174,-4.639 14.3788324,-9.971 16.2898094,-12.188 -3.007964,1.819 -11.816862,7.386 -17.9387901,11.276 -0.1019988,0.063 -0.2229974,0.087 -0.3409961,0.059 -0.1169986,-0.025 -0.2179974,-0.099 -0.2819967,-0.199 -0.1019988,-0.163 -0.2039976,-0.438 -0.1129986,-0.824 0.1109987,-0.471 0.5239938,-1.051 1.1739862,-1.716 -0.6919919,0.44 -1.364984,0.871 -2.0089765,1.283 -0.1019988,0.064 -0.2239974,0.085 -0.340996,0.062 -0.1179986,-0.026 -0.2189974,-0.1 -0.2829967,-0.201 -0.079999,-0.128 -0.1609981,-0.346 -0.086999,-0.649 0.078999,-0.325 0.3919954,-0.763 0.8869897,-1.276 -1.3999837,0.855 -1.6069813,0.889 -1.797979,0.85 -0.1179987,-0.025 -0.2309973,-0.104 -0.2949966,-0.208 -1.2129858,-1.939 4.8169437,-6.407 15.6428174,-13.4700001 1.104987,-0.722 2.172975,-1.417 2.847967,-1.88 -1.967977,0.578 -7.315915,4.057 -13.129847,8.2840001 -1.3319845,1.009 -2.8189671,2.125 -4.4769477,3.362 -0.5389937,0.401 -1.0389879,0.774 -1.4089835,1.053 -0.2179975,0.169 -0.434995,0.338 -0.6519924,0.507 -0.1009989,0.078 -0.2309973,0.105 -0.3549959,0.088 -0.1249985,-0.022 -0.2359972,-0.097 -0.3029964,-0.205 -0.1169987,-0.188 -0.173998,-0.28 0.1249985,-0.568 l -0.019,-0.024 c 0.685992,-0.534 3.3749606,-2.618 6.6319225,-4.99 3.1399649,-2.377001 6.8219219,-5.2210001 8.9738969,-7.0860001 -2.055976,1.285 -5.098941,3.229 -7.74291,4.9169991 -8.8068972,5.625001 -8.8158971,5.625001 -9.1108936,5.553001 -0.11699866,-0.025 -0.22099745,-0.1 -0.2849967,-0.201 -0.4539947,-0.727 0.4329949,-1.706 7.536912,-7.2150001 0.7839908,-0.608 1.6189812,-1.255 2.3019733,-1.799 -1.7679796,1.063 -4.4839478,3.0560001 -6.180928,4.3009991 -3.3339611,2.447001 -3.80495558,2.745001 -4.18195118,2.674001 -0.12299856,-0.023 -0.25399703,-0.111 -0.32099625,-0.218 -0.43799488,-0.7 0.45499469,-1.41 4.80694383,-4.4060001 0.3859955,-0.267 0.8089906,-0.558 1.2419855,-0.858 -5.39593696,3.5080001 -5.77993247,3.6270001 -6.08692888,3.5600001 -0.11799862,-0.026 -0.23399727,-0.107 -0.29899651,-0.21 -0.20099764,-0.321 -0.26099694,-0.416001 3.33196109,-3.7150001 -1.3799839,0.865 -2.45597132,1.4220001 -2.83096694,1.357 -0.12199858,-0.023 -0.28699665,-0.133 -0.35299588,-0.238 -0.14299833,-0.228 -0.44199481,-0.708 1.96597702,-3.322 l 0.1409984,-0.735 -0.088999,0.441 -0.2479971,-0.374 c 0.025,-0.019 0.084999,-0.066 0.1689981,-0.133 1.5469819,-1.231 1.9789768,-1.417 2.3219728,-1.361 0.1259986,0.021 0.2939966,0.131 0.3619958,0.239 0.1119987,0.18 0.083999,0.413 -0.066999,0.562 -1.3219846,1.291 -2.7499679,2.839 -3.39696036,3.731 1.36998406,-0.743 4.31294966,-2.733 6.94691886,-4.642 0.1939977,-0.141 0.4629946,-0.104 0.6139928,0.081 0.1509983,0.185 0.1299985,0.456 -0.046999,0.616 -1.6399809,1.486 -3.849955,3.505 -5.5429353,5.076 1.6149812,-1.026 3.5419587,-2.288 4.8679432,-3.157 2.869967,-1.878 2.865967,-1.873 3.087964,-1.826 0.117999,0.026 0.220998,0.1 0.285997,0.202 0.206998,0.332 0.126999,0.705 -0.341996,1.24 0.756991,-0.398 1.277985,-0.561 1.616981,-0.495 0.193998,0.037 0.354996,0.145 0.453995,0.302 0.291996,0.467 0.309996,0.495 -3.9759542,3.818 -1.6459808,1.2749991 -3.9819535,3.0870001 -5.562935,4.4540001 1.7159799,-1.078 4.1379516,-2.626001 6.3869255,-4.062 C 19.930822,3.5257059 19.981822,3.5407059 20.284818,3.6027059 c 0.116999,0.026 0.221998,0.101 0.285997,0.202 0.201998,0.324 0.389995,0.624 -1.926977,2.66 2.174974,-1.271 3.940953,-2.06 4.742944,-1.923 0.353996,0.063 0.537994,0.254 0.631993,0.403 0.296996,0.477 0.296996,0.477 -3.803956,3.151 C 16.445863,10.554705 5.4969906,17.697706 4.8199985,19.927706 c 1.3629841,-0.768 5.4049365,-3.409 9.0278955,-5.777 10.112881,-6.6090001 11.331867,-7.2980001 11.774862,-7.2030001 0.117999,0.026 0.236997,0.109 0.301996,0.212 0.064,0.103 0.084,0.227 0.057,0.344 -0.028,0.117 -0.103999,0.219 -0.205998,0.28 C 17.835846,12.544706 9.6559415,17.992706 7.0259722,20.510706 25.752753,8.5357059 26.03175,8.6097059 26.253748,8.6647059 c 0.116998,0.026 0.223997,0.101 0.286996,0.203 0.064,0.102 0.085,0.229 0.058,0.348 -0.064,0.271 -0.065,0.277 -3.190963,2.1909991 C 19.21983,13.969706 9.8509392,19.706706 8.0089607,22.288706 26.06475,10.813705 26.248748,10.859705 26.487745,10.901705 c 0.116998,0.027 0.219997,0.101 0.283997,0.202 0.478994,0.766001 -1.132987,2.523001 -3.673958,4.643001 2.181975,-1.418 2.558971,-1.563 2.819968,-1.508 0.118998,0.025 0.238997,0.108 0.304996,0.212 0.607993,0.975 -1.238986,2.334 -6.673922,5.97 -1.976977,1.323 -4.897943,3.277 -6.418925,4.604 9.928884,-6.338 10.068882,-6.311 10.30388,-6.266 0.115998,0.026 0.220997,0.1 0.283996,0.201 0.132999,0.211 0.068,0.487 -0.141998,0.62 -0.041,0.024 -0.084,0.044 -0.127999,0.056 -0.687992,0.337 -7.195916,4.46 -11.471866,7.193 -0.08,0.046 -0.163998,0.07 -0.248997,0.07 z"
       id="path4404" />
  </g>
</svg>
