<?xml version="1.0" encoding="UTF-8" standalone="no"?>
<svg
   width="64"
   height="64"
   version="1.1"
   id="svg37"
   sodipodi:docname="preferences-system-time-alt.svg"
   inkscape:version="1.2.2 (b0a8486541, 2022-12-01)"
   xmlns:inkscape="http://www.inkscape.org/namespaces/inkscape"
   xmlns:sodipodi="http://sodipodi.sourceforge.net/DTD/sodipodi-0.dtd"
   xmlns="http://www.w3.org/2000/svg"
   xmlns:svg="http://www.w3.org/2000/svg">
  <sodipodi:namedview
     id="namedview39"
     pagecolor="#ffffff"
     bordercolor="#000000"
     borderopacity="0.25"
     inkscape:showpageshadow="2"
     inkscape:pageopacity="0.0"
     inkscape:pagecheckerboard="0"
     inkscape:deskcolor="#d1d1d1"
     showgrid="false"
     inkscape:zoom="7.7176124"
     inkscape:cx="35.244061"
     inkscape:cy="26.562619"
     inkscape:window-width="1920"
     inkscape:window-height="1026"
     inkscape:window-x="0"
     inkscape:window-y="24"
     inkscape:window-maximized="1"
     inkscape:current-layer="svg37" />
  <defs
     id="defs15">
    <linearGradient
       id="linearGradient1448-53"
       x1="3.9687"
       x2="3.9687"
       y1="16.406"
       y2=".54085"
       gradientTransform="matrix(3.4646,0,0,3.4646,57.195,31.201)"
       gradientUnits="userSpaceOnUse">
      <stop
         stop-color="#667177"
         offset="0"
         id="stop2" />
      <stop
         stop-color="#94a0ac"
         offset="1"
         id="stop4" />
    </linearGradient>
    <filter
       id="filter1544"
       x="-0.083999786"
       y="-0.084000548"
       width="1.1679996"
       height="1.1680011"
       color-interpolation-filters="sRGB">
      <feGaussianBlur
         stdDeviation="0.46300928"
         id="feGaussianBlur7" />
    </filter>
    <linearGradient
       id="linearGradient1520"
       x1="8.6498"
       x2="8.6498"
       y1="16.427"
       y2=".64687"
       gradientTransform="matrix(2.5197,0,0,2.5197,65.107,39.217)"
       gradientUnits="userSpaceOnUse">
      <stop
         stop-color="#c3cdd2"
         offset="0"
         id="stop10" />
      <stop
         stop-color="#fafafa"
         offset="1"
         id="stop12" />
    </linearGradient>
  </defs>
  <g
     transform="matrix(1.0181633,0,0,1.0181633,-56.100144,-29.635025)"
     id="g35">
    <rect
       x="59.028"
       y="33.035"
       width="55.000999"
       height="55.000999"
       ry="13"
       fill="url(#linearGradient1448-53)"
       stroke-opacity="0.95294"
       stroke-width="0.31428"
       id="rect17"
       style="fill:url(#linearGradient1448-53)" />
    <rect
       transform="rotate(45)"
       x="99.846001"
       y="-42.495998"
       width="9.2308998"
       height="6.4612002"
       ry="0.92308998"
       fill="#414646"
       stroke-width="3.4889"
       id="rect19" />
    <path
       transform="matrix(3.1065,0,0,2.9663,2.2794,-64.024)"
       d="m 33.734,42.068 c 0,0.79293 -0.13958,1.5532 -0.39553,2.2578 -0.17792,0.48973 -0.41198,0.95273 -0.69492,1.381 -0.11852,0.18006 -0.24595,0.35395 -0.38121,0.52106 -0.43304,0.53482 -0.94764,1.0005 -1.5254,1.3786 -0.21275,0.13931 -0.43387,0.26675 -0.6628,0.38093 -0.88898,0.4449 -1.8925,0.69516 -2.9546,0.69516 -1.0621,0 -2.0656,-0.25026 -2.9546,-0.69518 -0.22895,-0.11421 -0.45033,-0.24163 -0.66307,-0.38093 -0.58504,-0.3831 -1.1058,-0.85615 -1.5423,-1.3998 -0.13552,-0.16846 -0.26269,-0.34396 -0.38121,-0.52564 -0.27538,-0.42115 -0.50349,-0.87556 -0.6779,-1.3558 -0.25591,-0.7044 -0.39524,-1.4644 -0.39524,-2.257 0,-3.653 2.9614,-6.6144 6.6144,-6.6144 1.8338,0 3.493,0.74622 4.6912,1.9514 0.34529,0.34718 0.65227,0.73272 0.91354,1.1495 0.24703,0.39256 0.45355,0.81316 0.61419,1.2556 0.25598,0.70464 0.39554,1.4649 0.39554,2.2578 z"
       filter="url(#filter1544)"
       opacity="0.3"
       stroke-width="0.025838"
       id="path21" />
    <path
       d="m 106.53,60.534 c 0,2.3976 -0.42203,4.6962 -1.196,6.8267 -0.53799,1.4808 -1.2457,2.8808 -2.1012,4.1757 -0.35834,0.54445 -0.74367,1.0702 -1.1527,1.5755 -1.3094,1.6171 -2.8653,3.0252 -4.6122,4.1685 -0.64329,0.4212 -1.3119,0.80657 -2.0041,1.1518 -2.688,1.3452 -5.7223,2.102 -8.9338,2.102 -3.2115,0 -6.2458,-0.75671 -8.9338,-2.102 C 76.90393,78.08688 76.2346,77.7016 75.5913,77.2804 73.8223,76.122 72.2479,74.6917 70.9276,73.048 70.51782,72.53862 70.13332,72.008 69.7749,71.4586 68.94222,70.1852 68.2525,68.8112 67.7251,67.3592 66.9513,65.2293 66.53,62.931 66.53,60.5348 c 0,-11.046 8.9543,-20 20,-20 5.5447,0 10.562,2.2563 14.185,5.9003 1.044,1.0497 1.9723,2.2155 2.7622,3.4758 0.74692,1.1869 1.3714,2.4587 1.8571,3.7966 0.77399,2.1306 1.196,4.4293 1.196,6.8267 z"
       fill="url(#linearGradient1520)"
       stroke-width="0.078124"
       id="path23"
       style="fill:url(#linearGradient1520)" />
    <g
       stroke-width="2.8995"
       id="g33">
      <rect
         transform="rotate(-60)"
         x="-10.18"
         y="91.254997"
         width="3.0685"
         height="15.343"
         ry="1.5343"
         fill="#414646"
         id="rect25" />
      <rect
         transform="rotate(45)"
         x="103.22"
         y="-35.066002"
         width="1.5343"
         height="17.643999"
         ry="0.76714998"
         fill="#414646"
         id="rect27" />
      <rect
         x="85.954002"
         y="58.868"
         width="1.5343"
         height="17.643999"
         ry="0.76714998"
         fill="#d73c05"
         id="rect29" />
      <circle
         cx="86.720001"
         cy="60.019001"
         r="3.0685"
         fill="#0f0f0f"
         id="circle31" />
    </g>
  </g>
</svg>
