<?xml version="1.0" encoding="UTF-8" standalone="no"?>
<svg
   width="64"
   height="64"
   version="1.1"
   id="svg46"
   sodipodi:docname="start.svg"
   inkscape:version="1.2.2 (b0a8486541, 2022-12-01)"
   xmlns:inkscape="http://www.inkscape.org/namespaces/inkscape"
   xmlns:sodipodi="http://sodipodi.sourceforge.net/DTD/sodipodi-0.dtd"
   xmlns:xlink="http://www.w3.org/1999/xlink"
   xmlns="http://www.w3.org/2000/svg"
   xmlns:svg="http://www.w3.org/2000/svg"
   xmlns:rdf="http://www.w3.org/1999/02/22-rdf-syntax-ns#"
   xmlns:cc="http://creativecommons.org/ns#"
   xmlns:dc="http://purl.org/dc/elements/1.1/">
  <metadata
     id="metadata50">
    <rdf:RDF>
      <cc:Work
         rdf:about="">
        <dc:format>image/svg+xml</dc:format>
        <dc:type
           rdf:resource="http://purl.org/dc/dcmitype/StillImage" />
        <dc:title />
      </cc:Work>
    </rdf:RDF>
  </metadata>
  <sodipodi:namedview
     pagecolor="#ffffff"
     bordercolor="#666666"
     borderopacity="1"
     objecttolerance="10"
     gridtolerance="10"
     guidetolerance="10"
     inkscape:pageopacity="0"
     inkscape:pageshadow="2"
     inkscape:window-width="1920"
     inkscape:window-height="1056"
     id="namedview48"
     showgrid="false"
     inkscape:zoom="5.7447206"
     inkscape:cx="-16.885068"
     inkscape:cy="13.403611"
     inkscape:window-x="0"
     inkscape:window-y="24"
     inkscape:window-maximized="1"
     inkscape:current-layer="g1039"
     inkscape:document-rotation="0"
     inkscape:pagecheckerboard="0"
     inkscape:showpageshadow="2"
     inkscape:deskcolor="#d1d1d1" />
  <defs
     id="defs24">
    <linearGradient
       id="a">
      <stop
         offset="0"
         id="stop2" />
      <stop
         stop-opacity="0"
         offset="1"
         id="stop4" />
    </linearGradient>
    <linearGradient
       id="f"
       x1="86"
       x2="63"
       y1="19.458"
       y2="39"
       gradientTransform="matrix(1.146 0 0 1.146 -57.378 -5.1691)"
       gradientUnits="userSpaceOnUse">
      <stop
         stop-color="#007abb"
         offset="0"
         id="stop7" />
      <stop
         stop-color="#006caf"
         offset="1"
         id="stop9" />
    </linearGradient>
    <linearGradient
       id="e"
       x1="86"
       x2="83"
       y1="20"
       y2="20"
       gradientTransform="matrix(1.146 0 0 1.146 -57.378 -5.1691)"
       gradientUnits="userSpaceOnUse"
       xlink:href="#a" />
    <linearGradient
       id="d"
       x1="87"
       x2="63"
       y1="46"
       y2="24"
       gradientTransform="matrix(1.146 0 0 1.146 -57.378 -5.1691)"
       gradientUnits="userSpaceOnUse">
      <stop
         stop-color="#0080ce"
         offset="0"
         id="stop13" />
      <stop
         stop-color="#008fd5"
         offset="1"
         id="stop15" />
    </linearGradient>
    <linearGradient
       id="c"
       x1="86"
       x2="83"
       y1="44"
       y2="44"
       gradientTransform="matrix(1.146 0 0 1.146 -57.378 -5.1691)"
       gradientUnits="userSpaceOnUse"
       xlink:href="#a" />
    <linearGradient
       id="linearGradient862"
       x1="7.9373"
       x2="7.9373"
       y1="15.081"
       y2="1.852"
       gradientTransform="scale(3.7796)"
       gradientUnits="userSpaceOnUse">
      <stop
         stop-color="#2a2a2a"
         offset="0"
         id="stop19" />
      <stop
         stop-color="#565656"
         offset="1"
         id="stop21" />
    </linearGradient>
    <linearGradient
       id="lgrad"
       x1="32"
       y1="32"
       x2="32"
       y2="992"
       gradientUnits="userSpaceOnUse"
       gradientTransform="translate(0,-896)">
      <stop
         offset="0%"
         stop-color="#f8f8f8"
         id="stop2-3" />
      <stop
         offset="100%"
         stop-color="#ccc"
         id="stop4-6" />
    </linearGradient>
    <radialGradient
       id="rgrad"
       x1="0%"
       y1="0%"
       x2="0%"
       y2="100%"
       fx="512"
       fy="494.39999"
       cx="512"
       cy="512"
       r="440"
       gradientUnits="userSpaceOnUse"
       gradientTransform="translate(0,-896)">
      <stop
         offset="0%"
         stop-color="#00f0ff"
         id="stop7-7" />
      <stop
         offset="100%"
         stop-color="#0070e0"
         id="stop9-53" />
    </radialGradient>
    <radialGradient
       gradientTransform="matrix(0.03099337,0,0,0.03032562,85.198869,42.985295)"
       gradientUnits="userSpaceOnUse"
       r="440"
       cy="306.1813"
       cx="523.57568"
       fy="306.1813"
       fx="523.57568"
       y2="100%"
       x2="0%"
       y1="0%"
       x1="0%"
       id="rgrad-3">
      <stop
         style="stop-color:#03d7e4;stop-opacity:1"
         id="stop7-6"
         stop-color="#00f0ff"
         offset="0%" />
      <stop
         id="stop9-7"
         stop-color="#0070e0"
         offset="100%" />
    </radialGradient>
    <filter
       id="b"
       color-interpolation-filters="sRGB"
       height="1.024007"
       width="1.023993"
       x="-0.011996"
       y="-0.012004">
      <feGaussianBlur
         stdDeviation=".47521291"
         id="feGaussianBlur7" />
    </filter>
    <linearGradient
       id="k"
       gradientUnits="userSpaceOnUse"
       x1="-350.6571"
       x2="-376.36255"
       y1="-73.89106"
       y2="-319.05783">
      <stop
         offset="0"
         stop-color="#83a3d4"
         id="stop50" />
      <stop
         offset="1"
         stop-color="#6bb5e3"
         id="stop52" />
    </linearGradient>
    <linearGradient
       id="i"
       gradientUnits="userSpaceOnUse"
       x1="-206.76952"
       x2="10.51211"
       y1="-12.925184"
       y2="-156.88734">
      <stop
         offset="0"
         stop-color="#70c2bd"
         id="stop40" />
      <stop
         offset="1"
         stop-color="#67c381"
         id="stop42" />
    </linearGradient>
    <linearGradient
       id="e-5"
       gradientUnits="userSpaceOnUse"
       x1="134.56509"
       x2="148.51404"
       y1="117.30138"
       y2="-149.18999">
      <stop
         offset="0"
         stop-color="#faaa32"
         id="stop20" />
      <stop
         offset="1"
         stop-color="#fdc22b"
         id="stop22" />
    </linearGradient>
    <linearGradient
       id="c-6"
       gradientUnits="userSpaceOnUse"
       x1="-146.054"
       x2="123.35784"
       y1="144.89951"
       y2="144.89951">
      <stop
         offset="0"
         stop-color="#a0cf63"
         id="stop10" />
      <stop
         offset="1"
         stop-color="#c4da45"
         id="stop12" />
    </linearGradient>
    <linearGradient
       id="m"
       gradientUnits="userSpaceOnUse"
       x1="206.7137"
       x2="28.495264"
       y1="-12.740612"
       y2="-150.01163">
      <stop
         offset="0"
         stop-color="#b28cc0"
         id="stop60" />
      <stop
         offset="1"
         stop-color="#9a8ec4"
         id="stop62" />
    </linearGradient>
    <linearGradient
       id="q"
       gradientUnits="userSpaceOnUse"
       x1="189.94229"
       x2="-19.617525"
       y1="147.05296"
       y2="76.406288">
      <stop
         offset="0"
         stop-color="#f48155"
         id="stop80" />
      <stop
         offset="1"
         stop-color="#f16168"
         id="stop82" />
    </linearGradient>
    <linearGradient
       id="l"
       gradientUnits="userSpaceOnUse"
       x1="116.504"
       x2="21.156284"
       y1="308.30261"
       y2="34.179653">
      <stop
         offset="0"
         stop-color="#735194"
         id="stop55" />
      <stop
         offset="1"
         stop-color="#525da3"
         id="stop57" />
    </linearGradient>
    <linearGradient
       id="j"
       gradientUnits="userSpaceOnUse"
       x1="30.131145"
       x2="123.3283"
       y1="111.50156"
       y2="-107.16671">
      <stop
         offset="0"
         stop-color="#416db9"
         id="stop45" />
      <stop
         offset="1"
         stop-color="#337e8d"
         id="stop47" />
    </linearGradient>
    <linearGradient
       id="h"
       gradientUnits="userSpaceOnUse"
       x1="-103.67039"
       x2="205.55051"
       y1="133.12218"
       y2="0.071801998">
      <stop
         offset="0"
         stop-color="#2e9274"
         id="stop35" />
      <stop
         offset="1"
         stop-color="#469d3c"
         id="stop37" />
    </linearGradient>
    <linearGradient
       id="f-2"
       gradientUnits="userSpaceOnUse"
       x1="26.97802"
       x2="146.80986"
       y1="120.22743"
       y2="-100.48971">
      <stop
         offset="0"
         stop-color="#ec4001"
         id="stop25" />
      <stop
         offset="1"
         stop-color="#fb6f01"
         id="stop27" />
    </linearGradient>
    <linearGradient
       id="d-9"
       gradientUnits="userSpaceOnUse"
       x1="-14.298616"
       x2="309.397"
       y1="73.499695"
       y2="73.499695">
      <stop
         offset="0"
         stop-color="#58a920"
         id="stop15-1" />
      <stop
         offset="1"
         stop-color="#98b811"
         id="stop17" />
    </linearGradient>
    <linearGradient
       id="o"
       gradientUnits="userSpaceOnUse"
       x1="-123.11901"
       x2="145.987"
       y1="144.897"
       y2="144.897">
      <stop
         offset="0"
         stop-color="#d287af"
         id="stop70" />
      <stop
         offset="1"
         stop-color="#e07993"
         id="stop72" />
    </linearGradient>
    <linearGradient
       id="p"
       gradientUnits="userSpaceOnUse"
       x1="-205.78"
       x2="117.81888"
       y1="-71.695564"
       y2="-71.695564">
      <stop
         offset="0"
         stop-color="#bd090f"
         id="stop75" />
      <stop
         offset="1"
         stop-color="#e11f07"
         id="stop77" />
    </linearGradient>
    <linearGradient
       id="n"
       gradientUnits="userSpaceOnUse"
       x1="0.176406"
       x2="-308.72031"
       y1="-14.582834"
       y2="-143.7106">
      <stop
         offset="0"
         stop-color="#c23857"
         id="stop65" />
      <stop
         offset="1"
         stop-color="#914475"
         id="stop67" />
    </linearGradient>
    <linearGradient
       id="g"
       gradientUnits="userSpaceOnUse"
       x1="41.409683"
       x2="117.31723"
       y1="108.52529"
       y2="319.1076">
      <stop
         offset="0"
         stop-color="#e69e08"
         id="stop30" />
      <stop
         offset="1"
         stop-color="#cbc507"
         id="stop32" />
    </linearGradient>
    <radialGradient
       id="rgrad-5"
       x1="0%"
       y1="0%"
       x2="0%"
       y2="100%"
       fx="512"
       fy="494.39999"
       cx="512"
       cy="512"
       r="440"
       gradientUnits="userSpaceOnUse"
       gradientTransform="translate(0,-896)">
      <stop
         offset="0%"
         stop-color="#00f0ff"
         id="stop7-3" />
      <stop
         offset="100%"
         stop-color="#0070e0"
         id="stop9-5" />
    </radialGradient>
    <radialGradient
       gradientTransform="matrix(0.03099337,0,0,0.03032562,85.198869,42.985295)"
       gradientUnits="userSpaceOnUse"
       r="440"
       cy="306.1813"
       cx="523.57568"
       fy="306.1813"
       fx="523.57568"
       y2="100%"
       x2="0%"
       y1="0%"
       x1="0%"
       id="rgrad-3-6">
      <stop
         style="stop-color:#03d7e4;stop-opacity:1"
         id="stop7-6-2"
         stop-color="#00f0ff"
         offset="0%" />
      <stop
         id="stop9-7-9"
         stop-color="#0070e0"
         offset="100%" />
    </radialGradient>
    <filter
       id="b-1"
       color-interpolation-filters="sRGB"
       height="1.024007"
       width="1.023993"
       x="-0.011996"
       y="-0.012004">
      <feGaussianBlur
         stdDeviation=".47521291"
         id="feGaussianBlur7-2" />
    </filter>
  </defs>
  <g
     id="g992"
     transform="matrix(3.7795276,0,0,3.7795276,-99.935873,-32.418695)">
    <g
       id="g1039"
       transform="matrix(1.1974342,0,0,1.1974342,44.711614,7.113534)">
      <rect
         ry="3.0050962"
         rx="3.0050962"
         y="1.5261759"
         x="-14.956606"
         height="13.553171"
         width="13.553171"
         id="rect849-3"
         style="display:inline;opacity:0.1;fill:#979daf;fill-opacity:1;stroke-width:1.23736791;stroke-linecap:round;stroke-linejoin:round;stroke-dasharray:none" />
      <path
         id="rect849-3-3"
         style="display:inline;opacity:0.05;fill:#979daf;fill-opacity:1;stroke-width:1.23736789;stroke-linecap:round;stroke-linejoin:round;stroke-dasharray:none"
         d="m -11.951636,1.5261956 c -1.664824,0 -3.00495,1.3401267 -3.00495,3.0049499 v 7.5427995 c 0,1.664823 1.340126,3.005382 3.00495,3.005382 h 7.5432314 c 1.6648232,0 3.0049501,-1.340559 3.0049501,-3.005382 V 4.5311455 c 0,-1.6648232 -1.3401269,-3.0049499 -3.0049501,-3.0049499 z m 0.142846,0.2559149 h 7.257971 c 1.6019119,0 2.8914503,1.2895384 2.8914503,2.8914498 V 11.93153 c 0,1.601912 -1.2895384,2.89145 -2.8914503,2.89145 h -7.257971 c -1.601911,0 -2.89145,-1.289538 -2.89145,-2.89145 V 4.6735603 c 0,-1.6019114 1.289539,-2.8914498 2.89145,-2.8914498 z" />
      <path
         d="m -12.088335,4.1887516 h 2.8797985 c 0.1139581,0 0.2057005,0.091743 0.2057005,0.2057004 v 2.879807 c 0,0.113958 -0.091743,0.2057005 -0.2057005,0.2057005 h -2.8797985 c -0.113959,0 -0.205701,-0.091743 -0.205701,-0.2057005 V 4.394452 c 0,-0.1139581 0.09175,-0.2057004 0.205701,-0.2057004 z m 4.9368114,0 h 2.8797987 c 0.1139582,0 0.2057004,0.091743 0.2057004,0.2057004 v 2.879807 c 0,0.113958 -0.091743,0.2057005 -0.2057004,0.2057005 h -2.8797987 c -0.113958,0 -0.2057005,-0.091743 -0.2057005,-0.2057005 V 4.394452 c 0,-0.1139581 0.091743,-0.2057004 0.2057005,-0.2057004 z m -4.9368114,4.9368117 h 2.8798151 c 0.113958,0 0.2057004,0.091743 0.2057004,0.2057006 v 2.8798081 c 0,0.113957 -0.091743,0.205699 -0.2057004,0.205699 h -2.8798151 c -0.113959,0 -0.205701,-0.09175 -0.205701,-0.205699 V 9.3312639 c 0,-0.113958 0.09175,-0.2057006 0.205701,-0.2057006 z m 4.9368114,0 h 2.8798152 c 0.113958,0 0.2057005,0.091743 0.2057005,0.2057006 v 2.8798081 c 0,0.113957 -0.091743,0.205699 -0.2057005,0.205699 h -2.8798152 c -0.113958,0 -0.2057005,-0.09175 -0.2057005,-0.205699 V 9.3312639 c 0,-0.113958 0.091743,-0.2057006 0.2057005,-0.2057006 z"
         id="path2"
         style="display:none;opacity:0.9;fill:#979daf;fill-opacity:1;stroke-width:0.822802" />
      <path
         id="path2-6"
         style="opacity:0.9;fill:#979daf;fill-opacity:1;stroke-width:0.681226"
         d="m -11.415209,4.1904274 c -0.471126,0 -0.877792,0.3968541 -0.877792,0.8760661 v 2.2285742 c 0.0105,0.1039771 0.09772,0.1847075 0.204559,0.1847075 h 2.8797975 c 0.1139574,0 0.205854,-0.091896 0.205854,-0.2058539 V 4.3941235 c 0,-0.09895 -0.069444,-0.1811723 -0.1622664,-0.2011068 -0.5090011,-0.00149 -1.1130041,-0.00259 -2.2501521,-0.00259 z m 6.4716685,0 c -1.025397,0.00336 -1.728315,0.005 -2.2630986,0.00561 -0.087116,0.023919 -0.1506144,0.1031693 -0.1506144,0.1980859 v 2.8797978 c 0,0.1139573 0.091465,0.2058539 0.2054225,0.2058539 h 2.8797975 c 0.106838,0 0.194495,-0.08073 0.204991,-0.1847075 v -2.228574 c 0,-0.4711096 -0.405387,-0.8760661 -0.876498,-0.8760661 z m -7.1449015,4.9348849 c -0.106829,0 -0.194062,0.08073 -0.204559,0.1847075 v 2.2281432 c 0,0.479203 0.406646,0.876498 0.877792,0.876498 1.293135,5.44e-4 1.6543339,4.17e-4 2.2311634,4.31e-4 0.102279,-0.01208 0.1812551,-0.09893 0.1812551,-0.204559 V 9.3307347 c 0,-0.1139609 -0.091896,-0.2054224 -0.205854,-0.2054224 z m 4.936611,0 c -0.1139574,0 -0.2054225,0.091465 -0.2054225,0.2054224 v 2.8797983 c 0,0.105648 0.078942,0.192508 0.1812551,0.204559 0.5405702,-2.09e-4 0.9707959,-4.31e-4 2.2324579,-4.31e-4 0.471116,0 0.876498,-0.405382 0.876498,-0.876498 V 9.3100198 c -0.010496,-0.1039797 -0.098155,-0.1847075 -0.204991,-0.1847075 z"
         inkscape:label="path3" />
    </g>
  </g>
</svg>
