<?xml version="1.0" encoding="UTF-8" standalone="no"?>
<svg
   id="svg993"
   width="64"
   height="64"
   version="1.1"
   viewBox="0 0 16.933 16.933"
   sodipodi:docname="xemu.svg"
   inkscape:version="1.2.2 (b0a8486541, 2022-12-01)"
   xmlns:inkscape="http://www.inkscape.org/namespaces/inkscape"
   xmlns:sodipodi="http://sodipodi.sourceforge.net/DTD/sodipodi-0.dtd"
   xmlns="http://www.w3.org/2000/svg"
   xmlns:svg="http://www.w3.org/2000/svg">
  <sodipodi:namedview
     id="namedview17"
     pagecolor="#ffffff"
     bordercolor="#000000"
     borderopacity="0.25"
     inkscape:showpageshadow="2"
     inkscape:pageopacity="0.0"
     inkscape:pagecheckerboard="0"
     inkscape:deskcolor="#d1d1d1"
     showgrid="false"
     inkscape:zoom="14.0625"
     inkscape:cx="32"
     inkscape:cy="32"
     inkscape:window-width="1920"
     inkscape:window-height="1056"
     inkscape:window-x="0"
     inkscape:window-y="24"
     inkscape:window-maximized="1"
     inkscape:current-layer="svg993" />
  <defs
     id="defs939">
    <filter
       id="filter1057-1"
       x="-0.026999999"
       y="-0.026999999"
       width="1.054"
       height="1.054"
       color-interpolation-filters="sRGB">
      <feGaussianBlur
         id="feGaussianBlur895"
         stdDeviation="0.61875" />
    </filter>
    <linearGradient
       id="linearGradient1053-2"
       x1="-127"
       x2="-80.659"
       y1="60"
       y2="13.659"
       gradientTransform="matrix(0.26959859,0,0,0.26959859,35.436809,-0.15262039)"
       gradientUnits="userSpaceOnUse">
      <stop
         id="stop898"
         stop-color="#0f3612"
         offset="0" />
      <stop
         id="stop900"
         stop-color="#1b641e"
         offset="1" />
    </linearGradient>
  </defs>
  <rect
     id="rect941"
     transform="matrix(0.26959858,0,0,0.26959858,-0.01513102,-0.01513102)"
     x="4.5"
     y="4.5"
     width="55"
     height="55"
     ry="15"
     fill="#141414"
     filter="url(#filter1057-1)"
     opacity="0.3"
     stroke-linecap="round"
     stroke-width="2.7444" />
  <rect
     id="rect943"
     x="1.1980524"
     y="1.1980524"
     width="14.828024"
     height="14.827984"
     ry="3.9686718"
     fill="url(#linearGradient1053-2)"
     stroke-linecap="round"
     stroke-width="0.739883"
     rx="3.9686718"
     style="fill:url(#linearGradient1053-2)" />
  <path
     id="rect1682"
     d="m 5.4870918,1.737248 c -2.0774269,0 -3.7498445,1.6724179 -3.7498445,3.7498443 v 6.2497407 c 0,2.077426 1.6724176,3.749844 3.7498445,3.749844 h 6.2497402 c 2.077425,0 3.749845,-1.672418 3.749845,-3.749844 V 5.4870923 c 0,-2.0774265 -1.67242,-3.7498444 -3.749845,-3.7498444 z m 0.1704029,0.3749844 h 5.9089343 c 1.964085,0 3.545262,1.5811781 3.545262,3.545263 V 11.56643 c 0,1.964086 -1.581177,3.545263 -3.545262,3.545263 H 5.6574947 c -1.9640851,0 -3.5452632,-1.581177 -3.5452632,-3.545263 V 5.6574954 c 0,-1.964085 1.5811781,-3.545263 3.5452632,-3.545263 z"
     fill="#62ca13"
     stroke-width="0.944862" />
  <g
     id="g1719"
     transform="matrix(0.40864295,0,0,0.40864295,5.5846176,-0.99776107)"
     fill="#62ca13">
    <path
       id="path1469"
       d="M 1.1436201,26.35248 Q 1.0213659,26.107972 0.8379849,25.814562 0.66682918,25.521152 0.45899752,25.215518 0.25116553,24.897657 0.01888291,24.592022 q -0.22005698,-0.305635 -0.44011428,-0.574594 -0.22005731,0.281184 -0.46456524,0.586819 -0.24450789,0.305635 -0.47679059,0.623496 -0.2200573,0.305635 -0.4156636,0.599045 -0.1956067,0.293409 -0.3300858,0.525692 h -1.0391593 q 0.4034383,-0.733524 0.9780321,-1.503724 0.5868193,-0.782426 1.1491877,-1.479274 L -3.061918,20.679894 h 1.1369624 l 1.5281749,1.980515 1.4059213,-1.980515 h 1.0758352 l -1.8704862,2.628461 q 0.5501431,0.721299 1.1002859,1.503724 0.5623687,0.782426 0.9535814,1.540401 z" />
    <path
       id="path1471"
       d="m 4.7187109,20.545414 q 1.1491877,0 1.7726831,0.721299 0.6234956,0.709073 0.6234956,2.163896 v 0.354537 H 3.0560563 q 0.061127,0.880229 0.574594,1.344794 0.5256922,0.45234 1.4670479,0.45234 0.5379178,0 0.9169052,-0.08558 0.3789874,-0.08558 0.5745937,-0.183381 l 0.1344795,0.855778 q -0.1833811,0.0978 -0.6601715,0.207832 -0.4767906,0.110028 -1.0758352,0.110028 -0.7335241,0 -1.2958925,-0.220057 Q 3.1416341,26.034619 2.7748722,25.643407 2.40811,25.252194 2.224729,24.714276 2.041348,24.164133 2.041348,23.528412 q 0,-0.757975 0.2322825,-1.320343 0.2322827,-0.562368 0.6112704,-0.929131 0.3789873,-0.366762 0.8557779,-0.550143 0.4767906,-0.183381 0.9780321,-0.183381 z m 1.369245,2.42063 q 0,-0.721299 -0.3789877,-1.136962 -0.3789873,-0.42789 -1.0024826,-0.42789 -0.3545365,0 -0.647946,0.13448 -0.2811842,0.134479 -0.4890162,0.354536 -0.2078317,0.220058 -0.3300858,0.501242 -0.1222538,0.281184 -0.1589301,0.574594 z" />
    <path
       id="path1473"
       d="m 7.6370945,20.838824 q 0.7335242,-0.281184 1.3814708,-0.281184 0.354536,0 0.6601724,0.110028 0.31786,0.0978 0.5379173,0.317861 0.525692,-0.427889 1.124737,-0.427889 0.29341,0 0.550143,0.110028 0.268959,0.110029 0.464565,0.330086 0.207832,0.220057 0.330086,0.550143 0.122254,0.330086 0.122254,0.7702 v 4.034383 h -0.916905 v -4.058833 q 0,-0.440115 -0.195606,-0.672397 -0.195607,-0.232283 -0.489016,-0.232283 -0.146705,0 -0.305635,0.07335 -0.158931,0.07335 -0.29341,0.232283 0.07335,0.281184 0.07335,0.623495 v 1.846036 H 9.7643117 V 22.30587 q 0,-0.427889 -0.134479,-0.672397 -0.13448,-0.244508 -0.5256924,-0.244508 -0.2445082,0 -0.5501433,0.110029 V 26.35248 H 7.6370945 Z" />
    <path
       id="path1475"
       d="m 17.964072,26.19355 q -0.330086,0.08558 -0.880229,0.183381 -0.537918,0.0978 -1.271442,0.0978 -0.647946,0 -1.075835,-0.183381 -0.427889,-0.195606 -0.696848,-0.537918 -0.268959,-0.354536 -0.378987,-0.831327 -0.110029,-0.476791 -0.110029,-1.051384 v -3.19083 h 1.002483 v 2.970772 q 0,1.051385 0.305635,1.491499 0.317861,0.440115 1.051384,0.440115 0.158931,0 0.317861,-0.01223 0.171156,-0.01223 0.31786,-0.02445 0.146705,-0.02445 0.256734,-0.03668 0.110028,-0.02445 0.146705,-0.03668 v -4.792358 h 1.014708 z" />
  </g>
</svg>
