<?xml version="1.0" encoding="UTF-8" standalone="no"?>
<!-- Created with Inkscape (http://www.inkscape.org/) -->

<svg
   width="24"
   height="24"
   viewBox="0 0 6.3499997 6.3500003"
   version="1.1"
   id="svg2435"
   inkscape:version="1.2.2 (b0a8486541, 2022-12-01)"
   sodipodi:docname="configure.svg"
   xmlns:inkscape="http://www.inkscape.org/namespaces/inkscape"
   xmlns:sodipodi="http://sodipodi.sourceforge.net/DTD/sodipodi-0.dtd"
   xmlns="http://www.w3.org/2000/svg"
   xmlns:svg="http://www.w3.org/2000/svg"
   xmlns:rdf="http://www.w3.org/1999/02/22-rdf-syntax-ns#"
   xmlns:cc="http://creativecommons.org/ns#"
   xmlns:dc="http://purl.org/dc/elements/1.1/">
  <defs
     id="defs2429">
    <style
       id="current-color-scheme"
       type="text/css">.ColorScheme-Text {
        color:#a1adc8;
      }</style>
  </defs>
  <sodipodi:namedview
     id="base"
     pagecolor="#ffffff"
     bordercolor="#666666"
     borderopacity="1.0"
     inkscape:pageopacity="0.0"
     inkscape:pageshadow="2"
     inkscape:zoom="22.4"
     inkscape:cx="15.223214"
     inkscape:cy="11.696429"
     inkscape:document-units="px"
     inkscape:current-layer="svg2435"
     showgrid="true"
     units="px"
     inkscape:window-width="1920"
     inkscape:window-height="1026"
     inkscape:window-x="0"
     inkscape:window-y="24"
     inkscape:window-maximized="1"
     inkscape:showpageshadow="2"
     inkscape:pagecheckerboard="0"
     inkscape:deskcolor="#d1d1d1">
    <inkscape:grid
       type="xygrid"
       id="grid2980"
       spacingx="0.13229167"
       spacingy="0.13229167"
       originx="0"
       originy="0" />
  </sodipodi:namedview>
  <metadata
     id="metadata2432">
    <rdf:RDF>
      <cc:Work
         rdf:about="">
        <dc:format>image/svg+xml</dc:format>
        <dc:type
           rdf:resource="http://purl.org/dc/dcmitype/StillImage" />
      </cc:Work>
    </rdf:RDF>
  </metadata>
  <rect
     style="display:inline;fill:none;stroke-width:0.456623;stroke-opacity:0.372549"
     id="rect845"
     width="6.3499999"
     height="6.3499999"
     x="0"
     y="-1.1816406e-05" />
  <path
     style="fill:currentColor;fill-opacity:1;stroke:none;stroke-width:0.349091;stroke-linecap:round;stroke-linejoin:round;stroke-miterlimit:4;stroke-dasharray:none;stroke-opacity:1"
     class="ColorScheme-Text"
     d="m 1.5875,1.0102284 c -0.5596645,0 -1.01022727,0.4505627 -1.01022727,1.0102272 0,0.5596645 0.45056277,1.0102274 1.01022727,1.0102274 h 3.175 c 0.5596645,0 1.0102273,-0.4505629 1.0102273,-1.0102274 0,-0.5596645 -0.4505628,-1.0102272 -1.0102273,-1.0102272 z M 4.7275479,1.2238869 A 0.78215304,0.78215304 0 0 1 5.5100232,2.0063621 0.78215304,0.78215304 0 0 1 4.7275479,2.7882735 0.78215304,0.78215304 0 0 1 3.9456366,2.0063621 0.78215304,0.78215304 0 0 1 4.7275479,1.2238869 Z"
     id="rect4679" />
  <path
     style="fill:currentColor;fill-opacity:1;stroke:none;stroke-width:0.349091;stroke-linecap:round;stroke-linejoin:round;stroke-miterlimit:4;stroke-dasharray:none;stroke-opacity:1"
     class="ColorScheme-Text"
     d="m 1.5875,3.4636375 c -0.5596645,0 -1.01022727,0.4505628 -1.01022727,1.0102272 0,0.5596646 0.45056277,1.0102274 1.01022727,1.0102274 h 3.175 c 0.5596645,0 1.0102273,-0.4505628 1.0102273,-1.0102274 0,-0.5596644 -0.4505628,-1.0102272 -1.0102273,-1.0102272 z M 1.58355,3.7111206 A 0.78215304,0.78215304 0 0 1 2.366028,4.4930319 0.78215304,0.78215304 0 0 1 1.5835528,5.2755072 0.78215304,0.78215304 0 0 1 0.80164149,4.4930319 0.78215304,0.78215304 0 0 1 1.5835528,3.7111206 Z"
     id="rect4681" />
</svg>
