<?xml version="1.0" encoding="UTF-8" standalone="no"?>
<svg
   width="22"
   height="22"
   version="1.1"
   id="svg7"
   sodipodi:docname="notifications.svg"
   inkscape:version="1.2.2 (b0a8486541, 2022-12-01)"
   xmlns:inkscape="http://www.inkscape.org/namespaces/inkscape"
   xmlns:sodipodi="http://sodipodi.sourceforge.net/DTD/sodipodi-0.dtd"
   xmlns="http://www.w3.org/2000/svg"
   xmlns:svg="http://www.w3.org/2000/svg">
  <defs
     id="defs11" />
  <sodipodi:namedview
     id="namedview9"
     pagecolor="#ffffff"
     bordercolor="#000000"
     borderopacity="0.25"
     inkscape:showpageshadow="2"
     inkscape:pageopacity="0.0"
     inkscape:pagecheckerboard="0"
     inkscape:deskcolor="#d1d1d1"
     showgrid="false"
     inkscape:zoom="35.156662"
     inkscape:cx="9.1590038"
     inkscape:cy="11.804306"
     inkscape:window-width="1920"
     inkscape:window-height="1026"
     inkscape:window-x="0"
     inkscape:window-y="24"
     inkscape:window-maximized="1"
     inkscape:current-layer="svg7" />
  <style
     id="current-color-scheme"
     type="text/css">.ColorScheme-Text {
            color:#a1adc8;
        }
        .ColorScheme-NegativeText {
            color:#da4453;
        }</style>
  <rect
     x="-1.002"
     y="-64.012001"
     width="22"
     height="22"
     fill="none"
     stroke-linecap="round"
     stroke-linejoin="round"
     stroke-width="1.6923"
     id="rect42"
     style="display:inline"
     transform="translate(1.0019653,64.011966)" />
  <path
     class="ColorScheme-Text"
     d="M 11,3 A 1,1 0 0 0 10.006,4.1 4.988,4.988 0 0 0 6,9 v 4.5 l -2,2 V 16 h 14 v -0.5 l -2,-2 V 9 A 4.987,4.987 0 0 0 11.994,4.1 1,1 0 0 0 11,3 Z m 0,2 a 4,4 0 0 1 4,4 v 4.922 L 16,15 H 6 L 7,13.922 V 9 A 4,4 0 0 1 11,5 Z M 9.27,17 a 2,2 0 0 0 1.73,1 2,2 0 0 0 1.729,-1 z"
     opacity="0.35"
     id="path3"
     style="fill:currentColor;display:none" />
  <path
     class="ColorScheme-Text"
     d="m 10.997794,3.0937285 c 3.1489,0 5.7439,2.3349 5.9844,5.3554 l 0.0134,0.22222 0.0045,0.22452 -0.001,3.5958995 0.9254,2.2222 c 0.0226,0.0541 0.0403,0.11 0.053,0.1669 l 0.0152,0.0862 0.0087,0.1313 c 0,0.448 -0.2965,0.8341 -0.7492,0.9631 l -0.1163,0.0268 -0.1345,0.0101 -3.5017,-6e-4 -0.005,0.1613 c -0.0851,1.3037 -1.1694,2.334701 -2.4946,2.334701 -1.3255001,0 -2.4100001,-1.0315 -2.4947001,-2.3356 l -0.0057,-0.160401 -3.5007,6e-4 c -0.08795,0 -0.17533,-0.0116 -0.25989,-0.0344 l -0.12446,-0.0425 c -0.41078,-0.170999 -0.65275,-0.5885 -0.60235,-1.051999 l 0.02109,-0.1274 0.04242,-0.1281 0.9233,-2.2192 0.0011,-3.6082005 0.0043,-0.22457 c 0.12262,-3.1171 2.7666,-5.5682 5.9933001,-5.5682 z m 1.5019,13.0039995 H 9.4996939 l 0.0074,0.1414 c 0.06855,0.7127 0.6357801,1.2796 1.3486001,1.3477 l 0.14444,0.007 c 0.7797,0 1.4205,-0.5949 1.4931,-1.3555 z m -1.5019,-12.0039995 c -2.6226001,0 -4.7705001,1.9237 -4.9805001,4.385 l -0.01322,0.21225 -0.0039,0.20491 v 3.6978995 l -0.03841,0.1922 -0.96271,2.3124 11.9580001,0.002 0.0453,-0.002 -0.9635,-2.3123 -0.0384,-0.1922 10e-5,-3.6875995 -0.0041,-0.2041 c -0.1051,-2.5734 -2.3013,-4.6083 -4.9983,-4.6083 z"
     id="path37"
     style="fill:currentColor;display:inline" />
</svg>
