<?xml version="1.0" encoding="UTF-8" standalone="no"?>
<!-- Created with Inkscape (http://www.inkscape.org/) -->

<svg
   width="220"
   height="180"
   id="svg3642"
   sodipodi:version="0.32"
   inkscape:version="1.2.2 (b0a8486541, 2022-12-01)"
   sodipodi:docname="background.svgz"
   inkscape:output_extension="org.inkscape.output.svgz.inkscape"
   version="1.0"
   xmlns:inkscape="http://www.inkscape.org/namespaces/inkscape"
   xmlns:sodipodi="http://sodipodi.sourceforge.net/DTD/sodipodi-0.dtd"
   xmlns:xlink="http://www.w3.org/1999/xlink"
   xmlns="http://www.w3.org/2000/svg"
   xmlns:svg="http://www.w3.org/2000/svg"
   xmlns:rdf="http://www.w3.org/1999/02/22-rdf-syntax-ns#"
   xmlns:cc="http://creativecommons.org/ns#"
   xmlns:dc="http://purl.org/dc/elements/1.1/">
  <sodipodi:namedview
     id="base"
     pagecolor="#919191"
     bordercolor="#666666"
     borderopacity="1.0"
     inkscape:pageopacity="1"
     inkscape:pageshadow="2"
     inkscape:zoom="14.677243"
     inkscape:cx="39.108162"
     inkscape:cy="30.966306"
     inkscape:current-layer="layer1"
     showgrid="true"
     inkscape:grid-bbox="true"
     inkscape:document-units="px"
     inkscape:window-width="1920"
     inkscape:window-height="1004"
     inkscape:window-x="0"
     inkscape:window-y="0"
     width="148px"
     height="148px"
     objecttolerance="23"
     gridtolerance="10"
     guidetolerance="25"
     showguides="true"
     inkscape:guide-bbox="true"
     inkscape:window-maximized="1"
     inkscape:showpageshadow="2"
     inkscape:pagecheckerboard="0"
     inkscape:deskcolor="#919191">
    <inkscape:grid
       snapvisiblegridlinesonly="true"
       empspacing="5"
       enabled="true"
       visible="true"
       id="grid3357"
       type="xygrid"
       originx="0"
       originy="0" />
  </sodipodi:namedview>
  <defs
     id="defs3644">
    <style
       type="text/css"
       id="current-color-scheme">
      .ColorScheme-Text {
        color:#7B7C7E;
      }
      .ColorScheme-Background{
        color:#1a2332;
      }
      .ColorScheme-Highlight{
        color:#3DAEE6;
      }
      .ColorScheme-ViewText {
        color:#7B7C7E;
      }
      .ColorScheme-ViewBackground{
        color:#FCFCFC;
      }
      .ColorScheme-ViewHover {
        color:#3DAEE6;
      }
      .ColorScheme-ViewFocus{
        color:#1E92FF;
      }
      .ColorScheme-ButtonText {
        color:#7B7C7E;
      }
      .ColorScheme-ButtonBackground{
        color:#1a2332;
      }
      .ColorScheme-ButtonHover {
        color:#3DAEE6;
      }
      .ColorScheme-ButtonFocus{
        color:#1E92FF;
      }
</style>
    <linearGradient
       id="a">
      <stop
         id="stop3"
         offset="0" />
      <stop
         id="stop5"
         offset="1"
         stop-opacity="0" />
    </linearGradient>
    <radialGradient
       inkscape:collect="always"
       xlink:href="#a"
       id="radialGradient2163-2-7"
       gradientUnits="userSpaceOnUse"
       gradientTransform="matrix(1.4486825e-4,-4.8334884,4.8331885,1.4492251e-4,-33.001883,1014.1955)"
       cx="19"
       cy="12"
       r="6"
       fx="19"
       fy="12" />
    <linearGradient
       inkscape:collect="always"
       xlink:href="#a"
       id="linearGradient1606"
       gradientUnits="userSpaceOnUse"
       gradientTransform="matrix(3,0,0,1,1820.7,0)"
       x1="-914.35333"
       y1="-35"
       x2="-904.68665"
       y2="-35" />
    <radialGradient
       inkscape:collect="always"
       xlink:href="#a"
       id="radialGradient992"
       cx="25.000004"
       cy="922.35999"
       fx="25.000004"
       fy="922.35999"
       r="15"
       gradientUnits="userSpaceOnUse"
       gradientTransform="matrix(2.5890072e-6,-1.9333324,1.9333318,2.6058456e-6,-1758.228,970.6909)" />
    <linearGradient
       inkscape:collect="always"
       xlink:href="#a"
       id="linearGradient1096"
       x1="-922.35999"
       y1="-35"
       x2="-893.35999"
       y2="-35"
       gradientUnits="userSpaceOnUse" />
    <radialGradient
       inkscape:collect="always"
       xlink:href="#a"
       id="radialGradient1108"
       cx="24.999989"
       cy="922.35992"
       fx="24.999989"
       fy="922.35992"
       r="15"
       gradientUnits="userSpaceOnUse"
       gradientTransform="matrix(3.1669929e-6,-1.933333,1.9333323,3.1377223e-6,-1758.2284,970.6904)" />
    <linearGradient
       inkscape:collect="always"
       xlink:href="#a"
       id="linearGradient1116"
       x1="-922.35999"
       y1="-34.999992"
       x2="-893.35999"
       y2="-34.999992"
       gradientUnits="userSpaceOnUse" />
  </defs>
  <metadata
     id="metadata3647">
    <rdf:RDF>
      <cc:Work
         rdf:about="">
        <dc:format>image/svg+xml</dc:format>
        <dc:type
           rdf:resource="http://purl.org/dc/dcmitype/StillImage" />
      </cc:Work>
      <cc:Work
         rdf:about="">
        <dc:format>image/svg+xml</dc:format>
        <dc:type
           rdf:resource="http://purl.org/dc/dcmitype/StillImage" />
      </cc:Work>
      <cc:Work
         rdf:about="">
        <dc:format>image/svg+xml</dc:format>
        <dc:type
           rdf:resource="http://purl.org/dc/dcmitype/StillImage" />
      </cc:Work>
    </rdf:RDF>
  </metadata>
  <g
     inkscape:groupmode="layer"
     inkscape:label="Layer 1"
     id="layer1">
    <g
       transform="translate(10,-892.36)"
       id="topleft">
      <path
         id="path15"
         d="m -5,892.36 v 30 h 18 c 0,-6.64799 5.352007,-12 12,-12 v -18 z"
         style="opacity:0.15;fill:url(#radialGradient992);fill-opacity:1" />
      <path
         id="path19"
         d="m 25,910.36 c -6.648,0 -12,5.352 -12,12 h 12 v -10 z"
         class="ColorScheme-Background"
         fill="currentColor"
         style="opacity:0.95" />
    </g>
    <rect
       fill="#ff6600"
       height="5"
       width="5"
       y="1"
       id="hint-tile-center"
       x="1" />
    <g
       transform="translate(16,-892.35999)"
       id="top">
      <rect
         id="rect23"
         height="32"
         width="12"
         y="-51"
         x="-922.35999"
         transform="matrix(0,-1,-1,0,0,0)"
         class="ColorScheme-Background"
         fill="currentColor"
         style="opacity:0.95" />
      <rect
         id="rect25"
         height="32"
         width="18"
         y="-51"
         x="-910.35999"
         transform="matrix(0,-1,-1,0,0,0)"
         style="opacity:0.15;fill:url(#linearGradient1096);fill-opacity:1" />
    </g>
    <use
       x="0"
       y="0"
       xlink:href="#top"
       id="bottom"
       transform="rotate(180,51,45.999998)" />
    <g
       transform="translate(16,-886.36)"
       id="center">
      <rect
         id="rect43"
         fill="none"
         height="32"
         width="32"
         y="916.35999"
         x="19" />
      <rect
         id="rect45"
         height="32"
         width="32"
         y="916.35999"
         x="19"
         class="ColorScheme-Background"
         fill="currentColor"
         style="opacity:0.95" />
    </g>
    <rect
       height="30"
       width="4"
       y="0"
       x="49"
       id="hint-top-margin"
       style="fill:#ff00ff;stroke-width:1.44101" />
    <rect
       y="0"
       x="54"
       height="18"
       width="4"
       id="hint-top-inset"
       style="fill:#00ff00;fill-opacity:1;stroke:none;stroke-width:1.5" />
    <rect
       style="fill:#00ff00;fill-opacity:1;stroke:none;stroke-width:1.73205"
       id="hint-bottom-inset"
       width="4"
       height="18"
       x="54"
       y="68" />
    <use
       x="0"
       y="0"
       xlink:href="#top"
       id="right"
       transform="rotate(90,50.99999,46.000005)" />
    <rect
       transform="rotate(90)"
       style="fill:#00ff00;fill-opacity:1;stroke:none;stroke-width:1.73205"
       id="hint-right-inset"
       width="4"
       height="18"
       x="49"
       y="-91" />
    <use
       x="0"
       y="0"
       xlink:href="#top"
       id="left"
       transform="rotate(-90,51.000002,45.999998)" />
    <rect
       transform="rotate(90)"
       y="-23"
       x="49"
       height="18"
       width="4"
       id="hint-left-inset"
       style="fill:#00ff00;fill-opacity:1;stroke:none;stroke-width:1.73205" />
    <rect
       height="30"
       width="4"
       y="62"
       x="49"
       id="hint-bottom-margin"
       style="fill:#ff00ff;stroke-width:1.58112" />
    <rect
       height="30"
       width="4"
       y="-97"
       x="44"
       transform="rotate(90)"
       id="hint-right-margin"
       style="fill:#ff00ff;stroke-width:1.58112" />
    <rect
       height="30"
       width="4"
       y="-35"
       x="44"
       transform="rotate(90)"
       id="hint-left-margin"
       style="fill:#ff00ff;stroke-width:1.58112" />
    <use
       xlink:href="#topleft"
       height="100%"
       width="100%"
       transform="matrix(-1,0,0,1,102,0)"
       id="topright" />
    <use
       xlink:href="#topleft"
       height="100%"
       width="100%"
       transform="rotate(-90,51,46)"
       id="bottomleft" />
    <use
       xlink:href="#topleft"
       height="100%"
       width="100%"
       transform="rotate(180,51,46)"
       id="bottomright" />
    <g
       transform="translate(10.000008,-798.35999)"
       id="blurred-topleft">
      <path
         id="path15-7"
         d="m -5.000008,892.35999 v 30 h 18 c 0,-6.64799 5.352007,-12 12,-12 v -18 z"
         style="opacity:0.15;fill:url(#radialGradient1108);fill-opacity:1" />
      <path
         id="path19-5"
         d="m 25,910.36 c -6.648,0 -12,5.352 -12,12 h 12 v -10 z"
         class="ColorScheme-Background"
         fill="currentColor"
         style="opacity:0.75" />
    </g>
    <g
       transform="translate(16.000008,-798.35999)"
       id="blurred-top">
      <rect
         id="rect23-9"
         height="32"
         width="12"
         y="-51"
         x="-922.35999"
         transform="matrix(0,-1,-1,0,0,0)"
         class="ColorScheme-Background"
         fill="currentColor"
         style="opacity:0.75" />
      <rect
         id="rect25-22"
         height="32"
         width="18"
         y="-51"
         x="-910.35999"
         transform="matrix(0,-1,-1,0,0,0)"
         style="opacity:0.15;fill:url(#linearGradient1116);fill-opacity:1" />
    </g>
    <use
       x="0"
       y="0"
       xlink:href="#blurred-top"
       id="blurred-bottom"
       transform="rotate(180,51.000006,140)" />
    <g
       transform="translate(16.000008,-792.35999)"
       id="blurred-center">
      <rect
         id="rect43-8"
         fill="none"
         height="32"
         width="32"
         y="916.35999"
         x="19" />
      <rect
         id="rect45-9"
         height="32"
         width="32"
         y="916.35999"
         x="19"
         class="ColorScheme-Background"
         fill="currentColor"
         style="opacity:0.75" />
    </g>
    <rect
       height="30"
       width="4"
       y="94"
       x="49"
       id="blurred-hint-top-margin"
       style="fill:#ff00ff;stroke-width:1.44101" />
    <rect
       y="94"
       x="54"
       height="18"
       width="4"
       id="blurred-hint-top-inset"
       style="fill:#00ff00;fill-opacity:1;stroke:none;stroke-width:1.5" />
    <rect
       style="fill:#00ff00;fill-opacity:1;stroke:none;stroke-width:1.73205"
       id="blurred-hint-bottom-inset"
       width="4"
       height="18"
       x="54"
       y="162" />
    <use
       x="0"
       y="0"
       xlink:href="#blurred-top"
       id="blurred-right"
       transform="rotate(90,51.000009,139.99999)" />
    <rect
       transform="rotate(90)"
       style="fill:#00ff00;fill-opacity:1;stroke:none;stroke-width:1.73205"
       id="blurred-hint-right-inset"
       width="4"
       height="18"
       x="143"
       y="-91" />
    <use
       x="0"
       y="0"
       xlink:href="#blurred-top"
       id="blurred-left"
       transform="rotate(-90,51.000009,140)" />
    <rect
       transform="rotate(90)"
       y="-23"
       x="143"
       height="18"
       width="4"
       id="blurred-hint-left-inset"
       style="fill:#00ff00;fill-opacity:1;stroke:none;stroke-width:1.73205" />
    <rect
       height="30"
       width="4"
       y="156"
       x="49"
       id="blurred-hint-bottom-margin"
       style="fill:#ff00ff;stroke-width:1.58112" />
    <rect
       height="30"
       width="4"
       y="-97"
       x="138"
       transform="rotate(90)"
       id="blurred-hint-right-margin"
       style="fill:#ff00ff;stroke-width:1.58112" />
    <rect
       height="30"
       width="4"
       y="-35"
       x="138"
       transform="rotate(90)"
       id="blurred-hint-left-margin"
       style="fill:#ff00ff;stroke-width:1.58112" />
    <use
       xlink:href="#blurred-topleft"
       height="100%"
       width="100%"
       transform="matrix(-1,0,0,1,102.00001,-2.8e-6)"
       id="blurred-topright"
       x="0"
       y="0" />
    <use
       xlink:href="#blurred-topleft"
       height="100%"
       width="100%"
       transform="rotate(-90,51.000007,140)"
       id="blurred-bottomleft"
       x="0"
       y="0" />
    <use
       xlink:href="#blurred-topleft"
       height="100%"
       width="100%"
       transform="rotate(180,51.000006,140)"
       id="blurred-bottomright"
       x="0"
       y="0" />
    <g
       transform="translate(125,-797.35999)"
       id="blurred-mask-topleft">
      <g
         id="g17-3-2"
         fill-rule="evenodd">
        <path
           id="path15-7-9"
           d="m -5,892.36 v 30 h 22.5 c 0,-4.155 3.345,-7.5 7.5,-7.5 v -22.5 z"
           style="fill:none" />
      </g>
      <path
         id="path19-5-3"
         d="m 25,910.36 c -6.648,0 -12,5.352 -12,12 h 12 v -10 z" />
    </g>
    <g
       transform="translate(131,-797.35999)"
       id="blurred-mask-top">
      <rect
         id="rect23-9-1"
         height="32.000015"
         width="12.000005"
         y="-51"
         x="-922.35999"
         transform="matrix(0,-1,-1,0,0,0)" />
      <rect
         id="rect25-22-9"
         height="32"
         width="18"
         y="-51"
         x="-910.35999"
         transform="matrix(0,-1,-1,0,0,0)"
         style="fill:none" />
    </g>
    <g
       transform="rotate(180,100.5,539.68001)"
       id="blurred-mask-bottom">
      <rect
         id="rect3991"
         height="32.000015"
         width="12.000005"
         y="-51"
         x="-922.35999"
         transform="matrix(0,-1,-1,0,0,0)" />
      <rect
         id="rect3993"
         height="32"
         width="18"
         y="-51"
         x="-910.35999"
         transform="matrix(0,-1,-1,0,0,0)"
         style="fill:none" />
    </g>
    <g
       transform="translate(131,-791.35999)"
       id="blurred-mask-center">
      <rect
         id="rect43-8-4"
         fill="none"
         height="32"
         width="32"
         y="916.35999"
         x="19" />
      <rect
         id="rect45-9-7"
         height="32"
         width="32"
         y="916.35999"
         x="19" />
    </g>
    <g
       transform="rotate(90,499.18,605.17997)"
       id="blurred-mask-right">
      <rect
         id="rect3985"
         height="32.000015"
         width="12.000005"
         y="-51"
         x="-922.35999"
         transform="matrix(0,-1,-1,0,0,0)" />
      <rect
         id="rect3987"
         height="32"
         width="18"
         y="-51"
         x="-910.35999"
         transform="matrix(0,-1,-1,0,0,0)"
         style="fill:none" />
    </g>
    <g
       transform="rotate(-90,-298.17999,474.18002)"
       id="blurred-mask-left">
      <rect
         id="rect3979"
         height="32.000015"
         width="12.000005"
         y="-51"
         x="-922.35999"
         transform="matrix(0,-1,-1,0,0,0)" />
      <rect
         id="rect3981"
         height="32"
         width="18"
         y="-51"
         x="-910.35999"
         transform="matrix(0,-1,-1,0,0,0)"
         style="fill:none" />
    </g>
    <g
       transform="matrix(-1,0,0,1,206.99999,-797.35999)"
       id="blurred-mask-topright">
      <g
         id="g3973"
         fill-rule="evenodd">
        <path
           id="path3971"
           d="m -5,892.36 v 30 h 22.5 c 0,-4.155 3.345,-7.5 7.5,-7.5 v -22.5 z"
           style="fill:none" />
      </g>
      <path
         id="path3975"
         d="m 25,910.36 c -6.648,0 -12,5.352 -12,12 h 12 v -10 z" />
    </g>
    <g
       transform="rotate(-90,-295.17999,477.18002)"
       id="blurred-mask-bottomleft">
      <g
         id="g3965"
         fill-rule="evenodd">
        <path
           id="path3963"
           d="m -5,892.36 v 30 h 22.5 c 0,-4.155 3.345,-7.5 7.5,-7.5 v -22.5 z"
           style="fill:none" />
      </g>
      <path
         id="path3967"
         d="m 25,910.36 c -6.648,0 -12,5.352 -12,12 h 12 v -10 z" />
    </g>
    <g
       transform="rotate(180,103.49999,539.68001)"
       id="blurred-mask-bottomright">
      <g
         id="g3957"
         fill-rule="evenodd">
        <path
           id="path3955"
           d="m -5,892.36 v 30 h 22.5 c 0,-4.155 3.345,-7.5 7.5,-7.5 v -22.5 z"
           style="fill:none" />
      </g>
      <path
         id="path3959"
         d="m 25,910.36 c -6.648,0 -12,5.352 -12,12 h 12 v -10 z" />
    </g>
    <g
       transform="translate(120.00001,-892.36001)"
       id="shadow-topleft">
      <g
         id="g17-3-5"
         fill-rule="evenodd">
        <path
           id="path15-7-6"
           style="opacity:0.15;fill:url(#radialGradient2163-2-7);stroke-width:1.25"
           d="m -5.0009,892.3602 v 30 h 18 c 0,-6.64799 5.352007,-12 12,-12 v -18 z" />
      </g>
      <path
         id="path19-5-2"
         d="m 25,910.36 c -6.648,0 -12,5.352 -12,12 h 12 v -10 z"
         style="fill:none" />
    </g>
    <g
       transform="translate(126.00001,-892.36001)"
       id="shadow-top">
      <rect
         id="rect23-9-9"
         height="32.000015"
         width="12.000005"
         y="-51"
         x="-922.35999"
         transform="matrix(0,-1,-1,0,0,0)"
         style="fill:none" />
      <rect
         id="rect25-22-1"
         height="32"
         width="18"
         y="-51"
         x="-910.35999"
         transform="matrix(0,-1,-1,0,0,0)"
         style="opacity:0.15;fill:url(#linearGradient1606)" />
    </g>
    <use
       x="0"
       y="0"
       xlink:href="#shadow-top"
       id="shadow-bottom"
       transform="rotate(180,161.00001,45.999973)" />
    <g
       transform="translate(126.00001,-886.36001)"
       id="shadow-center">
      <rect
         id="rect43-8-2"
         fill="none"
         height="32"
         width="32"
         y="916.35999"
         x="19" />
      <rect
         id="rect45-9-70"
         height="32"
         width="32"
         y="916.35999"
         x="19"
         style="fill:none" />
    </g>
    <rect
       height="30"
       width="3.9999998"
       y="0"
       x="159.00002"
       id="shadow-hint-top-margin"
       style="fill:#ff00ff;stroke-width:1.44101" />
    <rect
       y="0"
       x="164"
       height="18"
       width="3.9999998"
       id="shadow-hint-top-inset"
       style="fill:#00ff00;fill-opacity:1;stroke:none;stroke-width:1.5" />
    <rect
       style="fill:#00ff00;fill-opacity:1;stroke:none;stroke-width:1.73205"
       id="shadow-hint-bottom-inset"
       width="3.9999998"
       height="18"
       x="164"
       y="67.999977" />
    <use
       x="0"
       y="0"
       xlink:href="#shadow-top"
       id="shadow-right"
       transform="rotate(90,161.00002,45.999946)" />
    <rect
       transform="rotate(90)"
       style="fill:#00ff00;fill-opacity:1;stroke:none;stroke-width:1.73205"
       id="shadow-hint-right-inset"
       width="3.9999998"
       height="18"
       x="48.999977"
       y="-200.99997" />
    <use
       x="0"
       y="0"
       xlink:href="#shadow-top"
       id="shadow-left"
       transform="rotate(-90,161.00001,45.999982)" />
    <rect
       transform="rotate(90)"
       y="-133"
       x="48.999977"
       height="18"
       width="3.9999998"
       id="shadow-hint-left-inset"
       style="fill:#00ff00;fill-opacity:1;stroke:none;stroke-width:1.73205" />
    <rect
       height="30"
       width="3.9999998"
       y="61.999943"
       x="159.00002"
       id="shadow-hint-bottom-margin"
       style="fill:#ff00ff;stroke-width:1.58112" />
    <rect
       height="30"
       width="3.9999998"
       y="-206.99997"
       x="43.999958"
       transform="rotate(90)"
       id="shadow-hint-right-margin"
       style="fill:#ff00ff;stroke-width:1.58112" />
    <rect
       height="30"
       width="3.9999998"
       y="-145"
       x="43.999958"
       transform="rotate(90)"
       id="shadow-hint-left-margin"
       style="fill:#ff00ff;stroke-width:1.58112" />
    <use
       xlink:href="#shadow-topleft"
       height="100%"
       width="100%"
       transform="matrix(-1,0,0,1,321.99998,6.6461853e-6)"
       id="shadow-topright"
       x="0"
       y="0" />
    <use
       xlink:href="#shadow-topleft"
       height="100%"
       width="100%"
       transform="rotate(-90,161.00001,45.999982)"
       id="shadow-bottomleft"
       x="0"
       y="0" />
    <use
       xlink:href="#shadow-topleft"
       height="100%"
       width="100%"
       transform="rotate(180,161.00001,45.999973)"
       id="shadow-bottomright"
       x="0"
       y="0" />
  </g>
</svg>
