<?xml version="1.0" encoding="UTF-8" standalone="no"?>
<svg
   id="svg600"
   viewBox="0 0 150 200"
   sodipodi:docname="button.svg"
   inkscape:version="1.2.2 (b0a8486541, 2022-12-01)"
   version="1.1"
   width="150"
   height="200"
   xmlns:inkscape="http://www.inkscape.org/namespaces/inkscape"
   xmlns:sodipodi="http://sodipodi.sourceforge.net/DTD/sodipodi-0.dtd"
   xmlns:xlink="http://www.w3.org/1999/xlink"
   xmlns="http://www.w3.org/2000/svg"
   xmlns:svg="http://www.w3.org/2000/svg">
  <defs
     id="defs354">
    <linearGradient
       inkscape:collect="always"
       id="linearGradient1296">
      <stop
         style="stop-color:#11cc00;stop-opacity:1;"
         offset="0"
         id="stop1294" />
      <stop
         style="stop-color:#76e500;stop-opacity:1;"
         offset="1"
         id="stop1292" />
    </linearGradient>
    <linearGradient
       inkscape:collect="always"
       xlink:href="#linearGradient1296"
       id="linearGradient3803"
       gradientUnits="userSpaceOnUse"
       x1="70.516022"
       y1="-3.7844582"
       x2="70.516022"
       y2="-44.241772" />
    <linearGradient
       inkscape:collect="always"
       xlink:href="#linearGradient1296"
       id="linearGradient3811"
       gradientUnits="userSpaceOnUse"
       gradientTransform="matrix(1,0,0,-1,0,-48)"
       x1="194.51602"
       y1="-44.215542"
       x2="194.51602"
       y2="-3.7582271" />
    <linearGradient
       inkscape:collect="always"
       xlink:href="#linearGradient1296"
       id="linearGradient5317"
       gradientUnits="userSpaceOnUse"
       gradientTransform="translate(-40.999998,82)"
       x1="134.80127"
       y1="-37.784458"
       x2="134.80127"
       y2="-78.241776" />
    <linearGradient
       inkscape:collect="always"
       xlink:href="#linearGradient1296"
       id="linearGradient5311"
       gradientUnits="userSpaceOnUse"
       gradientTransform="matrix(0.99999997,0,0,4.6666667,6.2280698e-8,167.33333)"
       x1="134.80128"
       y1="-36.668098"
       x2="134.80128"
       y2="-45.337521" />
    <linearGradient
       inkscape:collect="always"
       xlink:href="#linearGradient1296"
       id="linearGradient4238"
       gradientUnits="userSpaceOnUse"
       x1="194.51602"
       y1="-3.7844582"
       x2="194.51602"
       y2="-44.241772" />
    <linearGradient
       inkscape:collect="always"
       xlink:href="#linearGradient1296"
       id="linearGradient4240"
       gradientUnits="userSpaceOnUse"
       x1="70.516022"
       y1="-3.7844582"
       x2="70.516022"
       y2="-44.241772" />
    <linearGradient
       inkscape:collect="always"
       xlink:href="#linearGradient1296"
       id="linearGradient4242"
       gradientUnits="userSpaceOnUse"
       x1="134.80127"
       y1="-3.7844582"
       x2="134.80127"
       y2="-44.241772" />
    <linearGradient
       inkscape:collect="always"
       xlink:href="#linearGradient1296"
       id="linearGradient4244"
       gradientUnits="userSpaceOnUse"
       x1="194.51602"
       y1="-3.7844582"
       x2="194.51602"
       y2="-44.241772" />
    <linearGradient
       inkscape:collect="always"
       xlink:href="#linearGradient1296"
       id="linearGradient4246"
       gradientUnits="userSpaceOnUse"
       gradientTransform="matrix(1,0,0,-1,0,-48)"
       x1="70.516022"
       y1="-44.215542"
       x2="70.516022"
       y2="-3.7582271" />
  </defs>
  <sodipodi:namedview
     id="namedview352"
     pagecolor="#ffffff"
     bordercolor="#111111"
     borderopacity="1"
     inkscape:pageshadow="0"
     inkscape:pageopacity="1"
     inkscape:pagecheckerboard="1"
     inkscape:blackoutopacity="0.0"
     showgrid="false"
     inkscape:current-layer="svg600"
     inkscape:showpageshadow="2"
     inkscape:deskcolor="#d1d1d1"
     inkscape:zoom="3.0027104"
     inkscape:cx="-56.948549"
     inkscape:cy="107.90251"
     inkscape:window-width="1920"
     inkscape:window-height="1026"
     inkscape:window-x="0"
     inkscape:window-y="24"
     inkscape:window-maximized="1">
    <inkscape:grid
       type="xygrid"
       id="grid1173"
       originx="0"
       originy="10" />
  </sodipodi:namedview>
  <style
     type="text/css"
     id="current-color-scheme">
        .ColorScheme-Highlight {
            color:#951FE7;
            stop-color:#951FE7;
        }
        .ColorScheme-ButtonText {
            color:#232629;
            stop-color:#232629;
        }
        .ColorScheme-ButtonBackground {
            color:#eff0f1;
            stop-color:#eff0f1;
        }
        .ColorScheme-ButtonHover {
            color:#3daee9;
            stop-color:#3daee9;
        }
        .ColorScheme-ButtonFocus{
            color:#3daee9;
            stop-color:#3daee9;
        }
    </style>
  <linearGradient
     id="a"
     gradientUnits="userSpaceOnUse">
    <stop
       id="stop3"
       offset="0"
       style="stop-opacity:.027451" />
    <stop
       id="stop5"
       offset="1"
       style="stop-color:#fff;stop-opacity:.03" />
  </linearGradient>
  <linearGradient
     id="b"
     gradientUnits="userSpaceOnUse"
     x1="191"
     x2="191"
     y1="90"
     y2="68">
    <stop
       id="stop3036"
       offset="0"
       style="stop-opacity:.027451" />
    <stop
       id="stop3042"
       offset=".5"
       style="stop-color:#7f7f7f;stop-opacity:0" />
    <stop
       id="stop3038"
       offset="1"
       style="stop-color:#fff;stop-opacity:.03" />
  </linearGradient>
  <linearGradient
     id="c"
     x1="15"
     x2="15"
     xlink:href="#a"
     y1="-4"
     y2="-30" />
  <linearGradient
     id="d"
     gradientTransform="matrix(0.09090909,0,0,11,11.63636,-700)"
     x1="191.00005"
     x2="191.00005"
     xlink:href="#a"
     y1="66"
     y2="64" />
  <linearGradient
     id="e"
     x1="15"
     x2="15"
     xlink:href="#a"
     y1="30"
     y2="4.0000191" />
  <linearGradient
     id="g"
     gradientTransform="matrix(0.09090909,0,0,11,-46.36364,-700)"
     x1="191.00005"
     x2="191.00005"
     xlink:href="#a"
     y1="66.181816"
     y2="63.81818" />
  <g
     id="pressed-right"
     transform="translate(-159,189)">
    <rect
       id="rect5257"
       width="6"
       height="28"
       x="208"
       y="-38"
       rx="0"
       ry="0"
       style="fill:none;stroke-width:2.16025" />
    <path
       id="path5259"
       style="fill:url(#linearGradient4238);fill-opacity:1"
       d="m 208,-38 v 28 h 6 v -28 z" />
  </g>
  <g
     id="pressed-topleft"
     transform="translate(-34.999998,189)">
    <rect
       id="rect5263"
       width="6"
       height="6"
       x="50"
       y="-44"
       rx="0"
       ry="0"
       style="fill:none" />
    <path
       id="path5265"
       style="fill:url(#linearGradient4240);fill-opacity:1"
       d="m 56,-44 c -3.323997,0 -6,2.676003 -6,6 h 6 z" />
  </g>
  <g
     id="pressed-top"
     transform="matrix(0.18421052,0,0,1,10.684211,189)">
    <rect
       id="rect5269"
       width="152"
       height="6"
       x="56"
       y="-44"
       rx="0"
       ry="0"
       style="fill:none;stroke-width:5.03322" />
    <path
       id="path5271"
       style="fill:url(#linearGradient4242);fill-opacity:1;stroke-width:0.999999"
       d="m 56,-44 v 6 h 152 v -6 z" />
  </g>
  <g
     id="pressed-topright"
     transform="translate(-159,189)">
    <rect
       id="rect5275"
       width="6"
       height="6"
       x="208"
       y="-44"
       rx="0"
       ry="0"
       style="fill:none" />
    <path
       id="path5277"
       style="fill:url(#linearGradient4244);fill-opacity:1"
       d="m 208,-44 v 6 h 6 c 0,-3.323997 -2.676,-6 -6,-6 z" />
  </g>
  <g
     id="pressed-bottomleft"
     transform="translate(-34.999998,189)">
    <rect
       id="rect5281"
       width="6"
       height="6"
       x="50"
       y="-10"
       rx="0"
       ry="0"
       style="fill:none" />
    <path
       id="path5283"
       style="fill:url(#linearGradient4246);fill-opacity:1"
       d="m 56,-4 c -3.323997,0 -6,-2.676003 -6,-6 h 6 z" />
  </g>
  <g
     id="pressed-bottom"
     transform="matrix(0.18421052,0,0,1,18.236843,141)">
    <rect
       id="rect5287"
       width="152"
       height="6"
       x="15"
       y="38"
       rx="0"
       ry="0"
       style="fill:none;stroke-width:5.03322" />
    <path
       id="path5289"
       style="fill:url(#linearGradient5317);fill-opacity:1;stroke-width:0.999999"
       d="m 15.000001,38 v 6 H 167 v -6 z" />
  </g>
  <g
     id="pressed-bottomright"
     transform="translate(-159,189)">
    <rect
       id="rect5293"
       width="6"
       height="6"
       x="208"
       y="-10"
       rx="0"
       ry="0"
       style="fill:none" />
    <path
       id="path5295"
       style="fill:url(#linearGradient3811);fill-opacity:1"
       d="m 208,-4 v -6 h 6 c 0,3.323997 -2.676,6 -6,6 z" />
  </g>
  <g
     id="pressed-left"
     transform="translate(-34.999998,189)">
    <rect
       id="rect5299"
       width="6"
       height="28"
       x="50"
       y="-38"
       rx="0"
       ry="0"
       style="fill:none;stroke-width:2.16025" />
    <path
       id="path5301"
       style="fill:url(#linearGradient3803);fill-opacity:1"
       d="m 50,-38 v 28 h 6 v -28 z" />
  </g>
  <g
     id="pressed-center"
     transform="matrix(0.18421052,0,0,1,10.684211,189)">
    <rect
       id="rect5305"
       width="152"
       height="28"
       x="56"
       y="-38"
       rx="0"
       ry="0"
       style="fill:none;stroke-width:10.873" />
    <path
       id="path5307"
       style="fill:url(#linearGradient5311);fill-opacity:1;stroke-width:2.16025"
       d="m 56,-38 v 28 h 152 v -28 z" />
  </g>
  <g
     id="toolbutton-pressed-topleft"
     transform="translate(-22.999985,146.00001)">
    <path
       id="rect1467-6-70-9"
       d="m 121,-5 c -3.324,0 -6,2.6760033 -6,6 h 6 z"
       class="ColorScheme-ButtonText"
       fill="currentColor"
       style="opacity:0.2;stroke-width:0.4" />
  </g>
  <g
     id="toolbutton-pressed-left"
     transform="translate(-22.999985,145.00001)">
    <rect
       id="rect1521-2-93-20"
       width="6"
       height="18"
       x="115"
       y="2"
       fill="currentColor"
       class="ColorScheme-ButtonText"
       style="opacity:0.2;stroke-width:2.68328" />
  </g>
  <g
     id="toolbutton-pressed-top"
     transform="translate(-23.999985,146.00001)">
    <rect
       id="rect1523-9-6-2"
       width="18"
       height="6"
       x="122"
       y="-5"
       fill="currentColor"
       class="ColorScheme-ButtonText"
       style="opacity:0.2;stroke-width:2.68328" />
  </g>
  <g
     id="toolbutton-pressed-center"
     transform="translate(-23.999985,145.00001)">
    <rect
       id="rect1525-1-0-3"
       width="18"
       height="18"
       x="122"
       y="2"
       fill="currentColor"
       class="ColorScheme-ButtonText"
       style="opacity:0.2;stroke-width:18" />
  </g>
  <use
     x="0"
     y="0"
     xlink:href="#toolbutton-pressed-topleft"
     id="toolbutton-pressed-topright"
     transform="rotate(90,107.00002,156.00002)" />
  <use
     x="0"
     y="0"
     xlink:href="#toolbutton-pressed-topleft"
     id="toolbutton-pressed-bottomright"
     transform="rotate(180,107.00002,156)" />
  <use
     x="0"
     y="0"
     xlink:href="#toolbutton-pressed-topleft"
     id="toolbutton-pressed-bottomleft"
     transform="rotate(-90,107.00002,156.00001)" />
  <use
     x="0"
     y="0"
     xlink:href="#toolbutton-pressed-top"
     id="toolbutton-pressed-bottom"
     transform="matrix(1,0,0,-1,0,312.00002)" />
  <use
     x="0"
     y="0"
     xlink:href="#toolbutton-pressed-left"
     id="toolbutton-pressed-right"
     transform="matrix(-1,0,0,1,214.00004,0)" />
  <g
     id="toolbutton-focus-topleft"
     transform="translate(-22.999985,108.00001)">
    <path
       id="path4030"
       class="ColorScheme-Highlight"
       d="m 121,-7 c -4.43199,0 -8,3.5680132 -8,8 h 2 c 0,-3.3239934 2.67601,-6 6,-6 z"
       fill="currentColor" />
    <path
       id="rect1467-6-70-6"
       d="m 121,-5 c -3.32399,0 -6,2.6760033 -6,6 h 6 z"
       class="ColorScheme-ButtonText"
       fill="currentColor"
       style="opacity:0.01;stroke-width:0.4" />
  </g>
  <g
     id="toolbutton-focus-left"
     transform="translate(-22.999985,107.00001)">
    <rect
       id="rect4034"
       width="2"
       height="18"
       x="113"
       y="2"
       fill="currentColor"
       class="ColorScheme-Highlight"
       style="stroke-width:4.24264" />
    <rect
       id="rect1521-2-93-2"
       width="6"
       height="18"
       x="115"
       y="2"
       fill="currentColor"
       class="ColorScheme-ButtonText"
       style="opacity:0.01;stroke-width:2.68328" />
  </g>
  <g
     id="toolbutton-focus-top"
     transform="translate(-23.999985,108.00001)">
    <path
       id="rect4032"
       class="ColorScheme-Highlight"
       d="m 122,-7 v 2 h 18 v -2 z"
       fill="currentColor"
       style="stroke-width:4.24264" />
    <rect
       id="rect1523-9-6-6"
       width="18"
       height="6"
       x="122"
       y="-5"
       fill="currentColor"
       class="ColorScheme-ButtonText"
       style="opacity:0.01;stroke-width:2.68328" />
  </g>
  <g
     id="toolbutton-focus-center"
     transform="translate(-31.999985,99.000009)">
    <rect
       id="rect1525-1-0-1"
       width="18"
       height="18"
       x="130"
       y="10"
       fill="currentColor"
       class="ColorScheme-ButtonText"
       style="opacity:0.01;stroke-width:18" />
  </g>
  <use
     x="0"
     y="0"
     xlink:href="#toolbutton-focus-topleft"
     id="toolbutton-focus-topright"
     transform="rotate(90,107.00001,118.00001)" />
  <use
     x="0"
     y="0"
     xlink:href="#toolbutton-focus-topleft"
     id="toolbutton-focus-bottomright"
     transform="rotate(180,107.00002,118.00001)" />
  <use
     x="0"
     y="0"
     xlink:href="#toolbutton-focus-topleft"
     id="toolbutton-focus-bottomleft"
     transform="rotate(-90,107.00002,118.00001)" />
  <use
     x="0"
     y="0"
     xlink:href="#toolbutton-focus-top"
     id="toolbutton-focus-bottom"
     transform="matrix(1,0,0,-1,0,236.00002)" />
  <use
     x="0"
     y="0"
     xlink:href="#toolbutton-focus-left"
     id="toolbutton-focus-right"
     transform="matrix(-1,0,0,1,214.00004,0)" />
  <g
     id="toolbutton-hover-topleft"
     transform="translate(-22.999985,68.000009)">
    <path
       id="rect1467-6-70"
       d="m 121,-5 c -3.32399,0 -6,2.6760033 -6,6 h 6 z"
       class="ColorScheme-ButtonText"
       fill="currentColor"
       style="opacity:0.1;stroke-width:0.4" />
  </g>
  <g
     id="toolbutton-hover-left"
     transform="translate(-22.999985,68.000009)">
    <rect
       id="rect1521-2-93"
       width="6"
       height="18"
       x="115"
       y="1"
       fill="currentColor"
       class="ColorScheme-ButtonText"
       style="opacity:0.1;stroke-width:2.68328" />
  </g>
  <g
     id="toolbutton-hover-top"
     transform="translate(-23.999985,68.000009)">
    <rect
       id="rect1523-9-6"
       width="18"
       height="6"
       x="122"
       y="-5"
       fill="currentColor"
       class="ColorScheme-ButtonText"
       style="opacity:0.1;stroke-width:2.68328" />
  </g>
  <g
     id="toolbutton-hover-center"
     transform="translate(-23.999985,68.000009)">
    <rect
       id="rect1525-1-0"
       width="18"
       height="18"
       x="122"
       y="1"
       fill="currentColor"
       class="ColorScheme-ButtonText"
       style="opacity:0.1;stroke-width:18" />
  </g>
  <use
     x="0"
     y="0"
     xlink:href="#toolbutton-hover-topleft"
     id="toolbutton-hover-topright"
     transform="rotate(90,107.00002,78.000005)" />
  <use
     x="0"
     y="0"
     xlink:href="#toolbutton-hover-topleft"
     id="toolbutton-hover-bottomright"
     transform="rotate(180,107.00002,78.00001)" />
  <use
     x="0"
     y="0"
     xlink:href="#toolbutton-hover-topleft"
     id="toolbutton-hover-bottomleft"
     transform="rotate(-90,106.99997,78.00002)" />
  <use
     x="0"
     y="0"
     xlink:href="#toolbutton-hover-top"
     id="toolbutton-hover-bottom"
     transform="matrix(1,0,0,-1,0,156.00002)" />
  <use
     x="0"
     y="0"
     xlink:href="#toolbutton-hover-left"
     id="toolbutton-hover-right"
     transform="matrix(-1,0,0,1,214.00002,1.7e-5)" />
  <g
     id="focus-topleft"
     transform="translate(-94.99998,109.00001)">
    <path
       id="path3084"
       class="ColorScheme-Highlight"
       d="m 121,-7 c -4.432,0 -8,3.5680089 -8,8 h 2 c 0,-3.3239934 2.676,-6 6,-6 z"
       fill="currentColor" />
    <path
       id="rect1467-6-2"
       d="m 121,-5 c -3.324,0 -6,2.6760033 -6,6 h 6 z"
       class="ColorScheme-ButtonBackground"
       fill="currentColor"
       style="opacity:0" />
  </g>
  <g
     id="focus-left"
     transform="matrix(1,0,0,1.124999,-94.99998,107.75001)">
    <rect
       id="rect3088"
       width="2"
       height="16"
       x="113"
       y="2"
       fill="currentColor"
       class="ColorScheme-Highlight" />
    <rect
       id="rect1521-2-9"
       width="6"
       height="16"
       x="115"
       y="2"
       fill="currentColor"
       class="ColorScheme-ButtonBackground"
       style="opacity:0;stroke-width:2.52982" />
  </g>
  <g
     id="focus-top"
     transform="matrix(0.47368421,0,0,1,-31.789455,109.00001)">
    <rect
       id="rect3086"
       width="38"
       height="2"
       x="122"
       y="-7"
       fill="currentColor"
       class="ColorScheme-Highlight" />
    <rect
       id="rect1523-9-1"
       width="38"
       height="6"
       x="122"
       y="-5"
       fill="currentColor"
       class="ColorScheme-ButtonBackground"
       style="opacity:0;stroke-width:0.83121" />
  </g>
  <g
     id="focus-center"
     transform="matrix(0.47368421,0,0,1.124999,-31.789455,107.75001)">
    <rect
       id="rect1525-1-2"
       width="38"
       height="16"
       x="122"
       y="2"
       fill="currentColor"
       class="ColorScheme-ButtonBackground"
       style="opacity:0;stroke-width:5.25703" />
  </g>
  <use
     x="0"
     y="0"
     xlink:href="#focus-topleft"
     id="focus-topright"
     transform="rotate(90,35.000024,119)" />
  <use
     x="0"
     y="0"
     xlink:href="#focus-topleft"
     id="focus-bottomright"
     transform="rotate(180,34.999996,118.99996)" />
  <use
     x="0"
     y="0"
     xlink:href="#focus-topleft"
     id="focus-bottomleft"
     transform="rotate(-90,35.000011,119.00002)" />
  <use
     x="0"
     y="0"
     xlink:href="#focus-top"
     id="focus-bottom"
     transform="matrix(1,0,0,-1,0,238.00002)" />
  <use
     x="0"
     y="0"
     xlink:href="#focus-left"
     id="focus-right"
     transform="matrix(-1,0,0,1,70.00004,1.6e-5)" />
  <g
     id="normal-topleft"
     transform="translate(-94.99998,34.000009)">
    <path
       id="rect1467-6"
       d="m 121,-5 c -3.324,0 -6,2.6760033 -6,6 h 6 z"
       class="ColorScheme-ButtonText"
       style="opacity:0.08;fill:currentColor" />
  </g>
  <g
     id="normal-left"
     transform="matrix(1,0,0,1.1249986,-94.99998,32.750012)">
    <rect
       id="rect1521-2"
       width="6"
       height="16"
       x="115"
       y="2"
       fill="currentColor"
       class="ColorScheme-ButtonText"
       style="opacity:0.08" />
  </g>
  <g
     id="normal-top"
     transform="matrix(0.47368421,0,0,1,-31.789455,34.000009)">
    <rect
       id="rect1523-9"
       width="38"
       height="6"
       x="122"
       y="-5"
       fill="currentColor"
       class="ColorScheme-ButtonText"
       style="opacity:0.08" />
  </g>
  <g
     id="normal-center"
     transform="matrix(0.47368421,0,0,1.1249986,-31.789455,32.750012)">
    <rect
       id="rect1525-1"
       width="38"
       height="16"
       x="122"
       y="2"
       fill="currentColor"
       class="ColorScheme-ButtonText"
       style="opacity:0.08" />
  </g>
  <g
     id="normal-topright"
     transform="rotate(90,65.500022,-20.499977)">
    <path
       id="path2624"
       d="m 121,-5 c -3.324,0 -6,2.6760033 -6,6 h 6 z"
       class="ColorScheme-ButtonText"
       style="opacity:0.08;fill:currentColor" />
  </g>
  <g
     id="normal-bottomleft"
     transform="matrix(1,0,0,-1,-95.00001,54.000009)">
    <path
       id="path576"
       d="m 121,-5 c -3.324,0 -6,2.6760033 -6,6 h 6 z"
       class="ColorScheme-ButtonText"
       style="opacity:0.08;fill:currentColor" />
  </g>
  <g
     id="normal-bottom"
     transform="matrix(0.47368421,0,0,-1,-31.789455,54.000059)">
    <rect
       id="rect638"
       width="38"
       height="6"
       x="122"
       y="-5"
       fill="currentColor"
       class="ColorScheme-ButtonText"
       style="opacity:0.08" />
  </g>
  <g
     id="normal-right"
     transform="matrix(-1,0,0,1.1249986,164.99998,32.750033)">
    <rect
       id="rect2551"
       width="6"
       height="16"
       x="115"
       y="2"
       fill="currentColor"
       class="ColorScheme-ButtonText"
       style="opacity:0.08" />
  </g>
  <path
     id="normal-hint-top-margin"
     d="m 34.000015,29.000009 h 2 v 6 h -2 z"
     style="fill:#ff00ff;fill-rule:evenodd;stroke-width:0.999996" />
  <path
     id="normal-hint-bottom-margin"
     d="m 34.000015,53.000059 h 2 v 6 h -2 z"
     style="fill:#ff00ff;fill-rule:evenodd;stroke-width:0.999996" />
  <path
     id="normal-hint-left-margin"
     d="m 20.000015,43.000009 h 6 v 2 h -6 z"
     style="fill:#ff00ff;fill-rule:evenodd;stroke-width:0.999996" />
  <path
     id="normal-hint-right-margin"
     d="m 44.000015,43.000009 h 6 v 2 h -6 z"
     style="fill:#ff00ff;fill-rule:evenodd;stroke-width:0.999996" />
  <path
     id="hover-hint-top-margin"
     d="m 34.000005,63.000009 h 2 v 0.1 h -2 z"
     style="fill:#ff00ff;stroke-width:0.316228" />
  <path
     id="toolbutton-hover-hint-top-margin"
     d="m 106.00002,63.000009 h 2 v 4 h -2 z"
     style="fill:#ff00ff;fill-rule:evenodd;stroke-width:0.999996" />
  <path
     id="toolbutton-hover-hint-bottom-margin"
     d="m 106.00002,88.999979 h 2 v 4 h -2 z"
     style="fill:#ff00ff;fill-rule:evenodd;stroke-width:0.999996" />
  <path
     id="toolbutton-hover-hint-right-margin"
     d="m 118.00002,76.000009 h 4 v 2 h -4 z"
     style="fill:#ff00ff;fill-rule:evenodd;stroke-width:0.999996" />
  <path
     id="toolbutton-hover-hint-left-margin"
     d="m 92.000015,76.000009 h 4 v 2 h -4 z"
     style="fill:#ff00ff;fill-rule:evenodd;stroke-width:0.999996" />
  <path
     id="toolbutton-focus-hint-top-margin"
     d="m 106.00002,101.00001 h 2 v 2 h -2 z"
     style="fill:#ff00ff;fill-rule:evenodd" />
  <path
     id="toolbutton-focus-hint-bottom-margin"
     d="m 105.00002,133.00001 h 2 v 2 h -2 z"
     style="fill:#ff00ff;fill-rule:evenodd" />
  <path
     id="toolbutton-focus-hint-left-margin"
     d="m 90.000015,117.00001 h 2 v 2 h -2 z"
     style="fill:#ff00ff;fill-rule:evenodd" />
  <path
     id="toolbutton-focus-hint-right-margin"
     d="m 122.00002,117.00001 h 2 v 2 h -2 z"
     style="fill:#ff00ff;fill-rule:evenodd" />
  <path
     id="focus-hint-top-margin"
     d="m 33.200015,102.00001 h 3.6 v 2 h -3.6 z"
     style="fill:#ff00ff;fill-rule:evenodd;stroke-width:1.34164" />
  <path
     id="focus-hint-bottom-margin"
     d="m 33.200015,134.00001 h 3.6 v 2 h -3.6 z"
     style="fill:#ff00ff;fill-rule:evenodd;stroke-width:1.34164" />
  <path
     id="focus-hint-left-margin"
     d="m 18.000015,118 h 2 v 2 h -2 z"
     style="fill:#ff00ff;fill-rule:evenodd" />
  <path
     id="focus-hint-right-margin"
     d="m 50.000015,118 h 2 v 2 h -2 z"
     style="fill:#ff00ff;fill-rule:evenodd" />
  <path
     id="toolbutton-pressed-hint-top-margin"
     d="m 106.00002,141.00001 h 2 v 4 h -2 z"
     style="fill:#ff00ff;fill-rule:evenodd;stroke-width:0.999996" />
  <path
     id="toolbutton-pressed-hint-bottom-margin"
     d="m 107.00002,167.00001 h 2 v 4 h -2 z"
     style="fill:#ff00ff;fill-rule:evenodd;stroke-width:0.999996" />
  <path
     id="toolbutton-pressed-hint-left-margin"
     d="m 92.000015,156.00001 h 4 v 2 h -4 z"
     style="fill:#ff00ff;fill-rule:evenodd;stroke-width:0.999996" />
  <path
     id="toolbutton-pressed-hint-right-margin"
     d="m 118.00002,156.00001 h 4 v 2 h -4 z"
     style="fill:#ff00ff;fill-rule:evenodd;stroke-width:0.999996" />
  <path
     id="normal-hint-compose-over-border"
     d="M 0,10 H 10 V 20 H 0 Z"
     style="fill:#00ff00;fill-rule:evenodd;stroke-width:2.5" />
  <rect
     id="hover-hint-bottom-margin"
     width="2"
     height="0.1"
     x="34.000015"
     y="94.000038"
     style="fill:#ff00ff;fill-opacity:1;stroke-width:0.158114" />
  <rect
     id="hover-hint-left-margin"
     width="0.1"
     height="2"
     x="19.000015"
     y="78"
     style="fill:#ff00ff;fill-opacity:1;stroke-width:0.223607" />
  <rect
     id="hover-hint-right-margin"
     width="0.1"
     height="2"
     x="50.000015"
     y="78"
     style="fill:#ff00ff;fill-opacity:1;stroke-width:0.223607" />
  <g
     id="normal-bottomright"
     transform="matrix(0,-1,-1,0,45.000015,174.00006)">
    <path
       id="path568"
       d="m 121,-5 c -3.324,0 -6,2.6760033 -6,6 h 6 z"
       class="ColorScheme-ButtonText"
       style="opacity:0.08;fill:currentColor" />
  </g>
  <g
     id="hover-topleft"
     transform="translate(-94.99999,69.000009)">
    <path
       id="rect1467-6-3"
       d="m 121,-5 c -3.324,0 -6,2.6760033 -6,6 h 6 z"
       class="ColorScheme-ButtonText"
       style="opacity:0.08;fill:currentColor" />
  </g>
  <g
     id="hover-left"
     transform="matrix(1,0,0,1.1249986,-94.99999,67.750009)">
    <rect
       id="rect1521-2-6"
       width="6"
       height="16"
       x="115"
       y="2"
       fill="currentColor"
       class="ColorScheme-ButtonText"
       style="opacity:0.08;fill:currentColor" />
  </g>
  <g
     id="hover-top"
     transform="matrix(0.47368423,0,0,1,-31.789465,69.000009)">
    <rect
       id="rect1523-9-7"
       width="38"
       height="6"
       x="122"
       y="-5"
       fill="currentColor"
       class="ColorScheme-ButtonText"
       style="opacity:0.08;fill:currentColor" />
  </g>
  <g
     id="hover-center"
     transform="matrix(0.47368423,0,0,1.1249986,-31.789465,67.750009)">
    <rect
       id="rect1525-1-53"
       width="38"
       height="16"
       x="122"
       y="2"
       fill="currentColor"
       class="ColorScheme-ButtonText"
       style="opacity:0.08;fill:currentColor" />
  </g>
  <g
     id="hover-topright"
     transform="rotate(90,48.000033,-2.9999965)">
    <path
       id="path2624-5"
       d="m 121,-5 c -3.324,0 -6,2.6760033 -6,6 h 6 z"
       class="ColorScheme-ButtonText"
       style="opacity:0.08;fill:currentColor" />
  </g>
  <g
     id="hover-bottomleft"
     transform="matrix(1,0,0,-1,-95.00002,88.999979)">
    <path
       id="path576-6"
       d="m 121,-5 c -3.324,0 -6,2.6760033 -6,6 h 6 z"
       class="ColorScheme-ButtonText"
       style="opacity:0.08;fill:currentColor" />
  </g>
  <g
     id="hover-bottom"
     transform="matrix(0.47368423,0,0,-1,-31.789465,89.000059)">
    <rect
       id="rect638-2"
       width="38"
       height="6"
       x="122"
       y="-5"
       fill="currentColor"
       class="ColorScheme-ButtonText"
       style="opacity:0.08;fill:currentColor" />
  </g>
  <g
     id="hover-right"
     transform="matrix(-1,0,0,1.1249986,164.99995,67.750009)">
    <rect
       id="rect2551-9"
       width="6"
       height="16"
       x="115"
       y="2"
       fill="currentColor"
       class="ColorScheme-ButtonText"
       style="opacity:0.08;fill:currentColor" />
  </g>
  <g
     id="hover-bottomright"
     transform="matrix(0,-1,-1,0,44.999985,209.00006)">
    <path
       id="path568-1"
       d="m 121,-5 c -3.324,0 -6,2.6760033 -6,6 h 6 z"
       class="ColorScheme-ButtonText"
       style="opacity:0.08;fill:currentColor" />
  </g>
  <path
     id="pressed-hint-top-margin"
     d="m 34.000005,145 h 2 v 6 h -2 z"
     style="fill:#ffcc00;fill-rule:evenodd;stroke-width:0.999996" />
  <path
     id="pressed-hint-bottom-margin"
     d="m 34.000005,179 h 2 v 6 h -2 z"
     style="fill:#ffcc00;fill-rule:evenodd;stroke-width:0.999996"
     sodipodi:nodetypes="ccccc" />
  <path
     id="pressed-hint-left-margin"
     d="m 15,163 h 6 v 2 h -6 z"
     style="fill:#ffcc00;fill-rule:evenodd;stroke-width:0.999996" />
  <path
     id="pressed-hint-right-margin"
     d="m 49,163 h 6 v 2 h -6 z"
     style="fill:#ffcc00;fill-rule:evenodd;stroke-width:0.999996" />
  <rect
     y="0"
     x="0"
     height="10"
     width="10"
     id="hint-stretch-borders"
     style="display:inline;opacity:0.875;fill:#e4720c;fill-opacity:1;stroke:none" />
</svg>
