<?xml version="1.0" encoding="UTF-8" standalone="no"?>
<svg
   width="84.96225"
   height="16.000008"
   version="1"
   id="svg1810"
   sodipodi:docname="checkbox.svg"
   inkscape:version="1.2.2 (b0a8486541, 2022-12-01)"
   xmlns:inkscape="http://www.inkscape.org/namespaces/inkscape"
   xmlns:sodipodi="http://sodipodi.sourceforge.net/DTD/sodipodi-0.dtd"
   xmlns:xlink="http://www.w3.org/1999/xlink"
   xmlns="http://www.w3.org/2000/svg"
   xmlns:svg="http://www.w3.org/2000/svg">
  <sodipodi:namedview
     id="namedview1812"
     pagecolor="#303133"
     bordercolor="#4d4d4d"
     borderopacity="1"
     inkscape:pageshadow="2"
     inkscape:pageopacity="0"
     inkscape:pagecheckerboard="false"
     showgrid="false"
     inkscape:zoom="14.063762"
     inkscape:cx="31.072767"
     inkscape:cy="-1.9198277"
     inkscape:window-width="1920"
     inkscape:window-height="1026"
     inkscape:window-x="0"
     inkscape:window-y="24"
     inkscape:window-maximized="1"
     inkscape:current-layer="svg1810"
     inkscape:snap-bbox="true"
     inkscape:bbox-nodes="true"
     inkscape:snap-bbox-edge-midpoints="true"
     inkscape:snap-nodes="true"
     inkscape:showpageshadow="true"
     inkscape:deskcolor="#333436"
     showguides="true"
     showborder="true"
     borderlayer="true"
     shape-rendering="auto">
    <inkscape:grid
       type="xygrid"
       id="grid51489"
       originx="-4.28e-06"
       originy="-7.56e-06" />
  </sodipodi:namedview>
  <defs
     id="defaultsettings">
    <linearGradient
       inkscape:collect="always"
       id="gradient">
      <stop
         style="stop-color:#11cc00;stop-opacity:1;"
         offset="0"
         id="stop10130" />
      <stop
         style="stop-color:#76e500;stop-opacity:1;"
         offset="1"
         id="stop10132" />
    </linearGradient>
    <style
       type="text/css"
       id="current-color-scheme">      .ColorScheme-Background {
        color:#cddfff;
        stop-color:#cddfff;
      }
      .ColorScheme-Highlight {
        color:#76e500;
        stop-color:#76e500;
      }
      .ColorScheme-ViewText {
        color:#a1adc8;
        stop-color:#a1adc8;
      }
      .ColorScheme-ViewBackground {
        color:#fcfcfc;
        stop-color:#fcfcfc;
      }
      .ColorScheme-ViewHover {
        color:#73e500
        stop-color:#73e500;
      }
      .ColorScheme-ViewFocus{
        color:#76e500;
        stop-color:#76e500;
      }
      .ColorScheme-ButtonText {
        color:#a7b4d0;
        stop-color:#a7b4d0;
      }
      .ColorScheme-ButtonBackground {
        color:#eff0f1;
        stop-color:#eff0f1;
      }
      .ColorScheme-ButtonHover {
        color:#73e500;
        stop-color:#73e500;
      }
      .ColorScheme-ButtonFocus{
        color:#73e500;
        stop-color:#73e500;
      }</style>
    <linearGradient
       inkscape:collect="always"
       xlink:href="#gradient"
       id="linearGradient23141"
       x1="18"
       y1="280"
       x2="38"
       y2="280"
       gradientUnits="userSpaceOnUse" />
    <linearGradient
       inkscape:collect="always"
       xlink:href="#gradient"
       id="linearGradient23147"
       x1="18"
       y1="308"
       x2="38"
       y2="308"
       gradientUnits="userSpaceOnUse" />
    <linearGradient
       inkscape:collect="always"
       id="linearGradient59820">
      <stop
         style="stop-color:#11cc00;stop-opacity:1;"
         offset="0"
         id="stop59816" />
      <stop
         style="stop-color:#73e500;stop-opacity:1;"
         offset="1"
         id="stop59818" />
    </linearGradient>
    <linearGradient
       inkscape:collect="always"
       xlink:href="#linearGradient59820"
       id="linearGradient59822"
       gradientUnits="userSpaceOnUse"
       x1="272"
       y1="215"
       x2="288"
       y2="215"
       gradientTransform="matrix(1.3125633,0,0,1.3125633,-339.5177,-2.2011842)" />
    <linearGradient
       inkscape:collect="always"
       xlink:href="#linearGradient59820"
       id="linearGradient3569"
       x1="287.48438"
       y1="132.00006"
       x2="304.51562"
       y2="132.00006"
       gradientUnits="userSpaceOnUse" />
    <filter
       style="color-interpolation-filters:sRGB;"
       inkscape:label="Blur"
       id="filter24149"
       x="-0.10322581"
       y="-0.10322581"
       width="1.2064516"
       height="1.2064516">
      <feGaussianBlur
         stdDeviation="1 1"
         result="blur"
         id="feGaussianBlur24147" />
    </filter>
  </defs>
  <g
     id="focus"
     transform="matrix(0.66666667,0,0,0.66666667,41.873299,-197.33333)"
     inkscape:label="focus">
    <rect
       style="display:inline;opacity:0;fill:#000000;stroke-width:3;stroke-linecap:round;stroke-linejoin:round;paint-order:stroke fill markers"
       id="rect2333"
       width="24"
       height="24"
       x="16"
       y="296"
       rx="0"
       ry="0" />
    <path
       d="m 28,298 c -5.522847,0 -10,4.47715 -10,10 0,5.52285 4.477153,10 10,10 5.522847,0 10,-4.47715 10,-10 0,-5.52285 -4.477153,-10 -10,-10 z"
       id="use1911"
       class="ColorScheme-Highlight"
       style="display:none;fill:url(#linearGradient23147);fill-opacity:1"
       sodipodi:nodetypes="sssss" />
    <path
       id="checkbox-normal-5-1-7"
       d="m 22.423534,316.69138 c -1.706497,0 -3.114915,-1.40841 -3.114915,-3.11492 v -11.15292 c 0,-1.70651 1.408311,-3.11492 3.114915,-3.11492 h 11.152947 c 1.706492,0 3.1149,1.40841 3.1149,3.11492 v 11.15292 c 0,1.70651 -1.408408,3.11492 -3.1149,3.11492 z"
       style="display:inline;opacity:0.05;fill:#cddfff;fill-opacity:1;stroke-width:1.0864"
       sodipodi:nodetypes="sssssssss"
       inkscape:label="path12" />
    <path
       id="rect22279"
       style="display:inline;opacity:0.6;fill:#11e500;fill-opacity:1;stroke-width:0.683823;stroke-opacity:0.701669;filter:url(#filter24149)"
       d="m 21.845588,296.375 c -3.030703,0 -5.470588,2.43989 -5.470588,5.47059 v 12.30882 c 0,3.03071 2.439885,5.47059 5.470588,5.47059 h 12.308824 c 3.030703,0 5.470588,-2.43988 5.470588,-5.47059 v -12.30882 c 0,-3.0307 -2.439885,-5.47059 -5.470588,-5.47059 z m 0.01069,2.05147 h 12.287453 c 1.879834,0 3.429803,1.54995 3.429803,3.4298 v 12.28746 c 0,1.87986 -1.549958,3.4298 -3.429803,3.4298 H 21.856273 c -1.879834,0 -3.429802,-1.54996 -3.429802,-3.4298 v -12.28746 c 0,-1.87985 1.549844,-3.4298 3.429802,-3.4298 z"
       sodipodi:nodetypes="ssssssssscssssssssc"
       inkscape:label="path2145"
       transform="matrix(0.94652403,0,0,0.94652403,1.4973268,16.470598)" />
    <path
       id="path2415"
       style="display:inline;fill:#11e500;stroke-width:1.31256"
       d="M 21.261698,297.5 C 19.199806,297.5 17.5,299.19993 17.5,301.2617 v 13.4766 c 0,2.06177 1.699942,3.7617 3.761698,3.7617 H 34.738303 C 36.80007,318.5 38.5,316.80009 38.5,314.7383 v -13.4766 c 0,-2.06177 -1.699942,-3.7617 -3.761697,-3.7617 z m 12.055733,5.23796 a 1.3126947,1.3126947 0 0 1 0.886239,2.22522 l -7.374082,7.81721 -4.879129,-3.74003 a 1.3126947,1.3126947 0 1 1 1.599082,-2.08073 l 2.998281,2.29748 5.748508,-6.09529 a 1.3126947,1.3126947 0 0 1 1.021101,-0.42386 z" />
    <path
       d="m 33.6289,303.9629 v 0.002 c 0.12781,0 0.25558,0.0486 0.35352,0.14648 0.19587,0.19587 0.19587,0.51116 0,0.70703 l -7.0723,7.0723 c -0.02449,0.0245 -0.05032,0.0461 -0.07813,0.0644 -0.02772,0.0184 -0.05586,0.0327 -0.08594,0.0449 -0.03009,0.0122 -0.06225,0.0193 -0.09375,0.0254 -0.03149,0.006 -0.06374,0.0117 -0.0957,0.0117 -0.03195,0 -0.06226,-0.006 -0.09375,-0.0117 -0.03149,-0.006 -0.06367,-0.0131 -0.09375,-0.0254 -0.03009,-0.0122 -0.05819,-0.0266 -0.08594,-0.0449 -0.01389,-0.009 -0.02787,-0.0205 -0.04101,-0.0312 -0.01312,-0.0107 -0.02682,-0.0229 -0.03906,-0.0352 l -4.1855,-4.1875 c -0.19587,-0.19587 -0.19587,-0.51116 0,-0.70703 0.19587,-0.19587 0.51116,-0.19587 0.70703,0 l 3.832,3.834 6.7188,-6.7188 c 0.09793,-0.0979 0.22571,-0.14648 0.35352,-0.14648 z"
       id="path24343"
       style="display:none;fill:#cddfff;fill-opacity:1" />
  </g>
  <g
     id="checked"
     transform="matrix(0.66666667,0,0,0.66666667,24.98152,-178.66667)"
     inkscape:label="checked">
    <rect
       style="opacity:0;fill:#000000;stroke-width:3;stroke-linecap:round;stroke-linejoin:round;paint-order:stroke fill markers"
       id="rect1125"
       width="24"
       height="24"
       x="16"
       y="268"
       rx="0"
       ry="0" />
    <path
       d="m 28,270 c -5.522847,0 -10,4.47715 -10,10 0,5.52285 4.477153,10 10,10 5.522847,0 10,-4.47715 10,-10 0,-5.52285 -4.477153,-10 -10,-10 z"
       id="use1735"
       class="ColorScheme-Highlight"
       style="display:none;fill:url(#linearGradient23141);fill-opacity:1" />
    <path
       id="checkbox-normal-5-1"
       d="m 22.423535,288.69138 c -1.706498,0 -3.114916,-1.40841 -3.114916,-3.11492 v -11.15292 c 0,-1.70651 1.408311,-3.11492 3.114916,-3.11492 h 11.152947 c 1.706491,0 3.114899,1.40841 3.114899,3.11492 v 11.15292 c 0,1.70651 -1.408408,3.11492 -3.114899,3.11492 z"
       style="display:inline;opacity:0.05;fill:#cddfff;fill-opacity:1;stroke-width:1.0864"
       sodipodi:nodetypes="sssssssss"
       inkscape:label="path12" />
    <path
       id="path1598"
       style="display:inline;fill:url(#linearGradient59822);fill-opacity:1;stroke-width:1.31256"
       d="M 21.261698,269.5 C 19.199806,269.5 17.5,271.19993 17.5,273.2617 v 13.4766 c 0,2.06179 1.699942,3.7617 3.761698,3.7617 H 34.738303 C 36.80007,290.5 38.5,288.80009 38.5,286.7383 v -13.4766 c 0,-2.06177 -1.699942,-3.7617 -3.761697,-3.7617 z m 12.055733,5.23796 a 1.3126947,1.3126947 0 0 1 0.886239,2.22522 l -7.374082,7.81721 -4.879129,-3.74003 a 1.3126947,1.3126947 0 1 1 1.599082,-2.08073 l 2.998281,2.29748 5.748508,-6.09529 a 1.3126947,1.3126947 0 0 1 1.021101,-0.42386 z"
       inkscape:label="path1598" />
    <path
       d="m 33.6289,275.9629 v 0.002 c 0.12781,0 0.25558,0.0486 0.35352,0.14648 0.19587,0.19587 0.19587,0.51116 0,0.70703 l -7.0723,7.0723 c -0.02449,0.0245 -0.05032,0.0461 -0.07813,0.0644 -0.02772,0.0184 -0.05586,0.0327 -0.08594,0.0449 -0.03009,0.0122 -0.06225,0.0193 -0.09375,0.0254 -0.03149,0.006 -0.06374,0.0117 -0.0957,0.0117 -0.03195,0 -0.06226,-0.006 -0.09375,-0.0117 -0.03149,-0.006 -0.06367,-0.0131 -0.09375,-0.0254 -0.03009,-0.0122 -0.05819,-0.0266 -0.08594,-0.0449 -0.01389,-0.009 -0.02787,-0.0205 -0.04101,-0.0312 -0.01312,-0.0107 -0.02682,-0.0229 -0.03906,-0.0352 l -4.1855,-4.1875 c -0.19587,-0.19587 -0.19587,-0.51116 0,-0.70703 0.19587,-0.19587 0.51116,-0.19587 0.70703,0 l 3.832,3.834 6.7188,-6.7188 c 0.09793,-0.0979 0.22571,-0.14648 0.35352,-0.14648 z"
       id="path23165"
       style="display:none;fill:#cddfff;fill-opacity:1" />
  </g>
  <g
     id="hover"
     transform="matrix(0.66666667,0,0,0.66666667,-172.38087,-79.999998)"
     inkscape:label="hover">
    <rect
       style="opacity:0;fill:#000000;stroke-width:3;stroke-linecap:round;stroke-linejoin:round;paint-order:stroke fill markers"
       id="rect3356"
       width="24"
       height="24"
       x="284"
       y="120"
       rx="0"
       ry="0" />
    <path
       id="checkbox-focused-6"
       d="m 289.26311,142.5 c -2.06162,0 -3.76311,-1.7015 -3.76311,-3.76312 v -13.47377 c 0,-2.06162 1.70137,-3.76311 3.76311,-3.76311 h 13.47377 c 2.06162,0 3.76312,1.70149 3.76312,3.76311 v 13.47377 c 0,2.06162 -1.7015,3.76312 -3.76312,3.76312 z"
       style="display:inline;opacity:0.25;fill:#cddfff;fill-opacity:1;stroke-width:1.31247"
       sodipodi:nodetypes="sssssssss"
       inkscape:label="path131" />
    <path
       id="path3558"
       style="display:none;opacity:0.9;fill:url(#linearGradient3569);fill-opacity:1;stroke-width:1.06451"
       inkscape:label="path13"
       d="m 290.53516,123.48443 c -1.67222,0 -3.05078,1.37866 -3.05078,3.05078 v 10.92969 c 0,1.67212 1.37866,3.05078 3.05078,3.05078 h 10.92968 c 1.67212,0 3.05078,-1.37866 3.05078,-3.05078 v -10.92969 c 0,-1.67212 -1.37866,-3.05078 -3.05078,-3.05078 z m 0.96289,1.5 h 9.0039 c 1.37765,0 2.51367,1.13602 2.51367,2.51367 v 9.00391 c 0,1.37765 -1.13602,2.51367 -2.51367,2.51367 h -9.0039 c -1.37766,0 -2.51367,-1.13602 -2.51367,-2.51367 v -9.00391 c 0,-1.37765 1.13593,-2.51367 2.51367,-2.51367 z" />
    <path
       id="path10048"
       style="display:inline;opacity:0.05;fill:#cddfff;fill-opacity:1;stroke-width:1.31247"
       inkscape:label="path13"
       d="m 289.26221,121.50078 c -2.06174,0 -3.76142,1.6998 -3.76142,3.76142 v 13.47561 c 0,2.06162 1.6998,3.76142 3.76142,3.76142 h 13.4756 c 2.0616,0 3.76141,-1.6998 3.76141,-3.76142 V 125.2622 c 0,-2.06162 -1.6998,-3.76142 -3.76141,-3.76142 z m 1.18718,1.84941 h 11.10123 c 1.69856,0 3.0992,1.40064 3.0992,3.09919 v 11.10125 c 0,1.69855 -1.40064,3.09919 -3.0992,3.09919 h -11.10123 c -1.69857,0 -3.0992,-1.40064 -3.0992,-3.09919 v -11.10125 c 0,-1.69855 1.40053,-3.09919 3.0992,-3.09919 z" />
  </g>
  <g
     id="normal"
     transform="matrix(0.66666667,0,0,0.66666667,-189.33333,-79.999998)"
     inkscape:label="normal">
    <rect
       style="display:inline;opacity:0;fill:#000000;stroke-width:3;stroke-linecap:round;stroke-linejoin:round;paint-order:stroke fill markers"
       id="rect3350"
       width="24"
       height="24"
       x="284"
       y="120"
       rx="0"
       ry="0" />
    <path
       d="m 296,122 c -5.52,0 -10,4.48 -10,10 0,5.52 4.48,10 10,10 5.52,0 10,-4.48 10,-10 0,-5.52 -4.48,-10 -10,-10 z"
       id="path3352"
       style="display:none;opacity:0.12;fill:#cddfff;stroke-width:1" />
    <path
       id="checkbox-normal-5"
       d="m 289.26311,142.5 c -2.06161,0 -3.76311,-1.70149 -3.76311,-3.76312 v -13.47377 c 0,-2.06162 1.70137,-3.76311 3.76311,-3.76311 h 13.4738 c 2.0616,0 3.76309,1.70149 3.76309,3.76311 v 13.47377 c 0,2.06163 -1.70149,3.76312 -3.76309,3.76312 z"
       style="display:inline;opacity:0.12;fill:#cddfff;fill-opacity:1;stroke-width:1.31247"
       sodipodi:nodetypes="sssssssss"
       inkscape:label="path12" />
    <path
       id="path11386"
       style="display:inline;opacity:0.05;fill:#cddfff;fill-opacity:1;stroke-width:1.31247"
       inkscape:label="path13"
       d="m 289.26221,121.50078 c -2.06174,0 -3.76142,1.6998 -3.76142,3.76142 v 13.47561 c 0,2.06163 1.69981,3.76142 3.76142,3.76142 h 13.4756 c 2.0616,0 3.76141,-1.69979 3.76141,-3.76142 V 125.2622 c 0,-2.06162 -1.69981,-3.76142 -3.76141,-3.76142 z m 0.79224,1.23294 h 11.89111 c 1.81958,0 3.32073,1.50113 3.32073,3.32074 v 11.89109 c 0,1.81962 -1.50115,3.32074 -3.32073,3.32074 h -11.89111 c -1.81958,0 -3.32072,-1.50112 -3.32072,-3.32074 v -11.89109 c 0,-1.81961 1.50103,-3.32074 3.32072,-3.32074 z" />
  </g>
  <path
     id="symbol"
     style="opacity:0.05;fill:#cddfff;fill-opacity:1;stroke-width:0.5;stroke-opacity:0.701669"
     d="m 46.864302,-8.5950973 c -0.257858,-0.01073 -0.507302,0.09291 -0.681641,0.283204 l -3.832031,4.0625 -1.998047,-1.53125 c -0.931111,-0.765176 -2.045008,0.683297 -1.066406,1.386718 l 3.251953,2.4941409 4.916016,-5.2128909 c 0.523809,-0.541965 0.163117,-1.448474 -0.589844,-1.482422 z"
     sodipodi:nodetypes="cccccccc"
     inkscape:label="symbol" />
</svg>
