<?xml version="1.0" encoding="UTF-8" standalone="no"?>
<svg
   width="32.850254"
   height="16.000002"
   version="1"
   id="svg1810"
   sodipodi:docname="checkmarks.svg"
   inkscape:version="1.2.2 (b0a8486541, 2022-12-01)"
   xmlns:inkscape="http://www.inkscape.org/namespaces/inkscape"
   xmlns:sodipodi="http://sodipodi.sourceforge.net/DTD/sodipodi-0.dtd"
   xmlns:xlink="http://www.w3.org/1999/xlink"
   xmlns="http://www.w3.org/2000/svg"
   xmlns:svg="http://www.w3.org/2000/svg">
  <sodipodi:namedview
     id="namedview1812"
     pagecolor="#303133"
     bordercolor="#4d4d4d"
     borderopacity="1"
     inkscape:pageshadow="2"
     inkscape:pageopacity="0"
     inkscape:pagecheckerboard="false"
     showgrid="false"
     inkscape:zoom="17.557054"
     inkscape:cx="18.112378"
     inkscape:cy="14.125376"
     inkscape:window-width="1920"
     inkscape:window-height="1026"
     inkscape:window-x="0"
     inkscape:window-y="24"
     inkscape:window-maximized="1"
     inkscape:current-layer="svg1810"
     inkscape:snap-bbox="true"
     inkscape:bbox-nodes="true"
     inkscape:snap-bbox-edge-midpoints="true"
     inkscape:snap-nodes="true"
     inkscape:showpageshadow="true"
     inkscape:deskcolor="#333436"
     showguides="true"
     showborder="true"
     borderlayer="true"
     shape-rendering="auto">
    <inkscape:grid
       type="xygrid"
       id="grid51489"
       originx="4.12e-06"
       originy="6.08e-06" />
  </sodipodi:namedview>
  <defs
     id="defaultsettings">
    <linearGradient
       inkscape:collect="always"
       id="gradient">
      <stop
         style="stop-color:#11cc00;stop-opacity:1;"
         offset="0"
         id="stop10130" />
      <stop
         style="stop-color:#76e500;stop-opacity:1;"
         offset="1"
         id="stop10132" />
    </linearGradient>
    <style
       type="text/css"
       id="current-color-scheme">      .ColorScheme-Background {
        color:#cddfff;
        stop-color:#cddfff;
      }
      .ColorScheme-Highlight {
        color:#76e500;
        stop-color:#76e500;
      }
      .ColorScheme-ViewText {
        color:#a1adc8;
        stop-color:#a1adc8;
      }
      .ColorScheme-ViewBackground {
        color:#fcfcfc;
        stop-color:#fcfcfc;
      }
      .ColorScheme-ViewHover {
        color:#73e500
        stop-color:#73e500;
      }
      .ColorScheme-ViewFocus{
        color:#76e500;
        stop-color:#76e500;
      }
      .ColorScheme-ButtonText {
        color:#a7b4d0;
        stop-color:#a7b4d0;
      }
      .ColorScheme-ButtonBackground {
        color:#eff0f1;
        stop-color:#eff0f1;
      }
      .ColorScheme-ButtonHover {
        color:#73e500;
        stop-color:#73e500;
      }
      .ColorScheme-ButtonFocus{
        color:#73e500;
        stop-color:#73e500;
      }</style>
    <linearGradient
       inkscape:collect="always"
       xlink:href="#gradient"
       id="linearGradient23141"
       x1="18"
       y1="280"
       x2="38"
       y2="280"
       gradientUnits="userSpaceOnUse" />
    <linearGradient
       inkscape:collect="always"
       xlink:href="#gradient"
       id="linearGradient23143"
       x1="46"
       y1="280"
       x2="66"
       y2="280"
       gradientUnits="userSpaceOnUse" />
    <linearGradient
       inkscape:collect="always"
       id="linearGradient59820">
      <stop
         style="stop-color:#11cc00;stop-opacity:1;"
         offset="0"
         id="stop59816" />
      <stop
         style="stop-color:#73e500;stop-opacity:1;"
         offset="1"
         id="stop59818" />
    </linearGradient>
    <linearGradient
       inkscape:collect="always"
       xlink:href="#linearGradient59820"
       id="linearGradient59822"
       gradientUnits="userSpaceOnUse"
       x1="272"
       y1="215"
       x2="288"
       y2="215"
       gradientTransform="matrix(1.3125633,0,0,1.3125633,-339.51769,-2.2011836)" />
    <linearGradient
       inkscape:collect="always"
       xlink:href="#linearGradient59820"
       id="linearGradient69714"
       x1="145.48232"
       y1="222.77248"
       x2="163.34767"
       y2="222.77248"
       gradientUnits="userSpaceOnUse"
       gradientTransform="translate(-98.414995,57.227529)" />
    <linearGradient
       inkscape:collect="always"
       xlink:href="#linearGradient59820"
       id="linearGradient2180"
       gradientUnits="userSpaceOnUse"
       gradientTransform="matrix(1.1754673,0,0,1.175467,-125.51052,18.13733)"
       x1="145.48232"
       y1="222.77248"
       x2="163.34767"
       y2="222.77248" />
  </defs>
  <g
     id="checkbox"
     transform="matrix(0.66666667,0,0,0.66666667,6.183586,-178.66667)"
     inkscape:label="checkbox">
    <rect
       style="opacity:0;fill:#000000;stroke-width:3;stroke-linecap:round;stroke-linejoin:round;paint-order:stroke fill markers"
       id="rect1125"
       width="24"
       height="24"
       x="16"
       y="268"
       rx="0"
       ry="0" />
    <path
       d="m 28,270 c -5.522847,0 -10,4.47715 -10,10 0,5.52285 4.477153,10 10,10 5.522847,0 10,-4.47715 10,-10 0,-5.52285 -4.477153,-10 -10,-10 z"
       id="use1735"
       class="ColorScheme-Highlight"
       style="display:none;fill:url(#linearGradient23141);fill-opacity:1" />
    <path
       id="checkbox-normal-5-6"
       d="m 22.221618,289.00609 c -1.768283,0 -3.227698,-1.45941 -3.227698,-3.22772 v -11.55674 c 0,-1.76831 1.459298,-3.22772 3.227698,-3.22772 h 11.556774 c 1.768284,0 3.227688,1.45941 3.227688,3.22772 v 11.55674 c 0,1.76831 -1.459404,3.22772 -3.227688,3.22772 z"
       style="display:inline;opacity:0.05;fill:#cddfff;fill-opacity:1;stroke-width:1.12574"
       sodipodi:nodetypes="sssssssss"
       inkscape:label="path12" />
    <path
       id="path1598"
       style="display:inline;fill:url(#linearGradient59822);fill-opacity:1;stroke-width:1.31256"
       d="M 21.261698,269.5 C 19.199806,269.5 17.5,271.19993 17.5,273.2617 v 13.4766 c 0,2.06178 1.699942,3.7617 3.761698,3.7617 H 34.738303 C 36.800071,290.5 38.5,288.80008 38.5,286.7383 v -13.4766 c 0,-2.06177 -1.699942,-3.7617 -3.761697,-3.7617 z m 12.055732,5.23797 a 1.3126947,1.3126947 0 0 1 0.886239,2.22522 l -7.374081,7.8172 -4.879129,-3.74003 a 1.3126947,1.3126947 0 1 1 1.599082,-2.08073 l 2.998281,2.29749 5.748508,-6.09531 a 1.3126947,1.3126947 0 0 1 1.0211,-0.42384 z"
       inkscape:label="path1598" />
    <path
       d="m 33.6289,275.9629 v 0.002 c 0.12781,0 0.25558,0.0486 0.35352,0.14648 0.19587,0.19587 0.19587,0.51116 0,0.70703 l -7.0723,7.0723 c -0.02449,0.0245 -0.05032,0.0461 -0.07813,0.0644 -0.02772,0.0184 -0.05586,0.0327 -0.08594,0.0449 -0.03009,0.0122 -0.06225,0.0193 -0.09375,0.0254 -0.03149,0.006 -0.06374,0.0117 -0.0957,0.0117 -0.03195,0 -0.06226,-0.006 -0.09375,-0.0117 -0.03149,-0.006 -0.06367,-0.0131 -0.09375,-0.0254 -0.03009,-0.0122 -0.05819,-0.0266 -0.08594,-0.0449 -0.01389,-0.009 -0.02787,-0.0205 -0.04101,-0.0312 -0.01312,-0.0107 -0.02682,-0.0229 -0.03906,-0.0352 l -4.1855,-4.1875 c -0.19587,-0.19587 -0.19587,-0.51116 0,-0.70703 0.19587,-0.19587 0.51116,-0.19587 0.70703,0 l 3.832,3.834 6.7188,-6.7188 c 0.09793,-0.0979 0.22571,-0.14648 0.35352,-0.14648 z"
       id="path23165"
       style="display:none;fill:#cddfff;fill-opacity:1" />
  </g>
  <g
     id="radiobutton"
     transform="matrix(0.66666667,0,0,0.66666667,-29.333333,-178.66667)"
     inkscape:export-filename="radio-checked-normal.svg"
     inkscape:export-xdpi="96"
     inkscape:export-ydpi="96"
     inkscape:label="radiobutton">
    <rect
       style="opacity:0;fill:#000000;stroke-width:3;stroke-linecap:round;stroke-linejoin:round;paint-order:stroke fill markers"
       id="rect1133"
       width="24"
       height="24"
       x="44"
       y="268"
       rx="0"
       ry="0" />
    <path
       d="m 56,270 c -5.52,0 -10,4.48 -10,10 0,5.52 4.48,10 10,10 5.52,0 10,-4.48 10,-10 0,-5.52 -4.48,-10 -10,-10 z"
       id="use1737"
       class="ColorScheme-Highlight"
       style="display:none;fill:url(#linearGradient23143);fill-opacity:1"
       sodipodi:nodetypes="sssss" />
    <path
       d="m 56,271.02765 c -4.952733,0 -8.972347,4.01962 -8.972347,8.97235 0,4.95273 4.019614,8.97235 8.972347,8.97235 4.952733,0 8.972347,-4.01962 8.972347,-8.97235 0,-4.95273 -4.019614,-8.97235 -8.972347,-8.97235 z"
       id="path17125"
       style="display:inline;opacity:0.05;fill:#cddfff;stroke-width:0.897237"
       inkscape:label="path11390" />
    <path
       id="path166"
       d="m 56.000005,271.06732 c -4.92012,0 -8.93268,4.01256 -8.93268,8.93268 1e-5,4.92012 4.01256,8.93268 8.93268,8.93268 4.92012,0 8.93267,-4.01256 8.93267,-8.93268 0,-4.92012 -4.01255,-8.93268 -8.93267,-8.93268 z m 0,2.23317 c 3.71342,0 6.69951,2.98609 6.69951,6.69951 0,3.71343 -2.98609,6.69951 -6.69951,6.69951 -3.71343,0 -6.69951,-2.98608 -6.69951,-6.69951 0,-3.71342 2.98608,-6.69951 6.69951,-6.69951 z m 0,3.34976 A 3.3497537,3.3497537 0 0 0 52.650245,280 a 3.3497537,3.3497537 0 0 0 3.34976,3.34976 3.3497537,3.3497537 0 0 0 3.34975,-3.34976 3.3497537,3.3497537 0 0 0 -3.34975,-3.34975 z"
       style="display:none;fill:url(#linearGradient69714);fill-opacity:1;stroke-width:1.11658" />
    <path
       id="path2166"
       style="display:inline;fill:url(#linearGradient2180);fill-opacity:1;stroke-width:1.31251"
       d="M 55.998852,269.5 C 50.215418,269.5 45.5,274.21543 45.5,279.99885 45.500012,285.78229 50.215418,290.5 55.998852,290.5 61.782287,290.5 66.5,285.78229 66.5,279.99885 66.5,274.21543 61.782287,269.5 55.998852,269.5 Z m 0,7.17975 c 2.174629,0 3.319882,1.75427 3.319914,3.3191 3.2e-5,1.5649 -1.14528,3.31937 -3.319914,3.31937 -2.174639,0 -3.319824,-1.7545 -3.319792,-3.31937 3.2e-5,-1.5648 1.145157,-3.3191 3.319792,-3.3191 z"
       sodipodi:nodetypes="ssssssasas" />
    <path
       d="m 56,278 c 1.1046,0 2,0.89543 2,2 0,1.10457 -0.89543,2 -2,2 -1.10457,0 -2,-0.89543 -2,-2 0,-1.10457 0.89543,-2 2,-2 z"
       id="path24349"
       class="ColorScheme-Highlight"
       style="display:none;fill:#cddfff;fill-opacity:1"
       sodipodi:nodetypes="sssss" />
  </g>
</svg>
