<?xml version="1.0" encoding="UTF-8" standalone="no"?>
<svg
   width="200"
   height="200"
   viewBox="0 0 200 200"
   fill="none"
   version="1.1"
   id="svg59"
   sodipodi:docname="clock.svg"
   inkscape:version="1.2.2 (b0a8486541, 2022-12-01)"
   xmlns:inkscape="http://www.inkscape.org/namespaces/inkscape"
   xmlns:sodipodi="http://sodipodi.sourceforge.net/DTD/sodipodi-0.dtd"
   xmlns="http://www.w3.org/2000/svg"
   xmlns:svg="http://www.w3.org/2000/svg">
  <sodipodi:namedview
     id="namedview61"
     pagecolor="#ffffff"
     bordercolor="#000000"
     borderopacity="0.25"
     inkscape:showpageshadow="2"
     inkscape:pageopacity="0.0"
     inkscape:pagecheckerboard="0"
     inkscape:deskcolor="#d1d1d1"
     showgrid="false"
     inkscape:zoom="3.3719723"
     inkscape:cx="49.822473"
     inkscape:cy="103.20369"
     inkscape:window-width="1920"
     inkscape:window-height="1032"
     inkscape:window-x="0"
     inkscape:window-y="24"
     inkscape:window-maximized="1"
     inkscape:current-layer="svg59" />
  <rect
     width="200"
     height="200"
     fill="#E5E5E5"
     id="rect2"
     style="opacity:0" />
  <g
     id="clock 1"
     clip-path="url(#clip0_0_1)">
    <g
       id="ClockFace">
      <path
         id="path14"
         opacity="0.5"
         d="M99.572 -1.99999C72.0641 -1.88626 45.7216 9.12104 26.3107 28.6125C6.89983 48.104 -3.99824 74.4918 -3.998 102C-3.998 129.583 6.95911 156.035 26.4629 175.539C45.9667 195.043 72.4195 206 100.002 206C127.585 206 154.037 195.043 173.541 175.539C193.045 156.035 204.002 129.583 204.002 102C204.002 74.4175 193.045 47.9647 173.541 28.4609C154.037 8.95712 127.585 -1.99999 100.002 -1.99999C99.8594 -2.00029 99.7168 -2.00029 99.5743 -1.99999H99.572ZM99.9997 2.00001C125.991 2.00001 150.918 12.325 169.296 30.7035C187.675 49.0821 198 74.0088 198 100C198 125.991 187.675 150.918 169.296 169.296C150.918 187.675 125.991 198 99.9997 198C74.0085 198 49.0818 187.675 30.7033 169.296C12.3247 150.918 1.99973 125.991 1.99973 100C1.99973 74.0088 12.3247 49.0821 30.7033 30.7035C49.0818 12.325 74.0085 2.00001 99.9997 2.00001Z"
         fill="url(#paint0_radial_0_1)" />
      <g
         id="circle16"
         filter="url(#filter0_b_0_1)">
        <path
           d="m 100,198 c 54.124,0 98,-43.876 98,-98 C 198,45.8761 154.124,2 100,2 45.8761,2 2,45.8761 2,100 c 0,54.124 43.8761,98 98,98 z"
           fill="#1a2332"
           fill-opacity="0.95"
           id="path5"
           style="display:inline" />
      </g>
      <path
         id="path18"
         opacity="0.55"
         d="M100 10C99.446 10 99 10.446 99 11V25C99 25.554 99.446 26 100 26C100.554 26 101 25.554 101 25V11C101 10.446 100.554 10 100 10ZM11 99C10.446 99 10 99.446 10 100C10 100.554 10.446 101 11 101H25C25.554 101 26 100.554 26 100C26 99.446 25.554 99 25 99H11ZM175 99C174.446 99 174 99.446 174 100C174 100.554 174.446 101 175 101H189C189.554 101 190 100.554 190 100C190 99.446 189.554 99 189 99H175ZM100 174C99.446 174 99 174.446 99 175V189C99 189.554 99.446 190 100 190C100.554 190 101 189.554 101 189V175C101 174.446 100.554 174 100 174Z"
         fill="#BFCEED" />
      <path
         id="path20"
         opacity="0.35"
         d="M55.377 21.93C55.2481 21.9462 55.12 21.9897 55 22.0589C54.5203 22.3359 54.3578 22.9444 54.6348 23.4241L59.6348 32.0843C59.9118 32.5641 60.5203 32.7266 61 32.4496C61.4798 32.1726 61.6422 31.5641 61.3652 31.0844L56.3652 22.4242C56.1575 22.0643 55.7637 21.8816 55.377 21.93ZM144.623 21.93C144.236 21.8816 143.842 22.0643 143.635 22.4242L138.635 31.0844C138.358 31.5641 138.52 32.1726 139 32.4496C139.48 32.7266 140.088 32.5641 140.365 32.0843L145.365 23.4241C145.642 22.9443 145.48 22.3359 145 22.0589C144.88 21.9897 144.752 21.9462 144.623 21.93ZM23.043 54.508C22.6563 54.4596 22.2625 54.6404 22.0547 55.0002C21.7777 55.48 21.9402 56.0884 22.4199 56.3654L31.0801 61.3654C31.5599 61.6424 32.1683 61.4799 32.4453 61.0002C32.7223 60.5204 32.5599 59.912 32.0801 59.635L23.4199 54.635C23.3 54.5657 23.1719 54.5242 23.043 54.508ZM176.953 54.508C176.824 54.5242 176.696 54.5657 176.576 54.635L167.916 59.635C167.436 59.912 167.274 60.5204 167.551 61.0002C167.828 61.4799 168.436 61.6424 168.916 61.3654L177.576 56.3654C178.056 56.0884 178.218 55.4799 177.941 55.0002C177.733 54.6404 177.34 54.4596 176.953 54.508ZM31.463 138.508C31.3341 138.524 31.206 138.566 31.086 138.635L22.4258 143.635C21.9461 143.912 21.7836 144.52 22.0606 145C22.3376 145.48 22.9461 145.642 23.4258 145.365L32.086 140.365C32.5658 140.088 32.7283 139.48 32.4513 139C32.2435 138.64 31.8497 138.46 31.463 138.508ZM168.543 138.508C168.156 138.46 167.762 138.64 167.555 139C167.278 139.48 167.44 140.088 167.92 140.365L176.58 145.365C177.06 145.642 177.668 145.48 177.945 145C178.222 144.52 178.06 143.912 177.58 143.635L168.92 138.635C168.8 138.566 168.672 138.524 168.543 138.508ZM60.623 167.422C60.2363 167.374 59.8425 167.556 59.6347 167.916L54.6347 176.576C54.3577 177.056 54.5202 177.665 55 177.942C55.4797 178.219 56.0882 178.056 56.3652 177.576L61.3652 168.916C61.6422 168.436 61.4797 167.828 60.9999 167.551C60.88 167.482 60.7519 167.438 60.623 167.422ZM139.377 167.422C139.248 167.438 139.12 167.482 139 167.551C138.52 167.828 138.358 168.436 138.635 168.916L143.635 177.576C143.912 178.056 144.52 178.219 145 177.942C145.48 177.665 145.642 177.056 145.365 176.576L140.365 167.916C140.157 167.556 139.764 167.374 139.377 167.422Z"
         fill="#BFCEED" />
      <path
         id="path22"
         opacity="0.15"
         d="M109.39 10.49C109.115 10.4611 108.868 10.6598 108.839 10.9353L108.109 17.8982C108.08 18.1737 108.279 18.4181 108.554 18.447C108.83 18.4759 109.076 18.2772 109.105 18.0017L109.833 11.0408C109.862 10.7653 109.665 10.5189 109.39 10.49ZM90.423 10.5115C90.1476 10.541 89.9482 10.7868 89.9777 11.0623L90.7238 18.0213C90.7533 18.2967 90.9991 18.4941 91.2746 18.4646C91.55 18.4352 91.7474 18.1912 91.7179 17.9158L90.9738 10.9549C90.9443 10.6795 90.6984 10.482 90.423 10.5115ZM118.583 11.9783C118.392 12.0149 118.232 12.1618 118.188 12.365L116.728 19.2107C116.67 19.4816 116.841 19.7467 117.112 19.8045C117.383 19.8623 117.646 19.6906 117.704 19.4197L119.165 12.574C119.223 12.3031 119.051 12.038 118.78 11.9802C118.713 11.9658 118.647 11.9662 118.583 11.9783ZM81.353 11.992C81.2892 11.9798 81.2215 11.9814 81.1538 11.9959C80.8829 12.0539 80.711 12.3188 80.769 12.5896L82.2358 19.4334C82.2938 19.7043 82.5587 19.8762 82.8296 19.8182C83.1004 19.7602 83.2704 19.4953 83.2124 19.2244L81.7476 12.3787C81.7041 12.1756 81.5444 12.0284 81.353 11.992ZM127.554 14.3611C127.36 14.3777 127.184 14.5091 127.12 14.7068L124.962 21.365C124.877 21.6285 125.021 21.9104 125.284 21.9958C125.548 22.0812 125.828 21.9371 125.913 21.6736L128.074 15.0154C128.159 14.7519 128.015 14.4699 127.751 14.3845C127.685 14.3631 127.619 14.3555 127.554 14.3611ZM72.382 14.3825C72.3173 14.377 72.2506 14.3845 72.1847 14.406C71.9213 14.4916 71.7788 14.7734 71.8644 15.0368L74.0285 21.693C74.1141 21.9565 74.394 22.099 74.6574 22.0134C74.9209 21.9277 75.0653 21.6479 74.9797 21.3844L72.8156 14.7262C72.7514 14.5287 72.5762 14.399 72.382 14.3825ZM136.323 17.697C136.128 17.6933 135.942 17.806 135.858 17.9959L133.016 24.3924C132.904 24.6456 133.019 24.9401 133.272 25.0525C133.525 25.1649 133.818 25.0518 133.93 24.7986L136.772 18.4002C136.885 18.147 136.769 17.8525 136.516 17.7401C136.453 17.712 136.388 17.6983 136.323 17.697ZM63.503 17.7752C63.438 17.7766 63.3729 17.7899 63.3096 17.8181C63.0567 17.9311 62.9428 18.2273 63.0557 18.4803L65.9092 24.8709C66.0222 25.1238 66.3184 25.2377 66.5713 25.1248C66.8243 25.0118 66.9362 24.7156 66.8233 24.4627L63.9698 18.0721C63.8851 17.8824 63.6978 17.7711 63.503 17.7752ZM152.515 27.0877C152.389 27.1077 152.27 27.1768 152.189 27.2888L148.076 32.9529C147.913 33.1771 147.963 33.4874 148.187 33.6502C148.411 33.813 148.723 33.765 148.886 33.5408L152.999 27.8767C153.162 27.6526 153.112 27.3403 152.888 27.1775C152.776 27.0961 152.641 27.0677 152.515 27.0877ZM47.355 27.1834C47.2287 27.1636 47.0958 27.1917 46.9839 27.2732C46.7601 27.4364 46.7114 27.7486 46.8745 27.9724L50.9975 33.6286C51.1607 33.8525 51.4729 33.9012 51.6968 33.738C51.9206 33.5748 51.9693 33.2626 51.8061 33.0388L47.6831 27.3826C47.6015 27.2707 47.4813 27.2032 47.355 27.1834ZM159.915 33.0369C159.787 33.0435 159.662 33.0981 159.569 33.2009L154.882 38.4001C154.696 38.6058 154.713 38.9197 154.919 39.1052C155.125 39.2907 155.438 39.2758 155.624 39.0701L160.313 33.8709C160.499 33.6652 160.482 33.3513 160.276 33.1658C160.173 33.073 160.043 33.0303 159.915 33.0369ZM40.055 33.0623C39.9274 33.0558 39.7965 33.0984 39.6937 33.1912C39.488 33.3768 39.4729 33.6926 39.6585 33.8982L44.348 39.0935C44.5336 39.2991 44.8494 39.3162 45.055 39.1306C45.2607 38.945 45.2758 38.6292 45.0902 38.4236L40.4007 33.2283C40.3079 33.1255 40.1826 33.0688 40.055 33.0623ZM166.495 39.5662C166.367 39.5596 166.237 39.6023 166.134 39.6951L160.934 44.3826C160.729 44.5681 160.714 44.8839 160.899 45.0896C161.085 45.2953 161.399 45.3103 161.604 45.1248L166.804 40.4373C167.009 40.2518 167.026 39.9379 166.841 39.7322C166.748 39.6293 166.623 39.5728 166.495 39.5662ZM33.475 39.5955C33.3474 39.6022 33.222 39.6586 33.1293 39.7615C32.9439 39.9673 32.9606 40.2812 33.1664 40.4666L38.3656 45.1521C38.5714 45.3375 38.8872 45.3208 39.0726 45.115C39.258 44.9092 39.2413 44.5953 39.0355 44.4099L33.8343 39.7244C33.7314 39.6317 33.6026 39.5888 33.475 39.5955ZM172.425 46.8221C172.299 46.8022 172.164 46.8304 172.052 46.9119L166.394 51.033C166.17 51.1961 166.121 51.5063 166.284 51.7303C166.447 51.9542 166.758 52.0047 166.982 51.8416L172.64 47.7205C172.864 47.5574 172.914 47.2452 172.751 47.0213C172.67 46.9093 172.551 46.8419 172.425 46.8221ZM27.465 46.9529C27.3388 46.973 27.2202 47.04 27.1388 47.1521C26.9762 47.3764 27.0259 47.6887 27.2502 47.8514L32.9162 51.9608C33.1404 52.1234 33.4527 52.0756 33.6154 51.8514C33.778 51.6272 33.7283 51.3148 33.5041 51.1522L27.8381 47.0428C27.7259 46.9614 27.5912 46.9328 27.465 46.9529ZM181.735 63.0759C181.67 63.0772 181.605 63.0927 181.542 63.1208L175.147 65.9685C174.894 66.0813 174.781 66.3757 174.893 66.6287C175.006 66.8817 175.3 66.9953 175.553 66.8826L181.948 64.033C182.201 63.9203 182.315 63.6259 182.202 63.3729C182.117 63.1831 181.93 63.072 181.735 63.0759ZM17.885 63.8923C17.6901 63.8903 17.5048 64.0025 17.4221 64.1931C17.3119 64.4473 17.4277 64.7411 17.6819 64.8513L24.1038 67.6365C24.3579 67.7467 24.6518 67.6309 24.762 67.3767C24.8722 67.1226 24.7564 66.8287 24.5022 66.7185L18.0784 63.9333C18.0149 63.9058 17.95 63.893 17.885 63.8923ZM185.175 71.9079C185.11 71.9024 185.044 71.91 184.978 71.9314L178.318 74.0896C178.054 74.175 177.912 74.455 177.997 74.7185C178.083 74.982 178.363 75.1261 178.626 75.0407L185.286 72.8826C185.55 72.7972 185.692 72.5152 185.607 72.2517C185.543 72.0541 185.369 71.9246 185.175 71.9079ZM14.565 72.6404C14.371 72.6587 14.1977 72.7918 14.1353 72.99C14.0522 73.2542 14.1992 73.5338 14.4634 73.6169L21.1392 75.7165C21.4035 75.7996 21.6831 75.6546 21.7662 75.3903C21.8493 75.1261 21.7042 74.8465 21.44 74.7634L14.7623 72.6618C14.6963 72.641 14.6297 72.6342 14.565 72.6404ZM187.615 80.8356C187.551 80.8235 187.484 80.8231 187.416 80.8376L180.57 82.2986C180.299 82.3563 180.128 82.6214 180.185 82.8923C180.243 83.1632 180.508 83.3349 180.779 83.2771L187.625 81.8162C187.896 81.7584 188.067 81.4933 188.01 81.2224C187.966 81.0192 187.806 80.8722 187.615 80.8356ZM12.205 81.5896C12.0139 81.6278 11.856 81.7766 11.8144 81.9802C11.7589 82.2516 11.9336 82.5146 12.205 82.57L19.0624 83.9704C19.3338 84.0259 19.5968 83.8531 19.6522 83.5817C19.7077 83.3104 19.535 83.0474 19.2636 82.9919L12.4042 81.5896C12.3363 81.5757 12.2687 81.5768 12.205 81.5896ZM188.935 90.0486L181.974 90.7868C181.699 90.8161 181.5 91.0622 181.529 91.3376C181.558 91.6131 181.804 91.8122 182.08 91.7829L189.04 91.0427C189.316 91.0134 189.513 90.7674 189.484 90.4919C189.455 90.2165 189.21 90.0193 188.935 90.0486ZM10.945 90.9353C10.6693 90.9088 10.4266 91.1088 10.4001 91.3845C10.3736 91.6602 10.5736 91.9029 10.8493 91.9294L17.8161 92.5993C18.0918 92.6259 18.3365 92.4259 18.363 92.1501C18.3895 91.8744 18.1875 91.6317 17.9118 91.6052L10.945 90.9353ZM182.155 107.4C181.879 107.374 181.635 107.574 181.608 107.85C181.582 108.125 181.784 108.368 182.059 108.394L189.026 109.064C189.302 109.091 189.544 108.891 189.571 108.615C189.598 108.339 189.398 108.097 189.122 108.07L182.155 107.4ZM17.895 108.217L10.9341 108.957C10.6587 108.986 10.4615 109.232 10.4907 109.508C10.52 109.783 10.7641 109.98 11.0396 109.951L18.0005 109.213C18.2759 109.183 18.475 108.937 18.4458 108.662C18.4165 108.387 18.1705 108.187 17.895 108.217ZM180.715 116.027C180.524 116.065 180.366 116.214 180.324 116.418C180.269 116.689 180.442 116.952 180.713 117.008L187.572 118.41C187.844 118.466 188.107 118.291 188.162 118.019C188.218 117.748 188.043 117.485 187.772 117.43L180.914 116.029C180.846 116.015 180.779 116.014 180.715 116.027ZM19.395 116.721C19.3312 116.708 19.2635 116.708 19.1958 116.723L12.3501 118.183C12.0792 118.241 11.9075 118.506 11.9653 118.777C12.0231 119.048 12.2882 119.22 12.5591 119.162L19.4048 117.701C19.6757 117.643 19.8473 117.378 19.7895 117.107C19.7462 116.904 19.5864 116.757 19.395 116.721ZM178.635 124.262C178.441 124.28 178.27 124.411 178.207 124.609C178.124 124.873 178.269 125.153 178.533 125.236L185.211 127.338C185.475 127.421 185.755 127.274 185.838 127.01C185.921 126.745 185.774 126.466 185.51 126.383L178.834 124.283C178.768 124.262 178.7 124.255 178.635 124.262ZM21.545 124.935C21.4803 124.929 21.4136 124.937 21.3477 124.959L14.6875 127.117C14.424 127.202 14.2818 127.484 14.3672 127.748C14.4526 128.011 14.7326 128.154 14.9961 128.068L21.6563 125.91C21.9198 125.825 22.062 125.545 21.9766 125.281C21.9126 125.083 21.7392 124.952 21.545 124.935ZM175.675 132.322C175.48 132.32 175.293 132.432 175.21 132.623C175.1 132.877 175.216 133.171 175.47 133.281L181.894 136.066C182.148 136.176 182.44 136.06 182.55 135.806C182.66 135.552 182.544 135.258 182.29 135.148L175.868 132.363C175.805 132.336 175.74 132.323 175.675 132.322ZM24.615 133.074C24.55 133.075 24.4849 133.089 24.4216 133.117L18.0271 135.967C17.7741 136.079 17.6605 136.374 17.7732 136.627C17.886 136.88 18.1804 136.991 18.4334 136.879L24.8279 134.031C25.0809 133.918 25.1945 133.624 25.0818 133.371C24.9973 133.181 24.8098 133.07 24.615 133.074ZM166.685 147.949C166.559 147.969 166.44 148.036 166.359 148.148C166.196 148.372 166.246 148.685 166.47 148.847L172.136 152.957C172.36 153.12 172.673 153.072 172.835 152.848C172.998 152.623 172.948 152.311 172.724 152.148L167.058 148.039C166.946 147.958 166.811 147.929 166.685 147.949ZM33.365 148.068C33.2387 148.048 33.1059 148.076 32.9939 148.158L27.3357 152.279C27.1118 152.442 27.0613 152.754 27.2244 152.978C27.3874 153.202 27.6997 153.251 27.9236 153.088L33.5818 148.967C33.8057 148.803 33.8542 148.493 33.6912 148.269C33.6097 148.157 33.4913 148.088 33.365 148.068ZM161.245 154.719C161.117 154.726 160.992 154.782 160.899 154.885C160.714 155.09 160.731 155.404 160.936 155.59L166.138 160.275C166.343 160.461 166.657 160.444 166.843 160.238C167.028 160.032 167.011 159.718 166.806 159.533L161.606 154.848C161.503 154.755 161.373 154.712 161.245 154.719ZM38.725 154.746C38.5974 154.739 38.4685 154.782 38.3656 154.875L33.1664 159.562C32.9607 159.748 32.9438 160.062 33.1293 160.267C33.3148 160.473 33.6306 160.49 33.8363 160.304L39.0355 155.617C39.2413 155.431 39.2562 155.116 39.0707 154.91C38.978 154.807 38.8526 154.752 38.725 154.746ZM155.275 160.742C155.147 160.735 155.016 160.776 154.914 160.869C154.708 161.055 154.693 161.37 154.878 161.576L159.568 166.771C159.754 166.977 160.069 166.994 160.275 166.808C160.481 166.623 160.496 166.307 160.31 166.101L155.621 160.906C155.528 160.803 155.403 160.749 155.275 160.742ZM44.695 160.765C44.5674 160.772 44.4421 160.827 44.3493 160.929L39.6598 166.129C39.4743 166.334 39.4912 166.648 39.6969 166.834C39.9026 167.019 40.2184 167.004 40.4039 166.799L45.0914 161.599C45.2769 161.394 45.26 161.08 45.0543 160.894C44.9515 160.802 44.8226 160.759 44.695 160.765ZM148.655 166.172C148.529 166.152 148.394 166.18 148.282 166.261C148.058 166.425 148.009 166.737 148.173 166.961L152.296 172.617C152.459 172.841 152.771 172.889 152.995 172.726C153.219 172.563 153.267 172.251 153.104 172.027L148.981 166.371C148.9 166.259 148.781 166.191 148.655 166.172ZM51.419 166.26C51.2928 166.28 51.1742 166.347 51.0928 166.459L46.9795 172.123C46.8168 172.347 46.8667 172.659 47.0909 172.822C47.315 172.985 47.6273 172.935 47.7901 172.711L51.9034 167.047C52.0662 166.823 52.0162 166.512 51.792 166.349C51.68 166.268 51.5452 166.24 51.419 166.26ZM133.603 174.832C133.538 174.833 133.471 174.847 133.408 174.875C133.155 174.988 133.043 175.284 133.156 175.537L136.009 181.928C136.122 182.181 136.416 182.294 136.669 182.181C136.922 182.069 137.036 181.772 136.923 181.519L134.07 175.129C133.985 174.939 133.798 174.828 133.603 174.832ZM66.513 174.904C66.3182 174.9 66.1324 175.011 66.0482 175.201L63.2064 181.599C63.094 181.853 63.2091 182.147 63.4622 182.26C63.7154 182.372 64.008 182.257 64.1204 182.004L66.9622 175.607C67.0746 175.354 66.9595 175.059 66.7064 174.947C66.6431 174.919 66.578 174.905 66.513 174.904ZM125.519 177.963C125.454 177.958 125.388 177.965 125.322 177.986C125.058 178.072 124.914 178.352 124.999 178.615L127.164 185.273C127.249 185.537 127.531 185.679 127.794 185.594C128.058 185.508 128.2 185.226 128.115 184.963L125.951 178.307C125.886 178.109 125.713 177.979 125.519 177.963ZM74.498 177.982C74.3038 177.999 74.1304 178.128 74.0664 178.326L71.9062 184.984C71.8207 185.248 71.9649 185.53 72.2284 185.615C72.4919 185.7 72.7739 185.556 72.8593 185.293L75.0175 178.635C75.1029 178.371 74.9587 178.089 74.6952 178.004C74.6293 177.982 74.5627 177.977 74.498 177.982ZM117.35 180.18C117.286 180.167 117.218 180.167 117.151 180.182C116.88 180.24 116.71 180.504 116.768 180.775L118.233 187.621C118.291 187.892 118.556 188.062 118.827 188.004C119.097 187.946 119.269 187.681 119.211 187.41L117.744 180.566C117.701 180.363 117.541 180.216 117.35 180.18ZM82.67 180.193C82.4786 180.23 82.3188 180.377 82.2755 180.58L80.8146 187.426C80.7568 187.697 80.9284 187.962 81.1993 188.019C81.4702 188.077 81.7333 187.906 81.7911 187.635L83.252 180.789C83.3098 180.518 83.1382 180.253 82.8673 180.195C82.7995 180.181 82.7338 180.181 82.67 180.193ZM108.705 181.535C108.43 181.565 108.232 181.808 108.262 182.084L109.006 189.045C109.035 189.32 109.281 189.518 109.557 189.488C109.832 189.459 110.031 189.213 110.002 188.937L109.256 181.978C109.226 181.703 108.98 181.506 108.705 181.535ZM91.426 181.553C91.1505 181.524 90.9041 181.722 90.8752 181.998L90.1467 188.959C90.1178 189.234 90.3165 189.481 90.592 189.51C90.8675 189.539 91.1119 189.34 91.1408 189.064L91.8713 182.101C91.9002 181.826 91.7015 181.582 91.426 181.553Z"
         fill="#BFCEED"
         style="opacity:0.35" />
    </g>
    <g
       id="MinuteHand">
      <path
         id="path3041"
         d="M70 94C68.4087 94 66.8826 94.6321 65.7574 95.7574C64.6321 96.8826 64 98.4087 64 100C64.0029 101.05 64.2815 102.082 64.808 102.991C65.3344 103.9 66.0903 104.654 67 105.18V169C67 170.662 68.338 172 70 172C71.662 172 73 170.662 73 169V105.18C73.9097 104.654 74.6656 103.9 75.192 102.991C75.7185 102.082 75.9971 101.05 76 100C76 98.4087 75.3679 96.8826 74.2426 95.7574C73.1174 94.6321 71.5913 94 70 94ZM70 98C70.5304 98 71.0391 98.2107 71.4142 98.5858C71.7893 98.9609 72 99.4696 72 100C72 100.53 71.7893 101.039 71.4142 101.414C71.0391 101.789 70.5304 102 70 102C69.4696 102 68.9609 101.789 68.5858 101.414C68.2107 101.039 68 100.53 68 100C68 99.4696 68.2107 98.9609 68.5858 98.5858C68.9609 98.2107 69.4696 98 70 98Z"
         fill="black" />
      <path
         id="rect415"
         opacity="0.95"
         d="M70 94C68.4087 94 66.8826 94.6321 65.7574 95.7574C64.6321 96.8826 64 98.4087 64 100C64.0029 101.05 64.2815 102.082 64.808 102.991C65.3344 103.9 66.0903 104.654 67 105.18V169C67 170.662 68.338 172 70 172C71.662 172 73 170.662 73 169V105.18C73.9097 104.654 74.6656 103.9 75.192 102.991C75.7185 102.082 75.9971 101.05 76 100C76 98.4087 75.3679 96.8826 74.2426 95.7574C73.1174 94.6321 71.5913 94 70 94ZM70 98C70.5304 98 71.0391 98.2107 71.4142 98.5858C71.7893 98.9609 72 99.4696 72 100C72 100.53 71.7893 101.039 71.4142 101.414C71.0391 101.789 70.5304 102 70 102C69.4696 102 68.9609 101.789 68.5858 101.414C68.2107 101.039 68 100.53 68 100C68 99.4696 68.2107 98.9609 68.5858 98.5858C68.9609 98.2107 69.4696 98 70 98Z"
         fill="url(#paint1_linear_0_1)" />
      <path
         id="rect472"
         opacity="0.4"
         d="M69 147C69 146.448 69.4477 146 70 146C70.5523 146 71 146.448 71 147V169C71 169.552 70.5523 170 70 170C69.4477 170 69 169.552 69 169V147Z"
         fill="white" />
    </g>
    <g
       id="SecondHand">
      <path
         id="path2204"
         opacity="0.85"
         d="M100 96C98.9391 96 97.9217 96.4214 97.1716 97.1716C96.4214 97.9217 96 98.9391 96 100C96.0017 100.885 96.2972 101.745 96.8401 102.445C97.383 103.144 98.1427 103.644 99 103.865V171C99 171.554 99.446 172 100 172C100.554 172 101 171.554 101 171V103.865C101.857 103.644 102.617 103.144 103.16 102.445C103.703 101.745 103.998 100.885 104 100C104 98.9391 103.579 97.9217 102.828 97.1716C102.078 96.4214 101.061 96 100 96ZM100 98C100.53 98 101.039 98.2107 101.414 98.5858C101.789 98.9609 102 99.4696 102 100C102 100.53 101.789 101.039 101.414 101.414C101.039 101.789 100.53 102 100 102C99.4696 102 98.9609 101.789 98.5858 101.414C98.2107 101.039 98 100.53 98 100C98 99.4696 98.2107 98.9609 98.5858 98.5858C98.9609 98.2107 99.4696 98 100 98Z"
         fill="#A7B4D0" />
    </g>
    <g
       id="HourHand">
      <path
         id="rect366"
         opacity="0.95"
         d="M126 94C124.409 94 122.883 94.6321 121.757 95.7574C120.632 96.8826 120 98.4087 120 100C120.001 100.843 120.18 101.676 120.524 102.446C120.869 103.215 121.372 103.903 122 104.465V150C122 152.216 123.784 154 126 154C128.216 154 130 152.216 130 150V104.465C130.628 103.903 131.131 103.215 131.476 102.446C131.82 101.676 131.999 100.843 132 100C132 98.4087 131.368 96.8826 130.243 95.7574C129.117 94.6321 127.591 94 126 94ZM126 98C126.53 98 127.039 98.2107 127.414 98.5858C127.789 98.9609 128 99.4696 128 100C128 100.53 127.789 101.039 127.414 101.414C127.039 101.789 126.53 102 126 102C125.47 102 124.961 101.789 124.586 101.414C124.211 101.039 124 100.53 124 100C124 99.4696 124.211 98.9609 124.586 98.5858C124.961 98.2107 125.47 98 126 98Z"
         fill="url(#paint2_linear_0_1)" />
      <path
         id="rect2749"
         opacity="0.4"
         d="M127 127C127 126.448 126.552 126 126 126C125.448 126 125 126.448 125 127V149C125 149.552 125.448 150 126 150C126.552 150 127 149.552 127 149V127Z"
         fill="white" />
    </g>
  </g>
  <defs
     id="defs57">
    <filter
       id="filter0_b_0_1"
       x="-90"
       y="-90"
       width="380"
       height="380"
       filterUnits="userSpaceOnUse"
       color-interpolation-filters="sRGB">
      <feFlood
         flood-opacity="0"
         result="BackgroundImageFix"
         id="feFlood22" />
      <feGaussianBlur
         in="BackgroundImageFix"
         stdDeviation="46"
         id="feGaussianBlur24" />
      <feComposite
         in2="SourceAlpha"
         operator="in"
         result="effect1_backgroundBlur_0_1"
         id="feComposite26" />
      <feBlend
         mode="normal"
         in="SourceGraphic"
         in2="effect1_backgroundBlur_0_1"
         result="shape"
         id="feBlend28" />
    </filter>
    <radialGradient
       id="paint0_radial_0_1"
       cx="0"
       cy="0"
       r="1"
       gradientUnits="userSpaceOnUse"
       gradientTransform="translate(99.9764 101.989) scale(103.996 103.996)">
      <stop
         stop-color="#232629"
         id="stop31" />
      <stop
         offset="0.9"
         stop-color="#232629"
         stop-opacity="0.52349"
         id="stop33" />
      <stop
         offset="0.96"
         stop-color="#232629"
         stop-opacity="0.10738"
         id="stop35" />
      <stop
         offset="1"
         stop-color="#232629"
         stop-opacity="0"
         id="stop37" />
    </radialGradient>
    <linearGradient
       id="paint1_linear_0_1"
       x1="64"
       y1="94"
       x2="76"
       y2="94"
       gradientUnits="userSpaceOnUse">
      <stop
         stop-color="#73E500"
         id="stop40" />
      <stop
         offset="0.520833"
         stop-color="#40D800"
         id="stop42" />
      <stop
         offset="1"
         stop-color="#11CC00"
         id="stop44" />
    </linearGradient>
    <linearGradient
       id="paint2_linear_0_1"
       x1="120"
       y1="94"
       x2="132"
       y2="94"
       gradientUnits="userSpaceOnUse">
      <stop
         stop-color="#73E500"
         id="stop47" />
      <stop
         offset="0.520833"
         stop-color="#40D800"
         id="stop49" />
      <stop
         offset="1"
         stop-color="#11CC00"
         id="stop51" />
    </linearGradient>
    <clipPath
       id="clip0_0_1">
      <rect
         width="200"
         height="200"
         fill="white"
         id="rect54" />
    </clipPath>
  </defs>
</svg>
