<?xml version="1.0" encoding="UTF-8" standalone="no"?>
<svg
   width="200"
   height="200"
   version="1.0"
   id="svg44"
   sodipodi:docname="clock.svg"
   inkscape:version="1.2.2 (b0a8486541, 2022-12-01)"
   xml:space="preserve"
   inkscape:export-filename="clock.svgz.png"
   inkscape:export-xdpi="96"
   inkscape:export-ydpi="96"
   xmlns:inkscape="http://www.inkscape.org/namespaces/inkscape"
   xmlns:sodipodi="http://sodipodi.sourceforge.net/DTD/sodipodi-0.dtd"
   xmlns:xlink="http://www.w3.org/1999/xlink"
   xmlns="http://www.w3.org/2000/svg"
   xmlns:svg="http://www.w3.org/2000/svg"><sodipodi:namedview
     id="namedview30"
     pagecolor="#ffffff"
     bordercolor="#666666"
     borderopacity="1.0"
     inkscape:pageshadow="2"
     inkscape:pageopacity="0.0"
     inkscape:pagecheckerboard="0"
     showgrid="true"
     inkscape:zoom="2.6571951"
     inkscape:cx="37.821837"
     inkscape:cy="93.331499"
     inkscape:window-width="1920"
     inkscape:window-height="1032"
     inkscape:window-x="0"
     inkscape:window-y="24"
     inkscape:window-maximized="1"
     inkscape:current-layer="ClockFace"
     inkscape:showpageshadow="2"
     inkscape:deskcolor="#d1d1d1"><inkscape:grid
       type="xygrid"
       id="grid312" /></sodipodi:namedview><style
     type="text/css"
     id="current-color-scheme">
        .ColorScheme-Text {
            color:#242424;
            stop-color:#242424;
        }
        .ColorScheme-Background {
            color:#efefef;
            stop-color:#efefef;
        }
        .ColorScheme-Highlight {
            color:#3476CF;
            stop-color:#3476CF;
        }
        .ColorScheme-ButtonText {
            color:#242424;
            stop-color:#242424;
        }
        .ColorScheme-ButtonBackground {
            color:#efefef;
            stop-color:#efefef;
        }
        .ColorScheme-ButtonHover {
            color:#9abbe7;
            stop-color:#9abbe7;
        }
        .ColorScheme-ButtonFocus{
            color:#3476CF;
            stop-color:#3476CF;
        }
  </style><defs
     id="defs12"><radialGradient
       id="radialGradient4671"
       cx="1255.9"
       cy="382.73001"
       r="96.606003"
       gradientTransform="matrix(1.0765,0,0,1.0765,-1252,-310.02)"
       gradientUnits="userSpaceOnUse"><stop
         stop-color="#232629"
         offset="0"
         id="stop3" /><stop
         stop-color="#232629"
         stop-opacity=".52349"
         offset=".9"
         id="stop5" /><stop
         stop-color="#232629"
         stop-opacity=".10738"
         offset=".96"
         id="stop7" /><stop
         stop-color="#232629"
         stop-opacity="0"
         offset="1"
         id="stop9" /></radialGradient><linearGradient
       inkscape:collect="always"
       id="linearGradient3833"><stop
         style="stop-color:#11cc00;stop-opacity:1;"
         offset="0"
         id="stop3829"
         class="ColorScheme-ButtonHover" /><stop
         style="stop-color:#73e500;stop-opacity:1;"
         offset="1"
         id="stop3831"
         class="ColorScheme-Highlight" /></linearGradient><linearGradient
       inkscape:collect="always"
       xlink:href="#linearGradient3833"
       id="linearGradient5240"
       x1="70"
       y1="100"
       x2="70"
       y2="170"
       gradientUnits="userSpaceOnUse" /><linearGradient
       inkscape:collect="always"
       xlink:href="#linearGradient3833"
       id="linearGradient5387"
       x1="126"
       y1="100"
       x2="126"
       y2="150"
       gradientUnits="userSpaceOnUse" /></defs><g
     id="ClockFace"><path
       d="m 99.572,-2 a 104,104 0 0 0 -103.57,104 104,104 0 0 0 104,104 104,104 0 0 0 104,-104 104,104 0 0 0 -104,-104 104,104 0 0 0 -0.42773,0 z m 0.42773,4 a 98,98 0 0 1 98,98 98,98 0 0 1 -98,98 98,98 0 0 1 -98,-98 98,98 0 0 1 98,-98 z"
       fill="url(#radialGradient4671)"
       opacity="0.5"
       id="path14"
       style="fill:url(#radialGradient4671)" /><circle
       cx="100"
       cy="100"
       r="98"
       fill="#1a2332"
       id="circle16"
       class="ColorScheme-Background"
       style="opacity:0.95;fill-opacity:1;" /><path
       d="m 100,10 c -0.554,0 -1,0.446 -1,1 v 14 c 0,0.554 0.446,1 1,1 0.554,0 1,-0.446 1,-1 V 11 c 0,-0.554 -0.446,-1 -1,-1 z M 11,99 c -0.554,0 -1,0.446 -1,1 0,0.554 0.446,1 1,1 h 14 c 0.554,0 1,-0.446 1,-1 0,-0.554 -0.446,-1 -1,-1 z m 164,0 c -0.554,0 -1,0.446 -1,1 0,0.554 0.446,1 1,1 h 14 c 0.554,0 1,-0.446 1,-1 0,-0.554 -0.446,-1 -1,-1 z m -75,75 c -0.554,0 -1,0.446 -1,1 v 14 c 0,0.554 0.446,1 1,1 0.554,0 1,-0.446 1,-1 v -14 c 0,-0.554 -0.446,-1 -1,-1 z"
       opacity="0.65"
       stroke-linecap="square"
       stroke-width="2.6252"
       id="path18"
       fill="#bfceed"
       class="ColorScheme-Text"
       style="opacity:0.75;fill-opacity:1" /><path
       d="m 55.377,21.93 c -0.12891,0.01615 -0.25701,0.05966 -0.37695,0.12891 -0.47978,0.277 -0.64223,0.88546 -0.36523,1.3652 l 5,8.6602 c 0.277,0.47978 0.88546,0.64224 1.3652,0.36524 0.47974,-0.277 0.64223,-0.88546 0.36523,-1.3652 l -5,-8.6602 c -0.20775,-0.35983 -0.60154,-0.5426 -0.98828,-0.49414 z m 89.246,0 c -0.38674,-0.04846 -0.78053,0.13431 -0.98828,0.49414 l -5,8.6602 c -0.277,0.47978 -0.11455,1.0882 0.36523,1.3652 0.47978,0.277 1.0882,0.11454 1.3652,-0.36524 l 5,-8.6602 c 0.277,-0.47978 0.11455,-1.0882 -0.36523,-1.3652 -0.11994,-0.06925 -0.24804,-0.11275 -0.37695,-0.12891 z M 23.043,54.508 c -0.38674,-0.04846 -0.78053,0.13235 -0.98828,0.49219 -0.277,0.47978 -0.11454,1.0882 0.36523,1.3652 l 8.6602,5 c 0.47978,0.277 1.0882,0.11454 1.3652,-0.36523 0.277,-0.47977 0.11454,-1.0882 -0.36524,-1.3652 l -8.6602,-5 c -0.11994,-0.06925 -0.24804,-0.1108 -0.37695,-0.12695 z m 153.91,0 c -0.12891,0.01615 -0.257,0.0577 -0.37695,0.12695 l -8.6602,5 c -0.47978,0.277 -0.64224,0.88546 -0.36524,1.3652 0.277,0.47974 0.88546,0.64223 1.3652,0.36523 l 8.6602,-5 c 0.47978,-0.277 0.64224,-0.88546 0.36524,-1.3652 -0.20775,-0.35983 -0.60154,-0.54064 -0.98829,-0.49219 z m -145.49,84 c -0.12891,0.0161 -0.25701,0.0577 -0.37695,0.12696 l -8.6602,5 c -0.47978,0.277 -0.64223,0.88545 -0.36523,1.3652 0.277,0.47975 0.88546,0.64223 1.3652,0.36523 l 8.6602,-5 c 0.47978,-0.277 0.64224,-0.88545 0.36524,-1.3652 -0.20775,-0.35983 -0.60154,-0.54064 -0.98828,-0.49219 z m 137.08,0 c -0.38674,-0.0485 -0.78053,0.13236 -0.98828,0.49219 -0.277,0.47978 -0.11454,1.0882 0.36524,1.3652 l 8.6602,5 c 0.47978,0.277 1.0882,0.11455 1.3652,-0.36523 0.277,-0.47978 0.11454,-1.0882 -0.36524,-1.3652 l -8.6602,-5 c -0.11995,-0.0693 -0.24804,-0.11081 -0.37696,-0.12696 z m -107.92,28.914 c -0.38674,-0.0485 -0.78053,0.1343 -0.98828,0.49414 l -5,8.6602 c -0.277,0.47978 -0.11454,1.0882 0.36523,1.3652 0.47977,0.277 1.0882,0.11454 1.3652,-0.36524 l 5,-8.6602 c 0.277,-0.47978 0.11454,-1.0882 -0.36523,-1.3652 -0.11994,-0.0693 -0.24804,-0.11275 -0.37695,-0.1289 z m 78.754,0 c -0.12891,0.0162 -0.25701,0.0597 -0.37695,0.1289 -0.47978,0.277 -0.64223,0.88546 -0.36523,1.3652 l 5,8.6602 c 0.277,0.47978 0.88545,0.64224 1.3652,0.36524 0.47975,-0.277 0.64223,-0.88546 0.36523,-1.3652 l -5,-8.6602 c -0.20775,-0.35984 -0.60154,-0.5426 -0.98828,-0.49414 z"
       opacity="0.35"
       stroke-linecap="square"
       stroke-width="2.2735"
       id="path20"
       class="ColorScheme-Text"
       fill="#bfceed"
       style="opacity:0.55;fill-opacity:1" /><path
       d="m 109.39,10.49 c -0.27549,-0.02889 -0.52189,0.16982 -0.55078,0.44531 l -0.73047,6.9629 c -0.0289,0.27549 0.16983,0.51993 0.44531,0.54883 0.27549,0.02889 0.52189,-0.16982 0.55079,-0.44531 l 0.72851,-6.9609 c 0.0289,-0.27549 -0.16787,-0.52189 -0.44336,-0.55078 z m -18.967,0.02149 c -0.27543,0.02948 -0.47479,0.27535 -0.44531,0.55078 l 0.74609,6.959 c 0.02948,0.27543 0.27536,0.47284 0.55078,0.44336 0.27543,-0.02948 0.47284,-0.2734 0.44336,-0.54883 L 90.97378,10.9549 C 90.9443,10.67947 90.69843,10.48206 90.423,10.51154 Z m 28.16,1.4668 c -0.19142,0.03656 -0.35118,0.18354 -0.39453,0.38672 l -1.4609,6.8457 c -0.0578,0.2709 0.11387,0.53595 0.38477,0.59375 0.2709,0.0578 0.53399,-0.11386 0.59179,-0.38477 l 1.4609,-6.8457 c 0.0578,-0.2709 -0.11386,-0.53595 -0.38476,-0.59375 -0.0677,-0.01445 -0.13346,-0.01414 -0.19727,-0.002 z m -37.23,0.01367 c -0.06382,-0.01214 -0.1315,-0.0106 -0.19922,0.0039 -0.27086,0.05801 -0.44278,0.32289 -0.38477,0.59375 l 1.4668,6.8438 c 0.05801,0.27086 0.32289,0.44278 0.59375,0.38476 0.27086,-0.05801 0.44082,-0.32289 0.38281,-0.59375 l -1.4648,-6.8457 C 81.70406,12.17558 81.54449,12.02842 81.35304,11.992 Z m 46.201,2.3691 c -0.19417,0.01664 -0.36953,0.14808 -0.43359,0.3457 l -2.1582,6.6582 c -0.0854,0.2635 0.0588,0.54545 0.32226,0.63086 0.26351,0.08541 0.5435,-0.05876 0.62891,-0.32227 l 2.1602,-6.6582 c 0.0854,-0.2635 -0.0588,-0.54545 -0.32227,-0.63086 -0.0659,-0.02135 -0.13254,-0.02899 -0.19727,-0.02344 z m -55.172,0.02148 c -0.06473,-0.0055 -0.13141,0.002 -0.19726,0.02344 -0.26344,0.08561 -0.40592,0.36742 -0.32031,0.63086 l 2.1641,6.6562 c 0.08561,0.26344 0.36547,0.40592 0.62891,0.32031 0.26344,-0.08561 0.40788,-0.36547 0.32227,-0.62891 l -2.1641,-6.6582 C 72.7514,14.52866 72.5762,14.39899 72.38202,14.38249 Z m 63.941,3.3145 c -0.19485,-0.0037 -0.38056,0.10895 -0.46485,0.29883 l -2.8418,6.3965 c -0.11238,0.25318 0.003,0.54777 0.25586,0.66016 0.25318,0.11239 0.54582,-7.31e-4 0.65821,-0.25391 l 2.8418,-6.3984 c 0.11239,-0.25318 -0.003,-0.54777 -0.25586,-0.66016 -0.0633,-0.0281 -0.1284,-0.04175 -0.19335,-0.04297 z m -72.82,0.07813 c -0.06495,0.0014 -0.13013,0.01474 -0.19336,0.04297 -0.25294,0.11293 -0.36684,0.40918 -0.25391,0.66211 l 2.8535,6.3906 c 0.11293,0.25293 0.40918,0.36684 0.66211,0.25391 0.25294,-0.11293 0.36488,-0.40918 0.25195,-0.66211 l -2.8535,-6.3906 c -0.0847,-0.1897 -0.27196,-0.30096 -0.4668,-0.29688 z m 89.012,9.3125 c -0.12623,0.02002 -0.24478,0.08911 -0.32617,0.20117 l -4.1133,5.6641 c -0.16277,0.22413 -0.1128,0.53449 0.11133,0.69727 0.22413,0.16278 0.53644,0.11475 0.69922,-0.10938 l 4.1133,-5.6641 c 0.16277,-0.22413 0.1128,-0.53645 -0.11133,-0.69922 -0.11207,-0.08139 -0.24682,-0.10986 -0.37305,-0.08984 z m -105.16,0.0957 c -0.12627,-0.01979 -0.25918,0.0083 -0.37109,0.08984 -0.22384,0.16318 -0.27255,0.47538 -0.10938,0.69922 l 4.123,5.6562 c 0.16318,0.22384 0.47538,0.27255 0.69922,0.10938 0.22384,-0.16318 0.27255,-0.47538 0.10938,-0.69922 l -4.123,-5.6562 c -0.08159,-0.11192 -0.20186,-0.17943 -0.32812,-0.19922 z m 112.56,5.8535 c -0.12764,0.0066 -0.25294,0.06121 -0.3457,0.16406 l -4.6875,5.1992 c -0.18551,0.2057 -0.16859,0.51956 0.0371,0.70508 0.2057,0.18551 0.51956,0.17055 0.70508,-0.03516 l 4.6894,-5.1992 c 0.18551,-0.2057 0.16859,-0.51956 -0.0371,-0.70508 -0.10285,-0.09276 -0.23369,-0.13549 -0.36133,-0.12891 z m -119.86,0.02539 c -0.12764,-0.0065 -0.25852,0.0361 -0.36133,0.12891 -0.20562,0.1856 -0.22076,0.50141 -0.03516,0.70703 l 4.6895,5.1953 c 0.1856,0.20562 0.50141,0.22271 0.70703,0.03711 0.20562,-0.1856 0.22076,-0.50141 0.03516,-0.70703 l -4.6895,-5.1953 C 40.3079,33.12547 40.18264,33.0688 40.055,33.06226 Z m 126.44,6.5039 c -0.12764,-0.0066 -0.25846,0.03616 -0.36132,0.12891 l -5.1992,4.6875 c -0.20573,0.18549 -0.22065,0.50131 -0.0352,0.70703 0.18549,0.20572 0.49936,0.22065 0.70508,0.03516 l 5.1992,-4.6875 c 0.20572,-0.18549 0.2226,-0.49936 0.0371,-0.70508 -0.0927,-0.10286 -0.21807,-0.15942 -0.34571,-0.16602 z m -133.02,0.0293 c -0.12764,0.0067 -0.253,0.06311 -0.3457,0.16602 -0.1854,0.2058 -0.16869,0.51968 0.03711,0.70508 l 5.1992,4.6855 c 0.2058,0.1854 0.52163,0.1687 0.70703,-0.03711 0.1854,-0.2058 0.1687,-0.51968 -0.03711,-0.70508 l -5.2012,-4.6855 c -0.1029,-0.0927 -0.23174,-0.13556 -0.35938,-0.12891 z m 138.95,7.2266 c -0.12626,-0.01986 -0.26109,0.0083 -0.37305,0.08984 l -5.6582,4.1211 c -0.22393,0.16306 -0.27243,0.47334 -0.10938,0.69727 0.16306,0.22392 0.47334,0.27438 0.69727,0.11133 l 5.6582,-4.1211 c 0.22393,-0.16306 0.27438,-0.47529 0.11133,-0.69922 -0.0815,-0.11196 -0.19992,-0.17936 -0.32617,-0.19922 z m -144.96,0.13086 c -0.12622,0.02009 -0.24485,0.08711 -0.32617,0.19922 -0.16265,0.22422 -0.11289,0.53657 0.11133,0.69922 l 5.666,4.1094 c 0.22422,0.16265 0.53657,0.11484 0.69922,-0.10938 0.16265,-0.22422 0.11289,-0.53657 -0.11133,-0.69922 l -5.666,-4.1094 C 27.72594,46.96143 27.59123,46.93283 27.465,46.95292 Z m 154.27,16.123 c -0.065,0.0013 -0.1301,0.01674 -0.19336,0.04492 l -6.3945,2.8477 c -0.25302,0.11273 -0.36663,0.40713 -0.25391,0.66016 0.11273,0.25302 0.40714,0.36663 0.66016,0.25391 l 6.3945,-2.8496 c 0.25303,-0.11273 0.36663,-0.40713 0.25391,-0.66016 -0.0845,-0.18977 -0.27196,-0.3008 -0.4668,-0.29688 z m -163.85,0.81641 c -0.19487,-0.002 -0.38024,0.11018 -0.46289,0.30078 -0.1102,0.25414 0.0056,0.548 0.25976,0.6582 l 6.4219,2.7852 c 0.25414,0.1102 0.548,-0.0056 0.6582,-0.25977 0.1102,-0.25414 -0.0056,-0.548 -0.25976,-0.6582 l -6.4238,-2.7852 c -0.06353,-0.02755 -0.1284,-0.04035 -0.19336,-0.04102 z m 167.29,8.0156 c -0.0647,-0.0055 -0.13139,0.0021 -0.19726,0.02344 l -6.6602,2.1582 c -0.2635,0.0854 -0.40571,0.3654 -0.32031,0.62891 0.0854,0.26351 0.3654,0.40766 0.62891,0.32227 l 6.6602,-2.1582 c 0.26351,-0.0854 0.40571,-0.36735 0.32031,-0.63086 -0.0641,-0.19763 -0.23747,-0.3271 -0.43164,-0.34375 z m -170.61,0.73242 c -0.19402,0.01832 -0.36734,0.15144 -0.42969,0.34961 -0.08313,0.26423 0.06389,0.54382 0.32812,0.62695 l 6.6758,2.0996 c 0.26423,0.08313 0.54382,-0.06194 0.62695,-0.32617 0.08313,-0.26423 -0.06194,-0.54382 -0.32617,-0.62695 l -6.6777,-2.1016 C 14.69625,72.64101 14.62972,72.6342 14.56504,72.64031 Z m 173.05,8.1953 c -0.0638,-0.01219 -0.13149,-0.0125 -0.19922,0.002 l -6.8457,1.4609 c -0.27091,0.05779 -0.44256,0.32285 -0.38477,0.59375 0.0578,0.2709 0.32285,0.44256 0.59375,0.38477 l 6.8457,-1.4609 c 0.2709,-0.05779 0.44255,-0.32285 0.38476,-0.59375 -0.0433,-0.20318 -0.20311,-0.35015 -0.39453,-0.38672 z m -175.41,0.75391 c -0.1911,0.03821 -0.34903,0.18708 -0.39062,0.39062 -0.05546,0.27139 0.11923,0.53438 0.39062,0.58984 l 6.8574,1.4004 c 0.27139,0.05546 0.53438,-0.11728 0.58984,-0.38867 0.05546,-0.27139 -0.11728,-0.53438 -0.38867,-0.58984 l -6.8594,-1.4023 c -0.06785,-0.01387 -0.13552,-0.01274 -0.19922,0 z m 176.73,8.459 -6.9609,0.73828 c -0.27545,0.02926 -0.47457,0.27533 -0.44531,0.55078 0.0293,0.27545 0.27533,0.47457 0.55078,0.44531 l 6.9609,-0.74023 c 0.27545,-0.02926 0.47262,-0.27533 0.44336,-0.55078 -0.0293,-0.27545 -0.27337,-0.47262 -0.54882,-0.44336 z m -177.99,0.88672 c -0.27573,-0.02652 -0.5184,0.17349 -0.54492,0.44922 -0.02652,0.27573 0.17349,0.5184 0.44922,0.54492 l 6.9668,0.66992 c 0.27573,0.02652 0.52036,-0.17349 0.54688,-0.44922 0.02652,-0.27573 -0.17544,-0.51841 -0.45117,-0.54492 l -6.9668,-0.66992 z m 171.21,16.465 c -0.27573,-0.0265 -0.52036,0.17349 -0.54687,0.44922 -0.0265,0.27573 0.17544,0.5184 0.45117,0.54492 l 6.9668,0.66992 c 0.27572,0.0265 0.5184,-0.17349 0.54492,-0.44922 0.0265,-0.27572 -0.17349,-0.5184 -0.44922,-0.54492 z m -164.26,0.81641 -6.9609,0.74023 c -0.27545,0.0293 -0.47262,0.27533 -0.44336,0.55078 0.02926,0.27545 0.27338,0.47262 0.54883,0.44336 l 6.9609,-0.73828 c 0.27545,-0.0293 0.47457,-0.27533 0.44531,-0.55078 -0.02926,-0.27545 -0.27533,-0.47457 -0.55078,-0.44531 z m 162.82,7.8105 c -0.1911,0.0382 -0.34903,0.18709 -0.39063,0.39063 -0.0555,0.27139 0.11728,0.53438 0.38868,0.58984 l 6.8594,1.4024 c 0.27139,0.0555 0.53438,-0.11924 0.58984,-0.39063 0.0555,-0.27139 -0.11923,-0.53438 -0.39062,-0.58984 l -6.8574,-1.4004 c -0.0678,-0.0139 -0.13552,-0.0147 -0.19922,-0.002 z m -161.32,0.69336 c -0.06381,-0.0122 -0.13149,-0.0125 -0.19922,0.002 l -6.8457,1.4609 c -0.2709,0.0578 -0.44256,0.32285 -0.38476,0.59375 0.05779,0.27091 0.32285,0.44256 0.59375,0.38477 l 6.8457,-1.4609 c 0.2709,-0.0578 0.44256,-0.32284 0.38477,-0.59375 -0.04334,-0.20318 -0.20311,-0.35015 -0.39453,-0.38672 z m 159.24,7.541 c -0.19402,0.0183 -0.36539,0.14948 -0.42774,0.34766 -0.0831,0.26423 0.0619,0.54382 0.32618,0.62695 l 6.6777,2.1016 c 0.26423,0.0831 0.54382,-0.0639 0.62695,-0.32812 0.0831,-0.26424 -0.0639,-0.54383 -0.32812,-0.62696 l -6.6758,-2.0996 c -0.0661,-0.0208 -0.13455,-0.0276 -0.19922,-0.0215 z m -157.09,0.67383 c -0.06472,-0.006 -0.13139,0.002 -0.19727,0.0234 l -6.6602,2.1582 c -0.26351,0.0854 -0.40571,0.36735 -0.32031,0.63086 0.0854,0.2635 0.3654,0.40571 0.62891,0.32031 l 6.6602,-2.1582 c 0.26351,-0.0854 0.40571,-0.3654 0.32031,-0.62891 -0.06405,-0.19763 -0.23747,-0.32905 -0.43164,-0.3457 z m 154.13,7.3867 c -0.19487,-0.002 -0.38219,0.11018 -0.46484,0.30078 -0.1102,0.25413 0.006,0.548 0.25976,0.6582 l 6.4238,2.7852 c 0.25414,0.1102 0.54605,-0.006 0.65625,-0.25977 0.1102,-0.25413 -0.006,-0.548 -0.25976,-0.6582 l -6.4219,-2.7852 c -0.0635,-0.0275 -0.1284,-0.0403 -0.19336,-0.041 z m -151.06,0.75195 c -0.06495,0.001 -0.1301,0.0148 -0.19336,0.043 l -6.3945,2.8496 c -0.25302,0.11272 -0.36663,0.40713 -0.25391,0.66015 0.11273,0.25303 0.40713,0.36468 0.66016,0.25196 l 6.3945,-2.8477 c 0.25302,-0.11273 0.36663,-0.40713 0.25391,-0.66016 -0.08455,-0.18976 -0.27195,-0.3008 -0.4668,-0.29687 z m 142.07,14.875 c -0.12622,0.0201 -0.24484,0.0871 -0.32617,0.19922 -0.16265,0.22422 -0.11289,0.53657 0.11133,0.69922 l 5.666,4.1094 c 0.22422,0.16265 0.53657,0.11484 0.69922,-0.10937 0.16265,-0.22422 0.11289,-0.53657 -0.11133,-0.69922 l -5.666,-4.1094 c -0.11211,-0.0813 -0.24683,-0.10993 -0.37305,-0.0898 z m -133.32,0.11914 c -0.12626,-0.0199 -0.25913,0.008 -0.37109,0.0898 l -5.6582,4.1211 c -0.22392,0.16305 -0.27438,0.47529 -0.11133,0.69922 0.16305,0.22392 0.47529,0.27243 0.69922,0.10937 l 5.6582,-4.1211 c 0.22392,-0.16306 0.27243,-0.47334 0.10938,-0.69727 -0.08153,-0.11196 -0.19992,-0.18131 -0.32617,-0.20117 z m 127.88,6.6504 c -0.12763,0.007 -0.253,0.0631 -0.3457,0.16602 -0.1854,0.2058 -0.1687,0.51967 0.0371,0.70507 l 5.2012,4.6856 c 0.2058,0.1854 0.51968,0.1687 0.70508,-0.0371 0.1854,-0.2058 0.16869,-0.51968 -0.0371,-0.70508 l -5.1992,-4.6855 c -0.1029,-0.0927 -0.23369,-0.13557 -0.36133,-0.12891 z m -122.52,0.0273 c -0.12764,-0.007 -0.25651,0.0362 -0.35938,0.12891 l -5.1992,4.6875 c -0.20572,0.18549 -0.2226,0.49936 -0.03711,0.70508 0.185491,0.20572 0.50131,0.2226 0.70703,0.0371 l 5.1992,-4.6875 c 0.20572,-0.18549 0.22065,-0.50131 0.03516,-0.70703 -0.09275,-0.10287 -0.21806,-0.15747 -0.3457,-0.16407 z m 116.55,5.9961 c -0.12765,-0.007 -0.25852,0.0342 -0.36133,0.12695 -0.20562,0.1856 -0.22076,0.50141 -0.0352,0.70703 l 4.6895,5.1953 c 0.1856,0.20563 0.50141,0.22272 0.70703,0.0371 0.20562,-0.1856 0.22076,-0.50141 0.0352,-0.70703 l -4.6894,-5.1953 c -0.0928,-0.10281 -0.21806,-0.15753 -0.3457,-0.16406 z m -110.58,0.0234 c -0.12764,0.007 -0.25295,0.0612 -0.3457,0.16407 l -4.6895,5.1992 c -0.18551,0.2057 -0.16859,0.51956 0.03711,0.70507 0.2057,0.18552 0.52152,0.17055 0.70703,-0.0351 l 4.6875,-5.1992 c 0.18551,-0.2057 0.16859,-0.51957 -0.03711,-0.70508 -0.10285,-0.0928 -0.23174,-0.13549 -0.35938,-0.12891 z m 103.96,5.4063 c -0.12626,-0.0198 -0.26112,0.008 -0.37304,0.0898 -0.22384,0.16318 -0.27255,0.47538 -0.10938,0.69922 l 4.123,5.6562 c 0.16318,0.22383 0.47538,0.27255 0.69922,0.10937 0.22383,-0.16317 0.27255,-0.47538 0.10937,-0.69922 l -4.123,-5.6562 c -0.0816,-0.11191 -0.19991,-0.17942 -0.32618,-0.19921 z m -97.236,0.0879 c -0.12623,0.02 -0.24478,0.0872 -0.32617,0.19921 l -4.1133,5.6641 c -0.16277,0.22413 -0.1128,0.53644 0.11133,0.69922 0.22413,0.16277 0.53645,0.1128 0.69922,-0.11133 l 4.1133,-5.6641 c 0.16277,-0.22413 0.1128,-0.5345 -0.11133,-0.69727 -0.11206,-0.0814 -0.24682,-0.10986 -0.37305,-0.0898 z m 82.184,8.5723 c -0.065,0.001 -0.13208,0.0147 -0.19531,0.043 -0.25294,0.11293 -0.36489,0.40917 -0.25196,0.66211 l 2.8535,6.3906 c 0.11293,0.25294 0.40722,0.36684 0.66016,0.25391 0.25293,-0.11293 0.36683,-0.40917 0.2539,-0.66211 l -2.8535,-6.3906 c -0.0847,-0.1897 -0.27196,-0.30096 -0.4668,-0.29688 z m -67.09,0.0723 c -0.19485,-0.004 -0.38055,0.10699 -0.46484,0.29687 l -2.8418,6.3984 c -0.11239,0.25317 0.0027,0.54777 0.25586,0.66016 0.253176,0.11239 0.54581,-0.003 0.6582,-0.25586 l 2.8418,-6.3965 c 0.11239,-0.25317 -0.0027,-0.54776 -0.25586,-0.66015 -0.06329,-0.0281 -0.12841,-0.0418 -0.19336,-0.043 z m 59.006,3.0586 c -0.0647,-0.005 -0.13141,0.002 -0.19727,0.0234 -0.26344,0.0856 -0.40788,0.36547 -0.32227,0.6289 l 2.1641,6.6582 c 0.0856,0.26344 0.36742,0.40592 0.63086,0.32031 0.26343,-0.0856 0.40592,-0.36742 0.32031,-0.63086 l -2.1641,-6.6562 c -0.0642,-0.19758 -0.23746,-0.32725 -0.43164,-0.34375 z m -51.021,0.0195 c -0.19417,0.0166 -0.36758,0.14612 -0.43164,0.34375 l -2.1602,6.6582 c -0.08541,0.2635 0.05876,0.54545 0.32227,0.63085 0.2635,0.0854 0.54545,-0.0588 0.63086,-0.32226 l 2.1582,-6.6582 c 0.08541,-0.26351 -0.05876,-0.54546 -0.32226,-0.63086 -0.06588,-0.0214 -0.13254,-0.027 -0.19727,-0.0215 z m 42.852,2.1973 c -0.0638,-0.0121 -0.1315,-0.0126 -0.19921,0.002 -0.27086,0.058 -0.44083,0.32289 -0.38282,0.59375 l 1.4648,6.8457 c 0.058,0.27086 0.32289,0.44083 0.59375,0.38282 0.27085,-0.058 0.44277,-0.3229 0.38476,-0.59375 l -1.4668,-6.8438 c -0.0435,-0.20315 -0.20308,-0.35031 -0.39453,-0.38672 z m -34.68,0.0137 c -0.19142,0.0366 -0.35118,0.18354 -0.39453,0.38672 l -1.4609,6.8457 c -0.0578,0.2709 0.11386,0.53595 0.38476,0.59375 0.2709,0.0578 0.534,-0.11386 0.5918,-0.38476 l 1.4609,-6.8457 c 0.0578,-0.2709 -0.11386,-0.53595 -0.38477,-0.59375 -0.06773,-0.0144 -0.13346,-0.0141 -0.19727,-0.002 z m 26.035,1.3418 c -0.27542,0.0295 -0.47284,0.2734 -0.44336,0.54882 l 0.74414,6.9609 c 0.0295,0.27543 0.27536,0.47284 0.55078,0.44336 0.27543,-0.0295 0.4748,-0.27535 0.44532,-0.55078 l -0.7461,-6.959 c -0.0295,-0.27543 -0.27535,-0.47284 -0.55078,-0.44336 z m -17.279,0.0176 c -0.27549,-0.0289 -0.52189,0.16983 -0.55078,0.44532 l -0.72852,6.9609 c -0.02889,0.27549 0.16982,0.52189 0.44531,0.55079 0.27549,0.0289 0.51994,-0.16983 0.54883,-0.44532 l 0.73047,-6.9629 c 0.02889,-0.27549 -0.16982,-0.51993 -0.44531,-0.54883 z"
       opacity="0.15"
       id="path22"
       class="ColorScheme-Text"
       fill="#bfceed"
       style="opacity:0.40;fill-opacity:1" /></g><g
     id="MinuteHand"><rect
       x="64"
       y="94"
       width="12"
       height="85"
       rx="0"
       ry="0"
       fill="none"
       stroke-width="2.7521"
       id="rect37" /><path
       id="path3041"
       class="ColorScheme-Background"
       d="m 70,94 a 6,6 0 0 0 -6,6 6,6 0 0 0 3,5.17969 V 169 c 0,1.662 1.338008,3 3,3 1.661992,0 3,-1.338 3,-3 V 105.17969 A 6,6 0 0 0 76,100 6,6 0 0 0 70,94 Z m 0,4 a 2,2 0 0 1 2,2 2,2 0 0 1 -2,2 2,2 0 0 1 -2,-2 2,2 0 0 1 2,-2 z"
       fill="currentColor" /><path
       id="rect415"
       fill="url(#linearGradient3833)"
       d="m 70,94 a 6,6 0 0 0 -6,6 6,6 0 0 0 3,5.17969 V 169 c 0,1.662 1.338008,3 3,3 1.661992,0 3,-1.338 3,-3 V 105.17969 A 6,6 0 0 0 76,100 6,6 0 0 0 70,94 Z m 0,4 a 2,2 0 0 1 2,2 2,2 0 0 1 -2,2 2,2 0 0 1 -2,-2 2,2 0 0 1 2,-2 z"
       style="opacity:0.95;fill-opacity:1" /><rect
       id="rect472"
       fill="#ffffff"
       width="2"
       height="24"
       x="-71"
       y="146"
       rx="1"
       ry="1"
       transform="scale(-1,1)"
       style="opacity:0.40;" /></g><g
     id="SecondHand"
     transform="translate(-1)"><rect
       x="97"
       y="96"
       width="8"
       height="81"
       rx="0"
       ry="0"
       fill="none"
       stroke-width="3.6"
       id="rect32"
       style="stroke-linecap:square" /><path
       id="path2204"
       d="m 101,96 a 4,4 0 0 0 -4,4 4,4 0 0 0 3,3.86523 V 171 c 0,0.554 0.446,1 1,1 0.554,0 1,-0.446 1,-1 V 103.86523 A 4,4 0 0 0 105,100 4,4 0 0 0 101,96 Z m 0,2 a 2,2 0 0 1 2,2 2,2 0 0 1 -2,2 2,2 0 0 1 -2,-2 2,2 0 0 1 2,-2 z"
       fill="#a7b4d0"
       class="ColorScheme-Highlight"
       style="opacity:0.95;fill-opacity:1" /></g><g
     id="HourHand"><rect
       x="117"
       y="91"
       width="18"
       height="64"
       rx="0"
       ry="0"
       stroke-width="2.9248"
       id="rect25"
       fill="none"
       style="stroke-linecap:square" /><path
       id="rect366"
       fill="url(#linearGradient3833)"
       style="opacity:0.95;fill-opacity:1"
       d="m 126,94 a 6,6 0 0 0 -6,6 6,6 0 0 0 2,4.46484 V 150 c 0,2.216 1.784,4 4,4 2.216,0 4,-1.784 4,-4 V 104.46484 A 6,6 0 0 0 132,100 6,6 0 0 0 126,94 Z m 0,4 a 2,2 0 0 1 2,2 2,2 0 0 1 -2,2 2,2 0 0 1 -2,-2 2,2 0 0 1 2,-2 z" /><rect
       id="rect2749"
       fill="#ffffff"
       width="2"
       height="24"
       x="125"
       y="126"
       rx="1"
       ry="1"
       style="opacity:0.40;" /></g></svg>
