<?xml version="1.0" encoding="UTF-8" standalone="no"?>
<svg
   xmlns:dc="http://purl.org/dc/elements/1.1/"
   xmlns:cc="http://creativecommons.org/ns#"
   xmlns:rdf="http://www.w3.org/1999/02/22-rdf-syntax-ns#"
   xmlns:svg="http://www.w3.org/2000/svg"
   xmlns="http://www.w3.org/2000/svg"
   xmlns:sodipodi="http://sodipodi.sourceforge.net/DTD/sodipodi-0.dtd"
   xmlns:inkscape="http://www.inkscape.org/namespaces/inkscape"
   width="200"
   height="200"
   version="1.0"
   id="svg191"
   sodipodi:docname="clock.svg"
   inkscape:version="1.0.2 (e86c870879, 2021-01-15)">
  <metadata
     id="metadata195">
    <rdf:RDF>
      <cc:Work
         rdf:about="">
        <dc:format>image/svg+xml</dc:format>
        <dc:type
           rdf:resource="http://purl.org/dc/dcmitype/StillImage" />
      </cc:Work>
    </rdf:RDF>
  </metadata>
  <sodipodi:namedview
     pagecolor="#d3dae3"
     bordercolor="#666666"
     borderopacity="1"
     objecttolerance="10"
     gridtolerance="10"
     guidetolerance="10"
     inkscape:pageopacity="0"
     inkscape:pageshadow="2"
     inkscape:window-width="640"
     inkscape:window-height="480"
     id="namedview193"
     showgrid="false"
     inkscape:zoom="3.8014083"
     inkscape:cx="94.397315"
     inkscape:cy="126.17052"
     inkscape:current-layer="svg191"
     inkscape:document-rotation="0" />
  <defs
     id="defs11">
    <radialGradient
       id="radialGradient4671"
       cx="1255.9"
       cy="382.73"
       r="96.606"
       gradientTransform="matrix(1.0765,0,0,1.0765,-1252,-310.02)"
       gradientUnits="userSpaceOnUse">
      <stop
         stop-color="#232629"
         offset="0"
         id="stop2" />
      <stop
         stop-color="#232629"
         stop-opacity=".52349"
         offset=".9"
         id="stop4" />
      <stop
         stop-color="#232629"
         stop-opacity=".10738"
         offset=".96"
         id="stop6" />
      <stop
         stop-color="#232629"
         stop-opacity="0"
         offset="1"
         id="stop8" />
    </radialGradient>
  </defs>
  <g
     id="ClockFace">
    <path
       d="m 99.572,-2 a 104,104 0 0 0 -103.57,104 104,104 0 0 0 104,104 104,104 0 0 0 104,-104 104,104 0 0 0 -104,-104 104,104 0 0 0 -0.42773,0 z m 0.42773,4 a 98,98 0 0 1 98,98 98,98 0 0 1 -98,98 98,98 0 0 1 -98,-98 98,98 0 0 1 98,-98 z"
       fill="url(#radialGradient4671)"
       id="path13" />
    <circle
       cx="100"
       cy="101"
       r="98"
       fill="#000000"
       opacity="0.15"
       id="circle15" />
    <circle
       cx="100"
       cy="100"
       r="98"
       fill="#161e2a"
       opacity="0.9"
       id="circle17"
       style="fill-opacity:1" />
    <g
       opacity="0.75"
       stroke-linecap="round"
       stroke-linejoin="round"
       stroke-width="1.3068"
       id="g43">
      <circle
         cx="100"
         cy="14"
         r="4"
         fill="#7bec04"
         opacity="1"
         style="fill:#7bec04;fill-opacity:1;paint-order:fill markers stroke"
         id="circle19" />
      <circle
         cx="100"
         cy="186"
         r="4"
         fill="#7bec04"
         opacity="1"
         style="fill:#7bec04;fill-opacity:1;paint-order:fill markers stroke"
         id="circle21" />
      <circle
         transform="rotate(90)"
         cx="100"
         cy="-186"
         r="4"
         fill="#7bec04"
         opacity="1"
         style="fill:#7bec04;fill-opacity:1;paint-order:fill markers stroke"
         id="circle23" />
      <circle
         transform="rotate(90)"
         cx="100"
         cy="-14"
         r="4"
         fill="#7bec04"
         opacity="1"
         style="fill:#7bec04;fill-opacity:1;paint-order:fill markers stroke"
         id="circle25" />
      <circle
         transform="rotate(30)"
         cx="136.60001"
         cy="-49.396999"
         r="4"
         fill="#d3dae3"
         opacity="1"
         style="paint-order:fill markers stroke"
         id="circle27" />
      <circle
         transform="rotate(30)"
         cx="136.60001"
         cy="122.6"
         r="4"
         fill="#d3dae3"
         opacity="1"
         style="paint-order:fill markers stroke"
         id="circle29" />
      <circle
         transform="rotate(60)"
         cx="136.60001"
         cy="-122.6"
         r="4"
         fill="#d3dae3"
         opacity="1"
         style="paint-order:fill markers stroke"
         id="circle31" />
      <circle
         transform="rotate(60)"
         cx="136.60001"
         cy="49.396999"
         r="4"
         fill="#d3dae3"
         opacity="1"
         style="paint-order:fill markers stroke"
         id="circle33" />
      <circle
         transform="rotate(120)"
         cx="36.603001"
         cy="-222.60001"
         r="4"
         fill="#d3dae3"
         opacity="1"
         style="paint-order:fill markers stroke"
         id="circle35" />
      <circle
         transform="rotate(120)"
         cx="36.603001"
         cy="-50.603001"
         r="4"
         fill="#d3dae3"
         opacity="1"
         style="paint-order:fill markers stroke"
         id="circle37" />
      <circle
         transform="rotate(150)"
         cx="-36.603001"
         cy="-222.60001"
         r="4"
         fill="#d3dae3"
         opacity="1"
         style="paint-order:fill markers stroke"
         id="circle39" />
      <circle
         transform="rotate(150)"
         cx="-36.603001"
         cy="-50.603001"
         r="4"
         fill="#d3dae3"
         opacity="1"
         style="paint-order:fill markers stroke"
         id="circle41" />
    </g>
    <g
       fill="#d3dae3"
       opacity="0.35"
       stroke-linecap="round"
       stroke-linejoin="round"
       stroke-width="0.3267"
       id="g141">
      <circle
         transform="rotate(6.3717)"
         cx="110.48"
         cy="2.2844"
         r="1"
         opacity="1"
         style="paint-order:fill markers stroke"
         id="circle45" />
      <circle
         transform="rotate(6.3717)"
         cx="110.48"
         cy="174.28"
         r="1"
         opacity="1"
         style="paint-order:fill markers stroke"
         id="circle47" />
      <circle
         transform="rotate(11.921)"
         cx="118.5"
         cy="-8.8121996"
         r="1"
         opacity="1"
         style="paint-order:fill markers stroke"
         id="circle49" />
      <circle
         transform="rotate(11.921)"
         cx="118.5"
         cy="163.19"
         r="1"
         opacity="1"
         style="paint-order:fill markers stroke"
         id="circle51" />
      <circle
         transform="rotate(17.69)"
         cx="125.66"
         cy="-21.115"
         r="1"
         opacity="1"
         style="paint-order:fill markers stroke"
         id="circle53" />
      <circle
         transform="rotate(17.69)"
         cx="125.66"
         cy="150.88"
         r="1"
         opacity="1"
         style="paint-order:fill markers stroke"
         id="circle55" />
      <circle
         transform="rotate(23.363)"
         cx="131.46001"
         cy="-33.853001"
         r="1"
         opacity="1"
         style="paint-order:fill markers stroke"
         id="circle57" />
      <circle
         transform="rotate(23.363)"
         cx="131.46001"
         cy="138.14999"
         r="1"
         opacity="1"
         style="paint-order:fill markers stroke"
         id="circle59" />
      <circle
         transform="rotate(36.372)"
         cx="139.82001"
         cy="-64.783997"
         r="1"
         opacity="1"
         style="paint-order:fill markers stroke"
         id="circle61" />
      <circle
         transform="rotate(36.372)"
         cx="139.82001"
         cy="107.22"
         r="1"
         opacity="1"
         style="paint-order:fill markers stroke"
         id="circle63" />
      <circle
         transform="rotate(41.921)"
         cx="141.22"
         cy="-78.403"
         r="1"
         opacity="1"
         style="paint-order:fill markers stroke"
         id="circle65" />
      <circle
         transform="rotate(41.921)"
         cx="141.22"
         cy="93.597"
         r="1"
         opacity="1"
         style="paint-order:fill markers stroke"
         id="circle67" />
      <circle
         transform="rotate(47.69)"
         cx="141.27"
         cy="-92.637001"
         r="1"
         opacity="1"
         style="paint-order:fill markers stroke"
         id="circle69" />
      <circle
         transform="rotate(47.69)"
         cx="141.27"
         cy="79.362999"
         r="1"
         opacity="1"
         style="paint-order:fill markers stroke"
         id="circle71" />
      <circle
         transform="rotate(53.363)"
         cx="139.92"
         cy="-106.57"
         r="1"
         opacity="1"
         style="paint-order:fill markers stroke"
         id="circle73" />
      <circle
         transform="rotate(53.363)"
         cx="139.92"
         cy="65.431999"
         r="1"
         opacity="1"
         style="paint-order:fill markers stroke"
         id="circle75" />
      <circle
         transform="rotate(66.372)"
         cx="131.7"
         cy="-137.53999"
         r="1"
         opacity="1"
         style="paint-order:fill markers stroke"
         id="circle77" />
      <circle
         transform="rotate(66.372)"
         cx="131.7"
         cy="34.464001"
         r="1"
         opacity="1"
         style="paint-order:fill markers stroke"
         id="circle79" />
      <circle
         transform="rotate(71.921)"
         cx="126.1"
         cy="-150.03"
         r="1"
         opacity="1"
         style="paint-order:fill markers stroke"
         id="circle81" />
      <circle
         transform="rotate(71.921)"
         cx="126.1"
         cy="21.971001"
         r="1"
         opacity="1"
         style="paint-order:fill markers stroke"
         id="circle83" />
      <circle
         transform="rotate(77.69)"
         cx="119.02"
         cy="-162.38"
         r="1"
         opacity="1"
         style="paint-order:fill markers stroke"
         id="circle85" />
      <circle
         transform="rotate(77.69)"
         cx="119.02"
         cy="9.6191998"
         r="1"
         opacity="1"
         style="paint-order:fill markers stroke"
         id="circle87" />
      <circle
         transform="rotate(83.363)"
         cx="110.89"
         cy="-173.77"
         r="1"
         opacity="1"
         style="paint-order:fill markers stroke"
         id="circle89" />
      <circle
         transform="rotate(83.363)"
         cx="110.89"
         cy="-1.7711"
         r="1"
         opacity="1"
         style="paint-order:fill markers stroke"
         id="circle91" />
      <circle
         transform="rotate(96.372)"
         cx="88.283997"
         cy="-196.48"
         r="1"
         opacity="1"
         style="paint-order:fill markers stroke"
         id="circle93" />
      <circle
         transform="rotate(96.372)"
         cx="88.283997"
         cy="-24.48"
         r="1"
         opacity="1"
         style="paint-order:fill markers stroke"
         id="circle95" />
      <circle
         transform="rotate(101.92)"
         cx="77.188004"
         cy="-204.5"
         r="1"
         opacity="1"
         style="paint-order:fill markers stroke"
         id="circle97" />
      <circle
         transform="rotate(101.92)"
         cx="77.188004"
         cy="-32.499001"
         r="1"
         opacity="1"
         style="paint-order:fill markers stroke"
         id="circle99" />
      <circle
         transform="rotate(107.69)"
         cx="64.885002"
         cy="-211.66"
         r="1"
         opacity="1"
         style="paint-order:fill markers stroke"
         id="circle101" />
      <circle
         transform="rotate(107.69)"
         cx="64.885002"
         cy="-39.658001"
         r="1"
         opacity="1"
         style="paint-order:fill markers stroke"
         id="circle103" />
      <circle
         transform="rotate(113.36)"
         cx="52.146999"
         cy="-217.46001"
         r="1"
         opacity="1"
         style="paint-order:fill markers stroke"
         id="circle105" />
      <circle
         transform="rotate(113.36)"
         cx="52.146999"
         cy="-45.456001"
         r="1"
         opacity="1"
         style="paint-order:fill markers stroke"
         id="circle107" />
      <circle
         transform="rotate(126.37)"
         cx="21.216"
         cy="-225.82001"
         r="1"
         opacity="1"
         style="paint-order:fill markers stroke"
         id="circle109" />
      <circle
         transform="rotate(126.37)"
         cx="21.216"
         cy="-53.820999"
         r="1"
         opacity="1"
         style="paint-order:fill markers stroke"
         id="circle111" />
      <circle
         transform="rotate(131.92)"
         cx="7.5970001"
         cy="-227.22"
         r="1"
         opacity="1"
         style="paint-order:fill markers stroke"
         id="circle113" />
      <circle
         transform="rotate(131.92)"
         cx="7.5970001"
         cy="-55.216999"
         r="1"
         opacity="1"
         style="paint-order:fill markers stroke"
         id="circle115" />
      <circle
         transform="rotate(137.69)"
         cx="-6.6371999"
         cy="-227.27"
         r="1"
         opacity="1"
         style="paint-order:fill markers stroke"
         id="circle117" />
      <circle
         transform="rotate(137.69)"
         cx="-6.6371999"
         cy="-55.265999"
         r="1"
         opacity="1"
         style="paint-order:fill markers stroke"
         id="circle119" />
      <circle
         transform="rotate(143.36)"
         cx="-20.568001"
         cy="-225.92"
         r="1"
         opacity="1"
         style="paint-order:fill markers stroke"
         id="circle121" />
      <circle
         transform="rotate(143.36)"
         cx="-20.568001"
         cy="-53.917999"
         r="1"
         opacity="1"
         style="paint-order:fill markers stroke"
         id="circle123" />
      <circle
         transform="rotate(156.37)"
         cx="-51.535999"
         cy="-217.7"
         r="1"
         opacity="1"
         style="paint-order:fill markers stroke"
         id="circle125" />
      <circle
         transform="rotate(156.37)"
         cx="-51.535999"
         cy="-45.696999"
         r="1"
         opacity="1"
         style="paint-order:fill markers stroke"
         id="circle127" />
      <circle
         transform="rotate(161.92)"
         cx="-64.028999"
         cy="-212.10001"
         r="1"
         opacity="1"
         style="paint-order:fill markers stroke"
         id="circle129" />
      <circle
         transform="rotate(161.92)"
         cx="-64.028999"
         cy="-40.096001"
         r="1"
         opacity="1"
         style="paint-order:fill markers stroke"
         id="circle131" />
      <circle
         transform="rotate(167.69)"
         cx="-76.380997"
         cy="-205.02"
         r="1"
         opacity="1"
         style="paint-order:fill markers stroke"
         id="circle133" />
      <circle
         transform="rotate(167.69)"
         cx="-76.380997"
         cy="-33.021"
         r="1"
         opacity="1"
         style="paint-order:fill markers stroke"
         id="circle135" />
      <circle
         transform="rotate(173.36)"
         cx="-87.771004"
         cy="-196.89"
         r="1"
         opacity="1"
         style="paint-order:fill markers stroke"
         id="circle137" />
      <circle
         transform="rotate(173.36)"
         cx="-87.771004"
         cy="-24.888"
         r="1"
         opacity="1"
         style="paint-order:fill markers stroke"
         id="circle139" />
    </g>
    <path
       d="M 100,2 A 98,98 0 0 0 2,100 98,98 0 0 0 2.0351562,100.5 98,98 0 0 1 100,3 98,98 0 0 1 197.98242,100.25391 98,98 0 0 0 198,100 98,98 0 0 0 100,2 Z"
       fill="#d3dae3"
       opacity="0.06"
       id="path143" />
    <g
       fill="#84e500"
       fill-opacity="0.99608"
       stroke-linecap="square"
       stroke-width="1.496"
       aria-label="12"
       id="g149">
      <path
         d="m 94.79,37.941 h 1.1649 V 26.148 h -3.1755 v 1.0691 H 94.79 Z"
         id="path145" />
      <path
         d="m 99.673,37.941 h 7.484 v -1.0691 h -5.8883 l 3.7819,-3.6223 c 1.6596,-1.5798 2.1702,-2.4574 2.1702,-3.7181 0,-2.0904 -1.5638,-3.5904 -3.7181,-3.5904 -1.6436,0 -2.9362,0.8617 -3.4787,2.2979 -0.20744,0.55851 -0.25531,0.89361 -0.25531,1.7234 h 1.1649 c 0,-0.73404 0.0957,-1.1968 0.30319,-1.6277 0.41489,-0.82978 1.2447,-1.3245 2.25,-1.3245 1.484,0 2.5532,1.0213 2.5532,2.4574 0,0.70213 -0.25531,1.3085 -0.82978,1.9787 -0.35106,0.41489 -0.44681,0.51064 -1.4042,1.4362 l -4.133,3.9894 z"
         id="path147" />
    </g>
    <g
       fill="#84e500"
       fill-opacity="0.99608"
       stroke-linecap="square"
       stroke-width="1.496"
       aria-label="6"
       id="g153">
      <path
         d="m 100.3,162.06 -2.9202,4.3404 c -1.133,1.6915 -1.4043,2.3777 -1.4043,3.5745 0,2.3298 1.7394,4.0851 4.0691,4.0851 2.2979,0 3.9734,-1.7553 3.9734,-4.1808 0,-2.266 -1.6596,-4.0532 -3.75,-4.0532 -0.51064,0 -0.84574,0.0798 -1.3883,0.3351 l 2.7766,-4.101 z m -0.28723,4.8351 c 1.6436,0 2.8245,1.2606 2.8245,3.0319 0,1.7872 -1.1649,3.0638 -2.7925,3.0638 -1.6755,0 -2.8883,-1.3085 -2.8883,-3.0957 0,-1.7074 1.2287,-3 2.8564,-3 z"
         id="path151" />
    </g>
    <g
       fill="#84e500"
       fill-opacity="0.99608"
       stroke-linecap="square"
       stroke-width="1.496"
       aria-label="3"
       id="g157">
      <path
         d="m 168.97,97.04 c 0.016,-1.3245 0.67021,-2.0745 1.8191,-2.0745 1.0532,0 1.7872,0.76596 1.7872,1.8511 0,1.1489 -0.78191,1.867 -2.0106,1.867 -0.0957,0 -0.11171,0 -0.57447,-0.03192 v 1.0532 c 0.78191,0.01596 1.0532,0.03191 1.3723,0.09574 1.1808,0.28723 1.9947,1.3404 1.9947,2.5851 0,1.5 -1.1011,2.6489 -2.5532,2.6489 -0.89362,0 -1.6596,-0.41489 -2.1542,-1.1489 -0.28723,-0.43085 -0.39894,-0.84574 -0.46277,-1.6755 h -1.1649 c 0.0319,0.8617 0.17554,1.4521 0.51064,2.0426 0.65425,1.1489 1.8989,1.8511 3.3191,1.8511 2.0585,0 3.6862,-1.6596 3.6862,-3.7819 0,-1.4202 -0.67021,-2.5053 -1.9947,-3.1755 0.82979,-0.57447 1.2128,-1.2926 1.2128,-2.266 0,-1.7553 -1.2128,-2.984 -2.9681,-2.984 -1.7713,0 -2.9202,1.2128 -2.984,3.1436 z"
         id="path155" />
    </g>
    <g
       fill="#84e500"
       fill-opacity="0.99608"
       stroke-linecap="square"
       stroke-width="1.496"
       aria-label="9"
       id="g161">
      <path
         d="m 29.178,106 2.9202,-4.3404 c 1.133,-1.6915 1.4043,-2.3776 1.4043,-3.5745 C 33.5025,95.7553 31.7631,94 29.4334,94 27.1355,94 25.46,95.7553 25.46,98.1808 c 0,2.2659 1.6596,4.0532 3.7659,4.0532 0.49468,0 0.84574,-0.0798 1.3723,-0.3351 l -2.7766,4.101 z m 0.25532,-10.931 c 1.6596,0 2.8883,1.3085 2.8883,3.0957 0,1.7074 -1.2447,3 -2.8564,3 -1.6436,0 -2.8245,-1.2606 -2.8245,-3.0319 0,-1.7872 1.1649,-3.0638 2.7925,-3.0638 z"
         id="path159" />
    </g>
  </g>
  <g
     id="SecondHand"
     transform="rotate(90,192,25)">
    <rect
       x="247"
       y="64"
       width="81"
       height="8"
       rx="0"
       ry="0"
       fill="none"
       style="paint-order:fill markers stroke"
       id="rect164" />
    <g
       transform="translate(161,-9)"
       fill="#7bec04"
       id="g170">
      <rect
         x="86"
         y="76.5"
         width="76"
         height="1"
         rx="0.5"
         ry="0.5"
         style="paint-order:fill markers stroke"
         id="rect166" />
      <circle
         cx="90"
         cy="77"
         r="2"
         style="paint-order:fill markers stroke"
         id="circle168" />
    </g>
  </g>
  <g
     id="MinuteHand">
    <g
       transform="translate(23,2)"
       fill="#d3dae3"
       id="g177">
      <path
         d="m100 96a4 4 0 0 0-4 4 4 4 0 0 0 4 4 4 4 0 0 0 4-4 4 4 0 0 0-4-4zm0 1a3 3 0 0 1 3 3 3 3 0 0 1-3 3 3 3 0 0 1-3-3 3 3 0 0 1 3-3z"
         stroke-linecap="round"
         stroke-linejoin="round"
         stroke-width="1.3333"
         style="paint-order:fill markers stroke"
         id="path173" />
      <path
         transform="translate(-23,-2)"
         d="m123 105-2 7 1 63a1 1 0 0 0 1 1 1 1 0 0 0 1-1l1-63-2-7z"
         id="path175" />
    </g>
    <rect
       x="117"
       y="96"
       width="12"
       height="85"
       rx="0"
       ry="0"
       fill="none"
       stroke-linecap="round"
       stroke-linejoin="round"
       stroke-width="1.8439"
       style="paint-order:fill markers stroke"
       id="rect179" />
  </g>
  <g
     id="HourHand"
     transform="translate(-56,27)">
    <g
       transform="rotate(90,126.5,99.5)"
       fill="#d3dae3"
       id="g186">
      <path
         transform="rotate(-90,85,85)"
         d="m93 103-2 7 1 44a1 1 0 0 0 1 1 1 1 0 0 0 1-1l1-44-2-7z"
         id="path182" />
      <path
         d="m100 73a4 4 0 0 0-4 4 4 4 0 0 0 4 4 4 4 0 0 0 4-4 4 4 0 0 0-4-4zm0 1a3 3 0 0 1 3 3 3 3 0 0 1-3 3 3 3 0 0 1-3-3 3 3 0 0 1 3-3z"
         stroke-linecap="round"
         stroke-linejoin="round"
         stroke-width="1.3333"
         style="paint-order:fill markers stroke"
         id="path184" />
    </g>
    <rect
       x="140"
       y="64"
       width="18"
       height="64"
       rx="0"
       ry="0"
       fill="none"
       stroke-linecap="round"
       stroke-linejoin="round"
       stroke-width="2.043"
       style="paint-order:fill markers stroke"
       id="rect188" />
  </g>
</svg>
