<?xml version="1.0" encoding="UTF-8" standalone="no"?>
<svg
   width="56.000443"
   height="72"
   version="1.0"
   id="svg69"
   sodipodi:docname="listitem.svgz"
   inkscape:version="1.2 (dc2aedaf03, 2022-05-15)"
   xmlns:inkscape="http://www.inkscape.org/namespaces/inkscape"
   xmlns:sodipodi="http://sodipodi.sourceforge.net/DTD/sodipodi-0.dtd"
   xmlns="http://www.w3.org/2000/svg"
   xmlns:svg="http://www.w3.org/2000/svg"
   xmlns:rdf="http://www.w3.org/1999/02/22-rdf-syntax-ns#"
   xmlns:cc="http://creativecommons.org/ns#"
   xmlns:dc="http://purl.org/dc/elements/1.1/">
  <metadata
     id="metadata73">
    <rdf:RDF>
      <cc:Work
         rdf:about="">
        <dc:format>image/svg+xml</dc:format>
        <dc:type
           rdf:resource="http://purl.org/dc/dcmitype/StillImage" />
      </cc:Work>
    </rdf:RDF>
  </metadata>
  <sodipodi:namedview
     pagecolor="#5e5e5e"
     bordercolor="#666666"
     borderopacity="1"
     objecttolerance="10"
     gridtolerance="10"
     guidetolerance="10"
     inkscape:pageopacity="0"
     inkscape:pageshadow="2"
     inkscape:window-width="1366"
     inkscape:window-height="736"
     id="namedview71"
     showgrid="false"
     units="px"
     inkscape:zoom="32.999998"
     inkscape:cx="0.81818187"
     inkscape:cy="0.015151516"
     inkscape:window-x="0"
     inkscape:window-y="0"
     inkscape:window-maximized="1"
     inkscape:current-layer="svg69"
     inkscape:snap-bbox="true"
     inkscape:bbox-nodes="true"
     inkscape:document-rotation="0"
     inkscape:showpageshadow="2"
     inkscape:pagecheckerboard="0"
     inkscape:deskcolor="#5e5e5e">
    <inkscape:grid
       type="xygrid"
       id="grid903"
       originx="0"
       originy="0" />
  </sodipodi:namedview>
  <defs
     id="defs3">
    <style
       id="current-color-scheme"
       type="text/css">
        .ColorScheme-Text {
            color:#a1adc8;
            stop-color:#a1adc8;
        }
    </style>
  </defs>
  <g
     id="g612"
     style="fill:#cddfff"
     opacity="0.2"
     transform="translate(-35.999703,-62.999702)">
    <path
       inkscape:connector-curvature="0"
       d="M 45.999921,73 V 84 H 56.999485 V 73 Z"
       id="pressed-center" />
    <path
       inkscape:connector-curvature="0"
       d="m 57,73 v 11 h 7.998815 c 0.0027,-0.0184 0,-0.0344 0,-0.0529 v -10.894 c 0,-0.0185 0.0027,-0.0345 0,-0.0529 H 57 Z"
       id="pressed-right" />
    <path
       inkscape:connector-curvature="0"
       d="m 45.999921,65.000893 v 7.998809 h 10.998075 v -7.998809 c -0.0041,-0.0027 0.0045,0 3.01e-4,0 H 46.012219 c -0.004,0 -0.008,-0.0027 -0.0119,0 z"
       id="pressed-top" />
    <path
       inkscape:connector-curvature="0"
       d="m 38.000893,73 c -0.0027,0.0184 0,0.0344 0,0.0529 v 10.894 c 0,0.0185 -0.0027,0.0345 0,0.0529 h 7.998809 v -11 h -7.998809 z"
       id="pressed-left" />
    <path
       inkscape:connector-curvature="0"
       d="m 45.999921,84 v 8 h 10.999564 v -8 z"
       id="pressed-bottom" />
    <path
       d="m 46.000893,65.000893 c -4.431999,0 -8,3.568 -8,8 h 8 z"
       id="pressed-topleft" />
    <path
       d="m 57,64.999702 v 8 h 8 c 0,-4.432 -3.567998,-8 -8,-8 z"
       id="pressed-topright" />
    <path
       d="m 37.999702,84 c 0,4.432 3.568001,8 8,8 v -8 z"
       id="pressed-bottomleft" />
    <path
       d="m 57,84 v 8 c 4.431346,0 7.998815,-3.568 7.998815,-8 z"
       id="pressed-bottomright" />
  </g>
  <g
     id="g351"
     style="fill:#cddfff"
     opacity="0.6"
     transform="translate(-43.999703,-62.999702)">
    <path
       inkscape:connector-curvature="0"
       d="M 81,73.00021 V 84.00019 H 92.000001 V 73.00021 Z"
       id="hover-center" />
    <path
       inkscape:connector-curvature="0"
       d="m 92.000004,72.999702 v 10.99998 h 7.998806 c 0.003,-0.0189 0,-0.034 0,-0.0529 v -10.894 c 0,-0.0189 0.003,-0.034 0,-0.0529 h -7.998806 z"
       id="hover-right" />
    <path
       inkscape:connector-curvature="0"
       d="m 81,65.001106 v 7.998792 h 10.998522 v -7.998792 c -0.0042,-0.0027 0.0045,0 2.99e-4,0 H 81.0123 c -0.0042,0 -0.0079,-0.0027 -0.01172,0 z"
       id="hover-top" />
    <path
       inkscape:connector-curvature="0"
       d="m 73.00089,73.00021 c -0.0027,0.0189 0,0.034 0,0.0529 V 83.9471 c 0,0.0189 -0.0027,0.034 0,0.0529 h 7.998811 V 73 H 73.00089 Z"
       id="hover-left" />
    <path
       inkscape:connector-curvature="0"
       d="m 81,83.999702 v 8 h 11.000001 v -8 z"
       id="hover-bottom" />
    <path
       d="m 80.998509,64.999702 c -4.431337,0 -7.998803,3.568 -7.998803,8 h 7.998803 z"
       id="hover-topleft" />
    <path
       d="m 92,64.999702 v 8 h 8 c 0,-4.432 -3.568,-8 -8,-8 z"
       id="hover-topright" />
    <path
       d="m 73.000898,84 c 0,4.432 3.567466,8 7.998803,8 v -8 z"
       id="hover-bottomleft" />
    <path
       d="m 92,84 v 8 c 4.432,0 8,-3.568 8,-8 z"
       id="hover-bottomright" />
  </g>
  <g
     id="g30"
     style="fill:#cddfff"
     transform="translate(18.000297,43)"
     opacity="0.02">
    <path
       id="normal-center"
       d="M -8.000298,-5.999702 V 5.0002978 H 2.9997018 V -5.999702 Z"
       inkscape:connector-curvature="0" />
    <path
       id="normal-right"
       d="M 2.999702,-6 V 4.9999998 h 7.998813 c 0.0027,-0.01835 0,-0.03439 0,-0.05288 V -5.946881 c 0,-0.0185 0.0027,-0.03453 0,-0.05288 H 2.999702 Z"
       inkscape:connector-curvature="0" />
    <path
       id="normal-top"
       d="m -8.000298,-13.998809 v 7.9988 H 2.9984788 v -7.9988 c -0.0041,-0.0027 0.0042,0 1e-6,0 H -7.988298 c -0.004,0 -0.008,-0.0027 -0.0119,0 z"
       inkscape:connector-curvature="0" />
    <path
       id="normal-left"
       d="m -15.999098,-5.99976 c -0.0027,0.01835 0,0.03439 0,0.05288 V 4.9471154 c 0,0.0185 -0.0027,0.03453 0,0.05288 h 7.9988 V -6 h -7.9988 z"
       inkscape:connector-curvature="0" />
    <path
       id="normal-bottom"
       d="m -8.000298,5 v 8 H 2.9997018 V 5.0012 Z"
       inkscape:connector-curvature="0" />
    <path
       id="normal-topleft"
       d="m -16.000298,-6.0000124 h 7.9991118 v -7.9987966 c -0.00298,-0.0027 0.00305,0 0,0 -4.0006958,0 -7.9991118,3.9988 -7.9991118,7.9987966 z"
       inkscape:connector-curvature="0"
       sodipodi:nodetypes="ccccc" />
    <path
       id="normal-topright"
       d="M 2.999702,-13.9988 V -6 h 7.999999 c 0,-4.045113 -3.9871983,-7.9988 -7.9911981,-7.9988 -0.00291,0 -0.006,-0.0027 -0.0088,0 z"
       inkscape:connector-curvature="0"
       sodipodi:nodetypes="ccccc" />
    <path
       id="normal-bottomright"
       d="M 2.9997033,5.0011912 V 13 c 3.9912315,0 7.9991107,-3.97022 7.9991107,-7.9988088 -0.003,-0.00268 0.003,0 0,0 H 3.0085032 c -0.00291,0 -0.006,-0.00268 -0.0088,0 z"
       inkscape:connector-curvature="0"
       sodipodi:nodetypes="cccssc" />
    <path
       id="normal-bottomleft"
       d="m -16.000298,5.0011856 c 0,3.9988144 3.970666,7.9988054 7.9991078,7.9988054 V 5.0011856 c -0.00298,-0.00268 0.00305,0 0,0 h -7.9903088 c -0.0029,0 -0.006,-0.00268 -0.0088,0 z"
       inkscape:connector-curvature="0"
       sodipodi:nodetypes="cccsscc" />
  </g>
  <g
     id="g623"
     opacity="0.2"
     style="fill:#cddfff"
     transform="translate(-10.999405,-113.9997)">
    <path
       id="section-center"
       d="m 48,151 v 11 h 11 v -11 z"
       inkscape:connector-curvature="0" />
    <path
       id="section-right"
       d="m 58.999404,150.9997 v 11 h 7.9988 c 0.0027,-0.018 0,-0.034 0,-0.053 v -10.894 c 0,-0.019 0.0027,-0.034 0,-0.053 z"
       inkscape:connector-curvature="0" />
    <path
       id="section-top"
       d="m 47.999404,143.00093 v 7.99876 h 10.998777 v -7.99876 c -0.0041,-0.003 0.0042,0 10e-7,0 H 48.011404 c -0.004,0 -0.008,-0.003 -0.0119,0 z"
       inkscape:connector-curvature="0" />
    <path
       id="section-left"
       d="m 40.001787,151 c -0.0027,0.018 0,0.034 0,0.053 v 10.894 c 0,0.019 -0.0027,0.034 0,0.053 h 7.997617 v -11 z"
       inkscape:connector-curvature="0" />
    <path
       id="section-bottom"
       d="m 47.999404,161.9997 v 8 h 11 v -7.9988 z"
       inkscape:connector-curvature="0" />
    <path
       id="section-topleft"
       d="m 39.999404,150.99969 h 7.996817 v -7.99876 c -0.003,-0.003 0.0031,0 0,0 -4.016395,0 -7.996817,3.96311 -7.996817,7.99876 z"
       inkscape:connector-curvature="0"
       sodipodi:nodetypes="ccccc" />
    <path
       id="section-topright"
       d="m 58.999404,143.00093 v 7.99867 H 66.9994 c 0,-4.05017 -3.987181,-7.99867 -7.991195,-7.99867 -0.0029,0 -0.006,-0.003 -0.0088,0 z"
       inkscape:connector-curvature="0"
       sodipodi:nodetypes="ccccc" />
    <path
       id="section-bottomright"
       d="m 58.999404,162.00093 v 7.99867 c 4.002917,0 7.99909,-4.03077 7.99909,-7.99867 -0.003,-0.003 0.0031,0 0,0 h -7.99029 c -0.0029,0 -0.006,-0.003 -0.0088,0 z"
       inkscape:connector-curvature="0"
       sodipodi:nodetypes="cccssc" />
    <path
       id="section-bottomleft"
       d="m 39.999404,162.00093 c 0,3.99985 3.976467,7.99867 7.996817,7.99867 v -7.99867 c -0.003,-0.003 0.0031,0 0,0 h -7.98802 c -0.0029,0 -0.006,-0.003 -0.0088,0 z"
       inkscape:connector-curvature="0"
       sodipodi:nodetypes="cccssc" />
  </g>
  <g
     id="separator"
     transform="translate(-55.000001,13)"
     style="opacity:0;fill:#000000">
    <rect
       transform="scale(1,-1)"
       x="63"
       y="-49"
       width="40"
       height="1"
       id="rect16"
       style="color:#fcfcfc;opacity:0.2;fill:#000000" />
    <rect
       transform="scale(1,-1)"
       x="63"
       y="-49"
       width="40"
       height="1"
       id="rect18"
       style="color:#31363b;opacity:0;fill:#000000" />
  </g>
  <rect
     style="fill:#4e9a06"
     ry="2"
     rx="0"
     height="2"
     width="2"
     y="70"
     x="28"
     id="hint-tile-center" />
  <rect
     style="fill:#4e9a06"
     height="3"
     width="2"
     y="2"
     x="13.999999"
     id="pressed-hint-top-margin" />
  <rect
     style="fill:#4e9a06"
     height="3"
     width="2"
     y="26"
     x="13.999999"
     id="pressed-hint-bottom-margin" />
  <rect
     style="fill:#4e9a06"
     height="2"
     width="4"
     y="14"
     x="1.9999994"
     id="pressed-hint-left-margin" />
  <rect
     style="fill:#4e9a06"
     height="2"
     width="4"
     y="14"
     x="25"
     id="pressed-hint-right-margin" />
  <rect
     style="fill:#4e9a06"
     height="2"
     width="4"
     y="41"
     x="1.9999994"
     id="normal-hint-left-margin" />
  <rect
     style="fill:#4e9a06"
     height="3"
     width="2"
     y="29"
     x="13.999999"
     id="normal-hint-top-margin" />
  <rect
     style="fill:#4e9a06"
     height="3"
     width="2"
     y="53"
     x="13.999999"
     id="normal-hint-bottom-margin" />
  <rect
     style="fill:#4e9a06"
     height="2"
     width="4"
     y="41"
     x="25"
     id="normal-hint-right-margin" />
  <rect
     style="fill:#4e9a06"
     height="4"
     width="2"
     y="29"
     x="41"
     id="section-hint-top-margin" />
  <rect
     style="fill:#4e9a06"
     height="2"
     width="4"
     y="41"
     x="29"
     id="section-hint-left-margin" />
  <rect
     style="fill:#4e9a06"
     height="2"
     width="4"
     y="41"
     x="52"
     id="section-hint-right-margin" />
  <rect
     style="fill:#4e9a06"
     height="4"
     width="2"
     y="52"
     x="41"
     id="section-hint-bottom-margin" />
  <rect
     id="hint-stretch-borders"
     height="2.077126"
     rx="2.077126"
     style="fill:#4e9a06;fill-opacity:1;fill-rule:nonzero"
     width="2.0329318"
     x="0"
     y="0" />
</svg>
