<?xml version="1.0" encoding="UTF-8" standalone="no"?>
<svg
   width="76"
   height="66"
   version="1.1"
   id="svg85"
   sodipodi:docname="slider.svg"
   inkscape:version="1.1.2 (0a00cf5339, 2022-02-04)"
   xmlns:inkscape="http://www.inkscape.org/namespaces/inkscape"
   xmlns:sodipodi="http://sodipodi.sourceforge.net/DTD/sodipodi-0.dtd"
   xmlns:xlink="http://www.w3.org/1999/xlink"
   xmlns="http://www.w3.org/2000/svg"
   xmlns:svg="http://www.w3.org/2000/svg"
   xmlns:rdf="http://www.w3.org/1999/02/22-rdf-syntax-ns#"
   xmlns:cc="http://creativecommons.org/ns#"
   xmlns:dc="http://purl.org/dc/elements/1.1/">
  <sodipodi:namedview
     id="namedview87"
     pagecolor="#ffffff"
     bordercolor="#666666"
     borderopacity="1.0"
     inkscape:pageshadow="2"
     inkscape:pageopacity="0.0"
     inkscape:pagecheckerboard="0"
     showgrid="false"
     inkscape:zoom="10.475161"
     inkscape:cx="22.672684"
     inkscape:cy="15.321961"
     inkscape:current-layer="vertical-slider-hover" />
  <metadata
     id="metadata2">
    <rdf:RDF>
      <cc:Work
         rdf:about="">
        <dc:format>image/svg+xml</dc:format>
        <dc:type
           rdf:resource="http://purl.org/dc/dcmitype/StillImage" />
        <dc:title />
      </cc:Work>
    </rdf:RDF>
  </metadata>
  <defs
     id="defs9">
    <radialGradient
       id="radialGradient915"
       cx="41"
       cy="20"
       r="16"
       gradientUnits="userSpaceOnUse">
      <stop
         offset="0"
         id="stop4" />
      <stop
         stop-opacity="0"
         offset="1"
         id="stop6" />
    </radialGradient>
  </defs>
  <g
     id="vertical-slider-handle"
     transform="matrix(0.75,0,0,0.75,-18.75,-3)"
     stroke-width="0.91667">
    <rect
       x="25"
       y="4"
       width="32"
       height="32"
       opacity="0"
       id="rect11" />
    <circle
       cx="41"
       cy="20"
       r="16"
       fill="url(#radialGradient915)"
       opacity="0.05"
       stroke-width="1.8333"
       id="circle13" />
    <circle
       cx="41"
       cy="20"
       r="9.3332996"
       opacity="0.0"
       stroke-width="1.0694"
       id="circle15" />
    <circle
       cx="41"
       cy="20"
       r="8"
       opacity="0.0"
       fill="#ffffff"
       id="circle17" />
  </g>
  <g
     id="vertical-slider-hover"
     transform="matrix(0.75,0,0,0.75,6.25,-3)"
     stroke-width="0.91667">
    <circle
       cx="41"
       cy="20"
       fill="url(#radialGradient915)"
       opacity="0.15"
       stroke-width="0.91667"
       id="circle20"
       r="16" />
    <rect
       x="24.315966"
       y="3.3159661"
       width="33.368069"
       height="33.368069"
       opacity="0"
       id="rect22"
       style="stroke-width:0.95586" />
    <circle
       cx="41"
       cy="20"
       r="9.7323179"
       opacity="0.15"
       stroke-width="0.55758"
       id="circle24" />
    <circle
       cx="41"
       cy="20"
       r="8.3420172"
       fill="#ffffff"
       id="circle26"
       style="stroke-width:0.95586" />
  </g>
  <g
     id="vertical-slider-focus"
     transform="matrix(0.75,0,0,0.75,31.25,-3)"
     stroke-width="0.91667">
    <circle
       cx="41"
       cy="20"
       r="16"
       fill="url(#radialGradient915)"
       opacity="0.2"
       stroke-width="0.91667"
       id="circle29" />
    <rect
       x="25"
       y="4"
       width="32"
       height="32"
       opacity="0"
       id="rect31" />
    <circle
       cx="41"
       cy="20"
       r="9.3332996"
       opacity="0.15"
       stroke-width="0.53472"
       id="circle33" />
    <circle
       cx="41"
       cy="20"
       r="8"
       fill="#ffffff"
       id="circle35" />
  </g>
  <g
     id="groove-topleft">
    <path
       d="m7-24c-3.3644 0-6 2.6356-6 6h6z"
       opacity=".13"
       stroke-width="5.9416"
       id="path38" />
    <path
       d="m7-24c-3.3644 0-6 2.6356-6 6h1c0-2.8037 2.1963-5 5-5v-1z"
       opacity=".06"
       id="path40" />
  </g>
  <rect
     id="hint-tile-center"
     x="-14"
     y="-24"
     width="12"
     height="12"
     rx="0"
     ry="12"
     fill="#4e9a06"
     stroke-width="6" />
  <path
     id="groove-center"
     d="m7-18v1h3v-1z"
     opacity=".13"
     stroke-width="1.732" />
  <circle
     id="hint-handle-size"
     cx="51"
     cy="-15"
     r="12"
     fill="#ff2a2a" />
  <g
     id="groove-highlight-top">
    <path
       d="m 23,-24 v 6 h 3 v -6 z"
       opacity="0"
       stroke-width="4.2426"
       id="path46" />
    <path
       d="m 23,-23 v 5 h 3 v -5 z"
       fill="#76e500"
       stroke-width="3.873"
       id="path48"
       style="fill:#ff6565;fill-opacity:1" />
  </g>
  <g
     id="groove-highlight-topleft">
    <path
       d="m 23,-24 c -3.3644,0 -6,2.6356 -6,6 h 6 z"
       opacity="0"
       stroke-width="5.9416"
       id="path51" />
    <path
       d="m 23,-23 c -2.8037,0 -5,2.1963 -5,5 h 5 z"
       fill="#76e500"
       stroke-width="4.9513"
       id="path53"
       style="fill:#fb5050;fill-opacity:1" />
  </g>
  <path
     id="groove-highlight-center"
     d="m23-18v1h3v-1z"
     fill="#fff"
     stroke-width="1.732"
     style="fill:#ff6565;fill-opacity:1" />
  <g
     id="groove-highlight-left">
    <path
       d="m 17,-18 v 1 h 6 v -1 z"
       opacity="0"
       stroke-width="2.4494"
       id="path57" />
    <path
       d="m 18,-18 v 1 h 5 v -1 z"
       fill="#76e500"
       stroke-width="2.236"
       id="path59"
       style="fill:#ff6565;fill-opacity:1" />
  </g>
  <g
     id="groove-top">
    <path
       d="m 7,-24 v 6 h 3 v -6 z"
       opacity="0.13"
       stroke-width="4.2426"
       id="path62" />
    <path
       d="m 7,-24 v 1 h 3 v -1 z"
       opacity="0.06"
       stroke-width="1.732"
       id="path64" />
  </g>
  <use
     id="groove-topright"
     transform="matrix(-1,0,0,1,17,0)"
     width="100%"
     height="100%"
     xlink:href="#groove-topleft" />
  <g
     id="groove-left">
    <path
       d="m 1,-18 v 1 h 6 v -1 z"
       opacity="0.13"
       stroke-width="2.4494"
       id="path68" />
    <path
       d="m 1,-18 v 1 h 1 v -1 z"
       opacity="0.06"
       stroke-width="0.99997"
       id="path70" />
  </g>
  <use
     id="groove-right"
     transform="matrix(-1,0,0,1,17,0)"
     width="100%"
     height="100%"
     xlink:href="#groove-left" />
  <use
     id="groove-bottomleft"
     transform="matrix(1,0,0,-1,0,-35)"
     width="100%"
     height="100%"
     xlink:href="#groove-topleft" />
  <use
     id="groove-bottomright"
     transform="rotate(180,8.5,-17.5)"
     width="100%"
     height="100%"
     xlink:href="#groove-topleft" />
  <use
     id="groove-bottom"
     transform="matrix(1,0,0,-1,0,-35)"
     width="100%"
     height="100%"
     xlink:href="#groove-top" />
  <use
     id="groove-highlight-topright"
     transform="matrix(-1,0,0,1,49,0)"
     width="100%"
     height="100%"
     xlink:href="#groove-highlight-topleft" />
  <use
     id="groove-highlight-bottomleft"
     transform="matrix(1,0,0,-1,0,-35)"
     width="100%"
     height="100%"
     xlink:href="#groove-highlight-topleft" />
  <use
     id="groove-highlight-bottomright"
     transform="matrix(0,-1,-1,0,8,6)"
     width="100%"
     height="100%"
     xlink:href="#groove-highlight-topleft" />
  <use
     id="groove-highlight-bottom"
     transform="matrix(1,0,0,-1,0,-35)"
     width="100%"
     height="100%"
     xlink:href="#groove-highlight-top" />
  <use
     id="groove-highlight-right"
     transform="matrix(-1,0,0,1,49,0)"
     width="100%"
     height="100%"
     xlink:href="#groove-highlight-left" />
  <use
     id="horizontal-slider-handle"
     transform="translate(0,30)"
     width="100%"
     height="100%"
     xlink:href="#vertical-slider-handle" />
  <use
     id="horizontal-slider-hover"
     transform="translate(0,30)"
     width="100%"
     height="100%"
     xlink:href="#vertical-slider-hover" />
  <use
     id="horizontal-slider-focus"
     transform="translate(0,30)"
     width="100%"
     height="100%"
     xlink:href="#vertical-slider-focus" />
</svg>
