<?xml version="1.0" encoding="UTF-8" standalone="no"?>
<svg
   xmlns:dc="http://purl.org/dc/elements/1.1/"
   xmlns:cc="http://creativecommons.org/ns#"
   xmlns:rdf="http://www.w3.org/1999/02/22-rdf-syntax-ns#"
   xmlns:svg="http://www.w3.org/2000/svg"
   xmlns="http://www.w3.org/2000/svg"
   xmlns:sodipodi="http://sodipodi.sourceforge.net/DTD/sodipodi-0.dtd"
   xmlns:inkscape="http://www.inkscape.org/namespaces/inkscape"
   inkscape:version="1.0.2 (e86c870879, 2021-01-15)"
   sodipodi:docname="tabbar.svg"
   width="500"
   height="300"
   version="1.1"
   id="svg119">
  <sodipodi:namedview
     inkscape:current-layer="svg119"
     inkscape:window-maximized="1"
     inkscape:window-y="24"
     inkscape:window-x="72"
     inkscape:cy="132.72749"
     inkscape:cx="237.44119"
     inkscape:zoom="6.1094026"
     showgrid="false"
     id="namedview90"
     inkscape:window-height="1056"
     inkscape:window-width="1848"
     inkscape:pageshadow="2"
     inkscape:pageopacity="0"
     guidetolerance="10"
     gridtolerance="10"
     objecttolerance="10"
     borderopacity="1"
     bordercolor="#666666"
     pagecolor="#626262"
     inkscape:document-rotation="0" />
  <metadata
     id="metadata125">
    <rdf:RDF>
      <cc:Work
         rdf:about="">
        <dc:format>image/svg+xml</dc:format>
        <dc:type
           rdf:resource="http://purl.org/dc/dcmitype/StillImage" />
        <dc:title />
      </cc:Work>
    </rdf:RDF>
  </metadata>
  <defs
     id="defs123" />
  <g
     id="north-active-tab-top"
     transform="matrix(.8125 0 0 .83333 290.56 -685.63)">
    <rect
       class="ColorScheme-Background"
       transform="matrix(0,-1,-1,0,0,0)"
       x="-916.36"
       y="-51"
       width="6"
       height="32"
       fill="#fff"
       opacity=".15"
       id="rect2"
       style="fill:#e5e5e5;fill-opacity:1" />
  </g>
  <g
     id="north-active-tab-topleft"
     transform="matrix(0.41667,0,0,0.41667,294.58,-306.32)">
    <path
       d="m 25,910.36 c -6.648,0 -12,5.352 -12,12 h 12 v -10 z"
       fill="#fff"
       opacity=".15"
       id="path5"
       style="fill:#e5e5e5;fill-opacity:1" />
  </g>
  <g
     id="north-active-tab-topright"
     transform="matrix(0.41667,0,0,0.41667,314.25,-306.32)">
    <path
       d="m 45,910.36 v 12 h 12 c 0,-6.648 -5.352,-12 -12,-12 z"
       fill="#fff"
       opacity=".15"
       id="path8"
       style="fill:#e5e5e5;fill-opacity:1" />
  </g>
  <g
     id="north-active-tab-bottom"
     transform="matrix(0.8125,0,0,0.82944,290.56,-686.61)">
    <rect
       class="ColorScheme-Background"
       transform="rotate(90)"
       x="948.35999"
       y="-51"
       width="6"
       height="32"
       fill="#fff"
       opacity=".15"
       id="rect11"
       style="fill:#e5e5e5;fill-opacity:1" />
  </g>
  <g
     id="north-active-tab-bottomleft"
     transform="matrix(0.41667,0,0,0.41667,294.58,-292.65)">
    <path
       d="m 13,942.36 c 0,6.648 5.352,12 12,12 v -12 H 15 Z"
       fill="#fff"
       opacity=".15"
       id="path14"
       style="fill:#e5e5e5;fill-opacity:1" />
  </g>
  <g
     id="north-active-tab-bottomright"
     transform="matrix(0.41667,0,0,0.41667,314.25,-292.65)">
    <path
       d="m 45,942.36 v 12 c 6.648,0 12,-5.352 12,-12 H 47 Z"
       fill="#fff"
       opacity=".15"
       id="path17"
       style="fill:#e5e5e5;fill-opacity:1" />
  </g>
  <g
     id="north-active-tab-left"
     transform="matrix(0.83333,0,0,0.625,289.17,-493.73)">
    <rect
       class="ColorScheme-Background"
       transform="scale(-1,1)"
       x="-19"
       y="916.35999"
       width="6"
       height="32"
       fill="#fff"
       opacity=".15"
       id="rect20"
       style="fill:#e5e5e5;fill-opacity:1" />
  </g>
  <g
     id="north-active-tab-right"
     transform="matrix(0.83333,0,0,0.625,290.5,-493.73)">
    <rect
       class="ColorScheme-Background"
       x="51"
       y="916.35999"
       width="6"
       height="32"
       fill="#fff"
       opacity=".15"
       id="rect23"
       style="fill:#e5e5e5;fill-opacity:1" />
  </g>
  <rect
     id="north-active-tab-center"
     class="ColorScheme-Background"
     x="306"
     y="79"
     width="26"
     height="20"
     fill="#fff"
     opacity=".15"
     style="fill:#e5e5e5;fill-opacity:1" />
  <rect
     id="hint-tile-center"
     x="45"
     y="120"
     width="42"
     height="42"
     fill="#008000"
     opacity=".875"
     stroke-width="1.0184"
     style="fill:#009900;fill-opacity:1" />
  <rect
     id="north-focus-hint-right-margin"
     transform="scale(-1)"
     x="-338"
     y="-90"
     width="5"
     height="2"
     fill="#4e9a06" />
  <rect
     id="north-focus-hint-left-margin"
     transform="scale(-1)"
     x="-305"
     y="-90"
     width="5"
     height="2"
     fill="#4e9a06" />
  <rect
     id="north-focus-hint-bottom-margin"
     transform="scale(-1)"
     x="-320"
     y="-105"
     width="2"
     height="5"
     fill="#4e9a06" />
  <rect
     id="north-focus-hint-top-margin"
     transform="scale(-1)"
     x="-320"
     y="-78"
     width="2"
     height="5"
     fill="#4e9a06" />
  <g
     id="south-active-tab-top"
     transform="matrix(0.81258,0,0,0.83333,290.56,-575.63)">
    <rect
       class="ColorScheme-Background"
       transform="matrix(0,-1,-1,0,0,0)"
       x="-916.35999"
       y="-51"
       width="6"
       height="32"
       fill="#ffffff"
       opacity="0.15"
       id="rect32"
       style="fill:#e5e5e5;fill-opacity:1" />
  </g>
  <g
     id="south-active-tab-topleft"
     transform="matrix(0.41667,0,0,0.41667,294.58,-196.32)">
    <path
       d="m 25,910.36 c -6.648,0 -12,5.352 -12,12 h 12 v -10 z"
       fill="#ffffff"
       opacity="0.15"
       id="path35"
       style="fill:#e5e5e5;fill-opacity:1" />
  </g>
  <g
     id="south-active-tab-topright"
     transform="matrix(0.41667,0,0,0.41667,314.25,-196.32)">
    <path
       d="m 45,910.36 v 12 h 12 c 0,-6.648 -5.352,-12 -12,-12 z"
       fill="#ffffff"
       opacity="0.15"
       id="path38"
       style="fill:#e5e5e5;fill-opacity:1" />
  </g>
  <g
     id="south-active-tab-bottom"
     transform="matrix(0.8125,0,0,0.83333,290.56,-580.3)">
    <rect
       class="ColorScheme-Background"
       transform="rotate(90)"
       x="948.35999"
       y="-51"
       width="6"
       height="32"
       fill="#ffffff"
       opacity="0.15"
       id="rect41"
       style="fill:#e5e5e5;fill-opacity:1" />
  </g>
  <g
     id="south-active-tab-bottomleft"
     transform="matrix(0.41667,0,0,0.41667,294.58,-182.65)">
    <path
       d="m 13,942.36 c 0,6.648 5.352,12 12,12 v -12 H 15 Z"
       fill="#ffffff"
       opacity="0.15"
       id="path44"
       style="fill:#e5e5e5;fill-opacity:1" />
  </g>
  <g
     id="south-active-tab-bottomright"
     transform="matrix(0.41667,0,0,0.41667,314.25,-182.65)">
    <path
       d="m 45,942.36 v 12 c 6.648,0 12,-5.352 12,-12 H 47 Z"
       fill="#ffffff"
       opacity="0.15"
       id="path47"
       style="fill:#e5e5e5;fill-opacity:1" />
  </g>
  <g
     id="south-active-tab-left"
     transform="matrix(0.83333,0,0,0.625,289.17,-383.73)">
    <rect
       class="ColorScheme-Background"
       transform="scale(-1,1)"
       x="-19"
       y="916.35999"
       width="6"
       height="32"
       fill="#ffffff"
       opacity="0.15"
       id="rect50"
       style="fill:#e5e5e5;fill-opacity:1" />
  </g>
  <g
     id="south-active-tab-right"
     transform="matrix(0.83333,0,0,0.625,290.5,-383.73)">
    <rect
       class="ColorScheme-Background"
       x="51"
       y="916.35999"
       width="6"
       height="32"
       fill="#ffffff"
       opacity="0.15"
       id="rect53"
       style="fill:#e5e5e5;fill-opacity:1" />
  </g>
  <rect
     id="south-active-tab-center"
     class="ColorScheme-Background"
     x="306"
     y="189"
     width="26"
     height="20"
     fill="#fff"
     opacity=".15"
     style="fill:#e5e5e5;fill-opacity:1" />
  <rect
     id="south-focus-hint-right-margin"
     transform="scale(-1)"
     x="-338"
     y="-200"
     width="5"
     height="2"
     fill="#4e9a06" />
  <rect
     id="south-focus-hint-left-margin"
     transform="scale(-1)"
     x="-305"
     y="-200"
     width="5"
     height="2"
     fill="#4e9a06" />
  <rect
     id="south-focus-hint-bottom-margin"
     transform="scale(-1)"
     x="-320"
     y="-215"
     width="2"
     height="5"
     fill="#4e9a06" />
  <rect
     id="south-focus-hint-top-margin"
     transform="scale(-1)"
     x="-320"
     y="-188"
     width="2"
     height="5"
     fill="#4e9a06" />
  <g
     id="west-active-tab-top"
     transform="matrix(0.8125,0,0,0.83333,209.56,-627.63)">
    <rect
       class="ColorScheme-Background"
       transform="matrix(0,-1,-1,0,0,0)"
       x="-916.35999"
       y="-51"
       width="6"
       height="32"
       fill="#ffffff"
       opacity="0.15"
       id="rect61"
       style="fill:#e5e5e5;fill-opacity:1" />
  </g>
  <g
     id="west-active-tab-topleft"
     transform="matrix(0.41667,0,0,0.41667,213.58,-248.32)">
    <path
       d="m 25,910.36 c -6.648,0 -12,5.352 -12,12 h 12 v -10 z"
       fill="#ffffff"
       opacity="0.15"
       id="path64"
       style="fill:#e5e5e5;fill-opacity:1" />
  </g>
  <g
     id="west-active-tab-topright"
     transform="matrix(0.41667,0,0,0.41667,233.25,-248.32)">
    <path
       d="m 45,910.36 v 12 h 12 c 0,-6.648 -5.352,-12 -12,-12 z"
       fill="#ffffff"
       opacity="0.15"
       id="path67"
       style="fill:#e5e5e5;fill-opacity:1" />
  </g>
  <g
     id="west-active-tab-bottom"
     transform="matrix(0.8125,0,0,0.83334,209.56,-632.3)">
    <rect
       class="ColorScheme-Background"
       transform="rotate(90)"
       x="948.35999"
       y="-51"
       width="6"
       height="32"
       fill="#ffffff"
       opacity="0.15"
       id="rect70"
       style="fill:#e5e5e5;fill-opacity:1" />
  </g>
  <g
     id="west-active-tab-bottomleft"
     transform="matrix(0.41667,0,0,0.41666,213.58,-234.64)">
    <path
       d="m 13,942.36 c 0,6.648 5.352,12 12,12 v -12 H 15 Z"
       fill="#ffffff"
       opacity="0.15"
       id="path73"
       style="fill:#e5e5e5;fill-opacity:1" />
  </g>
  <g
     id="west-active-tab-bottomright"
     transform="matrix(0.41667,0,0,0.41667,233.25,-234.65)">
    <path
       d="m 45,942.36 v 12 c 6.648,0 12,-5.352 12,-12 H 47 Z"
       fill="#ffffff"
       opacity="0.15"
       id="path76"
       style="fill:#e5e5e5;fill-opacity:1" />
  </g>
  <g
     id="west-active-tab-left"
     transform="matrix(0.83333,0,0,0.625,208.17,-435.73)">
    <rect
       class="ColorScheme-Background"
       transform="scale(-1,1)"
       x="-19"
       y="916.35999"
       width="6"
       height="32"
       fill="#ffffff"
       opacity="0.15"
       id="rect79"
       style="fill:#e5e5e5;fill-opacity:1" />
  </g>
  <g
     id="west-active-tab-right"
     transform="matrix(0.83333,0,0,0.625,209.5,-435.73)">
    <rect
       class="ColorScheme-Background"
       x="51"
       y="916.35999"
       width="6"
       height="32"
       fill="#ffffff"
       opacity="0.15"
       id="rect82"
       style="fill:#e5e5e5;fill-opacity:1" />
  </g>
  <rect
     id="west-active-tab-center"
     class="ColorScheme-Background"
     x="225"
     y="137"
     width="26"
     height="20"
     fill="#fff"
     opacity=".15"
     style="fill:#e5e5e5;fill-opacity:1" />
  <rect
     id="west-focus-hint-right-margin"
     transform="scale(-1)"
     x="-257"
     y="-148"
     width="5"
     height="2"
     fill="#4e9a06" />
  <rect
     id="west-focus-hint-left-margin"
     transform="scale(-1)"
     x="-224"
     y="-148"
     width="5"
     height="2"
     fill="#4e9a06" />
  <rect
     id="west-focus-hint-bottom-margin"
     transform="scale(-1)"
     x="-239"
     y="-163"
     width="2"
     height="5"
     fill="#4e9a06" />
  <rect
     id="west-focus-hint-top-margin"
     transform="scale(-1)"
     x="-239"
     y="-136"
     width="2"
     height="5"
     fill="#4e9a06" />
  <g
     id="east-active-tab-top"
     transform="matrix(0.8125,0,0,0.83333,373.56,-629.63)">
    <rect
       class="ColorScheme-Background"
       transform="matrix(0,-1,-1,0,0,0)"
       x="-916.35999"
       y="-51"
       width="6"
       height="32"
       fill="#ffffff"
       opacity="0.15"
       id="rect90"
       style="fill:#e5e5e5;fill-opacity:1" />
  </g>
  <g
     id="east-active-tab-topleft"
     transform="matrix(0.41667,0,0,0.41667,377.58,-250.32)">
    <path
       d="m 25,910.36 c -6.648,0 -12,5.352 -12,12 h 12 v -10 z"
       fill="#ffffff"
       opacity="0.15"
       id="path93"
       style="fill:#e5e5e5;fill-opacity:1" />
  </g>
  <g
     id="east-active-tab-topright"
     transform="matrix(0.41667,0,0,0.41667,397.25,-250.32)">
    <path
       d="m 45,910.36 v 12 h 12 c 0,-6.648 -5.352,-12 -12,-12 z"
       fill="#ffffff"
       opacity="0.15"
       id="path96"
       style="fill:#e5e5e5;fill-opacity:1" />
  </g>
  <g
     id="east-active-tab-bottom"
     transform="matrix(0.8125,0,0,0.83334,373.56,-634.3)">
    <rect
       class="ColorScheme-Background"
       transform="rotate(90)"
       x="948.35999"
       y="-51"
       width="6"
       height="32"
       fill="#ffffff"
       opacity="0.15"
       id="rect99"
       style="fill:#e5e5e5;fill-opacity:1" />
  </g>
  <g
     id="east-active-tab-bottomleft"
     transform="matrix(0.41667,0,0,0.41667,377.58,-236.66)">
    <path
       d="m 13,942.36 c 0,6.648 5.352,12 12,12 v -12 H 15 Z"
       fill="#ffffff"
       opacity="0.15"
       id="path102"
       style="fill:#e5e5e5;fill-opacity:1" />
  </g>
  <g
     id="east-active-tab-bottomright"
     transform="matrix(0.41667,0,0,0.41667,397.25,-236.66)">
    <path
       d="m 45,942.36 v 12 c 6.648,0 12,-5.352 12,-12 H 47 Z"
       fill="#ffffff"
       opacity="0.15"
       id="path105"
       style="fill:#e5e5e5;fill-opacity:1" />
  </g>
  <g
     id="east-active-tab-left"
     transform="matrix(0.83333,0,0,0.625,372.17,-437.72)">
    <rect
       class="ColorScheme-Background"
       transform="scale(-1,1)"
       x="-19"
       y="916.35999"
       width="6"
       height="32"
       fill="#ffffff"
       opacity="0.15"
       id="rect108"
       style="fill:#e5e5e5;fill-opacity:1" />
  </g>
  <g
     id="east-active-tab-right"
     transform="matrix(0.83333,0,0,0.625,373.5,-437.72)">
    <rect
       class="ColorScheme-Background"
       x="51"
       y="916.35999"
       width="6"
       height="32"
       fill="#ffffff"
       opacity="0.15"
       id="rect111"
       style="fill:#e5e5e5;fill-opacity:1" />
  </g>
  <rect
     id="east-active-tab-center"
     class="ColorScheme-Background"
     x="389"
     y="135"
     width="26"
     height="20"
     fill="#fff"
     opacity=".15"
     style="fill:#e5e5e5;fill-opacity:1" />
  <rect
     id="east-focus-hint-right-margin"
     transform="scale(-1)"
     x="-421"
     y="-146"
     width="5"
     height="2"
     fill="#4e9a06" />
  <rect
     id="east-focus-hint-left-margin"
     transform="scale(-1)"
     x="-388"
     y="-146"
     width="5"
     height="2"
     fill="#4e9a06" />
  <rect
     id="east-focus-hint-bottom-margin"
     transform="scale(-1)"
     x="-403"
     y="-161"
     width="2"
     height="5"
     fill="#4e9a06" />
  <rect
     id="east-focus-hint-top-margin"
     transform="scale(-1)"
     x="-403"
     y="-134"
     width="2"
     height="5"
     fill="#4e9a06" />
</svg>
