<?xml version="1.0" encoding="UTF-8" standalone="no"?>
<svg
   width="32"
   height="32"
   version="1.1"
   id="svg17"
   sodipodi:docname="applications.svg"
   inkscape:version="1.1.2 (0a00cf5339, 2022-02-04)"
   xmlns:inkscape="http://www.inkscape.org/namespaces/inkscape"
   xmlns:sodipodi="http://sodipodi.sourceforge.net/DTD/sodipodi-0.dtd"
   xmlns:xlink="http://www.w3.org/1999/xlink"
   xmlns="http://www.w3.org/2000/svg"
   xmlns:svg="http://www.w3.org/2000/svg"
   xmlns:rdf="http://www.w3.org/1999/02/22-rdf-syntax-ns#"
   xmlns:cc="http://creativecommons.org/ns#"
   xmlns:dc="http://purl.org/dc/elements/1.1/">
  <metadata
     id="metadata23">
    <rdf:RDF>
      <cc:Work
         rdf:about="">
        <dc:format>image/svg+xml</dc:format>
        <dc:type
           rdf:resource="http://purl.org/dc/dcmitype/StillImage" />
      </cc:Work>
    </rdf:RDF>
  </metadata>
  <defs
     id="defs21">
    <linearGradient
       y2="15.999999"
       x2="51.5"
       y1="15.999999"
       x1="26.5"
       id="_lgradient_4"
       gradientUnits="userSpaceOnUse"
       gradientTransform="matrix(1.1199999,0,0,1.1199999,-27.239997,-1.9800147)">
      <stop
         id="stop15-3"
         style="stop-color:rgb(255,143,195)"
         stop-opacity="1"
         offset="0%" />
      <stop
         id="stop17-6"
         style="stop-color:rgb(161,161,255)"
         stop-opacity="1"
         offset="100%" />
    </linearGradient>
    <linearGradient
       gradientTransform="translate(-0.713573,-0.09564837)"
       gradientUnits="userSpaceOnUse"
       y2="15.939985"
       x2="30.440002"
       y1="15.939985"
       x1="2.440002"
       id="linearGradient860"
       xlink:href="#linearGradient858"
       inkscape:collect="always" />
    <linearGradient
       id="linearGradient858"
       inkscape:collect="always">
      <stop
         id="stop854"
         offset="0"
         style="stop-color:#11e500;stop-opacity:1" />
      <stop
         style="stop-color:#00cc55;stop-opacity:1"
         offset="0.5"
         id="stop862" />
      <stop
         id="stop856"
         offset="1"
         style="stop-color:#84e500;stop-opacity:1" />
    </linearGradient>
  </defs>
  <sodipodi:namedview
     pagecolor="#ffffff"
     bordercolor="#666666"
     inkscape:document-rotation="0"
     borderopacity="1"
     objecttolerance="10"
     gridtolerance="10"
     guidetolerance="10"
     inkscape:pageopacity="0"
     inkscape:pageshadow="2"
     inkscape:window-width="1920"
     inkscape:window-height="970"
     id="namedview19"
     showgrid="false"
     inkscape:zoom="10.636102"
     inkscape:cx="16.124328"
     inkscape:cy="16.030309"
     inkscape:window-x="0"
     inkscape:window-y="26"
     inkscape:window-maximized="1"
     inkscape:current-layer="applications-other-3"
     inkscape:pagecheckerboard="0" />
  <g
     id="applications-other">
    <g
       transform="translate(0.27357099,0.15566293)"
       id="applications-other-3"
       style="clip-rule:evenodd;fill-rule:evenodd;stroke-linejoin:round;stroke-miterlimit:1.41421">
      <path
         inkscape:connector-curvature="0"
         id="rect817"
         transform="translate(-21.999998,-1.5e-5)"
         d="M 22,0 V 32 H 54 V 0 Z"
         style="fill:#ffffc1;fill-opacity:0;stroke-width:1.00213" />
      <path
         style="clip-rule:evenodd;isolation:isolate;vector-effect:non-scaling-stroke;fill:none;fill-rule:evenodd;stroke:url(#linearGradient860);stroke-width:1.12;stroke-linecap:square;stroke-linejoin:miter;stroke-miterlimit:3;stroke-opacity:1"
         inkscape:connector-curvature="0"
         id="path20"
         stroke-miterlimit="3"
         d="m 3.406429,2.4043371 h 8.96 c 0.61824,0 1.120001,0.50176 1.120001,1.1199998 v 8.9600001 c 0,0.618241 -0.501761,1.120001 -1.120001,1.120001 h -8.96 c -0.61824,0 -1.12,-0.50176 -1.12,-1.120001 V 3.5243369 c 0,-0.6182398 0.50176,-1.1199998 1.12,-1.1199998 z m 15.68,0 h 8.960001 c 0.618236,0 1.119999,0.50176 1.119999,1.1199998 v 8.9600001 c 0,0.618241 -0.501763,1.120001 -1.119999,1.120001 h -8.960001 c -0.61824,0 -1.119999,-0.50176 -1.119999,-1.120001 V 3.5243369 c 0,-0.6182398 0.501759,-1.1199998 1.119999,-1.1199998 z m 0,15.6799999 h 8.960001 c 0.618236,0 1.119999,0.50176 1.119999,1.12 v 8.960001 c 0,0.618239 -0.501763,1.119999 -1.119999,1.119999 h -8.960001 c -0.61824,0 -1.119999,-0.50176 -1.119999,-1.119999 v -8.960001 c 0,-0.61824 0.501759,-1.12 1.119999,-1.12 z m -15.68,0 h 8.96 c 0.61824,0 1.120001,0.50176 1.120001,1.12 v 8.960001 c 0,0.618239 -0.501761,1.119999 -1.120001,1.119999 h -8.96 c -0.61824,0 -1.12,-0.50176 -1.12,-1.119999 v -8.960001 c 0,-0.61824 0.50176,-1.12 1.12,-1.12 z" />
    </g>
  </g>
</svg>
