<?xml version="1.0" encoding="UTF-8" standalone="no"?>
<svg
   width="32"
   height="32"
   version="1.1"
   viewBox="0 0 32 32"
   id="svg57"
   sodipodi:docname="applications.svg"
   inkscape:version="1.2.2 (b0a8486541, 2022-12-01)"
   xmlns:inkscape="http://www.inkscape.org/namespaces/inkscape"
   xmlns:sodipodi="http://sodipodi.sourceforge.net/DTD/sodipodi-0.dtd"
   xmlns:xlink="http://www.w3.org/1999/xlink"
   xmlns="http://www.w3.org/2000/svg"
   xmlns:svg="http://www.w3.org/2000/svg">
  <sodipodi:namedview
     id="namedview59"
     pagecolor="#ffffff"
     bordercolor="#666666"
     borderopacity="1.0"
     inkscape:pageshadow="2"
     inkscape:pageopacity="0.0"
     inkscape:pagecheckerboard="0"
     showgrid="false"
     inkscape:zoom="14.125"
     inkscape:cx="-10.973451"
     inkscape:cy="10.053097"
     inkscape:current-layer="svg57"
     inkscape:showpageshadow="2"
     inkscape:deskcolor="#d1d1d1"
     inkscape:window-width="1920"
     inkscape:window-height="1056"
     inkscape:window-x="0"
     inkscape:window-y="24"
     inkscape:window-maximized="1" />
  <defs
     id="defs20">
    <linearGradient
       inkscape:collect="always"
       id="linearGradient2424">
      <stop
         style="stop-color:#abb6ce;stop-opacity:1;"
         offset="0"
         id="stop2420" />
      <stop
         style="stop-color:#b3bbd1;stop-opacity:1;"
         offset="1"
         id="stop2422" />
    </linearGradient>
    <linearGradient
       id="a">
      <stop
         stop-color="#35ff76"
         offset="0"
         id="stop2" />
      <stop
         stop-color="#716ffb"
         offset="1"
         id="stop4" />
    </linearGradient>
    <style
       id="current-color-scheme"
       type="text/css">.ColorScheme-Text { color:#363636; } .ColorScheme-Highlight { color:#11cc00; } .ColorScheme-ButtonBackground { color:#363636; }</style>
    <linearGradient
       id="e"
       x1="6.7966"
       x2="23.881"
       y1="5.7609"
       y2="22.574"
       gradientUnits="userSpaceOnUse"
       xlink:href="#a" />
    <linearGradient
       id="d"
       x1="16.525"
       x2="31.237"
       y1=".74574"
       y2="17.356"
       gradientUnits="userSpaceOnUse"
       xlink:href="#a" />
    <linearGradient
       id="c"
       x1="1.9153"
       x2="15.271"
       y1="11.627"
       y2="28.983"
       gradientUnits="userSpaceOnUse"
       xlink:href="#a" />
    <linearGradient
       id="b"
       x1="10.423"
       x2="23.983"
       y1="7.6949"
       y2="23.831"
       gradientUnits="userSpaceOnUse"
       xlink:href="#a" />
    <linearGradient
       id="linearGradient870"
       x1="6.7966"
       x2="23.881"
       y1="5.7609"
       y2="22.574"
       gradientTransform="matrix(.50001 0 0 .50001 -23.5 12.001)"
       gradientUnits="userSpaceOnUse"
       xlink:href="#a" />
    <linearGradient
       id="linearGradient872"
       x1="1.9153"
       x2="15.271"
       y1="11.627"
       y2="28.983"
       gradientTransform="matrix(.49997 0 0 .49997 -23.5 13)"
       gradientUnits="userSpaceOnUse"
       xlink:href="#a" />
    <linearGradient
       id="linearGradient874"
       x1="10.423"
       x2="23.983"
       y1="7.6949"
       y2="23.831"
       gradientTransform="matrix(.49999 0 0 .49999 -22.499 13)"
       gradientUnits="userSpaceOnUse"
       xlink:href="#a" />
    <linearGradient
       id="linearGradient876"
       x1="16.525"
       x2="31.237"
       y1=".74574"
       y2="17.356"
       gradientTransform="matrix(.5 0 0 .5 -22.499 12)"
       gradientUnits="userSpaceOnUse"
       xlink:href="#a" />
    <linearGradient
       id="linearGradient909"
       x1="6.7966"
       x2="23.881"
       y1="5.7609"
       y2="22.574"
       gradientTransform="matrix(.5 0 0 .5 -45.5 14.001)"
       gradientUnits="userSpaceOnUse"
       xlink:href="#a" />
    <linearGradient
       id="linearGradient911"
       x1="1.9153"
       x2="15.271"
       y1="11.627"
       y2="28.983"
       gradientTransform="matrix(.5 0 0 .5 -45.5 15)"
       gradientUnits="userSpaceOnUse"
       xlink:href="#a" />
    <linearGradient
       id="linearGradient913"
       x1="10.423"
       x2="23.983"
       y1="7.6949"
       y2="23.831"
       gradientTransform="matrix(.49999 0 0 .49999 -44.5 15)"
       gradientUnits="userSpaceOnUse"
       xlink:href="#a" />
    <linearGradient
       id="linearGradient915"
       x1="16.525"
       x2="31.237"
       y1=".74574"
       y2="17.356"
       gradientTransform="matrix(.5 0 0 .5 -44.5 14)"
       gradientUnits="userSpaceOnUse"
       xlink:href="#a" />
    <linearGradient
       inkscape:collect="always"
       xlink:href="#linearGradient2424"
       id="linearGradient6520"
       x1="-44.24976"
       y1="21.999975"
       x2="-29.749611"
       y2="21.999975"
       gradientUnits="userSpaceOnUse" />
    <linearGradient
       inkscape:collect="always"
       xlink:href="#linearGradient2424"
       id="linearGradient6522"
       x1="-22.249769"
       y1="19.999901"
       x2="-7.74966"
       y2="19.999901"
       gradientUnits="userSpaceOnUse"
       gradientTransform="matrix(1.1376441,0,0,1.1376441,2.0646219,-2.7528678)" />
    <linearGradient
       inkscape:collect="always"
       xlink:href="#linearGradient2424"
       id="linearGradient6524"
       x1="2.5999701"
       y1="14.99909"
       x2="29.4"
       y2="14.99909"
       gradientUnits="userSpaceOnUse" />
  </defs>
  <g
     id="applications-other">
    <rect
       x="-2.7563e-7"
       y="-1.2834e-9"
       width="32"
       height="32"
       rx="0"
       ry="0"
       opacity="0"
       stroke-width="2"
       style="paint-order:fill markers stroke"
       id="rect22" />
    <path
       id="path30"
       style="stroke:none;stroke-opacity:1;fill:url(#linearGradient6524);fill-opacity:1;stroke-width:0.8;stroke-dasharray:none"
       d="M 22.6,2 H 22.5986 C 21.1135,2 19.6892,2.59033 18.639,3.6407 17.5891,4.6911 16.9993,6.1156 17,7.6005 V 14 h 6.4005 c 1.4854,0 2.9098,-0.59006 3.96,-1.6405 C 28.4108,11.3091 29.0004,9.8846 29,8.3994 V 7.59846 c 0,-3.092 -2.507,-5.5985 -5.5995,-5.5985 h -0.80105 z m 0.799,14 h -6.3993 v 6.4015 c 0,1.4852 0.59006,2.9093 1.6405,3.9593 1.0504,1.05 2.4748,1.6397 3.9601,1.6392 h 0.80094 c 1.4847,0 2.9088,-0.5899 3.9588,-1.6397 1.0498,-1.05 1.6398,-2.474 1.6398,-3.9588 v -0.80091 c 0,-1.4857 -0.58934,-2.9103 -1.6398,-3.9609 -1.05,-1.0498 -2.4742,-1.6396 -3.9589,-1.6397 h -0.002 M 8.5994,16 C 7.1141,16 5.6893,16.59018 4.6393,17.6406 3.5892,18.6909 2.9996,20.1153 3,21.6006 v 0.80091 c 0,1.4847 0.59,2.9088 1.64,3.9588 1.0501,1.0498 2.4744,1.6397 3.9594,1.6397 h 0.80175 c 1.4854,0 2.9097,-0.59046 3.9597,-1.6409 1.05,-1.0501 1.6394,-2.4746 1.6391,-3.9597 v -6.3994 z M 9.3995,1.9982 H 8.59857 c -3.092,0 -5.5986,2.507 -5.5986,5.5995 v 0.80107 c 0,1.4854 0.59019,2.91 1.6405,3.9601 1.0504,1.0502 2.4749,1.6399 3.9601,1.6393 h 6.3994 v -6.4005 c 0,-1.4854 -0.58991,-2.9101 -1.6403,-3.9603 -1.0499,-1.0495 -2.4738,-1.6392 -3.9581,-1.6392 H 9.3996" />
  </g>
  <g
     id="22-22-applications-other">
    <rect
       x="-26"
       y="9"
       width="22"
       height="22"
       rx="0"
       ry="0"
       opacity="0"
       stroke-width="1.375"
       style="paint-order:fill markers stroke"
       id="rect33" />
    <circle
       fill="#35babd"
       opacity="0.25"
       stroke-linecap="round"
       stroke-linejoin="round"
       stroke-miterlimit="2"
       stroke-width="2"
       id="circle35"
       cy="20"
       cx="-15"
       r="11"
       style="display:none" />
    <path
       id="path43"
       style="fill:url(#linearGradient6522);fill-opacity:1;stroke:none;stroke-width:0.568822;stroke-dasharray:none;stroke-opacity:1"
       d="m -10.676992,12.036505 h -7.96e-4 c -0.844746,0 -1.654931,0.335787 -2.252194,0.933255 -0.597195,0.597491 -0.932663,1.407835 -0.932311,2.252422 v 3.640119 h 3.640689 c 0.8449281,0 1.6551582,-0.335639 2.2525351,-0.933175 0.5974338,-0.597491 0.932834,-1.407834 0.9325837,-2.252649 v -0.455592 c 0,-1.758684 -1.4260368,-3.184494 -3.1851758,-3.184494 h -0.455649 z m 0.455058,9.101153 h -3.64012 v 3.641257 c 0,0.844803 0.335639,1.654817 0.933187,2.25208 0.597479,0.597264 1.407721,0.932664 2.252535,0.932414 h 0.455581 c 0.8445187,0 1.6545896,-0.335549 2.2518527,-0.932664 0.597138,-0.597252 0.9327544,-1.407266 0.9327544,-2.251853 v -0.455558 c 0,-0.845087 -0.3352296,-1.655499 -0.9327544,-2.25299 C -8.56615,21.473206 -9.376164,21.137681 -10.220751,21.137681 h -0.0011 m -9.556255,-2.3e-5 c -0.844826,0 -1.655272,0.335696 -2.252536,0.93313 -0.597286,0.597399 -0.932617,1.407607 -0.932447,2.252421 v 0.455547 c 0,0.844485 0.335594,1.654476 0.932789,2.251739 0.597297,0.597115 1.407379,0.932618 2.25208,0.932618 h 0.456025 c 0.844882,0 1.65493,-0.335856 2.252307,-0.933301 0.597229,-0.597297 0.932447,-1.407493 0.932277,-2.252307 v -3.640006 z m 0.455057,-9.101153 h -0.455592 c -1.758684,0 -3.184607,1.426037 -3.184607,3.185176 v 0.455672 c 0,0.84494 0.335719,1.655272 0.933187,2.252649 0.597502,0.597377 1.407834,0.932845 2.252649,0.932504 h 3.640119 v -3.640688 c 0,-0.84494 -0.335548,-1.655386 -0.933004,-2.252763 -0.597207,-0.596979 -1.407152,-0.932413 -2.251512,-0.932413 h -0.0011" />
  </g>
  <g
     id="16-16-applications-other">
    <rect
       x="-45"
       y="14"
       width="16"
       height="16"
       rx="0"
       ry="0"
       opacity="0"
       style="paint-order:fill markers stroke"
       id="rect46" />
    <path
       id="path54"
       style="stroke:none;stroke-opacity:1;fill:url(#linearGradient6520);stroke-width:0.5;stroke-dasharray:none;fill-opacity:1"
       d="m -33.2,15 h -6.99e-4 c -0.74255,0 -1.4547,0.29517 -1.9798,0.82035 -0.52495,0.5252 -0.81985,1.2374 -0.8195,1.9799 v 3.1997 h 3.2002 c 0.7427,0 1.4549,-0.29503 1.98,-0.82025 0.52515,-0.5252 0.81995,-1.2374 0.81975,-1.9801 v -0.40047 c 0,-1.546 -1.2535,-2.7992 -2.7998,-2.7992 h -0.40052 z m 0.4,8 h -3.1996 v 3.2007 c 0,0.74259 0.29503,1.4546 0.82024,1.9796 0.52519,0.52499 1.2374,0.81984 1.98,0.81959 h 0.40046 c 0.74234,0 1.4544,-0.29495 1.9794,-0.81984 0.52489,-0.52499 0.81989,-1.237 0.81989,-1.9794 V 25.8002 c 0,-0.74284 -0.29467,-1.4551 -0.81989,-1.9804 -0.52499,-0.5249 -1.2371,-0.81979 -1.9794,-0.81984 h -10e-4 M -41.2,23 c -0.74265,0 -1.4551,0.29509 -1.9801,0.8203 -0.52505,0.52515 -0.81985,1.2374 -0.81965,1.98 v 0.40046 c 0,0.74235 0.295,1.4544 0.82,1.9794 0.52505,0.5249 1.2372,0.81986 1.9797,0.81986 h 0.40088 c 0.7427,0 1.4549,-0.29523 1.9799,-0.82046 0.525,-0.52505 0.8197,-1.2373 0.81955,-1.9799 v -3.1997 z m 0.4,-8 h -0.40046 c -1.546,0 -2.7993,1.2535 -2.7993,2.7998 v 0.40053 c 0,0.7427 0.2951,1.455 0.82025,1.98 0.5252,0.5251 1.2374,0.81995 1.98,0.81965 h 3.1997 v -3.2002 c 0,-0.7427 -0.29495,-1.455 -0.82015,-1.9802 -0.52495,-0.52475 -1.2369,-0.8196 -1.9791,-0.8196 h -0.001" />
  </g>
</svg>
