<?xml version="1.0" encoding="UTF-8" standalone="no"?>
<svg
   id="svg50"
   width="32"
   height="32"
   version="1.1"
   sodipodi:docname="audio.svg"
   inkscape:version="1.1.1 (3bf5ae0d25, 2021-09-20)"
   xmlns:inkscape="http://www.inkscape.org/namespaces/inkscape"
   xmlns:sodipodi="http://sodipodi.sourceforge.net/DTD/sodipodi-0.dtd"
   xmlns:xlink="http://www.w3.org/1999/xlink"
   xmlns="http://www.w3.org/2000/svg"
   xmlns:svg="http://www.w3.org/2000/svg"
   xmlns:rdf="http://www.w3.org/1999/02/22-rdf-syntax-ns#"
   xmlns:cc="http://creativecommons.org/ns#"
   xmlns:dc="http://purl.org/dc/elements/1.1/">
  <g
     id="22-22-audio-volume-high"
     transform="translate(0,-22)">
    <path
       style="opacity:0.00100002"
       d="M 0,0 H 22 V 22 H 0 Z"
       id="path7" />
    <path
       d="m 18.778262,18.542333 -0.0043,-0.0045 c -0.124867,0.125 -0.297778,0.201833 -0.490795,0.201833 -0.379677,0 -0.686822,-0.298834 -0.686822,-0.666667 0,-0.197917 0.09032,-0.373042 0.229971,-0.494792 1.729492,-1.686925 2.799041,-4.011175 2.799041,-6.578759 0,-1.456084 -0.353508,-2.828126 -0.966811,-4.056042 l 0.0075,-0.0033 c -0.03895,-0.08429 -0.06178,-0.176125 -0.06178,-0.274084 0,-0.368167 0.308174,-0.666 0.68785,-0.666 0.278958,0 0.516964,0.161125 0.625077,0.39225 l 0.0052,-0.0026 c 0.690522,1.3952 1.07759,2.958701 1.07759,4.609743 0,2.945875 -1.231676,5.612543 -3.222012,7.542918 z M 18.563073,4.999705 c -0.380021,0 -0.687854,-0.298833 -0.687854,-0.666375 0,-0.368166 0.307833,-0.667 0.687854,-0.667 0.378988,0 0.687164,0.298834 0.687164,0.667 0,0.367542 -0.308176,0.666375 -0.687164,0.666375 z m -2.656366,10.666252 c -0.126545,0.145834 -0.312516,0.240251 -0.524011,0.240251 -0.37899,0 -0.687166,-0.298834 -0.687166,-0.666667 0,-0.181625 0.0752,-0.345709 0.196714,-0.465501 l -0.0027,-0.0026 c 0.994998,-0.9655 1.610362,-2.298875 1.610362,-3.772 0,-1.462917 -0.608274,-2.786792 -1.591885,-3.751001 -0.136299,-0.122083 -0.223226,-0.294583 -0.223226,-0.488625 0,-0.3675 0.308177,-0.666333 0.687166,-0.666333 0.190354,0 0.3612,0.07487 0.486069,0.195624 l 0.0037,-0.0033 c 1.243704,1.206367 2.013456,2.872742 2.013456,4.713576 0,1.817542 -0.75265,3.463417 -1.96851,4.666542 z M 10.312616,19 C 10.166606,19 10.023905,18.98437 9.88593,18.95637 9.325309,18.87175 8.787204,18.628246 8.354803,18.208954 l -1.363589,-1.322291 0.0054,-0.0052 c -0.121165,-0.1198 -0.196361,-0.283842 -0.196361,-0.464841 0,-0.368501 0.307145,-0.666667 0.687166,-0.666667 0.186658,0 0.355828,0.07292 0.479709,0.190749 l 0.0037,-0.0033 1.369647,1.328833 c 0.21618,0.209625 0.487101,0.327458 0.766745,0.366542 0.06542,0.02019 0.13293,0.03385 0.20542,0.03385 0.380021,0 0.687165,-0.298833 0.687165,-0.666667 V 4.999705 c 0,-0.3685 -0.307144,-0.666375 -0.687165,-0.666375 -0.07081,0 -0.137287,0.01367 -0.201741,0.03254 C 9.829235,4.40362 9.557325,4.523079 9.340459,4.733371 L 5.628639,8.332706 H 2.750037 c -0.759698,0 -1.375019,0.597667 -1.375019,1.333334 v 2.666542 c 0,0.737 0.615321,1.334042 1.375019,1.334042 h 0.687166 c 0.380021,0 0.688196,0.298166 0.688196,0.666667 0,0.367833 -0.308175,0.666667 -0.688196,0.666667 H 2.750037 C 1.230685,14.999958 0,13.805958 0,12.332582 V 9.66604 C 0,8.193706 1.230685,6.999373 2.750037,6.999373 H 5.045201 L 8.354829,3.790663 C 8.787186,3.372705 9.325334,3.127913 9.885955,3.04358 10.02393,3.01529 10.16663,3 10.31264,3 c 1.138687,0 2.062185,0.8955 2.062185,1.999708 V 17 c 0,1.104166 -0.923498,2 -2.062184,2 z M 5.843805,13.99929 c 0.38002,0 0.687165,0.298834 0.687165,0.667334 0,0.368501 -0.307145,0.666 -0.687165,0.666 -0.379677,0 -0.687853,-0.297541 -0.687853,-0.666 0,-0.368458 0.308176,-0.667334 0.687853,-0.667334 z"
       id="path2-3-9"
       style="fill:#eff0f1;fill-opacity:1;stroke-width:0.042313" />
  </g>
  <g
     id="g5233"
     transform="translate(32.000001,-22)">
    <path
       style="opacity:0.00100002;fill:#c8b7b7"
       d="M 0,0 H 22 V 22 H 0 Z"
       id="path12" />
    <path
       d="m 18.777774,18.542373 -0.0041,-0.0045 c -0.124866,0.125 -0.297766,0.201833 -0.490774,0.201833 -0.379657,0 -0.686786,-0.298834 -0.686786,-0.666667 0,-0.197916 0.09032,-0.373041 0.229967,-0.494791 1.729395,-1.686924 2.79889,-4.011174 2.79889,-6.578757 0,-1.456083 -0.353492,-2.828124 -0.966759,-4.05604 l 0.0077,-0.0033 c -0.03891,-0.08429 -0.0618,-0.176125 -0.0618,-0.274084 0,-0.368166 0.30816,-0.666 0.687817,-0.666 0.278942,0 0.516939,0.161126 0.625044,0.39225 l 0.0055,-0.0026 c 0.690485,1.3952 1.077532,2.9587 1.077532,4.609741 0,2.945874 -1.231609,5.61254 -3.221845,7.542915 z M 18.562595,4.999751 c -0.380001,0 -0.687818,-0.298833 -0.687818,-0.666375 0,-0.368166 0.307817,-0.666999 0.687818,-0.666999 0.37897,0 0.68713,0.298833 0.68713,0.666999 0,0.367542 -0.30816,0.666375 -0.68713,0.666375 z m -2.656226,10.666248 c -0.126537,0.145833 -0.312498,0.24025 -0.523986,0.24025 -0.37897,0 -0.68713,-0.298834 -0.68713,-0.666666 0,-0.181626 0.0752,-0.345709 0.196707,-0.465501 l -0.0027,-0.0026 c 0.994946,-0.9655 1.610276,-2.298874 1.610276,-3.771998 0,-1.462917 -0.608242,-2.786792 -1.591803,-3.751 C 14.771441,7.1264 14.684517,6.953901 14.684517,6.759859 c 0,-0.3675 0.30816,-0.666333 0.687129,-0.666333 0.190348,0 0.361185,0.07487 0.486051,0.195625 l 0.0035,-0.0033 c 1.24364,1.206367 2.013356,2.872741 2.013356,4.713574 0,1.817541 -0.752612,3.463416 -1.968409,4.666541 z m -5.5938,3.334041 c -0.146007,0 -0.288697,-0.01563 -0.426661,-0.04363 C 9.325315,18.87179 8.787236,18.628286 8.354856,18.208994 l -1.363513,-1.32229 0.0053,-0.0052 c -0.121161,-0.1198 -0.196355,-0.283842 -0.196355,-0.464841 0,-0.368501 0.307128,-0.666667 0.687128,-0.666667 0.18665,0 0.355817,0.07292 0.479695,0.19075 l 0.0033,-0.0033 1.369579,1.328833 c 0.216168,0.209628 0.487075,0.327461 0.766703,0.366544 0.06547,0.02019 0.132924,0.03385 0.205411,0.03385 0.380001,0 0.68713,-0.298834 0.68713,-0.666667 V 4.999714 c 0,-0.3685 -0.307129,-0.666375 -0.68713,-0.666375 -0.0708,0 -0.137281,0.01367 -0.201733,0.03254 C 9.82872,4.403629 9.556825,4.523088 9.339976,4.73338 L 5.628346,8.332714 H 2.749895 c -0.759659,0 -1.374949,0.597666 -1.374949,1.333333 v 2.666541 c 0,0.737 0.61529,1.334041 1.374949,1.334041 h 0.687129 c 0.380002,0 0.688162,0.298166 0.688162,0.666667 0,0.367833 -0.30816,0.666667 -0.688162,0.666667 H 2.749895 C 1.23062,14.999963 0,13.805963 0,12.332588 V 9.666047 C 0,8.193713 1.23062,6.999381 2.749895,6.999381 H 5.044943 L 8.35439,3.790673 C 8.786733,3.372714 9.324851,3.127923 9.885443,3.04359 10.023406,3.0153 10.166096,3 10.312104,3 11.450731,3 12.37418,3.8955 12.37418,4.999708 v 12.000289 c 0,1.104167 -0.923449,1.999999 -2.062076,1.999999 z M 5.843988,13.999332 c 0.380003,0 0.687131,0.298834 0.687131,0.667334 0,0.3685 -0.307128,0.665999 -0.687131,0.665999 -0.379657,0 -0.687817,-0.297541 -0.687817,-0.665999 0,-0.368458 0.30816,-0.667334 0.687817,-0.667334 z"
       id="path2-3-3-0"
       style="fill:url(#linearGradient1117-2);fill-opacity:1;stroke-width:0.042312" />
  </g>
  <g
     id="g4720"
     transform="translate(64.000002,-22)">
    <path
       style="opacity:0.00100002"
       d="M 0,0 H 22 V 22 H 0 Z"
       id="path19" />
    <path
       d="m 18.777992,18.542376 -0.004,-0.0045 c -0.124869,0.125 -0.297772,0.201833 -0.490786,0.201833 -0.379666,0 -0.686805,-0.298834 -0.686805,-0.666667 0,-0.197916 0.09032,-0.373041 0.229974,-0.494791 1.729438,-1.686924 2.798963,-4.011174 2.798963,-6.578757 0,-1.456083 -0.353502,-2.828124 -0.966784,-4.05604 l 0.0075,-0.0033 c -0.03893,-0.08429 -0.0618,-0.176125 -0.0618,-0.274084 0,-0.368166 0.308168,-0.666 0.687834,-0.666 0.278952,0 0.516953,0.161126 0.625061,0.39225 l 0.0053,-0.0026 C 21.612942,7.78492 22,9.34842 22,10.999461 c 0,2.945874 -1.231644,5.61254 -3.221929,7.542915 z M 18.562807,4.999754 c -0.38001,0 -0.687835,-0.298833 -0.687835,-0.666375 0,-0.368166 0.307825,-0.666999 0.687835,-0.666999 0.37898,0 0.687147,0.298833 0.687147,0.666999 0,0.367542 -0.308167,0.666375 -0.687147,0.666375 z m -2.656294,10.666248 c -0.12654,0.145833 -0.312506,0.24025 -0.524,0.24025 -0.378979,0 -0.687147,-0.298834 -0.687147,-0.666666 0,-0.181626 0.07518,-0.345709 0.196712,-0.465501 l -0.0027,-0.0026 c 0.994971,-0.9655 1.610315,-2.298874 1.610315,-3.771998 0,-1.462917 -0.608256,-2.786792 -1.591843,-3.751 -0.136296,-0.122084 -0.22322,-0.294583 -0.22322,-0.488625 0,-0.3675 0.308165,-0.666333 0.687145,-0.666333 0.190353,0 0.361196,0.07488 0.486064,0.195625 l 0.0033,-0.0033 c 1.243671,1.206367 2.013407,2.872741 2.013407,4.713574 0,1.817541 -0.752631,3.463416 -1.96846,4.666541 z m -5.593944,3.334041 c -0.14601,0 -0.288706,-0.01563 -0.4266722,-0.04363 -0.5606072,-0.08462 -1.0986997,-0.328124 -1.5310912,-0.747416 l -1.3635491,-1.32229 0.00543,-0.0052 c -0.1211631,-0.1198 -0.196361,-0.283842 -0.196361,-0.464841 0,-0.368501 0.3071365,-0.666667 0.6871475,-0.666667 0.1866537,0 0.3558252,0.07292 0.4797035,0.19075 l 0.00343,-0.0033 1.3696128,1.328833 c 0.2161751,0.209625 0.4870873,0.327458 0.7667267,0.366541 0.06546,0.02019 0.132926,0.03385 0.205417,0.03385 0.38001,0 0.687147,-0.298834 0.687147,-0.666667 V 4.999714 c 0,-0.3685 -0.307137,-0.666375 -0.687147,-0.666375 -0.0708,0 -0.137286,0.01367 -0.201738,0.03254 C 9.8289724,4.403629 9.5570693,4.523088 9.3402146,4.73338 L 5.628491,8.332714 H 2.7499649 c -0.7596774,0 -1.3749824,0.597666 -1.3749824,1.333333 v 2.666541 c 0,0.737 0.615305,1.334041 1.3749824,1.334041 h 0.6871472 c 0.3800109,0 0.6881788,0.298166 0.6881788,0.666667 0,0.367833 -0.3081679,0.666667 -0.6881788,0.666667 H 2.7499649 C 1.2306506,14.999963 0,13.805963 0,12.332588 V 9.666047 C 0,8.193713 1.2306506,6.999381 2.7499649,6.999381 H 5.0450718 L 8.3546066,3.790673 C 8.7869557,3.372714 9.3250895,3.127923 9.8856978,3.04359 10.023663,3.0153 10.166359,3 10.312369,3 c 1.138657,0 2.06213,0.8955 2.06213,1.999708 v 12.000289 c 0,1.104167 -0.923473,2 -2.06213,2 z M 5.8438742,13.999335 c 0.3800109,0 0.6871484,0.298834 0.6871484,0.667334 0,0.3685 -0.3071375,0.665999 -0.6871484,0.665999 -0.3796653,0 -0.6878341,-0.297541 -0.6878341,-0.665999 0,-0.368458 0.3081688,-0.667334 0.6878341,-0.667334 z"
       id="path2-3-3-6-6"
       style="fill:url(#linearGradient1754-6);fill-opacity:1;stroke-width:0.0423126" />
  </g>
  <g
     id="audio-volume-low"
     transform="translate(64.000002)">
    <path
       style="opacity:0.00100002"
       d="M 0,0 H 32.000001 V 32.000001 H 0 Z"
       id="path38" />
    <path
       d="m 27.313689,27.513505 -0.006,-0.0068 c -0.18163,0.1875 -0.43313,0.302749 -0.71388,0.302749 -0.55225,0 -0.999,-0.44825 -0.999,-1 0,-0.296875 0.13138,-0.559562 0.33451,-0.742187 2.51558,-2.530387 4.07127,-6.016762 4.07127,-9.868137 0,-2.184125 -0.51419,-4.242188 -1.40625,-6.084062 l 0.0112,-0.0049 c -0.0566,-0.126438 -0.0899,-0.264188 -0.0899,-0.411126 0,-0.55225 0.44825,-0.999 1.0005,-0.999 0.40575,0 0.75194,0.241688 0.90919,0.588375 l 0.008,-0.0039 c 1.00438,2.0928 1.56738,4.43805 1.56738,6.914613 0,4.418812 -1.7915,8.418812 -4.6865,11.314375 z m -0.313,-20.313938 c -0.55275,0 -1.0005,-0.44825 -1.0005,-0.999562 0,-0.55225 0.44775,-1.0005 1.0005,-1.0005 0.55125,0 0.9995,0.44825 0.9995,1.0005 0,0.551312 -0.44825,0.999562 -0.9995,0.999562 z m -3.86375,15.999375 c -0.18406,0.21875 -0.45456,0.360376 -0.76219,0.360376 -0.55125,0 -0.9995,-0.448251 -0.9995,-1 0,-0.272438 0.10938,-0.518563 0.28613,-0.698251 l -0.004,-0.0039 c 1.44725,-1.44825 2.34231,-3.448312 2.34231,-5.657999 0,-2.194376 -0.88475,-4.180188 -2.31544,-5.626501 -0.19825,-0.183125 -0.32469,-0.441874 -0.32469,-0.732937 0,-0.55125 0.44825,-0.9995 0.9995,-0.9995 0.27688,0 0.52538,0.112312 0.70701,0.293437 l 0.005,-0.0049 c 1.809,1.809551 2.92863,4.309113 2.92863,7.070363 0,2.726312 -1.09475,5.195125 -2.86325,6.999812 z m -8.13675,5.001063 c -0.21238,0 -0.41994,-0.02344 -0.62062,-0.06544 -0.81544,-0.126937 -1.59813,-0.492187 -2.22707,-1.121125 l -1.98337,-1.983435 0.008,-0.0078 c -0.17624,-0.1797 -0.28562,-0.425763 -0.28562,-0.697262 0,-0.552751 0.44675,-1 0.9995,-1 0.2715,0 0.51757,0.109375 0.69776,0.286124 l 0.005,-0.0049 1.99219,1.99325 c 0.31444,0.314437 0.7085,0.491187 1.11525,0.549812 0.0952,0.03028 0.19335,0.05078 0.29879,0.05078 0.55275,0 0.9995,-0.44825 0.9995,-1 V 7.199567 c 0,-0.55275 -0.44675,-0.999562 -0.9995,-0.999562 -0.103,0 -0.19969,0.0205 -0.29344,0.04881 -0.40969,0.05662 -0.80519,0.235813 -1.12062,0.551251 L 8.187,12.199068 H 4 c -1.105,0 -2,0.896499 -2,2 v 3.999812 c 0,1.1055 0.895,2.001063 2,2.001063 h 0.9995 c 0.55275,0 1.001,0.447249 1.001,1 0,0.551749 -0.44825,1 -1.001,1 H 4 c -2.20994,0 -4,-1.791 -4,-4.001063 v -3.999812 c 0,-2.208501 1.79006,-4 4,-4 H 7.33838 L 12.152309,5.386005 C 12.781189,4.759067 13.563939,4.39188 14.379379,4.26538 14.580059,4.22294 14.787619,4.2 14.999999,4.2 c 1.65625,0 2.9995,1.34325 2.9995,2.999562 V 25.2 c 0,1.65625 -1.34325,3 -2.9995,3 z m -6.5,-7.501063 c 0.55275,0 0.9995,0.44825 0.9995,1.001001 0,0.55275 -0.44675,0.998999 -0.9995,0.998999 -0.552249,0 -1.000499,-0.446312 -1.000499,-0.998999 0,-0.552688 0.44825,-1.001001 1.000499,-1.001001 z"
       id="path2-3-3-6"
       style="fill:url(#linearGradient1754);fill-opacity:1;stroke-width:0.0625" />
  </g>
  <g
     id="audio-volume-medium"
     transform="translate(32.000001)">
    <path
       style="opacity:0.00100002"
       d="M 0,0 H 32.000001 V 32.000001 H 0 Z"
       id="path31" />
    <path
       d="m 27.31369,27.513505 -0.006,-0.0068 c -0.18163,0.1875 -0.43313,0.302749 -0.71388,0.302749 -0.55225,0 -0.999,-0.44825 -0.999,-1 0,-0.296875 0.13138,-0.559562 0.33451,-0.742187 2.51558,-2.530387 4.07127,-6.016762 4.07127,-9.868137 0,-2.184125 -0.51419,-4.242188 -1.40625,-6.084062 l 0.0112,-0.0049 c -0.0566,-0.126438 -0.0899,-0.264188 -0.0899,-0.411126 0,-0.55225 0.44825,-0.999 1.0005,-0.999 0.40575,0 0.75194,0.241688 0.90919,0.588375 l 0.008,-0.0039 c 1.00438,2.0928 1.56738,4.43805 1.56738,6.914613 0,4.418812 -1.7915,8.418812 -4.6865,11.314375 z m -0.313,-20.313938 c -0.55275,0 -1.0005,-0.44825 -1.0005,-0.999562 0,-0.55225 0.44775,-1.0005 1.0005,-1.0005 0.55125,0 0.9995,0.44825 0.9995,1.0005 0,0.551312 -0.44825,0.999562 -0.9995,0.999562 z m -3.86375,15.999375 c -0.18406,0.21875 -0.45456,0.360376 -0.76219,0.360376 -0.55125,0 -0.9995,-0.448251 -0.9995,-1 0,-0.272438 0.10938,-0.518563 0.28613,-0.698251 l -0.004,-0.0039 c 1.44725,-1.44825 2.34231,-3.448312 2.34231,-5.657999 0,-2.194376 -0.88475,-4.180188 -2.31544,-5.626501 -0.19825,-0.183125 -0.32469,-0.441874 -0.32469,-0.732937 0,-0.55125 0.44825,-0.9995 0.9995,-0.9995 0.27688,0 0.52538,0.112312 0.70701,0.293437 l 0.005,-0.0049 c 1.809,1.809551 2.92863,4.309113 2.92863,7.070363 0,2.726312 -1.09475,5.195125 -2.86325,6.999812 z m -8.13675,5.001063 c -0.21238,0 -0.41994,-0.02344 -0.62062,-0.06544 -0.81544,-0.126937 -1.59813,-0.492187 -2.22707,-1.121125 l -1.98337,-1.983435 0.008,-0.0078 c -0.17624,-0.1797 -0.28562,-0.425763 -0.28562,-0.697262 0,-0.552751 0.44675,-1 0.9995,-1 0.2715,0 0.51757,0.109375 0.69776,0.286124 l 0.005,-0.0049 1.99219,1.99325 c 0.31444,0.314437 0.7085,0.491187 1.11525,0.549812 0.0952,0.03028 0.19335,0.05078 0.29879,0.05078 0.55275,0 0.9995,-0.44825 0.9995,-1 V 7.199567 c 0,-0.55275 -0.44675,-0.999562 -0.9995,-0.999562 -0.103,0 -0.19969,0.0205 -0.29344,0.04881 -0.40969,0.05662 -0.80519,0.235813 -1.12062,0.551251 L 8.187,12.199068 H 4 c -1.105,0 -2,0.896499 -2,2 v 3.999812 c 0,1.1055 0.895,2.001063 2,2.001063 h 0.9995 c 0.55275,0 1.001,0.447249 1.001,1 0,0.551749 -0.44825,1 -1.001,1 H 4 c -2.20994,0 -4,-1.791 -4,-4.001063 v -3.999812 c 0,-2.208501 1.79006,-4 4,-4 H 7.33838 L 12.15231,5.386005 C 12.78119,4.759067 13.56394,4.39188 14.37938,4.26538 14.58006,4.22294 14.78762,4.2 15,4.2 c 1.65625,0 2.9995,1.34325 2.9995,2.999562 V 25.2 c 0,1.65625 -1.34325,3 -2.9995,3 z m -6.5,-7.501063 c 0.55275,0 0.9995,0.44825 0.9995,1.001001 0,0.55275 -0.44675,0.998999 -0.9995,0.998999 -0.55225,0 -1.0005,-0.446312 -1.0005,-0.998999 0,-0.552688 0.44825,-1.001001 1.0005,-1.001001 z"
       id="path2-3-3"
       style="fill:url(#linearGradient1117);fill-opacity:1;stroke-width:0.0625" />
  </g>
  <metadata
     id="metadata67">
    <rdf:RDF>
      <cc:Work
         rdf:about="">
        <dc:format>image/svg+xml</dc:format>
        <dc:type
           rdf:resource="http://purl.org/dc/dcmitype/StillImage" />
      </cc:Work>
    </rdf:RDF>
  </metadata>
  <defs
     id="defs65">
    <linearGradient
       inkscape:collect="always"
       id="linearGradient1752">
      <stop
         style="stop-color:#eff0f1;stop-opacity:1;"
         offset="0"
         id="stop1748" />
      <stop
         style="stop-color:#eff0f1;stop-opacity:1"
         offset="0.55303192"
         id="stop1790" />
      <stop
         style="stop-color:#eff0f1;stop-opacity:0.506"
         offset="0.69267672"
         id="stop1856" />
      <stop
         style="stop-color:#eff0f1;stop-opacity:0.506"
         offset="1"
         id="stop1750" />
    </linearGradient>
    <linearGradient
       inkscape:collect="always"
       id="linearGradient1115">
      <stop
         style="stop-color:#eff0f1;stop-opacity:1;"
         offset="0"
         id="stop1111" />
      <stop
         style="stop-color:#eff0f1;stop-opacity:0.99971467"
         offset="0.5649448"
         id="stop1345" />
      <stop
         style="stop-color:#eff0f1;stop-opacity:1"
         offset="0.78196776"
         id="stop1411" />
      <stop
         style="stop-color:#eff0f1;stop-opacity:0.341"
         offset="1"
         id="stop1113" />
    </linearGradient>
    <linearGradient
       inkscape:collect="always"
       xlink:href="#linearGradient1115"
       id="linearGradient1117"
       x1="0"
       y1="16.200003"
       x2="32.00071"
       y2="16.200003"
       gradientUnits="userSpaceOnUse" />
    <linearGradient
       inkscape:collect="always"
       xlink:href="#linearGradient1752"
       id="linearGradient1754"
       x1="0"
       y1="16.200003"
       x2="32.00071"
       y2="16.200003"
       gradientUnits="userSpaceOnUse" />
    <linearGradient
       inkscape:collect="always"
       xlink:href="#linearGradient1752"
       id="linearGradient1754-6"
       x1="0"
       y1="16.200003"
       x2="32.00071"
       y2="16.200003"
       gradientUnits="userSpaceOnUse"
       gradientTransform="matrix(0.68749136,0,0,0.66666653,6.9092896e-5,0.200044)" />
    <linearGradient
       inkscape:collect="always"
       xlink:href="#linearGradient1115"
       id="linearGradient1117-2"
       x1="0"
       y1="16.200003"
       x2="32.00071"
       y2="16.200003"
       gradientUnits="userSpaceOnUse"
       gradientTransform="matrix(0.68747363,0,0,0.66666653,3.32e-4,0.200041)" />
  </defs>
  <sodipodi:namedview
     pagecolor="#ffffff"
     bordercolor="#000000"
     borderopacity="1"
     objecttolerance="10"
     gridtolerance="10"
     guidetolerance="10"
     inkscape:pageopacity="0"
     inkscape:pageshadow="2"
     inkscape:window-width="1920"
     inkscape:window-height="1007"
     id="namedview63"
     showgrid="false"
     inkscape:zoom="3.4692425"
     inkscape:cx="57.072978"
     inkscape:cy="5.3325762"
     inkscape:window-x="0"
     inkscape:window-y="0"
     inkscape:window-maximized="1"
     inkscape:current-layer="svg50"
     inkscape:document-rotation="0"
     inkscape:lockguides="false"
     inkscape:showpageshadow="true"
     inkscape:pagecheckerboard="0">
    <inkscape:grid
       type="xygrid"
       id="grid902"
       originx="96.000003"
       originy="0" />
  </sodipodi:namedview>
  <g
     id="audio-volume-high">
    <path
       style="opacity:0.00100002"
       d="M 0,0 H 32.000001 V 32.000001 H 0 Z"
       id="path2" />
    <path
       d="m 27.3135,27.5135 -0.0064,-0.0068 c -0.181625,0.1875 -0.433125,0.302749 -0.713875,0.302749 -0.55225,0 -0.999,-0.44825 -0.999,-1 0,-0.296875 0.131375,-0.559562 0.3345,-0.742187 C 28.444312,23.536875 30,20.0505 30,16.199125 30,14.015 29.485813,11.956937 28.59375,10.115063 l 0.01125,-0.0049 C 28.54837,9.983725 28.51513,9.845975 28.51513,9.699037 c 0,-0.55225 0.44825,-0.999 1.0005,-0.999 0.40575,0 0.751937,0.241688 0.909188,0.588375 l 0.0078,-0.0039 C 31.437,11.377312 32,13.722562 32,16.199125 32,20.617937 30.2085,24.617937 27.3135,27.5135 Z M 27.0005,7.199562 C 26.44775,7.199562 26,6.751312 26,6.2 26,5.64775 26.44775,5.1995 27.0005,5.1995 27.55175,5.1995 28,5.64775 28,6.2 28,6.751312 27.55175,7.199562 27.0005,7.199562 Z m -3.86375,15.999375 c -0.184063,0.21875 -0.454563,0.360376 -0.762188,0.360376 -0.55125,0 -0.9995,-0.448251 -0.9995,-1 0,-0.272438 0.109375,-0.518563 0.286125,-0.698251 l -0.0039,-0.0039 c 1.44725,-1.44825 2.342313,-3.448312 2.342313,-5.657999 0,-2.194376 -0.88475,-4.180188 -2.315438,-5.626501 -0.19825,-0.183125 -0.324687,-0.441874 -0.324687,-0.732937 0,-0.55125 0.44825,-0.9995 0.9995,-0.9995 0.276875,0 0.525375,0.112312 0.707,0.293437 l 0.0054,-0.0049 C 24.880375,10.938313 26,13.437875 26,16.199125 c 0,2.726312 -1.09475,5.195125 -2.86325,6.999812 z M 15,28.2 c -0.212375,0 -0.419937,-0.02344 -0.620625,-0.06544 -0.815437,-0.126937 -1.598125,-0.492187 -2.227063,-1.121125 L 10.168937,25.03 l 0.0078,-0.0078 C 10.0005,24.8425 9.891125,24.596437 9.891125,24.324938 c 0,-0.552751 0.44675,-1 0.9995,-1 0.2715,0 0.517562,0.109375 0.69775,0.286124 l 0.0054,-0.0049 1.992187,1.99325 c 0.314438,0.314437 0.7085,0.491187 1.11525,0.549812 0.09516,0.03028 0.19335,0.05078 0.298788,0.05078 0.55275,0 0.9995,-0.44825 0.9995,-1 V 7.199562 C 15.9995,6.646812 15.55275,6.2 15,6.2 14.897,6.2 14.800313,6.2205 14.706563,6.24881 14.296875,6.30543 13.901375,6.484623 13.585938,6.800061 L 8.187,12.199063 H 4 c -1.105,0 -2,0.896499 -2,2 v 3.999812 c 0,1.1055 0.895,2.001063 2,2.001063 h 0.9995 c 0.55275,0 1.001,0.447249 1.001,1 0,0.551749 -0.44825,1 -1.001,1 H 4 c -2.209937,0 -4,-1.791 -4,-4.001063 v -3.999812 c 0,-2.208501 1.790063,-4 4,-4 H 7.338375 L 12.152313,5.386 C 12.781188,4.759062 13.563938,4.391875 14.379375,4.265375 14.580063,4.222937 14.787625,4.2 15,4.2 c 1.65625,0 2.9995,1.34325 2.9995,2.999562 V 25.2 c 0,1.65625 -1.34325,3 -2.9995,3 z M 8.5,20.698937 c 0.55275,0 0.9994998,0.44825 0.9994998,1.001001 0,0.55275 -0.4467498,0.998999 -0.9994998,0.998999 -0.55225,0 -1.0005,-0.446312 -1.0005,-0.998999 0,-0.552688 0.44825,-1.001001 1.0005,-1.001001 z"
       id="path2-3"
       style="fill:#eff0f1;fill-opacity:1;stroke-width:0.0625" />
  </g>
  <g
     id="audio-volume-muted"
     transform="translate(0,-22)">
    <path
       style="opacity:0.00100002"
       d="M 96.000003,22 H 128 V 54.000001 H 96.000003 Z"
       id="path45" />
    <path
       d="m 123.25004,27.503902 c -0.41386,0 -0.7493,-0.336421 -0.7493,-0.749765 0,-0.414422 0.33544,-0.750094 0.7493,-0.750094 0.41456,0 0.75,0.335719 0.75,0.750094 0,0.413344 -0.33544,0.749765 -0.75,0.749765 z m -1.7678,2.077922 -1.91386,1.913532 c -0.71629,0.680578 -1.8494,0.67214 -2.5522,-0.03038 -0.297,-0.296907 -0.46584,-0.669938 -0.51637,-1.055063 v -1.407234 c 0,-0.828094 -0.67088,-1.498782 -1.4993,-1.498782 v -0.0033 c -0.38527,-0.0018 -0.77124,0.143532 -1.06463,0.43786 l -4.67479,4.672358 c -0.005,0.0048 -0.01,0.0073 -0.015,0.01247 -0.54272,0.542156 -1.29277,0.878625 -2.12114,0.878625 h -2.62514 c -0.82838,0 -1.50043,0.670687 -1.50043,1.499484 v 5.997985 c 0,0.828093 0.672,1.498781 1.50043,1.498781 h 2.62509 c 0.82837,0 1.57842,0.336094 2.12114,0.878625 0.0278,0.02742 0.0553,0.04866 0.0831,0.06881 l 4.599,4.597313 c 0.27244,0.278953 0.65081,0.453984 1.07231,0.453984 0.82842,0 1.4993,-0.671765 1.4993,-1.499859 V 35.469582 c 0,-0.20686 -0.16734,-0.37486 -0.37425,-0.37486 -0.10655,0 -0.20363,0.04467 -0.27174,0.116063 -0.002,0.0015 0.003,-0.0044 0.002,-0.0044 l -5.95033,5.948582 c -0.13622,0.135093 -0.32301,0.219281 -0.53067,0.219281 -0.41381,0 -0.74925,-0.336422 -0.74925,-0.749719 0,-0.206859 0.0831,-0.39539 0.21938,-0.530437 l 6.09867,-6.096469 c 0.32447,-0.304969 0.75914,-0.495703 1.2404,-0.495703 1.00304,0 1.81608,0.812718 1.81608,1.815797 v 11.679342 c 0,1.656187 -1.34292,2.998641 -2.99934,2.998641 V 50 c -0.76683,0 -1.53483,-0.2925 -2.12006,-0.877922 l -4.69828,-4.69725 c -0.27061,-0.263953 -0.63835,-0.426844 -1.04555,-0.426844 H 104.5 c -1.6568,0 -2.99972,-1.342781 -2.99972,-2.99864 v -5.997985 c 0,-1.656937 1.34292,-2.999344 2.99972,-2.999344 h 2.63681 c 0.40725,0 0.77494,-0.162937 1.04555,-0.426843 L 112.88064,26.8775 C 113.46587,26.2925 114.23382,26 115.0007,26 v 0.004 c 1.65642,0 2.99934,1.342781 2.99934,2.99864 v 1.074469 c 0.001,7.5e-4 0.003,-0.0018 0.003,0.0015 0.0103,0.08091 0.0454,0.158906 0.10767,0.220406 0.14649,0.146063 0.38344,0.146063 0.53063,0 0.003,-0.0026 0.004,-7.5e-4 0.006,-0.0026 l 1.7744,-1.774406 c 0.006,-0.0059 0.0128,-0.0077 0.0187,-0.0128 0.13697,-0.155578 0.33619,-0.256266 0.56068,-0.256266 0.41381,0 0.75037,0.336047 0.75037,0.749766 0,0.223688 -0.10036,0.422109 -0.25561,0.559734 -0.006,0.0058 -0.007,0.0135 -0.0128,0.01936 z m -17.73243,15.915657 c 0.41456,0 0.75,0.335344 0.75,0.749765 0,0.206813 -0.0842,0.394266 -0.21975,0.530438 l -2.95139,2.949937 c -0.005,0.0048 -0.0128,0.0066 -0.018,0.01172 -0.13772,0.156327 -0.33619,0.256265 -0.56067,0.256265 -0.41456,0 -0.75,-0.335344 -0.75,-0.749719 0,-0.223688 0.1,-0.422859 0.25561,-0.559734 0.005,-0.0059 0.007,-0.0128 0.0125,-0.01866 l 2.94736,-2.945575 c 0.13622,-0.137672 0.32484,-0.224437 0.53433,-0.224437 z"
       id="path2-7-5"
       style="fill:#eff0f1;fill-opacity:1;stroke-width:0.046875" />
  </g>
  <g
     id="22-22-audio-volume-muted"
     transform="translate(0,-22)">
    <path
       style="opacity:0.00100002"
       d="M 96.000003,0 H 118 V 22 H 96.000003 Z"
       id="path26" />
    <path
       d="m 114.50003,4.002601 c -0.27591,0 -0.49953,-0.22428 -0.49953,-0.499843 0,-0.276281 0.22362,-0.500063 0.49953,-0.500063 0.27637,0 0.5,0.223813 0.5,0.500063 0,0.275563 -0.22363,0.499843 -0.5,0.499843 z m -1.17853,1.385282 -1.27591,1.275688 c -0.47753,0.453718 -1.23293,0.448093 -1.70147,-0.02025 -0.198,-0.197938 -0.31056,-0.446625 -0.34424,-0.703375 V 5.00179 c 0,-0.552063 -0.44726,-0.999188 -0.99954,-0.999188 v -0.0022 c -0.25684,-0.0012 -0.51416,0.09569 -0.70975,0.291907 l -3.11653,3.114905 c -0.003,0.0032 -0.007,0.0049 -0.01,0.0083 -0.36181,0.361438 -0.86184,0.58575 -1.41409,0.58575 h -1.75009 c -0.55226,0 -1.00029,0.447125 -1.00029,0.999657 v 3.998656 c 0,0.552062 0.448,0.999188 1.00029,0.999188 h 1.75006 c 0.55224,0 1.05228,0.224062 1.41409,0.58575 0.0185,0.01828 0.0369,0.03244 0.0554,0.04587 l 3.066,3.064875 c 0.18163,0.185969 0.43387,0.302656 0.71487,0.302656 0.55228,0 0.99954,-0.447843 0.99954,-0.999906 V 9.313046 c 0,-0.137907 -0.11156,-0.249907 -0.2495,-0.249907 -0.071,0 -0.13576,0.02978 -0.18116,0.07737 -0.001,10e-4 0.002,-0.0029 10e-4,-0.0029 l -3.96689,3.965721 c -0.0908,0.09006 -0.21534,0.146188 -0.35378,0.146188 -0.27587,0 -0.4995,-0.224282 -0.4995,-0.499813 0,-0.137906 0.0554,-0.263593 0.14625,-0.353625 l 4.06578,-4.064312 c 0.21632,-0.203313 0.5061,-0.330469 0.82694,-0.330469 0.66869,0 1.21072,0.541812 1.21072,1.210531 v 7.786228 c 0,1.104125 -0.89528,1.999094 -1.99956,1.999094 v 0.0029 c -0.51122,0 -1.02322,-0.195 -1.41338,-0.585281 l -3.13215,-3.131522 c -0.18041,-0.175969 -0.42557,-0.284563 -0.69703,-0.284563 H 102 c -1.10453,0 -1.99981,-0.895187 -1.99981,-1.999093 V 9.000906 c 0,-1.104625 0.89528,-1.999563 1.99981,-1.999563 h 1.75788 c 0.2715,0 0.51662,-0.108624 0.69703,-0.284562 L 107.5871,3.585 C 107.97725,3.195 108.48922,3 109.00047,3 v 0.0027 c 1.10428,0 1.99956,0.895187 1.99956,1.999093 v 0.716313 c 6.7e-4,5e-4 0.002,-0.0012 0.002,0.001 0.007,0.05394 0.0303,0.105937 0.0718,0.146937 0.0977,0.09738 0.25563,0.09738 0.35375,0 0.002,-0.0017 0.003,-5e-4 0.004,-0.0017 l 1.18294,-1.182938 c 0.004,-0.0039 0.008,-0.0051 0.0125,-0.0085 0.0913,-0.103719 0.22412,-0.170844 0.37378,-0.170844 0.27588,0 0.50025,0.224031 0.50025,0.499844 0,0.149125 -0.0669,0.281406 -0.17041,0.373156 -0.004,0.0039 -0.005,0.009 -0.008,0.01291 z m -11.82162,10.610438 c 0.27637,0 0.5,0.223563 0.5,0.499843 0,0.137876 -0.0561,0.262844 -0.1465,0.353626 l -1.967597,1.966624 c -0.0033,0.0032 -0.0085,0.0044 -0.012,0.0078 -0.09181,0.104218 -0.224127,0.170844 -0.37378,0.170844 -0.276373,0 -0.5,-0.223563 -0.5,-0.499813 0,-0.149125 0.06667,-0.281906 0.170407,-0.373156 0.0033,-0.0039 0.0047,-0.0085 0.0083,-0.01244 l 1.96491,-1.963717 c 0.0908,-0.09178 0.21656,-0.149624 0.35622,-0.149624 z"
       id="path2-7-5-3"
       style="fill:#eff0f1;fill-opacity:1;stroke-width:0.03125" />
  </g>
</svg>
