<?xml version="1.0" encoding="UTF-8" standalone="no"?>
<svg
   viewBox="0 0 22 22"
   version="1.0"
   height="22"
   width="22"
   id="svg120"
   sodipodi:docname="battery.svg"
   inkscape:version="1.2.2 (b0a8486541, 2022-12-01)"
   xmlns:inkscape="http://www.inkscape.org/namespaces/inkscape"
   xmlns:sodipodi="http://sodipodi.sourceforge.net/DTD/sodipodi-0.dtd"
   xmlns="http://www.w3.org/2000/svg"
   xmlns:svg="http://www.w3.org/2000/svg"
   xmlns:rdf="http://www.w3.org/1999/02/22-rdf-syntax-ns#"
   xmlns:cc="http://creativecommons.org/ns#"
   xmlns:dc="http://purl.org/dc/elements/1.1/">
  <sodipodi:namedview
     id="namedview119"
     pagecolor="#787878"
     bordercolor="#666666"
     borderopacity="1.0"
     inkscape:pageshadow="2"
     inkscape:pageopacity="0"
     inkscape:pagecheckerboard="0"
     showgrid="true"
     inkscape:snap-bbox="true"
     inkscape:bbox-nodes="true"
     inkscape:snap-nodes="false"
     inkscape:snap-intersection-paths="true"
     inkscape:object-paths="true"
     inkscape:snap-smooth-nodes="true"
     inkscape:snap-bbox-edge-midpoints="true"
     inkscape:zoom="4.9875335"
     inkscape:cx="-77.392964"
     inkscape:cy="21.65399"
     inkscape:window-width="1920"
     inkscape:window-height="1026"
     inkscape:window-x="0"
     inkscape:window-y="24"
     inkscape:window-maximized="1"
     inkscape:current-layer="svg120"
     inkscape:showpageshadow="2"
     inkscape:deskcolor="#5c5c5c">
    <inkscape:grid
       type="xygrid"
       id="grid936"
       visible="false" />
  </sodipodi:namedview>
  <metadata
     id="metadata121">
    <rdf:RDF>
      <cc:Work
         rdf:about="">
        <dc:format>image/svg+xml</dc:format>
        <dc:type
           rdf:resource="http://purl.org/dc/dcmitype/StillImage" />
      </cc:Work>
    </rdf:RDF>
  </metadata>
  <defs
     id="defs5">
    <style
       type="text/css"
       id="current-color-scheme">.ColorScheme-Text { color:#a1adc8; }</style>
  </defs>
  <g
     transform="translate(360,25)"
     id="Fill10">
    <g
       fill="#ff4d62"
       transform="translate(0,-24)"
       id="g1075">
      <path
         d="m 3,-34 c -2.216,0 -4,1.784 -4,4 v 6 c 0,2.216 1.784,4 4,4 h 18 c 2.216,0 4,-1.784 4,-4 v -6 c 0,-2.216 -1.784,-4 -4,-4 z m 0,2 h 18 c 1.108,0 2,0.892 2,2 v 6 c 0,1.108 -0.892,2 -2,2 H 3 c -1.108,0 -2,-0.892 -2,-2 v -6 c 0,-1.108 0.892,-2 2,-2 z"
         id="path1069" />
      <path
         d="m 26,-29 v 4 h 0.5 A 2.25,2.1237 0 0 0 28,-27.0013 2.25,2.1237 0 0 0 26.5,-29 Z"
         id="path1071" />
      <rect
         ry="1"
         height="8"
         width="2"
         y="-31"
         x="2"
         id="rect1073" />
    </g>
    <rect
       fill="none"
       height="32"
       width="32"
       y="-67"
       x="-3"
       id="rect1077" />
  </g>
  <g
     fill="currentColor"
     transform="translate(-154.45,-378.51)"
     class="ColorScheme-Text"
     id="Fill100">
    <rect
       opacity="0"
       ry="0"
       rx="0"
       height="32"
       width="32"
       y="336.51001"
       x="189.44"
       id="rect1022" />
    <rect
       stroke-width="0.8528"
       ry="1"
       rx="0"
       height="8"
       width="20"
       y="348.51001"
       x="194.45"
       id="rect1028" />
  </g>
  <g
     fill="currentColor"
     transform="translate(-114.45,-378.51)"
     class="ColorScheme-Text"
     id="Fill90">
    <rect
       opacity="0"
       ry="0"
       rx="0"
       height="32"
       width="32"
       y="336.51001"
       x="189.44"
       id="rect1042" />
    <rect
       stroke-width="0.849"
       ry="1"
       rx="0"
       height="8"
       width="18"
       y="348.51001"
       x="194.42999"
       id="rect1044" />
  </g>
  <g
     fill="currentColor"
     transform="translate(-79.45,-378.51)"
     class="ColorScheme-Text"
     id="Fill80">
    <rect
       opacity="0"
       ry="0"
       rx="0"
       height="32"
       width="32"
       y="336.51001"
       x="189.44"
       id="rect1048" />
    <rect
       stroke-width="0.8438"
       ry="1"
       rx="0"
       height="8"
       width="16"
       y="348.51001"
       x="194.42999"
       id="rect1050" />
  </g>
  <g
     fill="currentColor"
     transform="translate(-40.45,-378.51)"
     class="ColorScheme-Text"
     id="Fill70">
    <rect
       opacity="0"
       ry="0"
       rx="0"
       height="32"
       width="32"
       y="336.51001"
       x="189.44"
       id="rect1054" />
    <rect
       stroke-width="0.83726"
       ry="1"
       rx="0"
       height="8"
       width="14"
       y="348.51001"
       x="194.42999"
       id="rect1056" />
  </g>
  <g
     fill="currentColor"
     transform="translate(-4.45,-378.51)"
     class="ColorScheme-Text"
     id="Fill60">
    <rect
       opacity="0"
       ry="0"
       rx="0"
       height="32"
       width="32"
       y="336.51001"
       x="189.44"
       id="rect1060" />
    <rect
       stroke-width="0.82877"
       ry="1"
       rx="0"
       height="8"
       width="12"
       y="348.51001"
       x="194.42999"
       id="rect1062" />
  </g>
  <g
     fill="currentColor"
     transform="translate(30.55,-378.51)"
     class="ColorScheme-Text"
     id="Fill50">
    <rect
       opacity="0"
       ry="0"
       rx="0"
       height="32"
       width="32"
       y="336.51001"
       x="189.44"
       id="rect1066" />
    <rect
       stroke-width="0.81731"
       ry="1"
       rx="0"
       height="8"
       width="10"
       y="348.51001"
       x="194.42999"
       id="rect1068" />
  </g>
  <g
     fill="currentColor"
     transform="translate(70.55,-378.51)"
     class="ColorScheme-Text"
     id="Fill40">
    <rect
       opacity="0"
       ry="0"
       rx="0"
       height="32"
       width="32"
       y="336.51001"
       x="189.44"
       id="rect1072" />
    <rect
       stroke-width="0.801"
       ry="1"
       rx="0"
       height="8"
       width="8"
       y="348.51001"
       x="194.42999"
       id="rect1074" />
  </g>
  <g
     fill="currentColor"
     transform="translate(105.55,-378.51)"
     class="ColorScheme-Text"
     id="Fill30">
    <rect
       opacity="0"
       ry="0"
       rx="0"
       height="32"
       width="32"
       y="336.51001"
       x="189.44"
       id="rect1078" />
    <rect
       stroke-width="0.77589"
       ry="1"
       rx="0"
       height="8"
       width="6"
       y="348.51001"
       x="194.42999"
       id="rect1080" />
  </g>
  <g
     fill="currentColor"
     transform="translate(137.55,-378.51)"
     class="ColorScheme-Text"
     id="Fill20">
    <rect
       opacity="0"
       ry="0"
       rx="0"
       height="32"
       width="32"
       y="336.51001"
       x="189.44"
       id="rect1084" />
    <rect
       stroke-width="0.73212"
       ry="1"
       rx="0"
       height="8"
       width="4"
       y="348.51001"
       x="194.42999"
       id="rect1086" />
  </g>
  <g
     fill="currentColor"
     transform="translate(-210.25,-401.51)"
     class="ColorScheme-Text"
     id="battery-ups">
    <g
       transform="translate(1,27)"
       id="g297">
      <path
         opacity="0.5"
         d="m -139,-36 c -2.216,0 -4,1.784 -4,4 v 6 c 0,2.216 1.784,4 4,4 h 18 c 2.216,0 4,-1.784 4,-4 v -6 c 0,-2.216 -1.784,-4 -4,-4 z m 0,1 h 11 l -7,7 h 5 l -2.5,5 h -6.5 c -1.662,0 -3,-1.338 -3,-3 v -6 c 0,-1.662 1.338,-3 3,-3 z m 11.5,0 h 6.5 c 1.662,0 3,1.338 3,3 v 6 c 0,1.662 -1.338,3 -3,3 h -11 l 7,-7 h -5 z m 11.5,4 v 4 a 2,2 0 0 0 2,-2 2,2 0 0 0 -2,-2 z"
         transform="translate(213.54,377.51)"
         id="path275" />
      <path
         d="m -139,-34 c -1.108,0 -2,0.892 -2,2 v 6 c 0,1.108 0.892,2 2,2 h 5.8828 l 1.5,-3 H -135 c -0.89064,-3.51e-4 -1.3366,-1.077 -0.70703,-1.707 l 5.293,-5.293 z m 12.117,0 -1.5,3 h 3.3828 c 0.89064,3.51e-4 1.3366,1.077 0.70703,1.707 l -5.293,5.293 h 8.5859 c 1.108,0 2,-0.892 2,-2 v -6 c 0,-1.108 -0.892,-2 -2,-2 z"
         transform="translate(213.54,377.51)"
         id="rect281" />
    </g>
    <rect
       opacity="0"
       ry="0"
       rx="0"
       height="32"
       width="32"
       y="359.51001"
       x="69.536003"
       id="rect1110" />
  </g>
  <g
     transform="translate(-220.54,-408.51001)"
     fill="currentColor"
     class="ColorScheme-Text"
     id="22-22-battery-ups">
    <path
       d="m -116,12 c -0.554,0 -1,0.446 -1,1 v 5 c 0,0.554 0.446,1 1,1 h 4.8106 l 0.6582,-1.4941 H -113 c -0.87296,5.7e-4 -1.3276,-1.0392 -0.73438,-1.6797 L -110.20508,12 Z m 9.2051,0 -0.66797,1.5059 h 2.4629 c 0.86964,8.8e-4 1.3239,1.0346 0.73633,1.6758 l -3.5137,3.8184 h 5.7773 c 0.554,0 1,-0.446 1,-1 v -5 c 0,-0.554 -0.446,-1 -1,-1 z"
       transform="translate(214.54,404.51)"
       id="rect1160" />
    <rect
       opacity="0"
       ry="0"
       rx="0"
       height="22"
       width="22"
       y="408.51001"
       x="95.536003"
       id="rect930" />
    <path
       opacity="0.5"
       d="m -116,10 c -1.662,0 -3,1.338 -3,3 v 5 c 0,1.662 1.338,3 3,3 h 14 c 1.662,0 3,-1.338 3,-3 v -5 c 0,-1.662 -1.338,-3 -3,-3 h -5 z m 0,1 h 8.0781 L -113,16.5059 h 4 L -110.5371,20 H -116 c -1.108,0 -2,-0.892 -2,-2 v -5 c 0,-1.108 0.89199,-2 2,-2 z m 8.5566,0 H -102 c 1.108,0 2,0.892 2,2 v 5 c 0,1.108 -0.89199,2 -2,2 h -8.0566 L -105,14.5059 h -4 z"
       transform="translate(214.54,404.51)"
       id="path965" />
    <path
       opacity="0.5"
       d="m 116.54,418.59 v 2.8262 a 1.5,1.5 0 0 0 1,-1.4141 1.5,1.5 0 0 0 -1,-1.4121 z"
       id="path1139" />
  </g>
  <g
     transform="translate(-166.53999,-470.5)"
     id="Unavailable">
    <path
       fill="none"
       d="m 118.54,428.5 h 32 v 32 h -32 z"
       id="rect4480" />
    <g
       id="g4580">
      <rect
         fill="#f44336"
         ry="6"
         rx="6"
         height="12"
         width="12"
         y="446.5"
         x="138.53999"
         id="rect4577" />
      <path
         d="m 147.36,450.38 -0.70699,-0.707 -2.1213,2.1213 -2.1213,-2.1213 -0.70711,0.70711 2.1214,2.1212 -2.1214,2.1214 0.70711,0.70711 2.1213,-2.1216 2.1213,2.1216 0.70711,-0.70711 -2.1214,-2.1214 z"
         id="rect4622-0"
         style="fill:#ffffff" />
    </g>
  </g>
  <g
     transform="translate(-300.54,-426.50001)"
     id="22-22-Unavailable">
    <path
       fill="none"
       d="m 258.54,426.5 h 22 v 22 h -22 z"
       id="rect4614" />
    <g
       id="g4631">
      <rect
         fill="#f44336"
         ry="4.5"
         rx="4.5"
         height="9"
         width="9"
         y="439.5"
         x="271.54001"
         id="rect4577-9-1" />
      <path
         d="m 277.89,442.77 -0.61861,-0.61862 -1.2375,1.2375 -1.2375,-1.2375 -0.61861,0.61862 1.2375,1.2375 -1.2375,1.2373 0.61861,0.61862 1.2375,-1.2373 1.2374,1.2374 0.61863,-0.61862 -1.2374,-1.2374 z"
         id="rect4622"
         style="fill:#ffffff" />
    </g>
  </g>
  <g
     transform="translate(-1,25)"
     id="Battery">
    <rect
       fill="none"
       height="32"
       width="32"
       y="-67"
       x="-3"
       id="rect997" />
    <g
       fill="currentColor"
       class="ColorScheme-Text"
       transform="translate(0,-24)"
       id="g995">
      <path
         d="m 3,-34 c -2.216,0 -4,1.784 -4,4 v 6 c 0,2.216 1.784,4 4,4 h 18 c 2.216,0 4,-1.784 4,-4 v -6 c 0,-2.216 -1.784,-4 -4,-4 z m 0,2 h 18 c 1.108,0 2,0.892 2,2 v 6 c 0,1.108 -0.892,2 -2,2 H 3 c -1.108,0 -2,-0.892 -2,-2 v -6 c 0,-1.108 0.892,-2 2,-2 z"
         id="rect939" />
      <path
         d="m 26,-29 v 4 h 0.5 A 2.25,2.1237 0 0 0 28,-27.0013 2.25,2.1237 0 0 0 26.5,-29 Z"
         id="path944" />
    </g>
  </g>
  <g
     transform="translate(39,-23.999999)"
     id="22-22-Fill100">
    <rect
       opacity="0"
       height="22"
       width="22"
       y="24"
       id="rect971"
       x="0" />
    <rect
       fill="currentColor"
       class="ColorScheme-Text"
       ry="1"
       height="6"
       width="12"
       y="32"
       x="3"
       id="rect969" />
  </g>
  <g
     transform="translate(66,-23.999999)"
     id="22-22-Fill90">
    <rect
       opacity="0"
       height="22"
       width="22"
       y="24"
       id="rect977"
       x="0" />
    <rect
       fill="currentColor"
       class="ColorScheme-Text"
       ry="1"
       height="6"
       width="11"
       y="32"
       x="3"
       id="rect979" />
  </g>
  <g
     transform="translate(95,-23.999999)"
     id="22-22-Fill80">
    <rect
       opacity="0"
       height="22"
       width="22"
       y="24"
       id="rect983"
       x="0" />
    <rect
       fill="currentColor"
       class="ColorScheme-Text"
       ry="1"
       height="6"
       width="10"
       y="32"
       x="3"
       id="rect985" />
  </g>
  <g
     transform="translate(123.5,-23.999999)"
     id="22-22-Fill70">
    <rect
       opacity="0"
       height="22"
       width="22"
       y="24"
       id="rect989"
       x="0" />
    <rect
       fill="currentColor"
       class="ColorScheme-Text"
       ry="1"
       height="6"
       width="9"
       y="32"
       x="3"
       id="rect991" />
  </g>
  <g
     transform="translate(155.5,-23.999999)"
     id="22-22-Fill60">
    <rect
       opacity="0"
       height="22"
       width="22"
       y="24"
       id="rect995"
       x="0" />
    <rect
       fill="currentColor"
       class="ColorScheme-Text"
       ry="1"
       height="6"
       width="8"
       y="32"
       x="3"
       id="rect998" />
  </g>
  <g
     transform="translate(190,-23.999999)"
     id="22-22-Fill50">
    <rect
       opacity="0"
       height="22"
       width="22"
       y="24"
       id="rect1002"
       x="0" />
    <rect
       fill="currentColor"
       class="ColorScheme-Text"
       ry="1"
       height="6"
       width="7"
       y="32"
       x="3"
       id="rect1004" />
  </g>
  <g
     transform="translate(219,-23.999999)"
     id="22-22-Fill40">
    <rect
       opacity="0"
       height="22"
       width="22"
       y="24"
       id="rect1008"
       x="0" />
    <rect
       fill="currentColor"
       class="ColorScheme-Text"
       ry="1"
       height="6"
       width="5"
       y="32"
       x="3"
       id="rect1011" />
  </g>
  <g
     transform="translate(249,-23.999999)"
     id="22-22-Fill30">
    <rect
       opacity="0"
       height="22"
       width="22"
       y="24"
       id="rect1015"
       x="0" />
    <rect
       fill="currentColor"
       class="ColorScheme-Text"
       ry="1"
       height="6"
       width="4"
       y="32"
       x="3"
       id="rect1017" />
  </g>
  <g
     transform="translate(279,-23.999999)"
     id="22-22-Fill20">
    <rect
       opacity="0"
       height="22"
       width="22"
       y="24"
       id="rect1021"
       x="0" />
    <rect
       fill="currentColor"
       class="ColorScheme-Text"
       ry="1"
       height="6"
       width="3"
       y="32"
       x="3"
       id="rect1024" />
  </g>
  <g
     transform="translate(402,25)"
     id="Fill0">
    <g
       fill="#ff4d62"
       transform="translate(0,-24)"
       id="g1087">
      <path
         d="m 3,-34 c -2.216,0 -4,1.784 -4,4 v 6 c 0,2.216 1.784,4 4,4 h 18 c 2.216,0 4,-1.784 4,-4 v -6 c 0,-2.216 -1.784,-4 -4,-4 z m 0,2 h 18 c 1.108,0 2,0.892 2,2 v 6 c 0,1.108 -0.892,2 -2,2 H 3 c -1.108,0 -2,-0.892 -2,-2 v -6 c 0,-1.108 0.892,-2 2,-2 z"
         id="path1081" />
      <path
         d="m 26,-29 v 4 h 0.5 A 2.25,2.1237 0 0 0 28,-27.0013 2.25,2.1237 0 0 0 26.5,-29 Z"
         id="path1083" />
    </g>
    <rect
       fill="none"
       height="32"
       width="32"
       y="-67"
       x="-3"
       id="rect1089" />
  </g>
  <g
     id="22-22-Battery">
    <rect
       fill="none"
       height="22"
       width="22"
       id="rect972"
       x="0"
       y="0" />
    <path
       fill="currentColor"
       class="ColorScheme-Text"
       d="m 20,9 v 4 h 0.5 A 1.5,2 0 0 0 22,11 1.5,2 0 0 0 20.5,9 Z"
       id="path963" />
    <path
       fill="currentColor"
       class="ColorScheme-Text"
       d="M 3.9766,5 C 1.7731,5 0,6.773 0,8.9766 v 4.0469 c 0,2.2035 1.773,3.9766 3.9766,3.9766 h 11.047 c 2.2035,0 3.9766,-1.773 3.9766,-3.9766 V 8.9766 C 19.0002,6.7731 17.2272,5 15.0236,5 Z m 0.023438,1.7 h 11 C 16.108038,6.7 17.3,7.892 17.3,9 v 4 c 0,1.108 -1.191962,2.3 -2.299962,2.3 h -11 C 2.892038,15.3 1.7,14.108 1.7,13 V 9 C 1.7,7.892 2.892038,6.7 4.000038,6.7 Z"
       id="rect942"
       sodipodi:nodetypes="ssssssssssssssssss" />
  </g>
  <g
     transform="translate(-6,-16.999999)"
     id="22-22-Fill10">
    <rect
       fill="none"
       height="22"
       width="22"
       y="17"
       x="313"
       id="rect952" />
    <path
       fill="#ff4d62"
       d="m 333,26 v 4 h 0.5 a 1.5,2 0 0 0 1.5,-2 1.5,2 0 0 0 -1.5,-2 z"
       id="path954" />
    <path
       fill="#ff4d62"
       d="m 316.98,22 c -2.2035,0 -3.9766,1.773 -3.9766,3.9766 v 4.0469 c 0,2.2035 1.773,3.9766 3.9766,3.9766 h 11.047 c 2.2035,0 3.9766,-1.773 3.9766,-3.9766 V 25.9766 C 332.0036,23.7731 330.2306,22 328.027,22 Z m 0.0234,2 h 11 c 1.108,0 2,0.892 2,2 v 4 c 0,1.108 -0.892,2 -2,2 h -11 c -1.108,0 -2,-0.892 -2,-2 v -4 c 0,-1.108 0.892,-2 2,-2 z"
       id="path956" />
    <rect
       fill="#ff4d62"
       ry="1"
       height="6"
       width="2"
       y="25"
       x="316"
       id="rect960" />
  </g>
  <g
     transform="translate(30,-16.999999)"
     id="22-22-Fill0">
    <rect
       fill="none"
       height="22"
       width="22"
       y="17"
       x="313"
       id="rect973" />
    <path
       fill="#ff4d62"
       d="m 333,26 v 4 h 0.5 a 1.5,2 0 0 0 1.5,-2 1.5,2 0 0 0 -1.5,-2 z"
       id="path975" />
    <path
       fill="#ff4d62"
       d="m 316.98,22 c -2.2035,0 -3.9766,1.773 -3.9766,3.9766 v 4.0469 c 0,2.2035 1.773,3.9766 3.9766,3.9766 h 11.047 c 2.2035,0 3.9766,-1.773 3.9766,-3.9766 V 25.9766 C 332.0036,23.7731 330.2306,22 328.027,22 Z m 0.0234,2 h 11 c 1.108,0 2,0.892 2,2 v 4 c 0,1.108 -0.892,2 -2,2 h -11 c -1.108,0 -2,-0.892 -2,-2 v -4 c 0,-1.108 0.892,-2 2,-2 z"
       id="path977" />
  </g>
  <g
     transform="matrix(0.49999985,0,0,0.49999985,168.5,78.49999)"
     id="16-16-Fill10">
    <g
       fill="#ff4d62"
       transform="translate(0,-24)"
       id="g1065">
      <path
         d="m 3.0000009,-34.999997 c -2.216,0 -4,1.784 -4,4 v 8.000004 c 0,2.216 1.784,4 4,4 H 21.000001 c 2.216,0 4,-1.784 4,-4 v -8.000004 c 0,-2.216 -1.784,-4 -4,-4 z m 0,2 H 21.000001 c 1.108,0 2,0.892 2,2 v 8.000004 c 0,1.108 -0.892,2 -2,2 H 3.0000009 c -1.108,0 -2,-0.892 -2,-2 v -8.000004 c 0,-1.108 0.892,-2 2,-2 z"
         id="path1059"
         sodipodi:nodetypes="ssssssssssssssssss" />
      <path
         d="m 27.000008,-29 v 4 h 0.5 c 0.898634,-0.29988 1.499577,-1.101658 1.5,-2.0013 -0.0016,-0.898687 -0.602318,-1.699138 -1.5,-1.9987 z"
         id="path1061"
         sodipodi:nodetypes="cccccc" />
      <rect
         ry="1"
         height="8"
         width="2"
         y="-31"
         x="3.0000014"
         id="rect1063" />
    </g>
    <rect
       fill="none"
       height="32"
       width="32"
       y="-67"
       x="-3"
       id="rect1067" />
  </g>
  <g
     fill="currentColor"
     transform="matrix(0.49999985,0,0,0.49999985,-94.719973,-123.25495)"
     class="ColorScheme-Text"
     id="16-16-Fill100">
    <rect
       opacity="0"
       ry="0"
       rx="0"
       height="32"
       width="32"
       y="336.51001"
       x="189.44"
       id="rect1071" />
    <rect
       stroke-width="0.809037"
       ry="0.99999911"
       rx="0"
       height="7.9999928"
       width="18.000006"
       y="348.51001"
       x="195.44"
       id="rect1075" />
  </g>
  <g
     fill="currentColor"
     transform="matrix(0.49999985,0,0,0.49999985,-74.719973,-123.25495)"
     class="ColorScheme-Text"
     id="16-16-Fill90">
    <rect
       opacity="0"
       ry="0"
       rx="0"
       height="32"
       width="32"
       y="336.51001"
       x="189.44"
       id="rect1079" />
    <rect
       stroke-width="0.800445"
       ry="1"
       rx="0"
       height="8"
       width="16.000006"
       y="348.51001"
       x="195.44"
       id="rect1081" />
  </g>
  <g
     fill="currentColor"
     transform="matrix(0.49999985,0,0,0.49999985,-57.719973,-123.25495)"
     class="ColorScheme-Text"
     id="16-16-Fill80">
    <rect
       opacity="0"
       ry="0"
       rx="0"
       height="32"
       width="32"
       y="336.51001"
       x="189.44"
       id="rect1085" />
    <rect
       stroke-width="0.789303"
       ry="1"
       rx="0"
       height="8"
       width="14.000004"
       y="348.51001"
       x="195.44"
       id="rect1087" />
  </g>
  <g
     fill="currentColor"
     transform="matrix(0.49999985,0,0,0.49999985,-37.719973,-123.25495)"
     class="ColorScheme-Text"
     id="16-16-Fill70">
    <rect
       opacity="0"
       ry="0"
       rx="0"
       height="32"
       width="32"
       y="336.51001"
       x="189.44"
       id="rect1091" />
    <rect
       stroke-width="0.775152"
       ry="1"
       rx="0"
       height="8"
       width="12.000004"
       y="348.51001"
       x="195.44"
       id="rect1093" />
  </g>
  <g
     fill="currentColor"
     transform="matrix(0.49999985,0,0,0.49999985,-19.719973,-123.25495)"
     class="ColorScheme-Text"
     id="16-16-Fill60">
    <rect
       opacity="0"
       ry="0"
       rx="0"
       height="32"
       width="32"
       y="336.51001"
       x="189.44"
       id="rect1097" />
    <rect
       stroke-width="0.75656"
       ry="1"
       rx="0"
       height="8"
       width="10.000003"
       y="348.51001"
       x="195.44"
       id="rect1099" />
  </g>
  <g
     fill="currentColor"
     transform="matrix(0.49999985,0,0,0.49999985,-1.7199728,-123.25495)"
     class="ColorScheme-Text"
     id="16-16-Fill50">
    <rect
       opacity="0"
       ry="0"
       rx="0"
       height="32"
       width="32"
       y="336.51001"
       x="189.44"
       id="rect1103" />
    <rect
       stroke-width="0.731024"
       ry="1"
       rx="0"
       height="8"
       width="8.0000029"
       y="348.51001"
       x="195.44"
       id="rect1105" />
  </g>
  <g
     fill="currentColor"
     transform="matrix(0.49999985,0,0,0.49999985,18.280027,-123.25495)"
     class="ColorScheme-Text"
     id="16-16-Fill40">
    <rect
       opacity="0"
       ry="0"
       rx="0"
       height="32"
       width="32"
       y="336.51001"
       x="189.44"
       id="rect1109" />
    <rect
       stroke-width="0.693686"
       ry="1"
       rx="0"
       height="8"
       width="6.0000019"
       y="348.51001"
       x="195.44"
       id="rect1111" />
  </g>
  <g
     fill="currentColor"
     transform="matrix(0.49999985,0,0,0.49999985,35.280027,-123.25495)"
     class="ColorScheme-Text"
     id="16-16-Fill30">
    <rect
       opacity="0"
       ry="0"
       rx="0"
       height="32"
       width="32"
       y="336.51001"
       x="189.44"
       id="rect1115" />
    <rect
       stroke-width="0.633512"
       ry="1"
       rx="0"
       height="8"
       width="4.0000014"
       y="348.51001"
       x="195.44"
       id="rect1117" />
  </g>
  <g
     fill="currentColor"
     transform="matrix(0.49999985,0,0,0.49999985,53.280027,-123.25495)"
     class="ColorScheme-Text"
     id="16-16-Fill20">
    <rect
       opacity="0"
       ry="0"
       rx="0"
       height="32"
       width="32"
       y="336.51001"
       x="189.44"
       id="rect1121" />
    <rect
       stroke-width="0.517687"
       ry="1"
       rx="0"
       height="8"
       width="2.0000007"
       y="348.51001"
       x="195.44"
       id="rect1123" />
  </g>
  <g
     fill="currentColor"
     transform="matrix(0.49999985,0,0,0.49999985,-122.76999,-134.75494)"
     class="ColorScheme-Text"
     id="16-16-battery-ups">
    <g
       transform="translate(1,27)"
       id="g1142">
      <path
         opacity="0.5"
         d="m -139,-37.00001 c -2.216,0 -4,1.784 -4,4 v 8.000004 c 0,2.216 1.784,4 4,4 h 18 c 2.216,0 4,-1.784 4,-4 v -8.000004 c 0,-2.216 -1.784,-4 -4,-4 z m 0,1 h 11 L -135,-28 h 5 l -2.5,5.999994 h -6.5 c -1.662,0 -3,-1.338 -3,-3 v -8.000004 c 0,-1.662 1.338,-3 3,-3 z m 11.5,0 h 6.5 c 1.662,0 3,1.338 3,3 v 8.000004 c 0,1.662 -1.338,3 -3,3 h -11 L -125,-30 h -5 z M -114.99999,-31 v 4 c 1.10457,0 2,-0.895431 2,-2 0,-1.104569 -0.89543,-2 -2,-2 z"
         transform="translate(213.54,377.51)"
         id="path1138"
         sodipodi:nodetypes="ssssssssssccccsssscssssccccccsc" />
      <path
         d="m -139,-35.000009 c -1.108,0 -2,0.892 -2,2 v 8.000003 c 0,1.108 0.892,2 2,2 h 5.8828 L -131.6172,-27 H -135 c -0.89064,-3.51e-4 -1.3366,-1.077 -0.70703,-1.707 l 5.293,-6.293009 z m 12.117,0 -1.5,4.000009 h 3.3828 c 0.89064,3.51e-4 1.3366,1.077 0.70703,1.707 l -5.293,6.292994 h 8.5859 c 1.108,0 2,-0.892 2,-2 v -8.000003 c 0,-1.108 -0.892,-2 -2,-2 z"
         transform="translate(213.54,377.51)"
         id="path1140" />
    </g>
    <rect
       opacity="0"
       ry="0"
       rx="0"
       height="32"
       width="32"
       y="359.51001"
       x="69.536003"
       id="rect1144" />
  </g>
  <g
     transform="matrix(0.49999985,0,0,0.49999985,-101.26998,-169.24993)"
     id="16-16-Unavailable">
    <path
       fill="none"
       d="m 118.54,428.5 h 32 v 32 h -32 z"
       id="path1148" />
    <g
       id="g1154">
      <rect
         fill="#f44336"
         ry="6"
         rx="6"
         height="12"
         width="12"
         y="446.5"
         x="138.54001"
         id="rect1150" />
      <path
         d="m 147.36002,450.38 -0.70699,-0.707 -2.1213,2.1213 -2.1213,-2.1213 -0.70711,0.70711 2.1214,2.1212 -2.1214,2.1214 0.70711,0.70711 2.1213,-2.1216 2.1213,2.1216 0.70711,-0.70711 -2.1214,-2.1214 z"
         id="path1152"
         style="fill:#ffffff" />
    </g>
  </g>
  <g
     transform="matrix(0.49999985,0,0,0.49999985,-18.499996,78.49999)"
     id="16-16-Battery">
    <rect
       fill="none"
       height="32"
       width="32"
       y="-67"
       x="-3"
       id="rect1164" />
    <g
       fill="currentColor"
       class="ColorScheme-Text"
       transform="translate(0,-24)"
       id="g1162">
      <path
         d="m 3,-34.999998 c -2.216,0 -4,1.784 -4,4 v 8.000004 c 0,2.216 1.784,4 4,4 h 18 c 2.216,0 4,-1.784 4,-4 v -8.000004 c 0,-2.216 -1.784,-4 -4,-4 z m 0,2 h 18 c 1.108,0 2,0.892 2,2 v 8.000004 c 0,1.108 -0.892,2 -2,2 H 3 c -1.108,0 -2,-0.892 -2,-2 v -8.000004 c 0,-1.108 0.892,-2 2,-2 z"
         id="path1158"
         sodipodi:nodetypes="ssssssssssssssssss" />
      <path
         d="m 27,-29 v 4 h 0.5 c 0.898634,-0.29988 1.499577,-1.101658 1.5,-2.0013 -0.0016,-0.898687 -0.602318,-1.699138 -1.5,-1.9987 z"
         id="path1160"
         sodipodi:nodetypes="cccccc" />
    </g>
  </g>
  <g
     transform="matrix(0.49999985,0,0,0.49999985,189.50495,78.499982)"
     id="16-16-Fill0">
    <g
       fill="#ff4d62"
       transform="translate(0,-24)"
       id="g1172">
      <path
         d="m 2.9901009,-34.999982 c -2.216,0 -4,1.784 -4,4 v 8.000005 c 0,2.216 1.784,4 4,4 H 20.990101 c 2.216,0 4,-1.784 4,-4 v -8.000005 c 0,-2.216 -1.784,-4 -4,-4 z m 0,2 H 20.990101 c 1.108,0 2,0.892 2,2 v 8.000005 c 0,1.108 -0.892,2 -2,2 H 2.9901009 c -1.108,0 -2,-0.892 -2,-2 v -8.000005 c 0,-1.108 0.892,-2 2,-2 z"
         id="path1168"
         sodipodi:nodetypes="ssssssssssssssssss" />
      <path
         d="m 26.990108,-29 v 4 h 0.5 c 0.898634,-0.29988 1.499577,-1.101658 1.5,-2.0013 -0.0016,-0.898687 -0.602318,-1.699138 -1.5,-1.9987 z"
         id="path1170"
         sodipodi:nodetypes="cccccc" />
    </g>
    <rect
       fill="none"
       height="32"
       width="32"
       y="-67"
       x="-3"
       id="rect1174" />
  </g>
  <g
     transform="translate(-69.54,-403.51)"
     id="AcAdapter">
    <rect
       opacity="0"
       ry="0"
       rx="0"
       height="32"
       width="32"
       y="361.51001"
       x="-16.460007"
       id="rect1129" />
    <path
       id="path1672"
       style="display:none;fill:currentColor"
       class="ColorScheme-Text"
       d="m -10.46,370.51 c -2.215998,0 -4,1.784 -4,4 v 6 c 0,2.216 1.784002,4 4,4 h 2.8300781 c 9.702e-4,-0.003 9.742e-4,-0.005 0.00195,-0.008 0.00466,-0.0125 0.00857,-0.0248 0.013672,-0.0371 a 0.58670689,0.58670689 0 0 1 0.00781,-0.0176 l 0.875,-1.9375 H -10.46 c -1.107999,0 -2,-0.892 -2,-2 v -6 c 0,-1.108 0.892001,-2 2,-2 h 5.6054688 c 0.1263257,-0.11309 0.2626778,-0.23682 0.3867187,-0.34766 0.6627635,-0.59219 1.2911092,-1.15045 1.8574219,-1.65234 z m 14.1894531,0 c -0.021696,0.0666 -0.044934,0.13288 -0.074219,0.19922 l -0.00391,0.0195 a 0.58670689,0.58670689 0 0 0 0,0.002 L 2.8485938,372.51 H 7.54 c 1.1079989,0 2,0.892 2,2 v 6 c 0,1.108 -0.8920011,2 -2,2 H 0.85835938 l -2.20507808,2 H 7.54 c 2.2159978,0 4,-1.784 4,-4 v -6 c 0,-2.216 -1.7840022,-4 -4,-4 z" />
    <path
       id="path275-3"
       style="opacity:0.8;fill:#161e2a;fill-opacity:1;stroke-width:1.71612"
       inkscape:label="path256"
       d="m -2.483768,369.51 c -2.0387276,2.50856 -4.0891027,5.02969 -5.9344115,7.35482 -1.5373456,1.69436 -1.1344866,4.00609 0.5567552,4.03692 l 2.6533505,-1.9e-4 -1.5032228,4.53679 c -0.00229,0.007 -0.00449,0.0134 -0.00661,0.0201 -0.00431,0.014 -0.00763,0.0281 -0.011569,0.0424 -8.284e-4,0.003 -8.318e-4,0.006 -0.00165,0.009 h 5.3165974 l 6.1119649,-7.48717 0.3747168,-0.45902 c 1.1602798,-1.49317 1.0014959,-3.51728 -0.9420135,-3.48808 -0.8311451,0.005 -1.9162146,0.009 -2.7474726,0.0134 l 1.4319576,-4.32659 c 9e-7,-7.4e-4 9e-7,-0.001 0,-0.002 l 0.0033,-0.0223 c 0.02478,-0.0758 0.044443,-0.15154 0.062801,-0.22767 z"
       sodipodi:nodetypes="cccccccccccccccccc" />
    <path
       id="path355"
       d="m -6.7837129,378.818 h 4.8593676 l -2.4220911,6.54253 7.2814589,-9.16775 h -4.8593678 l 2.41829469,-6.53485 c -0.001767,8e-5 -0.005694,0 -0.005694,0 z"
       sodipodi:nodetypes="cccccccc"
       class="ColorScheme-Text"
       style="fill:currentColor;fill-opacity:1;stroke-width:1.12946" />
    <path
       fill="#4caf50"
       d="m 6.5357,375.51 c 0,-0.554 -0.446,-1 -1,-1 h -3 v -2 c -3.3259,3.9e-4 -6.1922,1.6723 -6.8574,4 h -4.1426 c -0.554,0 -1,0.446 -1,1 0,0.554 0.446,1 1,1 h 4.1426 c 0.66518,2.3277 3.5315,3.9996 6.8574,4 v -2 h 3 c 0.554,0 1,-0.446 1,-1 0,-0.554 -0.446,-1 -1,-1 h -3 v -2 h 3 c 0.554,0 1,-0.446 1,-1 z"
       id="path1137"
       style="display:none" />
  </g>
  <g
     transform="matrix(0.6875,0,0,0.6875,-69.034331,-248.53813)"
     id="g382"
     inkscape:label="22-22-AcAdapter">
    <rect
       opacity="0"
       ry="0"
       rx="0"
       height="32"
       width="32"
       y="361.51001"
       x="-16.460007"
       id="rect372" />
    <path
       id="path1151"
       style="display:none;fill:#a1adc8;fill-opacity:1"
       class="ColorScheme-Text"
       d="m -75.562496,4.999998 c -2.203498,0 -3.976562,1.7729645 -3.976562,3.9765623 v 4.0468747 c 0,2.203498 1.772964,3.976563 3.976562,3.976563 h 11.048828 c 2.203498,0 3.976562,-1.772965 3.976562,-3.976563 V 8.9765603 c 0,-2.2034978 -1.772964,-3.9765623 -3.976562,-3.9765623 z m 4.693359,0.021484 h 4.582031 c -0.01568,0.056893 -0.03352,0.1132937 -0.05469,0.1699219 l -0.002,0.017578 -0.5625,1.4902344 h 2.367187 c 1.107999,0 2.300781,1.1927823 2.300781,2.3007811 v 4.0000006 c 0,1.107999 -1.192782,2.300781 -2.300781,2.300781 h -3.853515 l -1.564453,1.677734 h -4.541016 c 6.99e-4,-0.0026 0.0012,-0.0033 0.002,-0.0059 0.0034,-0.01068 0.0061,-0.02074 0.0098,-0.03125 0.0018,-0.005 0.0039,-0.0105 0.0059,-0.01563 l 0.615235,-1.625 h -1.673829 c -1.107998,0 -2.298828,-1.192782 -2.298828,-2.300781 V 8.9999978 c 0,-1.1079988 1.19083,-2.3007811 2.298828,-2.3007811 h 3.113282 c 0.518646,-0.5593386 1.034799,-1.115888 1.55664,-1.6777344 z"
       transform="matrix(1.4545455,0,0,1.4545455,100.41357,361.51001)" />
    <path
       id="path376"
       style="display:inline;opacity:0.8;fill:#161e2a;fill-opacity:1;stroke-width:1.99442"
       inkscape:label="path256"
       d="m -2.6021953,368.08601 c -2.3375238,2.95507 -4.6884021,5.92495 -6.8041596,8.66393 -1.7626591,1.99593 -1.3007571,4.71915 0.6383533,4.75546 l 3.0422259,-2.1e-4 -1.7235353,5.3443 c -0.00262,0.008 -0.00514,0.0157 -0.00758,0.0237 -0.00495,0.0166 -0.00874,0.0332 -0.013265,0.05 -9.505e-4,0.004 -9.505e-4,0.007 -0.00189,0.0108 h 6.0957985 l 7.0077352,-8.81981 0.4296354,-0.54074 c 1.3303306,-1.75893 1.1482752,-4.14334 -1.0800753,-4.10895 -0.9529578,0.005 -2.197055,0.0108 -3.1501424,0.0157 l 1.6418255,-5.09664 c 1.1e-6,-8.8e-4 1.1e-6,-0.001 0,-0.002 l 0.00379,-0.0262 c 0.028412,-0.0893 0.050956,-0.17853 0.072005,-0.2682 z"
       sodipodi:nodetypes="cccccccccccccccccc" />
    <path
       id="path378"
       d="m -7.5323408,379.05077 h 5.5715572 l -2.777073,7.70705 8.3486304,-10.79954 h -5.5715574 l 2.77272046,-7.69801 c -0.002021,1e-4 -0.006525,0 -0.006525,0 z"
       sodipodi:nodetypes="cccccccc"
       class="ColorScheme-Text"
       style="fill:currentColor;fill-opacity:1;stroke-width:1.31264" />
    <path
       fill="#4caf50"
       d="m 6.9455085,375.02525 c 0,-0.68827 -0.4688592,-1.24236 -1.0512536,-1.24236 H 2.7404941 v -2.48471 c -3.49636439,4.8e-4 -6.5095726,2.07759 -7.2088665,4.96943 h -4.3549231 c -0.5823945,0 -1.0512536,0.55409 -1.0512536,1.24236 0,0.68826 0.4688591,1.24236 1.0512536,1.24236 h 4.3549231 c 0.6992729,2.89183 3.71250211,4.96893 7.2088665,4.96943 v -2.48472 h 3.1537608 c 0.5823944,0 1.0512536,-0.55409 1.0512536,-1.24236 0,-0.68826 -0.4688592,-1.24235 -1.0512536,-1.24235 H 2.7404941 v -2.48472 h 3.1537608 c 0.5823944,0 1.0512536,-0.55409 1.0512536,-1.24236 z"
       id="path380"
       style="display:none;stroke-width:1.14282" />
  </g>
  <g
     transform="matrix(0.5,0,0,0.5,-59.069759,-135.755)"
     id="g394"
     inkscape:label="16-16-AcAdapter">
    <rect
       opacity="0"
       ry="0"
       rx="0"
       height="32"
       width="32"
       y="361.51001"
       x="-16.460007"
       id="rect384" />
    <path
       id="path1173"
       style="display:none;fill:#9facc7;fill-opacity:1"
       d="m -2.6339195,369.51 h -7.8242185 c -2.215998,0 -4,1.784 -4,4 v 8 c 0,2.216 1.784002,4 4,4 h 2.8359372 c 0.00279,-0.009 0.00456,-0.0183 0.00781,-0.0273 0.00251,-0.007 0.00511,-0.0127 0.00781,-0.0195 L -6.844857,383.51 h -3.613281 c -1.107999,0 -2,-0.892 -2,-2 v -8 c 0,-1.108 0.892001,-2 2,-2 h 5.9140622 c 0.6377994,-0.66699 1.2693713,-1.33077 1.9101563,-2 z m 3.234375,14 -1.921875,2 h 8.8632812 c 2.2159978,0 4.0000003,-1.784 4.0000003,-4 v -8 c 0,-2.216 -1.7840025,-4 -4.0000003,-4 H 3.7215492 c -0.019778,0.0684 -0.040156,0.135 -0.066406,0.20312 l -0.00391,0.0234 v 0.004 L 2.9598305,371.51 h 4.5820312 c 1.1079989,0 2,0.892 2,2 v 8 c 0,1.108 -0.8920011,2 -2,2 z" />
    <path
       id="path388"
       style="opacity:0.8;fill:#161e2a;fill-opacity:1;stroke-width:1.84695"
       inkscape:label="path256"
       d="m -2.5185674,368.686 c -2.1406703,2.76729 -4.2935704,5.54845 -6.2311501,8.11338 -1.6142175,1.8691 -1.1912145,4.41927 0.5845945,4.45328 l 2.7860262,-2e-4 -1.5783885,5.00469 c -0.0024,0.008 -0.00471,0.0147 -0.00694,0.0222 -0.00453,0.0155 -0.00801,0.031 -0.012147,0.0467 -8.698e-4,0.003 -8.733e-4,0.007 -0.00173,0.01 h 5.5824435 l 6.4175819,-8.25938 0.3934538,-0.50636 c 1.2182974,-1.64717 1.0515737,-3.88005 -0.9891172,-3.84784 -0.8727048,0.005 -2.012031,0.01 -2.8848546,0.0147 l 1.50356,-4.77281 c 1e-6,-8.1e-4 1e-6,-10e-4 0,-0.002 l 0.00347,-0.0246 c 0.026019,-0.0836 0.046665,-0.1672 0.065942,-0.25117 z"
       sodipodi:nodetypes="cccccccccccccccccc" />
    <path
       id="path390"
       d="m -7.0335227,378.954 h 5.1023509 l -2.5432032,7.21732 7.6455542,-10.11331 h -5.102351 l 2.53921669,-7.20883 c -0.001855,9e-5 -0.005979,0 -0.005979,0 z"
       sodipodi:nodetypes="cccccccc"
       class="ColorScheme-Text"
       style="fill:currentColor;fill-opacity:1;stroke-width:1.21559" />
    <path
       fill="#4caf50"
       d="m 6.5357,375.21724 c 0,-0.63509 -0.446,-1.14638 -1,-1.14638 h -3 v -2.29274 c -3.3259,4.4e-4 -6.1922,1.91708 -6.8574,4.58549 h -4.1426 c -0.554,0 -1,0.51128 -1,1.14637 0,0.63509 0.446,1.14638 1,1.14638 h 4.1426 c 0.66518,2.66841 3.5315,4.58503 6.8574,4.58549 v -2.29275 h 3 c 0.554,0 1,-0.51128 1,-1.14637 0,-0.63509 -0.446,-1.14637 -1,-1.14637 h -3 v -2.29275 h 3 c 0.554,0 1,-0.51128 1,-1.14637 z"
       id="path392"
       style="display:none;stroke-width:1.07069" />
  </g>
</svg>
