<?xml version="1.0" encoding="UTF-8" standalone="no"?>
<svg
   width="22"
   height="22"
   version="1.1"
   id="svg1"
   sodipodi:docname="brave-symbolic.svg"
   inkscape:version="1.3 (0e150ed6c4, 2023-07-21)"
   xmlns:inkscape="http://www.inkscape.org/namespaces/inkscape"
   xmlns:sodipodi="http://sodipodi.sourceforge.net/DTD/sodipodi-0.dtd"
   xmlns="http://www.w3.org/2000/svg"
   xmlns:svg="http://www.w3.org/2000/svg">
  <defs
     id="defs1" />
  <sodipodi:namedview
     id="namedview1"
     pagecolor="#ffffff"
     bordercolor="#000000"
     borderopacity="0.25"
     inkscape:showpageshadow="2"
     inkscape:pageopacity="0.0"
     inkscape:pagecheckerboard="0"
     inkscape:deskcolor="#d1d1d1"
     inkscape:zoom="17.382013"
     inkscape:cx="-2.6751793"
     inkscape:cy="8.8309681"
     inkscape:current-layer="svg1" />
   <style
       id="current-color-scheme"
       type="text/css">
          .ColorScheme-Text { color:#a1adc8; }
          .ColorScheme-Highlight { color:#4285f4; }
          .ColorScheme-ButtonBackground { color:#a1adc8; }
    </style>
  <rect
     style="opacity:0.6;fill:none;stroke-width:1.02532;-inkscape-stroke:none"
     id="rect1"
     width="22"
     height="22"
     x="0"
     y="0" />
  <path
     d="M 10.507087,20.006585 C 10.277141,19.827184 9.5337734,19.237225 8.8551016,18.695543 8.1764296,18.153862 7.4425967,17.57373 7.2243568,17.406422 6.7175274,17.017887 6.7442562,16.991682 8.5700143,16.08505 c 1.8751387,-0.931024 2.2845527,-1.051263 2.9355427,-0.861985 0.700795,0.203591 3.647182,1.644145 3.647182,1.78298 0,0.0625 -0.44034,0.44548 -0.978507,0.850846 -0.538186,0.40567 -1.298758,1.010696 -1.69016,1.345008 -0.898217,0.767144 -1.37341,1.130885 -1.477467,1.130885 -0.04485,0 -0.269607,-0.146646 -0.499503,-0.326048 z M 5.3470559,15.558839 c -0.5818605,-0.534274 -0.9807013,-1.248957 -0.98501,-1.765038 -0.00156,-0.171339 0.1308226,-0.666507 0.2938959,-1.099791 0.163074,-0.433387 0.2965165,-0.884511 0.2965165,-1.002684 0,-0.122961 -0.7880716,-0.964888 -1.8427258,-1.9685289 C 2.0962354,8.7583127 1.1912144,7.8226028 1.0985758,7.6434533 0.85482116,7.1722722 1.0459624,6.6112897 1.8647821,5.3960964 2.7368899,4.1017345 4.2174663,2.1868753 4.3984804,2.1192469 4.474878,2.0890108 5.2367643,2.1923174 6.0916226,2.3455146 l 1.5542925,0.2781731 1.677767,-0.478236 1.6777669,-0.4782361 1.671962,0.4762204 1.671951,0.4762203 1.598957,-0.2832125 c 1.306703,-0.231811 1.63222,-0.255496 1.780978,-0.132536 0.257965,0.2141731 2.423558,3.1212337 2.874627,3.8589974 0.24698,0.4041572 0.383495,0.7887617 0.396599,1.1180342 0.02016,0.5014171 0.01814,0.5039369 -1.964428,2.4085665 -1.091446,1.0485401 -1.983828,1.9741721 -1.983061,2.0569191 6.15e-4,0.08264 0.134803,0.532409 0.297876,0.999204 0.356032,1.019113 0.368933,1.386483 0.0693,1.973822 -0.315967,0.619337 -1.23529,1.442872 -1.610708,1.442872 -0.165744,0 -0.845948,-0.273135 -1.511593,-0.607295 -0.892831,-0.448 -1.421124,-0.810934 -2.014177,-1.383459 -0.442154,-0.426834 -0.803904,-0.865108 -0.803904,-0.973856 0,-0.108854 0.587105,-0.744668 1.304682,-1.413191 0.802791,-0.747893 1.304687,-1.304844 1.304687,-1.44776 0,-0.128 -0.18681,-0.7160441 -0.415143,-1.3072624 C 13.183395,7.669406 13.153376,7.256732 13.521789,6.8912771 c 0.146797,-0.1456379 1.160757,-0.6101668 2.253287,-1.0324155 1.09254,-0.4222991 1.986545,-0.8044848 1.98668,-0.849436 3.13e-4,-0.1264881 -1.009853,-0.2484409 -2.067819,-0.2494488 -0.804152,-9.574e-4 -1.124131,0.062993 -2.009795,0.4021417 -0.596732,0.2287873 -1.117717,0.5063557 -1.201798,0.6407053 -0.123818,0.1980472 -0.07822,0.5584125 0.274897,2.1735805 0.479243,2.1921257 0.512932,2.0568177 -0.569802,2.2895367 -0.807599,0.173354 -1.529131,0.172347 -2.374293,-0.0048 C 8.7332596,10.035377 8.7662172,10.168421 9.2454812,7.9759385 9.5979347,6.3639071 9.644045,5.999964 9.5209836,5.8024711 9.4337521,5.6623766 8.8923777,5.3836994 8.2005832,5.1228618 7.1409855,4.7232399 6.948023,4.6864525 6.1977618,4.7413816 4.8009445,4.8441843 4.2377195,4.9308618 4.3012357,5.033665 4.3344958,5.0875863 5.2687694,5.4872082 6.3770979,5.9218538 8.4509593,6.7347543 8.7465486,6.9338094 8.749169,7.5192327 8.7497838,7.6840202 8.5560603,8.3343003 8.3183533,8.9641709 8.0443124,9.6902931 7.9122811,10.211113 7.9574337,10.38744 c 0.039307,0.153196 0.6333429,0.774852 1.320365,1.381895 0.7362823,0.650632 1.2491393,1.193625 1.2491393,1.322632 0,0.12044 -0.400984,0.593336 -0.891087,1.051011 -0.9433094,0.880932 -2.7964415,1.919243 -3.4254403,1.919243 -0.2048,0 -0.5059678,-0.175873 -0.8634605,-0.504088 z"
     style="fill:currentColor;stroke-width:1.33333"
     class="ColorScheme-Text"
     id="path1" />
</svg>
