<?xml version="1.0" encoding="UTF-8" standalone="no"?>
<svg
   width="22"
   height="22"
   version="1.1"
   viewBox="0 0 22 22"
   id="svg26"
   sodipodi:docname="compass.svg"
   inkscape:version="1.2.2 (b0a8486541, 2022-12-01)"
   xmlns:inkscape="http://www.inkscape.org/namespaces/inkscape"
   xmlns:sodipodi="http://sodipodi.sourceforge.net/DTD/sodipodi-0.dtd"
   xmlns="http://www.w3.org/2000/svg"
   xmlns:svg="http://www.w3.org/2000/svg">
  <sodipodi:namedview
     id="namedview28"
     pagecolor="#ffffff"
     bordercolor="#666666"
     borderopacity="1.0"
     inkscape:pageshadow="2"
     inkscape:pageopacity="0.0"
     inkscape:pagecheckerboard="0"
     showgrid="true"
     inkscape:zoom="14.906923"
     inkscape:cx="0.2683317"
     inkscape:cy="0.2683317"
     inkscape:window-width="1920"
     inkscape:window-height="1056"
     inkscape:window-x="0"
     inkscape:window-y="24"
     inkscape:window-maximized="1"
     inkscape:current-layer="svg26"
     inkscape:snap-bbox="true"
     inkscape:bbox-nodes="true"
     inkscape:snap-nodes="true"
     inkscape:snap-smooth-nodes="true"
     inkscape:showpageshadow="2"
     inkscape:deskcolor="#d1d1d1">
    <inkscape:grid
       type="xygrid"
       id="grid833" />
  </sodipodi:namedview>
  <defs
     id="defs3">
    <style
       id="current-color-scheme"
       type="text/css">.ColorScheme-Text { color:#a1adc8; } .ColorScheme-Highlight { color:#11cc00; }</style>
  </defs>
  <g
     id="compass"
     transform="translate(-36,6)">
    <rect
       x="36"
       y="-38"
       width="32"
       height="32"
       opacity="0"
       stroke-width="0.91829"
       id="rect17" />
    <path
       id="path956"
       class="ColorScheme-Text"
       d="m 52,-34 a 12,12 0 0 0 -12,12 12,12 0 0 0 12,12 12,12 0 0 0 12,-12 12,12 0 0 0 -12,-12 z m 0,1 a 11,11 0 0 1 11,11 11,11 0 0 1 -11,11 11,11 0 0 1 -11,-11 11,11 0 0 1 11,-11 z"
       fill="currentColor"
       style="display:inline;fill:#a1adc8;fill-opacity:1" />
    <path
       id="path958"
       style="color:#a1adc8;display:inline;opacity:0.6;fill:#a1adc8"
       class="ColorScheme-Text"
       d="m 56.214844,-27.382812 c -0.812961,0.106677 -1.5701,0.454171 -2.358354,0.667468 -1.541406,0.49006 -3.097469,0.940445 -4.625797,1.467743 -0.64066,0.364037 -0.673013,1.180817 -0.91406,1.80013 -0.558539,1.801178 -1.143343,3.609615 -1.682244,5.407258 -0.176029,0.831447 0.722833,1.670491 1.53986,1.361444 2.1744,-0.661259 4.345016,-1.340545 6.509346,-2.036128 0.687117,-0.296725 0.743418,-1.130694 0.971335,-1.747295 0.571256,-1.850715 1.176967,-3.692262 1.718112,-5.551372 0.105004,-0.679656 -0.468869,-1.362629 -1.158198,-1.369248 z m -0.697266,1.769531 c 0.210158,0.08271 -0.04328,0.381059 -0.05828,0.557987 -0.538517,1.616738 -1.077033,3.233475 -1.615549,4.850213 -0.263663,0.160955 -0.59564,0.21135 -0.886726,0.327923 -1.491535,0.496813 -2.983069,0.993625 -4.474604,1.490438 -0.203094,-0.103582 0.04856,-0.397219 0.06791,-0.58688 0.535309,-1.607107 1.070617,-3.214213 1.605925,-4.82132 0.263663,-0.160955 0.59564,-0.21135 0.886726,-0.327923 1.491535,-0.496813 2.983069,-0.993625 4.474604,-1.490438 z" />
  </g>
  <g
     id="22-22-compass">
    <circle
       cx="11"
       cy="11"
       r="11"
       fill="none"
       id="circle10" />
    <path
       id="path1252"
       class="ColorScheme-Text"
       d="m 11,2 a 9,9 0 0 0 -9,9 9,9 0 0 0 9,9 9,9 0 0 0 9,-9 9,9 0 0 0 -9,-9 z m 0,1 a 8,8 0 0 1 8,8 8,8 0 0 1 -8,8 8,8 0 0 1 -8,-8 8,8 0 0 1 8,-8 z"
       fill="currentColor"
       style="display:inline" />
    <path
       id="path1254"
       style="color:#a1adc8;opacity:0.6;fill:#a1adc8"
       class="ColorScheme-Text"
       d="M 13.984375,7.4765625 C 13.574791,7.5608486 13.181283,7.7179797 12.778545,7.8332176 11.590969,8.2074934 10.399906,8.5717441 9.2145144,8.9522991 8.8917223,9.1043144 8.885533,9.4942892 8.7690288,9.7870186 8.3422914,11.162788 7.9021627,12.534902 7.483817,13.912961 c -0.084955,0.40483 0.3853051,0.744542 0.7485216,0.56325 1.5172813,-0.477417 3.0380524,-0.944803 4.5531494,-1.428497 0.322793,-0.152015 0.32898,-0.541992 0.445485,-0.834721 0.426738,-1.375772 0.866862,-2.7478906 1.285211,-4.1259524 0.06101,-0.3136042 -0.213348,-0.6269215 -0.531809,-0.6104781 z M 13.201172,8.7988281 C 12.851563,9.9166667 12.501953,11.034505 12.152344,12.152344 11.034505,12.501953 9.9166667,12.851563 8.7988281,13.201172 9.1484375,12.083333 9.4980468,10.965495 9.8476562,9.8476562 10.965495,9.4980468 12.083333,9.1484375 13.201172,8.7988281 Z" />
  </g>
</svg>
