<?xml version="1.0" encoding="UTF-8" standalone="no"?>
<svg
   width="22"
   height="22"
   version="1.1"
   viewBox="0 0 22 22"
   id="svg26"
   sodipodi:docname="compass.svgz"
   inkscape:version="1.2.2 (b0a8486541, 2022-12-01)"
   xmlns:inkscape="http://www.inkscape.org/namespaces/inkscape"
   xmlns:sodipodi="http://sodipodi.sourceforge.net/DTD/sodipodi-0.dtd"
   xmlns="http://www.w3.org/2000/svg"
   xmlns:svg="http://www.w3.org/2000/svg">
  <sodipodi:namedview
     id="namedview28"
     pagecolor="#ffffff"
     bordercolor="#666666"
     borderopacity="1.0"
     inkscape:pageshadow="2"
     inkscape:pageopacity="0.0"
     inkscape:pagecheckerboard="0"
     showgrid="true"
     inkscape:zoom="6.5113639"
     inkscape:cx="20.809772"
     inkscape:cy="9.0610817"
     inkscape:window-width="1920"
     inkscape:window-height="1032"
     inkscape:window-x="0"
     inkscape:window-y="24"
     inkscape:window-maximized="1"
     inkscape:current-layer="svg26"
     inkscape:snap-bbox="true"
     inkscape:bbox-nodes="true"
     inkscape:snap-nodes="true"
     inkscape:snap-smooth-nodes="true"
     inkscape:showpageshadow="2"
     inkscape:deskcolor="#d1d1d1">
    <inkscape:grid
       type="xygrid"
       id="grid833" />
  </sodipodi:namedview>
  <defs
     id="defs3">
    <style
       id="current-color-scheme"
       type="text/css">.ColorScheme-Text { color:#a1adc8; } .ColorScheme-Highlight { color:#5294e2; }</style>
  </defs>
  <g
     id="compass"
     transform="translate(-36,6)">
    <rect
       x="36"
       y="-38"
       width="32"
       height="32"
       opacity="0"
       stroke-width="0.91829"
       id="rect17" />
    <path
       id="path956"
       class="ColorScheme-Text"
       d="m 52,-34 a 12,12 0 0 0 -12,12 12,12 0 0 0 12,12 12,12 0 0 0 12,-12 12,12 0 0 0 -12,-12 z m 0,1 a 11,11 0 0 1 11,11 11,11 0 0 1 -11,11 11,11 0 0 1 -11,-11 11,11 0 0 1 11,-11 z"
       fill="currentColor" />
    <path
       id="path958"
       style="opacity:0.45"
       class="ColorScheme-Text"
       d="m 56.203125,-27.169922 a 1.0001,1.0001 0 0 0 -0.330078,0.04492 l -6.355469,1.988281 a 1.0001,1.0001 0 0 0 -0.654297,0.654297 L 46.875,-18.126953 a 1.0001,1.0001 0 0 0 1.251953,1.251953 l 6.355469,-1.988281 a 1.0001,1.0001 0 0 0 0.654297,-0.654297 L 57.125,-25.873047 a 1.0001,1.0001 0 0 0 -0.921875,-1.296875 z M 56,-26 l -2,6 -6,2 2,-6 z"
       fill="currentColor" />
  </g>
  <g
     id="22-22-compass">
    <circle
       cx="11"
       cy="11"
       r="11"
       fill="none"
       id="circle10" />
    <path
       id="path1252"
       class="ColorScheme-Text"
       d="m 11,2 a 9,9 0 0 0 -9,9 9,9 0 0 0 9,9 9,9 0 0 0 9,-9 9,9 0 0 0 -9,-9 z m 0,1 a 8,8 0 0 1 8,8 8,8 0 0 1 -8,8 8,8 0 0 1 -8,-8 8,8 0 0 1 8,-8 z"
       fill="currentColor" />
    <path
       d="M 13.851563,7.5234375 9.28125,8.953125 A 0.50005,0.50005 0 0 0 8.953125,9.28125 l -1.4296875,4.570313 a 0.50005,0.50005 0 0 0 0.625,0.625 L 12.71875,13.046875 a 0.50005,0.50005 0 0 0 0.328125,-0.328125 l 1.429688,-4.5703125 a 0.50005,0.50005 0 0 0 -0.625,-0.625 z M 13.238281,8.7617188 12.171875,12.171875 8.7617188,13.238281 9.828125,9.828125 Z"
       id="path1254"
       fill="currentColor"
       class="ColorScheme-Text"
       style="opacity:0.45" />
  </g>
</svg>
