<?xml version="1.0" encoding="UTF-8" standalone="no"?>
<svg
   version="1.1"
   viewBox="0 0 22 22"
   id="svg28"
   sodipodi:docname="configure.svg"
   inkscape:version="1.1.2 (0a00cf5339, 2022-02-04)"
   xmlns:inkscape="http://www.inkscape.org/namespaces/inkscape"
   xmlns:sodipodi="http://sodipodi.sourceforge.net/DTD/sodipodi-0.dtd"
   xmlns="http://www.w3.org/2000/svg"
   xmlns:svg="http://www.w3.org/2000/svg">
  <sodipodi:namedview
     id="namedview30"
     pagecolor="#ffffff"
     bordercolor="#666666"
     borderopacity="1.0"
     inkscape:pageshadow="2"
     inkscape:pageopacity="0.0"
     inkscape:pagecheckerboard="0"
     showgrid="false"
     inkscape:zoom="4.4719603"
     inkscape:cx="-31.194373"
     inkscape:cy="20.460826"
     inkscape:current-layer="svg28" />
  <defs
     id="defs3">
    <style
       id="current-color-scheme"
       type="text/css">.ColorScheme-Text { color:#a1adc8; } .ColorScheme-Highlight { color:#5294e2; } .ColorScheme-ButtonBackground { color:#a1adc8; }</style>
  </defs>
  <g
     id="22-22-configure"
     transform="matrix(3.7795,0,0,3.7795,-213,-202.52)">
    <rect
       x="56.355999"
       y="53.583"
       width="5.8207998"
       height="5.8207998"
       opacity="0"
       id="rect5" />
    <path
       d="m 59.267,54.378 a 2.1166,2.1166 0 0 0 -0.29031,0.02251 1.1759,1.1759 0 0 1 -0.53284,0.66835 1.1759,1.1759 0 0 1 -0.8452,0.1277 2.1166,2.1166 0 0 0 -0.29123,0.50115 1.1759,1.1759 0 0 1 0.31328,0.79697 1.1759,1.1759 0 0 1 -0.31328,0.79743 2.1166,2.1166 0 0 0 0.28893,0.50115 1.1759,1.1759 0 0 1 0.20395,-0.02894 1.1759,1.1759 0 0 1 0.64355,0.15618 1.1759,1.1759 0 0 1 0.53376,0.66835 2.1166,2.1166 0 0 0 0.28939,0.02251 2.1166,2.1166 0 0 0 0.28985,-0.02205 1.1759,1.1759 0 0 1 0.5333,-0.66881 1.1759,1.1759 0 0 1 0.56041,-0.1571 1.1759,1.1759 0 0 1 0.28526,0.0294 2.1166,2.1166 0 0 0 0.29077,-0.50115 1.1759,1.1759 0 0 1 -0.31328,-0.79697 1.1759,1.1759 0 0 1 0.31328,-0.79743 A 2.1166,2.1166 0 0 0 60.9372,55.1961 1.1759,1.1759 0 0 1 60.09016,55.06886 1.1759,1.1759 0 0 1 59.5564,54.40051 2.1166,2.1166 0 0 0 59.26701,54.378 Z m 0,0.94075 a 1.1759,1.1759 0 0 1 1.1759,1.1759 1.1759,1.1759 0 0 1 -1.1759,1.1759 1.1759,1.1759 0 0 1 -1.1759,-1.1759 1.1759,1.1759 0 0 1 1.1759,-1.1759 z m -0.01148,0.47129 a 0.70556,0.70556 0 0 0 -0.69316,0.70556 0.70556,0.70556 0 0 0 0.70556,0.70556 0.70556,0.70556 0 0 0 0.70556,-0.70556 0.70556,0.70556 0 0 0 -0.70556,-0.70556 0.70556,0.70556 0 0 0 -0.0124,0 z"
       fill="#a1adc8"
       id="path7"
       style="fill-rule:evenodd" />
  </g>
  <g
     id="16-16-configure">
    <rect
       x="2.7797"
       y="-19.864"
       width="16"
       height="16"
       fill="none"
       id="rect10" />
    <g
       transform="matrix(3.31,0,0,3.31,-13.742,4.7358)"
       fill="#a1adc8"
       id="g16">
      <path
         d="m 5.8081,-6.4096 a 2.1166,2.1166 0 0 0 -0.39715,0.68876 0.79374,0.79374 45 0 1 0.40997,0.69356 0.79374,0.79374 45 0 1 -0.41065,0.69536 2.1166,2.1166 0 0 0 0.16487,0.36308 2.1166,2.1166 0 0 0 0.23245,0.32406 0.79374,0.79374 45 0 1 0.80707,-0.0077 0.79374,0.79374 45 0 1 0.39643,0.70317 2.1166,2.1166 0 0 0 0.79518,-0.00143 0.79374,0.79374 45 0 1 0.39569,-0.70163 0.79374,0.79374 45 0 1 0.80637,0.00763 2.1166,2.1166 0 0 0 0.39715,-0.68876 0.79374,0.79374 45 0 1 -0.40997,-0.69356 0.79374,0.79374 45 0 1 0.36507,-0.66785 0.79374,0.79374 45 0 1 0.045837,-0.027061 2.1166,2.1166 0 0 0 -0.16513,-0.36353 2.1166,2.1166 0 0 0 -0.23296,-0.32496 0.79374,0.79374 45 0 1 -0.80655,0.00859 0.79374,0.79374 45 0 1 -0.39643,-0.70317 2.1166,2.1166 0 0 0 -0.79518,0.00143 0.79374,0.79374 45 0 1 -0.39569,0.70163 0.79374,0.79374 45 0 1 -0.80637,-0.00763 z m 1.071,0.46589 a 1.0583,1.0583 0 0 1 1.4457,0.38737 1.0583,1.0583 0 0 1 -0.38737,1.4457 1.0583,1.0583 0 0 1 -1.4457,-0.38737 1.0583,1.0583 0 0 1 0.38737,-1.4457 z"
         id="path12"
         style="fill-rule:evenodd" />
      <circle
         cx="7.4082999"
         cy="-5.0271001"
         r="0.52916002"
         id="circle14"
         style="fill-rule:evenodd" />
    </g>
  </g>
  <g
     id="configure">
    <rect
       x="-39.799"
       y="-4.0489001"
       width="32"
       height="32"
       fill="none"
       id="rect19" />
    <g
       transform="matrix(5.6742,0,0,5.6742,-65.835,40.476)"
       fill="#a1adc8"
       id="g25">
      <path
         d="m 5.8081,-6.4096 a 2.1166,2.1166 0 0 0 -0.39715,0.68876 0.79374,0.79374 45 0 1 0.40997,0.69356 0.79374,0.79374 45 0 1 -0.41065,0.69536 2.1166,2.1166 0 0 0 0.16487,0.36308 2.1166,2.1166 0 0 0 0.23245,0.32406 0.79374,0.79374 45 0 1 0.80707,-0.0077 0.79374,0.79374 45 0 1 0.39643,0.70317 2.1166,2.1166 0 0 0 0.79518,-0.00143 0.79374,0.79374 45 0 1 0.39569,-0.70163 0.79374,0.79374 45 0 1 0.80637,0.00763 2.1166,2.1166 0 0 0 0.39715,-0.68876 0.79374,0.79374 45 0 1 -0.40997,-0.69356 0.79374,0.79374 45 0 1 0.36507,-0.66785 0.79374,0.79374 45 0 1 0.045837,-0.027061 2.1166,2.1166 0 0 0 -0.16513,-0.36353 2.1166,2.1166 0 0 0 -0.23296,-0.32496 0.79374,0.79374 45 0 1 -0.80655,0.00859 0.79374,0.79374 45 0 1 -0.39643,-0.70317 2.1166,2.1166 0 0 0 -0.79518,0.00143 0.79374,0.79374 45 0 1 -0.39569,0.70163 0.79374,0.79374 45 0 1 -0.80637,-0.00763 z m 1.071,0.46589 a 1.0583,1.0583 0 0 1 1.4457,0.38737 1.0583,1.0583 0 0 1 -0.38737,1.4457 1.0583,1.0583 0 0 1 -1.4457,-0.38737 1.0583,1.0583 0 0 1 0.38737,-1.4457 z"
         id="path21"
         style="fill-rule:evenodd" />
      <circle
         cx="7.4082999"
         cy="-5.0271001"
         r="0.52916002"
         id="circle23"
         style="fill-rule:evenodd" />
    </g>
  </g>
</svg>
