<?xml version="1.0" encoding="UTF-8" standalone="no"?>
<svg
   version="1.1"
   viewBox="0 0 54 32"
   id="svg479"
   sodipodi:docname="configure.svg"
   inkscape:version="1.2.2 (b0a8486541, 2022-12-01)"
   xml:space="preserve"
   xmlns:inkscape="http://www.inkscape.org/namespaces/inkscape"
   xmlns:sodipodi="http://sodipodi.sourceforge.net/DTD/sodipodi-0.dtd"
   xmlns="http://www.w3.org/2000/svg"
   xmlns:svg="http://www.w3.org/2000/svg"><sodipodi:namedview
     id="namedview481"
     pagecolor="#e9dada"
     bordercolor="#2f2f2f"
     borderopacity="1"
     inkscape:showpageshadow="2"
     inkscape:pageopacity="0"
     inkscape:pagecheckerboard="0"
     inkscape:deskcolor="#dde2eb"
     showgrid="true"
     inkscape:zoom="7.1216459"
     inkscape:cx="18.886084"
     inkscape:cy="15.445868"
     inkscape:window-width="1920"
     inkscape:window-height="1032"
     inkscape:window-x="0"
     inkscape:window-y="24"
     inkscape:window-maximized="1"
     inkscape:current-layer="svg479"
     inkscape:pageshadow="2"
     inkscape:lockguides="true"><inkscape:grid
       type="xygrid"
       id="grid847" /></sodipodi:namedview><defs
     id="defs402"><style
       id="current-color-scheme"
       type="text/css">.ColorScheme-Text { color:#a1adc8; }</style>
     </defs>
     <g
     id="configure"
     transform="matrix(0.9938039,0,0,0.9938039,61.651539,4.1229503)">
     <rect
       x="-39.799"
       y="-4.0489001"
       width="32"
       height="32"
       fill="none"
       id="rect5218" /><g
       transform="matrix(5.6742,0,0,5.6742,-65.835,40.476)"
       id="g5224"><path
         id="path5220"
         style="display:none;fill:currentColor;fill-opacity:1"
         class="ColorScheme-Text"
         sodipodi:type="inkscape:offset"
         inkscape:radius="0"
         inkscape:original="M 7.8046875 -7.1054688 A 2.1166 2.1166 0 0 0 7.0097656 -7.1035156 A 0.79374 0.79374 0 0 1 6.6152344 -6.4023438 A 0.79374 0.79374 0 0 1 5.8085938 -6.4101562 A 2.1166 2.1166 0 0 0 5.4101562 -5.7207031 A 0.79374 0.79374 0 0 1 5.8203125 -5.0273438 A 0.79374 0.79374 0 0 1 5.4101562 -4.3320312 A 2.1166 2.1166 0 0 0 5.5742188 -3.96875 A 2.1166 2.1166 0 0 0 5.8066406 -3.6445312 A 0.79374 0.79374 0 0 1 6.6152344 -3.6523438 A 0.79374 0.79374 0 0 1 7.0117188 -2.9492188 A 2.1166 2.1166 0 0 0 7.8066406 -2.9511719 A 0.79374 0.79374 0 0 1 8.2011719 -3.6523438 A 0.79374 0.79374 0 0 1 9.0078125 -3.6445312 A 2.1166 2.1166 0 0 0 9.40625 -4.3339844 A 0.79374 0.79374 0 0 1 8.9960938 -5.0273438 A 0.79374 0.79374 0 0 1 9.3613281 -5.6953125 A 0.79374 0.79374 0 0 1 9.40625 -5.7226562 A 2.1166 2.1166 0 0 0 9.2421875 -6.0859375 A 2.1166 2.1166 0 0 0 9.0078125 -6.4101562 A 0.79374 0.79374 0 0 1 8.2011719 -6.4023438 A 0.79374 0.79374 0 0 1 7.8046875 -7.1054688 z M 7.6816406 -6.0488281 A 1.0583 1.0583 0 0 1 8.3242188 -5.5566406 A 1.0583 1.0583 0 0 1 7.9375 -4.1113281 A 1.0583 1.0583 0 0 1 6.4921875 -4.4980469 A 1.0583 1.0583 0 0 1 6.8789062 -5.9433594 A 1.0583 1.0583 0 0 1 7.6816406 -6.0488281 z "
         d="m 7.8046875,-7.1054688 a 2.1166,2.1166 0 0 0 -0.7949219,0.00195 0.79374,0.79374 0 0 1 -0.3945312,0.7011718 0.79374,0.79374 0 0 1 -0.8066406,-0.00781 2.1166,2.1166 0 0 0 -0.3984376,0.6894531 0.79374,0.79374 0 0 1 0.4101563,0.6933593 0.79374,0.79374 0 0 1 -0.4101563,0.6953126 2.1166,2.1166 0 0 0 0.1640626,0.3632812 2.1166,2.1166 0 0 0 0.2324218,0.3242188 0.79374,0.79374 0 0 1 0.8085938,-0.00781 0.79374,0.79374 0 0 1 0.3964844,0.703125 2.1166,2.1166 0 0 0 0.7949218,-0.00195 0.79374,0.79374 0 0 1 0.3945313,-0.7011719 0.79374,0.79374 0 0 1 0.8066406,0.00781 A 2.1166,2.1166 0 0 0 9.40625,-4.3339844 0.79374,0.79374 0 0 1 8.9960938,-5.0273438 0.79374,0.79374 0 0 1 9.3613281,-5.6953125 0.79374,0.79374 0 0 1 9.40625,-5.7226562 2.1166,2.1166 0 0 0 9.2421875,-6.0859375 2.1166,2.1166 0 0 0 9.0078125,-6.4101562 0.79374,0.79374 0 0 1 8.2011719,-6.4023438 0.79374,0.79374 0 0 1 7.8046875,-7.1054688 Z M 7.6816406,-6.0488281 A 1.0583,1.0583 0 0 1 8.3242188,-5.5566406 1.0583,1.0583 0 0 1 7.9375,-4.1113281 1.0583,1.0583 0 0 1 6.4921875,-4.4980469 1.0583,1.0583 0 0 1 6.8789062,-5.9433594 1.0583,1.0583 0 0 1 7.6816406,-6.0488281 Z" /><circle
         cx="7.4082031"
         cy="-5.0273438"
         r="0.52916002"
         id="circle5222"
         style="fill:currentColor;fill-opacity:1"
         class="ColorScheme-Text" />
         <path
         id="path7987"
         style="display:inline;fill:currentColor"
         class="ColorScheme-Text"
         transform="rotate(60,7.4093187,-5.0250676)"
         d="m 7.3659102,-2.912815 a 2.1166,2.1166 0 0 0 0.1007901,-3.464e-4 2.1166,2.1166 0 0 0 0.2871304,-0.029094 c 0.00221,-0.00189 0.00404,-0.00431 0.00623,-0.00623 0.00319,-0.00281 0.00589,-0.00509 0.00901,-0.00797 0.00312,-0.00288 0.00734,-0.00571 0.010391,-0.00866 0.00305,-0.00296 0.00568,-0.00598 0.00866,-0.00901 0.00298,-0.00303 0.00645,-0.0066 0.00935,-0.0097 0.00291,-0.0031 0.00583,-0.00618 0.00866,-0.00935 7.874e-4,-8.815e-4 0.0013,-0.00154 0.00208,-0.00242 a 0.79374,0.79374 0 0 1 0.1319622,-0.4100874 0.79374,0.79374 0 0 1 0.2608073,-0.2466066 0.79374,0.79374 0 0 1 0.3408158,-0.1028682 0.79374,0.79374 0 0 1 0.4256735,0.088668 c 0.00285,-5.94e-4 0.00583,-0.00109 0.00866,-0.00173 0.00415,-9.368e-4 0.008,-0.00209 0.012123,-0.00312 0.00412,-0.00104 0.00803,-0.00233 0.012123,-0.00346 0.0041,-0.00113 0.0084,-0.00189 0.012469,-0.00312 0.00407,-0.00123 0.00775,-0.00283 0.011776,-0.00416 0.00404,-0.00133 0.00846,-0.00203 0.012469,-0.00346 0.00235,-8.35e-4 0.0046,-0.0019 0.00693,-0.00277 A 2.1166,2.1166 0 0 0 9.267067,-4.0201202 2.1166,2.1166 0 0 0 9.3837895,-4.2746931 c -2.844e-4,-0.00171 -7.371e-4,-0.00348 -0.00104,-0.0052 -7.376e-4,-0.00419 -0.00158,-0.0083 -0.00242,-0.012469 -8.374e-4,-0.00417 -0.00184,-0.00834 -0.00277,-0.012469 -9.368e-4,-0.00415 -0.00174,-0.0087 -0.00277,-0.012815 -0.00104,-0.00412 -0.00164,-0.00802 -0.00277,-0.012122 -0.00113,-0.0041 -0.00258,-0.00806 -0.00381,-0.012123 -0.00123,-0.00407 -0.00284,-0.00843 -0.00416,-0.012469 -8.883e-4,-0.0027 -0.00148,-0.00529 -0.00242,-0.00797 a 0.79374,0.79374 0 0 1 -0.2802033,-0.3103364 0.79374,0.79374 0 0 1 -0.085204,-0.3543238 0.79374,0.79374 0 0 1 0.08174,-0.3487821 0.79374,0.79374 0 0 1 6.927e-4,-0.00208 0.79374,0.79374 0 0 1 0.2829741,-0.3172635 0.79374,0.79374 0 0 1 0.00589,-0.00381 c 9.563e-4,-0.0029 0.00186,-0.00574 0.00277,-0.00866 0.00126,-0.00406 0.0023,-0.00803 0.00346,-0.012122 0.00116,-0.00409 0.0024,-0.00835 0.00346,-0.012469 0.00107,-0.00411 0.00215,-0.00798 0.00312,-0.012123 9.671e-4,-0.00414 0.0019,-0.00831 0.00277,-0.012469 8.678e-4,-0.00416 0.00166,-0.00828 0.00242,-0.012469 2.975e-4,-0.00162 4.102e-4,-0.00358 6.927e-4,-0.0052 A 2.1166,2.1166 0 0 0 9.2417829,-6.0857969 2.1166,2.1166 0 0 0 9.0447054,-6.3656538 c -2.442e-4,-8.94e-5 -4.484e-4,-2.574e-4 -6.927e-4,-3.464e-4 -0.004,-0.00146 -0.00808,-0.0028 -0.012123,-0.00416 -0.00403,-0.00136 -0.00806,-0.0022 -0.012123,-0.00346 -0.00406,-0.00126 -0.00804,-0.003 -0.012122,-0.00416 -0.00409,-0.00116 -0.008,-0.0024 -0.012123,-0.00346 -0.00411,-0.00107 -0.00833,-0.0018 -0.012469,-0.00277 -0.00414,-9.67e-4 -0.00865,-0.0019 -0.012815,-0.00277 -0.00174,-3.62e-4 -0.00311,-6.936e-4 -0.00485,-0.00104 a 0.79374,0.79374 0 0 1 -0.4163219,0.088668 0.79374,0.79374 0 0 1 -0.00312,0 0.79374,0.79374 0 0 1 -0.3446258,-0.103561 0.79374,0.79374 0 0 1 -0.2615,-0.2452211 0.79374,0.79374 0 0 1 -0.00104,-0.00173 0.79374,0.79374 0 0 1 -0.1323086,-0.4107801 c -1.681e-4,-1.914e-4 -5.244e-4,-5.015e-4 -6.927e-4,-6.927e-4 -0.00281,-0.00319 -0.00543,-0.00623 -0.00831,-0.00935 -0.00288,-0.00312 -0.00605,-0.0063 -0.00901,-0.00935 -0.00296,-0.00305 -0.00563,-0.00637 -0.00866,-0.00935 -0.00303,-0.00298 -0.00591,-0.00576 -0.00901,-0.00866 -0.0031,-0.00291 -0.00618,-0.00583 -0.00935,-0.00866 -0.00266,-0.00237 -0.0056,-0.00495 -0.00831,-0.00727 a 2.1166,2.1166 0 0 0 -0.2885159,-0.027362 2.1166,2.1166 0 0 0 -0.1039072,0 2.1166,2.1166 0 0 0 -0.3027166,0.02944 c -0.0011,9.516e-4 -0.00203,0.00181 -0.00312,0.00277 -0.00319,0.00281 -0.00623,0.00578 -0.00935,0.00866 -0.00312,0.00288 -0.00665,0.00571 -0.0097,0.00866 -0.00305,0.00296 -0.00603,0.00598 -0.00901,0.00901 -0.00298,0.00303 -0.00576,0.00625 -0.00866,0.00935 -0.00291,0.0031 -0.00583,0.00618 -0.00866,0.00935 -3.938e-4,4.407e-4 -6.461e-4,9.354e-4 -0.00104,0.00139 a 0.79374,0.79374 0 0 1 -0.1323086,0.4132046 0.79374,0.79374 0 0 1 -0.00104,0.00139 0.79374,0.79374 0 0 1 -0.2604609,0.2455675 0.79374,0.79374 0 0 1 -0.3518993,0.1042536 0.79374,0.79374 0 0 1 -6.927e-4,0 0.79374,0.79374 0 0 1 -0.4159755,-0.091785 c -0.00229,4.282e-4 -0.00465,9.279e-4 -0.00693,0.00139 -0.00417,8.374e-4 -0.00832,0.00148 -0.012469,0.00242 -0.00415,9.367e-4 -0.008,0.00209 -0.012122,0.00312 -0.00412,0.00104 -0.00872,0.00199 -0.012815,0.00312 -0.0041,0.00113 -0.00806,0.00223 -0.012123,0.00346 -0.00407,0.00123 -0.00809,0.00248 -0.012123,0.00381 a 2.1166,2.1166 0 0 0 -0.1766423,0.2472994 2.1166,2.1166 0 0 0 -0.051954,0.091438 2.1166,2.1166 0 0 0 -0.1257278,0.2784715 c 4.292e-4,0.00201 0.00128,0.00388 0.00173,0.00589 9.367e-4,0.00415 0.00174,0.00835 0.00277,0.012469 0.00104,0.00412 0.00199,0.00837 0.00312,0.012469 0.00113,0.0041 0.00258,0.00806 0.00381,0.012123 8.912e-4,0.00294 0.00183,0.00608 0.00277,0.00901 a 0.79374,0.79374 0 0 1 0.3023702,0.3318106 0.79374,0.79374 0 0 1 3.463e-4,3.463e-4 0.79374,0.79374 0 0 1 0.080009,0.3439331 0.79374,0.79374 0 0 1 -0.08555,0.356402 l 0.6165165,-0.3626364 a 1.0583,1.0583 0 0 1 0.5285417,-0.909535 1.0583,1.0583 0 0 1 6.927e-4,-3.464e-4 1.0583,1.0583 0 0 1 0.00242,-0.00104 1.0583,1.0583 0 0 1 0.00139,-0.00104 1.0583,1.0583 0 0 1 0.00104,-0.00104 1.0583,1.0583 0 0 1 0.7966224,-0.1025219 1.0583,1.0583 0 0 1 0.2576901,0.1073709 1.0583,1.0583 0 0 1 0.00139,0.00104 1.0583,1.0583 0 0 1 0.00381,0.00242 1.0583,1.0583 0 0 1 0.00139,0.00104 1.0583,1.0583 0 0 1 0.3789152,0.380647 1.0583,1.0583 0 0 1 0.1409675,0.5351225 1.0583,1.0583 0 0 1 3.464e-4,0.00485 1.0583,1.0583 0 0 1 3.463e-4,0.00104 1.0583,1.0583 0 0 1 -0.528888,0.9039933 1.0583,1.0583 0 0 1 -0.00346,0.00242 1.0583,1.0583 0 0 1 -0.00935,0.00416 1.0583,1.0583 0 0 1 -1.0404582,-0.00381 1.0583,1.0583 0 0 1 -0.00346,-0.00208 l -0.6026622,0.3546701 a 0.79374,0.79374 0 0 1 0.0052,0 0.79374,0.79374 0 0 1 0.3321569,0.1039073 0.79374,0.79374 0 0 1 0.2604609,0.2448748 0.79374,0.79374 0 0 1 0.1343867,0.4128583 c 0.00241,0.00272 0.00446,0.00599 0.00693,0.00866 0.00288,0.00312 0.0057,0.00561 0.00866,0.00866 0.00296,0.00305 0.00598,0.00603 0.00901,0.00901 0.00303,0.00298 0.00556,0.00645 0.00866,0.00935 0.0031,0.00291 0.00687,0.00583 0.010044,0.00866 0.00317,0.00283 0.00611,0.00555 0.00935,0.00831 5.396e-4,4.592e-4 0.00154,5.793e-4 0.00208,0.00104 a 2.1166,2.1166 0 0 0 0.3006384,0.028055 z M 6.2783474,-3.7561958 6.8810096,-4.1108659 A 1.0583,1.0583 0 0 1 6.8706189,-4.116754 1.0583,1.0583 0 0 1 6.49205,-4.4980937 1.0583,1.0583 0 0 1 6.3510825,-5.0249036 a 1.0583,1.0583 0 0 1 0,-0.00139 1.0583,1.0583 0 0 1 -3.464e-4,-0.00312 1.0583,1.0583 0 0 1 3.464e-4,-0.00416 L 5.734566,-4.6709261 a 0.79374,0.79374 0 0 1 -0.00208,0.00485 0.79374,0.79374 0 0 1 -0.2857451,0.3103364 c -6.354e-4,0.00182 -0.00112,0.00372 -0.00173,0.00554 -0.00136,0.00403 -0.00289,0.00806 -0.00416,0.012123 -0.00126,0.00406 -0.0023,0.00804 -0.00346,0.012122 -0.00116,0.00409 -0.0024,0.00835 -0.00346,0.012469 -0.00107,0.00411 -0.00215,0.00833 -0.00312,0.012469 -9.671e-4,0.00414 -0.0019,0.00796 -0.00277,0.012123 -2.35e-4,0.00113 -4.65e-4,0.00234 -6.927e-4,0.00346 a 2.1166,2.1166 0 0 0 0.1468556,0.3169171 2.1166,2.1166 0 0 0 0.2078146,0.2937113 c 0.00313,0.00104 0.0062,0.00214 0.00935,0.00312 0.00406,0.00126 0.00804,0.00265 0.012123,0.00381 0.00409,0.00116 0.00835,0.0024 0.012469,0.00346 0.00411,0.00107 0.00833,0.0018 0.012469,0.00277 0.00253,5.916e-4 0.00508,0.00118 0.00762,0.00173 a 0.79374,0.79374 0 0 1 0.4422986,-0.096287 z" /><path
         id="path7985"
         class="ColorScheme-Text"
         style="display:none;fill:currentColor;fill-opacity:1;fill-rule:evenodd;stroke:none;stroke-width:0.212802;stroke-linecap:square"
         d="m 7.3602873,-5.5895246 c -0.2540127,0.1494787 -0.3381684,0.4743114 -0.1886895,0.7283237 0.1494787,0.2540126 0.4743112,0.3381679 0.7283237,0.1886896 L 9.1226057,-5.3920241 C 9.3766184,-5.5415028 9.4607741,-5.8663355 9.3112952,-6.120348 9.1618164,-6.3743605 8.836984,-6.4585159 8.5829715,-6.3090375 Z"
         sodipodi:nodetypes="sssssss" /></g></g><g
     id="16-16-configure"><rect
       style="fill:#008080;fill-rule:evenodd;stroke:none;stroke-width:1.2;stroke-linecap:square;fill-opacity:0"
       id="rect2723"
       width="16"
       height="16"
       x="-36"
       y="0"
       rx="0"
       ry="0" /><path
       id="rect2907"
       class="ColorScheme-Text"
       style="fill:currentColor;fill-rule:evenodd;stroke:none;stroke-width:1.2;stroke-linecap:square;fill-opacity:1"
       d="M -32 1 C -33.662 1 -35 2.338 -35 4 C -35 5.662 -33.662 7 -32 7 L -24 7 C -22.338 7 -21 5.662 -21 4 C -21 2.338 -22.338 1 -24 1 L -32 1 z M -32 2 L -24 2 C -22.892 2 -22 2.892 -22 4 C -22 5.108 -22.892 6 -24 6 L -32 6 C -33.108 6 -34 5.108 -34 4 C -34 2.892 -33.108 2 -32 2 z M -31.738281 2.4707031 A 1.5 1.5 0 0 0 -33.238281 3.9707031 A 1.5 1.5 0 0 0 -31.738281 5.4707031 A 1.5 1.5 0 0 0 -30.238281 3.9707031 A 1.5 1.5 0 0 0 -31.738281 2.4707031 z M -32 9 C -33.662 9 -35 10.338 -35 12 C -35 13.662 -33.662 15 -32 15 L -24 15 C -22.338 15 -21 13.662 -21 12 C -21 10.338 -22.338 9 -24 9 L -32 9 z M -24 10 A 2 2 0 0 1 -22 12 A 2 2 0 0 1 -24 14 A 2 2 0 0 1 -26 12 A 2 2 0 0 1 -24 10 z " /></g>
    <g
     id="22-22-configure">
     <path
       d="M 0,10 V 32 H 22 V 10 Z"
       fill="none"
       id="path404" />
       <path
       id="rect2907-3"
       class="ColorScheme-Text"
       style="fill:currentColor;fill-opacity:1;fill-rule:evenodd;stroke:none;stroke-width:1.2;stroke-linecap:square"
       d="m 7,14 c -1.662,0 -3,1.338 -3,3 0,1.662 1.338,3 3,3 h 8 c 1.662,0 3,-1.338 3,-3 0,-1.662 -1.338,-3 -3,-3 z m 0,1 h 8 c 1.108,0 2,0.892 2,2 0,1.108 -0.892,2 -2,2 H 7 C 5.892,19 5,18.108 5,17 5,15.892 5.892,15 7,15 Z m 0.261719,0.470703 a 1.5,1.5 0 0 0 -1.5,1.5 1.5,1.5 0 0 0 1.5,1.5 1.5,1.5 0 0 0 1.5,-1.5 1.5,1.5 0 0 0 -1.5,-1.5 z M 7,22 c -1.662,0 -3,1.338 -3,3 0,1.662 1.338,3 3,3 h 8 c 1.662,0 3,-1.338 3,-3 0,-1.662 -1.338,-3 -3,-3 z m 8,1 a 2,2 0 0 1 2,2 2,2 0 0 1 -2,2 2,2 0 0 1 -2,-2 2,2 0 0 1 2,-2 z" /></g>
     </svg>
