<?xml version="1.0" encoding="UTF-8" standalone="no"?>
<svg
   version="1.1"
   viewBox="0 0 54 32"
   id="svg479"
   sodipodi:docname="configure.svg"
   inkscape:version="1.1.2 (0a00cf5339, 2022-02-04)"
   xmlns:inkscape="http://www.inkscape.org/namespaces/inkscape"
   xmlns:sodipodi="http://sodipodi.sourceforge.net/DTD/sodipodi-0.dtd"
   xmlns="http://www.w3.org/2000/svg"
   xmlns:svg="http://www.w3.org/2000/svg">
  <sodipodi:namedview
     id="namedview481"
     pagecolor="#422828"
     bordercolor="#2f2f2f"
     borderopacity="1"
     inkscape:showpageshadow="2"
     inkscape:pageopacity="0"
     inkscape:pagecheckerboard="0"
     inkscape:deskcolor="#a1adc8"
     showgrid="true"
     inkscape:zoom="5.2149125"
     inkscape:cx="32.790579"
     inkscape:cy="37.296887"
     inkscape:window-width="1920"
     inkscape:window-height="1029"
     inkscape:window-x="0"
     inkscape:window-y="0"
     inkscape:window-maximized="1"
     inkscape:current-layer="svg479"
     inkscape:pageshadow="2"
     inkscape:lockguides="true">
    <inkscape:grid
       type="xygrid"
       id="grid847" />
  </sodipodi:namedview>
  <defs
     id="defs402">
    <style
       id="current-color-scheme"
       type="text/css">.ColorScheme-Text { color:#a1adc8; }</style>
  </defs>
  <g
     id="configure">
    <rect
       x="22"
       width="32"
       height="32"
       opacity="0"
       id="rect409" />
    <g
       class="ColorScheme-Text"
       fill="currentColor"
       id="g471">
      <path
         d="m37.98 6a10 10 0 0 0-9.9805 10 10 10 0 0 0 10 10 10 10 0 0 0 10-10 10 10 0 0 0-10-10 10 10 0 0 0-0.01953 0zm0.0098 1a9 9 0 0 1 0.0098 0 9 9 0 0 1 9 9 9 9 0 0 1-9 9 9 9 0 0 1-9-9 9 9 0 0 1 8.9902-9z"
         id="path413" />
      <path
         d="m37.949 13a3 3 0 0 0-2.9492 3 3 3 0 0 0 3 3 3 3 0 0 0 3-3 3 3 0 0 0-3-3 3 3 0 0 0-0.05078 0zm2e-3 1a2 2 0 0 1 0.04883 0 2 2 0 0 1 2 2 2 2 0 0 1-2 2 2 2 0 0 1-2-2 2 2 0 0 1 1.9512-2z"
         id="path415" />
      <rect
         transform="rotate(-15)"
         x="34.564"
         y="24.79"
         width="8"
         height="1"
         rx=".5"
         ry=".5"
         id="rect417" />
      <rect
         transform="rotate(-75)"
         x="-15.62"
         y="40.346"
         width="8"
         height="1"
         rx=".5"
         ry=".5"
         id="rect419" />
      <rect
         transform="rotate(225)"
         x="-36.184"
         y="15.056"
         width="8"
         height="1"
         rx=".5"
         ry=".5"
         id="rect421" />
      <rect
         transform="rotate(30)"
         x="40.409"
         y="-17.144"
         width="1"
         height="3"
         rx=".5"
         ry="0"
         id="rect427" />
      <rect
         transform="rotate(30)"
         x="40.409"
         y="3.8564"
         width="1"
         height="3"
         rx=".5"
         ry="0"
         id="rect429" />
      <rect
         transform="rotate(60)"
         x="32.356"
         y="-36.909"
         width="1"
         height="3"
         rx=".5"
         ry="0"
         id="rect435" />
      <rect
         transform="rotate(60)"
         x="32.356"
         y="-15.909"
         width="1"
         height="3"
         rx=".5"
         ry="0"
         id="rect437" />
      <rect
         transform="rotate(90)"
         x="15.5"
         y="-50"
         width="1"
         height="3"
         rx=".5"
         ry="0"
         id="rect443" />
      <rect
         transform="rotate(90)"
         x="15.5"
         y="-29"
         width="1"
         height="3"
         rx=".5"
         ry="0"
         id="rect445" />
      <rect
         transform="rotate(120)"
         x="-5.6436"
         y="-52.909"
         width="1"
         height="3"
         rx=".5"
         ry="0"
         id="rect451" />
      <rect
         transform="rotate(120)"
         x="-5.6436"
         y="-31.909"
         width="1"
         height="3"
         rx=".5"
         ry="0"
         id="rect453" />
      <rect
         transform="rotate(150)"
         x="-25.409"
         y="-44.856"
         width="1"
         height="3"
         rx=".5"
         ry="0"
         id="rect459" />
      <rect
         transform="rotate(150)"
         x="-25.409"
         y="-23.856"
         width="1"
         height="3"
         rx=".5"
         ry="0"
         id="rect461" />
      <rect
         transform="scale(-1)"
         x="-38.5"
         y="-28"
         width="1"
         height="3"
         rx=".5"
         ry="0"
         id="rect467" />
      <rect
         transform="scale(-1)"
         x="-38.5"
         y="-7"
         width="1"
         height="3"
         rx=".5"
         ry="0"
         id="rect469" />
    </g>
  </g>
  <g
     id="16-16-configure"
     inkscape:label="#16-16-configure">
    <rect
       style="fill:#008080;fill-rule:evenodd;stroke:none;stroke-width:1.2;stroke-linecap:square;fill-opacity:0"
       id="rect2723"
       width="16"
       height="16"
       x="-36"
       y="0"
       rx="0"
       ry="0" />
    <path
       id="rect2907"
       style="fill:#a1adc8;fill-rule:evenodd;stroke:none;stroke-width:1.2;stroke-linecap:square;fill-opacity:1"
       d="M -32 1 C -33.662 1 -35 2.338 -35 4 C -35 5.662 -33.662 7 -32 7 L -24 7 C -22.338 7 -21 5.662 -21 4 C -21 2.338 -22.338 1 -24 1 L -32 1 z M -32 2 L -24 2 C -22.892 2 -22 2.892 -22 4 C -22 5.108 -22.892 6 -24 6 L -32 6 C -33.108 6 -34 5.108 -34 4 C -34 2.892 -33.108 2 -32 2 z M -31.738281 2.4707031 A 1.5 1.5 0 0 0 -33.238281 3.9707031 A 1.5 1.5 0 0 0 -31.738281 5.4707031 A 1.5 1.5 0 0 0 -30.238281 3.9707031 A 1.5 1.5 0 0 0 -31.738281 2.4707031 z M -32 9 C -33.662 9 -35 10.338 -35 12 C -35 13.662 -33.662 15 -32 15 L -24 15 C -22.338 15 -21 13.662 -21 12 C -21 10.338 -22.338 9 -24 9 L -32 9 z M -24 10 A 2 2 0 0 1 -22 12 A 2 2 0 0 1 -24 14 A 2 2 0 0 1 -26 12 A 2 2 0 0 1 -24 10 z " />
  </g>
  <g
     id="22-22-configure"
     inkscape:label="#22-22-configure">
    <path
       d="M 0,10 V 32 H 22 V 10 Z"
       fill="none"
       id="path404" />
    <path
       id="rect2907-3"
       style="fill:#a1adc8;fill-opacity:1;fill-rule:evenodd;stroke:none;stroke-width:1.2;stroke-linecap:square"
       d="m 7,14 c -1.662,0 -3,1.338 -3,3 0,1.662 1.338,3 3,3 h 8 c 1.662,0 3,-1.338 3,-3 0,-1.662 -1.338,-3 -3,-3 z m 0,1 h 8 c 1.108,0 2,0.892 2,2 0,1.108 -0.892,2 -2,2 H 7 C 5.892,19 5,18.108 5,17 5,15.892 5.892,15 7,15 Z m 0.261719,0.470703 a 1.5,1.5 0 0 0 -1.5,1.5 1.5,1.5 0 0 0 1.5,1.5 1.5,1.5 0 0 0 1.5,-1.5 1.5,1.5 0 0 0 -1.5,-1.5 z M 7,22 c -1.662,0 -3,1.338 -3,3 0,1.662 1.338,3 3,3 h 8 c 1.662,0 3,-1.338 3,-3 0,-1.662 -1.338,-3 -3,-3 z m 8,1 a 2,2 0 0 1 2,2 2,2 0 0 1 -2,2 2,2 0 0 1 -2,-2 2,2 0 0 1 2,-2 z" />
  </g>
</svg>
