<?xml version="1.0" encoding="UTF-8" standalone="no"?>
<svg
   width="32"
   height="32"
   version="1.1"
   id="svg32"
   sodipodi:docname="kalarm.svg"
   inkscape:version="1.1 (c68e22c387, 2021-05-23)"
   xmlns:inkscape="http://www.inkscape.org/namespaces/inkscape"
   xmlns:sodipodi="http://sodipodi.sourceforge.net/DTD/sodipodi-0.dtd"
   xmlns="http://www.w3.org/2000/svg"
   xmlns:svg="http://www.w3.org/2000/svg"
   xmlns:rdf="http://www.w3.org/1999/02/22-rdf-syntax-ns#"
   xmlns:cc="http://creativecommons.org/ns#"
   xmlns:dc="http://purl.org/dc/elements/1.1/">
  <metadata
     id="metadata38">
    <rdf:RDF>
      <cc:Work
         rdf:about="">
        <dc:format>image/svg+xml</dc:format>
        <dc:type
           rdf:resource="http://purl.org/dc/dcmitype/StillImage" />
      </cc:Work>
    </rdf:RDF>
  </metadata>
  <defs
     id="defs36" />
  <sodipodi:namedview
     pagecolor="#ffffff"
     bordercolor="#666666"
     borderopacity="1"
     objecttolerance="10"
     gridtolerance="10"
     guidetolerance="10"
     inkscape:pageopacity="0"
     inkscape:pageshadow="2"
     inkscape:window-width="1920"
     inkscape:window-height="1007"
     id="namedview34"
     showgrid="false"
     inkscape:zoom="6.9384855"
     inkscape:cx="57.145035"
     inkscape:cy="15.565356"
     inkscape:window-x="0"
     inkscape:window-y="0"
     inkscape:window-maximized="1"
     inkscape:current-layer="svg32"
     inkscape:document-rotation="0"
     inkscape:lockguides="true"
     showguides="false"
     inkscape:pagecheckerboard="0">
    <inkscape:grid
       type="xygrid"
       id="grid883"
       originx="0"
       originy="0" />
  </sodipodi:namedview>
  <g
     id="kalarm-disabled"
     transform="translate(32)">
    <rect
       style="opacity:0.00100002"
       width="32"
       height="32"
       x="0"
       y="0"
       id="rect22" />
    <path
       d="M 13.870435,19.8668 C 13.036658,19.8658 12.360998,19.190139 12.36,18.356362 v -6.645925 c 0,-2.013916 3.020875,-2.013916 3.020875,0 v 6.645925 c -9.99e-4,0.833779 -0.676661,1.509441 -1.51044,1.510438 z m 0,-9.062625 z"
       id="path8-5"
       style="fill:#d35f5f;fill-opacity:1;stroke-width:0.302089"
       sodipodi:nodetypes="ccsscccccccc" />
    <path
       d="m 18.09966,19.865062 c -0.833776,-0.001 -1.509434,-0.676662 -1.510432,-1.510438 v -6.645925 c 0.0023,-2.0115987 3.018558,-2.0115987 3.020873,0 v 6.645925 c -9.99e-4,0.833779 -0.676662,1.50944 -1.510441,1.510438 z m 0,-9.062625 z"
       id="path10"
       style="fill:#d35f5f;fill-opacity:1;stroke-width:0.302089"
       sodipodi:nodetypes="cccccccccccc" />
    <path
       d="M 24.95136,23.49953 H 24.20142 18.5759 15.95132 13.32543 7.70063 6.95003 C 5.70758,23.49953 4.7,22.491608 4.7,21.249224 c 0,-1.243062 1.00758,-2.250221 2.25003,-2.250221 0.41379,0 0.7506,-0.335459 0.7506,-0.750057 V 13.74827 c 0,-2.277687 0.92367,-4.340081 2.41688,-5.833633 l 5.3e-4,0.001 c 0.13655,-0.140342 0.32501,-0.227095 0.53507,-0.227095 0.41474,0 0.75007,0.336223 0.75007,0.75046 0,0.210581 -0.0895,0.399215 -0.22584,0.535089 l 7.6e-4,0.001 c -1.22188,1.221145 -1.9775,2.908802 -1.9775,4.773026 v 4.875699 c 0,1.035753 -0.84005,1.875196 -1.87602,1.875196 H 6.95003 c -0.41473,0 -0.75006,0.3362 -0.75006,0.750055 0,0.413849 0.33533,0.750115 0.75006,0.750115 h 2.25057 6.75072 6.75 2.25004 c 0.41468,0 0.75087,-0.336266 0.75087,-0.750115 0,-0.413855 -0.33619,-0.750055 -0.75087,-0.750055 h -0.3746 c -1.03592,0 -1.87544,-0.839443 -1.87544,-1.875196 v -4.875699 c 0,-3.425549 -2.55302,-6.247852 -5.85877,-6.684771 0.003,-0.004 0.003,-0.007 -10e-4,-0.008 C 15.91683,6.93968 15.20107,6.151045 15.20107,5.194775 V 4.749441 C 15.20107,4.335183 15.53725,4 15.95186,4 c 0.41391,0 0.7495,0.335183 0.7495,0.749441 v 0.281257 c 0,0.279065 0.20307,0.51021 0.46827,0.555229 -0.0436,-0.005 -0.0778,-0.005 -0.11584,0 4.03313,0.540955 7.14728,3.984076 7.14728,8.164827 v 4.500658 c 0,0.414617 0.3364,0.750096 0.7499,0.750096 1.24328,0 2.25088,1.007154 2.25088,2.25023 0,1.242344 -1.00756,2.250264 -2.25088,2.250264 z M 12.9506,7.747649 c -0.41446,0 -0.75059,-0.335472 -0.75059,-0.749736 0,-0.414611 0.33613,-0.750459 0.75059,-0.750459 0.41461,0 0.74938,0.335848 0.74938,0.750459 0,0.414229 -0.33477,0.749736 -0.74938,0.749736 z m 1.50025,17.251994 c 0.41446,0 0.74966,0.336251 0.74966,0.749372 0,0.414602 0.33613,0.750795 0.75081,0.750795 0.41397,0 0.74956,-0.336193 0.74956,-0.750795 0,-0.413121 0.33613,-0.749372 0.75047,-0.749372 0.41474,0 0.7495,0.336251 0.7495,0.749372 0,1.243781 -1.00758,2.25096 -2.24953,2.25096 -1.24373,0 -2.25134,-1.007179 -2.25134,-2.25096 0,-0.413121 0.33656,-0.749372 0.75087,-0.749372 z"
       id="path2-6-3"
       style="fill:#eff0f1;fill-opacity:1;stroke-width:0.0468801" />
  </g>
  <g
     id="kalarm">
    <rect
       style="opacity:0.00100002"
       width="32"
       height="32"
       x="0"
       y="0"
       id="rect17" />
    <path
       d="M 25.05136,23.49953 H 24.30142 18.6759 16.05132 13.42543 7.80063 7.05003 C 5.80758,23.49953 4.8,22.491608 4.8,21.249224 c 0,-1.243062 1.00758,-2.250221 2.25003,-2.250221 0.41379,0 0.7506,-0.335459 0.7506,-0.750057 V 13.74827 c 0,-2.277687 0.92367,-4.340081 2.41688,-5.833633 l 5.3e-4,0.001 c 0.13655,-0.140342 0.32501,-0.227095 0.53507,-0.227095 0.41474,0 0.75007,0.336223 0.75007,0.75046 0,0.210581 -0.0895,0.399215 -0.22584,0.535089 l 7.6e-4,0.001 c -1.22188,1.221145 -1.9775,2.908802 -1.9775,4.773026 v 4.875699 c 0,1.035753 -0.84005,1.875196 -1.87602,1.875196 H 7.05003 c -0.41473,0 -0.75006,0.3362 -0.75006,0.750055 0,0.413849 0.33533,0.750115 0.75006,0.750115 h 2.25057 6.75072 6.75 2.25004 c 0.41468,0 0.75087,-0.336266 0.75087,-0.750115 0,-0.413855 -0.33619,-0.750055 -0.75087,-0.750055 h -0.3746 c -1.03592,0 -1.87544,-0.839443 -1.87544,-1.875196 v -4.875699 c 0,-3.425549 -2.55302,-6.247852 -5.85877,-6.684771 0.003,-0.004 0.003,-0.007 -0.001,-0.008 C 16.01683,6.93968 15.30107,6.151045 15.30107,5.194775 V 4.749441 C 15.30107,4.335183 15.63725,4 16.05186,4 c 0.41391,0 0.7495,0.335183 0.7495,0.749441 v 0.281257 c 0,0.279065 0.20307,0.51021 0.46827,0.555229 -0.0436,-0.005 -0.0778,-0.005 -0.11584,0 4.03313,0.540955 7.14728,3.984076 7.14728,8.164827 v 4.500658 c 0,0.414617 0.3364,0.750096 0.7499,0.750096 1.24328,0 2.25088,1.007154 2.25088,2.25023 0,1.242344 -1.00756,2.250264 -2.25088,2.250264 z M 13.0506,7.747649 c -0.41446,0 -0.75059,-0.335472 -0.75059,-0.749736 0,-0.414611 0.33613,-0.750459 0.75059,-0.750459 0.41461,0 0.74938,0.335848 0.74938,0.750459 0,0.414229 -0.33477,0.749736 -0.74938,0.749736 z m 1.50025,17.251994 c 0.41446,0 0.74966,0.336251 0.74966,0.749372 0,0.414602 0.33613,0.750795 0.75081,0.750795 0.41397,0 0.74956,-0.336193 0.74956,-0.750795 0,-0.413121 0.33613,-0.749372 0.75047,-0.749372 0.41474,0 0.7495,0.336251 0.7495,0.749372 0,1.243781 -1.00758,2.25096 -2.24953,2.25096 -1.24373,0 -2.25134,-1.007179 -2.25134,-2.25096 0,-0.413121 0.33656,-0.749372 0.75087,-0.749372 z"
       id="path2-6"
       style="fill:#eff0f1;fill-opacity:1;stroke-width:0.0468801" />
    <path
       d="m 15.989,9.9488109 c -2.62,0 -4.75,2.1300001 -4.75,4.7500001 0,2.619999 2.13,4.749999 4.75,4.749999 2.62,0 4.75,-2.13 4.75,-4.749999 0,-2.62 -2.13,-4.7500001 -4.75,-4.7500001 z m 1.87,6.0600001 c -0.09,0.129999 -0.23,0.2 -0.38,0.2 -0.09,0 -0.19,-0.03 -0.27,-0.08 l -1.49,-1.050001 c -0.12,-0.09 -0.2,-0.229999 -0.2,-0.379999 v -2.51 c 0,-0.26 0.21,-0.47 0.47,-0.47 0.26,0 0.47,0.21 0.47,0.47 v 2.27 l 1.29,0.91 c 0.21,0.14 0.26,0.43 0.11,0.64 z"
       id="path12"
       style="fill:#eff0f1;fill-opacity:1;stroke-width:0.1" />
  </g>
  <g
     id="kalarm-partdisabled"
     transform="translate(64,-22)">
    <rect
       style="opacity:0.00100002"
       width="32"
       height="32"
       x="0"
       y="22"
       id="rect27" />
    <path
       d="m 19.393881,43.067 h -6.820762 c -0.565054,2e-6 -1.023121,-0.458065 -1.023119,-1.023119 v -6.820762 c -2e-6,-0.565054 0.458065,-1.023121 1.023119,-1.023119 h 6.820762 c 0.565054,-2e-6 1.023121,0.458065 1.023119,1.023119 v 6.820762 c 2e-6,0.565054 -0.458065,1.023121 -1.023119,1.023119 z m -6.820762,-8.18492 c -0.18835,10e-7 -0.341037,0.152689 -0.341037,0.341039 v 6.820762 c 0,0.18835 0.152687,0.341037 0.341037,0.341038 h 6.820762 c 0.18835,0 0.341038,-0.152688 0.341038,-0.341038 z"
       id="path8"
       style="fill:#d35f5f;fill-opacity:1;stroke-width:0.341042"
       sodipodi:nodetypes="ccccccccccscccsccc" />
    <path
       d="M 24.95136,45.49953 H 24.20142 18.5759 15.95132 13.32543 7.70063 6.95003 C 5.70758,45.49953 4.7,44.491608 4.7,43.249224 c 0,-1.243062 1.00758,-2.250221 2.25003,-2.250221 0.41379,0 0.7506,-0.335459 0.7506,-0.750057 V 35.74827 c 0,-2.277687 0.92367,-4.340081 2.41688,-5.833633 l 5.3e-4,0.001 c 0.13655,-0.140342 0.32501,-0.227095 0.53507,-0.227095 0.41474,0 0.75007,0.336223 0.75007,0.75046 0,0.210581 -0.0895,0.399215 -0.22584,0.535089 l 7.6e-4,10e-4 c -1.22188,1.221145 -1.9775,2.908802 -1.9775,4.773026 v 4.875699 c 0,1.035753 -0.84005,1.875196 -1.87602,1.875196 H 6.95003 c -0.41473,0 -0.75006,0.3362 -0.75006,0.750055 0,0.413849 0.33533,0.750115 0.75006,0.750115 h 2.25057 6.75072 6.75 2.25004 c 0.41468,0 0.75087,-0.336266 0.75087,-0.750115 0,-0.413855 -0.33619,-0.750055 -0.75087,-0.750055 h -0.3746 c -1.03592,0 -1.87544,-0.839443 -1.87544,-1.875196 v -4.875699 c 0,-3.425549 -2.55302,-6.247852 -5.85877,-6.684771 0.003,-0.004 0.003,-0.007 -10e-4,-0.008 -0.92472,-0.115666 -1.64048,-0.904301 -1.64048,-1.860571 V 26.749441 C 15.20107,26.335183 15.53725,26 15.95186,26 c 0.41391,0 0.7495,0.335183 0.7495,0.749441 v 0.281257 c 0,0.279065 0.20307,0.51021 0.46827,0.555229 -0.0436,-0.005 -0.0778,-0.005 -0.11584,0 4.03313,0.540955 7.14728,3.984076 7.14728,8.164827 v 4.500658 c 0,0.414617 0.3364,0.750096 0.7499,0.750096 1.24328,0 2.25088,1.007154 2.25088,2.25023 0,1.242344 -1.00756,2.250264 -2.25088,2.250264 z M 12.9506,29.747649 c -0.41446,0 -0.75059,-0.335472 -0.75059,-0.749736 0,-0.414611 0.33613,-0.750459 0.75059,-0.750459 0.41461,0 0.74938,0.335848 0.74938,0.750459 0,0.414229 -0.33477,0.749736 -0.74938,0.749736 z m 1.50025,17.251994 c 0.41446,0 0.74966,0.336251 0.74966,0.749372 0,0.414602 0.33613,0.750795 0.75081,0.750795 0.41397,0 0.74956,-0.336193 0.74956,-0.750795 0,-0.413121 0.33613,-0.749372 0.75047,-0.749372 0.41474,0 0.7495,0.336251 0.7495,0.749372 0,1.243781 -1.00758,2.25096 -2.24953,2.25096 -1.24373,0 -2.25134,-1.007179 -2.25134,-2.25096 0,-0.413121 0.33656,-0.749372 0.75087,-0.749372 z"
       id="path2-6-3-3"
       style="fill:#eff0f1;fill-opacity:1;stroke-width:0.0468801" />
  </g>
  <g
     id="g4545"
     transform="translate(64,-22)">
    <g
       id="22-22-kalarm-disabled">
      <rect
         style="opacity:0.00100002"
         width="22"
         height="22"
         x="-32"
         y="0"
         id="rect7" />
      <path
         d="M -22.164634,13.965027 C -22.653366,13.964441 -23.049415,13.568392 -23.05,13.07966 V 9.184049 c 0.0018,-1.1787317 1.768977,-1.1787317 1.770731,0 v 3.895611 c -5.85e-4,0.488731 -0.396634,0.884781 -0.885365,0.885367 z m 0,-5.312199 z"
         id="path8-5-9"
         style="fill:#d35f5f;fill-opacity:1;stroke-width:0.177075"
         sodipodi:nodetypes="cccccccccccc" />
      <path
         d="M -19.685637,13.965027 C -20.174368,13.96444 -20.570415,13.568391 -20.571,13.07966 V 9.184049 c 0.0018,-1.1787317 1.768977,-1.1787317 1.770731,0 v 3.895611 c -5.85e-4,0.488732 -0.396635,0.884782 -0.885368,0.885367 z m 0,-5.312199 z"
         id="path10-1"
         style="fill:#d35f5f;fill-opacity:1;stroke-width:0.177075"
         sodipodi:nodetypes="cccccccccccc" />
      <path
         d="m -14.674033,16.249685 h -0.524959 -3.937868 -1.837208 -1.838125 -3.937364 -0.52542 c -0.869716,0 -1.575023,-0.705546 -1.575023,-1.575216 0,-0.870144 0.705307,-1.575156 1.575023,-1.575156 0.289653,0 0.52542,-0.234822 0.52542,-0.52504 V 9.423796 c 0,-1.594382 0.64657,-3.03806 1.691818,-4.083547 l 3.71e-4,7e-4 c 0.09559,-0.09824 0.227507,-0.158967 0.374549,-0.158967 0.290319,0 0.52505,0.235356 0.52505,0.525323 0,0.147406 -0.06265,0.27945 -0.158088,0.374562 l 5.32e-4,7e-4 c -0.855317,0.854803 -1.384252,2.036164 -1.384252,3.341122 v 3.412993 c 0,0.725028 -0.588035,1.312638 -1.313215,1.312638 h -0.262185 c -0.290312,0 -0.525043,0.235341 -0.525043,0.525039 0,0.289695 0.234731,0.525082 0.525043,0.525082 h 1.5754 4.725509 4.725005 1.57503 c 0.290276,0 0.525609,-0.235387 0.525609,-0.525082 0,-0.289698 -0.235333,-0.525039 -0.525609,-0.525039 h -0.262221 c -0.725144,0 -1.312809,-0.58761 -1.312809,-1.312638 V 9.423689 c 0,-2.397887 -1.787116,-4.373501 -4.101143,-4.679345 0.0021,-0.0028 0.0021,-0.0049 -7e-4,-0.0056 -0.647305,-0.08097 -1.148337,-0.633011 -1.148337,-1.302401 V 3.124609 c 0,-0.289981 0.235326,-0.524609 0.525553,-0.524609 0.289738,0 0.524651,0.234628 0.524651,0.524609 v 0.19688 c 0,0.195346 0.142149,0.357148 0.327789,0.388661 -0.03052,-0.0035 -0.05446,-0.0035 -0.08109,0 2.823194,0.378669 5.003101,2.788856 5.003101,5.715385 v 3.150464 c 0,0.290232 0.23548,0.525068 0.524931,0.525068 0.870297,0 1.575617,0.705008 1.575617,1.575162 0,0.869642 -0.705292,1.575187 -1.575617,1.575187 z M -23.074574,5.223357 c -0.290122,0 -0.525414,-0.234831 -0.525414,-0.524816 0,-0.290228 0.235292,-0.525322 0.525414,-0.525322 0.290227,0 0.524567,0.235094 0.524567,0.525322 0,0.289961 -0.23434,0.524816 -0.524567,0.524816 z m 1.050176,12.076408 c 0.290122,0 0.524763,0.235376 0.524763,0.524561 0,0.290222 0.235291,0.525557 0.525567,0.525557 0.28978,0 0.524693,-0.235335 0.524693,-0.525557 0,-0.289185 0.235291,-0.524561 0.525329,-0.524561 0.290319,0 0.524651,0.235376 0.524651,0.524561 0,0.870648 -0.705307,1.575674 -1.574673,1.575674 -0.870612,0 -1.575939,-0.705026 -1.575939,-1.575674 0,-0.289185 0.235592,-0.524561 0.525609,-0.524561 z"
         id="path2-6-6-7"
         style="fill:#eff0f1;fill-opacity:1;stroke-width:0.0328161" />
    </g>
  </g>
  <g
     id="g4532"
     transform="translate(64,-22)">
    <g
       id="22-22-klarm-partdisabled">
      <rect
         style="opacity:0.00100002"
         width="22"
         height="22"
         x="0"
         y="0"
         id="rect12" />
      <path
         d="M 13.261344,13.865 H 8.903656 C 8.542651,13.865001 8.249999,13.572349 8.25,13.211344 V 8.853653 C 8.25,8.4926494 8.542652,8.1999986 8.903656,8.2 h 4.357688 C 13.622348,8.1999986 13.915,8.4926494 13.915,8.853653 v 4.357691 c 1e-6,0.361005 -0.292651,0.653657 -0.653656,0.653656 z M 8.903656,8.63577 c -0.120332,2.6e-6 -0.217879,0.097551 -0.21788,0.217883 v 4.357691 c 10e-7,0.120332 0.09755,0.21788 0.21788,0.217883 h 4.357688 c 0.120331,-4e-6 0.217877,-0.09755 0.217878,-0.217883 z"
         id="path8-0"
         style="fill:#d35f5f;fill-opacity:1;stroke-width:0.217892"
         sodipodi:nodetypes="cccsccsccccccccccc" />
      <path
         d="M 17.325967,16.249685 H 16.801008 12.86314 11.025932 9.187807 5.250443 4.725023 C 3.855307,16.249685 3.15,15.544139 3.15,14.674469 c 0,-0.870144 0.705307,-1.575156 1.575023,-1.575156 0.289653,0 0.52542,-0.234822 0.52542,-0.52504 V 9.423796 c 0,-1.594382 0.64657,-3.03806 1.691818,-4.083547 l 3.71e-4,7e-4 c 0.09559,-0.09824 0.227507,-0.158967 0.374549,-0.158967 0.290319,0 0.52505,0.235356 0.52505,0.525323 0,0.147406 -0.06265,0.27945 -0.158088,0.374562 l 5.32e-4,7e-4 C 6.829358,6.93737 6.300423,8.118731 6.300423,9.423689 v 3.412993 c 0,0.725028 -0.588035,1.312638 -1.313215,1.312638 H 4.725023 c -0.290312,0 -0.525043,0.235341 -0.525043,0.525039 0,0.289695 0.234731,0.525082 0.525043,0.525082 h 1.5754 4.725509 4.725005 1.57503 c 0.290276,0 0.525609,-0.235387 0.525609,-0.525082 0,-0.289698 -0.235333,-0.525039 -0.525609,-0.525039 h -0.262221 c -0.725144,0 -1.312809,-0.58761 -1.312809,-1.312638 V 9.423689 c 0,-2.397887 -1.787116,-4.373501 -4.101143,-4.679345 0.0021,-0.0028 0.0021,-0.0049 -7e-4,-0.0056 C 11.001789,4.657774 10.500757,4.105733 10.500757,3.436343 V 3.124609 C 10.500757,2.834628 10.736083,2.6 11.02631,2.6 c 0.289738,0 0.524651,0.234628 0.524651,0.524609 v 0.19688 c 0,0.195346 0.142149,0.357148 0.327789,0.388661 -0.03052,-0.0035 -0.05446,-0.0035 -0.08109,0 2.823194,0.378669 5.003101,2.788856 5.003101,5.715385 v 3.150464 c 0,0.290232 0.23548,0.525068 0.524931,0.525068 0.870297,0 1.575617,0.705008 1.575617,1.575162 0,0.869642 -0.705292,1.575187 -1.575617,1.575187 z M 8.925426,5.223357 c -0.290122,0 -0.525414,-0.234831 -0.525414,-0.524816 0,-0.290228 0.235292,-0.525322 0.525414,-0.525322 0.290227,0 0.524567,0.235094 0.524567,0.525322 0,0.289961 -0.23434,0.524816 -0.524567,0.524816 z m 1.050176,12.076408 c 0.290122,0 0.524763,0.235376 0.524763,0.524561 0,0.290222 0.235291,0.525557 0.525567,0.525557 0.28978,0 0.524693,-0.235335 0.524693,-0.525557 0,-0.289185 0.235291,-0.524561 0.525329,-0.524561 0.290319,0 0.524651,0.235376 0.524651,0.524561 0,0.870648 -0.705307,1.575674 -1.574673,1.575674 -0.870612,0 -1.575939,-0.705026 -1.575939,-1.575674 0,-0.289185 0.235592,-0.524561 0.525609,-0.524561 z"
         id="path2-6-6-5"
         style="fill:#eff0f1;fill-opacity:1;stroke-width:0.0328161" />
    </g>
  </g>
  <g
     id="g4556"
     transform="translate(64,-22)">
    <g
       id="22-22-kalarm">
      <rect
         style="opacity:0.00100002"
         width="22"
         height="22"
         x="-64"
         y="0"
         id="rect2" />
      <path
         d="m -46.674033,16.249685 h -0.524959 -3.937868 -1.837208 -1.838125 -3.937364 -0.52542 c -0.869716,0 -1.575023,-0.705546 -1.575023,-1.575216 0,-0.870144 0.705307,-1.575156 1.575023,-1.575156 0.289653,0 0.52542,-0.234822 0.52542,-0.52504 V 9.423796 c 0,-1.594382 0.64657,-3.03806 1.691818,-4.083547 l 3.71e-4,7e-4 c 0.09559,-0.09824 0.227507,-0.158967 0.374549,-0.158967 0.290319,0 0.52505,0.235356 0.52505,0.525323 0,0.147406 -0.06265,0.27945 -0.158088,0.374562 l 5.32e-4,7e-4 c -0.855317,0.854803 -1.384252,2.036164 -1.384252,3.341122 v 3.412993 c 0,0.725028 -0.588035,1.312638 -1.313215,1.312638 h -0.262185 c -0.290312,0 -0.525043,0.235341 -0.525043,0.525039 0,0.289695 0.234731,0.525082 0.525043,0.525082 h 1.5754 4.725509 4.725005 1.57503 c 0.290276,0 0.525609,-0.235387 0.525609,-0.525082 0,-0.289698 -0.235333,-0.525039 -0.525609,-0.525039 h -0.262221 c -0.725144,0 -1.312809,-0.58761 -1.312809,-1.312638 V 9.423689 c 0,-2.397887 -1.787116,-4.373501 -4.101143,-4.679345 0.0021,-0.0028 0.0021,-0.0049 -7e-4,-0.0056 -0.647305,-0.08097 -1.148337,-0.633011 -1.148337,-1.302401 V 3.124609 c 0,-0.289981 0.235326,-0.524609 0.525553,-0.524609 0.289738,0 0.524651,0.234628 0.524651,0.524609 v 0.19688 c 0,0.195346 0.142149,0.357148 0.327789,0.388661 -0.03052,-0.0035 -0.05446,-0.0035 -0.08109,0 2.823194,0.378669 5.003101,2.788856 5.003101,5.715385 v 3.150464 c 0,0.290232 0.23548,0.525068 0.524931,0.525068 0.870297,0 1.575617,0.705008 1.575617,1.575162 0,0.869642 -0.705292,1.575187 -1.575617,1.575187 z M -55.074574,5.223357 c -0.290122,0 -0.525414,-0.234831 -0.525414,-0.524816 0,-0.290228 0.235292,-0.525322 0.525414,-0.525322 0.290227,0 0.524567,0.235094 0.524567,0.525322 0,0.289961 -0.23434,0.524816 -0.524567,0.524816 z m 1.050176,12.076408 c 0.290122,0 0.524763,0.235376 0.524763,0.524561 0,0.290222 0.235291,0.525557 0.525567,0.525557 0.28978,0 0.524693,-0.235335 0.524693,-0.525557 0,-0.289185 0.235291,-0.524561 0.525329,-0.524561 0.290319,0 0.524651,0.235376 0.524651,0.524561 0,0.870648 -0.705307,1.575674 -1.574673,1.575674 -0.870612,0 -1.575939,-0.705026 -1.575939,-1.575674 0,-0.289185 0.235592,-0.524561 0.525609,-0.524561 z"
         id="path2-6-6"
         style="fill:#eff0f1;fill-opacity:1;stroke-width:0.0328161" />
      <path
         d="m -52.95,6.4 c -1.958104,0 -3.55,1.5918945 -3.55,3.550001 0,1.958104 1.591896,3.549999 3.55,3.549999 1.958105,0 3.550001,-1.591895 3.550001,-3.549999 C -49.399999,7.9918945 -50.991895,6.4 -52.95,6.4 Z m 1.397584,4.529054 c -0.0672,0.09715 -0.171896,0.149472 -0.284,0.149472 -0.0672,0 -0.142,-0.0224 -0.201792,-0.0598 l -1.113583,-0.784736 c -0.08971,-0.06726 -0.14948,-0.171894 -0.14948,-0.284 V 8.0741046 c 0,-0.1943168 0.156959,-0.3512645 0.351271,-0.3512645 0.194313,0 0.351272,0.1569477 0.351272,0.3512645 V 9.770628 l 0.964104,0.680107 c 0.156937,0.104634 0.194312,0.321369 0.08218,0.478318 z"
         id="path12-3"
         style="fill:#eff0f1;fill-opacity:1;stroke-width:0.0747376" />
    </g>
  </g>
</svg>
