<?xml version="1.0" encoding="UTF-8" standalone="no"?>
<svg
   width="32"
   height="32"
   version="1.1"
   viewBox="0 0 32.000001 32"
   id="svg27"
   xml:space="preserve"
   sodipodi:docname="kate0.svgz.svg"
   inkscape:version="1.2.2 (b0a8486541, 2022-12-01)"
   xmlns:inkscape="http://www.inkscape.org/namespaces/inkscape"
   xmlns:sodipodi="http://sodipodi.sourceforge.net/DTD/sodipodi-0.dtd"
   xmlns="http://www.w3.org/2000/svg"
   xmlns:svg="http://www.w3.org/2000/svg"
   xmlns:rdf="http://www.w3.org/1999/02/22-rdf-syntax-ns#"
   xmlns:cc="http://creativecommons.org/ns#"
   xmlns:dc="http://purl.org/dc/elements/1.1/"><sodipodi:namedview
     id="namedview30"
     pagecolor="#ffffff"
     bordercolor="#000000"
     borderopacity="0.25"
     inkscape:showpageshadow="2"
     inkscape:pageopacity="0.0"
     inkscape:pagecheckerboard="0"
     inkscape:deskcolor="#d1d1d1"
     showgrid="false"
     inkscape:zoom="6.9171366"
     inkscape:cx="39.322629"
     inkscape:cy="16.336239"
     inkscape:window-width="1920"
     inkscape:window-height="1026"
     inkscape:window-x="0"
     inkscape:window-y="24"
     inkscape:window-maximized="1"
     inkscape:current-layer="svg27" /><metadata
     id="metadata31"><rdf:RDF><cc:Work
         rdf:about=""><dc:format>image/svg+xml</dc:format><dc:type
           rdf:resource="http://purl.org/dc/dcmitype/StillImage" /></cc:Work></rdf:RDF></metadata><defs
     id="defs3"><style
       type="text/css"
       id="current-color-scheme-3"> .ColorScheme-Text { color:#a1adc8; } </style></defs><g
     id="22-22-kate"><rect
       id="rect3009"
       class="ColorScheme-Text"
       width="22"
       height="22"
       x="32.00021"
       y="4.9966402"
       style="color:#dedede;fill:currentColor;fill-opacity:0;stroke:none" /><g
       id="g7509"
       class="ColorScheme-Text"
       fill="currentColor"><path
         id="rect7499"
         d="m 39,11 v 1 h 8 v -1 z m 0,3 v 1 h 6 v -1 z m 0,3 v 1 h 4 v -1 z"
         style="opacity:0.45" /><path
         id="rect1137"
         d="m 37,7 c -1.107998,0 -2,0.8920022 -2,2 v 14 c 0,1.107998 0.892002,2 2,2 h 12 c 1.107998,0 2,-0.892002 2,-2 v -4 h -1 v 4 c 0,0.553998 -0.446002,1 -1,1 H 37 c -0.553998,0 -1,-0.446002 -1,-1 V 9 c 0,-0.5539988 0.446002,-1 1,-1 h 12 c 0.553998,0 1,0.4460012 1,1 v 1 h 1 V 9 C 51,7.8920022 50.107998,7 49,7 Z" /><rect
         id="rect1142"
         width="3"
         height="1"
         x="39"
         y="20"
         rx="0"
         ry="0"
         style="opacity:0.45;stroke-width:0.92582" /><path
         id="path1150"
         d="m 51.778301,11.807487 a 1.0001,1.0001 0 0 0 -1.414214,0 l -6.363961,6.36396 a 1.0001,1.0001 0 0 0 -0.241687,0.390843 l -0.707107,2.12132 a 1.0001,1.0001 0 0 0 1.265058,1.265058 l 2.12132,-0.707107 a 1.0001,1.0001 0 0 0 0.390843,-0.241687 l 6.363961,-6.36396 a 1.0001,1.0001 0 0 0 0,-1.414213 z m -0.707107,0.707107 1.414213,1.414213 -6.363961,6.363961 -2.12132,0.707107 0.707107,-2.12132 z"
         style="opacity:1" /></g></g><g
     id="kate"><g
       id="g7528"
       transform="matrix(1.4545455,0,0,1.4545455,-46.545762,-7.267841)"><rect
         id="rect7518"
         class="ColorScheme-Text"
         width="22"
         height="22"
         x="32.00021"
         y="4.9966402"
         style="color:#dedede;fill:currentColor;fill-opacity:0;stroke:none" /><g
         id="g7526"
         class="ColorScheme-Text"
         fill="currentColor" /></g><g
       id="g7573"
       class="ColorScheme-Text"
       fill="currentColor"><path
         id="rect301"
         d="M 7,3 C 5.3380034,3 4,4.3380034 4,6 v 20 c 0,1.661996 1.3380034,3 3,3 h 18 c 1.661996,0 3,-1.338004 3,-3 v -8 h -1 v 8 c 0,1.107998 -0.892002,2 -2,2 H 7 C 5.8920022,28 5,27.107998 5,26 V 6 C 5,4.8920022 5.8920022,4 7,4 h 18 c 1.107998,0 2,0.8920022 2,2 v 4 h 1 V 6 C 28,4.3380034 26.661996,3 25,3 Z" /><path
         id="rect7545"
         d="M 9,7 V 8 H 23 V 7 Z m 0,4 v 1 h 13 v -1 z m 0,4 v 1 h 11 v -1 z"
         style="opacity:0.45" /><path
         id="path408"
         d="m 9,19 v 1 h 7 v -1 z m 0,4 v 1 h 5 v -1 z"
         style="opacity:0.45" /><path
         id="path1036"
         d="m 28.728965,10.856723 a 1.0001,1.0001 0 0 0 -1.414214,0 L 16.708149,21.463324 a 1.0001,1.0001 0 0 0 -0.187825,0.259641 l -1.414214,2.828426 a 1.0001,1.0001 0 0 0 1.342399,1.342399 l 2.828427,-1.414214 a 1.0001,1.0001 0 0 0 0.259641,-0.187825 L 30.143178,13.685149 a 1.0001,1.0001 0 0 0 0,-1.414213 z m -0.707107,0.707107 1.414213,1.414213 -10.606602,10.606601 -2.828426,1.414214 1.414213,-2.828427 z"
         style="opacity:1" /></g></g></svg>
