<?xml version="1.0" encoding="UTF-8" standalone="no"?>
<svg
   width="32"
   height="32"
   version="1.1"
   viewBox="18 0 32 31.999999"
   id="svg34"
   sodipodi:docname="kdeconnect0.svgz.svg"
   inkscape:version="1.2.2 (b0a8486541, 2022-12-01)"
   xml:space="preserve"
   xmlns:inkscape="http://www.inkscape.org/namespaces/inkscape"
   xmlns:sodipodi="http://sodipodi.sourceforge.net/DTD/sodipodi-0.dtd"
   xmlns="http://www.w3.org/2000/svg"
   xmlns:svg="http://www.w3.org/2000/svg"
   xmlns:rdf="http://www.w3.org/1999/02/22-rdf-syntax-ns#"
   xmlns:cc="http://creativecommons.org/ns#"
   xmlns:dc="http://purl.org/dc/elements/1.1/"><sodipodi:namedview
     pagecolor="#ffffff"
     bordercolor="#666666"
     borderopacity="1"
     objecttolerance="10"
     gridtolerance="10"
     guidetolerance="10"
     inkscape:pageopacity="0"
     inkscape:pageshadow="2"
     inkscape:window-width="1920"
     inkscape:window-height="1026"
     id="namedview22"
     showgrid="true"
     inkscape:zoom="6.6915598"
     inkscape:cx="-28.244536"
     inkscape:cy="18.979132"
     inkscape:window-x="0"
     inkscape:window-y="24"
     inkscape:window-maximized="1"
     inkscape:current-layer="svg34"
     inkscape:document-rotation="0"
     inkscape:pagecheckerboard="0"
     inkscape:snap-smooth-nodes="true"
     inkscape:showpageshadow="2"
     inkscape:deskcolor="#d1d1d1"><inkscape:grid
       type="xygrid"
       id="grid862"
       originx="0"
       originy="0" /></sodipodi:namedview><metadata
     id="metadata38"><rdf:RDF><cc:Work
         rdf:about=""><dc:format>image/svg+xml</dc:format><dc:type
           rdf:resource="http://purl.org/dc/dcmitype/StillImage" /></cc:Work></rdf:RDF></metadata><defs
     id="defs3"><style
       type="text/css"
       id="current-color-scheme-6">.ColorScheme-Text { color:#a1adc8; }</style></defs><g
     id="kdeconnect"
     transform="translate(-22)"><rect
       id="rect873"
       width="32"
       height="32"
       x="40"
       y="0"
       rx="0"
       ry="0"
       style="fill:none" /><path
       id="rect1527"
       d="m 50,2 c -1.661998,0 -3,1.3380017 -3,3 v 22 c 0,1.661998 1.338002,3 3,3 h 12 c 1.661998,0 3,-1.338002 3,-3 V 5 C 65,3.3380017 63.661998,2 62,2 Z m 0,1 h 12 c 1.107999,0 2,0.8920011 2,2 v 22 c 0,1.107999 -0.892001,2 -2,2 H 50 c -1.107999,0 -2,-0.892001 -2,-2 V 5 c 0,-1.1079989 0.892001,-2 2,-2 z"
       class="ColorScheme-Text"
       style="fill:currentColor" /><path
       id="path27-6"
       d="m 55.51276,12.102104 -0.270261,1.079138 c -0.245696,0.06548 -0.481793,0.162738 -0.702317,0.289303 l -0.951637,-0.570986 -0.688986,0.688986 0.570986,0.951637 c -0.128037,0.220933 -0.226576,0.457683 -0.293104,0.704217 l -1.075337,0.268361 v 0.97448 l 1.079138,0.270261 c 0.06548,0.245696 0.162738,0.481793 0.289303,0.702317 l -0.570986,0.951637 0.688986,0.688986 0.951637,-0.570986 c 0.220933,0.128037 0.457683,0.226576 0.704217,0.293104 l 0.268361,1.075337 h 0.97448 l 0.270261,-1.079138 c 0.245696,-0.06548 0.481793,-0.162738 0.702317,-0.289303 l 0.951637,0.570986 0.688986,-0.688986 -0.570986,-0.951637 c 0.128037,-0.220933 0.226576,-0.457683 0.293104,-0.704217 l 1.075337,-0.268361 v -0.97448 l -1.079138,-0.270261 c -0.06548,-0.245696 -0.162738,-0.481793 -0.289303,-0.702317 l 0.570986,-0.951637 -0.688986,-0.688986 -0.951637,0.570986 C 57.238885,13.342508 57.002135,13.243969 56.755601,13.177441 L 56.48724,12.102104 Z M 56,14.051062 c 0.0648,1.9e-5 0.129625,0.0029 0.194136,0.0097 0.06451,0.0058 0.12866,0.01588 0.192225,0.02856 0.06422,0.01326 0.127764,0.02982 0.190336,0.0495 0.06197,0.0192 0.122959,0.04142 0.182714,0.06666 0.05974,0.02495 0.118156,0.05291 0.175095,0.08371 0.05691,0.03147 0.112143,0.06578 0.165593,0.102775 0.05398,0.03674 0.106057,0.07611 0.156063,0.117999 0.04979,0.042 0.09745,0.08644 0.142752,0.133231 0.04483,0.04609 0.08741,0.09433 0.127519,0.144652 0.04074,0.05136 0.07884,0.104698 0.11419,0.159873 0.03518,0.05476 0.06753,0.111345 0.09705,0.169394 0.02895,0.05769 0.05496,0.116742 0.07805,0.177004 0.02407,0.06042 0.04502,0.122064 0.06286,0.184615 0.01714,0.06265 0.03108,0.126234 0.0419,0.190336 0.01082,0.06432 0.01842,0.129079 0.0228,0.194125 0.0039,0.04561 0.0058,0.09131 0.0058,0.137003 -2e-5,0.0648 -0.0029,0.129625 -0.0097,0.194135 -0.0058,0.06451 -0.01588,0.128661 -0.02856,0.192226 -0.01325,0.06422 -0.02982,0.127764 -0.0495,0.190335 -0.0192,0.06197 -0.04142,0.12296 -0.06665,0.182715 -0.02495,0.05974 -0.05291,0.118156 -0.08371,0.175094 -0.03147,0.05691 -0.06577,0.112144 -0.102775,0.165594 -0.03674,0.05398 -0.07611,0.106046 -0.11801,0.156062 -0.042,0.04979 -0.08644,0.09745 -0.133231,0.142752 -0.04609,0.04483 -0.09433,0.08741 -0.144641,0.12752 -0.05135,0.04074 -0.104697,0.07884 -0.159883,0.11419 -0.05476,0.03518 -0.111334,0.06753 -0.169384,0.09705 -0.05769,0.02895 -0.116743,0.05496 -0.177004,0.07806 -0.06042,0.02397 -0.122073,0.04493 -0.184625,0.06276 -0.06265,0.01716 -0.126225,0.03109 -0.190326,0.0419 -0.06432,0.01082 -0.129079,0.01842 -0.194136,0.0228 -0.02719,0.0039 -0.05447,0.0068 -0.08185,0.0097 h -0.133231 c -0.03878,-0.0019 -0.07747,-0.0049 -0.1161,-0.0097 -0.06451,-0.0058 -0.128669,-0.01588 -0.192235,-0.02855 -0.06422,-0.01325 -0.127755,-0.02982 -0.190326,-0.0495 -0.06197,-0.0192 -0.12296,-0.04142 -0.182714,-0.06666 -0.05974,-0.02495 -0.118165,-0.05292 -0.175104,-0.08371 -0.05691,-0.03147 -0.112133,-0.06577 -0.165583,-0.102765 -0.05399,-0.03674 -0.106058,-0.07611 -0.156073,-0.118009 -0.02934,-0.02583 -0.05788,-0.05243 -0.08566,-0.07991 l -0.08566,-0.08566 c -0.0344,-0.03615 -0.06744,-0.07357 -0.09896,-0.11229 -0.04074,-0.05135 -0.07884,-0.104697 -0.114199,-0.159882 -0.03518,-0.05476 -0.06753,-0.111334 -0.09706,-0.169384 -0.02895,-0.05769 -0.05496,-0.116743 -0.07805,-0.177004 -0.02407,-0.06042 -0.04502,-0.122074 -0.06285,-0.184625 -0.01716,-0.06265 -0.03108,-0.126224 -0.0419,-0.190325 -0.01082,-0.06432 -0.01842,-0.12908 -0.0228,-0.194137 -0.0039,-0.04561 -0.0058,-0.09131 -0.0058,-0.137031 1.9e-5,-0.0648 0.0029,-0.129625 0.0097,-0.194135 0.0058,-0.06451 0.01588,-0.128671 0.02855,-0.192236 0.01325,-0.06422 0.02982,-0.127754 0.0495,-0.190325 0.0192,-0.06197 0.04142,-0.12296 0.06665,-0.182716 0.02495,-0.05974 0.05291,-0.118165 0.08371,-0.175103 0.03147,-0.05691 0.06577,-0.112133 0.102775,-0.165584 0.03674,-0.05398 0.07611,-0.106058 0.11801,-0.156072 0.042,-0.04979 0.08644,-0.09745 0.13323,-0.142742 0.04609,-0.04483 0.09433,-0.08741 0.144642,-0.127521 0.05136,-0.04074 0.104697,-0.07884 0.159883,-0.114198 0.05476,-0.03518 0.111334,-0.06753 0.169384,-0.09706 0.05769,-0.02895 0.116742,-0.05496 0.177004,-0.07805 0.06042,-0.02397 0.122073,-0.04502 0.184625,-0.06286 0.06267,-0.01716 0.126224,-0.03108 0.190326,-0.0419 0.06432,-0.01082 0.129078,-0.01842 0.194135,-0.0228 0.04551,-0.0049 0.09121,-0.0078 0.137031,-0.0097 z"
       class="ColorScheme-Text"
       style="fill:currentColor;opacity:0.81;stroke-width:0.974479" /><rect
       id="rect1428"
       width="6"
       height="1"
       x="53"
       y="26"
       rx="0"
       ry="0"
       class="ColorScheme-Text"
       style="fill:currentColor;opacity:0.45;stroke-width:0.707107" /><path
       id="rect1786"
       d="m 52,3 c 0,0.5539994 0.446001,1 1,1 h 6 c 0.553999,0 1,-0.4460006 1,-1 z"
       class="ColorScheme-Text"
       style="fill:currentColor;opacity:0.45" /></g><g
     id="16-16-kdeconnect"
     transform="translate(18)"><rect
       x="-18"
       y="7.9999924"
       width="16"
       height="16"
       fill="none"
       id="rect23" /><path
       id="rect860"
       d="m -13,8 c -1.108,0 -2,0.892 -2,2 v 12 c 0,1.108 0.892,2 2,2 h 6 c 1.108,0 2,-0.892 2,-2 V 10 C -5,8.892 -5.892,8 -7,8 Z m 0,1 h 6 c 0.554,0 1,0.446 1,1 v 12 c 0,0.554 -0.446,1 -1,1 h -6 c -0.554,0 -1,-0.446 -1,-1 V 10 c 0,-0.554 0.446,-1 1,-1 z"
       class="ColorScheme-Text"
       style="fill:currentColor"/><path
       id="path6333-2"
       d="m -10.334978,13.320196 -0.185804,0.741907 c -0.168916,0.04502 -0.331233,0.111883 -0.482843,0.198897 l -0.654251,-0.392553 -0.473677,0.473678 0.392552,0.65425 c -0.08802,0.151892 -0.155771,0.314658 -0.201509,0.48415 l -0.739294,0.184498 v 0.669955 l 0.741908,0.185805 c 0.04502,0.168916 0.111882,0.331232 0.198895,0.482842 l -0.392552,0.654251 0.473677,0.473678 0.654251,-0.392553 c 0.151892,0.08803 0.314657,0.155771 0.484149,0.201509 l 0.184499,0.739294 h 0.669955 l 0.185804,-0.741907 c 0.168916,-0.04502 0.331233,-0.111883 0.482843,-0.198896 l 0.65425,0.392553 0.473678,-0.473678 L -8.261,17.003624 c 0.08803,-0.151891 0.155771,-0.314657 0.201509,-0.484149 l 0.739295,-0.184498 V 15.665022 L -8.062104,15.479218 C -8.107124,15.310302 -8.173986,15.147985 -8.261,14.996374 l 0.392553,-0.65425 -0.473678,-0.473678 -0.65425,0.392553 C -9.148267,14.172969 -9.311032,14.105228 -9.480524,14.05949 L -9.665022,13.320196 Z M -10,14.660104 c 0.04455,1.3e-5 0.08912,0.002 0.133468,0.0067 0.04435,0.004 0.08845,0.01092 0.132155,0.01964 0.04415,0.0091 0.08784,0.0205 0.130856,0.03403 0.04261,0.0132 0.08454,0.02848 0.125616,0.04583 0.04107,0.01715 0.08123,0.03638 0.120378,0.05755 0.03912,0.02164 0.0771,0.04522 0.113845,0.07066 0.03711,0.02526 0.07291,0.05233 0.107293,0.08112 0.03423,0.02888 0.067,0.05943 0.09814,0.0916 0.03082,0.03169 0.0601,0.06485 0.08767,0.09945 0.02801,0.03531 0.0542,0.07198 0.0785,0.109912 0.02419,0.03765 0.04643,0.07655 0.06672,0.116459 0.0199,0.03966 0.03779,0.08026 0.05366,0.12169 0.01655,0.04154 0.03095,0.08392 0.04322,0.126923 0.01178,0.04307 0.02137,0.08679 0.02881,0.130856 0.0074,0.04422 0.01266,0.08874 0.01567,0.133462 0.0027,0.03136 0.004,0.06278 0.004,0.09419 -1.4e-5,0.04455 -0.002,0.08912 -0.0067,0.133469 -0.004,0.04435 -0.01092,0.08845 -0.01963,0.132155 -0.0091,0.04415 -0.0205,0.08784 -0.03403,0.130855 -0.0132,0.0426 -0.02848,0.08454 -0.04582,0.125616 -0.01715,0.04107 -0.03638,0.08123 -0.05755,0.120378 -0.02164,0.03912 -0.04522,0.0771 -0.07066,0.113845 -0.02526,0.03711 -0.05232,0.07291 -0.08113,0.107293 -0.02888,0.03423 -0.05943,0.067 -0.0916,0.09814 -0.03169,0.03082 -0.06485,0.06009 -0.09944,0.08767 -0.0353,0.02801 -0.07198,0.0542 -0.109919,0.07851 -0.03765,0.02419 -0.07654,0.04643 -0.116452,0.06672 -0.03966,0.0199 -0.08026,0.03778 -0.12169,0.05367 -0.04154,0.01648 -0.08392,0.03089 -0.12693,0.04315 -0.04307,0.0118 -0.08678,0.02138 -0.130849,0.02881 -0.04422,0.0074 -0.08874,0.01266 -0.133468,0.01567 -0.01869,0.0027 -0.03745,0.0047 -0.05627,0.0067 h -0.0916 c -0.02666,-0.0013 -0.05326,-0.0034 -0.07982,-0.0067 -0.04435,-0.004 -0.08846,-0.01092 -0.132162,-0.01963 -0.04415,-0.0091 -0.08783,-0.0205 -0.130849,-0.03403 -0.0426,-0.0132 -0.08453,-0.02848 -0.125616,-0.04583 -0.04107,-0.01715 -0.08124,-0.03638 -0.120384,-0.05755 -0.03913,-0.02164 -0.07709,-0.04522 -0.113838,-0.07065 -0.03712,-0.02526 -0.07292,-0.05233 -0.1073,-0.08113 -0.02017,-0.01776 -0.03979,-0.03605 -0.05889,-0.05494 l -0.05889,-0.05889 c -0.02365,-0.02486 -0.04637,-0.05059 -0.06804,-0.07721 -0.02801,-0.0353 -0.0542,-0.07198 -0.07851,-0.109919 -0.02419,-0.03765 -0.04643,-0.07654 -0.06673,-0.116451 -0.0199,-0.03966 -0.03778,-0.08026 -0.05366,-0.121691 -0.01655,-0.04154 -0.03095,-0.08393 -0.04321,-0.126929 -0.0118,-0.04307 -0.02137,-0.08678 -0.02881,-0.130849 -0.0074,-0.04422 -0.01266,-0.08874 -0.01568,-0.133469 -0.0027,-0.03136 -0.004,-0.06278 -0.004,-0.09421 1.3e-5,-0.04455 0.002,-0.08912 0.0067,-0.133468 0.004,-0.04435 0.01092,-0.08846 0.01963,-0.132162 0.0091,-0.04415 0.0205,-0.08783 0.03403,-0.130848 0.0132,-0.04261 0.02848,-0.08454 0.04582,-0.125618 0.01715,-0.04107 0.03638,-0.08124 0.05755,-0.120383 0.02164,-0.03912 0.04522,-0.07709 0.07066,-0.113839 0.02526,-0.03711 0.05233,-0.07292 0.08113,-0.107299 0.02887,-0.03423 0.05943,-0.067 0.09159,-0.09813 0.03169,-0.03082 0.06485,-0.0601 0.09944,-0.08767 0.03531,-0.02801 0.07198,-0.0542 0.109919,-0.07851 0.03765,-0.02419 0.07654,-0.04643 0.116452,-0.06673 0.03966,-0.0199 0.08026,-0.03779 0.12169,-0.05366 0.04154,-0.01648 0.08392,-0.03095 0.12693,-0.04322 0.04308,-0.0118 0.08678,-0.02137 0.130849,-0.02881 0.04422,-0.0074 0.08874,-0.01266 0.133467,-0.01567 0.03129,-0.0034 0.06271,-0.0054 0.09421,-0.0067 z"
       class="ColorScheme-Text"
       style="fill:currentColor;opacity:0.81;stroke-width:0.669954" /><path
       id="path5650"
       d="m -11.5,21 c -0.277,0 -0.5,0.223 -0.5,0.5 0,0.277 0.223,0.5 0.5,0.5 h 3 C -8.223,22 -8,21.777 -8,21.5 -8,21.223 -8.223,21 -8.5,21 Z"
       class="ColorScheme-Text"
       style="fill:currentColor;opacity:0.45" /></g><g
     id="22-22-kdeconnect"
     transform="translate(18)"><rect
       x="37"
       y="4.9999952"
       width="22"
       height="22"
       fill="none"
       id="rect14" /><path
       id="path1303"
       d="m 45,7.9999952 c -1.108,0 -2,0.892 -2,2 V 21.999995 c 0,1.108 0.892,2 2,2 h 6 c 1.108,0 2,-0.892 2,-2 V 9.9999952 c 0,-1.108 -0.892,-2 -2,-2 z m 0,1 h 6 c 0.554,0 1,0.446 1,1 V 21.999995 c 0,0.554 -0.446,1 -1,1 h -6 c -0.554,0 -1,-0.446 -1,-1 V 9.9999952 c 0,-0.554 0.446,-1 1,-1 z"
       class="ColorScheme-Text"
       style="fill:currentColor"/><path
       id="path6333"
       d="m 47.665022,13.320192 -0.185804,0.741907 c -0.168916,0.04502 -0.331233,0.111882 -0.482843,0.198896 l -0.654251,-0.392553 -0.473677,0.473678 0.392552,0.65425 c -0.08802,0.151892 -0.155771,0.314658 -0.201509,0.48415 l -0.739294,0.184498 v 0.669955 l 0.741908,0.185805 c 0.04502,0.168916 0.111882,0.331232 0.198895,0.482842 l -0.392552,0.654251 0.473677,0.473678 0.654251,-0.392553 c 0.151892,0.08803 0.314657,0.155771 0.484149,0.201509 l 0.184499,0.739294 h 0.669955 l 0.185804,-0.741907 c 0.168916,-0.04502 0.331233,-0.111883 0.482843,-0.198896 l 0.65425,0.392553 0.473678,-0.473678 L 49.739,17.00362 c 0.08803,-0.151891 0.155771,-0.314657 0.201509,-0.484149 l 0.739295,-0.184498 V 15.665018 L 49.937896,15.479214 C 49.892879,15.310298 49.826014,15.147981 49.739,14.99637 l 0.392553,-0.65425 -0.473678,-0.473678 -0.65425,0.392553 c -0.151892,-0.08803 -0.314657,-0.155771 -0.484149,-0.201509 L 48.334978,13.320192 Z M 48,14.6601 c 0.04455,1.3e-5 0.08912,0.002 0.133468,0.0067 0.04435,0.004 0.08845,0.01092 0.132155,0.01964 0.04415,0.0091 0.08784,0.0205 0.130856,0.03403 0.04261,0.0132 0.08454,0.02848 0.125616,0.04583 0.04107,0.01715 0.08123,0.03638 0.120378,0.05755 0.03912,0.02164 0.0771,0.04522 0.113845,0.07066 0.03711,0.02526 0.07291,0.05233 0.107293,0.08112 0.03423,0.02888 0.067,0.05943 0.09814,0.0916 0.03082,0.03169 0.0601,0.06485 0.08767,0.09945 0.02801,0.03531 0.0542,0.07198 0.0785,0.109912 0.02419,0.03765 0.04643,0.07655 0.06672,0.116459 0.0199,0.03966 0.03779,0.08026 0.05366,0.12169 0.01655,0.04154 0.03095,0.08392 0.04322,0.126923 0.01178,0.04307 0.02137,0.08679 0.02881,0.130856 0.0074,0.04422 0.01266,0.08874 0.01567,0.133461 0.0027,0.03136 0.004,0.06278 0.004,0.09419 -1.4e-5,0.04455 -0.002,0.08912 -0.0067,0.133468 -0.004,0.04435 -0.01092,0.08845 -0.01963,0.132156 -0.0091,0.04415 -0.0205,0.08784 -0.03403,0.130855 -0.0132,0.0426 -0.02848,0.08454 -0.04582,0.125616 -0.01715,0.04107 -0.03638,0.08123 -0.05755,0.120378 -0.02164,0.03912 -0.04522,0.0771 -0.07066,0.113845 -0.02526,0.03711 -0.05232,0.07291 -0.08113,0.107293 -0.02888,0.03423 -0.05943,0.067 -0.0916,0.09814 -0.03169,0.03082 -0.06485,0.06009 -0.09944,0.08767 -0.0353,0.02801 -0.07198,0.0542 -0.109919,0.07851 -0.03765,0.02419 -0.07654,0.04643 -0.116452,0.06672 -0.03966,0.0199 -0.08026,0.03778 -0.12169,0.05367 -0.04154,0.01648 -0.08392,0.03089 -0.12693,0.04315 -0.04307,0.0118 -0.08678,0.02138 -0.130849,0.02881 -0.04422,0.0074 -0.08874,0.01266 -0.133468,0.01567 -0.01869,0.0027 -0.03745,0.0047 -0.05627,0.0067 h -0.0916 c -0.02666,-0.0013 -0.05326,-0.0034 -0.07982,-0.0067 -0.04435,-0.004 -0.08846,-0.01092 -0.132162,-0.01963 -0.04415,-0.0091 -0.08783,-0.0205 -0.130849,-0.03403 -0.0426,-0.0132 -0.08453,-0.02848 -0.125616,-0.04583 -0.04107,-0.01715 -0.08124,-0.03638 -0.120384,-0.05755 -0.03913,-0.02164 -0.07709,-0.04522 -0.113838,-0.07065 -0.03712,-0.02526 -0.07292,-0.05233 -0.1073,-0.08113 -0.02017,-0.01776 -0.03979,-0.03605 -0.05889,-0.05494 l -0.05889,-0.05889 c -0.02365,-0.02486 -0.04637,-0.05059 -0.06804,-0.07721 -0.02801,-0.0353 -0.0542,-0.07198 -0.07851,-0.109919 -0.02419,-0.03765 -0.04643,-0.07654 -0.06673,-0.116451 -0.0199,-0.03966 -0.03778,-0.08026 -0.05366,-0.121691 -0.01655,-0.04154 -0.03095,-0.08393 -0.04321,-0.126929 -0.0118,-0.04307 -0.02137,-0.08678 -0.02881,-0.130849 -0.0074,-0.04422 -0.01266,-0.08874 -0.01568,-0.133469 -0.0027,-0.03136 -0.004,-0.06278 -0.004,-0.09421 1.3e-5,-0.04455 0.002,-0.08912 0.0067,-0.133468 0.004,-0.04435 0.01092,-0.08846 0.01963,-0.132162 0.0091,-0.04415 0.0205,-0.08783 0.03403,-0.130848 0.0132,-0.04261 0.02848,-0.08454 0.04582,-0.125618 0.01715,-0.04107 0.03638,-0.08124 0.05755,-0.120383 0.02164,-0.03912 0.04522,-0.07709 0.07066,-0.113839 0.02526,-0.03711 0.05233,-0.07292 0.08113,-0.107299 0.02887,-0.03423 0.05943,-0.067 0.09159,-0.09813 0.03169,-0.03082 0.06485,-0.0601 0.09944,-0.08767 0.03531,-0.02801 0.07198,-0.0542 0.109919,-0.07851 0.03765,-0.02419 0.07654,-0.04643 0.116452,-0.06673 0.03966,-0.0199 0.08026,-0.03779 0.12169,-0.05366 0.04154,-0.01648 0.08392,-0.03095 0.12693,-0.04322 0.04308,-0.0118 0.08678,-0.02137 0.130849,-0.02881 0.04422,-0.0074 0.08874,-0.01266 0.133467,-0.01567 0.03129,-0.0034 0.06271,-0.0054 0.09421,-0.0067 z"
       class="ColorScheme-Text"
       style="fill:currentColor;opacity:0.81;stroke-width:0.669954" /><path
       id="path5652"
       d="m 46.5,20.999995 c -0.277,0 -0.5,0.223 -0.5,0.5 0,0.277 0.223,0.5 0.5,0.5 h 3 c 0.277,0 0.5,-0.223 0.5,-0.5 0,-0.277 -0.223,-0.5 -0.5,-0.5 z"
       class="ColorScheme-Text"
       style="fill:currentColor;opacity:0.45" /></g></svg>
