<?xml version="1.0" encoding="UTF-8" standalone="no"?>
<svg
   xmlns:dc="http://purl.org/dc/elements/1.1/"
   xmlns:cc="http://creativecommons.org/ns#"
   xmlns:rdf="http://www.w3.org/1999/02/22-rdf-syntax-ns#"
   xmlns:svg="http://www.w3.org/2000/svg"
   xmlns="http://www.w3.org/2000/svg"
   xmlns:sodipodi="http://sodipodi.sourceforge.net/DTD/sodipodi-0.dtd"
   xmlns:inkscape="http://www.inkscape.org/namespaces/inkscape"
   id="svg"
   version="1.1"
   viewBox="0 0 22 22"
   sodipodi:docname="klipper.svg"
   inkscape:version="1.0.2 (e86c870879, 2021-01-15)">
  <metadata
     id="metadata13">
    <rdf:RDF>
      <cc:Work
         rdf:about="">
        <dc:format>image/svg+xml</dc:format>
        <dc:type
           rdf:resource="http://purl.org/dc/dcmitype/StillImage" />
      </cc:Work>
    </rdf:RDF>
  </metadata>
  <sodipodi:namedview
     pagecolor="#ffffff"
     bordercolor="#666666"
     borderopacity="1"
     objecttolerance="10"
     gridtolerance="10"
     guidetolerance="10"
     inkscape:pageopacity="0"
     inkscape:pageshadow="2"
     inkscape:window-width="1920"
     inkscape:window-height="994"
     id="namedview11"
     showgrid="false"
     inkscape:zoom="33.318182"
     inkscape:cx="11"
     inkscape:cy="11"
     inkscape:window-x="0"
     inkscape:window-y="0"
     inkscape:window-maximized="1"
     inkscape:current-layer="klipper"
     inkscape:document-rotation="0" />
  <defs
     id="defs3">
    <style
       id="current-color-scheme"
       type="text/css">.ColorScheme-Text { color:#363636; } .ColorScheme-Highlight { color:#5294e2; } .ColorScheme-ButtonBackground { color:#dedede; }</style>
  </defs>
  <g
     id="klipper">
    <rect
       x="-0.0025450001"
       y="-0.0014856"
       width="22"
       height="22"
       opacity="0"
       stroke-width="0.67691"
       id="rect5" />
    <path
       d="M 11,2 C 9.8954305,2 8.7298772,3.0454987 9,4.5702592 H 5.9699864 C 4.5180431,4.5702592 3.8703956,5.7281774 3.8703956,7 v 9.060028 c 0,1.421891 0.8277681,2.189631 2.1296044,2.189631 h 9.939972 c 1.301836,0 2.219646,-0.887796 2.219646,-2.159618 V 7 c 0,-1.3618636 -0.796521,-2.4897681 -2.099591,-2.4897681 H 13 C 13.300136,2.9254441 12.104569,2 11,2 Z m 0,1 c 0.552285,0 1,0.4477153 1,1 0,0.5522847 -0.447715,1 -1,1 C 10.447715,5 10,4.5522847 10,4 10,3.4477153 10.447715,3 11,3 Z M 6,6 H 7.2656 C 7.61037,6.59886 8.2566,7 9,7 h 4 c 0.74336,0 1.3896,-0.40114 1.7344,-1 H 16 c 0.554,0 1,0.446 1,1 v 9 c 0,0.554 -0.446,1 -1,1 H 6 C 5.446,17 5,16.554 5,16 V 7 C 5,6.446 5.446,6 6,6 Z m 1.5,4 C 7.223,10 7,10.223 7,10.5 7,10.777 7.223,11 7.5,11 h 7 C 14.777,11 15,10.777 15,10.5 15,10.223 14.777,10 14.5,10 Z m 0,2 C 7.223,12 7,12.223 7,12.5 7,12.777 7.223,13 7.5,13 h 7 C 14.777,13 15,12.777 15,12.5 15,12.223 14.777,12 14.5,12 Z m 0,2 C 7.223,14 7,14.223 7,14.5 7,14.777 7.223,15 7.5,15 h 7 C 14.777,15 15,14.777 15,14.5 15,14.223 14.777,14 14.5,14 Z"
       class="ColorScheme-Text"
       fill="currentColor"
       id="path7"
       sodipodi:nodetypes="scsssssssscssssssscsscsssssssssssssssssssssssssssss"
       style="fill:#d1dadc;fill-opacity:1" />
  </g>
</svg>
