<?xml version="1.0" encoding="UTF-8" standalone="no"?>
<svg
   width="32"
   height="32"
   version="1.1"
   id="svg12"
   sodipodi:docname="kteatime.svg"
   inkscape:version="1.1 (c68e22c387, 2021-05-23)"
   xmlns:inkscape="http://www.inkscape.org/namespaces/inkscape"
   xmlns:sodipodi="http://sodipodi.sourceforge.net/DTD/sodipodi-0.dtd"
   xmlns:xlink="http://www.w3.org/1999/xlink"
   xmlns="http://www.w3.org/2000/svg"
   xmlns:svg="http://www.w3.org/2000/svg"
   xmlns:rdf="http://www.w3.org/1999/02/22-rdf-syntax-ns#"
   xmlns:cc="http://creativecommons.org/ns#"
   xmlns:dc="http://purl.org/dc/elements/1.1/">
  <metadata
     id="metadata18">
    <rdf:RDF>
      <cc:Work
         rdf:about="">
        <dc:format>image/svg+xml</dc:format>
        <dc:type
           rdf:resource="http://purl.org/dc/dcmitype/StillImage" />
      </cc:Work>
    </rdf:RDF>
  </metadata>
  <defs
     id="defs16">
    <linearGradient
       id="g"
       gradientUnits="userSpaceOnUse"
       x1="21.666"
       x2="21.666"
       xlink:href="#a"
       y1="16"
       y2="6.6669998"
       gradientTransform="matrix(0.92307692,0,0,0.92307692,-0.63461497,2.1538462)" />
    <linearGradient
       id="a">
      <stop
         offset="0"
         stop-color="#f67400"
         id="stop19" />
      <stop
         offset="1"
         stop-color="#f39c1f"
         id="stop21" />
    </linearGradient>
    <linearGradient
       id="h"
       gradientUnits="userSpaceOnUse"
       x1="11"
       x2="11"
       xlink:href="#a"
       y1="14"
       y2="2"
       gradientTransform="matrix(0.92307692,0,0,0.92307692,-0.63461497,2.1538462)" />
    <linearGradient
       id="i"
       gradientUnits="userSpaceOnUse"
       x1="15"
       x2="15"
       y1="28"
       y2="15"
       gradientTransform="matrix(0.92307692,0,0,0.92307692,-0.63461497,2.1538462)">
      <stop
         offset="0"
         stop-color="#375a7d"
         id="stop4" />
      <stop
         offset=".154"
         stop-color="#3b85b5"
         id="stop6" />
      <stop
         offset="1"
         stop-color="#7cbcec"
         id="stop8" />
    </linearGradient>
  </defs>
  <sodipodi:namedview
     pagecolor="#ffffff"
     bordercolor="#000000"
     borderopacity="1"
     objecttolerance="10"
     gridtolerance="10"
     guidetolerance="10"
     inkscape:pageopacity="0"
     inkscape:pageshadow="2"
     inkscape:window-width="1920"
     inkscape:window-height="1007"
     id="namedview14"
     showgrid="false"
     inkscape:zoom="9.8125"
     inkscape:cx="19.719745"
     inkscape:cy="6.4203822"
     inkscape:window-x="0"
     inkscape:window-y="0"
     inkscape:window-maximized="1"
     inkscape:current-layer="svg12"
     inkscape:document-rotation="0"
     inkscape:showpageshadow="false"
     inkscape:pagecheckerboard="0"
     inkscape:lockguides="true">
    <inkscape:grid
       type="xygrid"
       id="grid884"
       originx="0"
       originy="0" />
  </sodipodi:namedview>
  <g
     id="kteatime">
    <rect
       style="opacity:0.00100002"
       width="32"
       height="32"
       x="0"
       y="0"
       id="rect7" />
    <path
       d="M 26.396694,28 H 2.595041 C 2.267174,28 2,27.53448 2,27.206612 2,26.878744 2.267174,26.413224 2.595041,26.413224 h 23.801653 c 0.327868,0 0.595042,0.46552 0.595042,0.793388 C 26.991736,27.53448 26.724562,28 26.396694,28 Z"
       id="path2"
       style="fill:#eff0f1;stroke-width:0.0595042;fill-opacity:1"
       sodipodi:nodetypes="sssssss" />
    <path
       d="m 22.828232,23.636364 h -0.0024 c -0.314182,0 -0.57481,-0.245752 -0.593316,-0.559934 -0.01964,-0.327272 0.230876,-0.609322 0.558802,-0.628958 h 5.96e-4 c 0.0036,-5.96e-4 0.01012,-0.0012 0.01964,-0.0017 0.0285,-0.0031 0.05826,-0.0061 0.09044,-0.01018 0.07676,-0.0089 0.202314,-0.02738 0.36476,-0.05884 0.291036,-0.05778 0.747968,-0.172026 1.273984,-0.386776 1.351994,-0.553388 2.453356,-1.456662 3.272132,-2.684232 0.911604,-1.354909 0.968132,-2.018976 0.963968,-2.190348 -0.0013,-0.15715 -0.03272,-0.232066 -0.06367,-0.285084 -0.03808,-0.06188 -0.08926,-0.108296 -0.171372,-0.15471 -0.176727,-0.103538 -0.51709,-0.167802 -0.889586,-0.167802 -0.0089,0 -0.01786,0 -0.02678,0 h -0.01309 c -0.731902,0 -1.58281,0.21005 -1.71961,0.251108 -0.0055,0.0018 -0.0061,0.0018 -0.0066,0.0018 -0.05356,0.01548 -0.108297,0.0232 -0.163636,0.0232 -0.264198,0 -0.49924,-0.177322 -0.571834,-0.431406 -0.04404,-0.152926 -0.02558,-0.313586 0.05176,-0.452826 0.07736,-0.138644 0.204099,-0.239206 0.357025,-0.28324 0.0018,0 0.01012,-0.0024 0.02202,-0.0054 0.323106,-0.08748 1.16866,-0.29038 2.043966,-0.293355 0.445686,0.0012 0.804556,0.05176 1.129984,0.158876 0.30353,0.09997 0.719404,0.309422 0.978248,0.741422 0.15352,0.254082 0.234386,0.564694 0.233256,0.897381 -0.009,0.767009 -0.367795,1.645825 -1.16396,2.850189 -0.523042,0.785454 -1.159676,1.467372 -1.891637,2.027306 -0.587246,0.449256 -1.233461,0.818776 -1.920733,1.09904 -1.110943,0.452827 -1.966018,0.531968 -2.126084,0.543274 h -0.0024 c -0.01256,5.54e-4 -0.02326,0.0012 -0.03398,0.0012 z"
       id="path6"
       style="fill:#eff0f1;stroke-width:0.0595042;fill-opacity:1" />
    <path
       d="M 25.801652,14.115702 H 13.305786 c -0.327868,0 -0.595042,-0.267174 -0.595042,-0.59504 0,-0.327868 0.267174,-0.595042 0.595042,-0.595042 H 24.710744 V 11.140496 H 4.280992 v 1.785124 h 3.07438 c 0.327868,0 0.595041,0.267174 0.595041,0.595042 0,0.327866 -0.267173,0.59504 -0.595041,0.59504 H 3.190083 c -0.156496,0 -0.310017,-0.06366 -0.420695,-0.174346 C 2.658711,13.830678 2.595041,13.677158 2.595041,13.520662 v -2.975208 c 0,-0.156496 0.06367,-0.8056854 0.174347,-0.916363 C 2.880066,9.5184132 3.033587,9.4545454 3.190083,9.4545454 h 22.611569 c 0.156496,0 0.310018,0.063868 0.420636,0.1745456 0.110678,0.1106776 0.174406,0.759867 0.174406,0.916363 v 2.975208 c 0,0.156496 -0.06367,0.310016 -0.174406,0.420694 -0.110618,0.110678 -0.26414,0.174346 -0.420636,0.174346 z m -15.471074,0 c -0.328462,0 -0.595041,-0.267174 -0.595041,-0.59504 0,-0.327868 0.266579,-0.595042 0.595041,-0.595042 0.327868,0 0.595042,0.267174 0.595042,0.595042 0,0.327866 -0.267174,0.59504 -0.595042,0.59504 z"
       id="path10"
       style="fill:#eff0f1;stroke-width:0.0595042;fill-opacity:1"
       sodipodi:nodetypes="ssssccccsssssssssscsscssssss" />
    <path
       d="m 13.305786,11.140496 c -0.327868,0 -0.595042,-0.267174 -0.595042,-0.595042 V 9.355372 c 0,-0.4766282 0.185652,-0.9252894 0.523042,-1.2620828 0.336792,-0.3367934 0.784858,-0.5230412 1.262082,-0.5230412 h 7.140496 C 21.963636,7.5696528 22.23081,7.3024794 22.231404,6.9752066 22.23081,6.6479338 21.963636,6.3807604 21.636364,6.3801652 H 10.330578 C 9.85395,6.3801652 9.405289,6.1945124 9.068496,5.857124 8.731107,5.5203306 8.545455,5.0722644 8.545455,4.5950414 8.545455,4.2671736 8.812628,4 9.140496,4 c 0.327868,0 0.595041,0.2671736 0.595041,0.5950414 5.95e-4,0.3272726 0.267769,0.5944462 0.595041,0.5950412 h 11.305786 c 0.477222,0 0.925288,0.185653 1.262082,0.5230414 0.337388,0.3367934 0.523042,0.7854546 0.523042,1.2620826 0,0.4772232 -0.185654,0.9252892 -0.523042,1.2620826 -0.336794,0.3373884 -0.78486,0.5230414 -1.262082,0.5230414 h -7.140496 c -0.327272,5.95e-4 -0.594446,0.2677686 -0.595042,0.5950414 v 1.190082 c 0,0.327868 -0.267174,0.595042 -0.59504,0.595042 z"
       id="path14"
       style="fill:#eff0f1;stroke-width:0.0595042;fill-opacity:1" />
    <path
       d="m 16.327404,27.801652 h -3.616066 c -0.04284,0 -0.07736,-0.0036 -0.119602,-0.0119 C 11.240396,27.512462 9.943207,26.951338 8.736463,26.122446 7.566017,25.31789 6.636111,24.462959 5.738194,23.234853 5.473148,22.842976 5.672534,22.372982 5.952066,22.147768 c 0.102347,-0.07498 0.317996,-0.172207 0.542479,-0.234048 0.226799,-0.06248 0.567472,0.09104 0.679339,0.243966 1.643504,2.24753 3.247736,3.461098 5.598744,3.958016 h 3.493488 c 2.349164,-0.497454 4.048006,-1.518346 5.682644,-3.774088 1.662546,-2.29335 2.63881,-5.215002 2.750082,-8.225912 H 4.280992 c 0.03927,1.040132 0.192396,2.07491 0.433388,3.07571 0.01131,0.04642 0.01686,0.09402 0.01686,0.14162 -0.09221,0.316138 -0.380826,0.487002 -0.648595,0.551266 -0.04582,0.01124 -0.197553,0.04146 -0.243967,0.04146 -0.276099,0 -0.712264,-0.187438 -0.777124,-0.455802 -0.267768,-1.113322 -0.421289,-2.263596 -0.457586,-3.418512 -0.006,-0.201719 -0.0089,-0.37071 -0.0089,-0.530776 0,-0.156496 0.06367,-0.310018 0.174347,-0.420696 C 2.880086,12.98929 3.033607,12.92562 3.190103,12.92562 h 22.611569 c 0.156496,0 0.310018,0.06367 0.420636,0.174346 0.110678,0.110678 0.174406,0.2642 0.174406,0.420696 0,0.161256 -0.003,0.330248 -0.009,0.530776 -0.05176,1.669686 -0.343338,3.30486 -0.866915,4.858452 -0.507571,1.505514 -1.218109,2.894876 -2.112397,4.130182 -0.893812,1.233522 -1.939298,2.268298 -3.107365,3.07577 -1.204959,0.833058 -2.501553,1.395966 -3.854083,1.67385 -0.04224,0.0084 -0.07676,0.01196 -0.119603,0.01196 z M 4.604496,20.735538 c -0.233256,0 -0.445686,-0.13686 -0.542083,-0.348696 v -5.94e-4 c -0.06605,-0.144596 -0.0714,-0.306446 -0.01547,-0.454612 0.05593,-0.14876 0.166017,-0.267174 0.311207,-0.333282 0.07795,-0.0351 0.160661,-0.05296 0.245752,-0.05296 0.232661,0 0.445686,0.136858 0.542082,0.348634 v 6.54e-4 c 0.13567,0.298712 0.003,0.651512 -0.295735,0.78718 -0.07795,0.03582 -0.160661,0.05368 -0.245752,0.05368 z"
       id="path22"
       style="fill:#eff0f1;stroke-width:0.0595042;fill-opacity:1"
       sodipodi:nodetypes="ssccccscccccccccsccsssscscccccssccccscccs" />
    <path
       d="M 24.31405,17.09091 H 11.22314 c -0.327868,0 -0.59504,-0.267174 -0.59504,-0.595042 0,-0.327868 0.267172,-0.595042 0.59504,-0.595042 h 13.09091 c 0.327868,0 0.59504,0.267174 0.59504,0.595042 0,0.327868 -0.267172,0.595042 -0.59504,0.595042 z"
       id="path26"
       style="fill:#eff0f1;stroke-width:0.0595042;fill-opacity:1" />
  </g>
  <g
     id="22-22-kteatime">
    <rect
       style="opacity:0.00100002"
       width="22"
       height="22"
       x="32"
       y="10"
       id="rect2" />
    <path
       d="M 49.864463,29 H 33.996694 C 33.778116,29 33.6,28.689653 33.6,28.471075 c 0,-0.218579 0.178116,-0.528926 0.396694,-0.528926 h 15.867769 c 0.218578,0 0.396694,0.310347 0.396694,0.528926 C 50.261157,28.689653 50.083041,29 49.864463,29 Z"
       id="path2-3"
       style="fill:#eff0f1;stroke-width:0.0396695;fill-opacity:1"
       sodipodi:nodetypes="sssssss" />
    <path
       d="m 47.485488,26.090909 h -0.0016 c -0.209455,0 -0.383207,-0.163834 -0.395544,-0.373289 -0.01309,-0.218181 0.153917,-0.406215 0.372535,-0.419305 h 3.97e-4 c 0.0024,-3.98e-4 0.0067,-8e-4 0.01309,-0.0011 0.019,-0.0021 0.03884,-0.0041 0.06029,-0.0068 0.05117,-0.0059 0.134876,-0.01825 0.243173,-0.03923 0.194024,-0.03852 0.498645,-0.114684 0.849323,-0.257851 0.901329,-0.368925 1.63557,-0.971108 2.181421,-1.789488 0.607736,-0.903272 0.645421,-1.345984 0.642645,-1.460232 -8.66e-4,-0.104766 -0.02181,-0.15471 -0.04245,-0.190056 -0.02539,-0.04125 -0.05951,-0.0722 -0.114248,-0.10314 -0.117818,-0.06902 -0.344727,-0.111868 -0.593058,-0.111868 -0.0059,0 -0.01191,0 -0.01785,0 h -0.0087 c -0.487934,0 -1.055206,0.140034 -1.146406,0.167406 -0.0037,0.0012 -0.0041,0.0012 -0.0044,0.0012 -0.03571,0.01032 -0.0722,0.01547 -0.109091,0.01547 -0.176132,0 -0.332827,-0.118214 -0.381223,-0.287604 -0.02936,-0.10195 -0.01705,-0.209057 0.03451,-0.301884 0.05157,-0.09243 0.136066,-0.15947 0.238017,-0.188826 0.0012,0 0.0067,-0.0016 0.01468,-0.0036 0.215404,-0.05832 0.779106,-0.193587 1.362644,-0.19557 0.297124,8e-4 0.53637,0.03451 0.753322,0.105917 0.202354,0.06665 0.479603,0.206281 0.652166,0.494281 0.102346,0.169388 0.156257,0.376463 0.155504,0.598254 -0.006,0.51134 -0.245197,1.097217 -0.775974,1.900126 -0.348694,0.523636 -0.773117,0.978248 -1.261091,1.351538 -0.391497,0.299504 -0.822307,0.54585 -1.280489,0.732693 -0.740628,0.301885 -1.310678,0.354645 -1.417389,0.362183 h -0.0016 c -0.0084,3.69e-4 -0.01551,8e-4 -0.02265,8e-4 z"
       id="path6-6"
       style="fill:#eff0f1;stroke-width:0.0396695;fill-opacity:1" />
    <path
       d="m 49.467768,19.743801 h -8.330577 c -0.218579,0 -0.396695,-0.178116 -0.396695,-0.396693 0,-0.218579 0.178116,-0.396695 0.396695,-0.396695 h 7.603305 V 17.760331 H 35.120661 v 1.190082 h 2.049587 c 0.218579,0 0.396694,0.178116 0.396694,0.396695 0,0.218577 -0.178115,0.396693 -0.396694,0.396693 h -2.776859 c -0.104331,0 -0.206678,-0.04244 -0.280464,-0.11623 -0.07378,-0.07379 -0.116231,-0.176132 -0.116231,-0.280463 v -1.983472 c 0,-0.104331 0.04245,-0.537123 0.116231,-0.610909 0.07379,-0.07379 0.176133,-0.116364 0.280464,-0.116364 h 15.074379 c 0.104331,0 0.206679,0.04258 0.280424,0.116364 0.07379,0.07379 0.116271,0.506578 0.116271,0.610909 v 1.983472 c 0,0.104331 -0.04245,0.206677 -0.116271,0.280463 -0.07375,0.07379 -0.176093,0.11623 -0.280424,0.11623 z m -10.314049,0 c -0.218975,0 -0.396694,-0.178116 -0.396694,-0.396693 0,-0.218579 0.177719,-0.396695 0.396694,-0.396695 0.218578,0 0.396694,0.178116 0.396694,0.396695 0,0.218577 -0.178116,0.396693 -0.396694,0.396693 z"
       id="path10-7"
       style="fill:#eff0f1;stroke-width:0.0396695;fill-opacity:1"
       sodipodi:nodetypes="ssssccccsssssssssscsscssssss" />
    <path
       d="m 41.137191,17.760331 c -0.218579,0 -0.396695,-0.178116 -0.396695,-0.396695 v -0.793388 c 0,-0.317752 0.123768,-0.616859 0.348695,-0.841389 0.224528,-0.224528 0.523238,-0.348694 0.841388,-0.348694 h 4.76033 c 0.218182,-3.96e-4 0.396298,-0.178512 0.396694,-0.396694 -3.96e-4,-0.218182 -0.178512,-0.396298 -0.396694,-0.396694 h -7.53719 c -0.317752,0 -0.61686,-0.123769 -0.841388,-0.348694 -0.224926,-0.224529 -0.348694,-0.52324 -0.348694,-0.841389 0,-0.218578 0.178115,-0.396694 0.396694,-0.396694 0.218578,0 0.396694,0.178116 0.396694,0.396694 3.96e-4,0.218182 0.178512,0.396298 0.396694,0.396695 h 7.53719 c 0.318148,0 0.616859,0.123768 0.841388,0.348694 0.224926,0.224528 0.348695,0.523636 0.348695,0.841388 0,0.318149 -0.123769,0.61686 -0.348695,0.841388 -0.224529,0.224926 -0.52324,0.348695 -0.841388,0.348695 h -4.76033 c -0.218182,3.97e-4 -0.396298,0.178512 -0.396695,0.396694 v 0.793388 c 0,0.218579 -0.178116,0.396695 -0.396693,0.396695 z"
       id="path14-5"
       style="fill:#eff0f1;stroke-width:0.0396695;fill-opacity:1" />
    <path
       d="m 43.151603,28.867768 h -2.410711 c -0.02856,0 -0.05157,-0.0024 -0.07973,-0.0079 -0.900893,-0.18486 -1.765686,-0.558943 -2.570182,-1.111538 -0.780297,-0.53637 -1.400235,-1.106324 -1.998846,-1.925062 -0.176697,-0.261251 -0.04377,-0.57458 0.142581,-0.724723 0.06823,-0.04999 0.211998,-0.114805 0.361653,-0.156032 0.151199,-0.04165 0.378315,0.06069 0.452893,0.162644 1.095669,1.498353 2.165157,2.307399 3.732496,2.638677 h 2.328992 c 1.566109,-0.331636 2.698671,-1.01223 3.788429,-2.516058 1.108364,-1.5289 1.759207,-3.476668 1.833388,-5.483942 h -13.6119 c 0.02618,0.693422 0.128264,1.383274 0.288926,2.050474 0.0075,0.03095 0.01124,0.06268 0.01124,0.09441 -0.06147,0.210759 -0.253884,0.324668 -0.432397,0.367511 -0.03055,0.0075 -0.131702,0.02764 -0.162645,0.02764 -0.184066,0 -0.474842,-0.124959 -0.518082,-0.303868 -0.178512,-0.742215 -0.28086,-1.509064 -0.305058,-2.279008 -0.004,-0.13448 -0.0059,-0.24714 -0.0059,-0.353851 0,-0.104331 0.04245,-0.206679 0.116232,-0.280464 0.07378,-0.07379 0.176128,-0.116235 0.280458,-0.116235 h 15.074379 c 0.104331,0 0.206679,0.04245 0.280424,0.116231 0.07379,0.07379 0.116271,0.176133 0.116271,0.280464 0,0.107504 -0.002,0.220165 -0.006,0.353851 -0.03451,1.113124 -0.228892,2.20324 -0.577943,3.238968 -0.338381,1.003676 -0.812073,1.929917 -1.408265,2.753454 -0.595875,0.822348 -1.292865,1.512199 -2.071577,2.050514 -0.803305,0.555372 -1.667701,0.930644 -2.569388,1.1159 -0.02816,0.0056 -0.05117,0.008 -0.07974,0.008 z m -7.815272,-4.710743 c -0.155504,0 -0.297124,-0.09124 -0.361389,-0.232464 v -3.96e-4 c -0.04403,-0.0964 -0.0476,-0.204297 -0.01031,-0.303074 0.03729,-0.09917 0.110678,-0.178116 0.207471,-0.222188 0.05197,-0.0234 0.107108,-0.03531 0.163835,-0.03531 0.155107,0 0.297124,0.09124 0.361388,0.232423 v 4.36e-4 c 0.09045,0.199141 0.002,0.434341 -0.197157,0.524786 -0.05197,0.02388 -0.107107,0.03579 -0.163834,0.03579 z"
       id="path22-3"
       style="fill:#eff0f1;stroke-width:0.0396695;fill-opacity:1"
       sodipodi:nodetypes="ssccccscccccccccsccsssscscccccssccccscccs" />
    <path
       d="M 48.476033,21.727273 H 39.74876 c -0.218579,0 -0.396693,-0.178116 -0.396693,-0.396694 0,-0.218579 0.178114,-0.396695 0.396693,-0.396695 h 8.727273 c 0.218579,0 0.396694,0.178116 0.396694,0.396695 0,0.218578 -0.178115,0.396694 -0.396694,0.396694 z"
       id="path26-5"
       style="fill:#eff0f1;stroke-width:0.0396695;fill-opacity:1" />
  </g>
</svg>
