<?xml version="1.0" encoding="UTF-8" standalone="no"?>
<svg
   width="32"
   height="32"
   version="1.1"
   id="svg12"
   sodipodi:docname="ktorrent.svg"
   inkscape:version="1.1 (c68e22c387, 2021-05-23)"
   xmlns:inkscape="http://www.inkscape.org/namespaces/inkscape"
   xmlns:sodipodi="http://sodipodi.sourceforge.net/DTD/sodipodi-0.dtd"
   xmlns:xlink="http://www.w3.org/1999/xlink"
   xmlns="http://www.w3.org/2000/svg"
   xmlns:svg="http://www.w3.org/2000/svg"
   xmlns:rdf="http://www.w3.org/1999/02/22-rdf-syntax-ns#"
   xmlns:cc="http://creativecommons.org/ns#"
   xmlns:dc="http://purl.org/dc/elements/1.1/">
  <metadata
     id="metadata18">
    <rdf:RDF>
      <cc:Work
         rdf:about="">
        <dc:format>image/svg+xml</dc:format>
        <dc:type
           rdf:resource="http://purl.org/dc/dcmitype/StillImage" />
      </cc:Work>
    </rdf:RDF>
  </metadata>
  <defs
     id="defs16">
    <linearGradient
       inkscape:collect="always"
       id="linearGradient942">
      <stop
         style="stop-color:#eff0f1;stop-opacity:1;"
         offset="0"
         id="stop938" />
      <stop
         style="stop-color:#499dcd;stop-opacity:1"
         offset="0.07142857"
         id="stop1712" />
      <stop
         style="stop-color:#78ccff;stop-opacity:1"
         offset="0.78571427"
         id="stop1021" />
      <stop
         style="stop-color:#009eff;stop-opacity:1"
         offset="1"
         id="stop940" />
    </linearGradient>
    <linearGradient
       inkscape:collect="always"
       xlink:href="#linearGradient942"
       id="linearGradient944"
       x1="16"
       y1="14"
       x2="16"
       y2="28"
       gradientUnits="userSpaceOnUse" />
    <linearGradient
       inkscape:collect="always"
       xlink:href="#linearGradient942"
       id="linearGradient944-3"
       x1="16"
       y1="14"
       x2="16"
       y2="28"
       gradientUnits="userSpaceOnUse"
       gradientTransform="matrix(0.66666612,0,0,0.66666612,0.400002,0.333364)" />
  </defs>
  <sodipodi:namedview
     pagecolor="#ffffff"
     bordercolor="#666666"
     borderopacity="1"
     objecttolerance="10"
     gridtolerance="10"
     guidetolerance="10"
     inkscape:pageopacity="0"
     inkscape:pageshadow="2"
     inkscape:window-width="1920"
     inkscape:window-height="1007"
     id="namedview14"
     showgrid="false"
     inkscape:zoom="6.9384853"
     inkscape:cx="24.284839"
     inkscape:cy="6.4855654"
     inkscape:window-x="0"
     inkscape:window-y="0"
     inkscape:window-maximized="1"
     inkscape:current-layer="svg12"
     inkscape:document-rotation="0"
     inkscape:pagecheckerboard="0"
     inkscape:lockguides="true">
    <inkscape:grid
       type="xygrid"
       id="grid848"
       originx="0"
       originy="0" />
  </sodipodi:namedview>
  <g
     id="ktorrent"
     style="fill:#ffe6d5">
    <rect
       style="opacity:0.00100002;fill:#ffe6d5"
       width="32"
       height="32"
       x="0"
       y="0"
       id="rect7" />
    <path
       d="m 20.874696,19.999738 c 0,0.4414 -0.364204,0.799999 -0.812908,0.799999 -0.447889,0 -0.812092,-0.358599 -0.812092,-0.799999 0,-0.4422 0.364203,-0.799999 0.812092,-0.799999 0.448704,0 0.812908,0.357799 0.812908,0.799999 z m 2.437093,3.199948 h -0.863281 c -0.223743,0 -0.426868,0.08905 -0.574437,0.233599 0.02935,-0.0289 -0.145589,0.1547 -0.257462,0.26485 l -3.474149,3.419548 c -0.538738,0.530449 -1.231444,0.832049 -1.936847,0.878099 -0.02565,0.0067 -0.390659,0.0051 -0.41737,-0.0023 -0.699056,-0.0492 -1.385364,-0.3492 -1.920142,-0.875799 l -1.736109,-1.709399 0.0031,-0.0031 c -0.161079,-0.1586 -0.26142,-0.3781 -0.26142,-0.6211 0,-0.485149 0.399495,-0.878099 0.891462,-0.878099 0.246747,0 0.468915,0.0992 0.630805,0.2578 l 0.0012,-8e-4 2.028863,1.997648 c 0.320177,0.31485 0.839465,0.31485 1.159641,0 0,0 3.720894,-3.652347 3.678847,-3.610947 0.589165,-0.586699 1.407606,-0.949999 2.311716,-0.949999 h 0.735515 c 2.243516,0 4.063311,-1.790599 4.063311,-3.999947 0,-0.1875 -0.01788,-0.36955 -0.04286,-0.55 -0.0063,-0.04375 -0.0127,-0.08595 -0.02022,-0.1289 -0.03133,-0.1781 -0.07098,-0.353099 -0.125381,-0.523449 0,-8e-4 0,-0.0031 -0.0011,-0.0039 -0.05633,-0.17655 -0.128526,-0.34745 -0.209066,-0.5123 -0.0095,-0.0207 -0.01904,-0.04025 -0.02935,-0.05975 -0.433213,-0.856249 -1.165582,-1.540249 -2.06578,-1.912099 -0.442357,-0.179299 -0.75654,-0.607799 -0.75654,-1.109749 0,-1.268349 -1.000137,-2.294548 -2.266518,-2.383198 -0.04921,-0.01015 -0.104357,-0.0164 -0.171389,-0.0164 -0.588349,0 -1.102918,-0.4636498 -1.38775,-1.042599 0.0063,0.0125 0.0023,0.0215 0.0023,0.03205 -1.01405,-2.2315984 -3.282549,-3.7893972 -5.926729,-3.7893972 -3.590387,0 -6.5004079,2.8651979 -6.5004079,6.3991952 0,0.885949 -0.4867885,1.708949 -1.2108282,2.125348 -0.018637,0.01015 -0.030164,0.02265 -0.040878,0.03515 -0.451851,0.26365 -0.8474373,0.60975 -1.1644141,1.0199 -0.011526,0.01445 -0.023002,0.0289 -0.034531,0.04415 -0.090034,0.1207 -0.1749416,0.245299 -0.2511134,0.374999 -0.00558,0.0094 -0.013862,0.0207 -0.019043,0.0301 -0.081706,0.1422 -0.1558976,0.28945 -0.2197804,0.441 -0.00314,0.007 -0.00518,0.01445 -0.00832,0.0215 -0.055555,0.13495 -0.1023751,0.274 -0.1432033,0.41545 -0.011526,0.0422 -0.023003,0.0844 -0.03372,0.12655 -0.028945,0.113299 -0.051188,0.227349 -0.069825,0.345299 -0.00752,0.0461 -0.015844,0.09295 -0.022242,0.13905 -0.018637,0.1586 -0.032146,0.31795 -0.032146,0.48205 0,2.209398 1.8193899,3.999947 4.0629062,3.999947 H 9.093352 c 0.2237423,0 0.4351957,-0.2054 0.4570316,-0.42495 0,-8e-4 0.00111,-0.0016 0.00111,-0.0031 0.00397,-0.0297 0.00204,-0.0586 0.00711,-0.0883 0.2408048,-1.076549 1.2128074,-1.883598 2.3787974,-1.883598 0.448704,0 0.811688,-0.3586 0.811688,-0.8008 V 17.19974 c 0,-1.105249 0.909288,-2.000598 2.031249,-2.000598 h 2.437907 c 1.12196,0 2.031249,0.895299 2.031249,2.000598 v 0.4 c 0,0.442199 -0.364204,0.799199 -0.812905,0.799199 -0.447891,0 -0.812096,-0.35705 -0.812096,-0.799199 0,-0.44215 -0.364151,-0.8008 -0.812042,-0.8008 h -1.624999 c -0.449109,0 -0.812907,0.3586 -0.812907,0.8008 v 1.199199 c 0,1.105449 -0.909695,2.000798 -2.031249,2.000798 H 11.9374 c -0.232476,0 -0.441949,0.0969 -0.589164,0.25155 -0.06703,0.0711 -0.123804,0.1492 -0.159098,0.23595 -0.0011,0.0023 -0.0023,0.0054 -0.0031,0.007 -0.0357,0.0875 -0.04921,0.1781 -0.05235,0.2711 -0.002,0.0125 -0.0095,0.0195 -0.0095,0.03435 0,0.883599 -0.727187,1.599999 -1.6250005,1.599999 H 8.6870939 C 5.5458162,23.199686 3,20.692687 3,17.59974 c 0,-2.069749 1.1449646,-3.869747 2.8397893,-4.839247 0.00121,-0.0011 -0.00204,-0.0031 0,-0.0043 0.2451718,-0.1367 0.4093986,-0.459399 0.4093986,-0.757049 0,-0.0699 0.00314,-0.1301 0.00916,-0.1824 C 6.3567426,7.4831974 9.9502777,4 14.374594,4 c 3.333738,0 6.195719,1.9780985 7.448187,4.8062464 2.091579,0.06795 3.779648,1.6905986 3.913304,3.7327966 C 27.662624,13.435493 29,15.362041 29,17.59974 c 0,3.092947 -2.546984,5.599946 -5.688313,5.599946 z"
       id="path2"
       style="fill:url(#linearGradient944);fill-opacity:1;stroke-width:0.0503891" />
  </g>
  <g
     id="22-22-ktorrent"
     transform="translate(32,10.000001)">
    <rect
       style="opacity:0.00100002"
       width="22"
       height="22"
       x="0"
       y="0"
       id="rect2" />
    <path
       d="m 14.316455,13.666511 c 0,0.294267 -0.242803,0.533332 -0.541939,0.533332 -0.298592,0 -0.541394,-0.239065 -0.541394,-0.533332 0,-0.2948 0.242802,-0.533332 0.541394,-0.533332 0.299136,0 0.541939,0.238532 0.541939,0.533332 z m 1.624727,2.133297 h -0.57552 c -0.149162,0 -0.284579,0.05937 -0.382958,0.155733 0.01957,-0.01927 -0.09706,0.103133 -0.171641,0.176566 l -2.316098,2.279697 c -0.359158,0.353632 -0.820962,0.554699 -1.29123,0.585399 -0.0171,0.0045 -0.260439,0.0034 -0.278246,-0.0015 -0.466037,-0.0328 -0.923575,-0.232799 -1.2800943,-0.583865 l -1.1574051,-1.139598 0.00207,-0.0021 C 8.3826737,17.164407 8.3157797,17.018073 8.3157797,16.856074 c 0,-0.323433 0.2663298,-0.585399 0.5943076,-0.585399 0.1644978,0 0.3126097,0.06613 0.4205363,0.171866 l 8e-4,-5.33e-4 1.3525744,1.331764 c 0.213451,0.2099 0.559643,0.2099 0.773094,0 0,0 2.480594,-2.434896 2.452562,-2.407296 0.392777,-0.391132 0.938403,-0.633332 1.541143,-0.633332 h 0.490343 c 1.495676,0 2.708872,-1.193732 2.708872,-2.666629 0,-0.125 -0.01192,-0.246367 -0.02857,-0.366667 -0.0042,-0.02917 -0.0085,-0.0573 -0.01348,-0.08593 -0.02089,-0.118733 -0.04732,-0.235399 -0.08359,-0.348965 0,-5.34e-4 0,-0.0021 -7.34e-4,-0.0026 -0.03755,-0.1177 -0.08568,-0.231634 -0.139377,-0.341534 -0.0063,-0.0138 -0.01269,-0.02683 -0.01957,-0.03983 -0.288805,-0.570832 -0.777051,-1.026832 -1.377182,-1.274731 -0.294905,-0.119533 -0.50436,-0.405199 -0.50436,-0.739833 0,-0.845565 -0.666757,-1.529697 -1.511011,-1.588797 -0.03281,-0.0068 -0.06957,-0.01093 -0.114259,-0.01093 -0.392232,0 -0.735278,-0.3091 -0.925166,-0.695066 0.0042,0.0083 0.0015,0.01433 0.0015,0.02137 C 13.25818,5.105271 11.745849,4.066739 9.9830636,4.066739 c -2.3935896,0 -4.3336026,1.910131 -4.3336026,4.266127 0,0.590632 -0.324525,1.139298 -0.807218,1.416897 -0.01243,0.0068 -0.02011,0.0151 -0.02725,0.02343 -0.301234,0.175766 -0.564958,0.406499 -0.776275,0.679933 -0.0077,0.0096 -0.01533,0.01927 -0.02302,0.02943 -0.06002,0.08047 -0.116628,0.163532 -0.16741,0.249999 -0.0037,0.0063 -0.0092,0.0138 -0.01269,0.02007 -0.05447,0.0948 -0.103931,0.192966 -0.14652,0.293999 -0.0021,0.0047 -0.0035,0.0096 -0.0055,0.01433 -0.03704,0.08997 -0.06825,0.182666 -0.09547,0.276966 -0.0077,0.02813 -0.01533,0.05627 -0.02248,0.08437 -0.0193,0.07553 -0.03413,0.151566 -0.04655,0.230199 -0.005,0.03073 -0.01056,0.06197 -0.01483,0.0927 -0.01243,0.105733 -0.02143,0.211966 -0.02143,0.321366 0,1.472931 1.212925,2.666629 2.708601,2.666629 h 0.270833 c 0.149161,0 0.29013,-0.136933 0.304687,-0.283299 0,-5.34e-4 7.4e-4,-0.0011 7.4e-4,-0.0021 0.0026,-0.0198 0.0014,-0.03907 0.0047,-0.05887 0.160537,-0.717698 0.8085384,-1.255731 1.5858644,-1.255731 0.2991357,0 0.5411249,-0.239066 0.5411249,-0.533866 v -0.799499 c 0,-0.736832 0.6061915,-1.33373 1.3541647,-1.33373 h 1.62527 c 0.747973,0 1.354165,0.596865 1.354165,1.33373 v 0.266667 c 0,0.294799 -0.242802,0.532799 -0.541936,0.532799 -0.298594,0 -0.541397,-0.238033 -0.541397,-0.532799 0,-0.294767 -0.242767,-0.533866 -0.541361,-0.533866 h -1.083326 c -0.299405,0 -0.5419374,0.239066 -0.5419374,0.533866 v 0.799465 c 0,0.736966 -0.606463,1.333864 -1.3541651,1.333864 H 8.3582617 c -0.1549838,0 -0.2946324,0.0646 -0.3927756,0.1677 -0.044687,0.0474 -0.082536,0.09947 -0.1060653,0.1573 -7.333e-4,0.0015 -0.00153,0.0036 -0.00207,0.0047 -0.0238,0.05833 -0.032807,0.118733 -0.0349,0.180733 -0.00133,0.0083 -0.00633,0.013 -0.00633,0.0229 0,0.589065 -0.4847908,1.066665 -1.0833328,1.066665 H 6.191393 C 4.097209,15.799813 2.4,14.128482 2.4,12.066519 2.4,10.686687 3.163309,9.48669 4.293191,8.840357 c 8e-4,-7.33e-4 -0.0013,-0.0021 0,-0.0029 0.163448,-0.09113 0.272933,-0.306266 0.272933,-0.504699 0,-0.0466 0.0021,-0.08673 0.0061,-0.1216 C 4.637824,5.322129 7.033508,3 9.9830496,3 c 2.2224914,0 4.1304764,1.318732 4.9654544,3.204161 1.394385,0.0453 2.519764,1.127065 2.608867,2.48853 1.284332,0.597632 2.175915,1.881997 2.175915,3.373795 0,2.061963 -1.697988,3.733294 -3.792205,3.733294 z"
       id="path2-5"
       style="fill:url(#linearGradient944-3);fill-opacity:1;stroke-width:0.0335927" />
  </g>
</svg>
