<?xml version="1.0" encoding="UTF-8" standalone="no"?>
<svg
   width="76"
   height="32"
   version="1.1"
   viewBox="0 0 20.108389 8.4667"
   id="svg53"
   sodipodi:docname="media.svg"
   inkscape:version="1.1.2 (0a00cf5339, 2022-02-04)"
   xmlns:inkscape="http://www.inkscape.org/namespaces/inkscape"
   xmlns:sodipodi="http://sodipodi.sourceforge.net/DTD/sodipodi-0.dtd"
   xmlns:xlink="http://www.w3.org/1999/xlink"
   xmlns="http://www.w3.org/2000/svg"
   xmlns:svg="http://www.w3.org/2000/svg"
   xmlns:rdf="http://www.w3.org/1999/02/22-rdf-syntax-ns#"
   xmlns:cc="http://creativecommons.org/ns#"
   xmlns:dc="http://purl.org/dc/elements/1.1/">
  <sodipodi:namedview
     id="namedview36"
     pagecolor="#d1dee4"
     bordercolor="#666666"
     borderopacity="1.0"
     inkscape:pageshadow="2"
     inkscape:pageopacity="0"
     inkscape:pagecheckerboard="0"
     showgrid="false"
     inkscape:zoom="1.5374921"
     inkscape:cx="39.024592"
     inkscape:cy="-17.886271"
     inkscape:window-width="1920"
     inkscape:window-height="1029"
     inkscape:window-x="0"
     inkscape:window-y="0"
     inkscape:window-maximized="1"
     inkscape:current-layer="svg53" />
  <metadata
     id="metadata57">
    <rdf:RDF>
      <cc:Work
         rdf:about="">
        <dc:format>image/svg+xml</dc:format>
        <dc:type
           rdf:resource="http://purl.org/dc/dcmitype/StillImage" />
      </cc:Work>
    </rdf:RDF>
  </metadata>
  <defs
     id="defs3">
    <style
       type="text/css"
       id="current-color-scheme">.ColorScheme-Text { color:#363636; } </style>
  </defs>
  <g
     id="media-playback-paused"
     transform="matrix(0.26458,0,0,0.26458,0.52914934,1.3229139)">
    <rect
       x="0.00021085"
       y="3.0110999e-05"
       width="22"
       height="22"
       fill-opacity="0"
       id="rect5" />
    <path
       id="path7"
       style="stroke-width:0.999983;stroke:none;stroke-opacity:1;fill:#ffffff;fill-opacity:1"
       class="ColorScheme-Text"
       d="M 9.5566406,11.179688 C 8.9751183,11.208975 8.515625,11.688293 8.515625,12.277344 v 7.804687 c 0,0.608052 0.4896043,1.097657 1.0976562,1.097657 h 1.0175778 c 0.608052,-10e-7 1.097657,-0.489605 1.097657,-1.097657 v -7.804687 c 0,-0.608052 -0.489605,-1.097656 -1.097657,-1.097656 H 9.6132812 c -0.019002,0 -0.037882,-9.45e-4 -0.056641,0 z m 5.7324214,0 c -0.581522,0.02929 -1.041015,0.508605 -1.041015,1.097656 v 7.804687 c 0,0.608052 0.489604,1.097657 1.097656,1.097657 h 1.015625 c 0.608052,-10e-7 1.097656,-0.489605 1.097656,-1.097657 v -7.804687 c 0,-0.608052 -0.489604,-1.097656 -1.097656,-1.097656 h -1.015625 c -0.019,0 -0.03788,-9.45e-4 -0.05664,0 z"
       transform="matrix(1.0000165,0,0,1.0000165,-2.0000041,-5.0000525)"
       sodipodi:nodetypes="cssssssssccssssssssc" />
  </g>
  <g
     id="media-playback-playing"
     transform="matrix(0.26458,0,0,0.26458,7.0776124,7.4082619)">
    <rect
       x="0.00021085"
       y="-23"
       width="22"
       height="22"
       fill-opacity="0"
       id="rect10" />
    <path
       id="path12"
       style="fill:#ffffff;fill-opacity:1;stroke-width:0.999983"
       class="ColorScheme-Text"
       d="M 35.128906,8.9863281 C 35.065476,8.9861739 35.00105,8.9916762 34.935547,9 c -0.35027,0.043427 -0.64052,0.1955814 -0.875,0.4589844 -0.234474,0.2634207 -0.353516,0.5726266 -0.353516,0.9257816 v 11.142578 c 0,0.353157 0.119046,0.664314 0.353516,0.927734 0.234473,0.263425 0.524723,0.415553 0.875,0.458984 0.35027,0.04343 0.668583,-0.03469 0.960937,-0.234374 l 8.082032,-5.572266 c 0.257687,-0.176583 0.438751,-0.416623 0.537109,-0.708984 0.09846,-0.29526 0.09846,-0.586498 0,-0.878907 -0.09846,-0.292364 -0.27656,-0.531486 -0.53125,-0.710937 L 35.896484,9.2324219 C 35.659735,9.0677863 35.40377,8.9869964 35.128906,8.9863281 Z"
       transform="matrix(1.0000165,0,0,1.0000165,-26.750413,-28.000083)"
       sodipodi:nodetypes="sccssssccccccs" />
  </g>
  <g
     id="media-playback-stopped"
     transform="matrix(0.26458,0,0,0.26458,0.92629185,8.2020019)">
    <rect
       x="48"
       y="-26"
       width="22"
       height="22"
       fill-opacity="0"
       id="rect15" />
    <path
       id="path17"
       style="stroke-width:0.999983;fill:#ffffff;fill-opacity:0.994012"
       class="ColorScheme-Text"
       d="m 58.375,10.916016 c -0.516911,0.02603 -0.925781,0.451007 -0.925781,0.974609 v 8.068359 c 0,0.540493 0.436069,0.976563 0.976562,0.976563 h 7.916016 c 0.540489,0 0.976562,-0.43607 0.976562,-0.976563 v -8.068359 c 0,-0.540492 -0.436073,-0.974609 -0.976562,-0.974609 h -7.916016 c -0.01689,0 -0.03411,-8.4e-4 -0.05078,0 z"
       transform="matrix(1.0000165,0,0,1.0000165,-3.5010341,-31.000083)"
       sodipodi:nodetypes="ssssssssss" />
  </g>
  <g
     id="media-record"
     transform="matrix(0.26458,0,0,0.26458,0.86025506,1.3229103)">
    <rect
       x="73"
       y="4.3869e-05"
       width="22"
       height="22"
       fill-opacity="0"
       id="rect20" />
    <path
       id="path22"
       style="stroke-width:0.999983;fill:#ffffff;fill-opacity:0.994012"
       class="ColorScheme-Text"
       d="m 87.296875,10.326172 c -3.176691,6e-5 -5.751893,2.575262 -5.751953,5.751953 6e-5,3.176691 2.575262,5.751893 5.751953,5.751953 3.176691,-6e-5 5.751893,-2.575262 5.751953,-5.751953 -6e-5,-3.176691 -2.575262,-5.751893 -5.751953,-5.751953 z"
       transform="matrix(1.0000165,0,0,1.0000165,-3.2514431,-5.0000389)"
       sodipodi:nodetypes="ccccc" />
  </g>
  <g
     id="media-seek-forward"
     transform="matrix(0.26458,0,0,0.26458,33.271468,7.4082619)">
    <rect
       x="0.00021085"
       y="-23"
       width="22"
       height="22"
       fill-opacity="0"
       id="rect25" />
    <path
       id="path27"
       style="stroke-width:0.999983;fill:#ffffff;fill-opacity:0.96806389"
       class="ColorScheme-Text"
       d="M 132.59375 10.783203 C 132.54586 10.78309 132.49678 10.78677 132.44727 10.792969 C 132.18278 10.825737 131.96414 10.939801 131.78711 11.138672 C 131.61008 11.337573 131.52148 11.571242 131.52148 11.837891 L 131.52148 20.251953 C 131.52148 20.5186 131.61015 20.752279 131.78711 20.951172 C 131.96414 21.150073 132.18278 21.266022 132.44727 21.298828 C 132.71176 21.331596 132.9531 21.271783 133.17383 21.121094 L 135.50781 19.511719 L 135.50781 20.251953 C 135.50781 20.5186 135.59644 20.752279 135.77344 20.951172 C 135.95047 21.150073 136.17109 21.266022 136.43555 21.298828 C 136.70004 21.331596 136.93943 21.271783 137.16016 21.121094 L 143.26172 16.914062 C 143.45628 16.780741 143.59366 16.599649 143.66797 16.378906 C 143.74227 16.155979 143.74227 15.935624 143.66797 15.714844 C 143.59364 15.494088 143.45988 15.313226 143.26758 15.177734 L 137.16016 10.96875 C 136.98142 10.844442 136.78761 10.783689 136.58008 10.783203 C 136.53223 10.78309 136.48506 10.78677 136.43555 10.792969 C 136.17106 10.825737 135.95047 10.939801 135.77344 11.138672 C 135.59641 11.337573 135.50781 11.571242 135.50781 11.837891 L 135.50781 12.578125 L 133.17383 10.96875 C 132.99506 10.844442 132.80128 10.783689 132.59375 10.783203 z "
       transform="matrix(1.0000165,0,0,1.0000165,-125.75206,-28.000083)" />
  </g>
  <g
     id="media-seek-backward"
     transform="matrix(-0.26458,0,0,0.26458,32.543874,7.4082619)">
    <rect
       x="0.00021085"
       y="-23"
       width="22"
       height="22"
       fill-opacity="0"
       id="rect30" />
    <path
       id="path32"
       style="fill:#ffffff;fill-opacity:1;stroke-width:0.999983"
       class="ColorScheme-Text"
       d="m 112.15039,10.835938 c -0.20753,4.86e-4 -0.40134,0.06124 -0.58008,0.185546 l -6.10742,4.208985 c -0.19229,0.135492 -0.32605,0.316352 -0.40039,0.537109 -0.0743,0.22078 -0.0743,0.441136 0,0.664063 0.0743,0.220742 0.21168,0.401834 0.40625,0.535156 l 6.10156,4.207031 c 0.22074,0.150689 0.46012,0.210503 0.72461,0.177734 0.26447,-0.03279 0.48508,-0.148755 0.66211,-0.347656 0.177,-0.198892 0.26563,-0.432571 0.26563,-0.699218 v -0.740235 l 2.33398,1.609375 c 0.22074,0.150689 0.46207,0.210503 0.72656,0.177734 0.26447,-0.03279 0.48313,-0.148755 0.66016,-0.347656 0.17696,-0.198892 0.26562,-0.432571 0.26562,-0.699218 v -8.414063 c 0,-0.266647 -0.0886,-0.500318 -0.26562,-0.699219 -0.17704,-0.19887 -0.39567,-0.312935 -0.66016,-0.345703 -0.0495,-0.0062 -0.0986,-0.0099 -0.14648,-0.0098 -0.20753,4.86e-4 -0.40131,0.06124 -0.58008,0.185546 l -2.33398,1.609375 v -0.740234 c 0,-0.266647 -0.0886,-0.500318 -0.26563,-0.699219 -0.17704,-0.19887 -0.39762,-0.312935 -0.66211,-0.345703 -0.0495,-0.0062 -0.0967,-0.0099 -0.14453,-0.0098 z"
       transform="matrix(-1.0000165,0,0,1.0000165,123.00206,-28.000083)"
       sodipodi:nodetypes="sccsccccssccscssccsccsccs" />
  </g>
  <g
     id="media-skip-forward"
     transform="matrix(0.26458,0,0,0.26458,1.3898478,1.3229138)">
    <rect
       x="170"
       y="3.0518e-05"
       width="22"
       height="22"
       fill-opacity="0"
       id="rect35" />
    <path
       id="path37"
       style="stroke-width:0.999983;fill:#ffffff;fill-opacity:1"
       class="ColorScheme-Text"
       d="M 182.16602 10.556641 C 182.11666 10.556527 182.06466 10.559905 182.01367 10.566406 C 181.74101 10.600195 181.5165 10.718805 181.33398 10.923828 C 181.15151 11.128867 181.05859 11.369647 181.05859 11.644531 L 181.05859 20.318359 C 181.05859 20.593246 181.15147 20.834024 181.33398 21.039062 C 181.51649 21.244105 181.74102 21.362658 182.01367 21.396484 C 182.28632 21.430273 182.53415 21.37025 182.76172 21.214844 L 189.05273 16.876953 C 189.25331 16.739508 189.39421 16.553736 189.4707 16.326172 C 189.54739 16.096351 189.54739 15.868227 189.4707 15.640625 C 189.39406 15.413058 189.25687 15.22757 189.05859 15.087891 L 182.76172 10.748047 C 182.57743 10.619902 182.37997 10.557162 182.16602 10.556641 z M 191.14648 12.931641 C 190.74113 12.931641 190.41602 13.258692 190.41602 13.664062 L 190.41602 18.175781 C 190.41602 18.58115 190.74111 18.908203 191.14648 18.908203 L 192 18.908203 C 192.40538 18.908203 192.73242 18.581149 192.73242 18.175781 L 192.73242 13.664062 C 192.73242 13.258693 192.40537 12.931641 192 12.931641 L 191.14648 12.931641 z "
       transform="matrix(1.0000165,0,0,1.0000165,-5.2530787,-5.0000522)" />
  </g>
  <g
     id="media-skip-backward"
     transform="matrix(-0.26458,0,0,0.26458,90.619345,1.3229138)">
    <rect
       x="170"
       y="3.0518e-05"
       width="22"
       height="22"
       fill-opacity="0"
       id="rect40" />
    <path
       id="path42"
       style="fill:#ffffff;fill-opacity:1;stroke-width:0.999983"
       class="ColorScheme-Text"
       d="m 165.90625,10.591797 c -0.21394,5.21e-4 -0.41141,0.06326 -0.5957,0.191406 l -6.29688,4.339844 c -0.19826,0.139679 -0.33546,0.325166 -0.41211,0.552734 -0.0767,0.227601 -0.0767,0.455726 0,0.685547 0.0765,0.227563 0.21739,0.413336 0.41797,0.550781 L 165.31055,21.25 c 0.22755,0.155406 0.47539,0.215429 0.74804,0.181641 0.27264,-0.03381 0.49718,-0.15238 0.67969,-0.357422 0.18251,-0.205037 0.27539,-0.445816 0.27539,-0.720703 v -8.673828 c 0,-0.274884 -0.0929,-0.515665 -0.27539,-0.720704 -0.18251,-0.205023 -0.40703,-0.323633 -0.67969,-0.357422 -0.051,-0.0065 -0.10298,-0.0099 -0.15234,-0.0098 z m -9.83501,2.375 c -0.40537,0 -0.73242,0.327052 -0.73242,0.732422 v 4.511719 c 0,0.405368 0.32705,0.732421 0.73242,0.732421 h 0.85351 c 0.40537,0 0.73047,-0.327053 0.73047,-0.732421 v -4.511719 c 0,-0.40537 -0.3251,-0.732422 -0.73047,-0.732422 z"
       transform="matrix(-1.0000165,0,0,1.0000165,342.50267,-5.0000522)"
       sodipodi:nodetypes="sccscccssssscsssssssssss" />
  </g>
  <g
     id="media-eject"
     transform="matrix(0,-0.26458,0.26458,0,52.916903,52.122282)">
    <rect
       x="170"
       y="3.0518e-05"
       width="22"
       height="22"
       fill-opacity="0"
       id="rect45" />
    <path
       id="path47"
       style="stroke-width:0.999983;fill:#ffffff;fill-opacity:1"
       class="ColorScheme-Text"
       d="M 210.82812 9.1660156 C 210.71393 9.1660156 210.60013 9.1843132 210.48633 9.2226562 C 210.25876 9.2992519 210.07327 9.4364886 209.93359 9.6347656 L 205.59375 15.931641 C 205.46562 16.11593 205.40287 16.313393 205.40234 16.527344 C 205.40223 16.576742 205.40558 16.628702 205.41211 16.679688 C 205.44575 16.952341 205.56449 17.176855 205.76953 17.359375 C 205.97457 17.54185 206.21535 17.634766 206.49023 17.634766 L 215.16406 17.634766 C 215.43895 17.634766 215.67973 17.54185 215.88477 17.359375 C 216.0898 17.176862 216.20836 16.952337 216.24219 16.679688 C 216.27583 16.407033 216.21611 16.159209 216.06055 15.931641 L 211.72266 9.640625 C 211.5852 9.4400463 211.39942 9.299146 211.17188 9.2226562 C 211.05696 9.1843132 210.94233 9.1660156 210.82812 9.1660156 z M 207.22656 18.375 C 206.70965 18.401034 206.30273 18.826007 206.30273 19.349609 L 206.30273 19.796875 C 206.30273 20.337367 206.73685 20.773438 207.27734 20.773438 L 214.59375 20.773438 C 215.13424 20.773438 215.57031 20.337367 215.57031 19.796875 L 215.57031 19.349609 C 215.57031 18.809117 215.13424 18.375 214.59375 18.375 L 207.27734 18.375 C 207.26045 18.375 207.24324 18.37416 207.22656 18.375 z "
       transform="matrix(0,1.0000165,-1.0000165,0,197.00008,-200.00346)" />
  </g>
  <use
     y="0"
     x="0"
     id="media-playback-pause"
     transform="translate(0.26458437,9.2604532)"
     width="100%"
     height="100%"
     xlink:href="#media-playback-paused" />
  <g
     id="media-playback-start"
     transform="matrix(0.26458,0,0,0.26458,7.1436258,16.668715)">
    <path
       id="rect3281"
       style="fill-opacity:0"
       d="M 2.1085e-4,-23 H 22.000211 V -1 H 2.1085e-4 Z" />
    <path
       id="path3283"
       style="fill:#ffffff;fill-opacity:1;stroke-width:0.999983"
       class="ColorScheme-Text"
       d="M 35.128906,8.9863281 C 35.065476,8.9861739 35.00105,8.9916762 34.935547,9 c -0.35027,0.043427 -0.64052,0.1955814 -0.875,0.4589844 -0.234474,0.2634207 -0.353516,0.5726266 -0.353516,0.9257816 v 11.142578 c 0,0.353157 0.119046,0.664314 0.353516,0.927734 0.234473,0.263425 0.524723,0.415553 0.875,0.458984 0.35027,0.04343 0.668583,-0.03469 0.960937,-0.234374 l 8.082032,-5.572266 c 0.257687,-0.176583 0.438751,-0.416623 0.537109,-0.708984 0.09846,-0.29526 0.09846,-0.586498 0,-0.878907 -0.09846,-0.292364 -0.27656,-0.531486 -0.53125,-0.710937 L 35.896484,9.2324219 C 35.659735,9.0677863 35.40377,8.9869964 35.128906,8.9863281 Z"
       sodipodi:nodetypes="sccssssccccccs"
       transform="matrix(1.0000165,0,0,1.0000165,-26.750413,-28.000083)" />
  </g>
  <use
     y="0"
     x="0"
     id="media-playback-stop"
     transform="translate(-0.13255813,9.2604531)"
     width="100%"
     height="100%"
     xlink:href="#media-playback-stopped" />
</svg>
