<?xml version="1.0" encoding="UTF-8" standalone="no"?>
<svg
   width="22"
   height="22"
   version="1.1"
   viewBox="0 0 22 22"
   id="svg65"
   sodipodi:docname="media.svg"
   inkscape:version="1.2.2 (b0a8486541, 2022-12-01)"
   xml:space="preserve"
   xmlns:inkscape="http://www.inkscape.org/namespaces/inkscape"
   xmlns:sodipodi="http://sodipodi.sourceforge.net/DTD/sodipodi-0.dtd"
   xmlns="http://www.w3.org/2000/svg"
   xmlns:svg="http://www.w3.org/2000/svg"><sodipodi:namedview
     id="namedview67"
     pagecolor="#ffffff"
     bordercolor="#666666"
     borderopacity="1.0"
     inkscape:pageshadow="2"
     inkscape:pageopacity="0.0"
     inkscape:pagecheckerboard="0"
     showgrid="false"
     inkscape:zoom="4.3993023"
     inkscape:cx="7.8421526"
     inkscape:cy="2.955014"
     inkscape:window-width="1920"
     inkscape:window-height="1032"
     inkscape:window-x="0"
     inkscape:window-y="24"
     inkscape:window-maximized="1"
     inkscape:current-layer="svg65"
     inkscape:showpageshadow="2"
     inkscape:deskcolor="#d1d1d1" /><defs
     id="defs3"><style
       id="current-color-scheme"
       type="text/css">.ColorScheme-Text { color:#aeb9d0; } .ColorScheme-Highlight { color:#5294e2; } .ColorScheme-ButtonBackground { color:#aeb9d0; }</style><style
       type="text/css"
       id="current-color-scheme-6">.ColorScheme-Text { color:#363636; } </style></defs><g
     id="media-record"
     transform="translate(22,-1030.4)"><rect
       y="1030.4"
       width="22"
       height="22"
       opacity="0.00100002"
       id="rect5"
       x="0" /><path
       class="ColorScheme-Highlight"
       d="m 11,1035.4 c -3.311,0 -6,2.6888 -6,6 0,3.311 2.689,6 6,6 3.311,0 6,-2.689 6,-6 0,-3.3112 -2.689,-6 -6,-6 z"
       fill="#f96060"
       id="path7"
       style="display:none" /><path
       style="display:inline;fill:#f96060;fill-opacity:1;stroke-width:0.727214"
       d="M 11,1032.6734 A 8.72656,8.72656 0 0 0 2.27344,1041.4 8.72656,8.72656 0 0 0 11,1050.1266 8.72656,8.72656 0 0 0 19.72656,1041.4 8.72656,8.72656 0 0 0 11,1032.6734 Z m 0,0.7273 A 7.9993473,7.9993473 0 0 1 18.999346,1041.4 7.9993473,7.9993473 0 0 1 11,1049.3993 7.9993473,7.9993473 0 0 1 3.0006533,1041.4 7.9993473,7.9993473 0 0 1 11,1033.4007 Z m 0,4.3632 A 3.6360666,3.6360666 0 0 0 7.3639334,1041.4 3.6360666,3.6360666 0 0 0 11,1045.0361 3.6360666,3.6360666 0 0 0 14.636066,1041.4 3.6360666,3.6360666 0 0 0 11,1037.7639 Z"
       id="path94" /></g><g
     id="media-playback-stop"
     transform="translate(44,-1030.4)"><rect
       y="1030.4"
       width="22"
       height="22"
       opacity="0.00100002"
       id="rect10"
       x="0" /><path
       class="ColorScheme-Text"
       d="m 5,1035.4 v 12 h 12 v -12 z"
       fill="currentColor"
       id="path12"
       style="display:none" /><path
       id="path62-7"
       style="color:#aeb9d0;fill:#aeb9d0;fill-opacity:1;stroke-width:1.62499"
       class="ColorScheme-Text"
       d="M 55 2.3339844 C 50.1985 2.3339844 46.333984 6.1983048 46.333984 11 C 46.333984 15.801395 50.198662 19.666016 55 19.666016 C 59.801499 19.666016 63.666016 15.801395 63.666016 11 C 63.666016 6.1983048 59.801336 2.3339844 55 2.3339844 z M 52.609375 7.4140625 L 57.390625 7.4140625 C 58.052823 7.4140625 58.585938 7.9471756 58.585938 8.609375 L 58.585938 13.390625 C 58.585938 14.052824 58.052823 14.585938 57.390625 14.585938 L 52.609375 14.585938 C 51.947177 14.585938 51.414062 14.052824 51.414062 13.390625 L 51.414062 8.609375 C 51.414063 7.9471756 51.947177 7.4140625 52.609375 7.4140625 z "
       transform="translate(-44,1030.4)" /></g><g
     id="media-skip-forward"
     transform="translate(66,-1030.4)"><rect
       y="1030.4"
       width="22"
       height="22"
       opacity="0.00100002"
       id="rect15"
       x="0" /><path
       class="ColorScheme-Text"
       d="m 19,1037.4 v 8 h -2 v -8 z m -2,4 -7,4 v -8 z m -7,0 -7,4 v -8 z"
       fill="currentColor"
       id="path17"
       sodipodi:nodetypes="ccccccccccccc"
       style="display:none" /><path
       style="fill:#aeb9d0;fill-opacity:1"
       d="m 15.015558,1036.3861 c 0.551527,0.01 0.991943,0.4622 0.984375,1.0137 v 8 c 0.01912,1.3523 -2.019125,1.3523 -2,0 v -3.9863 c -0.004,0.6272 -0.289283,1.1985 -0.738281,1.4785 l -5.3339848,3.332 c -0.8858409,0.5511 -1.9263936,-0.2533 -1.927734,-1.4902 v -6.666 c -1.53e-5,-0.8972 0.5679478,-1.6334 1.285156,-1.666 0.2225683,-0.01 0.4434807,0.051 0.642578,0.1757 l 5.3339848,3.3321 c 0.448998,0.28 0.734284,0.8513 0.738281,1.4785 v -3.9883 c -0.0077,-0.5638 0.45186,-1.0225 1.015625,-1.0137 z"
       id="path99"
       sodipodi:nodetypes="scccccccccccccs" /></g><g
     id="media-skip-backward"
     transform="matrix(-1,0,0,1,110,-1030.4)"><rect
       y="1030.4"
       width="22"
       height="22"
       opacity="0.00100002"
       id="rect20"
       x="0" /><path
       class="ColorScheme-Text"
       d="m 19,1037.4 v 8 h -2 v -8 z m -2,4 -7,4 v -8 z m -7,0 -7,4 v -8 z"
       fill="currentColor"
       id="path22"
       style="display:none" /><path
       style="display:inline;fill:#aeb9d0;fill-opacity:1"
       d="m 15.015558,1036.3861 c 0.551527,0.01 0.991943,0.4622 0.984375,1.0137 v 8 c 0.01913,1.3523 -2.019125,1.3523 -2,0 v -3.9863 c -0.004,0.6272 -0.289283,1.1985 -0.738281,1.4785 l -5.3339849,3.332 c -0.8858409,0.5511 -1.9263936,-0.2533 -1.927734,-1.4902 v -6.666 c -1.53e-5,-0.8972 0.5679478,-1.6334 1.285156,-1.666 0.2225683,-0.01 0.4434807,0.051 0.642578,0.1757 l 5.3339849,3.3321 c 0.448998,0.28 0.734284,0.8513 0.738281,1.4785 v -3.9883 c -0.0077,-0.5638 0.45186,-1.0225 1.015625,-1.0137 z"
       id="path99-2"
       sodipodi:nodetypes="scccccccccccccs" /></g><g
     id="media-seek-forward"
     transform="translate(110,-1030.4)"><rect
       y="1030.4"
       width="22"
       height="22"
       opacity="0.00100002"
       id="rect25"
       x="0" /><path
       class="ColorScheme-Text"
       d="m 11,1037.4 7,4 -7,4 z m 0,4 -7,4 v -8 z"
       fill="currentColor"
       id="path27"
       style="display:none" /><path
       style="fill:#aeb9d0;fill-opacity:1"
       d="m 12.123047,1036.3883 c 0.195485,-0.01 0.389584,0.05 0.564453,0.1757 l 4.667969,3.3321 c 0.860364,0.6143 0.860364,2.3681 0,2.9824 l -4.667969,3.332 c -0.77533,0.552 -1.686546,-0.2527 -1.6875,-1.4902 v -3.3203 -3.3457 c -4.4e-5,-0.8963 0.49605,-1.6323 1.123047,-1.666 z M 11,1041.4 c -0.0032,0.6267 -0.252227,1.1979 -0.644531,1.4785 l -4.667969,3.332 C 4.9121976,1046.7627 4.000903,1045.958 4,1044.7203 v -6.666 c -4.24e-5,-0.8964 0.4960656,-1.6323 1.123047,-1.666 0.195485,-0.01 0.3895842,0.05 0.564453,0.1757 l 4.667969,3.3321 c 0.398033,0.2846 0.648047,0.868 0.644531,1.5039 z"
       id="path104"
       sodipodi:nodetypes="cccccccccccccccccc" /></g><g
     id="media-seek-backward"
     transform="matrix(-1,0,0,1,154,-1030.4)"><rect
       y="1030.4"
       width="22"
       height="22"
       opacity="0.00100002"
       id="rect30"
       x="0" /><path
       class="ColorScheme-Text"
       d="m 11,1037.4 7,4 -7,4 z m 0,4 -7,4 v -8 z"
       fill="currentColor"
       id="path32"
       style="display:none" /><path
       style="display:inline;fill:#aeb9d0;fill-opacity:1"
       d="m 12.122676,1036.4008 c 0.195485,-0.01 0.389584,0.051 0.564453,0.1757 l 4.667969,3.3321 c 0.860364,0.6143 0.860364,2.3681 0,2.9824 l -4.667969,3.332 c -0.77533,0.552 -1.686546,-0.2527 -1.6875,-1.4902 v -3.3203 -3.3457 c -4.4e-5,-0.8963 0.49605,-1.6323 1.123047,-1.666 z m -1.123047,5.0117 c -0.0032,0.6267 -0.252227,1.1979 -0.644531,1.4785 l -4.667969,3.332 c -0.775302,0.5522 -1.686597,-0.2525 -1.6875,-1.4902 v -6.666 c -4.2e-5,-0.8964 0.496066,-1.6323 1.123047,-1.666 0.195485,-0.01 0.389584,0.051 0.564453,0.1757 l 4.667969,3.3321 c 0.398033,0.2846 0.648047,0.868 0.644531,1.5039 z"
       id="path84"
       sodipodi:nodetypes="cccccccccccccccccc" /></g><g
     id="media-eject"
     transform="translate(-44,-1030.4)"><rect
       y="1030.4"
       width="22"
       height="22"
       opacity="0.00100002"
       id="rect35"
       x="0" /><path
       class="ColorScheme-Text"
       d="m 11,1036.4 -5,5 v 1 h 10 v -1 z m -5,8 v 2 h 10 v -2 z"
       display="none"
       fill="currentColor"
       id="path37" /><path
       style="display:inline;fill:#aeb9d0;fill-opacity:1;stroke-width:1"
       d="m 11.01367,1036.1038 c -0.636369,0 -1.2198537,0.2828 -1.5039047,0.7383 l -3.3320305,3.63 c -0.124755,0.1991 -0.1851825,0.42 -0.175782,0.6426 0.03264,0.7172 0.768906,1.2851 1.666017,1.2851 h 6.6660152 c 1.236858,0 2.041227,-1.0418 1.490235,-1.9277 l -3.332031,-3.63 c -0.279965,-0.4489 -0.851282,-0.7383 -1.478517,-0.7383 z m -4.0136697,8.2961 c -1.3545495,-0.021 -1.3545495,2.0214 0,1.9999 h 7.9999987 c 1.35455,0.021 1.35455,-2.0214 0,-1.9999 z"
       id="path89"
       sodipodi:nodetypes="scccccccssccccc" /></g><g
     id="media-playback-pause"
     transform="translate(-22,-1030.4)"><rect
       y="1030.4"
       width="22"
       height="22"
       opacity="0.00100002"
       id="rect40"
       x="0"
       style="display:inline" /><path
       class="ColorScheme-Text"
       d="m 12.086753,1038.1398 h 2.173508 v 6.5205 h -2.173508 z m -4.347016,0 h 2.173508 v 6.5205 H 7.739737 Z m 3.260262,-5.4336 c -4.816469,0 -8.693868,3.8774 -8.693868,8.6939 0,4.8165 3.877562,8.6938 8.693868,8.6938 4.816471,0 8.69387,-3.8773 8.69387,-8.6938 0,-4.8165 -3.877562,-8.6939 -8.69387,-8.6939 z"
       fill="currentColor"
       id="path52-6"
       style="color:#aeb9d0;display:none;fill:#c8a1a1;fill-opacity:1;stroke-width:1.63005" /><path
       id="path52-5"
       style="color:#aeb9d0;display:inline;fill:#aeb9d0;fill-opacity:1;stroke-width:1.63491"
       class="ColorScheme-Text"
       d="m 11,1032.6805 c -4.8308523,0 -8.7195565,3.8888 -8.7195565,8.7196 0,4.8308 3.8888677,8.7196 8.7195565,8.7196 4.830852,0 8.719556,-3.8888 8.719556,-8.7196 0,-4.8308 -3.888867,-8.7196 -8.719556,-8.7196 z m -2.2565264,5.3454 c 0.6312523,-0.011 1.1454435,0.5035 1.1367784,1.1346 v 4.479 c 0.021417,1.5144 -2.2609156,1.5144 -2.239495,0 v -4.479 c -0.0085,-0.6173 0.4851682,-1.1183 1.1027166,-1.1346 z m 4.4789924,0 c 0.631251,-0.011 1.145442,0.5035 1.136777,1.1346 v 4.479 c 0.02141,1.5142 -2.260896,1.5142 -2.239495,0 v -4.479 c -0.0085,-0.6173 0.485168,-1.1183 1.102718,-1.1346 z" /><path
       class="ColorScheme-Text"
       d="m 5,1035.4 v 12 h 4 v -12 z m 8,0 v 12 h 4 v -12 z"
       fill="currentColor"
       id="path42"
       style="display:none" /></g><g
     id="media-playback-start"
     transform="translate(0,-1030.4)"><rect
       y="1030.4"
       width="22"
       height="22"
       opacity="0.00100002"
       id="rect45"
       x="0" /><path
       id="path57-3"
       style="color:#aeb9d0;fill:#aeb9d0;fill-opacity:1;stroke-width:1.08177"
       class="ColorScheme-Text"
       d="M 11.498047 2.3457031 C 6.7031977 2.3457031 2.8457031 6.2051048 2.8457031 11 C 2.8457031 15.794895 6.7031977 19.654297 11.498047 19.654297 C 16.292896 19.654297 20.154297 15.794895 20.154297 11 C 20.154297 6.2051048 16.292896 2.3457031 11.498047 2.3457031 z M 10.191406 7.296875 C 10.326261 7.3033531 10.452872 7.3480876 10.570312 7.4296875 L 14.765625 10.382812 C 14.902521 10.479212 14.997881 10.608425 15.050781 10.765625 C 15.103681 10.922625 15.103681 11.079581 15.050781 11.238281 C 14.997906 11.395381 14.900159 11.524141 14.761719 11.619141 L 10.570312 14.654297 C 10.413211 14.760797 10.24095 14.802297 10.052734 14.779297 C 9.8645315 14.755997 9.7099833 14.674703 9.5839844 14.533203 C 9.5537235 14.499192 9.5269486 14.462642 9.5039062 14.425781 C 9.5026811 14.424406 9.5012191 14.423262 9.5 14.421875 C 9.4501662 14.36519 9.4037921 14.300685 9.3652344 14.224609 L 9.3359375 14.246094 L 9.3359375 14.164062 C 9.2559041 13.984317 9.2072945 13.775097 9.2070312 13.546875 L 9.2070312 8.4550781 C 9.2070344 8.2320589 9.2550733 8.0225412 9.3359375 7.8398438 L 9.3359375 7.7539062 L 9.3652344 7.7773438 C 9.4610705 7.5872165 9.595881 7.474988 9.7558594 7.4082031 C 9.8447384 7.3537829 9.9421104 7.3162527 10.052734 7.3027344 C 10.09966 7.2967844 10.146455 7.2947156 10.191406 7.296875 z "
       transform="translate(0,1030.4)" /><path
       class="ColorScheme-Text"
       d="m 5.9999999,1035.4 v 12 L 17,1041.4 7.1007999,1036.0004 Z"
       fill="currentColor"
       id="path47"
       style="display:none;fill:#ea7fa0;fill-opacity:1" /></g><g
     id="media-playback-paused"
     transform="matrix(1.5,0,0,1.5,-4.6412,-1522.6)"><rect
       x="3.6666999"
       y="1034"
       width="14.667"
       height="14.667"
       fill-opacity="0"
       id="rect50" /><path
       id="path52"
       style="fill:#aeb9d0;fill-opacity:1;stroke-width:1.5"
       class="ColorScheme-Text"
       d="m 11.859375,31.5 c -4.4322,0 -8,3.5678 -8,8 0,4.4322 3.56795,8 8,8 4.4322,0 8,-3.5678 8,-8 0,-4.4322 -3.56795,-8 -8,-8 z m -2.0703125,4.904297 c 0.5791595,-0.009 1.0509185,0.461865 1.0429685,1.041015 v 4.109376 c 0.01965,1.3893 -2.0743403,1.3893 -2.0546872,0 v -4.109376 c -0.00777,-0.56655 0.4451314,-1.026015 1.0117187,-1.041015 z m 4.1093755,0 c 0.579159,-0.009 1.050918,0.461865 1.042968,1.041015 v 4.109376 c 0.01964,1.389149 -2.074322,1.389149 -2.054687,0 v -4.109376 c -0.0078,-0.56655 0.445131,-1.026015 1.011719,-1.041015 z"
       transform="matrix(0.66666667,0,0,0.66666667,3.0941333,1015.0667)" /></g><g
     id="media-playback-playing"
     transform="matrix(1.5,0,0,1.5,19.358,-1522.6)"><rect
       x="3.6670001"
       y="1034"
       width="14.667"
       height="14.667"
       fill-opacity="0"
       id="rect55" /><path
       id="path57-3-3"
       style="color:#aeb9d0;display:none;fill:#aebad0;fill-opacity:1;stroke-width:0.667848"
       class="ColorScheme-Text"
       d="m 10.998605,1036.0256 c -2.9601849,0 -5.3416723,2.3827 -5.3416723,5.3429 0,2.9602 2.3814874,5.3429 5.3416723,5.3429 2.960186,0 5.344085,-2.3827 5.344085,-5.3429 0,-2.9602 -2.383899,-5.3429 -5.344085,-5.3429 z m -0.807882,2.9856 c 0.104979,-0.01 0.209949,0.025 0.303859,0.083 l 2.516495,1.5711 c 0.463787,0.2898 0.463787,1.1175 0,1.4072 l -2.516495,1.5711 c -0.30524,0.1898 -0.6491238,0.039 -0.8127051,-0.2845 l -0.01809,0.012 v -0.051 c -0.049408,-0.1111 -0.07942,-0.2402 -0.079582,-0.381 v -3.1436 c 1.8e-6,-0.1377 0.029657,-0.2671 0.079583,-0.3799 v -0.053 l 0.018089,0.014 c 0.1073181,-0.2128 0.293381,-0.3578 0.5088441,-0.3676 z" /><path
       id="path57-3-6"
       style="color:#aeb9d0;display:inline;fill:#aeb9d0;fill-opacity:1;stroke-width:0.667888"
       class="ColorScheme-Text"
       d="m 10.998606,1036.0253 c -2.9603528,0 -5.3419799,2.3828 -5.3419799,5.3432 0,2.9604 2.3816271,5.3432 5.3419799,5.3432 2.960352,0 5.344391,-2.3828 5.344391,-5.3432 0,-2.9604 -2.384039,-5.3432 -5.344391,-5.3432 z m -0.806724,3.0569 c 0.08326,0.01 0.16143,0.032 0.233937,0.082 l 2.590197,1.8232 c 0.08452,0.059 0.143396,0.1393 0.176057,0.2364 0.03266,0.097 0.03266,0.1938 0,0.2918 -0.03265,0.097 -0.093,0.1765 -0.178468,0.2351 l -2.587785,1.874 c -0.09699,0.066 -0.203349,0.091 -0.319554,0.077 -0.1161971,-0.014 -0.2116155,-0.064 -0.2894076,-0.1519 -0.018683,-0.021 -0.035214,-0.044 -0.04944,-0.066 -7.594e-4,0 -0.00166,0 -0.00241,0 -0.030768,-0.035 -0.059399,-0.075 -0.083205,-0.1218 l -0.018088,0.013 v -0.051 c -0.049411,-0.111 -0.079422,-0.2401 -0.079585,-0.381 v -3.1437 c 2e-6,-0.1377 0.029661,-0.2671 0.079587,-0.3799 v -0.053 l 0.018088,0.014 c 0.059169,-0.1174 0.1424017,-0.1867 0.2411728,-0.2279 0.054874,-0.033 0.1149918,-0.057 0.1832918,-0.065 0.02897,-0.01 0.05786,-0.01 0.08562,-0.01 z" /></g><g
     id="media-playback-stopped"
     transform="matrix(1.5,0,0,1.5,43.358,-1522.6)"><rect
       x="3.6673"
       y="1034"
       width="14.667"
       height="14.667"
       fill-opacity="0"
       id="rect60" /><path
       id="path1785"
       style="color:#aeb9d0;display:inline;fill:#aeb9d0;fill-opacity:1;stroke-width:1.00092"
       class="ColorScheme-Text"
       d="m 11,1036.0623 c -2.9574988,0 -5.3378595,2.3802 -5.3378595,5.3378 0,2.9574 2.3804605,5.3378 5.3378595,5.3378 2.957498,0 5.337859,-2.3804 5.337859,-5.3378 0,-2.9576 -2.380461,-5.3378 -5.337859,-5.3378 z m -1.4725128,3.1291 h 2.9450258 c 0.407883,0 0.736257,0.3283 0.736257,0.7362 v 2.9451 c 0,0.4079 -0.328374,0.7362 -0.736257,0.7362 H 9.5274872 c -0.407883,0 -0.7362568,-0.3283 -0.7362568,-0.7362 v -2.9451 c 7e-7,-0.4079 0.3283738,-0.7362 0.7362568,-0.7362 z" /></g><g
     id="media-skip-forward-5"
     transform="matrix(-1,0,0,1,96,-5.013672)"
     style="display:inline"><path
       style="display:none;opacity:0.00100002"
       d="M 32,-5e-7 H -1e-6 V 32 H 32 Z"
       id="path97" /></g></svg>
