<?xml version="1.0" encoding="UTF-8" standalone="no"?>
<svg
   id="svg"
   version="1.1"
   viewBox="0 0 22 22"
   sodipodi:docname="notification.svg"
   inkscape:version="1.2.2 (b0a8486541, 2022-12-01)"
   xmlns:inkscape="http://www.inkscape.org/namespaces/inkscape"
   xmlns:sodipodi="http://sodipodi.sourceforge.net/DTD/sodipodi-0.dtd"
   xmlns="http://www.w3.org/2000/svg"
   xmlns:svg="http://www.w3.org/2000/svg"
   xmlns:rdf="http://www.w3.org/1999/02/22-rdf-syntax-ns#"
   xmlns:cc="http://creativecommons.org/ns#"
   xmlns:dc="http://purl.org/dc/elements/1.1/">
  <sodipodi:namedview
     id="namedview70"
     pagecolor="#ffffff"
     bordercolor="#000000"
     borderopacity="0.25"
     inkscape:showpageshadow="2"
     inkscape:pageopacity="0.0"
     inkscape:pagecheckerboard="0"
     inkscape:deskcolor="#d1d1d1"
     showgrid="false"
     inkscape:zoom="8.5294893"
     inkscape:cx="48.947831"
     inkscape:cy="28.606637"
     inkscape:window-width="1920"
     inkscape:window-height="1032"
     inkscape:window-x="0"
     inkscape:window-y="24"
     inkscape:window-maximized="1"
     inkscape:current-layer="svg" />
  <metadata
     id="metadata2">
    <rdf:RDF>
      <cc:Work
         rdf:about="">
        <dc:format>image/svg+xml</dc:format>
        <dc:type
           rdf:resource="http://purl.org/dc/dcmitype/StillImage" />
      </cc:Work>
    </rdf:RDF>
  </metadata>
  <defs
     id="defs5">
    <style
       id="current-color-scheme"
       type="text/css">.ColorScheme-Text {
        color:#a1adc8;
      }
      .ColorScheme-Background {
        color:#eff0f1;
      }
      .ColorScheme-Highlight {
        color:#11cc00;
      }
      .ColorScheme-ViewText {
        color:#a1adc8;
      }
      .ColorScheme-ViewBackground {
        color:#fcfcfc;
      }
      .ColorScheme-ViewHover {
        color:#73e500;
      }
      .ColorScheme-ViewFocus{
        color:#11cc00;
      }
      .ColorScheme-ButtonText {
        color:#a1adc8;
      }
      .ColorScheme-ButtonBackground {
        color:#eff0f1;
      }
      .ColorScheme-ButtonHover {
        color:#73e500;
      }
      .ColorScheme-ButtonFocus{
        color:#11cc00;
      }</style>
  </defs>
  <g
     fill="currentColor"
     id="g11">
    <path
       id="expander-bottom"
       class="ColorScheme-Text"
       d="m-18 23 2-2 2 2z" />
    <path
       id="expander-top"
       class="ColorScheme-Text"
       d="m-18 17 2 2 2-2z" />
    <path
       id="expander-right"
       class="ColorScheme-Text"
       d="m-13 18-2 2 2 2z" />
    <path
       id="expander-left"
       class="ColorScheme-Text"
       d="m-19 18 2 2-2 2z" />
  </g>
  <g
     id="22-22-notification-progress-active">
    <path
       id="empty-rectangle"
       d="m40 0h22v22h-22z"
       fill="none" />
    <g
       class="ColorScheme-Text"
       transform="translate(-38)"
       fill="currentColor"
       id="g18">
      <path
         class="ColorScheme-Text"
         d="m89 2a9 9 0 0 0-9 9 9 9 0 0 0 9 9 9 9 0 0 0 9-9 9 9 0 0 0-9-9zm0 1a8 8 0 0 1 8 8 8 8 0 0 1-8 8 8 8 0 0 1-8-8 8 8 0 0 1 8-8z"
         id="path14" />
      <circle
         class="ColorScheme-Text"
         cx="89"
         cy="11"
         r="7"
         id="circle16" />
    </g>
  </g>
  <g
     id="22-22-notification-progress-inactive">
    <path
       d="m40 40h22v22h-22z"
       fill="none"
       id="path21" />
    <g
       transform="translate(-38,1)"
       fill="currentColor"
       id="g27">
      <path
         class="ColorScheme-Text"
         d="m89 41a9 9 0 0 0-9 9 9 9 0 0 0 9 9 9 9 0 0 0 9-9 9 9 0 0 0-9-9zm0 1a8 8 0 0 1 8 8 8 8 0 0 1-8 8 8 8 0 0 1-8-8 8 8 0 0 1 8-8z"
         id="path23" />
      <circle
         class="ColorScheme-Text"
         cx="89"
         cy="50"
         r="7"
         opacity=".15"
         id="circle25" />
    </g>
  </g>
  <g
     id="22-22-notification-active"
     transform="translate(-1.002 -22.865)">
    <rect
       y="63"
       width="22"
       height="22"
       fill="none"
       stroke-linecap="round"
       stroke-linejoin="round"
       stroke-width="1.6923"
       id="rect30" />
    <path
       class="ColorScheme-Text"
       d="m11 67c-3.2266 0-5.8715 2.4513-5.9941 5.5684l-0.00391 0.22461v3.6074l-0.92382 2.2207-0.042969 0.12695-0.021484 0.12695c-0.050399 0.4635 0.19274 0.88173 0.60352 1.0527l0.125 0.04297c0.08456 0.0228 0.17182 0.0332 0.25977 0.0332h3.5l0.00586 0.16016c0.084649 1.3041 1.1687 2.3359 2.4941 2.3359 1.3252 0 2.409-1.0303 2.4941-2.334l0.0059-0.16211h3.502l0.13477-0.0098 0.11523-0.02734c0.4527-0.129 0.75-0.51489 0.75-0.96289l-0.0098-0.13086-0.01367-0.08594c-0.0127-0.0569-0.03209-0.11192-0.05469-0.16602l-0.92383-2.2227v-3.5957l-0.0039-0.22461-0.0078-0.11914a4 4 0 0 1-0.98828 0.40625v3.6348l0.03906 0.19141 0.96289 2.3125-0.04492 2e-3 -11.957-2e-3 0.96289-2.3125 0.037085-0.19141v-3.6973l0.00391-0.20508 0.013672-0.21289c0.21002-2.4613 2.3579-4.3848 4.9805-4.3848 0.04509 0 0.08997 0.0028 0.13477 0.0039a4 4 0 0 1 0.39844-0.98047c-0.17569-0.014885-0.35357-0.023432-0.5332-0.023432zm-1.498 13.004h3l-0.0059 0.14062c-0.072559 0.7606-0.7144 1.3555-1.4941 1.3555l-0.14453-0.0078c-0.71281-0.0681-1.2791-0.63496-1.3477-1.3477z"
       fill="currentColor"
       id="path32" />
    <circle
       cx="15"
       cy="69"
       r="3"
       fill="#11cc00"
       stroke-linecap="round"
       stroke-linejoin="round"
       stroke-width="2.1825"
       id="circle34" />
  </g>
  <g
     id="22-22-notification-inactive"
     transform="translate(-3,65)">
    <path
       class="ColorScheme-Text"
       d="m13.994-61c3.1489 0 5.7439 2.3349 5.9844 5.3554l0.0134 0.22222 0.0045 0.22452-1e-3 3.5959 0.9254 2.2222c0.0226 0.0541 0.0403 0.11 0.053 0.1669l0.0152 0.0862 0.0087 0.1313c0 0.448-0.2965 0.8341-0.7492 0.9631l-0.1163 0.0268-0.1345 0.0101-3.5017-6e-4 -5e-3 0.1613c-0.0851 1.3037-1.1694 2.3347-2.4946 2.3347-1.3255 0-2.41-1.0315-2.4947-2.3356l-0.0057-0.1604-3.5007 6e-4c-0.08795 0-0.17533-0.0116-0.25989-0.0344l-0.12446-0.0425c-0.41078-0.171-0.65275-0.5885-0.60235-1.052l0.02109-0.1274 0.04242-0.1281 0.9233-2.2192 0.0011-3.6082 0.0043-0.22457c0.12262-3.1171 2.7666-5.5682 5.9933-5.5682zm1.5019 13.004h-3l0.0074 0.1414c0.06855 0.7127 0.63578 1.2796 1.3486 1.3477l0.14444 7e-3c0.7797 0 1.4205-0.5949 1.4931-1.3555zm-1.5019-12.004c-2.6226 0-4.7705 1.9237-4.9805 4.385l-0.01322 0.21225-0.0039 0.20491v3.6979l-0.03841 0.1922-0.96271 2.3124 11.958 2e-3 0.0453-2e-3 -0.9635-2.3123-0.0384-0.1922 1e-4 -3.6876-0.0041-0.2041c-0.1051-2.5734-2.3013-4.6083-4.9983-4.6083z"
       fill="currentColor"
       id="path37" />
    <rect
       x="3"
       y="-65"
       width="22"
       height="22"
       fill="none"
       stroke-linecap="round"
       stroke-linejoin="round"
       stroke-width="2.2"
       id="rect39" />
  </g>
  <g
     id="22-22-notification-disabled"
     transform="translate(0 26.996)">
    <rect
       x="-1.002"
       y="-64.012"
       width="22"
       height="22"
       fill="none"
       stroke-linecap="round"
       stroke-linejoin="round"
       stroke-width="1.6923"
       id="rect42" />
    <path
       class="ColorScheme-Text"
       d="m4.0024-54.432c0.03208-0.81542 0.2367-1.5853 0.57916-2.2776l-2.4371-2.4371c-0.19527-0.19526-0.19527-0.51184 0-0.7071 0.19526-0.19527 0.51184-0.19527 0.7071 0l15 15c0.1952 0.1953 0.1952 0.5119 0 0.7072-0.1953 0.1952-0.5119 0.1952-0.7072 0l-2.8492-2.8493-1.7976-3e-4 -5e-3 0.1613c-0.0851 1.3037-1.1694 2.3347-2.4946 2.3347-1.3255 0-2.41-1.0315-2.4947-2.3356l-0.0057-0.1604-3.5007 6e-4c-0.08795 0-0.17533-0.0116-0.25989-0.0344l-0.12446-0.0425c-0.41078-0.171-0.65275-0.5885-0.60235-1.052l0.02109-0.1274 0.04242-0.1281 0.9233-2.2192 0.0011-3.6082zm9.2946 6.4379-7.9606-7.9606c-0.17077 0.42055-0.28124 0.87023-0.32128 1.3395l-0.01322 0.21225-0.0039 0.20491v3.6979l-0.03841 0.1922-0.96271 2.3124zm-1.7994 0.9979h-3l0.0073 0.1414c0.06855 0.7127 0.63578 1.2796 1.3486 1.3477l0.14444 0.0069c0.7797 0 1.4205-0.5949 1.4931-1.3555zm3.5388-3.3118 0.8749 2.0997 0.852 0.8521c0.15-0.1749 0.236-0.3982 0.236-0.6394l-0.0087-0.1313-0.0152-0.0862c-0.0127-0.0569-0.0304-0.1128-0.053-0.1669l-0.9254-2.2222 1e-3 -3.5959-0.0045-0.22452-0.0134-0.22222c-0.2405-3.0205-2.8355-5.3554-5.9844-5.3554-1.6393 0-3.1282 0.63266-4.2124 1.6639l0.7067 0.70671c0.90176-0.84838 2.1393-1.3706 3.5057-1.3706 2.697 0 4.8932 2.0349 4.9983 4.6083l0.0041 0.2041-9.9e-5 3.6876z"
       fill="currentColor"
       id="path44" />
  </g>
  <g
     id="22-22-notification-empty"
     transform="translate(37.504 27.996)">
    <path
       class="ColorScheme-Text"
       d="m13.994-61c3.1489 0 5.7439 2.3349 5.9844 5.3554l0.0134 0.22222 0.0045 0.22452-1e-3 3.5959 0.9254 2.2222c0.0226 0.0541 0.0403 0.11 0.053 0.1669l0.0152 0.0862 0.0087 0.1313c0 0.448-0.2965 0.8341-0.7492 0.9631l-0.1163 0.0268-0.1345 0.0101-3.5017-6e-4 -5e-3 0.1613c-0.0851 1.3037-1.1694 2.3347-2.4946 2.3347-1.3255 0-2.41-1.0315-2.4947-2.3356l-0.0057-0.1604-3.5007 6e-4c-0.08795 0-0.17533-0.0116-0.25989-0.0344l-0.12446-0.0425c-0.41078-0.171-0.65275-0.5885-0.60235-1.052l0.02109-0.1274 0.04242-0.1281 0.9233-2.2192 0.0011-3.6082 0.0043-0.22457c0.12262-3.1171 2.7666-5.5682 5.9933-5.5682zm1.5019 13.004h-3l0.0074 0.1414c0.06855 0.7127 0.63578 1.2796 1.3486 1.3477l0.14444 7e-3c0.7797 0 1.4205-0.5949 1.4931-1.3555zm-1.5019-12.004c-2.6226 0-4.7705 1.9237-4.9805 4.385l-0.01322 0.21225-0.0039 0.20491v3.6979l-0.03841 0.1922-0.96271 2.3124 11.958 2e-3 0.0453-2e-3 -0.9635-2.3123-0.0384-0.1922 1e-4 -3.6876-0.0041-0.2041c-0.1051-2.5734-2.3013-4.6083-4.9983-4.6083z"
       fill="currentColor"
       id="path47" />
    <rect
       x="3"
       y="-65"
       width="22"
       height="22"
       fill="none"
       stroke-linecap="round"
       stroke-linejoin="round"
       stroke-width="2.2"
       id="rect49" />
  </g>
  <g
     id="notification-inactive"
     transform="translate(-.49406)">
    <rect
       x="85.497"
       width="32"
       height="32"
       fill="none"
       stroke-linecap="round"
       stroke-linejoin="round"
       stroke-width="2.0098"
       id="rect52" />
    <path
       class="ColorScheme-Text"
       d="m100.99 5c-4.6917 0-8.5 3.8083-8.5 8.5v5.3262l-1.5195 3.8027c-0.26223 0.65647 0.22083 1.3704 0.92773 1.3711h5.6289c0.24848 1.7215 1.7235 2.9994 3.4629 3 1.7394-6.02e-4 3.2144-1.2785 3.4629-3h5.6348c0.7069-7.16e-4 1.19-0.71463 0.92773-1.3711l-1.5254-3.8164v-5.3125c0-4.6917-3.8083-8.5-8.5-8.5zm0 1c4.155 0 7.5 3.345 7.5 7.5v5.5059l1.5977 3.9941h-18.189l1.5918-3.9805v-5.5195c0-4.155 3.345-7.5 7.5-7.5zm-2.4434 18h4.8867c-0.23713 1.1617-1.2577 1.9971-2.4434 2-1.1857-0.0029-2.2062-0.83828-2.4434-2z"
       fill="currentColor"
       id="path54" />
  </g>
  <g
     id="notification-disabled"
     transform="translate(-36)">
    <rect
       x="120"
       y="-41"
       width="32"
       height="32"
       rx="0"
       ry="0"
       fill="none"
       stroke-linecap="round"
       stroke-linejoin="round"
       stroke-width="2.1333"
       id="rect57" />
    <path
       class="ColorScheme-Text"
       d="m124.19-36.814c-0.12781 0-0.25558 0.04855-0.35352 0.14648-0.19587 0.19587-0.19587 0.51116 0 0.70703l4.2754 4.2754c-0.70335 1.2367-1.1113 2.6621-1.1113 4.1855v5.3262l-1.5176 3.8027c-0.26223 0.65647 0.21888 1.3704 0.92578 1.3711h5.6309c0.24848 1.7215 1.7215 2.9994 3.4609 3 1.7394-6.02e-4 3.2144-1.2785 3.4629-3h3.834l3.668 3.668c0.19587 0.19587 0.51116 0.19587 0.70703 0 0.19587-0.19587 0.19587-0.51116 0-0.70703l-17.797-17.797-4.832-4.832c-0.0979-0.09793-0.2257-0.14648-0.35351-0.14648zm11.311 0.81445c-2.4418 0-4.6405 1.0329-6.1914 2.6836l0.70117 0.70117c1.3674-1.4682 3.3163-2.3848 5.4902-2.3848 4.155 0 7.5 3.345 7.5 7.5v5.5059l1.582 3.9512 0.73243 0.73242c0.25749-0.26903 0.36577-0.67293 0.21093-1.0605l-1.5254-3.8164v-5.3125c0-4.6917-3.8083-8.5-8.5-8.5zm-6.6582 5.0449 12.955 12.955h-15.389l1.5918-3.9805v-5.5195c0-1.2484 0.30608-2.422 0.8418-3.4551zm4.2148 13.955h4.8887c-0.23713 1.1617-1.2596 1.9971-2.4453 2-1.1857-0.0029-2.2062-0.83828-2.4434-2z"
       fill="currentColor"
       id="path59" />
  </g>
  <g
     id="notification-active">
    <rect
       x="86.003"
       y="39"
       width="32"
       height="32"
       fill="none"
       stroke-linecap="round"
       stroke-linejoin="round"
       stroke-width="2.0098"
       id="rect62" />
    <circle
       cx="107"
       cy="47"
       r="3"
       fill="#11cc00"
       stroke-linecap="round"
       stroke-linejoin="round"
       stroke-width="1.3333"
       id="circle64"
       style="fill-opacity:1" />
    <path
       class="ColorScheme-Text"
       d="m101.5 44c-4.6917 0-8.5 3.8083-8.5 8.5v5.3262l-1.5195 3.8027c-0.26223 0.65647 0.22083 1.3704 0.92773 1.3711h1.5918 0.4082 3.6289c0.24848 1.7215 1.7235 2.9994 3.4629 3 1.7394-6.02e-4 3.2144-1.2785 3.4629-3h3.6348 0.40234 1.5977c0.7069-7.16e-4 1.19-0.71463 0.92773-1.3711l-1.5254-3.8164v-5.3125c0-0.86351-0.13132-1.697-0.37109-2.4824a4 4 0 0 1-0.87305 0.57031c0.15928 0.6101 0.24414 1.2507 0.24414 1.9121v5.5059l1.5977 3.9941h-1.5977-0.40234-3.6328-1.0156-4.8945-1.0195-3.627-0.4082-1.5918l1.5918-3.9805v-5.5195c0-4.155 3.345-7.5 7.5-7.5 0.66269 0 1.3048 0.084245 1.916 0.24414a4 4 0 0 1 0.57421-0.87305c-0.78751-0.24117-1.6241-0.37109-2.4902-0.37109zm-2.4434 19h4.8867c-0.23713 1.1617-1.2577 1.9971-2.4434 2-1.1857-0.0029-2.2062-0.83828-2.4434-2z"
       fill="currentColor"
       id="path66" />
  </g>
</svg>
