<?xml version="1.0" encoding="UTF-8" standalone="no"?>
<svg
   version="1.1"
   viewBox="0 0 22 22"
   id="svg12"
   sodipodi:docname="notifications.svg"
   inkscape:version="1.2.2 (b0a8486541, 2022-12-01)"
   xmlns:inkscape="http://www.inkscape.org/namespaces/inkscape"
   xmlns:sodipodi="http://sodipodi.sourceforge.net/DTD/sodipodi-0.dtd"
   xmlns="http://www.w3.org/2000/svg"
   xmlns:svg="http://www.w3.org/2000/svg">
  <sodipodi:namedview
     id="namedview14"
     pagecolor="#ffffff"
     bordercolor="#666666"
     borderopacity="1.0"
     inkscape:pageshadow="2"
     inkscape:pageopacity="0.0"
     inkscape:pagecheckerboard="0"
     showgrid="false"
     inkscape:zoom="20.545455"
     inkscape:cx="11.048672"
     inkscape:cy="11"
     inkscape:current-layer="notification-disabled"
     inkscape:showpageshadow="2"
     inkscape:deskcolor="#d1d1d1"
     inkscape:window-width="1920"
     inkscape:window-height="1026"
     inkscape:window-x="0"
     inkscape:window-y="24"
     inkscape:window-maximized="1" />
  <defs
     id="defs3">
    <style
       id="current-color-scheme"
       type="text/css">.ColorScheme-Text { color:#a1adc8; }</style>
  </defs>
  <g
     id="notification-disabled"
     class="ColorScheme-Text"
     transform="translate(-0.089057,-65.674)"
     fill="currentColor">
    <rect
       class="ColorScheme-Text"
       x="0.089056998"
       y="65.674004"
       width="22"
       height="22"
       ry="0"
       opacity="0"
       id="rect7"
       style="display:inline" />
    <path
       class="ColorScheme-Text"
       d="m 2.6582,66.829 18.276,18.276 c 0.42187,0.42187 0.44613,1.0769 0.05439,1.4686 -0.39174,0.39174 -1.0467,0.36748 -1.4686,-0.05439 l -18.276,-18.276 c -0.42187,-0.42187 -0.44613,-1.0769 -0.054393,-1.4686 0.39174,-0.39174 1.0467,-0.36748 1.4686,0.05439 z"
       id="path5"
       style="display:none" />
    <path
       class="ColorScheme-Text"
       d="m 10.994,67.684 c -1.2263,0.0072 -2.1578,1.1054 -1.9648,2.3164 l -0.042969,0.01367 c -2.3258,0.82764 -3.9902,3.0482 -3.9902,5.6582 v 2.002 h 0.00391 c -1.888e-4,0.84085 -0.32954,1.642 -0.75781,2.3418 -0.47964,0.78375 -1.4188,1.4875 -1.9492,1.9492 -0.356,0.30992 -0.39174,1.0243 0,1.416 0.19841,0.19841 0.45742,0.29359 0.7168,0.29102 h 15.98 c 0.25938,0.0026 0.51839,-0.09261 0.7168,-0.29102 0.39174,-0.39174 0.356,-1.1061 0,-1.416 -0.5304,-0.46174 -1.4696,-1.1655 -1.9492,-1.9492 -0.42827,-0.69981 -0.75762,-1.501 -0.75781,-2.3418 h 0.0039 v -2.002 c 0,-2.61 -1.6644,-4.8306 -3.9902,-5.6582 l -0.04297,-0.01367 c 0.19293,-1.211 -0.73858,-2.3092 -1.9648,-2.3164 -0.002,-1.2e-5 -0.0039,6e-6 -0.0059,0 -0.002,6e-6 -0.0039,-1.2e-5 -0.0059,0 z m 0.0059,3.9883 c 2.2107,0 4.0039,1.7912 4.0039,4.002 v 2.0001 h -0.0039 c 4.68e-4,1.3712 0.45966,2.7259 1.3418,3.7578 l 0.20703,0.24219 H 5.45073 L 5.65776,81.4322 c 0.79483,-1.1006 1.3413,-2.3866 1.3418,-3.7578 H 6.99565 v -2.0001 c 3.8e-6,-2.2107 1.7932,-4.002 4.0039,-4.002 z m -2.002,13 c 0,1.3346 1.001,2.002 2.002,2.002 1.001,0 2.002,-0.66732 2.002,-2.002 z"
       opacity="0.35"
       id="path9"
       style="display:none" />
    <path
       class="ColorScheme-Text"
       d="m 1.5309289,66.694459 c -0.107695,0 -0.2153565,0.04091 -0.2978825,0.123426 -0.1650437,0.165044 -0.1650437,0.430713 0,0.595757 l 3.6025317,3.602532 c -0.5926558,1.042067 -0.936402,2.243135 -0.936402,3.526781 V 79.03091 L 2.620418,82.235136 C 2.3994581,82.78829 2.8048504,83.38986 3.4004975,83.39045 h 4.7447014 c 0.2093738,1.450568 1.4505679,2.52735 2.9162191,2.527856 1.465651,-5.08e-4 2.708513,-1.077288 2.917904,-2.527856 h 3.2306 l 3.090725,3.090726 c 0.165044,0.165043 0.430713,0.165043 0.595757,0 0.165043,-0.165044 0.165043,-0.430714 0,-0.595757 L 5.9003196,70.889334 1.8287862,66.817801 C 1.746294,66.73528 1.6386072,66.694375 1.5309121,66.694375 Z m 9.5308601,0.686271 c -2.0575067,0 -3.9101723,0.87034 -5.2169896,2.261251 l 0.5908189,0.590818 c 1.1521967,-1.237132 2.7943762,-2.009476 4.6261447,-2.009476 3.50108,0 6.31964,2.818559 6.31964,6.319639 v 4.639375 l 1.333023,3.329354 0.617159,0.617151 c 0.216965,-0.22669 0.308205,-0.567023 0.177733,-0.893597 l -1.28533,-3.21577 v -4.476412 c 0,-3.953313 -3.208945,-7.162258 -7.162259,-7.162258 z M 5.451465,71.631656 16.367589,82.547781 H 3.4005312 l 1.3412804,-3.354044 v -4.650833 c 0,-1.051926 0.2579087,-2.040822 0.7093164,-2.911332 z M 9.0029341,83.3904 h 4.1193099 c -0.199811,0.978869 -1.061362,1.682793 -2.060455,1.685237 -0.999093,-0.0025 -1.8589858,-0.706351 -2.0588549,-1.685237 z"
       id="path59"
       style="fill:currentColor;stroke-width:0.842619;opacity:0.72" />
  </g>
</svg>
