<?xml version="1.0" encoding="UTF-8" standalone="no"?>
<svg
   id="svg4153"
   version="1.1"
   width="22"
   height="22"
   viewBox="0 0 22 22"
   sodipodi:docname="pamac.svg"
   inkscape:version="1.1 (c68e22c387, 2021-05-23)"
   xmlns:inkscape="http://www.inkscape.org/namespaces/inkscape"
   xmlns:sodipodi="http://sodipodi.sourceforge.net/DTD/sodipodi-0.dtd"
   xmlns="http://www.w3.org/2000/svg"
   xmlns:svg="http://www.w3.org/2000/svg"
   xmlns:rdf="http://www.w3.org/1999/02/22-rdf-syntax-ns#"
   xmlns:cc="http://creativecommons.org/ns#"
   xmlns:dc="http://purl.org/dc/elements/1.1/">
  <sodipodi:namedview
     pagecolor="#ffffff"
     bordercolor="#000000"
     borderopacity="1"
     objecttolerance="10"
     gridtolerance="10"
     guidetolerance="10"
     inkscape:pageopacity="0"
     inkscape:pageshadow="2"
     inkscape:window-width="1920"
     inkscape:window-height="1007"
     id="namedview9"
     showgrid="false"
     inkscape:zoom="10.727273"
     inkscape:cx="22.326271"
     inkscape:cy="14.728813"
     inkscape:window-x="0"
     inkscape:window-y="0"
     inkscape:window-maximized="1"
     inkscape:current-layer="g1646"
     inkscape:document-rotation="0"
     inkscape:showpageshadow="false"
     inkscape:lockguides="true"
     inkscape:pagecheckerboard="0">
    <inkscape:grid
       type="xygrid"
       id="grid887"
       originx="0"
       originy="0" />
  </sodipodi:namedview>
  <metadata
     id="metadata4159">
    <rdf:RDF>
      <cc:Work
         rdf:about="">
        <dc:format>image/svg+xml</dc:format>
        <dc:type
           rdf:resource="http://purl.org/dc/dcmitype/StillImage" />
      </cc:Work>
    </rdf:RDF>
  </metadata>
  <defs
     id="defs4157">
    <style
       type="text/css"
       id="current-color-scheme" />
  </defs>
  <g
     id="g16"
     transform="translate(22)">
    <g
       id="g1646">
      <g
         id="pamac-tray-no-update">
        <rect
           style="fill:none;fill-opacity:1;stroke:none;stroke-width:0.1;stroke-linecap:square;stroke-linejoin:miter;stroke-miterlimit:4;stroke-dasharray:none;stroke-dashoffset:0;stroke-opacity:1"
           id="rect855"
           width="22"
           height="22"
           x="0"
           y="0" />
        <path
           d="m 9.500601,12.779691 c 0,0.138063 -0.111906,0.25 -0.249906,0.25 -0.138016,0 -0.249907,-0.111937 -0.249907,-0.25 0,-0.138062 0.111891,-0.249999 0.249907,-0.249999 0.138,0 0.249906,0.111937 0.249906,0.249999 z M 7.289163,10.322535 10.29321,7.3174102 c 0.195172,-0.1953125 0.450984,-0.2877188 0.706813,-0.2877188 0.255828,0 0.511656,0.092406 0.706828,0.2877188 l 3.004109,3.0051248 c 0.209016,0.209235 0.302375,0.487672 0.287531,0.761485 v -0.05433 c 0,0.55225 -0.447515,1 -0.999609,1 H 13.49907 c -0.276032,0 -0.499813,0.223875 -0.499813,0.5 v 1.499999 c 0,0.55225 -0.447531,1 -0.999625,1 h -1.99925 c -0.552031,0 -0.999625,-0.44775 -0.999625,-1 v -0.25 c 0,-0.138062 0.111891,-0.25 0.249906,-0.25 0.138,0 0.249907,0.111938 0.249907,0.25 v 0.25 c 0,0.276125 0.223781,0.5 0.499796,0.5 h 1.999282 c 0.276014,0 0.499812,-0.223875 0.499812,-0.5 V 12.52969 c 0,-0.55225 0.447516,-1 0.999625,-1 h 0.499797 c 0.276016,0 0.499797,-0.223875 0.499797,-0.5 0,0 0.0021,-8.6e-4 0.005,-0.002 -4.84e-4,-0.127316 -0.04905,-0.254519 -0.146172,-0.351566 L 11.35346,7.6709258 c -0.195234,-0.1953125 -0.51164,-0.1953125 -0.70689,0 L 7.642523,10.676176 c -0.09712,0.09717 -0.145813,0.224359 -0.146172,0.351812 0.0029,9.69e-4 0.005,0.0017 0.005,0.0017 0,0.276125 0.223781,0.5 0.499797,0.5 h 0.249906 c 0.138016,0 0.249906,0.111938 0.249906,0.25 0,0.138063 -0.11189,0.25 -0.249906,0.25 H 8.001148 c -0.552032,0 -0.999625,-0.44775 -0.999625,-1 v 0.05433 c -0.01484,-0.273809 0.07861,-0.552246 0.28764,-0.761481 z"
           id="path2-3-5"
           style="fill:#eff0f1;fill-opacity:1;stroke-width:0.015625" />
        <path
           d="m 10.999825,19 h -0.5 c -0.276375,0 -0.499969,-0.224125 -0.499969,-0.5 0,-0.276375 0.223594,-0.5 0.499969,-0.5 h 0.5 C 14.865731,18 17.9997,14.86575 17.9997,10.999937 17.9997,7.13425 14.865731,4 10.999825,4 7.134169,4 3.999919,7.13425 3.999919,10.999937 c 0,2.290094 1.10475,4.317469 2.804656,5.594313 l -0.0051,0.0073 C 6.920324,16.69291 6.999918,16.836437 6.999918,17 c 0,0.275844 -0.223626,0.5 -0.5,0.5 -0.112563,0 -0.214844,-0.03906 -0.298594,-0.101563 l -0.0012,0.0019 C 4.257281,15.940938 3,13.617219 3,10.999937 3,6.5815 6.581469,3 10.999875,3 15.417781,3 19,6.5815 19,10.999937 19,15.418031 15.417781,19 10.999875,19 Z M 8.500106,18 c 0.275625,0 0.4995,0.223625 0.4995,0.5 0,0.275875 -0.223875,0.5 -0.4995,0.5 -0.276375,0 -0.5,-0.224125 -0.5,-0.5 0,-0.276375 0.223625,-0.5 0.5,-0.5 z M 17.9997,10.999937 v 0 0 0 0 0 l 0.04413,-0.01015 -0.04215,0.0097 0.0076,-0.0085 8.25e-4,0.005 0.03769,-0.01851 -0.0548,0.0193 0.01943,0.0032 0.0065,8.91e-4 -0.01926,-8.6e-4 v 0 l 0.01273,-3.1e-5 0.0065,8.91e-4 0.02487,-0.01101 z"
           id="path2-35"
           sodipodi:nodetypes="ssssssssccssccssssssssscccccccccccccccccccc"
           style="fill:#eff0f1;fill-opacity:1;stroke-width:0.03125" />
      </g>
      <g
         id="pamac-tray-update">
        <rect
           y="0"
           x="0"
           height="22"
           width="22"
           id="rect4183"
           style="fill:none;fill-opacity:1;stroke:none;stroke-width:0.1;stroke-linecap:square;stroke-linejoin:miter;stroke-miterlimit:4;stroke-dasharray:none;stroke-dashoffset:0;stroke-opacity:1"
           transform="translate(-22)" />
        <path
           d="m -12.499399,12.779691 c 0,0.138063 -0.111906,0.25 -0.249906,0.25 -0.138016,0 -0.249907,-0.111937 -0.249907,-0.25 0,-0.138062 0.111891,-0.249999 0.249907,-0.249999 0.138,0 0.249906,0.111937 0.249906,0.249999 z m -2.211438,-2.457156 3.004047,-3.0051248 c 0.195172,-0.1953125 0.450984,-0.2877188 0.706813,-0.2877188 0.255828,0 0.511656,0.092406 0.706828,0.2877188 l 3.0041088,3.0051248 c 0.209016,0.209235 0.302375,0.487672 0.287531,0.761485 v -0.05433 c 0,0.55225 -0.447515,1 -0.999609,1 h -0.499812 c -0.276032,0 -0.499813,0.223875 -0.499813,0.5 v 1.499999 c 0,0.55225 -0.447531,1 -0.9996248,1 h -1.99925 c -0.552031,0 -0.999625,-0.44775 -0.999625,-1 v -0.25 c 0,-0.138062 0.111891,-0.25 0.249906,-0.25 0.138,0 0.249907,0.111938 0.249907,0.25 v 0.25 c 0,0.276125 0.223781,0.5 0.499796,0.5 h 1.999282 c 0.2760144,0 0.4998118,-0.223875 0.4998118,-0.5 V 12.52969 c 0,-0.55225 0.447516,-1 0.999625,-1 h 0.499797 c 0.276016,0 0.499797,-0.223875 0.499797,-0.5 0,0 0.0021,-8.6e-4 0.005,-0.002 -4.84e-4,-0.127316 -0.04905,-0.254519 -0.146172,-0.351566 L -10.64654,7.6709258 c -0.195234,-0.1953125 -0.51164,-0.1953125 -0.70689,0 l -3.004047,3.0052502 c -0.09712,0.09717 -0.145813,0.224359 -0.146172,0.351812 0.0029,9.69e-4 0.005,0.0017 0.005,0.0017 0,0.276125 0.223781,0.5 0.499797,0.5 h 0.249906 c 0.138016,0 0.249906,0.111938 0.249906,0.25 0,0.138063 -0.11189,0.25 -0.249906,0.25 h -0.249906 c -0.552032,0 -0.999625,-0.44775 -0.999625,-1 v 0.05433 c -0.01484,-0.273809 0.07861,-0.552246 0.28764,-0.761481 z"
           id="path2-3"
           style="fill:#d35f5f;fill-opacity:1;stroke-width:0.015625" />
        <path
           d="m -11.000175,19 h -0.5 c -0.276375,0 -0.499969,-0.224125 -0.499969,-0.5 0,-0.276375 0.223594,-0.5 0.499969,-0.5 h 0.5 c 3.8659059,0 6.9998749,-3.13425 6.9998749,-7.000063 C -4.0003001,7.13425 -7.1342691,4 -11.000175,4 c -3.865656,0 -6.999906,3.13425 -6.999906,6.999937 0,2.290094 1.10475,4.317469 2.804656,5.594313 l -0.0051,0.0073 c 0.120849,0.09136 0.200443,0.234887 0.200443,0.39845 0,0.275844 -0.223626,0.5 -0.5,0.5 -0.112563,0 -0.214844,-0.03906 -0.298594,-0.101563 l -0.0012,0.0019 C -17.742719,15.940938 -19,13.617219 -19,10.999937 -19,6.5815 -15.418531,3 -11.000125,3 c 4.4179059,0 8.0001249,3.5815 8.0001249,7.999937 0,4.418094 -3.582219,8.000063 -8.0001249,8.000063 z m -2.499719,-1 c 0.275625,0 0.4995,0.223625 0.4995,0.5 0,0.275875 -0.223875,0.5 -0.4995,0.5 -0.276375,0 -0.5,-0.224125 -0.5,-0.5 0,-0.276375 0.223625,-0.5 0.5,-0.5 z m 9.4995939,-7.000063 v 0 0 0 0 0 l 0.04413,-0.01015 -0.04215,0.0097 0.0076,-0.0085 8.25e-4,0.005 0.03769,-0.01851 -0.0548,0.0193 0.01943,0.0032 0.0065,8.91e-4 -0.01926,-8.6e-4 v 0 l 0.01273,-3.1e-5 0.0065,8.91e-4 0.02487,-0.01101 z"
           id="path2"
           sodipodi:nodetypes="ssssssssccssccssssssssscccccccccccccccccccc"
           style="fill:#eff0f1;fill-opacity:1;stroke-width:0.03125" />
      </g>
    </g>
  </g>
</svg>
