<?xml version="1.0" encoding="UTF-8" standalone="no"?>
<svg
   width="32"
   height="32"
   viewBox="0 0 32 32"
   version="1.1"
   id="svg867"
   inkscape:version="1.1.2 (0a00cf5339, 2022-02-04)"
   sodipodi:docname="redshift.svg"
   xmlns:inkscape="http://www.inkscape.org/namespaces/inkscape"
   xmlns:sodipodi="http://sodipodi.sourceforge.net/DTD/sodipodi-0.dtd"
   xmlns="http://www.w3.org/2000/svg"
   xmlns:svg="http://www.w3.org/2000/svg"
   xmlns:rdf="http://www.w3.org/1999/02/22-rdf-syntax-ns#"
   xmlns:cc="http://creativecommons.org/ns#"
   xmlns:dc="http://purl.org/dc/elements/1.1/">
  <defs
     id="defs3871">
    <style
       type="text/css"
       id="current-color-scheme">
      .ColorScheme-Text {
        color:#31363b;
      }
      </style>
  </defs>
  <sodipodi:namedview
     inkscape:object-paths="true"
     guideopacity="0.62745098"
     guidecolor="#0000ff"
     inkscape:bbox-nodes="true"
     inkscape:snap-intersection-paths="true"
     inkscape:snap-bbox="true"
     id="base"
     pagecolor="#ffffff"
     bordercolor="#666666"
     borderopacity="1.0"
     inkscape:pageopacity="0.0"
     inkscape:pageshadow="2"
     inkscape:zoom="5.6"
     inkscape:cx="19.732143"
     inkscape:cy="28.303571"
     inkscape:document-units="px"
     inkscape:current-layer="layer1"
     inkscape:document-rotation="0"
     showgrid="false"
     inkscape:window-width="1920"
     inkscape:window-height="970"
     inkscape:window-x="0"
     inkscape:window-y="26"
     inkscape:window-maximized="1"
     units="px"
     inkscape:snap-bbox-edge-midpoints="false"
     inkscape:lockguides="true"
     inkscape:pagecheckerboard="0">
    <inkscape:grid
       opacity="0.41960784"
       color="#3f3fff"
       type="xygrid"
       id="grid1448"
       originx="-3.5527137e-15"
       originy="0" />
  </sodipodi:namedview>
  <metadata
     id="metadata864">
    <rdf:RDF>
      <cc:Work
         rdf:about="">
        <dc:format>image/svg+xml</dc:format>
        <dc:type
           rdf:resource="http://purl.org/dc/dcmitype/StillImage" />
      </cc:Work>
    </rdf:RDF>
  </metadata>
  <g
     inkscape:label="Layer 1"
     inkscape:groupmode="layer"
     id="layer1">
    <g
       id="22-22-redshift-status-off">
      <rect
         style="opacity:0.003;fill-opacity:1"
         id="rect1467-9-7-9-9-4-67"
         width="22"
         height="22"
         x="-22"
         y="10" />
      <path
         d="m -10.987034,14.971965 -0.01914,0.01978 c 0.0062,0.0083 0.0062,0.0083 0.0062,0.0083 l -0.0041,0.0022 0.0041,-0.0022 0.01338,0.01299 c 0,0 -0.01341,-0.01303 -4.44e-4,-0.04107 z m 3.133034,6.89791 c 0,0 0.01233,-0.01197 0,0 C -7.94965,21.962285 -8,22.107531 -8,22.25 V 23 c 0,1.1045 -0.8955,2 -2,2 H -10.4995 -12.5 c -0.276127,0 -0.5,0.223875 -0.5,0.5 0,0.276125 0.223873,0.5 0.5,0.5 h 0.75 1.158687 0.09131 c 0.276127,0 0.5,0.223875 0.5,0.5 0,0.276125 -0.223873,0.5 -0.5,0.5 h -2 c -0.828373,0 -1.5,-0.671625 -1.5,-1.5 0,-0.828375 0.671627,-1.5 1.5,-1.5 h 0.75 0.5 1.25 c 0.552247,0 1,-0.44775 1,-1 v -0.75 c 0,-0.458 0.20506,-0.868156 0.528813,-1.143063 -0.05273,0.04469 -0.044,0.03572 0,0 C -7.568033,20.374187 -7,19.253156 -7,18 c 0,-2.209 -1.791,-4 -4,-4 -2.209093,0 -4,1.791 -4,4 0,1.250656 0.571031,2.374156 1.471063,3.106937 0.04572,0.03722 0.05287,0.04469 0,0 C -13.20506,21.381844 -13,21.792 -13,22.25 v 0.25 c 0,0.276125 -0.223873,0.5 -0.5,0.5 -0.276125,0 -0.5,-0.223875 -0.5,-0.5 v -0.25 c 0,-0.142969 -0.04978,-0.287656 -0.146,-0.380125 -0.01206,-0.01159 0,0 0,0 C -15.272719,20.952875 -16,19.565437 -16,18 c 0,-2.761469 2.238656,-5 5,-5 2.76122,0 5,2.238531 5,5 0,1.565437 -0.72728,2.952875 -1.854,3.869875 z M -11.5,28 h 1 c 0.276127,0 0.5,0.223875 0.5,0.5 0,0.276125 -0.223873,0.5 -0.5,0.5 h -1 c -0.276127,0 -0.5,-0.223875 -0.5,-0.5 0,-0.276125 0.223873,-0.5 0.5,-0.5 z m 3,-2 C -8.223873,26 -8,26.223875 -8,26.5 -8,26.776125 -8.223873,27 -8.5,27 -8.776127,27 -9,26.776125 -9,26.5 -9,26.223875 -8.776127,26 -8.5,26 Z"
         id="path2-3-3-6"
         style="fill:#a1adc8;fill-opacity:1;stroke-width:0.03125"
         sodipodi:nodetypes="ccccccscsssscsssccssssssccsssccsssccsssssscssscsssssssssssss" />
    </g>
    <g
       id="redshift-status-on"
       style="fill:#73e500;fill-opacity:1">
      <rect
         y="0"
         x="3.5527137e-15"
         height="32"
         width="32"
         id="rect910"
         style="opacity:0.003;fill:#73e500;fill-opacity:1;stroke-width:1" />
      <circle
         cx="15.962496"
         cy="11.679497"
         r="2.0010977"
         id="circle2"
         style="fill:#73e500;fill-opacity:1;stroke-width:0.162697" />
      <path
         d="m 15.165311,9.499444 0.260314,-0.09761 -0.325378,-0.9110687 c -0.03257,-0.081348 -0.113889,-0.1138836 -0.178964,-0.081348 -0.06512,0.032536 -0.113883,0.1138849 -0.08139,0.1789609 z"
         id="path4"
         style="fill:#73e500;fill-opacity:1;stroke-width:0.162697" />
      <path
         d="m 16.027581,7.5634217 c 0,-0.08135 -0.06513,-0.1464217 -0.14643,-0.1464217 -0.08135,0 -0.130149,0.065086 -0.130149,0.1464217 V 9.369291 h 0.292846 V 7.5634217 Z"
         id="path6"
         style="fill:#73e500;fill-opacity:1;stroke-width:0.162697" />
      <path
         d="m 15.881151,15.795586 c 0,0.08136 0.06513,0.146414 0.14643,0.146414 0.08136,0 0.146415,-0.06513 0.146415,-0.146414 v -1.80587 h -0.292845 z"
         id="path8"
         style="fill:#73e500;fill-opacity:1;stroke-width:0.162697" />
      <path
         d="m 16.759686,13.827017 -0.260305,0.09761 0.341655,0.911069 c 0.03257,0.0814 0.113882,0.113892 0.178964,0.0814 0.08133,-0.03257 0.113881,-0.113882 0.08133,-0.178963 z"
         id="path10"
         style="fill:#73e500;fill-opacity:1;stroke-width:0.162697" />
      <path
         d="m 14.172899,10.199017 0.17896,-0.211505 -0.732106,-0.634489 c -0.06513,-0.04881 -0.146418,-0.04881 -0.195231,0.01627 -0.04884,0.06509 -0.04884,0.146423 0.01628,0.19523 z"
         id="path12"
         style="fill:#73e500;fill-opacity:1;stroke-width:0.162697" />
      <path
         d="m 14.628437,9.792289 0.24403,-0.146423 -0.911069,-1.5781026 c -0.03257,-0.065082 -0.130148,-0.097614 -0.195228,-0.048803 -0.06513,0.032535 -0.09762,0.130153 -0.04884,0.1952298 z"
         id="path14-3"
         style="fill:#73e500;fill-opacity:1;stroke-width:0.162697" />
      <path
         d="m 17.296562,13.566721 -0.24403,0.146415 0.91107,1.561841 c 0.03257,0.06513 0.130148,0.09762 0.19523,0.04884 0.06513,-0.03257 0.09763,-0.130149 0.04884,-0.195231 z"
         id="path16"
         style="fill:#73e500;fill-opacity:1;stroke-width:0.162697" />
      <path
         d="m 17.719569,13.143727 -0.17896,0.211497 0.74837,0.634492 c 0.06513,0.04884 0.146432,0.04884 0.195231,-0.01628 0.04884,-0.06513 0.04884,-0.146423 -0.01628,-0.195231 z"
         id="path18"
         style="fill:#73e500;fill-opacity:1;stroke-width:0.162697" />
      <path
         d="m 12.757488,10.833514 c -0.08136,-0.01628 -0.146419,0.03257 -0.162686,0.113881 -0.01628,0.08136 0.03257,0.146415 0.113881,0.162693 l 0.959875,0.162686 0.04884,-0.276579 z"
         id="path20"
         style="fill:#73e500;fill-opacity:1;stroke-width:0.162697" />
      <path
         d="m 12.285691,9.808558 1.561825,0.911074 0.146431,-0.244045 -1.561841,-0.911066 c -0.06513,-0.03253 -0.162683,-0.01626 -0.195232,0.04881 -0.04884,0.06508 -0.01628,0.146423 0.04884,0.195231 z"
         id="path22"
         style="fill:#73e500;fill-opacity:1;stroke-width:0.162697" />
      <path
         d="m 19.639322,13.550455 -1.561839,-0.911071 -0.146415,0.244031 1.561827,0.911069 c 0.06513,0.03257 0.162697,0.01628 0.195229,-0.04884 0.03257,-0.06513 0.01628,-0.162698 -0.04885,-0.19523 z"
         id="path24"
         style="fill:#73e500;fill-opacity:1;stroke-width:0.162697" />
      <path
         d="m 19.134981,12.509221 c 0.08136,0.01628 0.146418,-0.03257 0.162684,-0.11388 0.01628,-0.08135 -0.03257,-0.146416 -0.113883,-0.162682 L 18.22391,12.06996 18.17507,12.34654 Z"
         id="path26"
         style="fill:#73e500;fill-opacity:1;stroke-width:0.162697" />
      <path
         d="m 12.67615,12.720722 c 0.03257,0.08138 0.113882,0.113894 0.178949,0.08138 l 0.911071,-0.341645 -0.09762,-0.260313 -0.91107,0.341654 c -0.06513,0.03257 -0.09762,0.113886 -0.08137,0.178958 z"
         id="path28"
         style="fill:#73e500;fill-opacity:1;stroke-width:0.162697" />
      <path
         d="m 13.652286,11.598151 h -1.805869 c -0.08135,0 -0.146417,0.06513 -0.146417,0.146431 0,0.08137 0.06513,0.146415 0.146417,0.146415 h 1.805869 z"
         id="path30"
         style="fill:#73e500;fill-opacity:1;stroke-width:0.162697" />
      <path
         d="m 20.078585,11.468003 h -1.80587 v 0.292846 h 1.80587 c 0.08137,0 0.146414,-0.06513 0.146414,-0.14642 0,-0.08138 -0.06513,-0.146426 -0.146414,-0.146426 z"
         id="path32"
         style="fill:#73e500;fill-opacity:1;stroke-width:0.162697" />
      <path
         d="m 19.216316,10.638284 c -0.03257,-0.08139 -0.113882,-0.113883 -0.178948,-0.08139 l -0.911069,0.341659 0.09761,0.260297 0.91107,-0.341645 c 0.06513,-0.03257 0.09761,-0.113883 0.08136,-0.178964 z"
         id="path34"
         style="fill:#73e500;fill-opacity:1;stroke-width:0.162697" />
      <path
         d="m 14.46574,13.45284 -0.211498,-0.178964 -0.634489,0.748372 c -0.04884,0.06513 -0.04884,0.14643 0.01628,0.195229 0.06513,0.04884 0.146424,0.04884 0.195231,-0.01628 z"
         id="path36"
         style="fill:#73e500;fill-opacity:1;stroke-width:0.162697" />
      <path
         d="m 13.928865,12.769533 -1.561826,0.91107 c -0.06513,0.03257 -0.09761,0.130148 -0.04884,0.19523 0.04884,0.06513 0.130157,0.09761 0.195228,0.04884 l 1.561841,-0.911069 z"
         id="path38"
         style="fill:#73e500;fill-opacity:1;stroke-width:0.162697" />
      <path
         d="m 17.996135,10.589467 1.561841,-0.911062 c 0.06508,-0.03254 0.09763,-0.130153 0.0488,-0.19523 -0.0488,-0.06508 -0.130148,-0.09761 -0.195231,-0.04881 l -1.561821,0.911073 z"
         id="path40"
         style="fill:#73e500;fill-opacity:1;stroke-width:0.162697" />
      <path
         d="m 17.426726,9.906175 0.211497,0.178951 0.634492,-0.748372 c 0.04884,-0.06508 0.04884,-0.146423 -0.01628,-0.195229 -0.06513,-0.04881 -0.146422,-0.04881 -0.195231,0.01627 z"
         id="path42"
         style="fill:#73e500;fill-opacity:1;stroke-width:0.162697" />
      <path
         d="m 15.116514,14.868251 c -0.01628,0.08136 0.03257,0.146415 0.11388,0.162682 0.08136,0.01628 0.146415,-0.03257 0.162693,-0.113883 l 0.162686,-0.959868 -0.276579,-0.04884 z"
         id="path44"
         style="fill:#73e500;fill-opacity:1;stroke-width:0.162697" />
      <path
         d="m 13.83125,15.209895 c -0.03257,0.06513 -0.01628,0.162698 0.04884,0.19523 0.06513,0.03257 0.16269,0.01628 0.195226,-0.04884 l 0.911067,-1.561838 -0.244035,-0.146416 z"
         id="path46"
         style="fill:#73e500;fill-opacity:1;stroke-width:0.162697" />
      <path
         d="m 18.077483,8.1491089 c 0.03257,-0.06508 0.01628,-0.162691 -0.04884,-0.195229 -0.06513,-0.032535 -0.162698,-0.016262 -0.195231,0.048807 L 16.922343,9.56452 17.166375,9.710943 Z"
         id="path48"
         style="fill:#73e500;fill-opacity:1;stroke-width:0.162697" />
      <path
         d="m 16.792219,8.5070299 c 0.01628,-0.081349 -0.03257,-0.1464233 -0.113879,-0.1626914 -0.08137,-0.016263 -0.146416,0.032536 -0.162682,0.1138835 l -0.162699,0.959877 0.27658,0.04881 z"
         id="path50"
         style="fill:#73e500;fill-opacity:1;stroke-width:0.162697" />
      <path
         d="m 16.019449,6.9579481 -0.02871,0.029666 C 16,7 16,7 16,7 L 15.9938,7.00333 16,7 16.02012,7.019549 C 16.02012,7.019549 16,7 16.019453,6.957948 Z M 20.719,17.304813 c 0,0 0.0185,-0.01795 0,0 C 20.57552,17.443422 20.5,17.661297 20.5,17.875 V 19 c 0,1.65675 -1.34325,3 -3,3 H 16.75075 13.75 C 13.33581,22 13,22.335812 13,22.75 c 0,0.414187 0.33581,0.75 0.75,0.75 h 1.125 1.73803 0.13697 c 0.41419,0 0.75,0.335812 0.75,0.75 0,0.414187 -0.33581,0.75 -0.75,0.75 h -3 c -1.24256,0 -2.25,-1.007438 -2.25,-2.25 0,-1.242562 1.00744,-2.25 2.25,-2.25 h 1.125 0.75 1.875 c 0.82837,0 1.5,-0.671625 1.5,-1.5 v -1.125 c 0,-0.687 0.30759,-1.302234 0.79322,-1.714594 -0.0791,0.06703 -0.066,0.05358 0,0 C 21.14795,15.061281 22,13.379734 22,11.5 c 0,-3.3135 -2.6865,-6 -6,-6 -3.31364,0 -6,2.6865 -6,6 0,1.875984 0.856547,3.561234 2.206594,4.660406 0.06858,0.05583 0.07931,0.06703 0,0 C 12.69241,16.572766 13,17.188 13,17.875 V 18.25 C 13,18.664188 12.66419,19 12.25,19 11.835813,19 11.5,18.664188 11.5,18.25 v -0.375 c 0,-0.214453 -0.07467,-0.431484 -0.219,-0.570187 -0.01809,-0.01739 0,0 0,0 C 9.590922,15.929313 8.5,13.848156 8.5,11.5 8.5,7.357797 11.857984,4 16,4 c 4.14183,0 7.5,3.357797 7.5,7.5 0,2.348156 -1.09092,4.429313 -2.781,5.804813 z M 15.25,26.5 h 1.5 c 0.41419,0 0.75,0.335812 0.75,0.75 0,0.414187 -0.33581,0.75 -0.75,0.75 h -1.5 c -0.41419,0 -0.75,-0.335813 -0.75,-0.75 0,-0.414188 0.33581,-0.75 0.75,-0.75 z m 4.5,-3 c 0.41419,0 0.75,0.335812 0.75,0.75 C 20.5,24.664187 20.16419,25 19.75,25 19.33581,25 19,24.664187 19,24.25 19,23.835812 19.33581,23.5 19.75,23.5 Z"
         id="path2-3"
         style="fill:#a1adc8;fill-opacity:1;stroke-width:0.046875"
         sodipodi:nodetypes="ccccccscsssscsssccssssssccsssccsssccsssssscssscsssssssssssss" />
    </g>
    <g
       id="22-22-redshift-status-on"
       style="fill:#73e500;fill-opacity:1">
      <rect
         y="10"
         x="-44"
         height="22"
         width="22"
         id="rect1467-9-7-9-9-4"
         style="opacity:0.003;fill:#73e500;fill-opacity:1" />
      <circle
         cx="-32.952358"
         cy="17.941654"
         r="1.5687925"
         id="circle2-3"
         style="fill:#73e500;fill-opacity:1;stroke-width:0.127544" />
      <path
         d="m -33.577319,16.232564 0.204071,-0.07653 -0.255088,-0.714247 c -0.02551,-0.06377 -0.08928,-0.08928 -0.140299,-0.06377 -0.05102,0.02551 -0.08928,0.08928 -0.06377,0.140299 z"
         id="path4-5"
         style="fill:#73e500;fill-opacity:1;stroke-width:0.127544" />
      <path
         d="m -32.901335,14.71479 c 0,-0.06377 -0.05102,-0.11479 -0.11479,-0.11479 -0.06377,0 -0.102035,0.05102 -0.102035,0.11479 v 1.415739 h 0.22958 V 14.71479 Z"
         id="path6-6"
         style="fill:#73e500;fill-opacity:1;stroke-width:0.127544" />
      <path
         d="m -33.016125,21.168521 c 0,0.06377 0.05102,0.11479 0.11479,0.11479 0.06377,0 0.11479,-0.05102 0.11479,-0.11479 v -1.415739 h -0.22958 z"
         id="path8-2"
         style="fill:#73e500;fill-opacity:1;stroke-width:0.127544" />
      <path
         d="m -32.327387,19.625237 -0.20407,0.07653 0.267842,0.714247 c 0.02551,0.06377 0.08928,0.08928 0.140299,0.06377 0.06377,-0.02551 0.08928,-0.08928 0.06377,-0.140299 z"
         id="path10-9"
         style="fill:#73e500;fill-opacity:1;stroke-width:0.127544" />
      <path
         d="m -34.355338,16.781004 0.140299,-0.165807 -0.573949,-0.497422 c -0.05102,-0.03826 -0.114789,-0.03826 -0.153052,0.01275 -0.03826,0.05102 -0.03826,0.11479 0.01275,0.153054 z"
         id="path12-1"
         style="fill:#73e500;fill-opacity:1;stroke-width:0.127544" />
      <path
         d="m -33.998215,16.462144 0.191317,-0.11479 -0.714247,-1.237178 c -0.02551,-0.05102 -0.102035,-0.07653 -0.153053,-0.03826 -0.05102,0.02551 -0.07653,0.102036 -0.03826,0.153054 z"
         id="path14-3-2"
         style="fill:#73e500;fill-opacity:1;stroke-width:0.127544" />
      <path
         d="m -31.906491,19.421167 -0.191316,0.114789 0.714247,1.224424 c 0.02551,0.05102 0.102035,0.07653 0.153053,0.03826 0.05102,-0.02551 0.07653,-0.102036 0.03826,-0.153053 z"
         id="path16-7"
         style="fill:#73e500;fill-opacity:1;stroke-width:0.127544" />
      <path
         d="m -31.574876,19.089552 -0.140299,0.165808 0.586703,0.497422 c 0.05102,0.03826 0.11479,0.03826 0.153053,-0.01275 0.03826,-0.05102 0.03826,-0.11479 -0.01275,-0.153053 z"
         id="path18-0"
         style="fill:#73e500;fill-opacity:1;stroke-width:0.127544" />
      <path
         d="m -35.464971,17.278426 c -0.06377,-0.01275 -0.11479,0.02551 -0.127545,0.08928 -0.01275,0.06377 0.02551,0.114789 0.08928,0.127544 l 0.75251,0.127544 0.03826,-0.216825 z"
         id="path20-9"
         style="fill:#73e500;fill-opacity:1;stroke-width:0.127544" />
      <path
         d="m -35.834849,16.474898 1.224423,0.714247 0.11479,-0.191316 -1.224423,-0.714247 c -0.05102,-0.02551 -0.127545,-0.01275 -0.153054,0.03826 -0.03826,0.05102 -0.01275,0.11479 0.03826,0.153053 z"
         id="path22-3"
         style="fill:#73e500;fill-opacity:1;stroke-width:0.127544" />
      <path
         d="m -30.069856,19.408413 -1.224423,-0.714248 -0.11479,0.191317 1.224423,0.714247 c 0.05102,0.02551 0.127544,0.01275 0.153053,-0.03826 0.02551,-0.05102 0.01275,-0.127545 -0.03826,-0.153053 z"
         id="path24-6"
         style="fill:#73e500;fill-opacity:1;stroke-width:0.127544" />
      <path
         d="m -30.465243,18.59213 c 0.06377,0.01275 0.11479,-0.02551 0.127545,-0.08928 0.01275,-0.06377 -0.02551,-0.11479 -0.08928,-0.127545 l -0.75251,-0.127544 -0.03826,0.216825 z"
         id="path26-0"
         style="fill:#73e500;fill-opacity:1;stroke-width:0.127544" />
      <path
         d="m -35.528744,18.757938 c 0.02551,0.06377 0.08928,0.08928 0.140299,0.06377 l 0.714247,-0.267843 -0.07653,-0.204071 -0.714246,0.267843 c -0.05102,0.02551 -0.07653,0.08928 -0.06377,0.140299 z"
         id="path28-6"
         style="fill:#73e500;fill-opacity:1;stroke-width:0.127544" />
      <path
         d="m -34.763479,17.877883 h -1.415739 c -0.06377,0 -0.11479,0.05102 -0.11479,0.11479 0,0.06377 0.05102,0.11479 0.11479,0.11479 h 1.415739 z"
         id="path30-2"
         style="fill:#73e500;fill-opacity:1;stroke-width:0.127544" />
      <path
         d="m -29.725487,17.775848 h -1.415739 v 0.229579 h 1.415739 c 0.06377,0 0.11479,-0.05102 0.11479,-0.114789 0,-0.06377 -0.05102,-0.11479 -0.11479,-0.11479 z"
         id="path32-6"
         style="fill:#73e500;fill-opacity:1;stroke-width:0.127544" />
      <path
         d="m -30.401471,17.125373 c -0.02551,-0.06377 -0.08928,-0.08928 -0.140298,-0.06377 l -0.714247,0.267843 0.07653,0.20407 0.714246,-0.267842 c 0.05102,-0.02551 0.07653,-0.08928 0.06377,-0.140299 z"
         id="path34-1"
         style="fill:#73e500;fill-opacity:1;stroke-width:0.127544" />
      <path
         d="m -34.125758,19.331886 -0.165808,-0.140299 -0.497422,0.586704 c -0.03826,0.05102 -0.03826,0.114789 0.01275,0.153052 0.05102,0.03826 0.11479,0.03826 0.153053,-0.01275 z"
         id="path36-8"
         style="fill:#73e500;fill-opacity:1;stroke-width:0.127544" />
      <path
         d="m -34.546654,18.796201 -1.224423,0.714247 c -0.05102,0.02551 -0.07653,0.102035 -0.03826,0.153053 0.03826,0.05102 0.102035,0.07653 0.153052,0.03826 l 1.224423,-0.714246 z"
         id="path38-7"
         style="fill:#73e500;fill-opacity:1;stroke-width:0.127544" />
      <path
         d="m -31.358051,17.08711 1.224423,-0.714247 c 0.05102,-0.02551 0.07653,-0.102035 0.03826,-0.153053 -0.03826,-0.05102 -0.102036,-0.07653 -0.153053,-0.03826 l -1.224424,0.714247 z"
         id="path40-9"
         style="fill:#73e500;fill-opacity:1;stroke-width:0.127544" />
      <path
         d="m -31.804456,16.551424 0.165808,0.140299 0.497422,-0.586702 c 0.03826,-0.05102 0.03826,-0.11479 -0.01275,-0.153054 -0.05102,-0.03826 -0.11479,-0.03826 -0.153053,0.01275 z"
         id="path42-2"
         style="fill:#73e500;fill-opacity:1;stroke-width:0.127544" />
      <path
         d="m -33.615582,20.44152 c -0.01275,0.06377 0.02551,0.11479 0.08928,0.127544 0.06377,0.01275 0.11479,-0.02551 0.127544,-0.08928 l 0.127544,-0.75251 -0.216825,-0.03826 z"
         id="path44-0"
         style="fill:#73e500;fill-opacity:1;stroke-width:0.127544" />
      <path
         d="m -34.62318,20.709362 c -0.02551,0.05102 -0.01275,0.127544 0.03826,0.153053 0.05102,0.02551 0.127544,0.01275 0.153053,-0.03826 l 0.714247,-1.224423 -0.191317,-0.11479 z"
         id="path46-2"
         style="fill:#73e500;fill-opacity:1;stroke-width:0.127544" />
      <path
         d="m -31.294279,15.173949 c 0.02551,-0.05102 0.01275,-0.127545 -0.03826,-0.153054 -0.05102,-0.02551 -0.127545,-0.01275 -0.153053,0.03826 l -0.714247,1.224424 0.191316,0.11479 z"
         id="path48-3"
         style="fill:#73e500;fill-opacity:1;stroke-width:0.127544" />
      <path
         d="m -32.301878,15.454545 c 0.01275,-0.06377 -0.02551,-0.11479 -0.08928,-0.127544 -0.06377,-0.01275 -0.11479,0.02551 -0.127545,0.08928 l -0.127544,0.75251 0.216825,0.03826 z"
         id="path50-7"
         style="fill:#73e500;fill-opacity:1;stroke-width:0.127544" />
      <path
         d="m -32.987034,14.971965 -0.01914,0.01978 c 0.0062,0.0083 0.0062,0.0083 0.0062,0.0083 l -0.0041,0.0022 0.0041,-0.0022 0.01338,0.01299 c 0,0 -0.01341,-0.01303 -4.44e-4,-0.04107 z m 3.133034,6.89791 c 0,0 0.01233,-0.01197 0,0 C -29.94965,21.962285 -30,22.107531 -30,22.25 V 23 c 0,1.1045 -0.8955,2 -2,2 H -32.4995 -34.5 c -0.276127,0 -0.5,0.223875 -0.5,0.5 0,0.276125 0.223873,0.5 0.5,0.5 h 0.75 1.158687 0.09131 c 0.276127,0 0.5,0.223875 0.5,0.5 0,0.276125 -0.223873,0.5 -0.5,0.5 h -2 c -0.828373,0 -1.5,-0.671625 -1.5,-1.5 0,-0.828375 0.671627,-1.5 1.5,-1.5 h 0.75 0.5 1.25 c 0.552247,0 1,-0.44775 1,-1 v -0.75 c 0,-0.458 0.20506,-0.868156 0.528813,-1.143063 -0.05273,0.04469 -0.044,0.03572 0,0 C -29.568033,20.374187 -29,19.253156 -29,18 c 0,-2.209 -1.791,-4 -4,-4 -2.209093,0 -4,1.791 -4,4 0,1.250656 0.571031,2.374156 1.471063,3.106937 0.04572,0.03722 0.05287,0.04469 0,0 C -35.20506,21.381844 -35,21.792 -35,22.25 v 0.25 c 0,0.276125 -0.223873,0.5 -0.5,0.5 -0.276125,0 -0.5,-0.223875 -0.5,-0.5 v -0.25 c 0,-0.142969 -0.04978,-0.287656 -0.146,-0.380125 -0.01206,-0.01159 0,0 0,0 C -37.272719,20.952875 -38,19.565437 -38,18 c 0,-2.761469 2.238656,-5 5,-5 2.76122,0 5,2.238531 5,5 0,1.565437 -0.72728,2.952875 -1.854,3.869875 z M -33.5,28 h 1 c 0.276127,0 0.5,0.223875 0.5,0.5 0,0.276125 -0.223873,0.5 -0.5,0.5 h -1 c -0.276127,0 -0.5,-0.223875 -0.5,-0.5 0,-0.276125 0.223873,-0.5 0.5,-0.5 z m 3,-2 c 0.276127,0 0.5,0.223875 0.5,0.5 0,0.276125 -0.223873,0.5 -0.5,0.5 -0.276127,0 -0.5,-0.223875 -0.5,-0.5 0,-0.276125 0.223873,-0.5 0.5,-0.5 z"
         id="path2-3-3"
         style="fill:#a1adc8;fill-opacity:1;stroke-width:0.03125"
         sodipodi:nodetypes="ccccccscsssscsssccssssssccsssccsssccsssssscssscsssssssssssss" />
    </g>
    <g
       id="redshift-status-off">
      <rect
         style="opacity:0.003;fill:#000000;stroke-width:1"
         id="rect1033"
         width="32"
         height="32"
         x="32"
         y="0" />
      <path
         d="m 48.019449,6.9579481 -0.02871,0.029666 c 0.0093,0.012386 0.0093,0.012386 0.0093,0.012386 l -0.0062,0.00333 0.0062,-0.00333 0.02012,0.019549 c 0,0 -0.02012,-0.019549 -6.67e-4,-0.061601 z M 52.719,17.304813 c 0,0 0.0185,-0.01795 0,0 C 52.57552,17.443422 52.5,17.661297 52.5,17.875 V 19 c 0,1.65675 -1.34325,3 -3,3 H 48.75075 45.75 C 45.33581,22 45,22.335812 45,22.75 c 0,0.414187 0.33581,0.75 0.75,0.75 h 1.125 1.73803 0.13697 c 0.41419,0 0.75,0.335812 0.75,0.75 0,0.414187 -0.33581,0.75 -0.75,0.75 h -3 c -1.24256,0 -2.25,-1.007438 -2.25,-2.25 0,-1.242562 1.00744,-2.25 2.25,-2.25 h 1.125 0.75 1.875 c 0.82837,0 1.5,-0.671625 1.5,-1.5 v -1.125 c 0,-0.687 0.30759,-1.302234 0.79322,-1.714594 -0.0791,0.06703 -0.066,0.05358 0,0 C 53.14795,15.061281 54,13.379734 54,11.5 c 0,-3.3135 -2.6865,-6 -6,-6 -3.31364,0 -6,2.6865 -6,6 0,1.875984 0.856547,3.561234 2.206594,4.660406 0.06858,0.05583 0.07931,0.06703 0,0 C 44.69241,16.572766 45,17.188 45,17.875 V 18.25 C 45,18.664188 44.66419,19 44.25,19 43.835813,19 43.5,18.664188 43.5,18.25 v -0.375 c 0,-0.214453 -0.07467,-0.431484 -0.219,-0.570187 -0.01809,-0.01739 0,0 0,0 C 41.590922,15.929313 40.5,13.848156 40.5,11.5 40.5,7.357797 43.857984,4 48,4 c 4.14183,0 7.5,3.357797 7.5,7.5 0,2.348156 -1.09092,4.429313 -2.781,5.804813 z M 47.25,26.5 h 1.5 c 0.41419,0 0.75,0.335812 0.75,0.75 0,0.414187 -0.33581,0.75 -0.75,0.75 h -1.5 c -0.41419,0 -0.75,-0.335813 -0.75,-0.75 0,-0.414188 0.33581,-0.75 0.75,-0.75 z m 4.5,-3 c 0.41419,0 0.75,0.335812 0.75,0.75 C 52.5,24.664187 52.16419,25 51.75,25 51.33581,25 51,24.664187 51,24.25 51,23.835812 51.33581,23.5 51.75,23.5 Z"
         id="path2-3-7"
         style="fill:#a1adc8;fill-opacity:1;stroke-width:0.046875"
         sodipodi:nodetypes="ccccccscsssscsssccssssssccsssccsssccsssssscssscsssssssssssss" />
    </g>
  </g>
</svg>
