<?xml version="1.0" encoding="UTF-8" standalone="no"?>
<svg
   width="32"
   height="32"
   viewBox="0 0 32 32"
   version="1.1"
   id="svg867"
   inkscape:version="1.2.2 (b0a8486541, 2022-12-01)"
   sodipodi:docname="redshift.svg"
   xmlns:inkscape="http://www.inkscape.org/namespaces/inkscape"
   xmlns:sodipodi="http://sodipodi.sourceforge.net/DTD/sodipodi-0.dtd"
   xmlns="http://www.w3.org/2000/svg"
   xmlns:svg="http://www.w3.org/2000/svg"
   xmlns:rdf="http://www.w3.org/1999/02/22-rdf-syntax-ns#"
   xmlns:cc="http://creativecommons.org/ns#"
   xmlns:dc="http://purl.org/dc/elements/1.1/">
  <defs
     id="defs3871">
    <style
       type="text/css"
       id="current-color-scheme">
      .ColorScheme-Text {
        color:#a7b4d0;
      }
      </style>
  </defs>
  <sodipodi:namedview
     inkscape:object-paths="true"
     guideopacity="0.62745098"
     guidecolor="#0000ff"
     inkscape:bbox-nodes="true"
     inkscape:snap-intersection-paths="true"
     inkscape:snap-bbox="true"
     id="base"
     pagecolor="#ffffff"
     bordercolor="#666666"
     borderopacity="1.0"
     inkscape:pageopacity="0.0"
     inkscape:pageshadow="2"
     inkscape:zoom="13.293919"
     inkscape:cx="-0.18805591"
     inkscape:cy="15.796696"
     inkscape:document-units="px"
     inkscape:current-layer="layer1"
     inkscape:document-rotation="0"
     showgrid="false"
     inkscape:window-width="1920"
     inkscape:window-height="1032"
     inkscape:window-x="0"
     inkscape:window-y="24"
     inkscape:window-maximized="1"
     units="px"
     inkscape:snap-bbox-edge-midpoints="false"
     inkscape:lockguides="true"
     inkscape:pagecheckerboard="0"
     inkscape:showpageshadow="2"
     inkscape:deskcolor="#d1d1d1">
    <inkscape:grid
       opacity="0.41960784"
       color="#3f3fff"
       type="xygrid"
       id="grid1448"
       originx="-3.5527137e-15"
       originy="0" />
  </sodipodi:namedview>
  <metadata
     id="metadata864">
    <rdf:RDF>
      <cc:Work
         rdf:about="">
        <dc:format>image/svg+xml</dc:format>
        <dc:type
           rdf:resource="http://purl.org/dc/dcmitype/StillImage" />
      </cc:Work>
    </rdf:RDF>
  </metadata>
  <g
     inkscape:label="Layer 1"
     inkscape:groupmode="layer"
     id="layer1">
    <g
       id="redshift-status-on"
       style="fill:#a1adc8;fill-opacity:1">
      <rect
         y="0"
         x="3.5527137e-15"
         height="32"
         width="32"
         id="rect910"
         style="opacity:0.003;fill:#a1adc8;fill-opacity:1;stroke-width:1" />
      <g
         id="g4060"
         inkscape:label="decoration"
         transform="matrix(1.0513936,0,0,1.0513936,-0.82037025,-0.60025151)">
        <circle
           cx="15.962496"
           cy="11.679497"
           r="2.0010977"
           id="circle2"
           style="fill:#a1adc8;fill-opacity:0.8;stroke-width:0.162697" />
        <path
           id="path50"
           style="fill:#a1adc8;fill-opacity:1;stroke-width:0.162697"
           d="m 16.792219,8.5070299 c 0.01628,-0.081349 -0.03257,-0.1464233 -0.113879,-0.1626914 -0.08137,-0.016263 -0.146416,0.032536 -0.162682,0.1138835 l -0.162699,0.959877 0.27658,0.04881 z m 1.285264,-0.357921 c 0.03257,-0.06508 0.01628,-0.162691 -0.04884,-0.195229 -0.06513,-0.032535 -0.162698,-0.016262 -0.195231,0.048807 L 16.922343,9.56452 17.166375,9.710943 Z M 13.83125,15.209895 c -0.03257,0.06513 -0.01628,0.162698 0.04884,0.19523 0.06513,0.03257 0.16269,0.01628 0.195226,-0.04884 l 0.911067,-1.561838 -0.244035,-0.146416 z m 1.285264,-0.341644 c -0.01628,0.08136 0.03257,0.146415 0.11388,0.162682 0.08136,0.01628 0.146415,-0.03257 0.162693,-0.113883 l 0.162686,-0.959868 -0.276579,-0.04884 z m 2.310212,-4.962076 0.211497,0.178951 0.634492,-0.748372 c 0.04884,-0.06508 0.04884,-0.146423 -0.01628,-0.195229 -0.06513,-0.04881 -0.146422,-0.04881 -0.195231,0.01627 z m 0.569409,0.683292 1.561841,-0.911062 c 0.06508,-0.03254 0.09763,-0.130153 0.0488,-0.19523 -0.0488,-0.06508 -0.130148,-0.09761 -0.195231,-0.04881 l -1.561821,0.911073 z m -4.06727,2.180066 -1.561826,0.91107 c -0.06513,0.03257 -0.09761,0.130148 -0.04884,0.19523 0.04884,0.06513 0.130157,0.09761 0.195228,0.04884 l 1.561841,-0.911069 z m 0.536875,0.683307 -0.211498,-0.178964 -0.634489,0.748372 c -0.04884,0.06513 -0.04884,0.14643 0.01628,0.195229 0.06513,0.04884 0.146424,0.04884 0.195231,-0.01628 z m 4.750576,-2.814556 c -0.03257,-0.08139 -0.113882,-0.113883 -0.178948,-0.08139 l -0.911069,0.341659 0.09761,0.260297 0.91107,-0.341645 c 0.06513,-0.03257 0.09761,-0.113883 0.08136,-0.178964 z m 0.862269,0.829719 h -1.80587 v 0.292846 h 1.80587 c 0.08137,0 0.146414,-0.06513 0.146414,-0.14642 0,-0.08138 -0.06513,-0.146426 -0.146414,-0.146426 z m -6.426299,0.130148 h -1.805869 c -0.08135,0 -0.146417,0.06513 -0.146417,0.146431 0,0.08137 0.06513,0.146415 0.146417,0.146415 h 1.805869 z m -0.976136,1.122571 c 0.03257,0.08138 0.113882,0.113894 0.178949,0.08138 l 0.911071,-0.341645 -0.09762,-0.260313 -0.91107,0.341654 c -0.06513,0.03257 -0.09762,0.113886 -0.08137,0.178958 z m 6.458831,-0.211501 c 0.08136,0.01628 0.146418,-0.03257 0.162684,-0.11388 0.01628,-0.08135 -0.03257,-0.146416 -0.113883,-0.162682 L 18.22391,12.06996 18.17507,12.34654 Z m 0.504341,1.041234 -1.561839,-0.911071 -0.146415,0.244031 1.561827,0.911069 c 0.06513,0.03257 0.162697,0.01628 0.195229,-0.04884 0.03257,-0.06513 0.01628,-0.162698 -0.04885,-0.19523 z m -7.353631,-3.741897 1.561825,0.911074 0.146431,-0.244045 -1.561841,-0.911066 c -0.06513,-0.03253 -0.162683,-0.01626 -0.195232,0.04881 -0.04884,0.06508 -0.01628,0.146423 0.04884,0.195231 z m 0.471797,1.024956 c -0.08136,-0.01628 -0.146419,0.03257 -0.162686,0.113881 -0.01628,0.08136 0.03257,0.146415 0.113881,0.162693 l 0.959875,0.162686 0.04884,-0.276579 z m 4.962081,2.310213 -0.17896,0.211497 0.74837,0.634492 c 0.06513,0.04884 0.146432,0.04884 0.195231,-0.01628 0.04884,-0.06513 0.04884,-0.146423 -0.01628,-0.195231 z m -0.423007,0.422994 -0.24403,0.146415 0.91107,1.561841 c 0.03257,0.06513 0.130148,0.09762 0.19523,0.04884 0.06513,-0.03257 0.09763,-0.130149 0.04884,-0.195231 z M 14.628437,9.792289 14.872467,9.645866 13.961398,8.0677634 c -0.03257,-0.065082 -0.130148,-0.097614 -0.195228,-0.048803 -0.06513,0.032535 -0.09762,0.130153 -0.04884,0.1952298 z m -0.455538,0.406728 0.17896,-0.211505 -0.732106,-0.634489 c -0.06513,-0.04881 -0.146418,-0.04881 -0.195231,0.01627 -0.04884,0.06509 -0.04884,0.146423 0.01628,0.19523 z m 2.586787,3.628 -0.260305,0.09761 0.341655,0.911069 c 0.03257,0.0814 0.113882,0.113892 0.178964,0.0814 0.08133,-0.03257 0.113881,-0.113882 0.08133,-0.178963 z m -0.878535,1.968569 c 0,0.08136 0.06513,0.146414 0.14643,0.146414 0.08136,0 0.146415,-0.06513 0.146415,-0.146414 v -1.80587 h -0.292845 z m 0.14643,-8.2321643 c 0,-0.08135 -0.06513,-0.1464217 -0.14643,-0.1464217 -0.08135,0 -0.130149,0.065086 -0.130149,0.1464217 V 9.369291 h 0.292846 V 7.5634217 Z m -0.86227,1.9360223 0.260314,-0.09761 -0.325378,-0.9110687 c -0.03257,-0.081348 -0.113889,-0.1138836 -0.178964,-0.081348 -0.06512,0.032536 -0.113883,0.1138849 -0.08139,0.1789609 z" />
      </g>
      <path
         d="m 16.019449,6.9579481 -0.02871,0.029666 C 16,7 16,7 16,7 L 15.9938,7.00333 16,7 16.02012,7.019549 C 16.02012,7.019549 16,7 16.019453,6.957948 Z M 20.719,17.304813 c 0,0 0.0185,-0.01795 0,0 C 20.57552,17.443422 20.5,17.661297 20.5,17.875 V 19 c 0,1.65675 -1.34325,3 -3,3 H 16.75075 13.75 C 13.33581,22 13,22.335812 13,22.75 c 0,0.414187 0.33581,0.75 0.75,0.75 h 1.125 1.73803 0.13697 c 0.41419,0 0.75,0.335812 0.75,0.75 0,0.414187 -0.33581,0.75 -0.75,0.75 h -3 c -1.24256,0 -2.25,-1.007438 -2.25,-2.25 0,-1.242562 1.00744,-2.25 2.25,-2.25 h 1.125 0.75 1.875 c 0.82837,0 1.5,-0.671625 1.5,-1.5 v -1.125 c 0,-0.687 0.30759,-1.302234 0.79322,-1.714594 -0.0791,0.06703 -0.066,0.05358 0,0 C 21.14795,15.061281 22,13.379734 22,11.5 c 0,-3.3135 -2.6865,-6 -6,-6 -3.31364,0 -6,2.6865 -6,6 0,1.875984 0.856547,3.561234 2.206594,4.660406 0.06858,0.05583 0.07931,0.06703 0,0 C 12.69241,16.572766 13,17.188 13,17.875 V 18.25 C 13,18.664188 12.66419,19 12.25,19 11.835813,19 11.5,18.664188 11.5,18.25 v -0.375 c 0,-0.214453 -0.07467,-0.431484 -0.219,-0.570187 -0.01809,-0.01739 0,0 0,0 C 9.590922,15.929313 8.5,13.848156 8.5,11.5 8.5,7.357797 11.857984,4 16,4 c 4.14183,0 7.5,3.357797 7.5,7.5 0,2.348156 -1.09092,4.429313 -2.781,5.804813 z M 15.25,26.5 h 1.5 c 0.41419,0 0.75,0.335812 0.75,0.75 0,0.414187 -0.33581,0.75 -0.75,0.75 h -1.5 c -0.41419,0 -0.75,-0.335813 -0.75,-0.75 0,-0.414188 0.33581,-0.75 0.75,-0.75 z m 4.5,-3 c 0.41419,0 0.75,0.335812 0.75,0.75 C 20.5,24.664187 20.16419,25 19.75,25 19.33581,25 19,24.664187 19,24.25 19,23.835812 19.33581,23.5 19.75,23.5 Z"
         id="path2-3"
         style="fill:#a9b5d1;fill-opacity:1;stroke-width:0.046875"
         sodipodi:nodetypes="ccccccscsssscsssccssssssccsssccsssccsssssscssscsssssssssssss" />
      <path
         d="m 20.5,19 c 0,1.65675 -1.34325,3 -3,3 H 16.75075 13.75 C 13.33581,22 13,22.335812 13,22.75 c 0,0.414187 0.33581,0.75 0.75,0.75 h 1.125 1.73803 0.13697 c 0.41419,0 0.75,0.335812 0.75,0.75 0,0.414187 -0.33581,0.75 -0.75,0.75 h -3 c -1.24256,0 -2.25,-1.007438 -2.25,-2.25 0,-1.242562 1.00744,-2.25 2.25,-2.25 h 1.125 0.75 1.875 c 0.82837,0 1.5,-0.671625 1.5,-1.5 -0.09355,-3.187634 1.5,-3.775534 1.5,0 z m -5.25,7.5 h 1.5 c 0.41419,0 0.75,0.335812 0.75,0.75 0,0.414187 -0.33581,0.75 -0.75,0.75 h -1.5 c -0.41419,0 -0.75,-0.335813 -0.75,-0.75 0,-0.414188 0.33581,-0.75 0.75,-0.75 z m 4.5,-3 c 0.41419,0 0.75,0.335812 0.75,0.75 C 20.5,24.664187 20.16419,25 19.75,25 19.33581,25 19,24.664187 19,24.25 19,23.835812 19.33581,23.5 19.75,23.5 Z"
         id="path4055"
         style="fill:#8792ab;fill-opacity:1;stroke-width:0.046875"
         sodipodi:nodetypes="ccsssccssssssccssccssssssssssss" />
    </g>
    <g
       id="g4074"
       style="fill:#a1adc8;fill-opacity:1;opacity:0.7"
       transform="translate(32.027803,-0.04934391)"
       inkscape:label="redshift-status-off">
      <rect
         y="0"
         x="3.5527137e-15"
         height="32"
         width="32"
         id="rect4062"
         style="opacity:0.003;fill:#a1adc8;fill-opacity:1;stroke-width:1" />
      <path
         d="m 16.019449,6.9579481 -0.02871,0.029666 C 16,7 16,7 16,7 L 15.9938,7.00333 16,7 16.02012,7.019549 C 16.02012,7.019549 16,7 16.019453,6.957948 Z M 20.719,17.304813 c 0,0 0.0185,-0.01795 0,0 C 20.57552,17.443422 20.5,17.661297 20.5,17.875 V 19 c 0,1.65675 -1.34325,3 -3,3 H 16.75075 13.75 C 13.33581,22 13,22.335812 13,22.75 c 0,0.414187 0.33581,0.75 0.75,0.75 h 1.125 1.73803 0.13697 c 0.41419,0 0.75,0.335812 0.75,0.75 0,0.414187 -0.33581,0.75 -0.75,0.75 h -3 c -1.24256,0 -2.25,-1.007438 -2.25,-2.25 0,-1.242562 1.00744,-2.25 2.25,-2.25 h 1.125 0.75 1.875 c 0.82837,0 1.5,-0.671625 1.5,-1.5 v -1.125 c 0,-0.687 0.30759,-1.302234 0.79322,-1.714594 -0.0791,0.06703 -0.066,0.05358 0,0 C 21.14795,15.061281 22,13.379734 22,11.5 c 0,-3.3135 -2.6865,-6 -6,-6 -3.31364,0 -6,2.6865 -6,6 0,1.875984 0.856547,3.561234 2.206594,4.660406 0.06858,0.05583 0.07931,0.06703 0,0 C 12.69241,16.572766 13,17.188 13,17.875 V 18.25 C 13,18.664188 12.66419,19 12.25,19 11.835813,19 11.5,18.664188 11.5,18.25 v -0.375 c 0,-0.214453 -0.07467,-0.431484 -0.219,-0.570187 -0.01809,-0.01739 0,0 0,0 C 9.590922,15.929313 8.5,13.848156 8.5,11.5 8.5,7.357797 11.857984,4 16,4 c 4.14183,0 7.5,3.357797 7.5,7.5 0,2.348156 -1.09092,4.429313 -2.781,5.804813 z M 15.25,26.5 h 1.5 c 0.41419,0 0.75,0.335812 0.75,0.75 0,0.414187 -0.33581,0.75 -0.75,0.75 h -1.5 c -0.41419,0 -0.75,-0.335813 -0.75,-0.75 0,-0.414188 0.33581,-0.75 0.75,-0.75 z m 4.5,-3 c 0.41419,0 0.75,0.335812 0.75,0.75 C 20.5,24.664187 20.16419,25 19.75,25 19.33581,25 19,24.664187 19,24.25 19,23.835812 19.33581,23.5 19.75,23.5 Z"
         id="path4070"
         style="fill:#a7b4d0;fill-opacity:1;stroke-width:0.046875"
         sodipodi:nodetypes="ccccccscsssscsssccssssssccsssccsssccsssssscssscsssssssssssss" />
      <path
         d="m 20.5,19 c 0,1.65675 -1.34325,3 -3,3 H 16.75075 13.75 C 13.33581,22 13,22.335812 13,22.75 c 0,0.414187 0.33581,0.75 0.75,0.75 h 1.125 1.73803 0.13697 c 0.41419,0 0.75,0.335812 0.75,0.75 0,0.414187 -0.33581,0.75 -0.75,0.75 h -3 c -1.24256,0 -2.25,-1.007438 -2.25,-2.25 0,-1.242562 1.00744,-2.25 2.25,-2.25 h 1.125 0.75 1.875 c 0.82837,0 1.5,-0.671625 1.5,-1.5 -0.09355,-3.187634 1.5,-3.775534 1.5,0 z m -5.25,7.5 h 1.5 c 0.41419,0 0.75,0.335812 0.75,0.75 0,0.414187 -0.33581,0.75 -0.75,0.75 h -1.5 c -0.41419,0 -0.75,-0.335813 -0.75,-0.75 0,-0.414188 0.33581,-0.75 0.75,-0.75 z m 4.5,-3 c 0.41419,0 0.75,0.335812 0.75,0.75 C 20.5,24.664187 20.16419,25 19.75,25 19.33581,25 19,24.664187 19,24.25 19,23.835812 19.33581,23.5 19.75,23.5 Z"
         id="path4072"
         style="fill:#8792ab;fill-opacity:1;stroke-width:0.046875"
         sodipodi:nodetypes="ccsssccssssssccssccssssssssssss" />
    </g>
    <g
       id="g4088"
       style="display:inline;fill:#a1adc8;fill-opacity:1"
       transform="matrix(0.66727552,0,0,0.66727552,-43.676408,10.323592)"
       inkscape:label="22-22-redshift-status-on">
      <rect
         y="0"
         x="3.5527137e-15"
         height="32"
         width="32"
         id="rect4076"
         style="opacity:0.003;fill:#a1adc8;fill-opacity:1;stroke-width:1" />
      <g
         id="g4082"
         inkscape:label="decoration"
         transform="matrix(1.1385506,0,0,1.1385506,-2.2116143,-1.618202)">
        <circle
           cx="15.962496"
           cy="11.679497"
           r="2.0010977"
           id="circle4078"
           style="fill:#a1adc8;fill-opacity:0.8;stroke-width:0.162697" />
        <path
           id="path4080"
           style="fill:#a1adc8;fill-opacity:1;stroke-width:0.162697"
           d="m 16.792219,8.5070299 c 0.01628,-0.081349 -0.03257,-0.1464233 -0.113879,-0.1626914 -0.08137,-0.016263 -0.146416,0.032536 -0.162682,0.1138835 l -0.162699,0.959877 0.27658,0.04881 z m 1.285264,-0.357921 c 0.03257,-0.06508 0.01628,-0.162691 -0.04884,-0.195229 -0.06513,-0.032535 -0.162698,-0.016262 -0.195231,0.048807 L 16.922343,9.56452 17.166375,9.710943 Z M 13.83125,15.209895 c -0.03257,0.06513 -0.01628,0.162698 0.04884,0.19523 0.06513,0.03257 0.16269,0.01628 0.195226,-0.04884 l 0.911067,-1.561838 -0.244035,-0.146416 z m 1.285264,-0.341644 c -0.01628,0.08136 0.03257,0.146415 0.11388,0.162682 0.08136,0.01628 0.146415,-0.03257 0.162693,-0.113883 l 0.162686,-0.959868 -0.276579,-0.04884 z m 2.310212,-4.962076 0.211497,0.178951 0.634492,-0.748372 c 0.04884,-0.06508 0.04884,-0.146423 -0.01628,-0.195229 -0.06513,-0.04881 -0.146422,-0.04881 -0.195231,0.01627 z m 0.569409,0.683292 1.561841,-0.911062 c 0.06508,-0.03254 0.09763,-0.130153 0.0488,-0.19523 -0.0488,-0.06508 -0.130148,-0.09761 -0.195231,-0.04881 l -1.561821,0.911073 z m -4.06727,2.180066 -1.561826,0.91107 c -0.06513,0.03257 -0.09761,0.130148 -0.04884,0.19523 0.04884,0.06513 0.130157,0.09761 0.195228,0.04884 l 1.561841,-0.911069 z m 0.536875,0.683307 -0.211498,-0.178964 -0.634489,0.748372 c -0.04884,0.06513 -0.04884,0.14643 0.01628,0.195229 0.06513,0.04884 0.146424,0.04884 0.195231,-0.01628 z m 4.750576,-2.814556 c -0.03257,-0.08139 -0.113882,-0.113883 -0.178948,-0.08139 l -0.911069,0.341659 0.09761,0.260297 0.91107,-0.341645 c 0.06513,-0.03257 0.09761,-0.113883 0.08136,-0.178964 z m 0.862269,0.829719 h -1.80587 v 0.292846 h 1.80587 c 0.08137,0 0.146414,-0.06513 0.146414,-0.14642 0,-0.08138 -0.06513,-0.146426 -0.146414,-0.146426 z m -6.426299,0.130148 h -1.805869 c -0.08135,0 -0.146417,0.06513 -0.146417,0.146431 0,0.08137 0.06513,0.146415 0.146417,0.146415 h 1.805869 z m -0.976136,1.122571 c 0.03257,0.08138 0.113882,0.113894 0.178949,0.08138 l 0.911071,-0.341645 -0.09762,-0.260313 -0.91107,0.341654 c -0.06513,0.03257 -0.09762,0.113886 -0.08137,0.178958 z m 6.458831,-0.211501 c 0.08136,0.01628 0.146418,-0.03257 0.162684,-0.11388 0.01628,-0.08135 -0.03257,-0.146416 -0.113883,-0.162682 L 18.22391,12.06996 18.17507,12.34654 Z m 0.504341,1.041234 -1.561839,-0.911071 -0.146415,0.244031 1.561827,0.911069 c 0.06513,0.03257 0.162697,0.01628 0.195229,-0.04884 0.03257,-0.06513 0.01628,-0.162698 -0.04885,-0.19523 z m -7.353631,-3.741897 1.561825,0.911074 0.146431,-0.244045 -1.561841,-0.911066 c -0.06513,-0.03253 -0.162683,-0.01626 -0.195232,0.04881 -0.04884,0.06508 -0.01628,0.146423 0.04884,0.195231 z m 0.471797,1.024956 c -0.08136,-0.01628 -0.146419,0.03257 -0.162686,0.113881 -0.01628,0.08136 0.03257,0.146415 0.113881,0.162693 l 0.959875,0.162686 0.04884,-0.276579 z m 4.962081,2.310213 -0.17896,0.211497 0.74837,0.634492 c 0.06513,0.04884 0.146432,0.04884 0.195231,-0.01628 0.04884,-0.06513 0.04884,-0.146423 -0.01628,-0.195231 z m -0.423007,0.422994 -0.24403,0.146415 0.91107,1.561841 c 0.03257,0.06513 0.130148,0.09762 0.19523,0.04884 0.06513,-0.03257 0.09763,-0.130149 0.04884,-0.195231 z M 14.628437,9.792289 14.872467,9.645866 13.961398,8.0677634 c -0.03257,-0.065082 -0.130148,-0.097614 -0.195228,-0.048803 -0.06513,0.032535 -0.09762,0.130153 -0.04884,0.1952298 z m -0.455538,0.406728 0.17896,-0.211505 -0.732106,-0.634489 c -0.06513,-0.04881 -0.146418,-0.04881 -0.195231,0.01627 -0.04884,0.06509 -0.04884,0.146423 0.01628,0.19523 z m 2.586787,3.628 -0.260305,0.09761 0.341655,0.911069 c 0.03257,0.0814 0.113882,0.113892 0.178964,0.0814 0.08133,-0.03257 0.113881,-0.113882 0.08133,-0.178963 z m -0.878535,1.968569 c 0,0.08136 0.06513,0.146414 0.14643,0.146414 0.08136,0 0.146415,-0.06513 0.146415,-0.146414 v -1.80587 h -0.292845 z m 0.14643,-8.2321643 c 0,-0.08135 -0.06513,-0.1464217 -0.14643,-0.1464217 -0.08135,0 -0.130149,0.065086 -0.130149,0.1464217 V 9.369291 h 0.292846 V 7.5634217 Z m -0.86227,1.9360223 0.260314,-0.09761 -0.325378,-0.9110687 c -0.03257,-0.081348 -0.113889,-0.1138836 -0.178964,-0.081348 -0.06512,0.032536 -0.113883,0.1138849 -0.08139,0.1789609 z" />
      </g>
      <path
         d="m 16.019449,6.9579481 -0.02871,0.029666 C 16,7 16,7 16,7 L 15.9938,7.00333 16,7 16.02012,7.019549 C 16.02012,7.019549 16,7 16.019453,6.957948 Z M 20.719,17.304813 c 0,0 0.0185,-0.01795 0,0 C 20.57552,17.443422 20.5,17.661297 20.5,17.875 V 19 c 0,1.65675 -1.34325,3 -3,3 H 16.75075 13.75 C 13.33581,22 13,22.335812 13,22.75 c 0,0.414187 0.33581,0.75 0.75,0.75 h 1.125 1.73803 0.13697 c 0.41419,0 0.75,0.335812 0.75,0.75 0,0.414187 -0.33581,0.75 -0.75,0.75 h -3 c -1.24256,0 -2.25,-1.007438 -2.25,-2.25 0,-1.242562 1.00744,-2.25 2.25,-2.25 h 1.125 0.75 1.875 c 0.82837,0 1.5,-0.671625 1.5,-1.5 v -1.125 c 0,-0.687 0.30759,-1.302234 0.79322,-1.714594 -0.0791,0.06703 -0.066,0.05358 0,0 C 21.14795,15.061281 22,13.379734 22,11.5 c 0,-3.3135 -2.6865,-6 -6,-6 -3.31364,0 -6,2.6865 -6,6 0,1.875984 0.856547,3.561234 2.206594,4.660406 0.06858,0.05583 0.07931,0.06703 0,0 C 12.69241,16.572766 13,17.188 13,17.875 V 18.25 C 13,18.664188 12.66419,19 12.25,19 11.835813,19 11.5,18.664188 11.5,18.25 v -0.375 c 0,-0.214453 -0.07467,-0.431484 -0.219,-0.570187 -0.01809,-0.01739 0,0 0,0 C 9.590922,15.929313 8.5,13.848156 8.5,11.5 8.5,7.357797 11.857984,4 16,4 c 4.14183,0 7.5,3.357797 7.5,7.5 0,2.348156 -1.09092,4.429313 -2.781,5.804813 z M 15.25,26.5 h 1.5 c 0.41419,0 0.75,0.335812 0.75,0.75 0,0.414187 -0.33581,0.75 -0.75,0.75 h -1.5 c -0.41419,0 -0.75,-0.335813 -0.75,-0.75 0,-0.414188 0.33581,-0.75 0.75,-0.75 z m 4.5,-3 c 0.41419,0 0.75,0.335812 0.75,0.75 C 20.5,24.664187 20.16419,25 19.75,25 19.33581,25 19,24.664187 19,24.25 19,23.835812 19.33581,23.5 19.75,23.5 Z"
         id="path4084"
         style="fill:#a7b4d0;fill-opacity:1;stroke-width:0.046875"
         sodipodi:nodetypes="ccccccscsssscsssccssssssccsssccsssccsssssscssscsssssssssssss" />
      <path
         d="m 20.5,19 c 0,1.65675 -1.34325,3 -3,3 H 16.75075 13.75 C 13.33581,22 13,22.335812 13,22.75 c 0,0.414187 0.33581,0.75 0.75,0.75 h 1.125 1.73803 0.13697 c 0.41419,0 0.75,0.335812 0.75,0.75 0,0.414187 -0.33581,0.75 -0.75,0.75 h -3 c -1.24256,0 -2.25,-1.007438 -2.25,-2.25 0,-1.242562 1.00744,-2.25 2.25,-2.25 h 1.125 0.75 1.875 c 0.82837,0 1.5,-0.671625 1.5,-1.5 -0.09355,-3.187634 1.5,-3.775534 1.5,0 z m -5.25,7.5 h 1.5 c 0.41419,0 0.75,0.335812 0.75,0.75 0,0.414187 -0.33581,0.75 -0.75,0.75 h -1.5 c -0.41419,0 -0.75,-0.335813 -0.75,-0.75 0,-0.414188 0.33581,-0.75 0.75,-0.75 z m 4.5,-3 c 0.41419,0 0.75,0.335812 0.75,0.75 C 20.5,24.664187 20.16419,25 19.75,25 19.33581,25 19,24.664187 19,24.25 19,23.835812 19.33581,23.5 19.75,23.5 Z"
         id="path4086"
         style="fill:#8792ab;fill-opacity:1;stroke-width:0.046875"
         sodipodi:nodetypes="ccsssccssssssccssccssssssssssss" />
    </g>
    <g
       id="g4130"
       style="display:inline;opacity:0.7;fill:#a1adc8;fill-opacity:1"
       transform="matrix(0.66727552,0,0,0.66727552,-21.676408,10.323592)"
       inkscape:label="22-22-redshift-status-off">
      <rect
         y="0"
         x="3.5527137e-15"
         height="32"
         width="32"
         id="rect4118"
         style="opacity:0.003;fill:#a1adc8;fill-opacity:1;stroke-width:1" />
      <path
         d="m 16.019449,6.9579481 -0.02871,0.029666 C 16,7 16,7 16,7 L 15.9938,7.00333 16,7 16.02012,7.019549 C 16.02012,7.019549 16,7 16.019453,6.957948 Z M 20.719,17.304813 c 0,0 0.0185,-0.01795 0,0 C 20.57552,17.443422 20.5,17.661297 20.5,17.875 V 19 c 0,1.65675 -1.34325,3 -3,3 H 16.75075 13.75 C 13.33581,22 13,22.335812 13,22.75 c 0,0.414187 0.33581,0.75 0.75,0.75 h 1.125 1.73803 0.13697 c 0.41419,0 0.75,0.335812 0.75,0.75 0,0.414187 -0.33581,0.75 -0.75,0.75 h -3 c -1.24256,0 -2.25,-1.007438 -2.25,-2.25 0,-1.242562 1.00744,-2.25 2.25,-2.25 h 1.125 0.75 1.875 c 0.82837,0 1.5,-0.671625 1.5,-1.5 v -1.125 c 0,-0.687 0.30759,-1.302234 0.79322,-1.714594 -0.0791,0.06703 -0.066,0.05358 0,0 C 21.14795,15.061281 22,13.379734 22,11.5 c 0,-3.3135 -2.6865,-6 -6,-6 -3.31364,0 -6,2.6865 -6,6 0,1.875984 0.856547,3.561234 2.206594,4.660406 0.06858,0.05583 0.07931,0.06703 0,0 C 12.69241,16.572766 13,17.188 13,17.875 V 18.25 C 13,18.664188 12.66419,19 12.25,19 11.835813,19 11.5,18.664188 11.5,18.25 v -0.375 c 0,-0.214453 -0.07467,-0.431484 -0.219,-0.570187 -0.01809,-0.01739 0,0 0,0 C 9.590922,15.929313 8.5,13.848156 8.5,11.5 8.5,7.357797 11.857984,4 16,4 c 4.14183,0 7.5,3.357797 7.5,7.5 0,2.348156 -1.09092,4.429313 -2.781,5.804813 z M 15.25,26.5 h 1.5 c 0.41419,0 0.75,0.335812 0.75,0.75 0,0.414187 -0.33581,0.75 -0.75,0.75 h -1.5 c -0.41419,0 -0.75,-0.335813 -0.75,-0.75 0,-0.414188 0.33581,-0.75 0.75,-0.75 z m 4.5,-3 c 0.41419,0 0.75,0.335812 0.75,0.75 C 20.5,24.664187 20.16419,25 19.75,25 19.33581,25 19,24.664187 19,24.25 19,23.835812 19.33581,23.5 19.75,23.5 Z"
         id="path4126"
         style="fill:#a7b4d0;fill-opacity:1;stroke-width:0.046875"
         sodipodi:nodetypes="ccccccscsssscsssccssssssccsssccsssccsssssscssscsssssssssssss" />
      <path
         d="m 20.5,19 c 0,1.65675 -1.34325,3 -3,3 H 16.75075 13.75 C 13.33581,22 13,22.335812 13,22.75 c 0,0.414187 0.33581,0.75 0.75,0.75 h 1.125 1.73803 0.13697 c 0.41419,0 0.75,0.335812 0.75,0.75 0,0.414187 -0.33581,0.75 -0.75,0.75 h -3 c -1.24256,0 -2.25,-1.007438 -2.25,-2.25 0,-1.242562 1.00744,-2.25 2.25,-2.25 h 1.125 0.75 1.875 c 0.82837,0 1.5,-0.671625 1.5,-1.5 -0.09355,-3.187634 1.5,-3.775534 1.5,0 z m -5.25,7.5 h 1.5 c 0.41419,0 0.75,0.335812 0.75,0.75 0,0.414187 -0.33581,0.75 -0.75,0.75 h -1.5 c -0.41419,0 -0.75,-0.335813 -0.75,-0.75 0,-0.414188 0.33581,-0.75 0.75,-0.75 z m 4.5,-3 c 0.41419,0 0.75,0.335812 0.75,0.75 C 20.5,24.664187 20.16419,25 19.75,25 19.33581,25 19,24.664187 19,24.25 19,23.835812 19.33581,23.5 19.75,23.5 Z"
         id="path4128"
         style="fill:#8792ab;fill-opacity:1;stroke-width:0.046875"
         sodipodi:nodetypes="ccsssccssssssccssccssssssssssss" />
    </g>
  </g>
</svg>
