<?xml version="1.0" encoding="UTF-8" standalone="no"?>
<svg
   xmlns:dc="http://purl.org/dc/elements/1.1/"
   xmlns:cc="http://creativecommons.org/ns#"
   xmlns:rdf="http://www.w3.org/1999/02/22-rdf-syntax-ns#"
   xmlns:svg="http://www.w3.org/2000/svg"
   xmlns="http://www.w3.org/2000/svg"
   xmlns:xlink="http://www.w3.org/1999/xlink"
   xmlns:sodipodi="http://sodipodi.sourceforge.net/DTD/sodipodi-0.dtd"
   xmlns:inkscape="http://www.inkscape.org/namespaces/inkscape"
   width="64"
   height="64"
   version="1.1"
   id="svg46"
   sodipodi:docname="start_htb.svg"
   inkscape:version="1.0.2 (e86c870879, 2021-01-15)">
  <metadata
     id="metadata50">
    <rdf:RDF>
      <cc:Work
         rdf:about="">
        <dc:format>image/svg+xml</dc:format>
        <dc:type
           rdf:resource="http://purl.org/dc/dcmitype/StillImage" />
        <dc:title></dc:title>
      </cc:Work>
    </rdf:RDF>
  </metadata>
  <sodipodi:namedview
     pagecolor="#ffffff"
     bordercolor="#666666"
     borderopacity="1"
     objecttolerance="10"
     gridtolerance="10"
     guidetolerance="10"
     inkscape:pageopacity="0"
     inkscape:pageshadow="2"
     inkscape:window-width="1920"
     inkscape:window-height="992"
     id="namedview48"
     showgrid="false"
     inkscape:zoom="11.453125"
     inkscape:cx="30.653934"
     inkscape:cy="32.230275"
     inkscape:window-x="0"
     inkscape:window-y="24"
     inkscape:window-maximized="1"
     inkscape:current-layer="svg46"
     inkscape:document-rotation="0" />
  <defs
     id="defs24">
    <linearGradient
       id="a">
      <stop
         offset="0"
         id="stop2" />
      <stop
         stop-opacity="0"
         offset="1"
         id="stop4" />
    </linearGradient>
    <linearGradient
       id="f"
       x1="86"
       x2="63"
       y1="19.458"
       y2="39"
       gradientTransform="matrix(1.146 0 0 1.146 -57.378 -5.1691)"
       gradientUnits="userSpaceOnUse">
      <stop
         stop-color="#007abb"
         offset="0"
         id="stop7" />
      <stop
         stop-color="#006caf"
         offset="1"
         id="stop9" />
    </linearGradient>
    <linearGradient
       id="e"
       x1="86"
       x2="83"
       y1="20"
       y2="20"
       gradientTransform="matrix(1.146 0 0 1.146 -57.378 -5.1691)"
       gradientUnits="userSpaceOnUse"
       xlink:href="#a" />
    <linearGradient
       id="d"
       x1="87"
       x2="63"
       y1="46"
       y2="24"
       gradientTransform="matrix(1.146 0 0 1.146 -57.378 -5.1691)"
       gradientUnits="userSpaceOnUse">
      <stop
         stop-color="#0080ce"
         offset="0"
         id="stop13" />
      <stop
         stop-color="#008fd5"
         offset="1"
         id="stop15" />
    </linearGradient>
    <linearGradient
       id="c"
       x1="86"
       x2="83"
       y1="44"
       y2="44"
       gradientTransform="matrix(1.146 0 0 1.146 -57.378 -5.1691)"
       gradientUnits="userSpaceOnUse"
       xlink:href="#a" />
    <linearGradient
       id="linearGradient862"
       x1="7.9373"
       x2="7.9373"
       y1="15.081"
       y2="1.852"
       gradientTransform="scale(3.7796)"
       gradientUnits="userSpaceOnUse">
      <stop
         stop-color="#2a2a2a"
         offset="0"
         id="stop19" />
      <stop
         stop-color="#565656"
         offset="1"
         id="stop21" />
    </linearGradient>
    <filter
       inkscape:collect="always"
       style="color-interpolation-filters:sRGB"
       id="filter930"
       x="-0.049100894"
       width="1.0982018"
       y="-0.046947389"
       height="1.0938948">
      <feGaussianBlur
         inkscape:collect="always"
         stdDeviation="5.3196726"
         id="feGaussianBlur932" />
    </filter>
  </defs>
  <g
     id="Layer_2"
     data-name="Layer 2"
     transform="matrix(0.17742978,0,0,0.17742978,8.9965592,7.8638895)"
     inkscape:label="htb">
    <path
       class="cls-1"
       d="M 256.65,45.92 252.27,44.27 131.78,0.3100003 a 5.28,5.28 0 0 0 -3.55,0 L 3.400005,45.9 A 5.19,5.19 0 0 0 4.9999999e-6,50.77 v 171 A 5.2,5.2 0 0 0 3.420005,226.64 l 124.819995,45 a 5.18,5.18 0 0 0 3.53,0 l 124.82,-45 a 5.19,5.19 0 0 0 3.43,-4.87 v -171 a 5.18,5.18 0 0 0 -3.37,-4.85 z m -136.71,59 V 248 L 19.590005,211.58 V 68.47 Z m 98.69,-49.69 -88.2,32.24 a 1.24,1.24 0 0 1 -0.85,0 L 41.380005,55.19 a 1.24,1.24 0 0 1 0,-2.33 L 129.58,20.62 a 1.24,1.24 0 0 1 0.85,0 l 88.2,32.24 a 1.24,1.24 0 0 1 0,2.33 z m 21.8,13.28 V 211.58 L 140.07,248 V 104.88 Z"
       id="path8-5"
       style="fill:#333333;fill-opacity:1;filter:url(#filter930)" />
    <path
       class="cls-1"
       d="M 256.65,45.92 252.27,44.27 131.78,0.31 a 5.28,5.28 0 0 0 -3.55,0 L 3.4,45.9 A 5.19,5.19 0 0 0 0,50.77 v 171 a 5.2,5.2 0 0 0 3.42,4.87 l 124.82,45 a 5.18,5.18 0 0 0 3.53,0 l 124.82,-45 a 5.19,5.19 0 0 0 3.43,-4.87 v -171 a 5.18,5.18 0 0 0 -3.37,-4.85 z m -136.71,59 V 248 L 19.59,211.58 V 68.47 Z m 98.69,-49.69 -88.2,32.24 a 1.24,1.24 0 0 1 -0.85,0 L 41.38,55.19 a 1.24,1.24 0 0 1 0,-2.33 l 88.2,-32.24 a 1.24,1.24 0 0 1 0.85,0 l 88.2,32.24 a 1.24,1.24 0 0 1 0,2.33 z m 21.8,13.28 V 211.58 L 140.07,248 V 104.88 Z"
       id="path8"
       style="fill:#9fef00;fill-opacity:1" />
  </g>
</svg>
