<?xml version="1.0" encoding="UTF-8" standalone="no"?>
<svg
   xmlns:dc="http://purl.org/dc/elements/1.1/"
   xmlns:cc="http://creativecommons.org/ns#"
   xmlns:rdf="http://www.w3.org/1999/02/22-rdf-syntax-ns#"
   xmlns:svg="http://www.w3.org/2000/svg"
   xmlns="http://www.w3.org/2000/svg"
   xmlns:sodipodi="http://sodipodi.sourceforge.net/DTD/sodipodi-0.dtd"
   xmlns:inkscape="http://www.inkscape.org/namespaces/inkscape"
   width="16"
   height="16"
   version="1.1"
   id="svg6"
   sodipodi:docname="start.svg"
   inkscape:version="1.0.2 (e86c870879, 2021-01-15)">
  <metadata
     id="metadata12">
    <rdf:RDF>
      <cc:Work
         rdf:about="">
        <dc:format>image/svg+xml</dc:format>
        <dc:type
           rdf:resource="http://purl.org/dc/dcmitype/StillImage" />
      </cc:Work>
    </rdf:RDF>
  </metadata>
  <defs
     id="defs10" />
  <sodipodi:namedview
     pagecolor="#ffffff"
     bordercolor="#666666"
     borderopacity="1"
     objecttolerance="10"
     gridtolerance="10"
     guidetolerance="10"
     inkscape:pageopacity="0"
     inkscape:pageshadow="2"
     inkscape:window-width="1846"
     inkscape:window-height="1056"
     id="namedview8"
     showgrid="false"
     inkscape:zoom="45.8125"
     inkscape:cx="8"
     inkscape:cy="8"
     inkscape:window-x="74"
     inkscape:window-y="24"
     inkscape:window-maximized="1"
     inkscape:current-layer="svg6" />
  <g
     fill="#4c5263"
     id="g4">
    <path
       d="M507.25-55h3.49999c.1385 0 .25.1115.25.25v3.5c0 .1385-.1115.25-.25.25H507.25c-.1385 0-.25-.1115-.25-.25v-3.5c0-.1385.1115-.25.25-.25zM513.25-55h3.49999c.1385 0 .25.1115.25.25v3.5c0 .1385-.1115.25-.25.25H513.25c-.1385 0-.25-.1115-.25-.25v-3.5c0-.1385.1115-.25.25-.25zM507.25-49h3.50001c.1385 0 .25.1115.25.25v3.5c0 .1385-.1115.25-.25.25H507.25c-.1385 0-.25-.1115-.25-.25v-3.5c0-.1385.1115-.25.25-.25zM513.25-49h3.50001c.1385 0 .25.1115.25.25v3.5c0 .1385-.1115.25-.25.25H513.25c-.1385 0-.25-.1115-.25-.25v-3.5c0-.1385.1115-.25.25-.25z"
       transform="translate(-504 58.003)"
       id="path2"
       style="fill:#61697f;fill-opacity:1" />
  </g>
</svg>
