<?xml version="1.0" encoding="UTF-8" standalone="no"?>
<svg
   version="1.1"
   viewBox="21 0 54 32"
   id="svg15"
   sodipodi:docname="system-search.svgz.svg"
   inkscape:version="1.2.2 (b0a8486541, 2022-12-01)"
   inkscape:export-filename="system-search.svgz.svg"
   inkscape:export-xdpi="96"
   inkscape:export-ydpi="96"
   width="54"
   height="32"
   xmlns:inkscape="http://www.inkscape.org/namespaces/inkscape"
   xmlns:sodipodi="http://sodipodi.sourceforge.net/DTD/sodipodi-0.dtd"
   xmlns="http://www.w3.org/2000/svg"
   xmlns:svg="http://www.w3.org/2000/svg">
  <sodipodi:namedview
     id="namedview17"
     pagecolor="#ffffff"
     bordercolor="#666666"
     borderopacity="1.0"
     inkscape:pageshadow="2"
     inkscape:pageopacity="0.0"
     inkscape:pagecheckerboard="0"
     showgrid="true"
     inkscape:zoom="10.715356"
     inkscape:cx="20.904579"
     inkscape:cy="15.58511"
     inkscape:window-width="1920"
     inkscape:window-height="1026"
     inkscape:window-x="0"
     inkscape:window-y="24"
     inkscape:window-maximized="1"
     inkscape:current-layer="svg15"
     inkscape:snap-bbox="true"
     inkscape:bbox-nodes="true"
     inkscape:snap-nodes="false"
     inkscape:showpageshadow="2"
     inkscape:deskcolor="#d1d1d1">
    <inkscape:grid
       type="xygrid"
       id="grid824"
       originx="-1113"
       originy="0" />
  </sodipodi:namedview>
  <defs
     id="defs3">
    <style
       id="current-color-scheme"
       type="text/css">.ColorScheme-Text { color:#a1adc8; }</style>
  </defs>
  <g
     id="system-search"
     transform="translate(21)">
    <path
       id="path826-3"
       d="M 22,0 V 32.000001 H 54.000001 V 0 Z"
       style="fill:none;stroke-width:1.45455" />
    <g
       id="g5102"
       class="ColorScheme-Text"
       fill="currentColor"
       transform="translate(-32.096193,7.9038061)">
      <path
         id="path5041"
         d="m 67.990724,-1.8823217 a 8.5,8.5 0 0 0 -5.404297,2.46874998 8.5,8.5 0 0 0 0,12.01953172 8.5,8.5 0 0 0 12.019532,0 8.5,8.5 0 0 0 0,-12.01953172 8.5,8.5 0 0 0 -6.615235,-2.46874998 z m 0.605469,0.9785156 a 7.5,7.5 0 0 1 7.5,7.5 7.5,7.5 0 0 1 -7.5,7.5000001 7.5,7.5 0 0 1 -7.5,-7.5000001 7.5,7.5 0 0 1 7.5,-7.5 z" />
      <rect
         id="rect5098"
         width="1"
         height="13"
         x="43.340618"
         y="60.94722"
         rx="0"
         ry="0"
         transform="rotate(-45)"
         style="stroke-width:0.707107" />
    </g>
  </g>
  <g
     id="22-22-system-search"
     transform="translate(21)">
    <path
       id="path9"
       d="M 0,10 V 32 H 22 V 10 Z"
       style="fill:none" />
    <g
       id="g5121"
       transform="rotate(-45,11,23)"
       class="ColorScheme-Text"
       fill="currentColor">
      <rect
         id="rect5112"
         width="1"
         height="9"
         x="11.914213"
         y="25.171572"
         rx="0.5"
         ry="0.5" />
      <path
         id="path5114"
         d="m 12.414214,14.171573 a 6,6 0 0 0 -6.0000007,6 6,6 0 0 0 6.0000007,6 6,6 0 0 0 6,-6 6,6 0 0 0 -6,-6 z m 0,1 a 5,5 0 0 1 5,5 5,5 0 0 1 -5,5 5,5 0 0 1 -5.0000007,-5 5,5 0 0 1 5.0000007,-5 z" />
    </g>
  </g>
  <g
     id="16-16-system-search"
     transform="translate(21)">
    <path
       id="path298"
       d="M -21,13 V 29 H -5 V 13 Z"
       style="fill:none;stroke-width:0.727273" />
    <g
       id="g304"
       transform="rotate(-45,-2.7071065,52.67767)"
       class="ColorScheme-Text"
       fill="currentColor">
      <path
         id="rect300"
         d="m 12.914161,26.148835 c -0.166269,0.01432 -0.333063,0.02169 -0.499947,0.0221 -0.167076,-0.005 -0.333871,-0.01698 -0.499947,-0.03591 v 7.471578 c 0,0.276999 0.222947,0.499946 0.499947,0.499946 0.277,0 0.499947,-0.222947 0.499947,-0.499946 z" />
      <path
         id="path302"
         d="m 12.414214,14.171573 a 6,6 0 0 0 -6.0000007,6 6,6 0 0 0 6.0000007,6 6,6 0 0 0 6,-6 6,6 0 0 0 -6,-6 z m 0,1 a 5,5 0 0 1 5,5 5,5 0 0 1 -5,5 5,5 0 0 1 -5.0000007,-5 5,5 0 0 1 5.0000007,-5 z" />
    </g>
  </g>
</svg>
