<?xml version="1.0" encoding="UTF-8" standalone="no"?>
<svg
   width="32"
   height="32"
   version="1.1"
   viewBox="0 0 32 32"
   id="svg207"
   sodipodi:docname="system.svg"
   inkscape:version="1.1.2 (0a00cf5339, 2022-02-04)"
   xmlns:inkscape="http://www.inkscape.org/namespaces/inkscape"
   xmlns:sodipodi="http://sodipodi.sourceforge.net/DTD/sodipodi-0.dtd"
   xmlns:xlink="http://www.w3.org/1999/xlink"
   xmlns="http://www.w3.org/2000/svg"
   xmlns:svg="http://www.w3.org/2000/svg"
   xmlns:rdf="http://www.w3.org/1999/02/22-rdf-syntax-ns#"
   xmlns:cc="http://creativecommons.org/ns#"
   xmlns:dc="http://purl.org/dc/elements/1.1/">
  <metadata
     id="metadata211">
    <rdf:RDF>
      <cc:Work
         rdf:about="">
        <dc:format>image/svg+xml</dc:format>
        <dc:type
           rdf:resource="http://purl.org/dc/dcmitype/StillImage" />
      </cc:Work>
    </rdf:RDF>
  </metadata>
  <sodipodi:namedview
     pagecolor="#ffffff"
     bordercolor="#666666"
     borderopacity="1"
     objecttolerance="10"
     gridtolerance="10"
     guidetolerance="10"
     inkscape:pageopacity="0"
     inkscape:pageshadow="2"
     inkscape:window-width="1850"
     inkscape:window-height="1056"
     id="namedview209"
     showgrid="false"
     inkscape:zoom="5.1020334"
     inkscape:cx="-0.88200128"
     inkscape:cy="53.802078"
     inkscape:window-x="70"
     inkscape:window-y="24"
     inkscape:window-maximized="1"
     inkscape:current-layer="svg207"
     inkscape:document-rotation="0"
     inkscape:pagecheckerboard="0" />
  <defs
     id="defs58">
    <linearGradient
       id="linearGradient1293"
       x1="-39"
       x2="-9"
       y1="16"
       y2="16"
       gradientUnits="userSpaceOnUse">
      <stop
         stop-color="#85c5ff"
         offset="0"
         id="stop2" />
      <stop
         stop-color="#ec5cff"
         offset="1"
         id="stop4" />
    </linearGradient>
    <style
       id="current-color-scheme"
       type="text/css">.ColorScheme-Text { color:#363636; } .ColorScheme-Highlight { color:#5294e2; } .ColorScheme-ButtonBackground { color:#363636; }</style>
    <style
       type="text/css"
       id="style8" />
    <linearGradient
       id="c"
       x1="78"
       x2="112.64"
       y2="24.821"
       gradientUnits="userSpaceOnUse">
      <stop
         stop-color="#ff047b"
         offset="0"
         id="stop10" />
      <stop
         stop-color="#fcc01d"
         offset="1"
         id="stop12" />
    </linearGradient>
    <linearGradient
       id="a"
       x1="-39"
       x2="-9"
       y1="16"
       y2="16"
       gradientUnits="userSpaceOnUse">
      <stop
         stop-color="#188cfb"
         offset="0"
         id="stop15" />
      <stop
         stop-color="#544df3"
         offset="1"
         id="stop17" />
    </linearGradient>
    <linearGradient
       id="g"
       x1="1"
       x2="31"
       y1="16"
       y2="16"
       gradientUnits="userSpaceOnUse">
      <stop
         stop-color="#ee373a"
         offset="0"
         id="stop20" />
      <stop
         stop-color="#f38422"
         offset="1"
         id="stop22" />
    </linearGradient>
    <linearGradient
       id="f"
       x1="41"
       x2="71"
       y1="16"
       y2="16"
       gradientUnits="userSpaceOnUse">
      <stop
         stop-color="#864bed"
         offset="0"
         id="stop25" />
      <stop
         stop-color="#f64cc4"
         offset="1"
         id="stop27" />
    </linearGradient>
    <linearGradient
       id="e"
       x1="121"
       x2="151"
       y1="16"
       y2="16"
       gradientUnits="userSpaceOnUse">
      <stop
         stop-color="#57df53"
         offset="0"
         id="stop30" />
      <stop
         stop-color="#47dbd3"
         offset="1"
         id="stop32" />
    </linearGradient>
    <linearGradient
       id="d"
       x1="164"
       x2="194"
       y1="16"
       y2="16"
       gradientUnits="userSpaceOnUse">
      <stop
         stop-color="#3ad941"
         offset="0"
         id="stop35" />
      <stop
         stop-color="#cede58"
         offset="1"
         id="stop37" />
    </linearGradient>
    <linearGradient
       id="linearGradient975"
       x1="3.9997"
       x2="18"
       y1="53.04"
       y2="53.04"
       gradientTransform="matrix(1.3377 0 0 1.3377 45.285 -17.924)"
       gradientUnits="userSpaceOnUse"
       xlink:href="#d" />
    <linearGradient
       id="linearGradient983"
       x1="27"
       x2="39"
       y1="53.04"
       y2="53.04"
       gradientTransform="translate(49 -1)"
       gradientUnits="userSpaceOnUse"
       xlink:href="#e" />
    <linearGradient
       id="linearGradient991"
       x1="-61.041"
       x2="-49.04"
       y1="53.018"
       y2="53.018"
       gradientTransform="matrix(1.4997 0 0 1.4997 76.544 -26.511)"
       gradientUnits="userSpaceOnUse"
       xlink:href="#c" />
    <linearGradient
       id="linearGradient1038"
       x1="27"
       x2="39"
       y1="53.04"
       y2="53.04"
       gradientTransform="translate(0,32)"
       gradientUnits="userSpaceOnUse"
       xlink:href="#e" />
    <linearGradient
       id="linearGradient1040"
       x1="-105.02"
       x2="-93.016"
       y1="53"
       y2="53"
       gradientTransform="translate(0,32)"
       gradientUnits="userSpaceOnUse"
       xlink:href="#f" />
    <linearGradient
       id="linearGradient1042"
       x1="-82.999"
       x2="-71"
       y1="53.04"
       y2="53.04"
       gradientTransform="translate(0,32)"
       gradientUnits="userSpaceOnUse"
       xlink:href="#a" />
    <linearGradient
       id="linearGradient1044"
       x1="-61.041"
       x2="-49.04"
       y1="53.018"
       y2="53.018"
       gradientTransform="translate(0,32)"
       gradientUnits="userSpaceOnUse"
       xlink:href="#c" />
    <linearGradient
       id="linearGradient1046"
       x1="-39"
       x2="-27"
       y1="52.54"
       y2="52.54"
       gradientTransform="translate(0,32)"
       gradientUnits="userSpaceOnUse"
       xlink:href="#g" />
    <linearGradient
       id="linearGradient1048"
       x1="3.9997"
       x2="18"
       y1="53.04"
       y2="53.04"
       gradientTransform="translate(0,32)"
       gradientUnits="userSpaceOnUse"
       xlink:href="#d" />
    <linearGradient
       id="linearGradient1050"
       x1="-17.018"
       x2="-5.0181"
       y1="53"
       y2="53"
       gradientTransform="translate(0,32)"
       gradientUnits="userSpaceOnUse"
       xlink:href="#linearGradient1293" />
    <linearGradient
       id="linearGradient1287"
       x1="-79"
       x2="-49"
       y1="16"
       y2="16"
       gradientUnits="userSpaceOnUse"
       xlink:href="#linearGradient1293" />
    <linearGradient
       id="linearGradient1593"
       x1="-58"
       x2="-42"
       y1="53"
       y2="53"
       gradientUnits="userSpaceOnUse"
       xlink:href="#f" />
    <linearGradient
       id="linearGradient1603"
       x1="-52"
       x2="-48"
       y1="53"
       y2="53"
       gradientUnits="userSpaceOnUse"
       xlink:href="#f" />
    <linearGradient
       id="linearGradient1619"
       x1="-35"
       x2="-21"
       y1="53"
       y2="53"
       gradientUnits="userSpaceOnUse"
       xlink:href="#a" />
    <linearGradient
       id="linearGradient1659"
       x1="-58"
       x2="-42"
       y1="53"
       y2="53"
       gradientTransform="translate(44)"
       gradientUnits="userSpaceOnUse"
       xlink:href="#c" />
    <linearGradient
       id="linearGradient1666"
       x1="-58"
       x2="-42"
       y1="53"
       y2="53"
       gradientTransform="translate(66)"
       gradientUnits="userSpaceOnUse"
       xlink:href="#g" />
    <linearGradient
       id="linearGradient1687"
       x1="-58"
       x2="-42"
       y1="53"
       y2="53"
       gradientTransform="translate(88)"
       gradientUnits="userSpaceOnUse"
       xlink:href="#linearGradient1293" />
    <linearGradient
       id="linearGradient1697"
       x1="34"
       x2="42"
       y1="53"
       y2="53"
       gradientUnits="userSpaceOnUse"
       xlink:href="#linearGradient1293" />
    <linearGradient
       inkscape:collect="always"
       xlink:href="#g"
       id="linearGradient1065"
       gradientUnits="userSpaceOnUse"
       gradientTransform="translate(8.72e-4,6.69e-4)"
       x1="1"
       y1="16"
       x2="31"
       y2="16" />
    <linearGradient
       inkscape:collect="always"
       xlink:href="#g"
       id="linearGradient1158"
       x1="14.431255"
       y1="11.513171"
       x2="44.169292"
       y2="11.513171"
       gradientUnits="userSpaceOnUse"
       gradientTransform="matrix(0.85080066,0,0,0.85080066,-8.8621364,5.5295153)" />
    <linearGradient
       inkscape:collect="always"
       xlink:href="#linearGradient1293"
       id="linearGradient1345"
       gradientUnits="userSpaceOnUse"
       gradientTransform="translate(80.000484,-5.85e-4)"
       x1="-79"
       y1="16"
       x2="-49"
       y2="16" />
    <linearGradient
       inkscape:collect="always"
       xlink:href="#linearGradient1293"
       id="linearGradient1316"
       x1="-78.888351"
       y1="16.062223"
       x2="-49.062714"
       y2="16.000002"
       gradientUnits="userSpaceOnUse"
       gradientTransform="matrix(0.8581839,0,0,0.8581839,70.923769,2.2690569)" />
  </defs>
  <g
     id="22-22-system-switch-user"
     transform="translate(0,2)">
    <circle
       cx="60"
       cy="53"
       r="11"
       fill="#83db4c"
       opacity="0.25"
       stroke-linecap="round"
       stroke-linejoin="round"
       stroke-miterlimit="2"
       stroke-width="2.7521"
       id="circle60" />
    <path
       d="m 59.992,45 c -2.5015,0 -4.54,2.0526 -4.614,4.6166 -0.0614,0.01606 -0.12241,0.04633 -0.18028,0.07576 -0.57527,0.30366 -0.7228,1.2497 -0.3292,2.1267 0.31666,0.7055 0.87952,1.1422 1.3899,1.1287 0.38422,2.3447 1.9135,4.0941 3.7335,4.0941 h 0.01567 c 1.8201,0 3.3493,-1.7494 3.7335,-4.0941 0.51038,0.01338 1.0732,-0.42318 1.3899,-1.1287 0.3936,-0.87699 0.24605,-1.8231 -0.3292,-2.1267 C 64.74387,49.66159 64.683,49.63131 64.62152,49.6166 64.547544,47.0527 62.50902,45 60.00752,45 Z m 3.211,10.704 c -0.38753,0.93601 -1.7055,1.6355 -3.2763,1.6355 -1.565,0 -2.8702,-0.69197 -3.2632,-1.6225 -1.5295,0.15988 -2.8534,0.43348 -3.8772,0.77335 a 8.0261,8.0261 0 0 0 7.2136,4.5095 8.0261,8.0261 0 0 0 7.2136,-4.5069 C 66.1619,56.14111 64.7892,55.86293 63.203,55.70392 Z"
       fill="url(#linearGradient975)"
       stroke-width="1.3377"
       id="path62" />
  </g>
  <g
     id="22-22-system-lock-screen"
     transform="translate(0,2)">
    <circle
       cx="82"
       cy="53"
       r="11"
       fill="#4edd99"
       opacity="0.25"
       stroke-linecap="round"
       stroke-linejoin="round"
       stroke-miterlimit="2"
       stroke-width="2.7521"
       id="circle65"
       style="display:none" />
    <path
       class="ColorScheme-Text"
       d="m 82,45 c -2.216,0 -4,1.8216 -4,4.0625 V 50 h -1.9971 c -0.554,0 -1,0.446 -1,1 v 7 c 0,0.554 0.446,1 1,1 h 11.997 c 0.554,0 1,-0.446 1,-1 v -7 c 0,-0.554 -0.446,-1 -1,-1 h -2 v -0.9375 c 0,-2.24 -1.784,-4.0625 -4,-4.0625 z m 0,2 c 1.108,0 2,0.892 2,2 v 1 h -4 v -1 c 0,-1.108 0.892,-2 2,-2 z"
       fill="url(#linearGradient983)"
       id="path67" />
  </g>
  <g
     id="system-suspend"
     transform="translate(-20,98)">
    <rect
       x="-60"
       y="-98"
       width="32"
       height="32"
       rx="0"
       ry="0"
       opacity="0"
       stroke-width="2"
       style="paint-order:fill markers stroke"
       id="rect70" />
    <g
       transform="translate(-60,-98)"
       id="g78">
      <path
         id="path74-8-3-2"
         style="fill:url(#linearGradient1345)"
         d="M 16,1 C 7.7241002,1 1.0000002,7.7241001 1.0000002,16 c 0,8.275901 6.7241,15 14.9999998,15 8.2759,0 15,-6.724099 15,-15 C 31,7.7241001 24.2759,1 16,1 Z m 0,2 C 23.1724,3 29,8.8276011 29,16 29,23.1724 23.1724,29 16,29 8.8276002,29 3.0000002,23.1724 3.0000002,16 3.0000002,8.8276011 8.8276002,3 16,3 Z m 0.646484,3.5214851 a 9.5,9.5 0 0 1 0.169922,0.01367 9.5,9.5 0 0 0 -0.169922,-0.01367 z m 0.736328,0.08008 a 9.5,9.5 0 0 1 0.955079,0.191406 9.5,9.5 0 0 0 -0.955079,-0.191406 z m -2.929687,0.02539 a 9.5,9.5 0 0 0 -0.761719,0.158203 9.5,9.5 0 0 1 0.761719,-0.158203 z m -1.011719,0.224609 A 9.5,9.5 0 0 0 10.398438,23.669923 9.5,9.5 0 0 1 13.441406,6.8515641 Z M 10.398438,23.669923 a 9.5,9.5 0 0 0 2.02539,1.13086 9.5,9.5 0 0 1 -2.02539,-1.13086 z M 19.091797,7.0175801 a 9.5,9.5 0 0 1 0.478515,0.179687 9.5,9.5 0 0 0 -0.478515,-0.179687 z m 0.716797,0.279297 A 9.5,9.5 0 0 1 22.935547,22.488283 9.5,9.5 0 0 0 19.808594,7.2968771 Z m 2.947265,15.3789059 a 9.5,9.5 0 0 1 -3.701171,2.318359 9.5,9.5 0 0 0 3.701171,-2.318359 z m -10.324218,2.126953 a 9.5,9.5 0 0 0 0.476562,0.179687 9.5,9.5 0 0 1 -0.476562,-0.179687 z m 6.376953,0.271484 a 9.5,9.5 0 0 1 -0.751953,0.199219 9.5,9.5 0 0 0 0.751953,-0.199219 z m -5.396485,0.06445 a 9.5,9.5 0 0 0 0.746094,0.179688 9.5,9.5 0 0 1 -0.746094,-0.179688 z m 4.390625,0.1875 a 9.5,9.5 0 0 1 -0.767578,0.117188 9.5,9.5 0 0 0 0.767578,-0.117188 z m -3.289062,0.05469 a 9.5,9.5 0 0 0 0.164062,0.02539 9.5,9.5 0 0 1 -0.164062,-0.02539 z"
         inkscape:label="path74-1" />
      <path
         id="path1206-2-2"
         style="opacity:0.9;fill:url(#linearGradient1316);fill-opacity:1;stroke-width:0.858184"
         d="M 16,7.8472543 A 8.1527474,8.1527474 0 0 0 16,24.152748 8.1527474,8.1527474 0 0 0 16,7.8472543 Z m 0,1.7163682 a 6.4363796,6.4363796 0 0 1 6.382743,5.5781935 H 9.6172568 A 6.4363796,6.4363796 0 0 1 16,9.5636225 Z M 9.6172568,16.858184 H 22.382743 A 6.4363796,6.4363796 0 0 1 16,22.43638 6.4363796,6.4363796 0 0 1 9.6172568,16.858184 Z"
         inkscape:label="path74-2" />
      <path
         d="M 16,1.5 C 8,1.5 1.5,8 1.5,16 1.5,24 8,30.5 16,30.5 24,30.5 30.5,24 30.5,16 30.5,8 24,1.5 16,1.5 Z"
         color="#000000"
         fill="none"
         opacity="0.5"
         overflow="visible"
         solid-color="#000000"
         style="isolation:auto;mix-blend-mode:normal"
         id="path76" />
    </g>
  </g>
  <g
     id="system-reboot"
     transform="translate(-20,98)">
    <rect
       x="-20"
       y="-98"
       width="32"
       height="32"
       rx="0"
       ry="0"
       opacity="0"
       stroke-width="2"
       style="paint-order:fill markers stroke"
       id="rect81" />
    <g
       transform="translate(-20.002,-97.998)"
       id="g89">
      <path
         transform="translate(40.002,-0.002)"
         d="m -24,1 c -8.2768,0 -15,6.7232 -15,15 0,8.2768 6.7232,15 15,15 8.2758,0 15,-6.7232 15,-15 C -9,7.7242 -15.7232,1 -24,1 Z m 0,2 c 7.1732,0 13,5.8277 13,13 0,7.1732 -5.8277,13 -13,13 -7.1732,0 -13,-5.8268 -13,-13 0,-7.1732 5.8268,-13 13,-13 z m -0.002,3.502 v 2.4297 a 7.286,7.286 0 1 0 7.2852,7.2852 h -2.4277 a 4.857,4.857 0 1 1 -4.8574,-4.8574 v 2.4277 l 6.0703,-3.6426 -6.0703,-3.6426 z"
         color="#000000"
         fill="url(#a)"
         id="path85" />
      <path
         d="m 16.002,1.498 c -8,0 -14.5,6.5 -14.5,14.5 0,8 6.5,14.5 14.5,14.5 8,0 14.5,-6.5 14.5,-14.5 0,-8 -6.5,-14.5 -14.5,-14.5 z"
         color="#000000"
         fill="none"
         opacity="0.5"
         overflow="visible"
         solid-color="#000000"
         style="isolation:auto;mix-blend-mode:normal"
         id="path87" />
    </g>
  </g>
  <g
     id="system-shutdown"
     transform="translate(-20,98)">
    <rect
       x="20"
       y="-98"
       width="32"
       height="32"
       rx="0"
       ry="0"
       opacity="0"
       stroke-width="2"
       style="paint-order:fill markers stroke"
       id="rect92" />
    <g
       transform="translate(20,-98)"
       id="g100">
      <path
         id="path96-7-2"
         style="fill:url(#linearGradient1065)"
         d="M 16,1 C 7.723199,1 1,7.7232 1,16 1,24.2768 7.723199,31 16,31 24.276799,31 31,24.2768 31,16 31,7.7232 24.276799,1 16,1 Z m 0,2 C 23.173199,3 29,8.8268 29,16 29,23.1732 23.173199,29 16,29 8.826799,29 2.999999,23.1732 2.999999,16 2.999999,8.8268 8.826799,3 16,3 Z m 0.138672,2.63086 a 1.29,1.29 0 0 1 0.240235,0.04883 1.29,1.29 0 0 0 -0.240235,-0.04883 z m -0.447265,0.0293 a 1.29,1.29 0 0 0 -0.06836,0.01953 1.29,1.29 0 0 1 0.06836,-0.01953 z m 1.201171,0.31836 A 1.29,1.29 0 0 1 17.021485,6.119145 1.29,1.29 0 0 0 16.892578,5.97852 Z m 0.13086,0.142578 a 1.29,1.29 0 0 1 0.269531,0.796875 v 7.761719 a 1.29,1.29 0 0 1 -0.353515,0.892578 1.29,1.29 0 0 0 0.355468,-0.892578 V 6.917973 A 1.29,1.29 0 0 0 17.023438,6.121094 Z m -2.253906,0.392578 a 1.29,1.29 0 0 0 -0.04102,0.169922 1.29,1.29 0 0 1 0.04102,-0.169922 z m -1.949219,2.654297 c 0.241118,0.241808 0.388672,0.57519 0.388672,0.943359 0,0.314265 -0.124077,0.61002 -0.314453,0.841797 0.190874,-0.231943 0.316406,-0.527042 0.316406,-0.841797 0,-0.3685 -0.149129,-0.701509 -0.390625,-0.943359 z m -1.455078,3.009766 a 6.32,6.32 0 0 0 -1.593751,2.703125 c -0.008,0.028 -0.03106,0.05203 -0.03906,0.08203 -0.133995,0.494 -0.203125,0.999156 -0.203125,1.535156 0,1.72302 0.727127,3.280155 1.898438,4.40625 -1.1707,-1.126025 -1.896485,-2.68375 -1.896485,-4.40625 0,-0.536 0.06913,-1.041156 0.203125,-1.535156 0.008,-0.03 0.03106,-0.05403 0.03906,-0.08203 a 6.32,6.32 0 0 1 1.593751,-2.703125 6.32,6.32 0 0 0 -0.002,0 z m 5.505859,3.460937 a 1.29,1.29 0 0 1 -0.148437,0.117188 1.29,1.29 0 0 0 0.148437,-0.117188 z m -1.08789,0.316406 a 1.29,1.29 0 0 0 0.189453,0.01758 1.29,1.29 0 0 1 -0.189453,-0.01758 z m 6.554687,1.800782 c -0.08624,0.405755 -0.213171,0.795356 -0.376953,1.167968 0.163693,-0.372614 0.290767,-0.762212 0.376953,-1.167968 z m -0.376953,1.167968 c -0.245676,0.558919 -0.573049,1.076034 -0.96875,1.53711 0.395525,-0.461079 0.723208,-0.978189 0.96875,-1.53711 z"
         inkscape:label="path96-1" />
      <path
         id="path977-5-7"
         style="opacity:0.9;fill:url(#linearGradient1158);fill-opacity:1;stroke-width:0.80313"
         d="m 15.998341,7.0703392 a 1.0975329,1.0975329 0 0 0 -1.100058,1.1017205 v 6.6036743 a 1.0975329,1.0975329 0 0 0 1.100058,1.100059 1.0975329,1.0975329 0 0 0 1.101721,-1.100059 V 8.1720597 A 1.0975329,1.0975329 0 0 0 15.998341,7.0703392 Z m -3.50789,2.6820156 c -0.172935,4.339e-4 -0.334368,0.068378 -0.480237,0.1379231 l -0.343976,0.2077141 c -1.6879894,1.113698 -2.8780729,2.833354 -3.2337076,4.8489 0,0.0017 -0.033232,-0.0025 -0.033232,0 -0.00936,0.05531 0.00851,0.115004 0,0.171157 -0.051049,0.340321 -0.1030271,0.677989 -0.1030271,1.033591 0,4.10256 3.4488797,7.427887 7.7037337,7.427887 4.254855,0 7.703735,-3.325327 7.703735,-7.427887 0,-0.315647 -0.02815,-0.625084 -0.06813,-0.930564 -0.01276,-0.09444 -0.05197,-0.180596 -0.06813,-0.274184 -0.355635,-2.015546 -1.545719,-3.735202 -3.233709,-4.8489 L 19.989796,9.8902779 c -0.146338,-0.068914 -0.308336,-0.1379231 -0.4819,-0.1379231 -0.626189,0 -1.134954,0.5096102 -1.134954,1.1366172 0,0.356486 0.18921,0.684774 0.447003,0.892343 0.08168,0.06636 0.178003,0.13113 0.275845,0.172819 a 5.3770603,5.3770603 0 0 1 2.20178,2.992758 c 0.0059,0.02297 0.02728,0.04516 0.03323,0.06813 0.114859,0.421147 0.172819,0.850894 0.172819,1.307774 0,2.931008 -2.466219,5.297564 -5.505279,5.297564 -3.03906,0 -5.503617,-2.366556 -5.503617,-5.297564 0,-0.456029 0.05881,-0.885817 0.172819,-1.306112 0.0068,-0.02553 0.02643,-0.04596 0.03323,-0.06979 a 5.3770603,5.3770603 0 0 1 2.201778,-2.992757 c 0.09784,-0.04254 0.19417,-0.105645 0.275846,-0.171157 0.257793,-0.208446 0.447003,-0.537504 0.447003,-0.894005 0,-0.626478 -0.507859,-1.1357048 -1.133293,-1.1366177 z"
         inkscape:label="path96-2" />
      <path
         d="M 16,1.5 C 8,1.5 1.5,8 1.5,16 1.5,24 8,30.5 16,30.5 24,30.5 30.5,24 30.5,16 30.5,8 24,1.5 16,1.5 Z"
         color="#000000"
         fill="none"
         opacity="0.5"
         overflow="visible"
         id="path98" />
    </g>
  </g>
  <g
     id="system-suspend-hibernate"
     transform="translate(-20,98)">
    <rect
       x="60"
       y="-98"
       width="32"
       height="32"
       rx="0"
       ry="0"
       opacity="0"
       stroke-width="2"
       style="paint-order:fill markers stroke"
       id="rect103" />
    <g
       transform="translate(60,-1188.5)"
       id="g109">
      <path
         transform="translate(-40,1090.5)"
         d="M 56,1 A 15,15 0 0 0 41,16 15,15 0 0 0 56,31 15,15 0 0 0 71,16 15,15 0 0 0 56,1 Z m 0,2 A 13,13 0 0 1 69,16 13,13 0 0 1 56,29 13,13 0 0 1 43,16 13,13 0 0 1 56,3 Z m 0.66797,7 A 0.665,0.665 0 0 0 56,10.66602 v 2 c 0,0.37 0.29797,0.66602 0.66797,0.66602 h 3.332 l -4,3.334 v 2.666 c 0,0.37 0.29797,0.66797 0.66797,0.66797 h 6.6641 c 0.37,0 0.66797,-0.29897 0.66797,-0.66797 v -2 a 0.665,0.665 0 0 0 -0.66797,-0.66602 h -3.332 l 4,-3.334 v -2.666 A 0.665,0.665 0 0 0 63.33207,10 Z m -8,6 A 0.665,0.665 0 0 0 48,16.66602 v 0.66602 c 0,0.37 0.29897,0.68597 0.66797,0.66797 h 1.332 l -2,2 v 1.332 c 0,0.37 0.29797,0.66797 0.66797,0.66797 h 3.332 c 0.37,0 0.66797,-0.29897 0.66797,-0.66797 v -0.66602 a 0.665,0.665 0 0 0 -0.66797,-0.66602 h -1.332 l 2,-2 v -1.334 a 0.665,0.665 0 0 0 -0.66797,-0.66602 h -3.332 z"
         fill="url(#f)"
         stroke-width="1.0714"
         id="path107" />
    </g>
  </g>
  <g
     id="system-log-out">
    <rect
       x="78"
       width="32"
       height="32"
       rx="0"
       ry="0"
       opacity="0"
       stroke-width="2"
       style="paint-order:fill markers stroke"
       id="rect112"
       y="0" />
    <path
       d="m 94,1 c -8.2759,0 -15,6.7241 -15,15 0,8.2759 6.7241,15 15,15 8.2759,0 15,-6.7241 15,-15 C 109,7.7241 102.2759,1 94,1 Z m 0,2 A 13,13 0 0 1 107,16 13,13 0 0 1 94,29 13,13 0 0 1 81,16 13,13 0 0 1 94,3 Z m 1,6 v 5 H 85 v 4 h 10 v 5 l 8,-6.9727 z"
       color="#000000"
       fill="url(#c)"
       stroke-width="1.0714"
       id="path116" />
    <path
       d="M 94,1.5 C 86,1.5 79.5,8 79.5,16 79.5,24 86,30.5 94,30.5 102,30.5 108.5,24 108.5,16 108.5,8 102,1.5 94,1.5 Z"
       color="#000000"
       fill="none"
       opacity="0.35"
       overflow="visible"
       id="path118" />
  </g>
  <g
     id="system-lock-screen"
     transform="translate(-20,98)">
    <rect
       x="140"
       y="-98"
       width="32"
       height="32"
       rx="0"
       ry="0"
       opacity="0"
       stroke-width="2"
       style="paint-order:fill markers stroke"
       id="rect121" />
    <g
       transform="translate(-2.5,-46.5)"
       id="g129">
      <path
         transform="translate(22.5,-51.5)"
         d="m 136,1 c -8.2759,0 -15,6.7241 -15,15 0,8.2759 6.7241,15 15,15 8.2759,0 15,-6.7241 15,-15 0,-8.2759 -6.7241,-15 -15,-15 z m 0,2 c 7.1724,0 13,5.8276 13,13 0,7.1724 -5.8276,13 -13,13 -7.1724,0 -13,-5.8276 -13,-13 0,-7.1724 5.8276,-13 13,-13 z m -0.5,4.5 c -2.216,0 -4,1.8119 -4,4.0625 V 14.5 h -1 c -0.554,0 -1,0.446 -1,1 v 7 c 0,0.554 0.446,1 1,1 h 11 c 0.554,0 1,-0.446 1,-1 v -7 c 0,-0.554 -0.446,-1 -1,-1 h -1 V 11.5625 C 140.5,9.3119 138.716,7.5 136.5,7.5 Z m 0,2 h 1 c 1.108,0 2,0.892 2,2 v 3 h -5 v -3 c 0,-1.108 0.892,-2 2,-2 z"
         color="#000000"
         fill="url(#e)"
         stroke-width="1.0714"
         id="path125" />
      <path
         d="m 158.5,-50 c -8,0 -14.5,6.5 -14.5,14.5 0,8 6.5,14.5 14.5,14.5 8,0 14.5,-6.5 14.5,-14.5 0,-8 -6.5,-14.5 -14.5,-14.5 z"
         color="#000000"
         fill="none"
         opacity="0.5"
         overflow="visible"
         solid-color="#000000"
         style="isolation:auto;mix-blend-mode:normal"
         id="path127" />
    </g>
  </g>
  <g
     id="system-switch-user"
     transform="translate(-20,98)">
    <rect
       x="183"
       y="-98"
       width="32"
       height="32"
       rx="0"
       ry="0"
       opacity="0"
       stroke-width="2"
       style="paint-order:fill markers stroke"
       id="rect132" />
    <g
       transform="translate(183,-1188.5)"
       id="g138">
      <path
         transform="translate(-163,1090.5)"
         d="M 179,1 A 15,15 0 0 0 164,16 15,15 0 0 0 179,31 15,15 0 0 0 194,16 15,15 0 0 0 179,1 Z m 0,2 A 13,13 0 0 1 192,16 13,13 0 0 1 179,29 13,13 0 0 1 166,16 13,13 0 0 1 179,3 Z m 1.4805,4.5 A 0.5,0.5 0 0 0 180.00003,8 v 2 h -7 c -0.277,0 -0.5,0.223 -0.5,0.5 v 2 c 0,0.277 0.223,0.5 0.5,0.5 h 7 v 2 a 0.5,0.5 0 0 0 0.80664,0.39453 l 4.5,-3.5 a 0.5,0.5 0 0 0 0,-0.78906 l -4.5,-3.5 A 0.503,0.503 0 0 0 180.4805,7.5 Z m -3.0078,9 a 0.503,0.503 0 0 0 -0.2793,0.10547 l -4.5,3.498 a 0.5,0.5 0 0 0 0,0.79102 l 4.5,3.5 a 0.5,0.5 0 0 0 0.80664,-0.39453 v -2 h 7 c 0.277,0 0.5,-0.224 0.5,-0.5 v -2 c 0,-0.277 -0.223,-0.5 -0.5,-0.5 h -7 v -2 a 0.5,0.5 0 0 0 -0.48047,-0.5 0.503,0.503 0 0 0 -0.0469,0 z"
         fill="url(#d)"
         stroke-width="1.0714"
         id="path136" />
    </g>
  </g>
  <g
     id="16-16-system-suspend"
     transform="translate(49)">
    <circle
       cx="-11"
       cy="85"
       r="8"
       fill="#b990ff"
       opacity="0.25"
       stroke-linecap="round"
       stroke-linejoin="round"
       stroke-miterlimit="2"
       stroke-width="2.0015"
       id="circle141"
       style="display:none" />
    <path
       class="ColorScheme-Text"
       d="m -10.973,79 c -2.5738,-0.02 -4.8835,1.6075 -5.7244,4.0353 -0.22337,0.64488 -0.32173,1.3075 -0.3203,1.9649 -10e-4,0.65736 0.09698,1.32 0.3203,1.9649 0.84087,2.4278 3.1506,4.0553 5.7244,4.0353 2.5738,-0.02 4.8551,-1.6846 5.658,-4.1251 0.20306,-0.61724 0.29823,-1.2486 0.29687,-1.8751 0.001,-0.62641 -0.093791,-1.2578 -0.29687,-1.8751 C -6.11788,80.6846 -8.3992,79.02 -10.973,79 Z m -0.01562,1.9981 c 1.7222,0.01338 3.2341,1.1151 3.7713,2.7481 0.13581,0.41282 0.1995,0.83648 0.19921,1.2539 2.9e-4,0.41745 -0.063357,0.84112 -0.19921,1.2539 -0.53722,1.6329 -2.0491,2.7348 -3.7713,2.7481 -1.7222,0.01338 -3.2556,-1.0651 -3.8182,-2.6896 -0.14936,-0.43123 -0.21533,-0.87466 -0.21483,-1.3125 -5.01e-4,-0.43788 0.06546,-0.8813 0.21483,-1.3125 0.56265,-1.6244 2.096,-2.7029 3.8182,-2.6896 z m -2.1737,3.0021 c -0.47467,0 -0.85544,0.44601 -0.85544,1 0,0.55399 0.38076,1 0.85544,1 h 4.2869 c 0.47466,0 0.85738,-0.44601 0.85738,-1 0,-0.55399 -0.38272,-1 -0.85738,-1 z"
       fill="url(#linearGradient1050)"
       stroke-width="0.99999"
       id="path143" />
  </g>
  <g
     id="16-16-system-switch-user"
     transform="translate(49)">
    <circle
       cx="11"
       cy="85"
       r="8"
       fill="#83db4c"
       opacity=".25"
       stroke-linecap="round"
       stroke-linejoin="round"
       stroke-miterlimit="2"
       stroke-width="2.0015"
       id="circle146" />
    <path
       d="m10.994 79.039c-1.87 0-3.3939 1.5345-3.4492 3.4512-0.0459 0.012-0.091506 0.03464-0.13477 0.05664-0.43005 0.227-0.54033 0.93424-0.24609 1.5898 0.23672 0.5274 0.65749 0.85385 1.0391 0.84375 0.28723 1.7528 1.4304 3.0605 2.791 3.0605h0.01172c1.3606 0 2.5038-1.3077 2.791-3.0605 0.38154 0.01 0.8023-0.31635 1.0391-0.84375 0.29424-0.6556 0.18394-1.3628-0.24609-1.5898-0.0433-0.023-0.0888-0.04564-0.13477-0.05664-0.0553-1.9167-1.5792-3.4512-3.4492-3.4512zm2.4004 8.002c-0.2897 0.69972-1.275 1.2227-2.4492 1.2227-1.1699 0-2.1457-0.51729-2.4395-1.2129-1.1434 0.11952-2.1331 0.32406-2.8984 0.57812a6 6 0 0 0 5.3926 3.3711 6 6 0 0 0 5.3926-3.3691c-0.78614-0.26302-1.8123-0.47098-2.998-0.58984z"
       fill="url(#linearGradient1048)"
       id="path148" />
  </g>
  <g
     id="16-16-system-shutdown"
     transform="translate(49)">
    <circle
       cx="-33"
       cy="85"
       r="8"
       fill="#f05d2e"
       opacity="0.25"
       stroke-linecap="round"
       stroke-linejoin="round"
       stroke-miterlimit="2"
       stroke-width="2.0015"
       id="circle151"
       style="display:none" />
    <path
       class="ColorScheme-Text"
       d="m -33,78.04 c -0.55399,0 -0.99995,0.4462 -0.99995,1 v 5.0019 c 0,0.5538 0.44596,0.9981 0.99995,0.9981 0.55399,0 0.99995,-0.4443 0.99995,-0.9981 V 79.04 c 0,-0.5538 -0.44596,-1 -0.99995,-1 z m 2.9393,1.9902 a 1.0002,0.99983 0 0 0 -0.54294,1.8086 c 1.378,1.0304 1.941,2.8148 1.4042,4.4492 -0.53678,1.6344 -2.0505,2.7386 -3.7713,2.752 -1.7208,0.013 -3.2501,-1.0675 -3.8123,-2.6934 -0.56218,-1.6258 -0.02587,-3.419 1.3359,-4.4707 a 1.0002,0.99983 0 1 0 -1.2226,-1.582 c -2.0351,1.5718 -2.842,4.2772 -2.0019,6.707 0.84017,2.4298 3.1448,4.0591 5.7165,4.0391 2.5717,-0.02 4.8537,-1.6863 5.656,-4.1289 0.80223,-2.4426 -0.04794,-5.1339 -2.1073,-6.6739 a 1.0002,0.99983 0 0 0 -0.65426,-0.207 z"
       fill="url(#linearGradient1046)"
       id="path153" />
  </g>
  <g
     id="16-16-system-log-out"
     transform="translate(49)">
    <circle
       cx="-55"
       cy="85"
       r="8"
       fill="#fe5f4d"
       opacity="0.25"
       stroke-linecap="round"
       stroke-linejoin="round"
       stroke-miterlimit="2"
       stroke-width="2.0015"
       id="circle156"
       style="display:none" />
    <path
       class="ColorScheme-Text"
       d="m -61.04,84.973 c -0.02,2.5738 1.6075,4.8835 4.0353,5.7244 0.64488,0.22336 1.3075,0.32174 1.9649,0.3203 0.65736,0.0014 1.32,-0.09694 1.9649,-0.3203 2.4278,-0.84087 4.0553,-3.1506 4.0353,-5.7244 -0.02,-2.5738 -1.6846,-4.8551 -4.1251,-5.658 -0.61724,-0.20306 -1.2486,-0.29822 -1.8751,-0.29687 -0.62641,-0.0014 -1.2578,0.0938 -1.8751,0.29687 -2.4405,0.80288 -4.1051,3.0842 -4.1251,5.658 z m 1.9981,0.01562 c 0.01338,-1.7222 1.1151,-3.2341 2.7481,-3.7713 0.41282,-0.13581 0.83648,-0.1995 1.2539,-0.19921 0.41745,-2.9e-4 0.84112,0.0634 1.2539,0.19921 1.6329,0.53722 2.7348,2.0491 2.7481,3.7713 0.01338,1.7222 -1.0651,3.2556 -2.6896,3.8182 -0.43123,0.14936 -0.87466,0.21533 -1.3125,0.21483 -0.43788,4.97e-4 -0.8813,-0.06547 -1.3125,-0.21483 -1.6244,-0.56265 -2.7029,-2.096 -2.6896,-3.8182 z m 2.0021,1.5546 a 0.52748,0.47362 0 0 0 0.78908,0.41209 l 2.9454,-1.5272 a 0.52748,0.47362 0 0 0 0.26563,-0.38475 0.52748,0.47362 0 0 0 0,-0.04883 0.52748,0.47362 0 0 0 -0.26563,-0.3867 l -2.9454,-1.5272 a 0.52748,0.47362 0 0 0 -0.78908,0.41014 v 3.0526 z"
       fill="url(#linearGradient1044)"
       stroke-width="0.99999"
       id="path158" />
  </g>
  <g
     id="16-16-system-reboot"
     transform="translate(49)">
    <circle
       cx="-77"
       cy="85"
       r="8"
       fill="#366cf7"
       opacity="0.25"
       stroke-linecap="round"
       stroke-linejoin="round"
       stroke-miterlimit="2"
       stroke-width="2.0015"
       id="circle161"
       style="display:none" />
    <path
       class="ColorScheme-Text"
       d="m -77.475,79.04 a 0.47364,0.52746 0 0 1 0.41211,0.7891 l -1.5273,2.9453 a 0.47364,0.52746 0 0 1 -0.38477,0.2656 0.47364,0.52746 0 0 1 -0.04883,0 0.47364,0.52746 0 0 1 -0.38672,-0.2656 l -0.32617,-0.6289 c -1.1217,1.0534 -1.5536,2.6586 -1.0645,4.1465 0.53678,1.6327 2.0507,2.7366 3.7715,2.75 1.7208,0.013 3.2503,-1.0672 3.8125,-2.6915 0.56218,-1.6242 0.02584,-3.4141 -1.3359,-4.4648 a 1.0006,0.99921 0 1 1 1.2227,-1.582 c 2.0351,1.5702 2.8421,4.2737 2.002,6.7011 -0.84017,2.4275 -3.1451,4.0552 -5.7168,4.0352 -2.5717,-0.02 -4.854,-1.6848 -5.6562,-4.125 -0.78998,-2.4029 0.02804,-5.0426 2.0195,-6.5918 l -0.25586,-0.4941 a 0.47364,0.52746 0 0 1 0.41016,-0.7891 h 3.0527 z"
       fill="url(#linearGradient1042)"
       id="path163" />
  </g>
  <g
     id="16-16-system-suspend-hibernate"
     transform="translate(49)">
    <circle
       cx="-99"
       cy="85"
       r="8"
       fill="#bc4bd9"
       opacity="0.25"
       stroke-linecap="round"
       stroke-linejoin="round"
       stroke-miterlimit="2"
       stroke-width="2.0015"
       id="circle166"
       style="display:none" />
    <path
       class="ColorScheme-Text"
       d="m -98.97,79 c -2.5738,-0.02 -4.8835,1.6075 -5.7244,4.0353 -0.22337,0.64488 -0.32172,1.3075 -0.32029,1.9649 -0.001,0.65736 0.097,1.32 0.32029,1.9649 0.84087,2.4278 3.1506,4.0553 5.7244,4.0353 2.5738,-0.02 4.8551,-1.6846 5.658,-4.1251 0.20306,-0.61724 0.29823,-1.2486 0.29687,-1.8751 0.001,-0.62641 -0.09379,-1.2578 -0.29687,-1.8751 C -94.11488,80.6846 -96.3962,79.02 -98.97,79 Z m -0.01563,1.9981 c 1.7222,0.01338 3.2341,1.1151 3.7713,2.7481 0.13581,0.41282 0.1995,0.83648 0.19921,1.2539 2.9e-4,0.41745 -0.06336,0.84112 -0.19921,1.2539 -0.53722,1.6329 -2.0491,2.7348 -3.7713,2.7481 -1.7222,0.01338 -3.2556,-1.0651 -3.8182,-2.6896 -0.14937,-0.43123 -0.21533,-0.87466 -0.21483,-1.3125 -5.1e-4,-0.43788 0.0654,-0.8813 0.21483,-1.3125 0.56264,-1.6244 2.096,-2.7029 3.8182,-2.6896 z m -0.02929,2.0021 a 1.9999,2.0001 0 0 0 -1.9999,2.0001 1.9999,2.0001 0 0 0 1.9999,2.0001 1.9999,2.0001 0 0 0 1.9999,-2.0001 1.9999,2.0001 0 0 0 -1.9999,-2.0001 z"
       fill="url(#linearGradient1040)"
       stroke-width="0.99999"
       id="path168" />
  </g>
  <g
     id="16-16-system-lock-screen"
     transform="translate(49)">
    <circle
       cx="33"
       cy="85"
       r="8"
       fill="#4edd99"
       opacity="0.25"
       stroke-linecap="round"
       stroke-linejoin="round"
       stroke-miterlimit="2"
       stroke-width="2.0015"
       id="circle171"
       style="display:none" />
    <path
       class="ColorScheme-Text"
       d="m 33,78 c -2.216,0 -4,1.8216 -4,4.0625 V 83 h -1 c -0.554,0 -1,0.446 -1,1 v 5 c 0,0.554 0.446,1 1,1 h 10 c 0.554,0 1,-0.446 1,-1 v -5 c 0,-0.554 -0.446,-1 -1,-1 H 37 V 82.0625 C 37,79.8225 35.216,78 33,78 Z m 0,2 c 1.108,0 2,0.892 2,2 v 1 h -4 v -1 c 0,-1.108 0.892,-2 2,-2 z"
       fill="url(#linearGradient1038)"
       id="path173" />
  </g>
  <g
     id="22-22-system-suspend-hibernate"
     transform="translate(0,2)">
    <circle
       cx="-50"
       cy="53"
       r="11"
       fill="#bc4bd9"
       opacity="0.25"
       stroke-linecap="round"
       stroke-linejoin="round"
       stroke-miterlimit="2"
       stroke-width="2.7521"
       id="circle176"
       style="display:none" />
    <path
       d="m -50,45 a 8,8 0 0 0 -8,8 8,8 0 0 0 8,8 8,8 0 0 0 8,-8 8,8 0 0 0 -8,-8 z m 0,2 a 6,6 0 0 1 6,6 6,6 0 0 1 -6,6 6,6 0 0 1 -6,-6 6,6 0 0 1 6,-6 z"
       fill="url(#linearGradient1593)"
       stroke-linecap="round"
       stroke-linejoin="round"
       stroke-miterlimit="2"
       stroke-width="2.2857"
       id="path178" />
    <circle
       cx="-50"
       cy="53"
       r="2"
       fill="url(#linearGradient1603)"
       stroke-linecap="round"
       stroke-linejoin="round"
       stroke-miterlimit="2"
       stroke-width="2"
       id="circle180" />
  </g>
  <g
     id="22-22-system-reboot"
     transform="translate(0,2)"
     stroke-linecap="round"
     stroke-linejoin="round"
     stroke-miterlimit="2">
    <circle
       cx="-28"
       cy="53"
       r="11"
       fill="#366cf7"
       opacity="0.25"
       stroke-width="2.7521"
       id="circle183"
       style="display:none" />
    <path
       d="m -28,44 v 2 c -0.03125,-2.09e-4 -0.0625,-2.09e-4 -0.09375,0 -3.8293,0.05129 -6.9066,3.1703 -6.9062,7 0,3.866 3.134,7 7,7 3.866,0 7,-3.134 7,-7 -3.04e-4,-1.4589 -0.45645,-2.8813 -1.3047,-4.0684 l -1.627,1.1621 c 0.60584,0.84798 0.93156,1.8641 0.93164,2.9062 0,2.7614 -2.2386,5 -5,5 -2.7614,0 -5,-2.2386 -5,-5 0,-2.7614 2.2386,-5 5,-5 v 2 l 4,-3 z"
       fill="url(#linearGradient1619)"
       stroke-width="1.8667"
       id="path185" />
  </g>
  <g
     id="22-22-system-log-out"
     transform="translate(0,2)">
    <circle
       cx="-6.0001001"
       cy="53"
       r="11"
       fill="#fe5f4d"
       opacity="0.25"
       stroke-linecap="round"
       stroke-linejoin="round"
       stroke-miterlimit="2"
       stroke-width="2.7521"
       id="circle188"
       style="display:none" />
    <path
       class="ColorScheme-Text"
       d="m -9,55.287 c -0.00106,0.54586 0.65549,0.88875 1.1834,0.61802 l 4.4172,-2.2904 c 0.23319,-0.11922 0.38317,-0.33646 0.39836,-0.57702 0.0014,-0.02441 0.0014,-0.04883 0,-0.07323 -0.014115,-0.24162 -0.16424,-0.46016 -0.39836,-0.57994 l -4.4172,-2.2904 C -8.34324,49.82395 -8.9986,50.16456 -9,50.70912 v 4.578 z"
       fill="url(#linearGradient991)"
       stroke-width="1.4997"
       id="path190" />
    <path
       d="m -6,45 a 8,8 0 0 0 -8,8 8,8 0 0 0 8,8 8,8 0 0 0 8,-8 8,8 0 0 0 -8,-8 z m 0,2 a 6,6 0 0 1 6,6 6,6 0 0 1 -6,6 6,6 0 0 1 -6,-6 6,6 0 0 1 6,-6 z"
       fill="url(#linearGradient1659)"
       stroke-linecap="round"
       stroke-linejoin="round"
       stroke-miterlimit="2"
       stroke-width="2.2857"
       id="path192" />
  </g>
  <g
     id="22-22-system-shutdown"
     transform="translate(0,2)"
     stroke-linecap="round"
     stroke-linejoin="round"
     stroke-miterlimit="2">
    <circle
       cx="16"
       cy="53"
       r="11"
       fill="#f05d2e"
       opacity="0.25"
       stroke-width="2.7521"
       id="circle195"
       style="display:none" />
    <path
       d="m 16,44 c -0.554,0 -1,0.446 -1,1 v 7 c 0,0.554 0.446,1 1,1 0.554,0 1,-0.446 1,-1 v -7 c 0,-0.554 -0.446,-1 -1,-1 z m 4.7988,2.5996 -1.1992,1.6016 A 6,6 0 0 1 22,53 6,6 0 0 1 16,59 6,6 0 0 1 10,53 6,6 0 0 1 12.4004,48.1992 L 11.2012,46.6015 A 8,8 0 0 0 8,52.9999 a 8,8 0 0 0 8,8 8,8 0 0 0 8,-8 8,8 0 0 0 -3.2012,-6.4004 z"
       fill="url(#linearGradient1666)"
       stroke-width="2.2857"
       id="path197" />
  </g>
  <g
     id="22-22-system-suspend"
     transform="translate(0,2)">
    <circle
       cx="38"
       cy="53"
       r="11"
       fill="#b990ff"
       opacity="0.25"
       stroke-linecap="round"
       stroke-linejoin="round"
       stroke-miterlimit="2"
       stroke-width="2.7521"
       id="circle200"
       style="display:none" />
    <path
       d="m 38,45 a 8,8 0 0 0 -8,8 8,8 0 0 0 8,8 8,8 0 0 0 8,-8 8,8 0 0 0 -8,-8 z m 0,2 a 6,6 0 0 1 6,6 6,6 0 0 1 -6,6 6,6 0 0 1 -6,-6 6,6 0 0 1 6,-6 z"
       fill="url(#linearGradient1687)"
       stroke-linecap="round"
       stroke-linejoin="round"
       stroke-miterlimit="2"
       stroke-width="2.2857"
       id="path202" />
    <rect
       x="34"
       y="52"
       width="8"
       height="2"
       rx="1"
       ry="1"
       fill="url(#linearGradient1697)"
       id="rect204" />
  </g>
  <g
     id="system-suspend-2-2"
     transform="translate(5.254023,-14.326804)">
    <rect
       x="-60"
       y="-98"
       width="32"
       height="32"
       rx="0"
       ry="0"
       opacity="0"
       stroke-width="2"
       style="paint-order:fill markers stroke"
       id="rect70-6-3" />
    <g
       transform="translate(-60,-98)"
       id="g78-1-7">
      <path
         d="M 16,1.5 C 8,1.5 1.5,8 1.5,16 1.5,24 8,30.5 16,30.5 24,30.5 30.5,24 30.5,16 30.5,8 24,1.5 16,1.5 Z"
         color="#000000"
         fill="none"
         opacity="0.5"
         overflow="visible"
         solid-color="#000000"
         style="isolation:auto;mix-blend-mode:normal"
         id="path76-7-9" />
    </g>
  </g>
</svg>
