<?xml version="1.0" encoding="UTF-8" standalone="no"?>
<svg
   sodipodi:docname="update.svg"
   inkscape:version="1.2.2 (b0a8486541, 2022-12-01)"
   id="svg846"
   version="1.1"
   viewBox="0 0 8.4666665 8.4666699"
   height="32.000011"
   width="32"
   xmlns:inkscape="http://www.inkscape.org/namespaces/inkscape"
   xmlns:sodipodi="http://sodipodi.sourceforge.net/DTD/sodipodi-0.dtd"
   xmlns:xlink="http://www.w3.org/1999/xlink"
   xmlns="http://www.w3.org/2000/svg"
   xmlns:svg="http://www.w3.org/2000/svg"
   xmlns:rdf="http://www.w3.org/1999/02/22-rdf-syntax-ns#"
   xmlns:cc="http://creativecommons.org/ns#"
   xmlns:dc="http://purl.org/dc/elements/1.1/">
  <defs
     id="defs840">
    <linearGradient
       inkscape:collect="always"
       id="linearGradient1045">
      <stop
         style="stop-color:#12cc00;stop-opacity:1"
         offset="0"
         id="stop1041" />
      <stop
         style="stop-color:#84e500;stop-opacity:1"
         offset="1"
         id="stop1043" />
    </linearGradient>
    <linearGradient
       inkscape:collect="always"
       xlink:href="#linearGradient1045"
       id="linearGradient9409"
       gradientUnits="userSpaceOnUse"
       gradientTransform="matrix(1.0067997,0,0,1.0067997,-0.02881719,-2.0480497)"
       x1="1.0882517"
       y1="301.21179"
       x2="7.3623495"
       y2="301.21179" />
    <linearGradient
       inkscape:collect="always"
       xlink:href="#linearGradient1045"
       id="linearGradient11864"
       gradientUnits="userSpaceOnUse"
       gradientTransform="matrix(0.71826228,0,0,0.71826228,-0.11534262,77.648305)"
       x1="1.0882517"
       y1="301.21179"
       x2="7.3623495"
       y2="301.21179" />
  </defs>
  <sodipodi:namedview
     inkscape:document-rotation="0"
     inkscape:snap-midpoints="true"
     inkscape:object-paths="true"
     inkscape:snap-intersection-paths="true"
     inkscape:snap-smooth-nodes="true"
     inkscape:window-maximized="1"
     inkscape:window-y="24"
     inkscape:window-x="0"
     inkscape:window-height="1032"
     inkscape:window-width="1920"
     units="px"
     showgrid="false"
     inkscape:current-layer="layer1"
     inkscape:document-units="px"
     inkscape:cy="-5.1743137"
     inkscape:cx="44.514316"
     inkscape:zoom="6.5709197"
     inkscape:pageshadow="2"
     inkscape:pageopacity="0.0"
     borderopacity="1"
     bordercolor="#030303"
     pagecolor="#ffffff"
     id="base"
     inkscape:lockguides="true"
     inkscape:pagecheckerboard="0"
     inkscape:showpageshadow="false"
     inkscape:deskcolor="#d1d1d1">
    <inkscape:grid
       id="grid1394"
       type="xygrid"
       originx="6.9999998e-06"
       originy="-5.8208287" />
  </sodipodi:namedview>
  <metadata
     id="metadata843">
    <rdf:RDF>
      <cc:Work
         rdf:about="">
        <dc:format>image/svg+xml</dc:format>
        <dc:type
           rdf:resource="http://purl.org/dc/dcmitype/StillImage" />
      </cc:Work>
    </rdf:RDF>
  </metadata>
  <style
     type="text/css"
     id="current-color-scheme" />
  <g
     transform="translate(0,-297)"
     id="layer1"
     inkscape:groupmode="layer"
     inkscape:label="Layer 1">
    <g
       id="update-none"
       transform="translate(0)">
      <rect
         style="opacity:0.003;fill:#000000;fill-opacity:1;stroke:none;stroke-width:0.157018;stroke-miterlimit:4;stroke-dasharray:none;stroke-opacity:1"
         id="rect1396-6"
         width="8.4666672"
         height="8.46667"
         x="0"
         y="297"
         ry="1.8892064e-06" />
      <path
         class="success"
         d="m 4.1700323,298.05413 c -0.60807,0.0119 -1.218218,0.20133 -1.755007,0.57685 -1.43137839,1.00133 -1.77738059,2.96224 -0.775081,4.39234 1.002254,1.4301 2.964093,1.77577 4.395471,0.77438 1.029374,-0.72008 1.497008,-1.93376 1.306537,-3.0949 -0.04439,-0.27132 -0.128819,-0.52384 -0.238355,-0.76824 l -2.870892,3.27749 -0.310747,0.36692 -0.353116,-0.33869 -1.355986,-1.35476 c -0.170127,-0.16999 -0.170113,-0.47916 0,-0.64913 0.170114,-0.17 0.479658,-0.17 0.649743,0 l 1.016989,1.01603 2.722548,-3.11254 c -0.486709,-0.56055 -1.134146,-0.91686 -1.827417,-1.03903 -0.199356,-0.0351 -0.402031,-0.0506 -0.604724,-0.0468 z"
         color="#000000"
         enable-background="accumulate"
         fill="url(#linearGradient1045)"
         id="path7-3-3-6"
         style="display:inline;fill-opacity:1;stroke:#73e500;stroke-width:0.0529167;stroke-miterlimit:4;stroke-dasharray:none;stroke-opacity:1" />
    </g>
    <g
       id="update-low"
       transform="translate(0)">
      <rect
         style="opacity:0.003;fill:#000000;fill-opacity:1;stroke:none;stroke-width:0.157018;stroke-miterlimit:4;stroke-dasharray:none;stroke-opacity:1"
         id="rect1396-6-9-1"
         width="8.4666672"
         height="8.46667"
         x="25.4"
         y="296.99997"
         ry="1.8892064e-06" />
      <path
         fill-rule="evenodd"
         clip-rule="evenodd"
         d="m 32.807053,301.27553 v -0.043 c 0,0.43835 -0.355277,0.79375 -0.793452,0.79375 h -0.396727 c -0.219087,0 -0.396713,0.1777 -0.396713,0.39687 v 0.19844 c 0,0.10959 -0.08881,0.19844 -0.198363,0.19844 -0.109538,0 -0.198363,-0.0888 -0.198363,-0.19844 v -0.19844 c 0,-0.43834 0.355277,-0.79375 0.793452,-0.79375 h 0.396726 c 0.219088,0 0.396714,-0.1777 0.396714,-0.39687 0,0 0.0016,-5.8e-4 0.004,-10e-4 -2.91e-4,-0.10115 -0.03894,-0.20212 -0.116024,-0.27925 l -2.384512,-2.38542 c -0.154967,-0.15498 -0.406015,-0.15498 -0.560983,0 l -2.384511,2.38542 c -0.07709,0.0771 -0.11564,0.17809 -0.116024,0.27905 0.0023,9.8e-4 0.004,0.002 0.004,0.002 0,0.21918 0.177626,0.39688 0.396713,0.39688 h 0.396727 c 0.438187,0 0.793452,0.3554 0.793452,0.79375 v 1.19061 c 0,0.21917 0.177639,0.39687 0.396726,0.39687 h 1.388542 c 0.10955,0 0.198363,0.0889 0.198363,0.19844 0,0.10959 -0.08881,0.19844 -0.198363,0.19844 h -1.388554 c -0.438175,0 -0.793453,-0.3554 -0.793453,-0.79375 v -1.19063 c 0,-0.21917 -0.177626,-0.39687 -0.396726,-0.39687 h -0.396714 c -0.438225,0 -0.793441,-0.3554 -0.793441,-0.79375 v 0.043 c -0.01177,-0.21724 0.06232,-0.43834 0.228241,-0.60423 l 2.384549,-2.38541 c 0.15488,-0.15501 0.357931,-0.22838 0.560995,-0.22838 0.203064,0 0.406115,0.0734 0.560983,0.22838 l 2.384512,2.38541 c 0.165918,0.16589 0.240097,0.38699 0.22829,0.60423 z m -1.785255,1.94135 c 0.10955,0 0.198363,0.0889 0.198363,0.19844 0,0.10959 -0.08881,0.19844 -0.198363,0.19844 -0.109538,0 -0.198363,-0.0889 -0.198363,-0.19844 0,-0.10958 0.08883,-0.19844 0.198363,-0.19844 z"
         id="path2-6"
         style="display:none;fill:#a7b4d0;fill-opacity:1;stroke-width:0.0124023" />
      <path
         id="path5-6-36"
         style="color:#dedede;display:none;fill:#a7b4d0;fill-opacity:1;stroke-width:1.52388"
         class="ColorScheme-Text"
         d="m 111.99609,4.0039062 c -6.62473,0 -11.99414,5.3713379 -11.99414,11.9960938 0,6.624718 5.36941,11.994141 11.99414,11.994141 6.62474,0 11.9961,-5.369423 11.9961,-11.994141 0,-6.6247181 -5.37136,-11.9961315 -11.9961,-11.9960938 z M 112,6.328125 c 5.59661,0 10.13281,4.334441 10.13281,9.681641 0,5.3472 -4.5362,9.683593 -10.13281,9.683593 -5.59661,0 -10.13281,-4.336393 -10.13281,-9.683593 0,-5.3472 4.5362,-9.681641 10.13281,-9.681641 z m -0.004,4.074219 c -0.10182,0 -0.20259,0.01947 -0.29882,0.05859 -0.10043,0.04044 -0.19045,0.100568 -0.26563,0.175781 l -3.39258,3.392578 c -0.17971,0.179753 -0.25696,0.420987 -0.23047,0.654297 -0.0265,0.233316 0.0508,0.47654 0.23047,0.65625 0.31329,0.313323 0.8176,0.313323 1.13086,0 l 1.85352,-1.853516 v 7.310547 c 0,0.42019 0.3906,0.762717 0.89062,0.796875 0.0269,0.0027 0.0543,0.0039 0.082,0.0039 0.0277,0 0.0551,-0.0012 0.082,-0.0039 0.50001,-0.03417 0.89063,-0.376793 0.89063,-0.796875 v -7.3125 l 1.85547,1.855469 c 0.31325,0.313323 0.81564,0.313323 1.1289,0 0.17971,-0.179753 0.25696,-0.422944 0.23047,-0.65625 0.0265,-0.23331 -0.0508,-0.474566 -0.23047,-0.654297 l -3.39062,-3.392578 c -0.0752,-0.07521 -0.1652,-0.135341 -0.26562,-0.175781 -0.0962,-0.03912 -0.19896,-0.05859 -0.30079,-0.05859 z"
         transform="matrix(0.26458333,0,0,0.26458333,0,297)" />
      <path
         id="path5-6-36-3"
         style="color:#dedede;display:inline;fill:#a7b4d0;fill-opacity:1;stroke-width:1.52388"
         class="ColorScheme-Text"
         d="m 111.9961,4.0039063 c -6.62474,0 -11.99415,5.3713448 -11.99415,11.9960937 0,6.624712 5.36941,11.994141 11.99415,11.994141 6.62473,0 11.99609,-5.369429 11.99609,-11.994141 0,-6.6247111 -5.37136,-11.9961313 -11.99609,-11.9960937 z m -0.0684,5.1015626 h 0.006 c 0.0352,-0.00125 0.0643,0 0.0605,0 H 112 c 0.18651,6.047e-4 0.375,0.037904 0.55469,0.109375 0.19932,0.080806 0.36618,0.1982728 0.49414,0.3261719 a 0.56007051,0.56007051 0 0 1 0.008,0.013672 l 3.89649,4.0820312 0.008,0.01563 c 0.30149,0.308787 0.43355,0.729135 0.40625,1.136719 0.0282,0.414047 -0.0992,0.843671 -0.41406,1.158203 -0.31035,0.310601 -0.71965,0.435547 -1.11328,0.435547 -0.38056,0 -0.77192,-0.131544 -1.07813,-0.419922 -0.0169,-0.0088 -0.0358,-0.01966 -0.0527,-0.0293 -0.0967,-0.05533 -0.19431,-0.108622 -0.2793,-0.193359 l -0.75391,-0.751954 v 6.421876 c 0,0.828925 -0.73715,1.418433 -1.54297,1.476562 -10e-6,0 -0.0474,0.0078 -0.13867,0.0078 -0.075,0 -0.1122,-0.0058 -0.12695,-0.0078 -0.80851,-0.05522 -1.54883,-0.645181 -1.54883,-1.476562 v -6.414063 l -0.74609,0.744141 c -0.0842,0.08421 -0.18178,0.124443 -0.27344,0.177734 a 0.56007051,0.56007051 0 0 1 -0.0215,0.0293 c -0.004,0.0043 -0.0113,0.0036 -0.0156,0.0078 -0.0637,0.04724 -0.0326,0.01975 -0.0293,0.01563 0.003,-0.0024 0.005,-0.0054 0.008,-0.0078 -0.006,0.0032 -0.0172,0.0047 -0.0234,0.0078 -0.30474,0.276775 -0.68088,0.41211 -1.05469,0.41211 -0.39461,0 -0.80939,-0.123661 -1.12109,-0.435547 -0.31029,-0.310072 -0.44176,-0.73744 -0.41407,-1.150391 -0.0273,-0.40747 0.10464,-0.827894 0.40625,-1.136719 l 3.91211,-4.1054682 a 0.56007051,0.56007051 0 0 1 0.008,-0.013672 c 0.12715,-0.1277101 0.2889,-0.2455925 0.48632,-0.3261719 0.15584,-0.064327 0.32015,-0.1022695 0.48829,-0.109375 z"
         transform="matrix(0.26458333,0,0,0.26458333,0,297)"
         inkscape:label="path127" />
    </g>
    <g
       id="update-high"
       style="fill:#e52e00;fill-opacity:1">
      <rect
         style="opacity:0.003;fill:#e52e00;fill-opacity:1;stroke:none;stroke-width:0.157018;stroke-miterlimit:4;stroke-dasharray:none;stroke-opacity:1"
         id="rect1396-6-9"
         width="8.4666672"
         height="8.46667"
         x="8.4666672"
         y="296.99997"
         ry="1.8892064e-06" />
      <path
         fill-rule="evenodd"
         clip-rule="evenodd"
         d="m 15.873721,301.27553 v -0.043 c 0,0.43835 -0.355277,0.79375 -0.793452,0.79375 h -0.396727 c -0.219087,0 -0.396713,0.1777 -0.396713,0.39687 v 0.19844 c 0,0.10959 -0.08881,0.19844 -0.198363,0.19844 -0.109538,0 -0.198363,-0.0888 -0.198363,-0.19844 v -0.19844 c 0,-0.43834 0.355277,-0.79375 0.793452,-0.79375 h 0.396726 c 0.219088,0 0.396714,-0.1777 0.396714,-0.39687 0,0 0.0016,-5.8e-4 0.004,-10e-4 -2.91e-4,-0.10115 -0.03894,-0.20212 -0.116024,-0.27925 l -2.384512,-2.38542 c -0.154967,-0.15498 -0.406015,-0.15498 -0.560983,0 l -2.384511,2.38542 c -0.07709,0.0771 -0.1156409,0.17809 -0.1160249,0.27905 0.0023,9.8e-4 0.004,0.002 0.004,0.002 0,0.21918 0.1776269,0.39688 0.3967139,0.39688 h 0.396727 c 0.438187,0 0.793452,0.3554 0.793452,0.79375 v 1.19061 c 0,0.21917 0.177639,0.39687 0.396726,0.39687 h 1.388542 c 0.10955,0 0.198363,0.0889 0.198363,0.19844 0,0.10959 -0.08881,0.19844 -0.198363,0.19844 h -1.388554 c -0.438175,0 -0.793453,-0.3554 -0.793453,-0.79375 v -1.19063 c 0,-0.21917 -0.177626,-0.39687 -0.396726,-0.39687 h -0.396714 c -0.4382265,0 -0.7934453,-0.3554 -0.7934453,-0.79375 v 0.043 c -0.01177,-0.21724 0.06232,-0.43834 0.2282424,-0.60423 l 2.3845519,-2.38541 c 0.15488,-0.15501 0.357931,-0.22838 0.560995,-0.22838 0.203064,0 0.406115,0.0734 0.560983,0.22838 l 2.384512,2.38541 c 0.165918,0.16589 0.240097,0.38699 0.22829,0.60423 z m -1.785255,1.94135 c 0.10955,0 0.198363,0.0889 0.198363,0.19844 0,0.10959 -0.08881,0.19844 -0.198363,0.19844 -0.109538,0 -0.198363,-0.0889 -0.198363,-0.19844 0,-0.10958 0.08883,-0.19844 0.198363,-0.19844 z"
         id="path2-3"
         style="display:none;fill:#ff3e00;fill-opacity:1;stroke-width:0.0124023" />
      <path
         id="path5-6-3-6"
         style="color:#dedede;display:none;fill:#ff3e00;fill-opacity:1;stroke-width:0.423162"
         class="ColorScheme-Text"
         d="m 12.699998,298.0596 c -1.752795,0 -3.1737157,1.42092 -3.1737157,3.17372 0,1.75279 1.4209207,3.17371 3.1737157,3.17371 1.752796,0 3.173717,-1.42093 3.173717,-3.17372 0,-1.75279 -1.420921,-3.17372 -3.173717,-3.17371 z m 0,0.42316 c 1.51909,0 2.750555,1.23147 2.750555,2.75056 0,1.51909 -1.231465,2.75055 -2.750555,2.75055 -1.519089,0 -2.7505537,-1.23147 -2.7505537,-2.75055 0,-1.51909 1.2314647,-2.75056 2.7505537,-2.75056 z m 10e-7,4.23154 c 0.117215,0 0.211581,-0.0944 0.211581,-0.21158 v -2.02821 l 0.536391,0.53639 c 0.08288,0.0829 0.216304,0.0829 0.299189,0 0.08288,-0.0829 0.08288,-0.2163 0,-0.29919 l -0.897567,-0.89757 c -0.01989,-0.0199 -0.04368,-0.0356 -0.07025,-0.0463 -0.05092,-0.0207 -0.107762,-0.0207 -0.158685,0 -0.02657,0.0107 -0.05036,0.0264 -0.07025,0.0463 l -0.897567,0.89757 c -0.08288,0.0829 -0.08288,0.21631 0,0.29919 0.08289,0.0829 0.216304,0.0829 0.299189,0 l 0.536391,-0.53639 v 2.02821 c 0,0.11721 0.09437,0.21158 0.211582,0.21158 z" />
      <path
         id="path5-6-36-3-6-2"
         style="color:#dedede;display:inline;fill:#ff3e00;fill-opacity:1;stroke-width:0.403193"
         class="ColorScheme-Text"
         d="M 12.699483 298.05937 C 10.946689 298.05937 9.5260336 299.48054 9.5260336 301.23333 C 9.5260336 302.98612 10.946689 304.40678 12.699483 304.40678 C 14.452277 304.40678 15.87345 302.98612 15.87345 301.23333 C 15.87345 299.48055 14.452277 298.05936 12.699483 298.05937 z M 12.681913 299.40916 L 12.682947 299.40967 C 12.692267 299.40934 12.699966 299.40967 12.698967 299.40967 L 12.700517 299.40967 C 12.749868 299.40977 12.799738 299.41919 12.847278 299.43809 C 12.90001 299.45949 12.944159 299.49059 12.978019 299.52439 A 0.14818532 0.14818532 0 0 1 12.980086 299.52853 L 14.011031 300.60857 L 14.013098 300.6127 C 14.092865 300.6944 14.127785 300.80562 14.120585 300.91346 C 14.128046 301.02301 14.094341 301.1367 14.011031 301.2199 C 13.928918 301.30203 13.820623 301.33514 13.716475 301.33514 C 13.615786 301.33514 13.512241 301.30033 13.431222 301.22403 C 13.426772 301.22103 13.421769 301.21876 13.417269 301.21576 C 13.391679 301.20106 13.365862 301.187 13.343372 301.1646 L 13.143901 300.96565 L 13.143901 302.66477 C 13.143901 302.88409 12.948863 303.04004 12.735657 303.05544 C 12.735657 303.05544 12.723116 303.05751 12.698967 303.05751 C 12.679127 303.05751 12.669277 303.05597 12.665377 303.05544 C 12.451459 303.04083 12.255583 302.88474 12.255583 302.66477 L 12.255583 300.96772 L 12.058179 301.1646 C 12.035899 301.1869 12.010082 301.19753 11.985832 301.21163 A 0.14818532 0.14818532 0 0 1 11.980147 301.2199 C 11.979147 301.22097 11.977113 301.22096 11.976013 301.22196 C 11.959113 301.23396 11.967389 301.22658 11.968262 301.22558 C 11.969062 301.22458 11.969535 301.22466 11.970329 301.22403 C 11.968729 301.22503 11.965728 301.22476 11.964128 301.22558 C 11.883499 301.29881 11.783975 301.33462 11.685075 301.33462 C 11.580668 301.33462 11.470922 301.30188 11.388452 301.21938 C 11.306356 301.13734 11.271598 301.02427 11.278898 300.91501 C 11.271675 300.8072 11.306585 300.69595 11.386385 300.61425 L 12.421464 299.52801 A 0.14818532 0.14818532 0 0 1 12.424048 299.52439 C 12.45769 299.49059 12.499975 299.45939 12.552205 299.43809 C 12.593439 299.42109 12.637423 299.41116 12.681913 299.40916 z " />
    </g>
    <g
       id="g20"
       inkscape:label="update-medium">
      <rect
         style="opacity:0.003;fill:#000000;fill-opacity:1;stroke:none;stroke-width:0.157018;stroke-miterlimit:4;stroke-dasharray:none;stroke-opacity:1"
         id="rect1396-6-9-5"
         width="8.4666672"
         height="8.46667"
         x="16.933332"
         y="296.99997"
         ry="1.8892064e-06" />
      <path
         fill-rule="evenodd"
         clip-rule="evenodd"
         d="m 24.340386,301.27553 v -0.043 c 0,0.43835 -0.355277,0.79375 -0.793452,0.79375 h -0.396727 c -0.219087,0 -0.396713,0.1777 -0.396713,0.39687 v 0.19844 c 0,0.10959 -0.08881,0.19844 -0.198363,0.19844 -0.109538,0 -0.198363,-0.0888 -0.198363,-0.19844 v -0.19844 c 0,-0.43834 0.355277,-0.79375 0.793452,-0.79375 h 0.396726 c 0.219088,0 0.396714,-0.1777 0.396714,-0.39687 0,0 0.0016,-5.8e-4 0.004,-10e-4 -2.91e-4,-0.10115 -0.03894,-0.20212 -0.116024,-0.27925 l -2.384512,-2.38542 c -0.154967,-0.15498 -0.406015,-0.15498 -0.560983,0 l -2.384511,2.38542 c -0.07709,0.0771 -0.115641,0.17809 -0.116025,0.27905 0.0023,9.8e-4 0.004,0.002 0.004,0.002 0,0.21918 0.177627,0.39688 0.396714,0.39688 h 0.396727 c 0.438187,0 0.793452,0.3554 0.793452,0.79375 v 1.19061 c 0,0.21917 0.177639,0.39687 0.396726,0.39687 h 1.388542 c 0.10955,0 0.198363,0.0889 0.198363,0.19844 0,0.10959 -0.08881,0.19844 -0.198363,0.19844 h -1.388554 c -0.438175,0 -0.793453,-0.3554 -0.793453,-0.79375 v -1.19063 c 0,-0.21917 -0.177626,-0.39687 -0.396726,-0.39687 h -0.396714 c -0.438227,0 -0.793445,-0.3554 -0.793445,-0.79375 v 0.043 c -0.01177,-0.21724 0.06232,-0.43834 0.228242,-0.60423 l 2.384552,-2.38541 c 0.15488,-0.15501 0.357931,-0.22838 0.560995,-0.22838 0.203064,0 0.406115,0.0734 0.560983,0.22838 l 2.384512,2.38541 c 0.165918,0.16589 0.240097,0.38699 0.22829,0.60423 z m -1.785255,1.94135 c 0.10955,0 0.198363,0.0889 0.198363,0.19844 0,0.10959 -0.08881,0.19844 -0.198363,0.19844 -0.109538,0 -0.198363,-0.0889 -0.198363,-0.19844 0,-0.10958 0.08883,-0.19844 0.198363,-0.19844 z"
         id="path2-3-6"
         style="display:none;fill:#ffaa00;fill-opacity:1;stroke-width:0.0124023" />
      <path
         id="path5-6-3"
         style="color:#dedede;display:none;fill:#ffaa00;fill-opacity:1;stroke-width:0.423162"
         class="ColorScheme-Text"
         d="m 21.166663,298.0596 c -1.752795,0 -3.173716,1.42092 -3.173716,3.17372 0,1.75279 1.420921,3.17371 3.173716,3.17371 1.752796,0 3.173717,-1.42093 3.173717,-3.17372 0,-1.75279 -1.420921,-3.17372 -3.173717,-3.17371 z m 0,0.42316 c 1.51909,0 2.750555,1.23147 2.750555,2.75056 0,1.51909 -1.231465,2.75055 -2.750555,2.75055 -1.519089,0 -2.750554,-1.23147 -2.750554,-2.75055 0,-1.51909 1.231465,-2.75056 2.750554,-2.75056 z m 1e-6,4.23154 c 0.117215,0 0.211581,-0.0944 0.211581,-0.21158 v -2.02821 l 0.536391,0.53639 c 0.08288,0.0829 0.216304,0.0829 0.299189,0 0.08288,-0.0829 0.08288,-0.2163 0,-0.29919 l -0.897567,-0.89757 c -0.01989,-0.0199 -0.04368,-0.0356 -0.07025,-0.0463 -0.05092,-0.0207 -0.107762,-0.0207 -0.158685,0 -0.02657,0.0107 -0.05036,0.0264 -0.07025,0.0463 l -0.897567,0.89757 c -0.08288,0.0829 -0.08288,0.21631 0,0.29919 0.08289,0.0829 0.216304,0.0829 0.299189,0 l 0.536391,-0.53639 v 2.02821 c 0,0.11721 0.09437,0.21158 0.211582,0.21158 z" />
      <path
         id="path5-6-36-3-6"
         style="color:#dedede;display:inline;fill:#ffaa00;fill-opacity:1;stroke-width:0.403193"
         class="ColorScheme-Text"
         d="M 21.16615 298.05937 C 19.413356 298.05937 17.9927 299.48054 17.9927 301.23333 C 17.9927 302.98612 19.413356 304.40678 21.16615 304.40678 C 22.918944 304.40678 24.340116 302.98612 24.340116 301.23333 C 24.340116 299.48055 22.918944 298.05936 21.16615 298.05937 z M 21.148063 299.40916 L 21.149613 299.40967 C 21.158933 299.40934 21.166633 299.40967 21.165633 299.40967 L 21.167183 299.40967 C 21.216534 299.40977 21.266405 299.41919 21.313945 299.43809 C 21.366676 299.45949 21.410826 299.49059 21.444686 299.52439 A 0.14818532 0.14818532 0 0 1 21.446753 299.52853 L 22.477698 300.60857 L 22.479765 300.6127 C 22.559532 300.6944 22.594452 300.80562 22.587252 300.91346 C 22.594713 301.02301 22.561008 301.1367 22.477698 301.2199 C 22.395585 301.30203 22.28729 301.33514 22.183142 301.33514 C 22.082452 301.33514 21.978908 301.30033 21.897888 301.22403 C 21.893438 301.22103 21.888436 301.21876 21.883936 301.21576 C 21.858346 301.20106 21.832528 301.187 21.810038 301.1646 L 21.610567 300.96565 L 21.610567 302.66477 C 21.610567 302.88409 21.415529 303.04004 21.202323 303.05544 C 21.202323 303.05544 21.189783 303.05751 21.165633 303.05751 C 21.145793 303.05751 21.135944 303.05597 21.132044 303.05544 C 20.918126 303.04083 20.722249 302.88474 20.722249 302.66477 L 20.722249 300.96772 L 20.524845 301.1646 C 20.502565 301.1869 20.476748 301.19753 20.452498 301.21163 A 0.14818532 0.14818532 0 0 1 20.446814 301.2199 C 20.445814 301.22097 20.44378 301.22096 20.44268 301.22196 C 20.42578 301.23396 20.434055 301.22658 20.434928 301.22558 C 20.435728 301.22458 20.436201 301.22466 20.436995 301.22403 C 20.435395 301.22503 20.432394 301.22476 20.430794 301.22558 C 20.350165 301.29881 20.250641 301.33462 20.151742 301.33462 C 20.047335 301.33462 19.937589 301.30188 19.855119 301.21938 C 19.773023 301.13734 19.738265 301.02427 19.745565 300.91501 C 19.738342 300.8072 19.773252 300.69595 19.853052 300.61425 L 20.888131 299.52801 A 0.14818532 0.14818532 0 0 1 20.890198 299.52439 C 20.92384 299.49059 20.966642 299.45939 21.018872 299.43809 C 21.060106 299.42109 21.103573 299.41116 21.148063 299.40916 z " />
    </g>
    <g
       id="22-22-update-none">
      <rect
         style="opacity:0.003;fill:#000000;fill-opacity:1;stroke:none;stroke-width:0.10795;stroke-miterlimit:4;stroke-dasharray:none;stroke-opacity:1"
         id="rect1396"
         width="5.8208332"
         height="5.8208332"
         x="0"
         y="291.17914"
         ry="1.2988289e-06" />
      <path
         class="success"
         d="m 2.8801641,291.74459 c -0.4338041,0.009 -0.8690906,0.14362 -1.2520419,0.41153 -1.02116142,0.71436 -1.26800342,2.11329 -0.5529516,3.13354 0.7150194,1.02025 2.1146175,1.26686 3.1357788,0.55245 0.734367,-0.51372 1.067982,-1.37956 0.932097,-2.20794 -0.03167,-0.19355 -0.0919,-0.37371 -0.170044,-0.54807 l -2.0481267,2.3382 -0.2216905,0.26177 -0.2519169,-0.24163 -0.9673757,-0.9665 c -0.1213706,-0.12127 -0.1213606,-0.34184 0,-0.4631 0.1213613,-0.12128 0.3421934,-0.12128 0.463534,0 l 0.7255314,0.72485 1.9422964,-2.22052 c -0.347223,-0.3999 -0.8091125,-0.6541 -1.3036998,-0.74126 -0.1422228,-0.0251 -0.2868134,-0.036 -0.4314169,-0.0334 z"
         color="#000000"
         enable-background="accumulate"
         fill="url(#linearGradient1045)"
         id="path7-3-3-6-1-0"
         style="display:inline;fill-opacity:1;stroke:#73e500;stroke-width:0.0264583;stroke-miterlimit:4;stroke-dasharray:none;stroke-opacity:1" />
    </g>
    <g
       id="22-22-update-high">
      <rect
         style="opacity:0.003;fill:#000000;fill-opacity:1;stroke:none;stroke-width:0.10795;stroke-miterlimit:4;stroke-dasharray:none;stroke-opacity:1"
         id="rect1396-3"
         width="5.8208332"
         height="5.8208332"
         x="5.8208332"
         y="291.17914"
         ry="1.2988288e-06" />
      <path
         fill-rule="evenodd"
         clip-rule="evenodd"
         d="m 10.979464,294.11997 v -0.0307 c 0,0.31047 -0.251659,0.56225 -0.56204,0.56225 h -0.281021 c -0.1551866,0 -0.2810112,0.12587 -0.2810112,0.28108 v 0.14059 c 0,0.0781 -0.06291,0.14058 -0.1405091,0.14058 -0.07763,0 -0.140508,-0.0632 -0.140508,-0.14058 v -0.14059 c 0,-0.31048 0.2516561,-0.56225 0.5620373,-0.56225 h 0.281019 c 0.155192,0 0.281013,-0.12586 0.281013,-0.28108 0,0 0.0011,-4.4e-4 0.0027,-7.6e-4 -2.05e-4,-0.0714 -0.02756,-0.14314 -0.08215,-0.19776 l -1.6890403,-1.68973 c -0.10977,-0.10971 -0.287599,-0.10971 -0.39737,0 l -1.6890521,1.68977 c -0.05459,0.0544 -0.08189,0.12612 -0.08215,0.19762 0.0015,7.4e-4 0.0027,10e-4 0.0027,10e-4 0,0.15522 0.125821,0.2811 0.281011,0.2811 h 0.281022 c 0.3103901,0 0.5620401,0.25176 0.5620401,0.56224 v 0.8434 c 0,0.15523 0.12583,0.28111 0.281022,0.28111 h 0.98357 c 0.07763,0 0.14051,0.0633 0.14051,0.14056 0,0.0781 -0.06291,0.14059 -0.14051,0.14059 h -0.983579 c -0.310382,0 -0.562042,-0.25177 -0.562042,-0.56226 v -0.84341 c 0,-0.15523 -0.125821,-0.28108 -0.2810211,-0.28108 h -0.281017 c -0.310416,0 -0.562034,-0.25177 -0.562034,-0.56226 v 0.0307 c -0.0078,-0.15393 0.04415,-0.31053 0.161672,-0.42803 l 1.6890971,-1.68972 c 0.109708,-0.10974 0.253539,-0.16175 0.397379,-0.16175 0.143841,0 0.287674,0.0519 0.397369,0.16175 l 1.6890673,1.68972 c 0.117528,0.1175 0.170073,0.2741 0.161709,0.42803 z m -1.2645813,1.37511 c 0.07763,0 0.1405101,0.0633 0.1405101,0.1406 0,0.0781 -0.06291,0.14057 -0.1405101,0.14057 -0.07763,0 -0.140508,-0.0633 -0.140508,-0.14057 0,-0.0781 0.06292,-0.1406 0.140508,-0.1406 z"
         id="path2-3-6-7-5"
         style="display:none;fill:#ff3e00;fill-opacity:1;stroke-width:0.00878515" />
      <path
         id="path5-6-5-5"
         style="color:#dedede;display:none;fill:#ff3e00;fill-opacity:1;stroke-width:0.299762"
         class="ColorScheme-Text"
         d="m 8.7312498,291.84129 c -1.241656,0 -2.248216,1.00656 -2.248216,2.24822 0,1.24165 1.00656,2.24821 2.248216,2.24821 1.241655,0 2.2482152,-1.00656 2.2482152,-2.24821 0,-1.24166 -1.0065602,-2.24822 -2.2482152,-2.24822 z m 0,0.29976 c 1.076101,0 1.9484532,0.87235 1.9484532,1.94846 0,1.0761 -0.8723522,1.94845 -1.9484532,1.94845 -1.076102,0 -1.948454,-0.87235 -1.948454,-1.94845 0,-1.07611 0.872352,-1.94846 1.948454,-1.94846 z m 0,2.99757 c 0.08303,0 0.149881,-0.0668 0.149881,-0.14989 v -1.43675 l 0.379972,0.37998 c 0.05871,0.0587 0.153226,0.0587 0.211941,0 0.05871,-0.0587 0.05871,-0.15323 0,-0.21195 l -0.635824,-0.63582 c -0.01409,-0.0141 -0.03095,-0.0252 -0.04977,-0.0328 -0.03607,-0.0147 -0.07634,-0.0147 -0.112411,0 -0.01882,0.008 -0.03567,0.0187 -0.04976,0.0328 l -0.635824,0.63582 c -0.05871,0.0587 -0.05871,0.15323 0,0.21195 0.05871,0.0587 0.153227,0.0587 0.211942,0 l 0.379972,-0.37998 v 1.43675 c 0,0.083 0.06685,0.14989 0.149881,0.14989 z" />
      <path
         id="path5-6-36-3-35-9-1"
         style="color:#dedede;display:inline;fill:#ff3e00;fill-opacity:1;stroke-width:0.286059"
         class="ColorScheme-Text"
         d="M 8.73125 291.83804 C 7.4876708 291.83804 6.4797079 292.84599 6.4797079 294.08958 C 6.4797079 295.33315 7.4876708 296.34113 8.73125 296.34113 C 9.9748287 296.34113 10.982792 295.33315 10.982792 294.08958 C 10.982792 292.846 9.9748287 291.83804 8.73125 291.83804 z M 8.7183309 292.81473 L 8.7183309 292.81524 L 8.7188477 292.81524 C 8.7253177 292.81501 8.7309065 292.81524 8.7302165 292.81524 L 8.73125 292.81524 C 8.765737 292.81534 8.8008662 292.82271 8.8340861 292.83591 C 8.8709461 292.85081 8.9013767 292.87226 8.9250366 292.89586 A 0.10355582 0.10355582 0 0 1 8.9265869 292.89896 L 9.6469564 293.65395 L 9.6485067 293.65705 C 9.7042466 293.71415 9.7290543 293.79197 9.7239543 293.86737 C 9.7291543 293.94387 9.7056831 294.02363 9.6474732 294.08183 C 9.5900932 294.13933 9.5140641 294.16193 9.4412842 294.16193 C 9.3709243 294.16193 9.2984331 294.13772 9.2418132 294.08442 C 9.2387132 294.08342 9.2355114 294.08021 9.2325114 294.07821 C 9.2146314 294.06801 9.196545 294.05784 9.180835 294.04204 L 9.0413086 293.90303 L 9.0413086 295.09056 C 9.0413086 295.24383 8.9050486 295.35271 8.7560547 295.36341 C 8.7560547 295.36341 8.7471465 295.36444 8.7302165 295.36444 C 8.7163665 295.36444 8.7096621 295.36341 8.7069621 295.36341 C 8.5574712 295.35321 8.4206747 295.24428 8.4206747 295.09056 L 8.4206747 293.90458 L 8.2826986 294.04204 C 8.2671286 294.05764 8.2489957 294.06511 8.2320557 294.07511 A 0.10355582 0.10355582 0 0 1 8.2284383 294.08132 C 8.2276383 294.08203 8.2265545 294.08153 8.2258545 294.08183 C 8.2140545 294.09083 8.2190533 294.08593 8.2196533 294.08493 C 8.2200533 294.08453 8.2206836 294.08418 8.2212036 294.0839 C 8.2200036 294.08446 8.2182695 294.08465 8.2170695 294.08493 C 8.1607296 294.13613 8.0913693 294.16141 8.0222494 294.16141 C 7.9492894 294.16141 7.8721401 294.1384 7.8145101 294.0808 C 7.7571302 294.0235 7.732929 293.94419 7.738029 293.86789 C 7.733029 293.79249 7.7577066 293.71467 7.8134766 293.65757 L 8.5364299 292.89844 A 0.10355582 0.10355582 0 0 1 8.5384969 292.89534 C 8.5620069 292.87184 8.591924 292.84978 8.6284139 292.83488 C 8.6570639 292.82268 8.6874309 292.81573 8.7183309 292.81473 z " />
    </g>
    <g
       id="22-22-update-medium">
      <rect
         style="opacity:0.003;fill:#000000;fill-opacity:1;stroke:none;stroke-width:0.10795;stroke-miterlimit:4;stroke-dasharray:none;stroke-opacity:1"
         id="rect1396-3-1"
         width="5.8208332"
         height="5.8208332"
         x="11.641666"
         y="291.17914"
         ry="1.2988288e-06" />
      <path
         fill-rule="evenodd"
         clip-rule="evenodd"
         d="m 16.800298,294.11997 v -0.0307 c 0,0.31047 -0.251659,0.56225 -0.56204,0.56225 h -0.281021 c -0.155188,0 -0.281012,0.12587 -0.281012,0.28108 v 0.14059 c 0,0.0781 -0.06291,0.14058 -0.14051,0.14058 -0.07763,0 -0.140508,-0.0632 -0.140508,-0.14058 v -0.14059 c 0,-0.31048 0.251656,-0.56225 0.562039,-0.56225 h 0.281019 c 0.155192,0 0.281013,-0.12586 0.281013,-0.28108 0,0 0.0011,-4.4e-4 0.0027,-7.6e-4 -2.05e-4,-0.0714 -0.02756,-0.14314 -0.08215,-0.19776 l -1.689042,-1.68973 c -0.10977,-0.10971 -0.287599,-0.10971 -0.39737,0 l -1.689052,1.68977 c -0.05459,0.0544 -0.08189,0.12612 -0.08215,0.19762 0.0015,7.4e-4 0.0027,10e-4 0.0027,10e-4 0,0.15522 0.125821,0.2811 0.281011,0.2811 h 0.281022 c 0.31039,0 0.56204,0.25176 0.56204,0.56224 v 0.8434 c 0,0.15523 0.12583,0.28111 0.281022,0.28111 h 0.98357 c 0.07763,0 0.14051,0.0633 0.14051,0.14056 0,0.0781 -0.06291,0.14059 -0.14051,0.14059 H 13.99 c -0.310382,0 -0.562042,-0.25177 -0.562042,-0.56226 v -0.84341 c 0,-0.15523 -0.125821,-0.28108 -0.281021,-0.28108 H 12.86592 c -0.310416,0 -0.562034,-0.25177 -0.562034,-0.56226 v 0.0307 c -0.0078,-0.15393 0.04415,-0.31053 0.161672,-0.42803 l 1.689097,-1.68972 c 0.109708,-0.10974 0.253539,-0.16175 0.397379,-0.16175 0.143841,0 0.287674,0.0519 0.397369,0.16175 l 1.689069,1.68972 c 0.117528,0.1175 0.170073,0.2741 0.161709,0.42803 z m -1.264583,1.37511 c 0.07763,0 0.14051,0.0633 0.14051,0.1406 0,0.0781 -0.06291,0.14057 -0.14051,0.14057 -0.07763,0 -0.140508,-0.0633 -0.140508,-0.14057 0,-0.0781 0.06292,-0.1406 0.140508,-0.1406 z"
         id="path2-3-6-7-3"
         style="display:none;fill:#ffa800;fill-opacity:1;stroke-width:0.00878515" />
      <path
         id="path5-6-5-7"
         style="color:#dedede;display:none;fill:#ffa800;fill-opacity:1;stroke-width:0.299762"
         class="ColorScheme-Text"
         d="m 14.552083,291.84129 c -1.241656,0 -2.248216,1.00656 -2.248216,2.24822 0,1.24165 1.00656,2.24821 2.248216,2.24821 1.241655,0 2.248215,-1.00656 2.248215,-2.24821 0,-1.24166 -1.00656,-2.24822 -2.248215,-2.24822 z m 0,0.29976 c 1.076101,0 1.948453,0.87235 1.948453,1.94846 0,1.0761 -0.872352,1.94845 -1.948453,1.94845 -1.076102,0 -1.948454,-0.87235 -1.948454,-1.94845 0,-1.07611 0.872352,-1.94846 1.948454,-1.94846 z m 0,2.99757 c 0.08303,0 0.149881,-0.0668 0.149881,-0.14989 v -1.43675 l 0.379972,0.37998 c 0.05871,0.0587 0.153226,0.0587 0.211941,0 0.05871,-0.0587 0.05871,-0.15323 0,-0.21195 l -0.635824,-0.63582 c -0.01409,-0.0141 -0.03095,-0.0252 -0.04977,-0.0328 -0.03607,-0.0147 -0.07634,-0.0147 -0.112411,0 -0.01882,0.008 -0.03567,0.0187 -0.04976,0.0328 l -0.635824,0.63582 c -0.05871,0.0587 -0.05871,0.15323 0,0.21195 0.05871,0.0587 0.153227,0.0587 0.211942,0 l 0.379972,-0.37998 v 1.43675 c 0,0.083 0.06685,0.14989 0.149881,0.14989 z" />
      <path
         id="path5-6-36-3-35-9"
         style="color:#dedede;display:inline;fill:#ffaa00;fill-opacity:1;stroke-width:0.286059"
         class="ColorScheme-Text"
         d="M 14.552083 291.83804 C 13.308505 291.83804 12.300541 292.84599 12.300541 294.08958 C 12.300541 295.33315 13.308505 296.34113 14.552083 296.34113 C 15.795662 296.34113 16.803626 295.33315 16.803626 294.08958 C 16.803626 292.846 15.795662 291.83804 14.552083 291.83804 z M 14.539164 292.81473 L 14.539164 292.81524 L 14.539681 292.81524 C 14.546151 292.81501 14.55174 292.81524 14.55105 292.81524 L 14.552083 292.81524 C 14.58657 292.81534 14.6217 292.82271 14.654919 292.83591 C 14.691779 292.85081 14.72221 292.87226 14.74587 292.89586 A 0.10355582 0.10355582 0 0 1 14.74742 292.89896 L 15.46779 293.65395 L 15.46934 293.65705 C 15.52508 293.71415 15.549888 293.79197 15.544788 293.86737 C 15.549988 293.94387 15.526516 294.02363 15.468307 294.08183 C 15.410927 294.13933 15.334897 294.16193 15.262118 294.16193 C 15.191758 294.16193 15.119266 294.13772 15.062647 294.08442 C 15.059547 294.08342 15.056345 294.08021 15.053345 294.07821 C 15.035465 294.06801 15.017378 294.05784 15.001668 294.04204 L 14.862142 293.90303 L 14.862142 295.09056 C 14.862142 295.24383 14.725882 295.35271 14.576888 295.36341 C 14.576888 295.36341 14.56798 295.36444 14.55105 295.36444 C 14.5372 295.36444 14.530495 295.36341 14.527795 295.36341 C 14.378305 295.35321 14.241508 295.24428 14.241508 295.09056 L 14.241508 293.90458 L 14.103532 294.04204 C 14.087962 294.05764 14.069829 294.06511 14.052889 294.07511 A 0.10355582 0.10355582 0 0 1 14.049272 294.08132 C 14.048472 294.08203 14.047388 294.08153 14.046688 294.08183 C 14.034888 294.09083 14.039887 294.08593 14.040487 294.08493 C 14.040887 294.08453 14.041517 294.08418 14.042037 294.0839 C 14.040837 294.08446 14.039103 294.08465 14.037903 294.08493 C 13.981563 294.13613 13.912203 294.16141 13.843083 294.16141 C 13.770123 294.16141 13.692973 294.1384 13.635343 294.0808 C 13.577964 294.0235 13.553762 293.94419 13.558862 293.86789 C 13.553862 293.79249 13.57854 293.71467 13.63431 293.65757 L 14.357263 292.89844 A 0.10355582 0.10355582 0 0 1 14.35933 292.89534 C 14.38284 292.87184 14.412757 292.84978 14.449247 292.83488 C 14.477897 292.82268 14.508264 292.81573 14.539164 292.81473 z " />
    </g>
    <g
       id="22-22-update-low">
      <rect
         style="display:inline;opacity:0.003;fill:#000000;fill-opacity:1;stroke:none;stroke-width:0.10795;stroke-miterlimit:4;stroke-dasharray:none;stroke-opacity:1"
         id="rect1396-3-2"
         width="5.8208332"
         height="5.8208332"
         x="17.4625"
         y="291.17914"
         ry="1.2988288e-06" />
      <path
         fill-rule="evenodd"
         clip-rule="evenodd"
         d="m 22.621132,294.11997 v -0.0307 c 0,0.31047 -0.251659,0.56225 -0.56204,0.56225 h -0.281021 c -0.155188,0 -0.281013,0.12587 -0.281013,0.28108 v 0.14059 c 0,0.0781 -0.06291,0.14058 -0.140509,0.14058 -0.07763,0 -0.140508,-0.0632 -0.140508,-0.14058 v -0.14059 c 0,-0.31048 0.251656,-0.56225 0.562039,-0.56225 h 0.281019 c 0.155192,0 0.281013,-0.12586 0.281013,-0.28108 0,0 0.0011,-4.4e-4 0.0027,-7.6e-4 -2.05e-4,-0.0714 -0.02756,-0.14314 -0.08215,-0.19776 l -1.689042,-1.68973 c -0.10977,-0.10971 -0.287599,-0.10971 -0.39737,0 l -1.689052,1.68977 c -0.05459,0.0544 -0.08189,0.12612 -0.08215,0.19762 0.0015,7.4e-4 0.0027,10e-4 0.0027,10e-4 0,0.15522 0.125821,0.2811 0.281011,0.2811 h 0.281022 c 0.31039,0 0.56204,0.25176 0.56204,0.56224 v 0.8434 c 0,0.15523 0.12583,0.28111 0.281022,0.28111 h 0.98357 c 0.07763,0 0.14051,0.0633 0.14051,0.14056 0,0.0781 -0.06291,0.14059 -0.14051,0.14059 h -0.983579 c -0.310382,0 -0.562042,-0.25177 -0.562042,-0.56226 v -0.84341 c 0,-0.15523 -0.125821,-0.28108 -0.281021,-0.28108 h -0.281017 c -0.310416,0 -0.562034,-0.25177 -0.562034,-0.56226 v 0.0307 c -0.0078,-0.15393 0.04415,-0.31053 0.161672,-0.42803 l 1.689097,-1.68972 c 0.109708,-0.10974 0.253539,-0.16175 0.397379,-0.16175 0.143841,0 0.287674,0.0519 0.397369,0.16175 l 1.689069,1.68972 c 0.117528,0.1175 0.170073,0.2741 0.161709,0.42803 z m -1.264583,1.37511 c 0.07763,0 0.140509,0.0633 0.140509,0.1406 0,0.0781 -0.06291,0.14057 -0.140509,0.14057 -0.07763,0 -0.140508,-0.0633 -0.140508,-0.14057 0,-0.0781 0.06292,-0.1406 0.140508,-0.1406 z"
         id="path2-3-6-7-56"
         style="display:none;fill:#84e500;fill-opacity:1;stroke-width:0.00878515" />
      <path
         fill-rule="evenodd"
         clip-rule="evenodd"
         d="m 22.621132,294.12002 v -0.0307 c 0,0.31047 -0.251659,0.56225 -0.56204,0.56225 h -0.281021 c -0.155188,0 -0.281013,0.12587 -0.281013,0.28108 v 0.14059 c 0,0.0781 -0.06291,0.14058 -0.140509,0.14058 -0.07763,0 -0.140508,-0.0632 -0.140508,-0.14058 v -0.14059 c 0,-0.31048 0.251656,-0.56225 0.562039,-0.56225 h 0.281019 c 0.155192,0 0.281013,-0.12586 0.281013,-0.28108 0,0 0.0011,-4.4e-4 0.0027,-7.6e-4 -2.05e-4,-0.0714 -0.02756,-0.14314 -0.08215,-0.19776 l -1.689042,-1.68973 c -0.10977,-0.10971 -0.287599,-0.10971 -0.39737,0 l -1.689052,1.68977 c -0.05459,0.0544 -0.08189,0.12612 -0.08215,0.19762 0.0015,7.4e-4 0.0027,10e-4 0.0027,10e-4 0,0.15522 0.125821,0.2811 0.281011,0.2811 h 0.281022 c 0.31039,0 0.56204,0.25176 0.56204,0.56224 v 0.8434 c 0,0.15523 0.12583,0.28111 0.281022,0.28111 h 0.98357 c 0.07763,0 0.14051,0.0633 0.14051,0.14056 0,0.0781 -0.06291,0.14059 -0.14051,0.14059 h -0.983579 c -0.310382,0 -0.562042,-0.25177 -0.562042,-0.56226 v -0.84341 c 0,-0.15523 -0.125821,-0.28108 -0.281021,-0.28108 h -0.281017 c -0.310416,0 -0.562034,-0.25177 -0.562034,-0.56226 v 0.0307 c -0.0078,-0.15393 0.04415,-0.31053 0.161672,-0.42803 l 1.689097,-1.68972 c 0.109708,-0.10974 0.253539,-0.16175 0.397379,-0.16175 0.143841,0 0.287674,0.0519 0.397369,0.16175 l 1.689069,1.68972 c 0.117528,0.1175 0.170073,0.2741 0.161709,0.42803 z m -1.264583,1.37511 c 0.07763,0 0.140509,0.0633 0.140509,0.1406 0,0.0781 -0.06291,0.14057 -0.140509,0.14057 -0.07763,0 -0.140508,-0.0633 -0.140508,-0.14057 0,-0.0781 0.06292,-0.1406 0.140508,-0.1406 z"
         id="path863"
         style="display:none;fill:#a7b4d0;fill-opacity:1;stroke-width:0.00878515" />
      <path
         id="path5-6-5"
         style="color:#dedede;display:none;fill:#dedede;fill-opacity:1;stroke-width:0.299762"
         class="ColorScheme-Text"
         d="m 20.372917,291.84134 c -1.241656,0 -2.248216,1.00656 -2.248216,2.24822 0,1.24165 1.00656,2.24821 2.248216,2.24821 1.241655,0 2.248215,-1.00656 2.248215,-2.24821 0,-1.24166 -1.00656,-2.24822 -2.248215,-2.24822 z m 0,0.29976 c 1.076101,0 1.948453,0.87235 1.948453,1.94846 0,1.0761 -0.872352,1.94845 -1.948453,1.94845 -1.076102,0 -1.948454,-0.87235 -1.948454,-1.94845 0,-1.07611 0.872352,-1.94846 1.948454,-1.94846 z m 0,2.99757 c 0.08303,0 0.149881,-0.0668 0.149881,-0.14989 v -1.43675 l 0.379972,0.37998 c 0.05871,0.0587 0.153226,0.0587 0.211941,0 0.05871,-0.0587 0.05871,-0.15323 0,-0.21195 l -0.635824,-0.63582 c -0.01409,-0.0141 -0.03095,-0.0252 -0.04977,-0.0328 -0.03607,-0.0147 -0.07634,-0.0147 -0.112411,0 -0.01882,0.008 -0.03567,0.0187 -0.04976,0.0328 l -0.635824,0.63582 c -0.05871,0.0587 -0.05871,0.15323 0,0.21195 0.05871,0.0587 0.153227,0.0587 0.211942,0 l 0.379972,-0.37998 v 1.43675 c 0,0.083 0.06685,0.14989 0.149881,0.14989 z" />
      <path
         id="path5-6-36-6"
         style="color:#dedede;display:none;fill:#a7b4d0;fill-opacity:1;stroke-width:1.07949"
         class="ColorScheme-Text"
         d="m 77,-19.498047 c -4.692873,0 -8.498047,3.805159 -8.498047,8.498047 0,4.6928504 3.805174,8.4980469 8.498047,8.4980469 4.692877,0 8.498047,-3.8051965 8.498047,-8.4980469 0,-4.69285 -3.80517,-8.498085 -8.498047,-8.498047 z m 0.002,1.646485 c 3.964566,0 7.179688,3.071494 7.179688,6.859374 0,3.7878808 -3.215122,6.8574224 -7.179688,6.8574224 -3.964566,0 -7.177734,-3.0695416 -7.177734,-6.8574224 0,-3.78788 3.213168,-6.859374 7.177734,-6.859374 z M 77,-14.964844 c -0.07213,0 -0.144706,0.01324 -0.212891,0.04102 -0.07113,0.02646 -0.134246,0.07209 -0.1875,0.125 l -2.402343,2.402344 c -0.127404,0.127382 -0.181007,0.299422 -0.16211,0.464843 -0.01878,0.165292 0.0348,0.335556 0.16211,0.462891 0.221933,0.221858 0.578866,0.221858 0.800781,0 l 1.3125,-1.3125 v 5.1796875 c 0,0.2977179 0.276973,0.540018 0.630859,0.5644531 0.01909,0.00192 0.03898,0.00195 0.05859,0.00195 0.01961,0 0.03951,-2.74e-5 0.05859,-0.00195 0.353871,-0.024442 0.630859,-0.2668068 0.630859,-0.5644531 V -12.78125 l 1.3125,1.3125 c 0.221896,0.221858 0.578866,0.221858 0.800781,0 0.127313,-0.127508 0.180888,-0.297659 0.16211,-0.462891 0.0189,-0.165377 -0.03471,-0.337418 -0.16211,-0.464843 l -2.402343,-2.402344 c -0.05325,-0.05329 -0.11637,-0.09628 -0.1875,-0.125 -0.06816,-0.02778 -0.140763,-0.04102 -0.212891,-0.04102 z"
         transform="matrix(0.26458333,0,0,0.26458333,0,297)" />
      <path
         id="path1695"
         style="color:#dedede;display:inline;fill:#a7b4d0;fill-opacity:1;stroke-width:0.281762"
         class="ColorScheme-Text"
         d="m 20.372735,291.87172 c -1.2249,0 -2.217692,0.99316 -2.217692,2.21805 0,1.2249 0.992792,2.21769 2.217692,2.21769 1.224899,0 2.218052,-0.99279 2.218052,-2.21769 0,-1.22489 -0.993153,-2.21805 -2.218052,-2.21805 z m -0.01263,0.94326 h 0.0011 c 0.0065,-2.3e-4 0.01188,0 0.01119,0 h 0.0011 c 0.03449,1.2e-4 0.06934,0.007 0.10256,0.0202 0.03686,0.0149 0.06771,0.0367 0.09137,0.0603 a 0.10355582,0.10355582 0 0 1 0.0015,0.003 l 0.720451,0.75476 0.0015,0.003 c 0.05574,0.0571 0.08017,0.13482 0.07512,0.21018 0.0052,0.0765 -0.01835,0.156 -0.07656,0.21415 -0.05738,0.0575 -0.133064,0.0805 -0.205845,0.0805 -0.07036,0 -0.142726,-0.0243 -0.199344,-0.0776 -0.0031,-9.8e-4 -0.0067,-0.004 -0.0097,-0.006 -0.01788,-0.0102 -0.03593,-0.02 -0.05164,-0.0358 l -0.139397,-0.13903 v 1.18739 c 0,0.15327 -0.136297,0.26227 -0.285291,0.27301 -2e-6,0 -0.0087,9.8e-4 -0.02563,9.8e-4 -0.01385,0 -0.02075,-9.8e-4 -0.02348,-9.8e-4 -0.149491,-0.0102 -0.286375,-0.11929 -0.286375,-0.27301 v -1.18595 l -0.137951,0.13759 c -0.01557,0.0156 -0.03362,0.023 -0.05056,0.0329 a 0.10355582,0.10355582 0 0 1 -0.004,0.006 c -7.68e-4,7.1e-4 -0.0021,6.8e-4 -0.0028,9.8e-4 -0.01178,0.009 -0.006,0.004 -0.0054,0.003 4.71e-4,-4.4e-4 9.8e-4,-7e-4 0.0015,-9.8e-4 -0.0012,6e-4 -0.0031,7e-4 -0.0043,9.8e-4 -0.05634,0.0512 -0.125893,0.0761 -0.195009,0.0761 -0.07296,0 -0.149655,-0.0229 -0.207286,-0.0805 -0.05738,-0.0573 -0.08168,-0.13636 -0.07656,-0.21271 -0.005,-0.0754 0.01935,-0.15308 0.07512,-0.21016 l 0.723341,-0.75911 a 0.10355582,0.10355582 0 0 1 0.0015,-0.003 c 0.02351,-0.0235 0.05342,-0.0454 0.08991,-0.0603 0.02881,-0.0119 0.0592,-0.0189 0.09028,-0.0201 z" />
    </g>
  </g>
</svg>
