<?xml version="1.0" encoding="UTF-8" standalone="no"?>
<svg
   xmlns:dc="http://purl.org/dc/elements/1.1/"
   xmlns:cc="http://creativecommons.org/ns#"
   xmlns:rdf="http://www.w3.org/1999/02/22-rdf-syntax-ns#"
   xmlns:svg="http://www.w3.org/2000/svg"
   xmlns="http://www.w3.org/2000/svg"
   xmlns:xlink="http://www.w3.org/1999/xlink"
   xmlns:sodipodi="http://sodipodi.sourceforge.net/DTD/sodipodi-0.dtd"
   xmlns:inkscape="http://www.inkscape.org/namespaces/inkscape"
   sodipodi:docname="update.svg"
   inkscape:version="1.0.2 (e86c870879, 2021-01-15)"
   id="svg846"
   version="1.1"
   viewBox="0 0 8.4666665 8.4666699"
   height="32.000011"
   width="32">
  <defs
     id="defs840">
    <linearGradient
       inkscape:collect="always"
       id="linearGradient1045">
      <stop
         style="stop-color:#12cc00;stop-opacity:1"
         offset="0"
         id="stop1041" />
      <stop
         style="stop-color:#84e500;stop-opacity:1"
         offset="1"
         id="stop1043" />
    </linearGradient>
    <linearGradient
       inkscape:collect="always"
       xlink:href="#linearGradient1045"
       id="linearGradient912"
       gradientUnits="userSpaceOnUse"
       x1="0.53845114"
       y1="293.99731"
       x2="5.300734"
       y2="293.99731" />
    <linearGradient
       inkscape:collect="always"
       xlink:href="#linearGradient1045"
       id="linearGradient920"
       x1="1.0882517"
       y1="301.21179"
       x2="7.3623495"
       y2="301.21179"
       gradientUnits="userSpaceOnUse" />
  </defs>
  <sodipodi:namedview
     inkscape:document-rotation="0"
     inkscape:snap-midpoints="true"
     inkscape:object-paths="true"
     inkscape:snap-intersection-paths="true"
     inkscape:snap-smooth-nodes="true"
     inkscape:window-maximized="1"
     inkscape:window-y="24"
     inkscape:window-x="0"
     inkscape:window-height="992"
     inkscape:window-width="1920"
     units="px"
     showgrid="false"
     inkscape:current-layer="update-none"
     inkscape:document-units="px"
     inkscape:cy="0.0097157236"
     inkscape:cx="55.737929"
     inkscape:zoom="8.0000004"
     inkscape:pageshadow="2"
     inkscape:pageopacity="0.0"
     borderopacity="1"
     bordercolor="#030303"
     pagecolor="#ffffff"
     id="base"
     inkscape:lockguides="true"
     inkscape:pagecheckerboard="0"
     inkscape:showpageshadow="false">
    <inkscape:grid
       id="grid1394"
       type="xygrid"
       originx="6.9999998e-06"
       originy="-5.8208287" />
  </sodipodi:namedview>
  <metadata
     id="metadata843">
    <rdf:RDF>
      <cc:Work
         rdf:about="">
        <dc:format>image/svg+xml</dc:format>
        <dc:type
           rdf:resource="http://purl.org/dc/dcmitype/StillImage" />
      </cc:Work>
    </rdf:RDF>
  </metadata>
  <style
     type="text/css"
     id="current-color-scheme" />
  <g
     transform="translate(0,-297)"
     id="layer1"
     inkscape:groupmode="layer"
     inkscape:label="Layer 1">
    <g
       id="g1462">
      <g
         id="update-none">
        <rect
           style="opacity:0.003;fill:#000000;fill-opacity:1;stroke:none;stroke-width:0.157018;stroke-miterlimit:4;stroke-dasharray:none;stroke-opacity:1"
           id="rect1396-6"
           width="8.4666672"
           height="8.46667"
           x="0"
           y="297"
           ry="1.8892064e-06" />
        <path
           class="success"
           d="m 4.1704908,298.07536 c -0.6039623,0.0119 -1.2099898,0.19998 -1.7431537,0.57296 -1.4217109,0.99456 -1.76537636,2.94224 -0.7698464,4.36268 0.9954849,1.42043 2.9440746,1.76377 4.3657854,0.76915 1.0224213,-0.71522 1.4868972,-1.9207 1.2977128,-3.074 -0.044085,-0.26949 -0.1279487,-0.52031 -0.2367451,-0.76305 l -2.8515027,3.25535 -0.3086481,0.36444 -0.3507316,-0.3364 -1.3468274,-1.34561 c -0.1689783,-0.16884 -0.1689646,-0.47593 0,-0.64475 0.1689646,-0.16885 0.4764178,-0.16885 0.6453549,0 l 1.0101204,1.00918 2.7041597,-3.09153 c -0.4834211,-0.55676 -1.1264863,-0.91066 -1.8150743,-1.032 -0.1980103,-0.0349 -0.3993163,-0.0503 -0.6006399,-0.0465 z"
           color="#000000"
           enable-background="accumulate"
           fill="#4caf50"
           id="path7-3"
           style="fill:url(#linearGradient920);fill-opacity:1;stroke-width:0.448736" />
      </g>
    </g>
    <g
       id="g1814">
      <g
         id="update-low">
        <rect
           style="opacity:0.003;fill:#000000;fill-opacity:1;stroke:none;stroke-width:0.157018;stroke-miterlimit:4;stroke-dasharray:none;stroke-opacity:1"
           id="rect1396-6-9-1"
           width="8.4666672"
           height="8.46667"
           x="25.4"
           y="296.99997"
           ry="1.8892064e-06" />
        <path
           fill-rule="evenodd"
           clip-rule="evenodd"
           d="m 32.80705,301.27553 v -0.043 c 0,0.43835 -0.355277,0.79375 -0.793452,0.79375 h -0.396727 c -0.219087,0 -0.396713,0.1777 -0.396713,0.39687 v 0.19844 c 0,0.10959 -0.08881,0.19844 -0.198363,0.19844 -0.109538,0 -0.198363,-0.0888 -0.198363,-0.19844 v -0.19844 c 0,-0.43834 0.355277,-0.79375 0.793452,-0.79375 h 0.396726 c 0.219088,0 0.396714,-0.1777 0.396714,-0.39687 0,0 0.0016,-5.8e-4 0.004,-10e-4 -2.91e-4,-0.10115 -0.03894,-0.20212 -0.116024,-0.27925 l -2.384512,-2.38542 c -0.154967,-0.15498 -0.406015,-0.15498 -0.560983,0 l -2.384511,2.38542 c -0.07709,0.0771 -0.11564,0.17809 -0.116024,0.27905 0.0023,9.8e-4 0.004,0.002 0.004,0.002 0,0.21918 0.177626,0.39688 0.396713,0.39688 h 0.396727 c 0.438187,0 0.793452,0.3554 0.793452,0.79375 v 1.19061 c 0,0.21917 0.177639,0.39687 0.396726,0.39687 h 1.388542 c 0.10955,0 0.198363,0.0889 0.198363,0.19844 0,0.10959 -0.08881,0.19844 -0.198363,0.19844 h -1.388554 c -0.438175,0 -0.793453,-0.3554 -0.793453,-0.79375 v -1.19063 c 0,-0.21917 -0.177626,-0.39687 -0.396726,-0.39687 h -0.396714 c -0.438225,0 -0.793441,-0.3554 -0.793441,-0.79375 v 0.043 c -0.01177,-0.21724 0.06232,-0.43834 0.228241,-0.60423 l 2.384549,-2.38541 c 0.15488,-0.15501 0.357931,-0.22838 0.560995,-0.22838 0.203064,0 0.406115,0.0734 0.560983,0.22838 l 2.384512,2.38541 c 0.165918,0.16589 0.240097,0.38699 0.22829,0.60423 z m -1.785255,1.94135 c 0.10955,0 0.198363,0.0889 0.198363,0.19844 0,0.10959 -0.08881,0.19844 -0.198363,0.19844 -0.109538,0 -0.198363,-0.0889 -0.198363,-0.19844 0,-0.10958 0.08883,-0.19844 0.198363,-0.19844 z"
           id="path2-6"
           style="fill:#84e500;fill-opacity:1;stroke-width:0.0124023" />
      </g>
    </g>
    <g
       id="update-high"
       style="fill:#e52e00;fill-opacity:1">
      <rect
         style="opacity:0.003;fill:#e52e00;fill-opacity:1;stroke:none;stroke-width:0.157018;stroke-miterlimit:4;stroke-dasharray:none;stroke-opacity:1"
         id="rect1396-6-9"
         width="8.4666672"
         height="8.46667"
         x="8.4666672"
         y="296.99997"
         ry="1.8892064e-06" />
      <path
         fill-rule="evenodd"
         clip-rule="evenodd"
         d="m 15.873721,301.27553 v -0.043 c 0,0.43835 -0.355277,0.79375 -0.793452,0.79375 h -0.396727 c -0.219087,0 -0.396713,0.1777 -0.396713,0.39687 v 0.19844 c 0,0.10959 -0.08881,0.19844 -0.198363,0.19844 -0.109538,0 -0.198363,-0.0888 -0.198363,-0.19844 v -0.19844 c 0,-0.43834 0.355277,-0.79375 0.793452,-0.79375 h 0.396726 c 0.219088,0 0.396714,-0.1777 0.396714,-0.39687 0,0 0.0016,-5.8e-4 0.004,-10e-4 -2.91e-4,-0.10115 -0.03894,-0.20212 -0.116024,-0.27925 l -2.384512,-2.38542 c -0.154967,-0.15498 -0.406015,-0.15498 -0.560983,0 l -2.384511,2.38542 c -0.07709,0.0771 -0.1156409,0.17809 -0.1160249,0.27905 0.0023,9.8e-4 0.004,0.002 0.004,0.002 0,0.21918 0.1776269,0.39688 0.3967139,0.39688 h 0.396727 c 0.438187,0 0.793452,0.3554 0.793452,0.79375 v 1.19061 c 0,0.21917 0.177639,0.39687 0.396726,0.39687 h 1.388542 c 0.10955,0 0.198363,0.0889 0.198363,0.19844 0,0.10959 -0.08881,0.19844 -0.198363,0.19844 h -1.388554 c -0.438175,0 -0.793453,-0.3554 -0.793453,-0.79375 v -1.19063 c 0,-0.21917 -0.177626,-0.39687 -0.396726,-0.39687 h -0.396714 c -0.4382265,0 -0.7934453,-0.3554 -0.7934453,-0.79375 v 0.043 c -0.01177,-0.21724 0.06232,-0.43834 0.2282424,-0.60423 l 2.3845519,-2.38541 c 0.15488,-0.15501 0.357931,-0.22838 0.560995,-0.22838 0.203064,0 0.406115,0.0734 0.560983,0.22838 l 2.384512,2.38541 c 0.165918,0.16589 0.240097,0.38699 0.22829,0.60423 z m -1.785255,1.94135 c 0.10955,0 0.198363,0.0889 0.198363,0.19844 0,0.10959 -0.08881,0.19844 -0.198363,0.19844 -0.109538,0 -0.198363,-0.0889 -0.198363,-0.19844 0,-0.10958 0.08883,-0.19844 0.198363,-0.19844 z"
         id="path2-3"
         style="fill:#ff3e00;fill-opacity:1;stroke-width:0.0124023" />
    </g>
    <g
       id="g20">
      <rect
         style="opacity:0.003;fill:#000000;fill-opacity:1;stroke:none;stroke-width:0.157018;stroke-miterlimit:4;stroke-dasharray:none;stroke-opacity:1"
         id="rect1396-6-9-5"
         width="8.4666672"
         height="8.46667"
         x="16.933332"
         y="296.99997"
         ry="1.8892064e-06" />
      <path
         fill-rule="evenodd"
         clip-rule="evenodd"
         d="m 24.340386,301.27553 v -0.043 c 0,0.43835 -0.355277,0.79375 -0.793452,0.79375 h -0.396727 c -0.219087,0 -0.396713,0.1777 -0.396713,0.39687 v 0.19844 c 0,0.10959 -0.08881,0.19844 -0.198363,0.19844 -0.109538,0 -0.198363,-0.0888 -0.198363,-0.19844 v -0.19844 c 0,-0.43834 0.355277,-0.79375 0.793452,-0.79375 h 0.396726 c 0.219088,0 0.396714,-0.1777 0.396714,-0.39687 0,0 0.0016,-5.8e-4 0.004,-10e-4 -2.91e-4,-0.10115 -0.03894,-0.20212 -0.116024,-0.27925 l -2.384512,-2.38542 c -0.154967,-0.15498 -0.406015,-0.15498 -0.560983,0 l -2.384511,2.38542 c -0.07709,0.0771 -0.115641,0.17809 -0.116025,0.27905 0.0023,9.8e-4 0.004,0.002 0.004,0.002 0,0.21918 0.177627,0.39688 0.396714,0.39688 h 0.396727 c 0.438187,0 0.793452,0.3554 0.793452,0.79375 v 1.19061 c 0,0.21917 0.177639,0.39687 0.396726,0.39687 h 1.388542 c 0.10955,0 0.198363,0.0889 0.198363,0.19844 0,0.10959 -0.08881,0.19844 -0.198363,0.19844 h -1.388554 c -0.438175,0 -0.793453,-0.3554 -0.793453,-0.79375 v -1.19063 c 0,-0.21917 -0.177626,-0.39687 -0.396726,-0.39687 h -0.396714 c -0.438227,0 -0.793445,-0.3554 -0.793445,-0.79375 v 0.043 c -0.01177,-0.21724 0.06232,-0.43834 0.228242,-0.60423 l 2.384552,-2.38541 c 0.15488,-0.15501 0.357931,-0.22838 0.560995,-0.22838 0.203064,0 0.406115,0.0734 0.560983,0.22838 l 2.384512,2.38541 c 0.165918,0.16589 0.240097,0.38699 0.22829,0.60423 z m -1.785255,1.94135 c 0.10955,0 0.198363,0.0889 0.198363,0.19844 0,0.10959 -0.08881,0.19844 -0.198363,0.19844 -0.109538,0 -0.198363,-0.0889 -0.198363,-0.19844 0,-0.10958 0.08883,-0.19844 0.198363,-0.19844 z"
         id="path2-3-6"
         style="fill:#ffaa00;fill-opacity:1;stroke-width:0.0124023" />
    </g>
    <g
       id="22-22-update-none">
      <rect
         style="opacity:0.003;fill:#000000;fill-opacity:1;stroke:none;stroke-width:0.10795;stroke-miterlimit:4;stroke-dasharray:none;stroke-opacity:1"
         id="rect1396"
         width="5.8208332"
         height="5.8208332"
         x="0"
         y="291.17914"
         ry="1.2988289e-06" />
      <path
         class="success"
         d="m 2.8779898,291.61655 c -0.4584307,0.009 -0.918429,0.1518 -1.323121,0.43492 -1.07913359,0.75493 -1.33998895,2.23334 -0.58434328,3.31155 0.75561158,1.07819 2.23466648,1.33882 3.31380008,0.58383 0.7760573,-0.5429 1.1286124,-1.45793 0.9850142,-2.33336 -0.033462,-0.20456 -0.097118,-0.39495 -0.1796987,-0.5792 l -2.1644009,2.47102 -0.2342758,0.27664 -0.2662189,-0.25536 -1.0222941,-1.0214 c -0.128261,-0.12816 -0.1282507,-0.36126 0,-0.48942 0.1282508,-0.12816 0.3616196,-0.12816 0.4898494,0 l 0.7667204,0.76604 2.0525618,-2.34667 c -0.3669353,-0.42262 -0.8550467,-0.69125 -1.3777115,-0.78335 -0.1502976,-0.0265 -0.3030966,-0.0382 -0.455909,-0.0353 z"
         color="#000000"
         enable-background="accumulate"
         fill="#4caf50"
         id="path7"
         style="fill:url(#linearGradient912);fill-opacity:1;stroke-width:0.340615" />
    </g>
    <g
       id="22-22-update-high">
      <rect
         style="opacity:0.003;fill:#000000;fill-opacity:1;stroke:none;stroke-width:0.10795;stroke-miterlimit:4;stroke-dasharray:none;stroke-opacity:1"
         id="rect1396-3"
         width="5.8208332"
         height="5.8208332"
         x="5.8208332"
         y="291.17914"
         ry="1.2988288e-06" />
      <path
         fill-rule="evenodd"
         clip-rule="evenodd"
         d="m 10.979464,294.11997 v -0.0307 c 0,0.31047 -0.251659,0.56225 -0.56204,0.56225 h -0.281021 c -0.1551866,0 -0.2810112,0.12587 -0.2810112,0.28108 v 0.14059 c 0,0.0781 -0.06291,0.14058 -0.1405091,0.14058 -0.07763,0 -0.140508,-0.0632 -0.140508,-0.14058 v -0.14059 c 0,-0.31048 0.2516561,-0.56225 0.5620373,-0.56225 h 0.281019 c 0.155192,0 0.281013,-0.12586 0.281013,-0.28108 0,0 0.0011,-4.4e-4 0.0027,-7.6e-4 -2.05e-4,-0.0714 -0.02756,-0.14314 -0.08215,-0.19776 l -1.6890403,-1.68973 c -0.10977,-0.10971 -0.287599,-0.10971 -0.39737,0 l -1.6890521,1.68977 c -0.05459,0.0544 -0.08189,0.12612 -0.08215,0.19762 0.0015,7.4e-4 0.0027,10e-4 0.0027,10e-4 0,0.15522 0.125821,0.2811 0.281011,0.2811 h 0.281022 c 0.3103901,0 0.5620401,0.25176 0.5620401,0.56224 v 0.8434 c 0,0.15523 0.12583,0.28111 0.281022,0.28111 h 0.98357 c 0.07763,0 0.14051,0.0633 0.14051,0.14056 0,0.0781 -0.06291,0.14059 -0.14051,0.14059 h -0.983579 c -0.310382,0 -0.562042,-0.25177 -0.562042,-0.56226 v -0.84341 c 0,-0.15523 -0.125821,-0.28108 -0.2810211,-0.28108 h -0.281017 c -0.310416,0 -0.562034,-0.25177 -0.562034,-0.56226 v 0.0307 c -0.0078,-0.15393 0.04415,-0.31053 0.161672,-0.42803 l 1.6890971,-1.68972 c 0.109708,-0.10974 0.253539,-0.16175 0.397379,-0.16175 0.143841,0 0.287674,0.0519 0.397369,0.16175 l 1.6890673,1.68972 c 0.117528,0.1175 0.170073,0.2741 0.161709,0.42803 z m -1.2645813,1.37511 c 0.07763,0 0.1405101,0.0633 0.1405101,0.1406 0,0.0781 -0.06291,0.14057 -0.1405101,0.14057 -0.07763,0 -0.140508,-0.0633 -0.140508,-0.14057 0,-0.0781 0.06292,-0.1406 0.140508,-0.1406 z"
         id="path2-3-6-7-5"
         style="fill:#ff3e00;fill-opacity:1;stroke-width:0.00878515" />
    </g>
    <g
       id="22-22-update-medium">
      <rect
         style="opacity:0.003;fill:#000000;fill-opacity:1;stroke:none;stroke-width:0.10795;stroke-miterlimit:4;stroke-dasharray:none;stroke-opacity:1"
         id="rect1396-3-1"
         width="5.8208332"
         height="5.8208332"
         x="11.641666"
         y="291.17914"
         ry="1.2988288e-06" />
      <path
         fill-rule="evenodd"
         clip-rule="evenodd"
         d="m 16.800298,294.11997 v -0.0307 c 0,0.31047 -0.251659,0.56225 -0.56204,0.56225 h -0.281021 c -0.155188,0 -0.281012,0.12587 -0.281012,0.28108 v 0.14059 c 0,0.0781 -0.06291,0.14058 -0.14051,0.14058 -0.07763,0 -0.140508,-0.0632 -0.140508,-0.14058 v -0.14059 c 0,-0.31048 0.251656,-0.56225 0.562039,-0.56225 h 0.281019 c 0.155192,0 0.281013,-0.12586 0.281013,-0.28108 0,0 0.0011,-4.4e-4 0.0027,-7.6e-4 -2.05e-4,-0.0714 -0.02756,-0.14314 -0.08215,-0.19776 l -1.689042,-1.68973 c -0.10977,-0.10971 -0.287599,-0.10971 -0.39737,0 l -1.689052,1.68977 c -0.05459,0.0544 -0.08189,0.12612 -0.08215,0.19762 0.0015,7.4e-4 0.0027,10e-4 0.0027,10e-4 0,0.15522 0.125821,0.2811 0.281011,0.2811 h 0.281022 c 0.31039,0 0.56204,0.25176 0.56204,0.56224 v 0.8434 c 0,0.15523 0.12583,0.28111 0.281022,0.28111 h 0.98357 c 0.07763,0 0.14051,0.0633 0.14051,0.14056 0,0.0781 -0.06291,0.14059 -0.14051,0.14059 H 13.99 c -0.310382,0 -0.562042,-0.25177 -0.562042,-0.56226 v -0.84341 c 0,-0.15523 -0.125821,-0.28108 -0.281021,-0.28108 H 12.86592 c -0.310416,0 -0.562034,-0.25177 -0.562034,-0.56226 v 0.0307 c -0.0078,-0.15393 0.04415,-0.31053 0.161672,-0.42803 l 1.689097,-1.68972 c 0.109708,-0.10974 0.253539,-0.16175 0.397379,-0.16175 0.143841,0 0.287674,0.0519 0.397369,0.16175 l 1.689069,1.68972 c 0.117528,0.1175 0.170073,0.2741 0.161709,0.42803 z m -1.264583,1.37511 c 0.07763,0 0.14051,0.0633 0.14051,0.1406 0,0.0781 -0.06291,0.14057 -0.14051,0.14057 -0.07763,0 -0.140508,-0.0633 -0.140508,-0.14057 0,-0.0781 0.06292,-0.1406 0.140508,-0.1406 z"
         id="path2-3-6-7-3"
         style="fill:#ffa800;fill-opacity:1;stroke-width:0.00878515" />
    </g>
    <g
       id="22-22-update-low">
      <rect
         style="opacity:0.003;fill:#000000;fill-opacity:1;stroke:none;stroke-width:0.10795;stroke-miterlimit:4;stroke-dasharray:none;stroke-opacity:1"
         id="rect1396-3-2"
         width="5.8208332"
         height="5.8208332"
         x="17.4625"
         y="291.17914"
         ry="1.2988288e-06" />
      <path
         fill-rule="evenodd"
         clip-rule="evenodd"
         d="m 22.621132,294.11997 v -0.0307 c 0,0.31047 -0.251659,0.56225 -0.56204,0.56225 h -0.281021 c -0.155188,0 -0.281013,0.12587 -0.281013,0.28108 v 0.14059 c 0,0.0781 -0.06291,0.14058 -0.140509,0.14058 -0.07763,0 -0.140508,-0.0632 -0.140508,-0.14058 v -0.14059 c 0,-0.31048 0.251656,-0.56225 0.562039,-0.56225 h 0.281019 c 0.155192,0 0.281013,-0.12586 0.281013,-0.28108 0,0 0.0011,-4.4e-4 0.0027,-7.6e-4 -2.05e-4,-0.0714 -0.02756,-0.14314 -0.08215,-0.19776 l -1.689042,-1.68973 c -0.10977,-0.10971 -0.287599,-0.10971 -0.39737,0 l -1.689052,1.68977 c -0.05459,0.0544 -0.08189,0.12612 -0.08215,0.19762 0.0015,7.4e-4 0.0027,10e-4 0.0027,10e-4 0,0.15522 0.125821,0.2811 0.281011,0.2811 h 0.281022 c 0.31039,0 0.56204,0.25176 0.56204,0.56224 v 0.8434 c 0,0.15523 0.12583,0.28111 0.281022,0.28111 h 0.98357 c 0.07763,0 0.14051,0.0633 0.14051,0.14056 0,0.0781 -0.06291,0.14059 -0.14051,0.14059 h -0.983579 c -0.310382,0 -0.562042,-0.25177 -0.562042,-0.56226 v -0.84341 c 0,-0.15523 -0.125821,-0.28108 -0.281021,-0.28108 h -0.281017 c -0.310416,0 -0.562034,-0.25177 -0.562034,-0.56226 v 0.0307 c -0.0078,-0.15393 0.04415,-0.31053 0.161672,-0.42803 l 1.689097,-1.68972 c 0.109708,-0.10974 0.253539,-0.16175 0.397379,-0.16175 0.143841,0 0.287674,0.0519 0.397369,0.16175 l 1.689069,1.68972 c 0.117528,0.1175 0.170073,0.2741 0.161709,0.42803 z m -1.264583,1.37511 c 0.07763,0 0.140509,0.0633 0.140509,0.1406 0,0.0781 -0.06291,0.14057 -0.140509,0.14057 -0.07763,0 -0.140508,-0.0633 -0.140508,-0.14057 0,-0.0781 0.06292,-0.1406 0.140508,-0.1406 z"
         id="path2-3-6-7-56"
         style="fill:#84e500;fill-opacity:1;stroke-width:0.00878515" />
    </g>
  </g>
</svg>
