<?xml version="1.0" encoding="UTF-8" standalone="no"?>
<svg
   inkscape:version="1.1.2 (0a00cf5339, 2022-02-04)"
   sodipodi:docname="view.svg"
   id="svg873"
   version="1.1"
   height="32"
   width="32"
   xmlns:inkscape="http://www.inkscape.org/namespaces/inkscape"
   xmlns:sodipodi="http://sodipodi.sourceforge.net/DTD/sodipodi-0.dtd"
   xmlns:xlink="http://www.w3.org/1999/xlink"
   xmlns="http://www.w3.org/2000/svg"
   xmlns:svg="http://www.w3.org/2000/svg"
   xmlns:rdf="http://www.w3.org/1999/02/22-rdf-syntax-ns#"
   xmlns:cc="http://creativecommons.org/ns#"
   xmlns:dc="http://purl.org/dc/elements/1.1/">
  <metadata
     id="metadata879">
    <rdf:RDF>
      <cc:Work
         rdf:about="">
        <dc:format>image/svg+xml</dc:format>
        <dc:type
           rdf:resource="http://purl.org/dc/dcmitype/StillImage" />
      </cc:Work>
    </rdf:RDF>
  </metadata>
  <defs
     id="defs877">
    <linearGradient
       id="linearGradient2139"
       inkscape:collect="always">
      <stop
         id="stop2135"
         offset="0"
         style="stop-color:#84e500;stop-opacity:1" />
      <stop
         id="stop2137"
         offset="1"
         style="stop-color:#11cc00;stop-opacity:1" />
    </linearGradient>
    <linearGradient
       id="_lgradient_0"
       x1="0"
       y1="0.5"
       x2="1"
       y2="0.5"
       gradientTransform="matrix(27.999994,0,0,27.999998,1.9766191,1.9139856)"
       gradientUnits="userSpaceOnUse">
      <stop
         offset="0%"
         stop-opacity="1"
         style="stop-color:rgb(105,227,255)"
         id="stop33" />
      <stop
         offset="100%"
         stop-opacity="1"
         style="stop-color:rgb(0,255,194)"
         id="stop35" />
    </linearGradient>
    <linearGradient
       gradientTransform="translate(3.8e-4,0.3)"
       gradientUnits="userSpaceOnUse"
       y2="15.913983"
       x2="29.97662"
       y1="15.913983"
       x1="1.9766192"
       id="linearGradient854"
       xlink:href="#linearGradient2139"
       inkscape:collect="always" />
    <linearGradient
       inkscape:collect="always"
       xlink:href="#linearGradient2139"
       id="linearGradient1576"
       x1="487.06171"
       y1="48.017578"
       x2="499.06186"
       y2="48.017578"
       gradientUnits="userSpaceOnUse" />
  </defs>
  <sodipodi:namedview
     inkscape:current-layer="svg873"
     inkscape:window-maximized="1"
     inkscape:window-y="26"
     inkscape:window-x="0"
     inkscape:cy="20.211107"
     inkscape:cx="17.67339"
     inkscape:zoom="5.5167685"
     showgrid="false"
     id="namedview875"
     inkscape:window-height="970"
     inkscape:window-width="1920"
     inkscape:pageshadow="2"
     inkscape:pageopacity="0"
     guidetolerance="10"
     gridtolerance="10"
     objecttolerance="10"
     borderopacity="1"
     inkscape:document-rotation="0"
     bordercolor="#666666"
     pagecolor="#ffffff"
     inkscape:pagecheckerboard="0" />
  <g
     transform="translate(-250.00021,54.000004)"
     id="view-refresh">
    <path
       id="path836"
       style="opacity:0.00100002"
       d="m 282.00021,-38.000004 h 16 v 16 h -16 z" />
    <g
       id="g841"
       transform="translate(281.97246,-37.000109)">
      <g
         transform="translate(-485.03396,-41.017475)"
         id="layer12-0">
        <path
           id="path838"
           style="fill:url(#linearGradient1576);fill-opacity:1.0"
           d="m 499.06185,49.01758 c 0,3.31371 -2.68629,6 -6,6 -3.28006,0 -5.94034,-2.63316 -5.99414,-5.90039 a 1,1 0 0 1 -0.006,-0.09961 1,1 0 0 1 1,-1 1,1 0 0 1 1,1 c 0,2.20914 1.79086,4 4,4 2.20914,0 4,-1.79086 4,-4 0,-2.20914 -1.79086,-4 -4,-4 v 2 l -4,-3 4,-3 v 2 c 3.31371,0 6,2.68629 6,6 z" />
      </g>
    </g>
  </g>
  <g
     style="clip-rule:evenodd;fill-rule:evenodd;stroke-linejoin:round;stroke-miterlimit:1.41421"
     id="view-history">
    <rect
       ry="0.91472864"
       y="0"
       x="0"
       height="32"
       width="32"
       id="rect817-5"
       style="fill:#ffff96;fill-opacity:0;stroke-width:1.04154;stroke-miterlimit:1.41421;stroke-dasharray:none" />
    <path
       id="path38"
       d="m 16.585461,3.457841 0.158302,0.0097 c 3.250158,0.194923 6.306467,1.624 8.54,3.991077 2.234618,2.372462 3.476309,5.506307 3.476309,8.761845 0,3.389077 -1.346151,6.637076 -3.74446,9.034307 -2.397231,2.39723 -5.648462,3.742308 -9.038611,3.742308 -3.390158,0 -6.641382,-1.345078 -9.038617,-3.742308 -2.398308,-2.397231 -3.744461,-5.64523 -3.744461,-9.034307 0,-2.263692 0.603076,-4.490768 1.747846,-6.44323 C 6.085461,7.817236 7.728845,6.199697 9.701762,5.086159 v 0 C 9.99362,4.92139 10.097,4.550929 9.932229,4.258005 v 0 C 9.76854,3.966159 9.397,3.862774 9.105155,4.027543 v 0 C 6.943769,5.249851 5.142076,7.020313 3.888538,9.162312 2.640384,11.304313 1.977,13.738157 1.977,16.220465 c 0,3.711076 1.47323,7.270307 4.103076,9.892614 2.623385,2.62877 6.183687,4.100923 9.896925,4.100923 3.713229,0 7.27354,-1.472153 9.89692,-4.100923 2.629842,-2.622307 4.10308,-6.181538 4.10308,-9.892614 0,-3.565692 -1.363389,-6.997845 -3.804771,-9.595383 C 23.725461,4.027543 20.378381,2.463851 16.817001,2.25062 l -0.23154,-0.014 V 2.22585 h -0.17446 l -0.20246,-0.01185 -0.001,0.014 C 15.738002,2.25277 15.36862,2.515539 15.36862,2.834308 v 0 13.386153 c 0,0.670923 0.544921,1.216923 1.216921,1.216923 h 6.696308 v 0 c 0.336,0 0.60846,-0.273539 0.60846,-0.608462 v 0 c 0,-0.336 -0.27246,-0.608461 -0.60846,-0.608461 v 0 h -6.087847 c -0.336,0 -0.608461,-0.273539 -0.608461,-0.608462 z"
       style="clip-rule:evenodd;isolation:isolate;fill:url(#linearGradient854);fill-opacity:1;fill-rule:evenodd;stroke-width:1.07692;stroke-linejoin:round;stroke-miterlimit:1.41421"
       inkscape:connector-curvature="0" />
  </g>
</svg>
