<?xml version="1.0" encoding="UTF-8" standalone="no"?>
<svg
   xmlns:dc="http://purl.org/dc/elements/1.1/"
   xmlns:cc="http://creativecommons.org/ns#"
   xmlns:rdf="http://www.w3.org/1999/02/22-rdf-syntax-ns#"
   xmlns:svg="http://www.w3.org/2000/svg"
   xmlns="http://www.w3.org/2000/svg"
   xmlns:sodipodi="http://sodipodi.sourceforge.net/DTD/sodipodi-0.dtd"
   xmlns:inkscape="http://www.inkscape.org/namespaces/inkscape"
   width="32"
   height="32"
   version="1.0"
   viewBox="0 0 32 32"
   id="svg133"
   sodipodi:docname="whatsapp.svg"
   inkscape:version="1.0.2 (e86c870879, 2021-01-15)">
  <metadata
     id="metadata82">
    <rdf:RDF>
      <cc:Work
         rdf:about="">
        <dc:format>image/svg+xml</dc:format>
        <dc:type
           rdf:resource="http://purl.org/dc/dcmitype/StillImage" />
      </cc:Work>
    </rdf:RDF>
  </metadata>
  <sodipodi:namedview
     id="namedview135"
     pagecolor="#ffffff"
     bordercolor="#666666"
     borderopacity="1.0"
     inkscape:pageshadow="2"
     inkscape:pageopacity="0.0"
     inkscape:pagecheckerboard="0"
     showgrid="true"
     inkscape:zoom="5.3474952"
     inkscape:cx="42.325112"
     inkscape:cy="-1.685086"
     inkscape:window-width="1850"
     inkscape:window-height="1056"
     inkscape:window-x="70"
     inkscape:window-y="24"
     inkscape:window-maximized="1"
     inkscape:current-layer="svg133"
     inkscape:document-rotation="0">
    <inkscape:grid
       type="xygrid"
       id="grid1244" />
  </sodipodi:namedview>
  <defs
     id="defs3">
    <style
       id="current-color-scheme"
       type="text/css">.ColorScheme-Text { color:#363636; }</style>
  </defs>
  <path
     d="m 65.12592,8.151261 c -4.5722,0 -8.289078,3.716878 -8.295367,8.289078 0,1.565994 0.44024,3.094253 1.270405,4.408682 l 0.194963,0.314457 -0.836454,3.056518 3.138277,-0.823876 0.301878,0.182385 c 1.270405,0.754696 2.729484,1.1572 4.220009,1.1572 h 0.0063 c 4.56591,0 8.383414,-3.716877 8.383414,-8.289077 0,-2.213775 -0.955948,-4.295478 -2.521942,-5.861472 C 69.415119,9.012873 67.339706,8.151261 65.125931,8.151261 Z m 4.874078,11.848727 c -0.207542,0.584889 -1.201225,1.113177 -1.679199,1.182357 -0.79243,0.119494 -1.408765,0.0566 -2.987338,-0.622624 -2.496786,-1.081731 -4.13196,-3.597384 -4.257743,-3.760902 -0.125783,-0.163517 -1.018839,-1.352163 -1.018839,-2.578544 0,-1.226381 0.641491,-1.830138 0.874189,-2.081703 0.226409,-0.251566 0.496842,-0.314457 0.666648,-0.314457 0.163518,0 0.333324,0 0.477974,0.0063 0.150939,0.0063 0.358481,-0.0566 0.559733,0.427661 0.207541,0.496842 0.704383,1.723223 0.767274,1.849005 0.06289,0.125783 0.106916,0.270433 0.01887,0.433951 -0.477974,0.955948 -0.987394,0.918213 -0.72954,1.358452 0.962238,1.654042 1.924475,2.226353 3.389843,2.962182 0.251565,0.125783 0.396215,0.106915 0.540865,-0.06289 0.14465,-0.163518 0.622625,-0.72954 0.786142,-0.974816 0.163517,-0.251565 0.333324,-0.207541 0.559733,-0.125783 0.226409,0.08176 1.45279,0.685516 1.704355,0.811299 0.251565,0.125782 0.415083,0.188674 0.477974,0.2893 C 70.207539,18.918269 70.207539,19.4214 70,20 Z M 76.194794,2.440729 H 54.057046 c -1.666621,0 -3.018784,1.352163 -3.018784,3.018784 v 22.137748 c 0,1.66662 1.352163,3.018783 3.018784,3.018783 h 22.137748 c 1.666619,0 3.018783,-1.352163 3.018783,-3.018783 V 5.459513 c 0,-1.666621 -1.352164,-3.018784 -3.018783,-3.018784 z M 65.119631,26.414904 c -1.67291,0 -3.314373,-0.421372 -4.767163,-1.213803 l -5.289161,1.389898 1.415055,-5.169667 c -0.87419,-1.509392 -1.333296,-3.226325 -1.333296,-4.987282 0.0063,-5.496703 4.477862,-9.968276 9.974565,-9.968276 2.666592,0 5.169667,1.037707 7.056407,2.924447 1.880451,1.88674 3.012495,4.389815 3.012495,7.056407 0,5.496702 -4.5722,9.968276 -10.068902,9.968276 z"
     id="path2"
     style="stroke-width:0.0628913" />
  <g
     id="g864"
     inkscape:label="32-32-whatsapp">
    <path
       id="rect858"
       style="opacity:0.9;fill:#a1adc8;fill-opacity:1;stroke-width:0.07302"
       d="m 17.479547,4.1718769 c -6.381961,0 -11.5736645,5.1917322 -11.5809668,11.5736931 0,2.044564 0.5329908,4.038071 1.5479701,5.790554 l -1.642953,6.002201 6.1411087,-1.613719 c 1.686764,0.920059 3.592505,1.409347 5.534841,1.409347 6.381961,0 11.690497,-5.191733 11.690497,-11.573693 0,-3.096055 -1.314249,-6.0023418 -3.497551,-8.1929462 C 23.481889,5.3767094 20.575602,4.1718769 17.479547,4.1718769 Z m 0.0073,1.9569971 c 2.57031,0 4.980059,1.0003187 6.805563,2.8258225 1.818202,1.8182015 2.92808,4.2352535 2.92808,6.8055635 0,5.308564 -4.43238,9.623971 -9.733643,9.623971 h -0.0073 c -1.730577,0 -3.424616,-0.46722 -4.899623,-1.343459 L 12.22937,23.828986 8.5857789,24.785518 9.5568609,21.23677 9.3305274,20.871669 C 8.3666612,19.345548 7.8555773,17.571187 7.8555773,15.752986 7.8628796,10.444421 12.178256,6.128874 17.486821,6.128874 Z m -4.096402,4.264405 c -0.197154,0 -0.511112,0.07302 -0.773985,0.3651 -0.270174,0.292081 -1.015008,0.993046 -1.015008,2.416939 0,1.423893 1.036971,2.803973 1.183011,2.993826 0.146041,0.189852 2.044508,3.110715 4.943407,4.366661 1.832806,0.788618 2.548404,0.861524 3.468458,0.722786 0.554953,-0.08032 1.708614,-0.693606 1.949581,-1.372694 0.240966,-0.671785 0.240994,-1.255917 0.175276,-1.394656 -0.07302,-0.116832 -0.262844,-0.189966 -0.554924,-0.336007 -0.292081,-0.14604 -1.715946,-0.846919 -1.978818,-0.941845 -0.262873,-0.09493 -0.460055,-0.146041 -0.649908,0.14604 -0.189852,0.284779 -0.744805,0.94196 -0.912752,1.131812 -0.167946,0.197155 -0.335864,0.219061 -0.627944,0.07302 -1.701369,-0.854336 -2.818606,-1.518933 -3.935815,-3.439362 -0.299382,-0.511142 0.292052,-0.467301 0.847006,-1.577207 0.102228,-0.189852 0.0512,-0.357828 -0.02182,-0.503868 -0.07302,-0.14604 -0.649964,-1.569819 -0.890931,-2.146678 -0.233665,-0.562255 -0.474659,-0.489292 -0.649908,-0.496593 -0.167946,-0.0073 -0.365072,-0.0073 -0.554925,-0.0073 z" />
  </g>
  <path
     id="rect858-3"
     style="opacity:0.9;fill-opacity:1;stroke-width:0.07302"
     d="m 67.922686,-37.064893 c -6.381961,0 -11.573664,5.191732 -11.580967,11.573693 0,2.044564 0.532991,4.038071 1.54797,5.790554 l -1.642953,6.002201 6.141109,-1.613719 c 1.686764,0.920059 3.592505,1.409347 5.534841,1.409347 6.381961,0 11.690497,-5.191733 11.690497,-11.573693 0,-3.096055 -1.314249,-6.002342 -3.497551,-8.192946 -2.190604,-2.190605 -5.096891,-3.395437 -8.192946,-3.395437 z m 0.0073,1.956997 c 2.57031,0 4.980059,1.000319 6.805563,2.825823 1.818202,1.818201 2.92808,4.235253 2.92808,6.805563 0,5.308564 -4.43238,9.623971 -9.733643,9.623971 h -0.0073 c -1.730577,0 -3.424616,-0.46722 -4.899623,-1.343459 l -0.350554,-0.211786 -3.643591,0.956532 L 60,-20 59.773666,-20.365101 c -0.963866,-1.526121 -1.47495,-3.300482 -1.47495,-5.118683 0.0073,-5.308565 4.322679,-9.624112 9.631244,-9.624112 z m -4.096402,4.264405 c -0.197154,0 -0.511112,0.07302 -0.773985,0.3651 -0.270174,0.292081 -1.015008,0.993046 -1.015008,2.416939 0,1.423893 1.036971,2.803973 1.183011,2.993826 0.146041,0.189852 2.044508,3.110715 4.943407,4.366661 1.832806,0.788618 2.548404,0.861524 3.468458,0.722786 0.554953,-0.08032 1.708614,-0.693606 1.949581,-1.372694 0.240966,-0.671785 0.240994,-1.255917 0.175276,-1.394656 -0.07302,-0.116832 -0.262844,-0.189966 -0.554924,-0.336007 -0.292081,-0.14604 -1.715946,-0.846919 -1.978818,-0.941845 -0.262873,-0.09493 -0.460055,-0.146041 -0.649908,0.14604 -0.189852,0.284779 -0.744805,0.94196 -0.912752,1.131812 -0.167946,0.197155 -0.335864,0.219061 -0.627944,0.07302 -1.701369,-0.854336 -2.818606,-1.518933 -3.935815,-3.439362 -0.299382,-0.511142 0.292052,-0.467301 0.847006,-1.577207 0.102228,-0.189852 0.0512,-0.357828 -0.02182,-0.503868 -0.07302,-0.14604 -0.649964,-1.569819 -0.890931,-2.146678 -0.233665,-0.562255 -0.474659,-0.489292 -0.649908,-0.496593 -0.167946,-0.0073 -0.365072,-0.0073 -0.554925,-0.0073 z" />
</svg>
