<?xml version="1.0" encoding="UTF-8" standalone="no"?>
<svg
   version="1.1"
   viewBox="0 0 22 22"
   id="svg1320"
   sodipodi:docname="window.svg"
   inkscape:version="1.2.2 (b0a8486541, 2022-12-01)"
   xmlns:inkscape="http://www.inkscape.org/namespaces/inkscape"
   xmlns:sodipodi="http://sodipodi.sourceforge.net/DTD/sodipodi-0.dtd"
   xmlns="http://www.w3.org/2000/svg"
   xmlns:svg="http://www.w3.org/2000/svg">
  <sodipodi:namedview
     id="namedview1322"
     pagecolor="#ffffff"
     bordercolor="#000000"
     borderopacity="0.25"
     inkscape:showpageshadow="2"
     inkscape:pageopacity="0.0"
     inkscape:pagecheckerboard="0"
     inkscape:deskcolor="#d1d1d1"
     showgrid="false"
     inkscape:zoom="16.53746"
     inkscape:cx="5.7747682"
     inkscape:cy="13.907819"
     inkscape:window-width="1920"
     inkscape:window-height="1032"
     inkscape:window-x="0"
     inkscape:window-y="24"
     inkscape:window-maximized="1"
     inkscape:current-layer="svg1320" />
  <g
     id="window-list">
    <path
       d="m30 33h32v32h-32z"
       fill="#333333"
       opacity="0"
       id="path1262" />
    <path
       d="m36 37c-1.108 0-2 0.892-2 2v6c0 1.108 0.892 2 2 2h6c1.108 0 2-0.892 2-2v-6c0-1.108-0.892-2-2-2h-6zm0 2h6v6h-6v-6z"
       fill="#a1adc8"
       id="path1264" />
    <path
       d="m50 37c-1.108 0-2 0.892-2 2v6c0 1.108 0.892 2 2 2h6c1.108 0 2-0.892 2-2v-6c0-1.108-0.892-2-2-2zm0 2h6v6h-6z"
       fill="#a1adc8"
       id="path1266" />
    <path
       d="m36 51c-1.108 0-2 0.892-2 2v6c0 1.108 0.892 2 2 2h6c1.108 0 2-0.892 2-2v-6c0-1.108-0.892-2-2-2zm0 2h6v6h-6z"
       fill="#a1adc8"
       id="path1268" />
    <path
       d="m50 51c-1.108 0-2 0.892-2 2v6c0 1.108 0.892 2 2 2h6c1.108 0 2-0.892 2-2v-6c0-1.108-0.892-2-2-2zm0 2h6v6h-6z"
       fill="#a1adc8"
       id="path1270" />
  </g>
  <defs
     id="defs1274">
    <style
       id="current-color-scheme"
       type="text/css">.ColorScheme-Text { color:#a1adc8; } .ColorScheme-Highlight { color:#5294e2; } .ColorScheme-ButtonBackground { color:#a1adc8; }</style>
  </defs>
  <g
     id="8-8-window-pin"
     transform="translate(31,-30)">
    <rect
       class="ColorScheme-Text"
       x="-46"
       y="44"
       width="8"
       height="8"
       fill-opacity="0"
       id="rect1276" />
    <path
       class="ColorScheme-Text"
       d="m-41 44c-0.38925 0.38925-0.46835 1.0843-0.01563 1.8438l-2.125 1.4219c-0.2642-0.1066-0.5478-0.18609-0.82812-0.1875-0.36438-0.00185-0.71874 0.10938-1.0312 0.42188l1.5 1.5-2 2-0.5 1 1-0.5 2-2 1.5 1.5c0.55348-0.55348 0.48237-1.2539 0.23438-1.8594l1.4219-2.125c0.75941 0.45273 1.4545 0.37363 1.8438-0.015625z"
       fill="currentColor"
       id="path1278" />
  </g>
  <g
     id="8-8-window-unpin"
     transform="translate(31,-30)">
    <path
       class="ColorScheme-Highlight"
       d="m-61 44c-0.38925 0.38925-0.46835 1.0843-0.01563 1.8438l-2.125 1.4219c-0.2642-0.1066-0.5478-0.18609-0.82812-0.1875-0.36438-0.00185-0.71874 0.10938-1.0312 0.42188l1.5 1.5-2 2-0.5 1 1-0.5 2-2 1.5 1.5c0.55348-0.55348 0.48237-1.2539 0.23438-1.8594l1.4219-2.125c0.75941 0.45273 1.4545 0.37363 1.8438-0.015625z"
       fill="currentColor"
       id="path1281" />
    <rect
       class="ColorScheme-Text"
       x="-66"
       y="44"
       width="8"
       height="8"
       fill-opacity="0"
       id="rect1283" />
  </g>
  <g
     id="window-close">
    <rect
       class="ColorScheme-Text"
       width="22"
       height="22"
       fill-opacity="0"
       id="rect1286" />
    <g
       transform="translate(-262 -178)"
       id="g1292">
      <path
         id="path1288"
         sodipodi:type="inkscape:offset"
         inkscape:radius="-0.24348122"
         inkscape:original="M 270 185 A 1 1 0 0 0 269 186 A 1 1 0 0 0 269.29297 186.70703 L 271.58594 189 L 269.29297 191.29297 A 1 1 0 0 0 269 192 A 1 1 0 0 0 270 193 A 1 1 0 0 0 270.70703 192.70703 L 273 190.41406 L 275.2832 192.69727 A 1 1 0 0 0 276 193 A 1 1 0 0 0 277 192 A 1 1 0 0 0 276.70703 191.29297 L 274.41406 189 L 276.69727 186.7168 A 1 1 0 0 0 277 186 A 1 1 0 0 0 276 185 A 1 1 0 0 0 275.29297 185.29297 L 273 187.58594 L 270.7168 185.30273 A 1 1 0 0 0 270.70703 185.29297 A 1 1 0 0 0 270 185 z "
         d="m 270,185.24414 c -0.39611,0 -0.75586,0.35975 -0.75586,0.75586 3e-5,0.19804 0.0806,0.39513 0.2207,0.53516 l 2.29297,2.29296 a 0.24350557,0.24350557 0 0 1 0,0.34376 l -2.29297,2.29296 c -0.14005,0.14003 -0.22067,0.33712 -0.2207,0.53516 0,0.39611 0.35975,0.75586 0.75586,0.75586 0.19804,-3e-5 0.39513,-0.0807 0.53516,-0.2207 l 2.29296,-2.29297 a 0.24350557,0.24350557 0 0 1 0.34376,0 l 2.2832,2.2832 a 0.24350557,0.24350557 0 0 1 0.002,0.002 c 0.14053,0.14447 0.34143,0.22852 0.54297,0.22852 0.39611,0 0.75586,-0.35975 0.75586,-0.75586 -3e-5,-0.19804 -0.0806,-0.39513 -0.2207,-0.53516 l -2.29297,-2.29296 a 0.24350557,0.24350557 0 0 1 0,-0.34376 l 2.2832,-2.2832 a 0.24350557,0.24350557 0 0 1 0.002,-0.002 c 0.14447,-0.14053 0.22852,-0.34143 0.22852,-0.54297 0,-0.39611 -0.35975,-0.75586 -0.75586,-0.75586 -0.19804,3e-5 -0.39513,0.0807 -0.53516,0.2207 l -2.29296,2.29297 a 0.24350557,0.24350557 0 0 1 -0.34376,0 l -2.2832,-2.2832 a 0.24350557,0.24350557 0 0 1 -0.002,0 c -0.002,-0.002 -0.003,-0.005 -0.006,-0.008 a 0.24350557,0.24350557 0 0 1 -0.002,-0.002 c -0.14003,-0.14005 -0.33712,-0.22067 -0.53516,-0.2207 z"
         style="display:none;fill:#7d8eb3;fill-opacity:1" />
      <path
         id="path4944"
         sodipodi:type="inkscape:offset"
         inkscape:radius="-0.24348122"
         inkscape:original="M 270 185 A 1 1 0 0 0 269 186 A 1 1 0 0 0 269.29297 186.70703 L 271.58594 189 L 269.29297 191.29297 A 1 1 0 0 0 269 192 A 1 1 0 0 0 270 193 A 1 1 0 0 0 270.70703 192.70703 L 273 190.41406 L 275.2832 192.69727 A 1 1 0 0 0 276 193 A 1 1 0 0 0 277 192 A 1 1 0 0 0 276.70703 191.29297 L 274.41406 189 L 276.69727 186.7168 A 1 1 0 0 0 277 186 A 1 1 0 0 0 276 185 A 1 1 0 0 0 275.29297 185.29297 L 273 187.58594 L 270.7168 185.30273 A 1 1 0 0 0 270.70703 185.29297 A 1 1 0 0 0 270 185 z "
         d="m 270,185.24414 c -0.39611,0 -0.75586,0.35975 -0.75586,0.75586 3e-5,0.19804 0.0806,0.39513 0.2207,0.53516 l 2.29297,2.29296 a 0.24350557,0.24350557 0 0 1 0,0.34376 l -2.29297,2.29296 c -0.14005,0.14003 -0.22067,0.33712 -0.2207,0.53516 0,0.39611 0.35975,0.75586 0.75586,0.75586 0.19804,-3e-5 0.39513,-0.0807 0.53516,-0.2207 l 2.29296,-2.29297 a 0.24350557,0.24350557 0 0 1 0.34376,0 l 2.2832,2.2832 a 0.24350557,0.24350557 0 0 1 0.002,0.002 c 0.14053,0.14447 0.34143,0.22852 0.54297,0.22852 0.39611,0 0.75586,-0.35975 0.75586,-0.75586 -3e-5,-0.19804 -0.0806,-0.39513 -0.2207,-0.53516 l -2.29297,-2.29296 a 0.24350557,0.24350557 0 0 1 0,-0.34376 l 2.2832,-2.2832 a 0.24350557,0.24350557 0 0 1 0.002,-0.002 c 0.14447,-0.14053 0.22852,-0.34143 0.22852,-0.54297 0,-0.39611 -0.35975,-0.75586 -0.75586,-0.75586 -0.19804,3e-5 -0.39513,0.0807 -0.53516,0.2207 l -2.29296,2.29297 a 0.24350557,0.24350557 0 0 1 -0.34376,0 l -2.2832,-2.2832 a 0.24350557,0.24350557 0 0 1 -0.002,0 c -0.002,-0.002 -0.003,-0.005 -0.006,-0.008 a 0.24350557,0.24350557 0 0 1 -0.002,-0.002 c -0.14003,-0.14005 -0.33712,-0.22067 -0.53516,-0.2207 z"
         style="display:inline;fill:#a1adc8;fill-opacity:1"
         transform="matrix(1.0893923,0,0,1.0893923,-24.404098,-16.895145)" />
      <rect
         x="265"
         y="181"
         width="16"
         height="16"
         fill="none"
         id="rect1290" />
    </g>
  </g>
  <g
     id="16-16-window-close"
     transform="translate(-235.8 -177.81)"
     enable-background="new">
    <path
       d="m 270,185 a 1,1 0 0 0 -1,1 1,1 0 0 0 0.29297,0.70703 l 2.293,2.293 -2.293,2.293 A 1,1 0 0 0 269,192.00006 a 1,1 0 0 0 1,1 1,1 0 0 0 0.70703,-0.29297 l 2.293,-2.293 2.2832,2.2832 a 1,1 0 0 0 0.7168,0.30273 1,1 0 0 0 1,-1 1,1 0 0 0 -0.29297,-0.70703 l -2.293,-2.293 2.2832,-2.2832 a 1,1 0 0 0 0.30273,-0.7168 1,1 0 0 0 -1,-1 1,1 0 0 0 -0.70703,0.29297 l -2.293,2.293 -2.2832,-2.2832 a 1,1 0 0 0 -0.01,-0.01 1,1 0 0 0 -0.707,-0.29273 z"
       fill="#a1adc8"
       id="path1295"
       style="display:none;fill:#7a8bb1;fill-opacity:1" />
    <path
       id="path4178"
       sodipodi:type="inkscape:offset"
       inkscape:radius="-0.24348122"
       inkscape:original="M 270 185 A 1 1 0 0 0 269 186 A 1 1 0 0 0 269.29297 186.70703 L 271.58594 189 L 269.29297 191.29297 A 1 1 0 0 0 269 192 A 1 1 0 0 0 270 193 A 1 1 0 0 0 270.70703 192.70703 L 273 190.41406 L 275.2832 192.69727 A 1 1 0 0 0 276 193 A 1 1 0 0 0 277 192 A 1 1 0 0 0 276.70703 191.29297 L 274.41406 189 L 276.69727 186.7168 A 1 1 0 0 0 277 186 A 1 1 0 0 0 276 185 A 1 1 0 0 0 275.29297 185.29297 L 273 187.58594 L 270.7168 185.30273 A 1 1 0 0 0 270.70703 185.29297 A 1 1 0 0 0 270 185 z "
       d="m 270,185.24414 c -0.39611,0 -0.75586,0.35975 -0.75586,0.75586 3e-5,0.19804 0.0806,0.39513 0.2207,0.53516 l 2.29297,2.29296 a 0.24350557,0.24350557 0 0 1 0,0.34376 l -2.29297,2.29296 c -0.14005,0.14003 -0.22067,0.33712 -0.2207,0.53516 0,0.39611 0.35975,0.75586 0.75586,0.75586 0.19804,-3e-5 0.39513,-0.0807 0.53516,-0.2207 l 2.29296,-2.29297 a 0.24350557,0.24350557 0 0 1 0.34376,0 l 2.2832,2.2832 a 0.24350557,0.24350557 0 0 1 0.002,0.002 c 0.14053,0.14447 0.34143,0.22852 0.54297,0.22852 0.39611,0 0.75586,-0.35975 0.75586,-0.75586 -3e-5,-0.19804 -0.0806,-0.39513 -0.2207,-0.53516 l -2.29297,-2.29296 a 0.24350557,0.24350557 0 0 1 0,-0.34376 l 2.2832,-2.2832 a 0.24350557,0.24350557 0 0 1 0.002,-0.002 c 0.14447,-0.14053 0.22852,-0.34143 0.22852,-0.54297 0,-0.39611 -0.35975,-0.75586 -0.75586,-0.75586 -0.19804,3e-5 -0.39513,0.0807 -0.53516,0.2207 l -2.29296,2.29297 a 0.24350557,0.24350557 0 0 1 -0.34376,0 l -2.2832,-2.2832 a 0.24350557,0.24350557 0 0 1 -0.002,0 c -0.002,-0.002 -0.003,-0.005 -0.006,-0.008 a 0.24350557,0.24350557 0 0 1 -0.002,-0.002 c -0.14003,-0.14005 -0.33712,-0.22067 -0.53516,-0.2207 z"
       style="fill:#a1adc8;fill-opacity:1"
       transform="matrix(1.0893923,0,0,1.0893923,-24.404079,-16.895117)" />
    <rect
       x="265"
       y="181"
       width="16"
       height="16"
       fill="none"
       id="rect1297" />
  </g>
  <g
     id="16-16-window-pin">
    <rect
       x="-17"
       y="27"
       width="16"
       height="16"
       rx="0"
       ry="0"
       fill="none"
       stroke-width="1.1429"
       id="rect1300" />
    <path
       class="ColorScheme-Text"
       d="m-7.5 29c-0.58388 0.58388-0.70253 1.6265-0.023445 2.7656l-3.1875 2.1328c-0.3963-0.1599-0.8217-0.27914-1.2422-0.28125-0.54656-0.002775-1.0781 0.16406-1.5469 0.63281l2.25 2.25-3 3-0.75 1.5 1.5-0.75 3-3 2.25 2.25c0.83022-0.83022 0.72356-1.8808 0.35156-2.7891l2.1328-3.1875c1.1391 0.67909 2.1817 0.56044 2.7656-0.023437z"
       fill="currentColor"
       stroke-width="1.5"
       id="path1302" />
  </g>
  <g
     id="16-16-window-unpin">
    <rect
       x="-39"
       y="27"
       width="16"
       height="16"
       rx="0"
       ry="0"
       fill="none"
       stroke-width="1.1429"
       id="rect1305" />
    <path
       class="ColorScheme-Highlight"
       d="m-29.5 29c-0.58388 0.58388-0.70253 1.6265-0.02344 2.7656l-3.1875 2.1328c-0.3963-0.1599-0.8217-0.27914-1.2422-0.28125-0.54657-0.0028-1.0781 0.16406-1.5469 0.63281l2.25 2.25-3 3-0.75 1.5 1.5-0.75 3-3 2.25 2.25c0.83022-0.83022 0.72356-1.8808 0.35156-2.7891l2.1328-3.1875c1.1391 0.67909 2.1817 0.56044 2.7656-0.02344z"
       fill="currentColor"
       stroke-width="1.5"
       id="path1307" />
  </g>
  <g
     id="window-pin"
     transform="translate(0 -3.0547)">
    <rect
       x="-10"
       y="50.289"
       width="22"
       height="22"
       rx="0"
       ry="0"
       fill="none"
       stroke-width="1.5714"
       id="rect1310" />
    <path
       class="ColorScheme-Text"
       d="m2.5 55.289c-0.58388 0.58388-0.70253 1.6265-0.023445 2.7656l-3.1875 2.1328c-0.3963-0.15991-0.8217-0.27914-1.2422-0.28125-0.54656-0.002801-1.0781 0.16406-1.5469 0.63281l2.25 2.25-3 3-0.75 1.5 1.5-0.75 3-3 2.25 2.25c0.83022-0.83022 0.72356-1.8808 0.35156-2.7891l2.1328-3.1875c1.1391 0.67909 2.1817 0.56044 2.7656-0.023441z"
       fill="currentColor"
       stroke-width="1.5"
       id="path1312" />
  </g>
  <g
     id="window-unpin"
     transform="translate(0 -3.0547)">
    <rect
       x="-39"
       y="50.289"
       width="22"
       height="22"
       rx="0"
       ry="0"
       fill="none"
       stroke-width="1.5714"
       id="rect1315" />
    <path
       class="ColorScheme-Highlight"
       d="m-26.5 55.289c-0.58388 0.58388-0.70253 1.6265-0.02344 2.7656l-3.1875 2.1328c-0.3963-0.15991-0.8217-0.27914-1.2422-0.28125-0.54657-0.0028-1.0781 0.16406-1.5469 0.63281l2.25 2.25-3 3-0.75 1.5 1.5-0.75 3-3 2.25 2.25c0.83022-0.83022 0.72356-1.8808 0.35156-2.7891l2.1328-3.1875c1.1391 0.67909 2.1817 0.56044 2.7656-0.02344z"
       fill="currentColor"
       stroke-width="1.5"
       id="path1317" />
  </g>
</svg>
