<?xml version="1.0" encoding="UTF-8" standalone="no"?>
<svg
   id="svg"
   version="1.1"
   viewBox="0 0 22 22"
   width="22"
   height="22"
   sodipodi:docname="22-22-notification-inactive.svg"
   inkscape:version="1.2.2 (b0a8486541, 2022-12-01)"
   xmlns:inkscape="http://www.inkscape.org/namespaces/inkscape"
   xmlns:sodipodi="http://sodipodi.sourceforge.net/DTD/sodipodi-0.dtd"
   xmlns="http://www.w3.org/2000/svg"
   xmlns:svg="http://www.w3.org/2000/svg"
   xmlns:rdf="http://www.w3.org/1999/02/22-rdf-syntax-ns#"
   xmlns:cc="http://creativecommons.org/ns#"
   xmlns:dc="http://purl.org/dc/elements/1.1/">
  <sodipodi:namedview
     id="namedview30"
     pagecolor="#ffffff"
     bordercolor="#000000"
     borderopacity="0.25"
     inkscape:showpageshadow="2"
     inkscape:pageopacity="0.0"
     inkscape:pagecheckerboard="0"
     inkscape:deskcolor="#d1d1d1"
     showgrid="false"
     inkscape:zoom="4.5621161"
     inkscape:cx="44.935288"
     inkscape:cy="43.181716"
     inkscape:window-width="1920"
     inkscape:window-height="1026"
     inkscape:window-x="0"
     inkscape:window-y="24"
     inkscape:window-maximized="1"
     inkscape:current-layer="svg" />
  <metadata
     id="metadata2">
    <rdf:RDF>
      <cc:Work
         rdf:about="">
        <dc:format>image/svg+xml</dc:format>
        <dc:type
           rdf:resource="http://purl.org/dc/dcmitype/StillImage" />
      </cc:Work>
    </rdf:RDF>
  </metadata>
  <defs
     id="defs5">
    <style
       id="current-color-scheme"
       type="text/css">.ColorScheme-Text {
        color:#a1adc8;
      }
    </style>
  </defs>
  <g
     id="g317">
    <path
       class="ColorScheme-Text"
       d="m 10.994,4 c 3.1489,0 5.7439,2.3349 5.9844,5.3554 l 0.0134,0.22222 0.0045,0.22452 -0.001,3.5959 0.9254,2.2222 c 0.0226,0.0541 0.0403,0.11 0.053,0.1669 l 0.0152,0.0862 0.0087,0.1313 c 0,0.448 -0.2965,0.8341 -0.7492,0.9631 l -0.1163,0.0268 -0.1345,0.0101 -3.5017,-6e-4 -0.005,0.1613 c -0.0851,1.3037 -1.1694,2.3347 -2.4946,2.3347 -1.3255,0 -2.41,-1.0315 -2.4947,-2.3356 l -0.0057,-0.1604 -3.5007,6e-4 c -0.08795,0 -0.17533,-0.0116 -0.25989,-0.0344 l -0.12446,-0.0425 c -0.41078,-0.171 -0.65275,-0.5885 -0.60235,-1.052 l 0.02109,-0.1274 0.04242,-0.1281 0.9233,-2.2192 0.0011,-3.6082 0.0043,-0.22457 c 0.12262,-3.1171 2.7666,-5.5682 5.9933,-5.5682 z m 1.5019,13.004 h -3 l 0.0074,0.1414 c 0.06855,0.7127 0.63578,1.2796 1.3486,1.3477 l 0.14444,0.007 c 0.7797,0 1.4205,-0.5949 1.4931,-1.3555 z M 10.994,5 C 8.3714,5 6.2235,6.9237 6.0135,9.385 L 6.00028,9.59725 5.99638,9.80216 v 3.6979 l -0.03841,0.1922 -0.96271,2.3124 11.958,0.002 0.0453,-0.002 -0.9635,-2.3123 -0.0384,-0.1922 10e-5,-3.6876 -0.0041,-0.2041 c -0.1051,-2.5734 -2.3013,-4.6083 -4.9983,-4.6083 z"
       fill="currentColor"
       id="path37" />
    <rect
       x="0"
       y="0"
       width="22"
       height="22"
       fill="none"
       stroke-linecap="round"
       stroke-linejoin="round"
       stroke-width="2.2"
       id="rect39" />
  </g>
</svg>
