<?xml version="1.0" encoding="UTF-8" standalone="no"?>
<svg
   id="svg846"
   version="1.1"
   viewBox="0 0 5.8208332 5.820833"
   height="21.999998"
   width="22"
   sodipodi:docname="update-high.svg"
   inkscape:version="1.2.2 (b0a8486541, 2022-12-01)"
   xmlns:inkscape="http://www.inkscape.org/namespaces/inkscape"
   xmlns:sodipodi="http://sodipodi.sourceforge.net/DTD/sodipodi-0.dtd"
   xmlns="http://www.w3.org/2000/svg"
   xmlns:svg="http://www.w3.org/2000/svg"
   xmlns:rdf="http://www.w3.org/1999/02/22-rdf-syntax-ns#"
   xmlns:cc="http://creativecommons.org/ns#"
   xmlns:dc="http://purl.org/dc/elements/1.1/">
  <sodipodi:namedview
     id="namedview22"
     pagecolor="#ffffff"
     bordercolor="#000000"
     borderopacity="0.25"
     inkscape:showpageshadow="2"
     inkscape:pageopacity="0.0"
     inkscape:pagecheckerboard="0"
     inkscape:deskcolor="#d1d1d1"
     showgrid="false"
     inkscape:zoom="11.611581"
     inkscape:cx="-14.812798"
     inkscape:cy="19.291086"
     inkscape:window-width="1920"
     inkscape:window-height="1026"
     inkscape:window-x="0"
     inkscape:window-y="24"
     inkscape:window-maximized="1"
     inkscape:current-layer="svg846" />
  <defs
     id="defs840" />
  <metadata
     id="metadata843">
    <rdf:RDF>
      <cc:Work
         rdf:about="">
        <dc:format>image/svg+xml</dc:format>
        <dc:type
           rdf:resource="http://purl.org/dc/dcmitype/StillImage" />
      </cc:Work>
    </rdf:RDF>
  </metadata>
  <style
     type="text/css"
     id="current-color-scheme" />
  <g
     transform="translate(-5.8208333,-291.17914)"
     id="layer1">
    <rect
       style="opacity:0.003;fill:#000000;fill-opacity:1;stroke:none;stroke-width:0.10795;stroke-miterlimit:4;stroke-dasharray:none;stroke-opacity:1"
       id="rect1396-3"
       width="5.8208332"
       height="5.8208332"
       x="5.8208332"
       y="291.17914"
       ry="1.2988288e-06"
       inkscape:label="rect39" />
    <path
       id="path5-6-36-3-35-9-1"
       style="color:#dedede;display:inline;fill:#ff3e00;fill-opacity:1;stroke-width:0.287824"
       class="ColorScheme-Text"
       d="m 8.7286663,291.80752 c -1.2421522,0 -2.2489584,1.0216 -2.2489584,2.28203 0,1.2604 1.0068062,2.28203 2.2489584,2.28203 1.2421516,0 2.2489587,-1.02163 2.2489587,-2.28203 0,-1.26042 -1.0068071,-2.28203 -2.2489587,-2.28203 z m -0.012904,0.98991 v 5.2e-4 h 5.162e-4 c 0.00646,-2.3e-4 0.012045,0 0.011356,0 h 0.00103 c 0.034447,10e-5 0.069536,0.007 0.1027181,0.021 0.036818,0.0151 0.067214,0.0368 0.090846,0.0608 a 0.10343699,0.10495798 0 0 1 0.00155,0.003 l 0.7195429,0.76522 0.00155,0.003 c 0.055676,0.0579 0.080456,0.13674 0.075361,0.21317 0.00519,0.0775 -0.01825,0.15837 -0.076393,0.21736 -0.057314,0.0583 -0.133256,0.0812 -0.2059524,0.0812 -0.070279,0 -0.1426872,-0.0245 -0.1992421,-0.0786 -0.0031,-10e-4 -0.00629,-0.004 -0.00929,-0.006 -0.01786,-0.0103 -0.035925,-0.0207 -0.051617,-0.0367 l -0.1393705,-0.14089 v 1.20361 c 0,0.15535 -0.1361036,0.2657 -0.2849266,0.27654 0,0 -0.0089,0.001 -0.025808,0.001 -0.013834,0 -0.02053,-0.001 -0.023227,-0.001 -0.1493194,-0.0103 -0.2859589,-0.12074 -0.2859589,-0.27654 v -1.20204 l -0.1378178,0.13932 c -0.015552,0.0158 -0.033664,0.0234 -0.050585,0.0335 a 0.10343699,0.10495798 0 0 1 -0.00362,0.006 c -7.991e-4,7.2e-4 -0.00188,2.2e-4 -0.00258,5.2e-4 -0.011786,0.009 -0.00679,0.004 -0.00619,0.003 3.995e-4,-4.1e-4 0.00103,-7.6e-4 0.00155,-0.001 -0.0012,5.6e-4 -0.00293,7.6e-4 -0.00413,0.001 -0.056275,0.0519 -0.1255559,0.0775 -0.1945965,0.0775 -0.072876,0 -0.1499371,-0.0233 -0.2075009,-0.0817 -0.057314,-0.0581 -0.081487,-0.13845 -0.076393,-0.21579 -0.00499,-0.0764 0.019655,-0.15529 0.075361,-0.21317 l 0.7221236,-0.7694 a 0.10343699,0.10495798 0 0 1 0.00207,-0.003 c 0.023483,-0.0238 0.053366,-0.0462 0.089814,-0.0613 0.028617,-0.0124 0.058949,-0.0195 0.089814,-0.0205 z"
       inkscape:label="path56" />
  </g>
</svg>
