<?xml version="1.0" encoding="UTF-8" standalone="no"?>
<!-- Created with Inkscape (http://www.inkscape.org/) -->

<svg
   width="24"
   height="24"
   viewBox="0 0 6.3499997 6.3500001"
   version="1.1"
   id="svg2435"
   inkscape:version="1.2.2 (b0a8486541, 2022-12-01)"
   sodipodi:docname="configure.svg"
   xmlns:inkscape="http://www.inkscape.org/namespaces/inkscape"
   xmlns:sodipodi="http://sodipodi.sourceforge.net/DTD/sodipodi-0.dtd"
   xmlns="http://www.w3.org/2000/svg"
   xmlns:svg="http://www.w3.org/2000/svg"
   xmlns:rdf="http://www.w3.org/1999/02/22-rdf-syntax-ns#"
   xmlns:cc="http://creativecommons.org/ns#"
   xmlns:dc="http://purl.org/dc/elements/1.1/">
  <defs
     id="defs2429">
    <style
       id="current-color-scheme"
       type="text/css">.ColorScheme-Text {
        color:#a1adc8;
      }</style>
  </defs>
  <sodipodi:namedview
     id="base"
     pagecolor="#ffffff"
     bordercolor="#666666"
     borderopacity="1.0"
     inkscape:pageopacity="0.0"
     inkscape:pageshadow="2"
     inkscape:zoom="20.879381"
     inkscape:cx="16.188219"
     inkscape:cy="12.021429"
     inkscape:document-units="px"
     inkscape:current-layer="g4732"
     showgrid="true"
     units="px"
     inkscape:window-width="1920"
     inkscape:window-height="1026"
     inkscape:window-x="0"
     inkscape:window-y="24"
     inkscape:window-maximized="1"
     inkscape:showpageshadow="2"
     inkscape:pagecheckerboard="0"
     inkscape:deskcolor="#d1d1d1">
    <inkscape:grid
       type="xygrid"
       id="grid2980"
       spacingx="0.13229167"
       spacingy="0.13229167"
       visible="false"
       originx="0"
       originy="0" />
  </sodipodi:namedview>
  <metadata
     id="metadata2432">
    <rdf:RDF>
      <cc:Work
         rdf:about="">
        <dc:format>image/svg+xml</dc:format>
        <dc:type
           rdf:resource="http://purl.org/dc/dcmitype/StillImage" />
      </cc:Work>
    </rdf:RDF>
  </metadata>
  <g
     id="g4732"
     style="display:inline"
     inkscape:label="configure"
     transform="matrix(1.0909091,0,0,1.0909091,0,1.074219e-6)">
    <rect
       style="display:inline;fill:none;stroke-width:0.418571;stroke-opacity:0.372549"
       id="rect845"
       width="5.8208332"
       height="5.8208332"
       x="0"
       y="-1.1816406e-05" />
    <path
       id="rect2907-3"
       class="ColorScheme-Text"
       style="display:inline;fill:currentColor;fill-opacity:1;fill-rule:evenodd;stroke:none;stroke-width:0.318067;stroke-linecap:square"
       d="m 1.8501934,1.0550142 c -0.4405228,0 -0.7951674,0.3546446 -0.7951674,0.7951674 0,0.4405228 0.3546446,0.7951674 0.7951674,0.7951674 h 2.1204465 c 0.4405226,0 0.7951673,-0.3546446 0.7951673,-0.7951674 0,-0.4405228 -0.3546447,-0.7951674 -0.7951673,-0.7951674 z m 0,0.2650559 h 2.1204465 c 0.2936818,0 0.5301115,0.2364297 0.5301115,0.5301115 0,0.2936819 -0.2364297,0.5301117 -0.5301115,0.5301117 H 1.8501934 c -0.2936818,0 -0.5301116,-0.2364298 -0.5301116,-0.5301117 0,-0.2936818 0.2364298,-0.5301115 0.5301116,-0.5301115 z m 0.06937,0.1247624 A 0.39758371,0.39758371 0 0 0 1.5219804,1.8424163 0.39758371,0.39758371 0 0 0 1.9195641,2.24 0.39758371,0.39758371 0 0 0 2.3171478,1.8424163 0.39758371,0.39758371 0 0 0 1.9195634,1.4448325 Z m -0.06937,1.7306281 c -0.4405228,0 -0.7951674,0.3546448 -0.7951674,0.7951674 0,0.4405227 0.3546446,0.7951674 0.7951674,0.7951674 h 2.1204465 c 0.4405226,0 0.7951673,-0.3546447 0.7951673,-0.7951674 0,-0.4405226 -0.3546447,-0.7951674 -0.7951673,-0.7951674 z M 3.9706399,3.4405164 A 0.5301116,0.5301116 0 0 1 4.5007514,3.970628 0.5301116,0.5301116 0 0 1 3.9706399,4.5007396 0.5301116,0.5301116 0 0 1 3.4405282,3.970628 0.5301116,0.5301116 0 0 1 3.9706399,3.4405164 Z" />
  </g>
</svg>
