<?xml version="1.0" encoding="UTF-8" standalone="no"?>
<svg
   version="1.1"
   viewBox="0 0 24 24"
   id="svg7"
   sodipodi:docname="folder-open-recent.svg"
   inkscape:version="1.2.2 (b0a8486541, 2022-12-01)"
   width="24"
   height="24"
   xmlns:inkscape="http://www.inkscape.org/namespaces/inkscape"
   xmlns:sodipodi="http://sodipodi.sourceforge.net/DTD/sodipodi-0.dtd"
   xmlns="http://www.w3.org/2000/svg"
   xmlns:svg="http://www.w3.org/2000/svg">
  <sodipodi:namedview
     id="namedview9"
     pagecolor="#ffffff"
     bordercolor="#666666"
     borderopacity="1.0"
     inkscape:pageshadow="2"
     inkscape:pageopacity="0.0"
     inkscape:pagecheckerboard="0"
     showgrid="false"
     inkscape:zoom="16.844068"
     inkscape:cx="0.53431273"
     inkscape:cy="8.6083718"
     inkscape:current-layer="svg7"
     inkscape:showpageshadow="2"
     inkscape:deskcolor="#d1d1d1"
     inkscape:window-width="1920"
     inkscape:window-height="1026"
     inkscape:window-x="0"
     inkscape:window-y="24"
     inkscape:window-maximized="1" />
  <defs
     id="defs3">
    <style
       type="text/css"
       id="current-color-scheme">
            .ColorScheme-Text {
                color:#a1adc8;
            }
        </style>
  </defs>
  <rect
     style="fill:none;fill-opacity:1;stroke-width:6.52277;stroke-opacity:0.372549"
     id="rect898"
     width="24"
     height="24"
     x="0"
     y="0" />
  <path
     style="clip-rule:evenodd;fill:currentColor;fill-rule:evenodd;stroke-width:1.3013;stroke-linejoin:round;stroke-miterlimit:2"
     class="ColorScheme-Text"
     d="m 6.924193,4.9008016 c 0.4658656,0 0.6883881,0.2407407 1.0358353,0.7014011 0.3474473,0.4593592 0.506206,0.7508506 1.142542,0.7755753 h 9.5346307 c 0.573874,0 1.035836,0.4606605 1.035836,1.0345341 V 18.030927 c 0,0.573874 -0.461962,1.035836 -1.035836,1.035836 h -7.658154 c 0.169168,-0.308409 0.309709,-0.635035 0.415114,-0.975975 h 6.674372 c 0.347447,0 0.628527,-0.281082 0.628527,-0.628529 V 7.9809805 c 0,-0.3474473 -0.28108,-0.627227 -0.628527,-0.627227 H 8.8162843 c -0.3968968,0 -1.1009004,-0.4788787 -1.3520515,-0.7300297 C 7.2130817,6.3725727 7.0074763,5.8767772 6.3555245,5.8767772 h -2.648147 c -0.3474472,0 -0.6285282,0.2810809 -0.6285282,0.6285283 V 12.372871 C 2.7118825,12.660458 2.3839547,12.994892 2.1028738,13.368365 V 5.9366371 c 0,-0.5738736 0.4619617,-1.0358355 1.0358353,-1.0358355 z"
     id="path5-3"
     inkscape:label="path5" />
  <path
     style="clip-rule:evenodd;fill:currentColor;fill-opacity:0.3;fill-rule:evenodd;stroke-width:1.3013;stroke-linejoin:round;stroke-miterlimit:2"
     class="ColorScheme-Text"
     d="m 4.5219919,4.9008016 v -0.841941 c 0,-0.5738736 0.4606604,-1.0358353 1.034534,-1.0358353 h 3.7867852 c 0.4658656,0 0.6883879,0.2420418 1.0345339,0.7014011 0.347448,0.4593591 0.506206,0.7508499 1.143844,0.7755746 h 9.53463 c 0.572573,0 1.034534,0.4619618 1.034534,1.0345341 V 16.154451 c 0,0.572573 -0.461961,1.034534 -1.034534,1.034534 H 19.673037 V 7.4123121 c 0,-0.5738736 -0.461962,-1.0345341 -1.035836,-1.0345341 H 9.1025703 C 8.4662343,6.3530533 8.3074756,6.0615619 7.9600283,5.6022027 7.6125811,5.1415423 7.3900586,4.9008016 6.924193,4.9008016 Z"
     id="path7" />
  <path
     style="clip-rule:evenodd;fill:currentColor;fill-rule:evenodd;stroke-width:1.3013;stroke-linejoin:round;stroke-miterlimit:2"
     class="ColorScheme-Text"
     d="m 6.3334024,11.983781 c -2.4984974,0 -4.5545525,2.056055 -4.5545525,4.554555 0,2.498497 2.0560551,4.554552 4.5545525,4.554552 2.4984975,0 4.5545526,-2.056055 4.5545526,-4.554552 0,-2.4985 -2.0560551,-4.554555 -4.5545526,-4.554555 z m -0.3474473,1.301301 h 0.6948946 l 0.3032031,2.602603 2.6026015,0.413813 v 0.473674 l -3.9039022,0.413813 z"
     id="path9" />
</svg>
