<?xml version="1.0" encoding="UTF-8" standalone="no"?>
<svg
   width="24"
   height="24"
   version="1.1"
   id="svg9"
   sodipodi:docname="view-list-compact.svg"
   inkscape:version="1.2.2 (b0a8486541, 2022-12-01)"
   xmlns:inkscape="http://www.inkscape.org/namespaces/inkscape"
   xmlns:sodipodi="http://sodipodi.sourceforge.net/DTD/sodipodi-0.dtd"
   xmlns="http://www.w3.org/2000/svg"
   xmlns:svg="http://www.w3.org/2000/svg">
   <sodipodi:namedview
     id="namedview11"
     pagecolor="#ffffff"
     bordercolor="#000000"
     borderopacity="0.25"
     inkscape:showpageshadow="2"
     inkscape:pageopacity="0.0"
     inkscape:pagecheckerboard="0"
     inkscape:deskcolor="#d1d1d1"
     showgrid="false"
     inkscape:zoom="32.439149"
     inkscape:cx="8.0458338"
     inkscape:cy="11.714241"
     inkscape:window-width="1920"
     inkscape:window-height="1026"
     inkscape:window-x="0"
     inkscape:window-y="24"
     inkscape:window-maximized="1"
     inkscape:current-layer="svg9" />
  <defs
     id="defs3">
    <style
       id="current-color-scheme"
       type="text/css">
   .ColorScheme-Text { color:#a1adc8; }
  </style>
  </defs>
  <rect
     style="opacity:0.483328;fill:none;stroke-width:0.8;stroke-dasharray:21.1654, 2.64567"
     id="rect198"
     width="24"
     height="24"
     x="0"
     y="0" />
  <g
     id="g157"
     transform="matrix(1.3040623,0,0,1.3040623,-2.6889961,-3.04755)">
    <path
       class="ColorScheme-Text"
       style="fill:currentColor;fill-opacity:1;stroke-width:0.875"
       d="m 9.3120236,13.331899 c -0.4121207,6.9e-4 -0.4421356,1.57357 0,1.575 3.3065934,0.0107 4.0777584,-0.01552 6.9125004,0 0.451498,0.0025 0.400671,-1.57186 0,-1.575 -3.304975,-0.0259 -3.607539,-0.0055 -6.9125004,0 z"
       id="path303"
       sodipodi:nodetypes="sccss" />
    <path
       class="ColorScheme-Text"
       style="fill:currentColor;fill-opacity:1;stroke-width:0.875"
       d="m 6.0745235,13.448133 c -0.1935933,0.145471 -0.278232,1.124259 0,1.575 0.1718465,0.278394 1.2495007,0.261036 1.575,0 0.3147096,-0.252383 0.3356046,-1.343258 0,-1.575 -0.5773902,-0.3987 -1.3701658,-0.153919 -1.575,0 z"
       id="path305"
       sodipodi:nodetypes="sssss" />
    <path
       class="ColorScheme-Text"
       style="fill:currentColor;fill-opacity:1;stroke-width:0.875"
       d="m 6.0745235,10.823133 c -0.1935933,0.145471 -0.278232,1.124259 0,1.575 0.1718465,0.278394 1.2495007,0.261036 1.575,0 0.3147096,-0.252384 0.3356046,-1.343258 0,-1.575 -0.5773902,-0.3987 -1.3701658,-0.153919 -1.575,0 z"
       id="path301"
       sodipodi:nodetypes="sssss" />
    <path
       class="ColorScheme-Text"
       style="fill:currentColor;fill-opacity:1;stroke-width:0.875"
       d="m 9.3120236,10.706901 c -0.4121207,6.91e-4 -0.4421356,1.57357 0,1.575 3.3065934,0.0107 3.5527584,-0.01552 6.3875004,0 0.451498,0.0024 0.400671,-1.571859 0,-1.575 -3.304975,-0.0259 -3.082539,-0.0055 -6.3875004,0 z"
       id="path299"
       sodipodi:nodetypes="ccccc" />
    <path
       class="ColorScheme-Text"
       style="fill:currentColor;fill-opacity:1;stroke-width:0.875"
       d="m 9.3120236,8.0690613 c -0.4121207,6.898e-4 -0.4421356,1.5735695 0,1.575 3.3065934,0.010699 4.1652584,-0.015524 7.0000004,0 0.451498,0.00248 0.400671,-1.5718604 0,-1.575 -3.304975,-0.025897 -3.695039,-0.00553 -7.0000004,0 z"
       id="path248"
       sodipodi:nodetypes="sscss" />
    <path
       class="ColorScheme-Text"
       style="fill:currentColor;fill-opacity:1;stroke-width:0.875"
       d="m 6.0745235,8.0690613 c -0.1935933,0.1454716 -0.278232,1.1242596 0,1.575 0.1718465,0.2783944 1.2495007,0.2610362 1.575,0 0.3147096,-0.2523834 0.3356046,-1.3432582 0,-1.575 -0.5773902,-0.3986997 -1.3701658,-0.1539185 -1.575,0 z"
       id="path5"
       sodipodi:nodetypes="sssss" />
  </g>
</svg>
