<?xml version="1.0" encoding="UTF-8" standalone="no"?>
<svg
   width="22"
   height="22"
   version="1.1"
   viewBox="0 0 22 22"
   id="svg65"
   sodipodi:docname="media.svg"
   inkscape:version="1.1.2 (0a00cf5339, 2022-02-04)"
   xmlns:inkscape="http://www.inkscape.org/namespaces/inkscape"
   xmlns:sodipodi="http://sodipodi.sourceforge.net/DTD/sodipodi-0.dtd"
   xmlns="http://www.w3.org/2000/svg"
   xmlns:svg="http://www.w3.org/2000/svg">
  <sodipodi:namedview
     id="namedview67"
     pagecolor="#ffffff"
     bordercolor="#666666"
     borderopacity="1.0"
     inkscape:pageshadow="2"
     inkscape:pageopacity="0.0"
     inkscape:pagecheckerboard="0"
     showgrid="false"
     inkscape:zoom="5.3994048"
     inkscape:cx="46.023591"
     inkscape:cy="-9.5380883"
     inkscape:window-width="1440"
     inkscape:window-height="748"
     inkscape:window-x="0"
     inkscape:window-y="28"
     inkscape:window-maximized="1"
     inkscape:current-layer="media-skip-backward" />
  <defs
     id="defs3">
    <style
       id="current-color-scheme"
       type="text/css">.ColorScheme-Text { color:#a1adc8; } .ColorScheme-Highlight { color:#5294e2; } .ColorScheme-ButtonBackground { color:#a1adc8; }</style>
  </defs>
  <g
     id="media-record"
     transform="translate(22,-1030.4)">
    <rect
       y="1030.4"
       width="22"
       height="22"
       opacity="0.00100002"
       id="rect5"
       x="0" />
    <path
       class="ColorScheme-Highlight"
       d="m 11,1035.4 c -3.311,0 -6,2.6888 -6,6 0,3.311 2.689,6 6,6 3.311,0 6,-2.689 6,-6 0,-3.3112 -2.689,-6 -6,-6 z"
       fill="#f96060"
       id="path7"
       style="display:none" />
    <path
       style="display:inline;fill:#f96060;fill-opacity:1;stroke-width:0.727214"
       d="M 11,1032.6734 A 8.72656,8.72656 0 0 0 2.27344,1041.4 8.72656,8.72656 0 0 0 11,1050.1266 8.72656,8.72656 0 0 0 19.72656,1041.4 8.72656,8.72656 0 0 0 11,1032.6734 Z m 0,0.7273 A 7.9993473,7.9993473 0 0 1 18.999346,1041.4 7.9993473,7.9993473 0 0 1 11,1049.3993 7.9993473,7.9993473 0 0 1 3.0006533,1041.4 7.9993473,7.9993473 0 0 1 11,1033.4007 Z m 0,4.3632 A 3.6360666,3.6360666 0 0 0 7.3639334,1041.4 3.6360666,3.6360666 0 0 0 11,1045.0361 3.6360666,3.6360666 0 0 0 14.636066,1041.4 3.6360666,3.6360666 0 0 0 11,1037.7639 Z"
       id="path94" />
  </g>
  <g
     id="media-playback-stop"
     transform="translate(44,-1030.4)">
    <rect
       y="1030.4"
       width="22"
       height="22"
       opacity="0.00100002"
       id="rect10"
       x="0" />
    <path
       class="ColorScheme-Text"
       d="m 5,1035.4 v 12 h 12 v -12 z"
       fill="currentColor"
       id="path12"
       style="display:none" />
    <path
       id="path62-7"
       style="color:#a1adc8;fill:#a1adc8;fill-opacity:1;stroke-width:1.62499"
       class="ColorScheme-Text"
       d="m 55,2.3339844 c -4.801505,0 -8.666016,3.8643156 -8.666016,8.6660156 0,4.8014 3.864673,8.666016 8.666016,8.666016 4.801504,0 8.666016,-3.864616 8.666016,-8.666016 C 63.666016,6.1983 59.801341,2.3339844 55,2.3339844 Z M 53.101562,7.203125 h 3.796876 c 0.521985,0 0.993359,0.2082597 1.335937,0.546875 H 58.25 v 0.015625 c 0.338632,0.3425615 0.546875,0.8139638 0.546875,1.3359375 v 3.7968755 c 0,0.521973 -0.208243,0.993375 -0.546875,1.335937 V 14.25 h -0.01563 c -0.342578,0.338615 -0.813952,0.546875 -1.335937,0.546875 h -3.796876 c -0.521984,0 -0.993359,-0.20826 -1.335937,-0.546875 H 51.75 V 14.23437 C 51.411368,13.891813 51.203125,13.420411 51.203125,12.898438 V 9.1015625 c 0,-0.5219737 0.208243,-0.993376 0.546875,-1.3359375 V 7.75 h 0.01563 c 0.342578,-0.3386153 0.813953,-0.546875 1.335937,-0.546875 z"
       transform="translate(-44,1030.4)" />
  </g>
  <g
     id="media-skip-forward"
     transform="translate(66,-1030.4)">
    <rect
       y="1030.4"
       width="22"
       height="22"
       opacity="0.00100002"
       id="rect15"
       x="0" />
    <path
       class="ColorScheme-Text"
       d="m 19,1037.4 v 8 h -2 v -8 z m -2,4 -7,4 v -8 z m -7,0 -7,4 v -8 z"
       fill="currentColor"
       id="path17"
       sodipodi:nodetypes="ccccccccccccc"
       style="display:none" />
    <path
       style="fill:#a1adc8;fill-opacity:1"
       d="m 15.015558,1036.3861 c 0.551527,0.01 0.991943,0.4622 0.984375,1.0137 v 8 c 0.01912,1.3523 -2.019125,1.3523 -2,0 v -3.9863 c -0.004,0.6272 -0.289283,1.1985 -0.738281,1.4785 l -5.3339848,3.332 c -0.8858409,0.5511 -1.9263936,-0.2533 -1.927734,-1.4902 v -6.666 c -1.53e-5,-0.8972 0.5679478,-1.6334 1.285156,-1.666 0.2225683,-0.01 0.4434807,0.051 0.642578,0.1757 l 5.3339848,3.3321 c 0.448998,0.28 0.734284,0.8513 0.738281,1.4785 v -3.9883 c -0.0077,-0.5638 0.45186,-1.0225 1.015625,-1.0137 z"
       id="path99"
       sodipodi:nodetypes="scccccccccccccs" />
  </g>
  <g
     id="media-skip-backward"
     transform="matrix(-1,0,0,1,110,-1030.4)">
    <rect
       y="1030.4"
       width="22"
       height="22"
       opacity="0.00100002"
       id="rect20"
       x="0" />
    <path
       class="ColorScheme-Text"
       d="m 19,1037.4 v 8 h -2 v -8 z m -2,4 -7,4 v -8 z m -7,0 -7,4 v -8 z"
       fill="currentColor"
       id="path22"
       style="display:none" />
    <path
       style="display:inline;fill:#a1adc8;fill-opacity:1"
       d="m 15.015558,1036.3861 c 0.551527,0.01 0.991943,0.4622 0.984375,1.0137 v 8 c 0.01913,1.3523 -2.019125,1.3523 -2,0 v -3.9863 c -0.004,0.6272 -0.289283,1.1985 -0.738281,1.4785 l -5.3339849,3.332 c -0.8858409,0.5511 -1.9263936,-0.2533 -1.927734,-1.4902 v -6.666 c -1.53e-5,-0.8972 0.5679478,-1.6334 1.285156,-1.666 0.2225683,-0.01 0.4434807,0.051 0.642578,0.1757 l 5.3339849,3.3321 c 0.448998,0.28 0.734284,0.8513 0.738281,1.4785 v -3.9883 c -0.0077,-0.5638 0.45186,-1.0225 1.015625,-1.0137 z"
       id="path99-2"
       sodipodi:nodetypes="scccccccccccccs" />
  </g>
  <g
     id="media-seek-forward"
     transform="translate(110,-1030.4)">
    <rect
       y="1030.4"
       width="22"
       height="22"
       opacity="0.00100002"
       id="rect25"
       x="0" />
    <path
       class="ColorScheme-Text"
       d="m 11,1037.4 7,4 -7,4 z m 0,4 -7,4 v -8 z"
       fill="currentColor"
       id="path27"
       style="display:none" />
    <path
       style="fill:#a1adc8;fill-opacity:1"
       d="m 12.123047,1036.3883 c 0.195485,-0.01 0.389584,0.05 0.564453,0.1757 l 4.667969,3.3321 c 0.860364,0.6143 0.860364,2.3681 0,2.9824 l -4.667969,3.332 c -0.77533,0.552 -1.686546,-0.2527 -1.6875,-1.4902 v -3.3203 -3.3457 c -4.4e-5,-0.8963 0.49605,-1.6323 1.123047,-1.666 z M 11,1041.4 c -0.0032,0.6267 -0.252227,1.1979 -0.644531,1.4785 l -4.667969,3.332 C 4.9121976,1046.7627 4.000903,1045.958 4,1044.7203 v -6.666 c -4.24e-5,-0.8964 0.4960656,-1.6323 1.123047,-1.666 0.195485,-0.01 0.3895842,0.05 0.564453,0.1757 l 4.667969,3.3321 c 0.398033,0.2846 0.648047,0.868 0.644531,1.5039 z"
       id="path104"
       sodipodi:nodetypes="cccccccccccccccccc" />
  </g>
  <g
     id="media-seek-backward"
     transform="matrix(-1,0,0,1,154,-1030.4)">
    <rect
       y="1030.4"
       width="22"
       height="22"
       opacity="0.00100002"
       id="rect30"
       x="0" />
    <path
       class="ColorScheme-Text"
       d="m 11,1037.4 7,4 -7,4 z m 0,4 -7,4 v -8 z"
       fill="currentColor"
       id="path32"
       style="display:none" />
    <path
       style="display:inline;fill:#a1adc8;fill-opacity:1"
       d="m 12.122676,1036.4008 c 0.195485,-0.01 0.389584,0.051 0.564453,0.1757 l 4.667969,3.3321 c 0.860364,0.6143 0.860364,2.3681 0,2.9824 l -4.667969,3.332 c -0.77533,0.552 -1.686546,-0.2527 -1.6875,-1.4902 v -3.3203 -3.3457 c -4.4e-5,-0.8963 0.49605,-1.6323 1.123047,-1.666 z m -1.123047,5.0117 c -0.0032,0.6267 -0.252227,1.1979 -0.644531,1.4785 l -4.667969,3.332 c -0.775302,0.5522 -1.686597,-0.2525 -1.6875,-1.4902 v -6.666 c -4.2e-5,-0.8964 0.496066,-1.6323 1.123047,-1.666 0.195485,-0.01 0.389584,0.051 0.564453,0.1757 l 4.667969,3.3321 c 0.398033,0.2846 0.648047,0.868 0.644531,1.5039 z"
       id="path84"
       sodipodi:nodetypes="cccccccccccccccccc" />
  </g>
  <g
     id="media-eject"
     transform="translate(-44,-1030.4)">
    <rect
       y="1030.4"
       width="22"
       height="22"
       opacity="0.00100002"
       id="rect35"
       x="0" />
    <path
       class="ColorScheme-Text"
       d="m 11,1036.4 -5,5 v 1 h 10 v -1 z m -5,8 v 2 h 10 v -2 z"
       display="none"
       fill="currentColor"
       id="path37" />
    <path
       style="display:inline;fill:#a1adc8;fill-opacity:1;stroke-width:1"
       d="m 11.01367,1036.1038 c -0.636369,0 -1.2198537,0.2828 -1.5039047,0.7383 l -3.3320305,3.63 c -0.124755,0.1991 -0.1851825,0.42 -0.175782,0.6426 0.03264,0.7172 0.768906,1.2851 1.666017,1.2851 h 6.6660152 c 1.236858,0 2.041227,-1.0418 1.490235,-1.9277 l -3.332031,-3.63 c -0.279965,-0.4489 -0.851282,-0.7383 -1.478517,-0.7383 z m -4.0136697,8.2961 c -1.3545495,-0.021 -1.3545495,2.0214 0,1.9999 h 7.9999987 c 1.35455,0.021 1.35455,-2.0214 0,-1.9999 z"
       id="path89"
       sodipodi:nodetypes="scccccccssccccc" />
  </g>
  <g
     id="media-playback-pause"
     transform="translate(-22,-1030.4)">
    <rect
       y="1030.4"
       width="22"
       height="22"
       opacity="0.00100002"
       id="rect40"
       x="0"
       style="display:inline" />
    <path
       class="ColorScheme-Text"
       d="m 12.086753,1038.1398 h 2.173508 v 6.5205 h -2.173508 z m -4.347016,0 h 2.173508 v 6.5205 H 7.739737 Z m 3.260262,-5.4336 c -4.816469,0 -8.693868,3.8774 -8.693868,8.6939 0,4.8165 3.877562,8.6938 8.693868,8.6938 4.816471,0 8.69387,-3.8773 8.69387,-8.6938 0,-4.8165 -3.877562,-8.6939 -8.69387,-8.6939 z"
       fill="currentColor"
       id="path52-6"
       style="color:#a1adc8;display:none;fill:#c8a1a1;fill-opacity:1;stroke-width:1.63005" />
    <path
       id="path52-5"
       style="color:#a1adc8;display:inline;fill:#a1adc8;fill-opacity:1;stroke-width:1.63491"
       class="ColorScheme-Text"
       d="m 11,1032.6805 c -4.8308523,0 -8.7195565,3.8888 -8.7195565,8.7196 0,4.8308 3.8888677,8.7196 8.7195565,8.7196 4.830852,0 8.719556,-3.8888 8.719556,-8.7196 0,-4.8308 -3.888867,-8.7196 -8.719556,-8.7196 z m -2.2565264,5.3454 c 0.6312523,-0.011 1.1454435,0.5035 1.1367784,1.1346 v 4.479 c 0.021417,1.5144 -2.2609156,1.5144 -2.239495,0 v -4.479 c -0.0085,-0.6173 0.4851682,-1.1183 1.1027166,-1.1346 z m 4.4789924,0 c 0.631251,-0.011 1.145442,0.5035 1.136777,1.1346 v 4.479 c 0.02141,1.5142 -2.260896,1.5142 -2.239495,0 v -4.479 c -0.0085,-0.6173 0.485168,-1.1183 1.102718,-1.1346 z" />
    <path
       class="ColorScheme-Text"
       d="m 5,1035.4 v 12 h 4 v -12 z m 8,0 v 12 h 4 v -12 z"
       fill="currentColor"
       id="path42"
       style="display:none" />
  </g>
  <g
     id="media-playback-start"
     transform="translate(0,-1030.4)">
    <rect
       y="1030.4"
       width="22"
       height="22"
       opacity="0.00100002"
       id="rect45"
       x="0" />
    <path
       id="path57-3"
       style="color:#a1adc8;fill:#a1adc8;fill-opacity:1;stroke-width:1.08177"
       class="ColorScheme-Text"
       d="M 11.498047,2.3457031 C 6.703193,2.3457031 2.8457031,6.2051 2.8457031,11 c 0,4.7949 3.8574899,8.654297 8.6523439,8.654297 4.794854,0 8.65625,-3.859397 8.65625,-8.654297 0,-4.7949 -3.861396,-8.6542969 -8.65625,-8.6542969 z m -1.308594,4.8359375 c 0.170044,-0.0072 0.340071,0.039766 0.492188,0.1347656 l 4.076171,2.5449219 c 0.751233,0.4692999 0.751232,1.8099969 0,2.2792969 l -4.076171,2.544922 c -0.494424,0.307476 -1.0514408,0.06185 -1.3164066,-0.460938 l -0.029297,0.02149 v -0.08203 C 9.2559039,13.984323 9.2072945,13.775097 9.2070312,13.546875 V 8.4550781 c 3.2e-6,-0.2230194 0.048042,-0.4325367 0.1289063,-0.6152343 v -0.085938 l 0.029297,0.023438 C 9.5390674,7.4324803 9.8404481,7.1975637 10.189453,7.1816406 Z"
       transform="translate(0,1030.4)" />
    <path
       class="ColorScheme-Text"
       d="m 5.9999999,1035.4 v 12 L 17,1041.4 7.1007999,1036.0004 Z"
       fill="currentColor"
       id="path47"
       style="display:none;fill:#ea7fa0;fill-opacity:1" />
  </g>
  <g
     id="media-playback-paused"
     transform="matrix(1.5,0,0,1.5,-4.6412,-1522.6)">
    <rect
       x="3.6666999"
       y="1034"
       width="14.667"
       height="14.667"
       fill-opacity="0"
       id="rect50" />
    <path
       id="path52"
       style="fill:#a1adc8;fill-opacity:1;stroke-width:1.5"
       class="ColorScheme-Text"
       d="m 11.859375,31.5 c -4.4322,0 -8,3.5678 -8,8 0,4.4322 3.56795,8 8,8 4.4322,0 8,-3.5678 8,-8 0,-4.4322 -3.56795,-8 -8,-8 z m -2.0703125,4.904297 c 0.5791595,-0.009 1.0509185,0.461865 1.0429685,1.041015 v 4.109376 c 0.01965,1.3893 -2.0743403,1.3893 -2.0546872,0 v -4.109376 c -0.00777,-0.56655 0.4451314,-1.026015 1.0117187,-1.041015 z m 4.1093755,0 c 0.579159,-0.009 1.050918,0.461865 1.042968,1.041015 v 4.109376 c 0.01964,1.389149 -2.074322,1.389149 -2.054687,0 v -4.109376 c -0.0078,-0.56655 0.445131,-1.026015 1.011719,-1.041015 z"
       transform="matrix(0.66666667,0,0,0.66666667,3.0941333,1015.0667)" />
  </g>
  <g
     id="media-playback-playing"
     transform="matrix(1.5,0,0,1.5,19.358,-1522.6)">
    <rect
       x="3.6670001"
       y="1034"
       width="14.667"
       height="14.667"
       fill-opacity="0"
       id="rect55" />
    <path
       id="path57-3-3"
       style="color:#a1adc8;display:inline;fill:#a1adc8;fill-opacity:1;stroke-width:0.667848"
       class="ColorScheme-Text"
       d="m 10.998605,1036.0256 c -2.9601849,0 -5.3416723,2.3827 -5.3416723,5.3429 0,2.9602 2.3814874,5.3429 5.3416723,5.3429 2.960186,0 5.344085,-2.3827 5.344085,-5.3429 0,-2.9602 -2.383899,-5.3429 -5.344085,-5.3429 z m -0.807882,2.9856 c 0.104979,-0.01 0.209949,0.025 0.303859,0.083 l 2.516495,1.5711 c 0.463787,0.2898 0.463787,1.1175 0,1.4072 l -2.516495,1.5711 c -0.30524,0.1898 -0.6491238,0.039 -0.8127051,-0.2845 l -0.01809,0.012 v -0.051 c -0.049408,-0.1111 -0.07942,-0.2402 -0.079582,-0.381 v -3.1436 c 1.8e-6,-0.1377 0.029657,-0.2671 0.079583,-0.3799 v -0.053 l 0.018089,0.014 c 0.1073181,-0.2128 0.293381,-0.3578 0.5088441,-0.3676 z" />
  </g>
  <g
     id="media-playback-stopped"
     transform="matrix(1.5,0,0,1.5,43.358,-1522.6)">
    <rect
       x="3.6673"
       y="1034"
       width="14.667"
       height="14.667"
       fill-opacity="0"
       id="rect60" />
    <path
       id="path62-7-3"
       style="color:#a1adc8;fill:#a1adc8;fill-opacity:1;stroke-width:1.0001"
       class="ColorScheme-Text"
       d="m 11,1036.0666 c -2.955092,0 -5.3335098,2.3783 -5.3335098,5.3335 0,2.955 2.3785175,5.3335 5.3335098,5.3335 2.955091,0 5.33351,-2.3785 5.33351,-5.3335 0,-2.9552 -2.378519,-5.3335 -5.33351,-5.3335 z m -1.1683959,2.9967 h 2.3367919 c 0.321256,0 0.611364,0.1282 0.822204,0.3366 h 0.0096 v 0.01 c 0.208412,0.2109 0.336575,0.501 0.336575,0.8223 v 2.3367 c 0,0.3213 -0.128163,0.6114 -0.336575,0.8223 v 0.01 h -0.0096 c -0.21084,0.2084 -0.500948,0.3366 -0.822204,0.3366 H 9.8316041 c -0.3212557,0 -0.611364,-0.1282 -0.822204,-0.3366 h -0.00961 v -0.01 c -0.2084115,-0.2109 -0.3365749,-0.501 -0.3365749,-0.8223 v -2.3367 c 0,-0.3213 0.1281634,-0.6114 0.3365749,-0.8223 v -0.01 h 0.00962 c 0.2108401,-0.2084 0.5009484,-0.3366 0.822204,-0.3366 z" />
  </g>
  <g
     id="media-skip-forward-5"
     transform="matrix(-1,0,0,1,96,-5.013672)"
     style="display:inline">
    <path
       style="display:none;opacity:0.00100002"
       d="M 32,-5e-7 H -1e-6 V 32 H 32 Z"
       id="path97" />
  </g>
</svg>
