<?xml version="1.0" encoding="UTF-8" standalone="no"?>
<svg
   viewBox="0 0 16 16"
   version="1.1"
   id="svg12"
   sodipodi:docname="start-here.svg"
   inkscape:version="1.2.2 (b0a8486541, 2022-12-01)"
   xmlns:inkscape="http://www.inkscape.org/namespaces/inkscape"
   xmlns:sodipodi="http://sodipodi.sourceforge.net/DTD/sodipodi-0.dtd"
   xmlns="http://www.w3.org/2000/svg"
   xmlns:svg="http://www.w3.org/2000/svg">
  <sodipodi:namedview
     id="namedview14"
     pagecolor="#ffffff"
     bordercolor="#000000"
     borderopacity="0.25"
     inkscape:showpageshadow="2"
     inkscape:pageopacity="0.0"
     inkscape:pagecheckerboard="0"
     inkscape:deskcolor="#d1d1d1"
     showgrid="false"
     inkscape:zoom="9.1936581"
     inkscape:cx="17.29453"
     inkscape:cy="8.6472652"
     inkscape:window-width="1920"
     inkscape:window-height="1022"
     inkscape:window-x="0"
     inkscape:window-y="27"
     inkscape:window-maximized="1"
     inkscape:current-layer="Layer 2" />
  <defs
     id="defs4">
    <style
       id="style2">.cls-1{fill:#9fef00;}</style>
  </defs>
  <title
     id="title6">start_here</title>
  <g
     id="Layer 2"
     data-name="Layer 1"
     transform="matrix(0.0882524,0,0,0.0882524,0,0.00246444)">
    <rect
       style="fill:none;fill-opacity:0.25;stroke:none;stroke-width:11.3311;stroke-opacity:0.3;-inkscape-stroke:none;stop-color:#000000"
       id="rect906"
       width="181.29819"
       height="181.29819"
       x="0"
       y="-0.02792491"
       rx="11.331137"
       ry="11.331137" />
    <path
       class="cls-1"
       d="M 173.42978,31.754141 170.56673,30.675589 91.806067,1.9402925 a 3.4513725,3.4513725 0 0 0 -2.32054,0 L 7.8880491,31.741072 a 3.3925423,3.3925423 0 0 0 -2.222479,3.183365 V 146.70183 a 3.3990792,3.3990792 0 0 0 2.235549,3.18334 L 89.492067,179.3003 a 3.3860056,3.3860056 0 0 0 2.30745,0 l 81.591043,-29.41513 a 3.3925423,3.3925423 0 0 0 2.24206,-3.18334 V 34.924437 a 3.3860056,3.3860056 0 0 0 -2.20284,-3.170296 z M 84.066637,70.320652 V 163.84756 L 18.470947,140.04092 V 46.494375 Z M 148.57726,37.839784 90.923637,58.914101 a 0.81054972,0.81054972 0 0 1 -0.55561,0 L 32.714399,37.813663 a 0.81054972,0.81054972 0 0 1 0,-1.523043 L 90.368027,15.216312 a 0.81054972,0.81054972 0 0 1 0.55561,0 L 148.57726,36.29062 a 0.81054972,0.81054972 0 0 1 0,1.523043 z m 14.24994,8.680755 V 140.04092 L 97.225037,163.84756 V 70.294472 Z"
       id="path8"
       style="stroke-width:0.653693" />
  </g>
</svg>
