<?xml version="1.0" encoding="UTF-8" standalone="no"?>
<svg
   viewBox="0 0 32 32"
   version="1.1"
   id="svg12"
   sodipodi:docname="start-here-symbolic.svg"
   inkscape:version="1.2.2 (b0a8486541, 2022-12-01)"
   xmlns:inkscape="http://www.inkscape.org/namespaces/inkscape"
   xmlns:sodipodi="http://sodipodi.sourceforge.net/DTD/sodipodi-0.dtd"
   xmlns="http://www.w3.org/2000/svg"
   xmlns:svg="http://www.w3.org/2000/svg">
  <sodipodi:namedview
     id="namedview14"
     pagecolor="#ffffff"
     bordercolor="#000000"
     borderopacity="0.25"
     inkscape:showpageshadow="2"
     inkscape:pageopacity="0.0"
     inkscape:pagecheckerboard="0"
     inkscape:deskcolor="#d1d1d1"
     showgrid="false"
     inkscape:zoom="9.1936581"
     inkscape:cx="17.29453"
     inkscape:cy="8.7560359"
     inkscape:window-width="1920"
     inkscape:window-height="1022"
     inkscape:window-x="0"
     inkscape:window-y="27"
     inkscape:window-maximized="1"
     inkscape:current-layer="Layer 2" />
  <defs
     id="defs4">
    <style
       id="style2">.cls-1{fill:#ccdcff;}</style>
  </defs>
  <title
     id="title6">start_here</title>
  <g
     id="Layer 2"
     data-name="Layer 1"
     transform="matrix(0.0882524,0,0,0.0882524,0,0.00246444)">
    <rect
       style="fill:none;fill-opacity:0.25;stroke:none;stroke-width:22.6623;stroke-opacity:0.3;-inkscape-stroke:none;stop-color:#000000"
       id="rect906"
       width="362.59637"
       height="362.59637"
       x="0"
       y="-0.02792491"
       rx="22.662273"
       ry="22.662273" />
    <path
       class="cls-1"
       d="M 307.93825,91.213923 303.55826,89.563927 183.06813,45.603918 a 5.2800005,5.2800005 0 0 0 -3.54999,0 L 54.688174,91.193933 a 5.1900002,5.1900002 0 0 0 -3.400004,4.86999 V 267.06393 a 5.2000004,5.2000004 0 0 0 3.42,4.86996 l 124.81998,45.00004 a 5.1800003,5.1800003 0 0 0 3.52998,0 l 124.82013,-45.00004 a 5.1900002,5.1900002 0 0 0 3.42994,-4.86996 V 96.063923 a 5.1800003,5.1800003 0 0 0 -3.36995,-4.85 z M 171.22817,150.21399 V 293.29388 L 70.878171,256.87386 V 113.76392 Z m 98.69002,-49.69009 -88.2,32.24004 a 1.2400002,1.2400002 0 0 1 -0.84999,0 l -88.200026,-32.28 a 1.2400002,1.2400002 0 0 1 0,-2.329997 L 180.8682,65.913917 a 1.2400002,1.2400002 0 0 1 0.84999,0 l 88.2,32.240026 a 1.2400002,1.2400002 0 0 1 0,2.329997 z m 21.79994,13.28004 V 256.87386 L 191.35824,293.29388 V 150.17394 Z"
       id="path8"
       style="stroke-width:1.00004" />
  </g>
</svg>
