<?xml version="1.0" encoding="UTF-8" standalone="no"?>
<svg
   viewBox="0 0 32 32"
   version="1.1"
   id="svg12"
   sodipodi:docname="start-here.svg"
   inkscape:version="1.2.2 (b0a8486541, 2022-12-01)"
   xmlns:inkscape="http://www.inkscape.org/namespaces/inkscape"
   xmlns:sodipodi="http://sodipodi.sourceforge.net/DTD/sodipodi-0.dtd"
   xmlns="http://www.w3.org/2000/svg"
   xmlns:svg="http://www.w3.org/2000/svg">
  <sodipodi:namedview
     id="namedview14"
     pagecolor="#ffffff"
     bordercolor="#000000"
     borderopacity="0.25"
     inkscape:showpageshadow="2"
     inkscape:pageopacity="0.0"
     inkscape:pagecheckerboard="0"
     inkscape:deskcolor="#d1d1d1"
     showgrid="false"
     inkscape:zoom="9.1936581"
     inkscape:cx="17.29453"
     inkscape:cy="8.3209533"
     inkscape:window-width="1920"
     inkscape:window-height="1022"
     inkscape:window-x="0"
     inkscape:window-y="27"
     inkscape:window-maximized="1"
     inkscape:current-layer="Layer 2" />
  <defs
     id="defs4">
    <style
       id="style2">.cls-1{fill:#9fef00;}</style>
  </defs>
  <title
     id="title6">start_here</title>
  <g
     id="Layer 2"
     data-name="Layer 1"
     transform="matrix(0.0882524,0,0,0.0882524,0,0.00246444)">
    <rect
       style="fill:none;fill-opacity:0.25;stroke:none;stroke-width:2;stroke-opacity:0.3;-inkscape-stroke:none;stop-color:#000000"
       id="rect906"
       width="32"
       height="32"
       x="0"
       y="0"
       rx="2"
       ry="2"
       transform="matrix(11.331137,0,0,11.331137,0,-0.02792491)" />
    <path
       class="cls-1"
       d="M 313.74728,87.083026 309.16637,85.35734 183.14933,39.380871 a 5.5221959,5.5221959 0 0 0 -3.71284,0 L 48.880515,87.062115 a 5.4280676,5.4280676 0 0 0 -3.555963,5.093384 V 270.99934 a 5.4385266,5.4385266 0 0 0 3.576876,5.09335 l 130.545522,47.06418 a 5.4176087,5.4176087 0 0 0 3.69192,0 l 130.54566,-47.06418 a 5.4280676,5.4280676 0 0 0 3.5873,-5.09335 V 92.155499 a 5.4176087,5.4176087 0 0 0 -3.52455,-5.072473 z M 170.76626,148.78945 V 298.43248 L 65.813154,260.34188 V 110.6674 Z M 273.98324,96.820055 181.73745,130.53896 a 1.2968795,1.2968795 0 0 1 -0.88899,0 L 88.602674,96.778262 a 1.2968795,1.2968795 0 0 1 0,-2.436871 L 180.84846,60.622499 a 1.2968795,1.2968795 0 0 1 0.88899,0 l 92.24579,33.718892 a 1.2968795,1.2968795 0 0 1 0,2.436871 z m 22.7999,13.889205 v 149.63262 l -104.96346,38.0906 V 148.74757 Z"
       id="path8"
       style="stroke-width:1.04591" />
  </g>
</svg>
