<?xml version="1.0" encoding="UTF-8" standalone="no"?>
<svg
   width="22"
   height="22"
   viewBox="0 0 22 22"
   version="1.1"
   id="svg867"
   sodipodi:docname="redshift-status-off.svg"
   inkscape:version="1.2.2 (b0a8486541, 2022-12-01)"
   xmlns:inkscape="http://www.inkscape.org/namespaces/inkscape"
   xmlns:sodipodi="http://sodipodi.sourceforge.net/DTD/sodipodi-0.dtd"
   xmlns="http://www.w3.org/2000/svg"
   xmlns:svg="http://www.w3.org/2000/svg"
   xmlns:rdf="http://www.w3.org/1999/02/22-rdf-syntax-ns#"
   xmlns:cc="http://creativecommons.org/ns#"
   xmlns:dc="http://purl.org/dc/elements/1.1/">
  <sodipodi:namedview
     id="namedview18"
     pagecolor="#ffffff"
     bordercolor="#000000"
     borderopacity="0.25"
     inkscape:showpageshadow="2"
     inkscape:pageopacity="0.0"
     inkscape:pagecheckerboard="0"
     inkscape:deskcolor="#d1d1d1"
     showgrid="false"
     inkscape:zoom="17.398415"
     inkscape:cx="2.528966"
     inkscape:cy="8.5639983"
     inkscape:window-width="1920"
     inkscape:window-height="1026"
     inkscape:window-x="0"
     inkscape:window-y="24"
     inkscape:window-maximized="1"
     inkscape:current-layer="svg867" />
  <defs
     id="defs3871">
    <style
       type="text/css"
       id="current-color-scheme">
      .ColorScheme-Text {
        color:#a7b4d0;
      }
      </style>
  </defs>
  <metadata
     id="metadata864">
    <rdf:RDF>
      <cc:Work
         rdf:about="">
        <dc:format>image/svg+xml</dc:format>
        <dc:type
           rdf:resource="http://purl.org/dc/dcmitype/StillImage" />
      </cc:Work>
    </rdf:RDF>
  </metadata>
  <g
     id="g310"
     transform="matrix(1.0454545,0,0,1.0454545,22.474909,-11.292845)"
     style="display:inline">
    <rect
       y="10.801852"
       x="-21.49774"
       height="21.04348"
       width="21.04348"
       id="rect304"
       style="opacity:0.00210003;fill:#a1adc8;fill-opacity:1;stroke-width:0.657608" />
    <path
       d="m -10.962629,15.107181 -0.01974,0.0204 c 0.0064,0.0085 0.0064,0.0085 0.0064,0.0085 l -0.0043,0.0023 0.0043,-0.0023 0.01383,0.01344 c 0,0 -0.01383,-0.01344 -4.58e-4,-0.04235 z m 3.2309415,7.11347 c 0,0 0.012719,-0.01234 0,0 -0.098643,0.09529 -0.1505625,0.245083 -0.1505625,0.392003 v 0.773438 c 0,1.139016 -0.9234844,2.0625 -2.0625,2.0625 h -0.515109 -2.063016 c -0.284756,0 -0.515625,0.230871 -0.515625,0.515625 0,0.284754 0.230869,0.515625 0.515625,0.515625 h 0.773438 1.194895 0.09417 c 0.284756,0 0.515625,0.230871 0.515625,0.515625 0,0.284754 -0.230869,0.515625 -0.515625,0.515625 h -2.0625 c -0.85426,0 -1.546875,-0.692614 -1.546875,-1.546875 0,-0.854261 0.692615,-1.546875 1.546875,-1.546875 h 0.773438 0.515625 1.289062 c 0.5695044,0 1.03125,-0.461742 1.03125,-1.03125 v -0.773438 c 0,-0.472312 0.2114681,-0.895285 0.5453388,-1.178783 -0.054381,0.04608 -0.045375,0.03684 0,0 C -7.4367844,20.678223 -6.851,19.522159 -6.851,18.229842 c 0,-2.278031 -1.8469687,-4.125 -4.125,-4.125 -2.278127,0 -4.125,1.846969 -4.125,4.125 0,1.289739 0.588876,2.448348 1.517033,3.204029 0.04715,0.03838 0.05453,0.04608 0,0 0.333999,0.283498 0.545467,0.706471 0.545467,1.178783 v 0.257813 c 0,0.284754 -0.230869,0.515625 -0.515625,0.515625 -0.284754,0 -0.515625,-0.230871 -0.515625,-0.515625 v -0.257813 c 0,-0.147436 -0.05134,-0.296645 -0.150562,-0.392003 -0.01244,-0.01196 0,0 0,0 -1.161929,-0.945656 -1.911938,-2.376452 -1.911938,-3.990809 0,-2.847765 2.308614,-5.15625 5.15625,-5.15625 2.8475081,0 5.15625,2.308485 5.15625,5.15625 0,1.614357 -0.7500075,3.045153 -1.9119375,3.990809 z m -3.7599375,6.321691 h 1.03125 c 0.284756,0 0.515625,0.230871 0.515625,0.515625 0,0.284754 -0.230869,0.515625 -0.515625,0.515625 h -1.03125 c -0.284756,0 -0.515625,-0.230871 -0.515625,-0.515625 0,-0.284754 0.230869,-0.515625 0.515625,-0.515625 z m 3.09375,-2.0625 c 0.2847556,0 0.515625,0.230871 0.515625,0.515625 0,0.284754 -0.2308694,0.515625 -0.515625,0.515625 -0.2847556,0 -0.515625,-0.230871 -0.515625,-0.515625 0,-0.284754 0.2308694,-0.515625 0.515625,-0.515625 z"
       id="path306"
       style="opacity:0.7;fill:#a7b4d0;fill-opacity:1;stroke-width:0.0322266" />
    <path
       d="m -7.88225,23.386092 c 0,1.139016 -0.9234844,2.0625 -2.0625,2.0625 h -0.515109 -2.063016 c -0.284756,0 -0.515625,0.230871 -0.515625,0.515625 0,0.284754 0.230869,0.515625 0.515625,0.515625 h 0.773438 1.194895 0.09417 c 0.284756,0 0.515625,0.230871 0.515625,0.515625 0,0.284754 -0.230869,0.515625 -0.515625,0.515625 h -2.0625 c -0.85426,0 -1.546875,-0.692614 -1.546875,-1.546875 0,-0.854261 0.692615,-1.546875 1.546875,-1.546875 h 0.773438 0.515625 1.289062 c 0.5695044,0 1.03125,-0.461742 1.03125,-1.03125 -0.064316,-2.191498 1.03125,-2.59568 1.03125,0 z m -3.609375,5.15625 h 1.03125 c 0.284756,0 0.515625,0.230871 0.515625,0.515625 0,0.284754 -0.230869,0.515625 -0.515625,0.515625 h -1.03125 c -0.284756,0 -0.515625,-0.230871 -0.515625,-0.515625 0,-0.284754 0.230869,-0.515625 0.515625,-0.515625 z m 3.09375,-2.0625 c 0.2847556,0 0.515625,0.230871 0.515625,0.515625 0,0.284754 -0.2308694,0.515625 -0.515625,0.515625 -0.2847556,0 -0.515625,-0.230871 -0.515625,-0.515625 0,-0.284754 0.2308694,-0.515625 0.515625,-0.515625 z"
       id="path308"
       style="opacity:0.7;fill:#8792ab;fill-opacity:1;stroke-width:0.0322266" />
  </g>
</svg>
