<?xml version="1.0" encoding="UTF-8" standalone="no"?>
<svg
   width="22.000002"
   height="22"
   viewBox="0 0 22.000002 22"
   version="1.1"
   id="svg867"
   sodipodi:docname="redshift-status-on.svg"
   inkscape:version="1.2.2 (b0a8486541, 2022-12-01)"
   xmlns:inkscape="http://www.inkscape.org/namespaces/inkscape"
   xmlns:sodipodi="http://sodipodi.sourceforge.net/DTD/sodipodi-0.dtd"
   xmlns="http://www.w3.org/2000/svg"
   xmlns:svg="http://www.w3.org/2000/svg"
   xmlns:rdf="http://www.w3.org/1999/02/22-rdf-syntax-ns#"
   xmlns:cc="http://creativecommons.org/ns#"
   xmlns:dc="http://purl.org/dc/elements/1.1/">
  <sodipodi:namedview
     id="namedview18"
     pagecolor="#ffffff"
     bordercolor="#000000"
     borderopacity="0.25"
     inkscape:showpageshadow="2"
     inkscape:pageopacity="0.0"
     inkscape:pagecheckerboard="0"
     inkscape:deskcolor="#d1d1d1"
     showgrid="false"
     inkscape:zoom="20.159305"
     inkscape:cx="9.2761135"
     inkscape:cy="7.5399425"
     inkscape:window-width="1920"
     inkscape:window-height="1026"
     inkscape:window-x="0"
     inkscape:window-y="24"
     inkscape:window-maximized="1"
     inkscape:current-layer="svg867" />
  <defs
     id="defs3871">
    <style
       type="text/css"
       id="current-color-scheme">
      .ColorScheme-Text {
        color:#a7b4d0;
      }
      </style>
  </defs>
  <metadata
     id="metadata864">
    <rdf:RDF>
      <cc:Work
         rdf:about="">
        <dc:format>image/svg+xml</dc:format>
        <dc:type
           rdf:resource="http://purl.org/dc/dcmitype/StillImage" />
      </cc:Work>
    </rdf:RDF>
  </metadata>
  <g
     id="g319"
     transform="matrix(1.0454545,0,0,1.0454545,45.47491,-11.292845)"
     style="display:inline">
    <rect
       y="10.801852"
       x="-43.497742"
       height="21.04348"
       width="21.04348"
       id="rect307"
       style="opacity:0.003;fill:#a1adc8;fill-opacity:1;stroke-width:0.657608" />
    <g
       id="g313"
       transform="matrix(0.78275354,0,0,0.78275354,-45.496485,9.2110781)"
       style="fill:#a1adc8;fill-opacity:1">
      <circle
         cx="15.962496"
         cy="11.679497"
         r="2.0010977"
         id="circle309"
         style="fill:#a1adc8;fill-opacity:0.8;stroke-width:0.162697" />
      <path
         id="path311"
         style="fill:#a1adc8;fill-opacity:1;stroke-width:0.162697"
         d="m 16.792219,8.5070299 c 0.01628,-0.081349 -0.03257,-0.1464233 -0.113879,-0.1626914 -0.08137,-0.016263 -0.146416,0.032536 -0.162682,0.1138835 l -0.162699,0.959877 0.27658,0.04881 z m 1.285264,-0.357921 c 0.03257,-0.06508 0.01628,-0.162691 -0.04884,-0.195229 -0.06513,-0.032535 -0.162698,-0.016262 -0.195231,0.048807 L 16.922343,9.56452 17.166375,9.710943 Z M 13.83125,15.209895 c -0.03257,0.06513 -0.01628,0.162698 0.04884,0.19523 0.06513,0.03257 0.16269,0.01628 0.195226,-0.04884 l 0.911067,-1.561838 -0.244035,-0.146416 z m 1.285264,-0.341644 c -0.01628,0.08136 0.03257,0.146415 0.11388,0.162682 0.08136,0.01628 0.146415,-0.03257 0.162693,-0.113883 l 0.162686,-0.959868 -0.276579,-0.04884 z m 2.310212,-4.962076 0.211497,0.178951 0.634492,-0.748372 c 0.04884,-0.06508 0.04884,-0.146423 -0.01628,-0.195229 -0.06513,-0.04881 -0.146422,-0.04881 -0.195231,0.01627 z m 0.569409,0.683292 1.561841,-0.911062 c 0.06508,-0.03254 0.09763,-0.130153 0.0488,-0.19523 -0.0488,-0.06508 -0.130148,-0.09761 -0.195231,-0.04881 l -1.561821,0.911073 z m -4.06727,2.180066 -1.561826,0.91107 c -0.06513,0.03257 -0.09761,0.130148 -0.04884,0.19523 0.04884,0.06513 0.130157,0.09761 0.195228,0.04884 l 1.561841,-0.911069 z m 0.536875,0.683307 -0.211498,-0.178964 -0.634489,0.748372 c -0.04884,0.06513 -0.04884,0.14643 0.01628,0.195229 0.06513,0.04884 0.146424,0.04884 0.195231,-0.01628 z m 4.750576,-2.814556 c -0.03257,-0.08139 -0.113882,-0.113883 -0.178948,-0.08139 l -0.911069,0.341659 0.09761,0.260297 0.91107,-0.341645 c 0.06513,-0.03257 0.09761,-0.113883 0.08136,-0.178964 z m 0.862269,0.829719 h -1.80587 v 0.292846 h 1.80587 c 0.08137,0 0.146414,-0.06513 0.146414,-0.14642 0,-0.08138 -0.06513,-0.146426 -0.146414,-0.146426 z m -6.426299,0.130148 h -1.805869 c -0.08135,0 -0.146417,0.06513 -0.146417,0.146431 0,0.08137 0.06513,0.146415 0.146417,0.146415 h 1.805869 z m -0.976136,1.122571 c 0.03257,0.08138 0.113882,0.113894 0.178949,0.08138 l 0.911071,-0.341645 -0.09762,-0.260313 -0.91107,0.341654 c -0.06513,0.03257 -0.09762,0.113886 -0.08137,0.178958 z m 6.458831,-0.211501 c 0.08136,0.01628 0.146418,-0.03257 0.162684,-0.11388 0.01628,-0.08135 -0.03257,-0.146416 -0.113883,-0.162682 L 18.22391,12.06996 18.17507,12.34654 Z m 0.504341,1.041234 -1.561839,-0.911071 -0.146415,0.244031 1.561827,0.911069 c 0.06513,0.03257 0.162697,0.01628 0.195229,-0.04884 0.03257,-0.06513 0.01628,-0.162698 -0.04885,-0.19523 z m -7.353631,-3.741897 1.561825,0.911074 0.146431,-0.244045 -1.561841,-0.911066 c -0.06513,-0.03253 -0.162683,-0.01626 -0.195232,0.04881 -0.04884,0.06508 -0.01628,0.146423 0.04884,0.195231 z m 0.471797,1.024956 c -0.08136,-0.01628 -0.146419,0.03257 -0.162686,0.113881 -0.01628,0.08136 0.03257,0.146415 0.113881,0.162693 l 0.959875,0.162686 0.04884,-0.276579 z m 4.962081,2.310213 -0.17896,0.211497 0.74837,0.634492 c 0.06513,0.04884 0.146432,0.04884 0.195231,-0.01628 0.04884,-0.06513 0.04884,-0.146423 -0.01628,-0.195231 z m -0.423007,0.422994 -0.24403,0.146415 0.91107,1.561841 c 0.03257,0.06513 0.130148,0.09762 0.19523,0.04884 0.06513,-0.03257 0.09763,-0.130149 0.04884,-0.195231 z M 14.628437,9.792289 14.872467,9.645866 13.961398,8.0677634 c -0.03257,-0.065082 -0.130148,-0.097614 -0.195228,-0.048803 -0.06513,0.032535 -0.09762,0.130153 -0.04884,0.1952298 z m -0.455538,0.406728 0.17896,-0.211505 -0.732106,-0.634489 c -0.06513,-0.04881 -0.146418,-0.04881 -0.195231,0.01627 -0.04884,0.06509 -0.04884,0.146423 0.01628,0.19523 z m 2.586787,3.628 -0.260305,0.09761 0.341655,0.911069 c 0.03257,0.0814 0.113882,0.113892 0.178964,0.0814 0.08133,-0.03257 0.113881,-0.113882 0.08133,-0.178963 z m -0.878535,1.968569 c 0,0.08136 0.06513,0.146414 0.14643,0.146414 0.08136,0 0.146415,-0.06513 0.146415,-0.146414 v -1.80587 h -0.292845 z m 0.14643,-8.2321643 c 0,-0.08135 -0.06513,-0.1464217 -0.14643,-0.1464217 -0.08135,0 -0.130149,0.065086 -0.130149,0.1464217 V 9.369291 h 0.292846 V 7.5634217 Z m -0.86227,1.9360223 0.260314,-0.09761 -0.325378,-0.9110687 c -0.03257,-0.081348 -0.113889,-0.1138836 -0.178964,-0.081348 -0.06512,0.032536 -0.113883,0.1138849 -0.08139,0.1789609 z" />
    </g>
    <path
       d="m -32.962629,15.107181 -0.01974,0.0204 c 0.0064,0.0085 0.0064,0.0085 0.0064,0.0085 l -0.0043,0.0023 0.0043,-0.0023 0.01383,0.01344 c 0,0 -0.01383,-0.01344 -4.59e-4,-0.04235 z m 3.230942,7.11347 c 0,0 0.01272,-0.01234 0,0 -0.09864,0.09529 -0.150563,0.245083 -0.150563,0.392003 v 0.773438 c 0,1.139016 -0.923484,2.0625 -2.0625,2.0625 h -0.515109 -2.063016 c -0.284756,0 -0.515625,0.230871 -0.515625,0.515625 0,0.284754 0.230869,0.515625 0.515625,0.515625 h 0.773438 1.194895 0.09417 c 0.284756,0 0.515625,0.230871 0.515625,0.515625 0,0.284754 -0.230869,0.515625 -0.515625,0.515625 h -2.0625 c -0.85426,0 -1.546875,-0.692614 -1.546875,-1.546875 0,-0.854261 0.692615,-1.546875 1.546875,-1.546875 h 0.773438 0.515625 1.289062 c 0.569504,0 1.03125,-0.461742 1.03125,-1.03125 v -0.773438 c 0,-0.472312 0.211468,-0.895285 0.545339,-1.178783 -0.05438,0.04608 -0.04537,0.03684 0,0 0.931377,-0.755648 1.517161,-1.911712 1.517161,-3.204029 0,-2.278031 -1.846969,-4.125 -4.125,-4.125 -2.278127,0 -4.125,1.846969 -4.125,4.125 0,1.289739 0.588876,2.448348 1.517033,3.204029 0.04715,0.03838 0.05453,0.04608 0,0 0.333999,0.283498 0.545467,0.706471 0.545467,1.178783 v 0.257813 c 0,0.284754 -0.230869,0.515625 -0.515625,0.515625 -0.284754,0 -0.515625,-0.230871 -0.515625,-0.515625 v -0.257813 c 0,-0.147436 -0.05134,-0.296645 -0.150562,-0.392003 -0.01244,-0.01196 0,0 0,0 -1.161929,-0.945656 -1.911938,-2.376452 -1.911938,-3.990809 0,-2.847765 2.308614,-5.15625 5.15625,-5.15625 2.847508,0 5.15625,2.308485 5.15625,5.15625 0,1.614357 -0.750008,3.045153 -1.911937,3.990809 z m -3.759938,6.321691 h 1.03125 c 0.284756,0 0.515625,0.230871 0.515625,0.515625 0,0.284754 -0.230869,0.515625 -0.515625,0.515625 h -1.03125 c -0.284756,0 -0.515625,-0.230871 -0.515625,-0.515625 0,-0.284754 0.230869,-0.515625 0.515625,-0.515625 z m 3.09375,-2.0625 c 0.284756,0 0.515625,0.230871 0.515625,0.515625 0,0.284754 -0.230869,0.515625 -0.515625,0.515625 -0.284756,0 -0.515625,-0.230871 -0.515625,-0.515625 0,-0.284754 0.230869,-0.515625 0.515625,-0.515625 z"
       id="path315"
       style="fill:#a7b4d0;fill-opacity:1;stroke-width:0.0322266" />
    <path
       d="m -29.88225,23.386092 c 0,1.139016 -0.923484,2.0625 -2.0625,2.0625 h -0.515109 -2.063016 c -0.284756,0 -0.515625,0.230871 -0.515625,0.515625 0,0.284754 0.230869,0.515625 0.515625,0.515625 h 0.773438 1.194895 0.09417 c 0.284756,0 0.515625,0.230871 0.515625,0.515625 0,0.284754 -0.230869,0.515625 -0.515625,0.515625 h -2.0625 c -0.85426,0 -1.546875,-0.692614 -1.546875,-1.546875 0,-0.854261 0.692615,-1.546875 1.546875,-1.546875 h 0.773438 0.515625 1.289062 c 0.569504,0 1.03125,-0.461742 1.03125,-1.03125 -0.06432,-2.191498 1.03125,-2.59568 1.03125,0 z m -3.609375,5.15625 h 1.03125 c 0.284756,0 0.515625,0.230871 0.515625,0.515625 0,0.284754 -0.230869,0.515625 -0.515625,0.515625 h -1.03125 c -0.284756,0 -0.515625,-0.230871 -0.515625,-0.515625 0,-0.284754 0.230869,-0.515625 0.515625,-0.515625 z m 3.09375,-2.0625 c 0.284756,0 0.515625,0.230871 0.515625,0.515625 0,0.284754 -0.230869,0.515625 -0.515625,0.515625 -0.284756,0 -0.515625,-0.230871 -0.515625,-0.515625 0,-0.284754 0.230869,-0.515625 0.515625,-0.515625 z"
       id="path317"
       style="fill:#8792ab;fill-opacity:1;stroke-width:0.0322266" />
  </g>
</svg>
