<?xml version="1.0" encoding="UTF-8" standalone="no"?>
<svg
   viewBox="0 0 22 22"
   version="1.1"
   id="svg12"
   sodipodi:docname="start-here-symbolic.svg"
   inkscape:version="1.2.2 (b0a8486541, 2022-12-01)"
   xmlns:inkscape="http://www.inkscape.org/namespaces/inkscape"
   xmlns:sodipodi="http://sodipodi.sourceforge.net/DTD/sodipodi-0.dtd"
   xmlns="http://www.w3.org/2000/svg"
   xmlns:svg="http://www.w3.org/2000/svg">
  <sodipodi:namedview
     id="namedview14"
     pagecolor="#ffffff"
     bordercolor="#000000"
     borderopacity="0.25"
     inkscape:showpageshadow="2"
     inkscape:pageopacity="0.0"
     inkscape:pagecheckerboard="0"
     inkscape:deskcolor="#d1d1d1"
     showgrid="false"
     inkscape:zoom="9.1936581"
     inkscape:cx="17.29453"
     inkscape:cy="8.5384946"
     inkscape:window-width="1920"
     inkscape:window-height="1022"
     inkscape:window-x="0"
     inkscape:window-y="27"
     inkscape:window-maximized="1"
     inkscape:current-layer="Layer 2" />
  <defs
     id="defs4">
    <style
       id="style2">.cls-1{fill:#ccdcff;}</style>
  </defs>
  <title
     id="title6">start_here</title>
  <g
     id="Layer 2"
     data-name="Layer 1"
     transform="matrix(0.0882524,0,0,0.0882524,0,0.00246444)">
    <rect
       style="fill:none;fill-opacity:0.25;stroke:none;stroke-width:15.5803;stroke-opacity:0.3;-inkscape-stroke:none;stop-color:#000000"
       id="rect906"
       width="249.285"
       height="249.285"
       x="0"
       y="-0.02792491"
       rx="15.580313"
       ry="15.580313" />
    <path
       class="cls-1"
       d="m 212.94189,61.823074 -3.05393,-1.150455 -84.01137,-30.650981 a 3.681464,3.681464 0 0 0 -2.47522,0 L 36.364052,61.809137 a 3.6187117,3.6187117 0 0 0 -2.370643,3.395585 V 184.43394 a 3.6256843,3.6256843 0 0 0 2.384584,3.39557 l 87.030357,31.37614 a 3.6117392,3.6117392 0 0 0 2.46127,0 l 87.03044,-31.37614 a 3.6187117,3.6187117 0 0 0 2.39153,-3.39557 V 65.204722 a 3.6117392,3.6117392 0 0 0 -2.3497,-3.381648 z M 117.62121,102.96069 V 202.7227 L 47.652477,177.32896 V 77.545991 Z m 68.81132,-34.646262 -61.49719,22.47927 a 0.86458633,0.86458633 0 0 1 -0.59266,0 L 62.845489,68.286566 a 0.86458633,0.86458633 0 0 1 0,-1.624581 L 124.34268,44.182724 a 0.86458633,0.86458633 0 0 1 0.59266,0 l 61.49719,22.479261 a 0.86458633,0.86458633 0 0 1 0,1.624581 z m 15.19993,9.259472 v 99.75506 l -69.97562,25.39374 v -99.78993 z"
       id="path8"
       style="stroke-width:0.697272" />
  </g>
</svg>
