<?xml version="1.0" encoding="UTF-8" standalone="no"?>
<svg
   id="svg846"
   version="1.1"
   viewBox="0 0 5.8208332 5.820833"
   height="21.999998"
   width="22"
   sodipodi:docname="update-medium.svg"
   inkscape:version="1.2.2 (b0a8486541, 2022-12-01)"
   xmlns:inkscape="http://www.inkscape.org/namespaces/inkscape"
   xmlns:sodipodi="http://sodipodi.sourceforge.net/DTD/sodipodi-0.dtd"
   xmlns="http://www.w3.org/2000/svg"
   xmlns:svg="http://www.w3.org/2000/svg"
   xmlns:rdf="http://www.w3.org/1999/02/22-rdf-syntax-ns#"
   xmlns:cc="http://creativecommons.org/ns#"
   xmlns:dc="http://purl.org/dc/elements/1.1/">
  <sodipodi:namedview
     id="namedview29"
     pagecolor="#ffffff"
     bordercolor="#000000"
     borderopacity="0.25"
     inkscape:showpageshadow="2"
     inkscape:pageopacity="0.0"
     inkscape:pagecheckerboard="0"
     inkscape:deskcolor="#d1d1d1"
     showgrid="false"
     inkscape:zoom="9.8121451"
     inkscape:cx="-3.974666"
     inkscape:cy="21.198219"
     inkscape:window-width="1920"
     inkscape:window-height="1026"
     inkscape:window-x="0"
     inkscape:window-y="24"
     inkscape:window-maximized="1"
     inkscape:current-layer="svg846" />
  <defs
     id="defs840" />
  <metadata
     id="metadata843">
    <rdf:RDF>
      <cc:Work
         rdf:about="">
        <dc:format>image/svg+xml</dc:format>
        <dc:type
           rdf:resource="http://purl.org/dc/dcmitype/StillImage" />
      </cc:Work>
    </rdf:RDF>
  </metadata>
  <style
     type="text/css"
     id="current-color-scheme" />
  <g
     transform="translate(-11.641667,-291.17914)"
     id="layer1">
    <rect
       style="opacity:0.003;fill:#000000;fill-opacity:1;stroke:none;stroke-width:0.10795;stroke-miterlimit:4;stroke-dasharray:none;stroke-opacity:1"
       id="rect1396-3-1"
       width="5.8208332"
       height="5.8208332"
       x="11.641666"
       y="291.17914"
       ry="1.2988288e-06"
       inkscape:label="rect1" />
    <path
       id="path5-6-36-3-35-9"
       style="color:#dedede;display:inline;fill:#ffaa00;fill-opacity:1;stroke-width:0.287824"
       class="ColorScheme-Text"
       d="m 14.549499,291.80752 c -1.242151,0 -2.248958,1.0216 -2.248958,2.28203 0,1.2604 1.006807,2.28203 2.248958,2.28203 1.242152,0 2.248959,-1.02163 2.248959,-2.28203 0,-1.26042 -1.006807,-2.28203 -2.248959,-2.28203 z m -0.01291,0.98992 v 5.2e-4 h 5.16e-4 c 0.0065,-2.4e-4 0.01205,0 0.01136,0 h 9.99e-4 c 0.03445,1e-4 0.06954,0.007 0.102718,0.021 0.03682,0.0151 0.06721,0.0368 0.09084,0.0608 a 0.10343697,0.10495794 0 0 1 0.0015,0.003 l 0.719543,0.76521 0.0015,0.003 c 0.05568,0.0579 0.08046,0.13674 0.07536,0.21316 0.0052,0.0775 -0.01825,0.15838 -0.07639,0.21737 -0.05731,0.0583 -0.133256,0.0812 -0.205952,0.0812 -0.07028,0 -0.142688,-0.0245 -0.199242,-0.0786 -0.0031,-10e-4 -0.0063,-0.004 -0.0093,-0.006 -0.01786,-0.0103 -0.03593,-0.0207 -0.05162,-0.0367 l -0.139366,-0.14089 v 1.20361 c 0,0.15535 -0.136103,0.2657 -0.284926,0.27654 0,0 -0.0089,0.001 -0.02581,0.001 -0.01383,0 -0.02053,-0.001 -0.02323,-0.001 -0.149319,-0.0103 -0.285959,-0.12074 -0.285959,-0.27654 v -1.20204 l -0.137817,0.13932 c -0.01555,0.0158 -0.03366,0.0234 -0.05058,0.0335 a 0.10343697,0.10495794 0 0 1 -0.0036,0.006 c -7.99e-4,7.2e-4 -0.0019,2.2e-4 -0.0026,5.2e-4 -0.01179,0.009 -0.0068,0.004 -0.0062,0.003 4e-4,-4e-4 9.99e-4,-7.6e-4 0.0015,-0.001 -0.0012,5.6e-4 -0.0029,7.6e-4 -0.0041,0.001 -0.05628,0.0519 -0.125556,0.0775 -0.194596,0.0775 -0.07288,0 -0.149938,-0.0233 -0.207502,-0.0817 -0.05731,-0.0581 -0.08149,-0.13846 -0.07639,-0.2158 -0.005,-0.0764 0.01966,-0.15529 0.07536,-0.21316 l 0.722124,-0.76941 a 0.10343697,0.10495794 0 0 1 0.0021,-0.003 c 0.02348,-0.0238 0.05337,-0.0462 0.08982,-0.0613 0.02862,-0.0124 0.05895,-0.0195 0.08982,-0.0205 z"
       inkscape:label="path5" />
  </g>
</svg>
