<?xml version="1.0" encoding="UTF-8" standalone="no"?>
<svg
   viewBox="0 0 22 22"
   version="1.1"
   id="svg12"
   sodipodi:docname="start-here.svg"
   inkscape:version="1.2.2 (b0a8486541, 2022-12-01)"
   xmlns:inkscape="http://www.inkscape.org/namespaces/inkscape"
   xmlns:sodipodi="http://sodipodi.sourceforge.net/DTD/sodipodi-0.dtd"
   xmlns="http://www.w3.org/2000/svg"
   xmlns:svg="http://www.w3.org/2000/svg">
  <sodipodi:namedview
     id="namedview14"
     pagecolor="#ffffff"
     bordercolor="#000000"
     borderopacity="0.25"
     inkscape:showpageshadow="2"
     inkscape:pageopacity="0.0"
     inkscape:pagecheckerboard="0"
     inkscape:deskcolor="#d1d1d1"
     showgrid="false"
     inkscape:zoom="9.1936581"
     inkscape:cx="17.29453"
     inkscape:cy="8.5384946"
     inkscape:window-width="1920"
     inkscape:window-height="1022"
     inkscape:window-x="0"
     inkscape:window-y="27"
     inkscape:window-maximized="1"
     inkscape:current-layer="Layer 2" />
  <defs
     id="defs4">
    <style
       id="style2">.cls-1{fill:#9fef00;}</style>
  </defs>
  <title
     id="title6">start_here</title>
  <g
     id="Layer 2"
     data-name="Layer 1"
     transform="matrix(0.0882524,0,0,0.0882524,0,0.00246444)">
    <rect
       style="fill:none;fill-opacity:0.25;stroke:none;stroke-width:15.5803;stroke-opacity:0.3;-inkscape-stroke:none;stop-color:#000000"
       id="rect906"
       width="249.285"
       height="249.285"
       x="0"
       y="-0.02792491"
       rx="15.580313"
       ry="15.580313" />
    <path
       class="cls-1"
       d="m 214.34589,60.824677 -3.1025,-1.168749 -85.34717,-31.138342 a 3.7400004,3.7400004 0 0 0 -2.51459,0 L 34.960393,60.810514 a 3.6762504,3.6762504 0 0 0 -2.408336,3.449581 V 185.3851 a 3.683334,3.683334 0 0 0 2.422501,3.44956 l 88.414152,31.87501 a 3.6691671,3.6691671 0 0 0 2.50042,0 l 88.41426,-31.87501 a 3.6762504,3.6762504 0 0 0 2.42956,-3.44956 V 64.260095 a 3.6691671,3.6691671 0 0 0 -2.38706,-3.435418 z M 117.50957,102.61639 V 203.96467 L 46.428309,178.16716 V 76.797592 Z M 187.41502,67.419244 124.94,90.255942 a 0.87833356,0.87833356 0 0 1 -0.60208,0 L 61.862897,67.390939 a 0.87833356,0.87833356 0 0 1 0,-1.650411 l 62.475023,-22.83669 a 0.87833356,0.87833356 0 0 1 0.60208,0 l 62.47502,22.83669 a 0.87833356,0.87833356 0 0 1 0,1.650411 z m 15.44161,9.406699 V 178.16716 l -71.08827,25.79751 V 102.58802 Z"
       id="path8"
       style="stroke-width:0.70836" />
  </g>
</svg>
