<?xml version="1.0" encoding="UTF-8" standalone="no"?>
<!-- Created with Inkscape (http://www.inkscape.org/) -->

<svg
   width="22"
   height="22"
   viewBox="0 0 5.8208331 5.8208336"
   version="1.1"
   id="svg2435"
   inkscape:version="1.2.2 (b0a8486541, 2022-12-01)"
   sodipodi:docname="configure.svg"
   xmlns:inkscape="http://www.inkscape.org/namespaces/inkscape"
   xmlns:sodipodi="http://sodipodi.sourceforge.net/DTD/sodipodi-0.dtd"
   xmlns="http://www.w3.org/2000/svg"
   xmlns:svg="http://www.w3.org/2000/svg"
   xmlns:rdf="http://www.w3.org/1999/02/22-rdf-syntax-ns#"
   xmlns:cc="http://creativecommons.org/ns#"
   xmlns:dc="http://purl.org/dc/elements/1.1/">
  <defs
     id="defs2429">
    <style
       id="current-color-scheme"
       type="text/css">.ColorScheme-Text {
        color:#a1adc8;
      }</style>
  </defs>
  <sodipodi:namedview
     id="base"
     pagecolor="#ffffff"
     bordercolor="#666666"
     borderopacity="1.0"
     inkscape:pageopacity="0.0"
     inkscape:pageshadow="2"
     inkscape:zoom="22.4"
     inkscape:cx="15.223214"
     inkscape:cy="11.696429"
     inkscape:document-units="px"
     inkscape:current-layer="svg2435"
     showgrid="true"
     units="px"
     inkscape:window-width="1920"
     inkscape:window-height="1026"
     inkscape:window-x="0"
     inkscape:window-y="24"
     inkscape:window-maximized="1"
     inkscape:showpageshadow="2"
     inkscape:pagecheckerboard="0"
     inkscape:deskcolor="#d1d1d1">
    <inkscape:grid
       type="xygrid"
       id="grid2980"
       spacingx="0.13229167"
       spacingy="0.13229167" />
  </sodipodi:namedview>
  <metadata
     id="metadata2432">
    <rdf:RDF>
      <cc:Work
         rdf:about="">
        <dc:format>image/svg+xml</dc:format>
        <dc:type
           rdf:resource="http://purl.org/dc/dcmitype/StillImage" />
      </cc:Work>
    </rdf:RDF>
  </metadata>
  <rect
     style="display:inline;fill:none;stroke-width:0.418571;stroke-opacity:0.372549"
     id="rect845"
     width="5.8208332"
     height="5.8208332"
     x="0"
     y="-1.1816406e-05" />
  <path
     style="fill:currentColor;fill-opacity:1;stroke:none;stroke-width:0.32;stroke-linecap:round;stroke-linejoin:round;stroke-miterlimit:4;stroke-dasharray:none;stroke-opacity:1"
     class="ColorScheme-Text"
     d="m 1.4552083,0.92604165 c -0.51302579,0 -0.92604164,0.41301585 -0.92604164,0.92604165 0,0.5130258 0.41301585,0.9260417 0.92604164,0.9260417 h 2.9104166 c 0.5130258,0 0.9260417,-0.4130159 0.9260417,-0.9260417 0,-0.5130258 -0.4130159,-0.92604165 -0.9260417,-0.92604165 z M 4.3335855,1.1218953 a 0.7169736,0.7169736 0 0 1 0.717269,0.7172689 0.7169736,0.7169736 0 0 1 -0.717269,0.7167521 0.7169736,0.7169736 0 0 1 -0.716752,-0.7167521 0.7169736,0.7169736 0 0 1 0.716752,-0.7172689 z"
     id="rect4679" />
  <path
     style="fill:currentColor;fill-opacity:1;stroke:none;stroke-width:0.32;stroke-linecap:round;stroke-linejoin:round;stroke-miterlimit:4;stroke-dasharray:none;stroke-opacity:1"
     class="ColorScheme-Text"
     d="m 1.4552083,3.175 c -0.51302579,0 -0.92604164,0.4130159 -0.92604164,0.9260416 0,0.5130258 0.41301585,0.9260417 0.92604164,0.9260417 h 2.9104166 c 0.5130258,0 0.9260417,-0.4130159 0.9260417,-0.9260417 C 5.2916666,3.5880159 4.8786507,3.175 4.3656249,3.175 Z m -0.00362,0.2268595 A 0.7169736,0.7169736 0 0 1 2.1688598,4.1186115 0.7169736,0.7169736 0 0 1 1.4515909,4.8358805 0.7169736,0.7169736 0 0 1 0.73483884,4.1186115 0.7169736,0.7169736 0 0 1 1.4515909,3.4018595 Z"
     id="rect4681" />
</svg>
