<?xml version="1.0" encoding="UTF-8" standalone="no"?>
<!-- Created with Inkscape (http://www.inkscape.org/) -->

<svg
   width="16"
   height="16"
   viewBox="0 0 4.2333332 4.2333335"
   version="1.1"
   id="svg2435"
   inkscape:version="1.2.2 (b0a8486541, 2022-12-01)"
   sodipodi:docname="configure.svg"
   xmlns:inkscape="http://www.inkscape.org/namespaces/inkscape"
   xmlns:sodipodi="http://sodipodi.sourceforge.net/DTD/sodipodi-0.dtd"
   xmlns="http://www.w3.org/2000/svg"
   xmlns:svg="http://www.w3.org/2000/svg"
   xmlns:rdf="http://www.w3.org/1999/02/22-rdf-syntax-ns#"
   xmlns:cc="http://creativecommons.org/ns#"
   xmlns:dc="http://purl.org/dc/elements/1.1/">
  <defs
     id="defs2429">
    <style
       id="current-color-scheme"
       type="text/css">.ColorScheme-Text {
        color:#a1adc8;
      }</style>
  </defs>
  <sodipodi:namedview
     id="base"
     pagecolor="#ffffff"
     bordercolor="#666666"
     borderopacity="1.0"
     inkscape:pageopacity="0.0"
     inkscape:pageshadow="2"
     inkscape:zoom="22.4"
     inkscape:cx="15.178571"
     inkscape:cy="11.696429"
     inkscape:document-units="px"
     inkscape:current-layer="svg2435"
     showgrid="true"
     units="px"
     inkscape:window-width="1920"
     inkscape:window-height="1026"
     inkscape:window-x="0"
     inkscape:window-y="24"
     inkscape:window-maximized="1"
     inkscape:showpageshadow="2"
     inkscape:pagecheckerboard="0"
     inkscape:deskcolor="#d1d1d1">
    <inkscape:grid
       type="xygrid"
       id="grid2980"
       spacingx="0.13229167"
       spacingy="0.13229167"
       originx="0"
       originy="0" />
  </sodipodi:namedview>
  <metadata
     id="metadata2432">
    <rdf:RDF>
      <cc:Work
         rdf:about="">
        <dc:format>image/svg+xml</dc:format>
        <dc:type
           rdf:resource="http://purl.org/dc/dcmitype/StillImage" />
      </cc:Work>
    </rdf:RDF>
  </metadata>
  <rect
     style="display:inline;fill:none;stroke-width:0.304416;stroke-opacity:0.372549"
     id="rect845"
     width="4.2333331"
     height="4.2333331"
     x="0"
     y="-1.1816406e-05" />
  <path
     style="fill:currentColor;fill-opacity:1;stroke:none;stroke-width:0.232727;stroke-linecap:round;stroke-linejoin:round;stroke-miterlimit:4;stroke-dasharray:none;stroke-opacity:1"
     class="ColorScheme-Text"
     d="m 1.0583333,0.67348163 c -0.37310964,0 -0.67348481,0.30037517 -0.67348481,0.67348487 0,0.3731097 0.30037517,0.6734849 0.67348481,0.6734849 H 3.175 c 0.3731097,0 0.6734849,-0.3003752 0.6734849,-0.6734849 0,-0.3731097 -0.3003752,-0.67348487 -0.6734849,-0.67348487 z M 3.1516986,0.81592065 A 0.52143536,0.52143536 0 0 1 3.6733488,1.3375708 0.52143536,0.52143536 0 0 1 3.1516986,1.858845 0.52143536,0.52143536 0 0 1 2.6304244,1.3375708 0.52143536,0.52143536 0 0 1 3.1516986,0.81592065 Z"
     id="rect4679" />
  <path
     style="fill:currentColor;fill-opacity:1;stroke:none;stroke-width:0.232727;stroke-linecap:round;stroke-linejoin:round;stroke-miterlimit:4;stroke-dasharray:none;stroke-opacity:1"
     class="ColorScheme-Text"
     d="m 1.0583333,2.3090877 c -0.37310964,0 -0.67348481,0.3003752 -0.67348481,0.6734849 0,0.3731096 0.30037517,0.6734848 0.67348481,0.6734848 H 3.175 c 0.3731097,0 0.6734849,-0.3003752 0.6734849,-0.6734848 0,-0.3731097 -0.3003752,-0.6734849 -0.6734849,-0.6734849 z m -0.00263,0.1649888 A 0.52143536,0.52143536 0 0 1 1.5773553,2.9953507 0.52143536,0.52143536 0 0 1 1.0557052,3.5170009 0.52143536,0.52143536 0 0 1 0.53443096,2.9953507 0.52143536,0.52143536 0 0 1 1.0557052,2.4740765 Z"
     id="rect4681" />
</svg>
