<?xml version="1.0" encoding="UTF-8" standalone="no"?>
<svg
   style="fill-rule:evenodd;clip-rule:evenodd;stroke-linejoin:round;stroke-miterlimit:2"
   width="100%"
   height="100%"
   viewBox="0 0 16 16"
   xml:space="preserve"
   version="1.1"
   id="svg11"
   sodipodi:docname="folder-open-recent.svg"
   inkscape:version="1.1.2 (0a00cf5339, 2022-02-04)"
   xmlns:inkscape="http://www.inkscape.org/namespaces/inkscape"
   xmlns:sodipodi="http://sodipodi.sourceforge.net/DTD/sodipodi-0.dtd"
   xmlns="http://www.w3.org/2000/svg"
   xmlns:svg="http://www.w3.org/2000/svg"><sodipodi:namedview
   id="namedview13"
   pagecolor="#ffffff"
   bordercolor="#666666"
   borderopacity="1.0"
   inkscape:pageshadow="2"
   inkscape:pageopacity="0.0"
   inkscape:pagecheckerboard="0"
   showgrid="false"
   inkscape:zoom="28.25"
   inkscape:cx="7.9823009"
   inkscape:cy="8"
   inkscape:current-layer="svg11" />
 <defs
   id="defs3">
  <style
   id="current-color-scheme"
   type="text/css">
   .ColorScheme-Text { color:#dfdfdf; } .ColorScheme-Highlight { color:#4285f4; } .ColorScheme-NeutralText { color:#ff9800; } .ColorScheme-PositiveText { color:#4caf50; } .ColorScheme-NegativeText { color:#f44336; }
  </style>
 </defs>
 <path
   style="fill:currentColor;stroke-width:0.909406"
   class="ColorScheme-Text"
   d="m 4.3028338,3.0552693 c 0.3255672,0 0.4810755,0.16824 0.7238868,0.4901696 0.2428113,0.3210201 0.3537588,0.524727 0.7984581,0.5420057 h 6.6632143 c 0.401048,0 0.723887,0.3219296 0.723887,0.7229774 v 7.42075 c 0,0.401048 -0.322839,0.723887 -0.723887,0.723887 H 7.1365416 c 0.1182227,-0.21553 0.2164385,-0.44379 0.2901004,-0.682055 h 4.664341 c 0.242812,0 0.439243,-0.196431 0.439243,-0.439243 V 5.2078323 c 0,-0.2428113 -0.196431,-0.4383335 -0.439243,-0.4383335 H 5.6251095 c -0.2773687,0 -0.7693571,-0.3346613 -0.9448724,-0.5101765 C 4.5047218,4.083807 4.3610357,3.7373235 3.9054235,3.7373235 H 2.0547832 c -0.2428113,0 -0.4392429,0.1964316 -0.4392429,0.4392428 V 8.2770762 C 1.3590879,8.4780548 1.1299177,8.711772 0.93348607,8.9727714 V 3.7791561 c 0,-0.4010479 0.32283903,-0.7238868 0.72388683,-0.7238868 z"
   id="path5" />
 <path
   style="fill:currentColor;fill-opacity:0.3;stroke-width:0.909406"
   class="ColorScheme-Text"
   d="M 2.6240711,3.0552693 V 2.4668838 c 0,-0.4010478 0.3219295,-0.7238868 0.7229774,-0.7238868 h 2.6463703 c 0.3255672,0 0.4810755,0.1691494 0.7229774,0.4901696 0.2428113,0.3210202 0.3537588,0.524727 0.7993675,0.5420057 h 6.6632143 c 0.400139,0 0.722978,0.322839 0.722978,0.7229775 v 7.4216592 c 0,0.400138 -0.322839,0.722977 -0.722978,0.722977 H 13.21228 V 4.810422 c 0,-0.4010478 -0.322839,-0.7229774 -0.723887,-0.7229774 H 5.8251787 C 5.3804794,4.0701659 5.2695319,3.866459 5.0267206,3.5454389 4.7839093,3.2235093 4.628401,3.0552693 4.3028338,3.0552693 Z"
   id="path7" />
 <path
   style="fill:currentColor;stroke-width:0.909406"
   class="ColorScheme-Text"
   d="m 3.8899636,8.0051639 c -1.7460587,0 -3.18291952,1.4368608 -3.18291952,3.1829191 0,1.746059 1.43686082,3.18292 3.18291952,3.18292 1.7460588,0 3.1829196,-1.436861 3.1829196,-3.18292 0,-1.7460583 -1.4368608,-3.1829191 -3.1829196,-3.1829191 z M 3.6471523,8.9145695 h 0.4856226 l 0.2118915,1.8188115 1.8188112,0.289191 v 0.331023 l -2.7282168,0.289191 z"
   id="path9" />
</svg>
