<?xml version="1.0" encoding="UTF-8" standalone="no"?>
<svg
   width="22"
   height="22"
   version="1.1"
   id="svg7"
   sodipodi:docname="notification-disabled-symbolic.svg"
   inkscape:version="1.2.2 (b0a8486541, 2022-12-01)"
   xmlns:inkscape="http://www.inkscape.org/namespaces/inkscape"
   xmlns:sodipodi="http://sodipodi.sourceforge.net/DTD/sodipodi-0.dtd"
   xmlns="http://www.w3.org/2000/svg"
   xmlns:svg="http://www.w3.org/2000/svg">
  <defs
     id="defs11" />
  <sodipodi:namedview
     id="namedview9"
     pagecolor="#ffffff"
     bordercolor="#000000"
     borderopacity="0.25"
     inkscape:showpageshadow="2"
     inkscape:pageopacity="0.0"
     inkscape:pagecheckerboard="0"
     inkscape:deskcolor="#d1d1d1"
     showgrid="false"
     inkscape:zoom="25.772652"
     inkscape:cx="8.3809769"
     inkscape:cy="7.7601638"
     inkscape:window-width="1920"
     inkscape:window-height="1026"
     inkscape:window-x="0"
     inkscape:window-y="24"
     inkscape:window-maximized="1"
     inkscape:current-layer="svg7" />
  <style
     id="current-color-scheme"
     type="text/css">.ColorScheme-Text {
            color:#a1adc8;
        }
        .ColorScheme-NegativeText {
            color:#da4453;
        }</style>
  <rect
     x="-1.002"
     y="-64.012001"
     width="22"
     height="22"
     fill="none"
     stroke-linecap="round"
     stroke-linejoin="round"
     stroke-width="1.6923"
     id="rect42"
     style="display:inline"
     transform="translate(1.0019653,64.011966)" />
  <path
     class="ColorScheme-Text"
     d="M 11.000616,3.9527538 A 0.88159854,0.88159854 0 0 0 10.124308,4.9225122 4.3974135,4.3974135 0 0 0 6.5926237,9.242345 v 3.967194 l -1.7631971,1.763197 v 0.440799 H 17.171806 V 14.972736 L 15.408608,13.209539 V 9.242345 A 4.396532,4.396532 0 0 0 11.876925,4.9225122 0.88159854,0.88159854 0 0 0 11.000616,3.9527538 Z m 0,1.7631972 a 3.5263943,3.5263943 0 0 1 3.526395,3.526394 v 4.339228 l 0.881597,0.950363 H 6.5926237 L 7.4742222,13.581573 V 9.242345 A 3.5263943,3.5263943 0 0 1 11.000616,5.715951 Z M 9.475451,16.295133 a 1.7631971,1.7631971 0 0 0 1.525165,0.881599 1.7631971,1.7631971 0 0 0 1.524284,-0.881599 z"
     fill="currentColor"
     opacity="0.35"
     id="path3"
     style="display:none;stroke-width:0.881598" />
  <rect
     class="ColorScheme-Text"
     transform="rotate(45)"
     x="5.8630772"
     y="-0.43731627"
     width="19.395168"
     height="0.88159853"
     rx="0.44079927"
     ry="0.44079927"
     fill="currentColor"
     id="rect5"
     style="display:none;stroke-width:0.881598" />
  <path
     id="path44"
     style="display:inline;opacity:0.4;fill:currentColor;fill-opacity:1;stroke-width:0.881598"
     class="ColorScheme-Text"
     d="m 10.998894,4.0354037 c -1.445201,0 -2.7582503,0.5578985 -3.7140777,1.4670346 L 7.9081341,6.1257567 C 8.7031228,5.3778279 9.7942807,4.9170023 10.998894,4.9170023 c 2.377667,0 4.313618,1.7931943 4.406271,4.0618965 l 0.0035,0.1807964 V 12.41059 l 0.03443,0.168743 0.771398,1.851013 0.750737,0.752458 c 0.13224,-0.154192 0.208347,-0.352133 0.208347,-0.564773 l -0.0086,-0.115366 -0.01377,-0.07576 c -0.0112,-0.05016 -0.02656,-0.100386 -0.04648,-0.14808 L 16.28856,12.321055 16.29036,9.1510884 16.28686,8.9530735 16.2748,8.7567803 C 16.062696,6.0939125 13.774965,4.0354019 10.998904,4.0354019 Z M 6.2258651,6.9367595 C 5.9239533,7.5470884 5.7427506,8.2255905 5.7144689,8.9444618 l -0.00345,0.1980158 -0.00172,3.1802984 -0.8127236,1.956046 -0.037881,0.113644 -0.01894,0.111921 c -0.044432,0.408622 0.1699162,0.777337 0.5320585,0.928089 l 0.108478,0.03788 c 0.074548,0.0201 0.1514725,0.02928 0.229009,0.02928 h 3.0873197 l 0.00517,0.141192 c 0.074671,1.149692 1.0302742,2.05936 2.1988305,2.05936 1.168293,0 2.123807,-0.9083 2.198832,-2.057637 l 0.0053,-0.142915 h 1.584122 L 13.908955,14.619773 5.7094002,14.61802 6.5582833,12.579324 6.5927207,12.41058 V 9.1510583 l 0.00342,-0.1807966 0.012053,-0.1876834 C 6.6434591,8.3688704 6.7399966,7.9721282 6.8905468,7.6013737 6.6163757,7.3251036 6.447957,7.1615151 6.2258651,6.9367595 Z M 9.6782187,15.49963 h 2.6447953 l -0.0069,0.123975 c -0.064,0.670542 -0.628129,1.19498 -1.31551,1.19498 l -0.127419,-0.0069 c -0.628379,-0.06 -1.1276189,-0.559739 -1.1880524,-1.188053 z"
     sodipodi:nodetypes="sccsccccccccccccccsscccccccccsccsccccccccccccccccccc" />
  <path
     class="ColorScheme-Text"
     d="m 4.0769164,4.7877308 c -0.1469319,-0.1469316 -0.1721498,-0.4512374 0,-0.6233783 0.1721409,-0.1721499 0.4512374,-0.1721499 0.6233783,0 L 17.924273,17.388331 c 0.172088,0.172176 0.172088,0.45129 0,0.623466 -0.172177,0.172089 -0.45129,0.172089 -0.623466,0 C 9.3556969,10.07318 8.7977917,9.5086064 4.0769164,4.7877308 Z"
     id="path6263"
     style="display:inline;opacity:0.7;fill:currentColor;stroke-width:0.881598"
     sodipodi:nodetypes="scccccs"
     inkscape:label="path42" />
</svg>
