<?xml version="1.0" encoding="UTF-8" standalone="no"?>
<!-- Created with Inkscape (http://www.inkscape.org/) -->

<svg
   id="svg2"
   height="80"
   viewBox="0 0 192 80"
   width="192"
   inkscape:version="1.2.2 (b0a8486541, 2022-12-01)"
   sodipodi:docname="background.svg"
   version="1.1"
   xmlns:inkscape="http://www.inkscape.org/namespaces/inkscape"
   xmlns:sodipodi="http://sodipodi.sourceforge.net/DTD/sodipodi-0.dtd"
   xmlns:xlink="http://www.w3.org/1999/xlink"
   xmlns="http://www.w3.org/2000/svg"
   xmlns:svg="http://www.w3.org/2000/svg">
  <sodipodi:namedview
     id="namedview108"
     pagecolor="#ffffff"
     bordercolor="#111111"
     borderopacity="1"
     inkscape:pageshadow="0"
     inkscape:pageopacity="0"
     inkscape:pagecheckerboard="1"
     inkscape:blackoutopacity="0.0"
     showgrid="true"
     inkscape:current-layer="svg2"
     inkscape:showpageshadow="2"
     inkscape:deskcolor="#d1d1d1"
     inkscape:zoom="11.764494"
     inkscape:cx="20.867876"
     inkscape:cy="36.550658"
     inkscape:window-width="1920"
     inkscape:window-height="1032"
     inkscape:window-x="0"
     inkscape:window-y="24"
     inkscape:window-maximized="1">
    <inkscape:grid
       type="xygrid"
       id="grid988"
       originx="0"
       originy="4" />
  </sodipodi:namedview>
  <defs
     id="defs15">
    <linearGradient
       inkscape:collect="always"
       id="linearGradient1187">
      <stop
         style="stop-color:#000000;stop-opacity:1;"
         offset="0"
         id="stop1183" />
      <stop
         style="stop-color:#000000;stop-opacity:0;"
         offset="1"
         id="stop1185" />
    </linearGradient>
    <linearGradient
       inkscape:collect="always"
       id="linearGradient1122">
      <stop
         style="stop-color:#000000;stop-opacity:1;"
         offset="0"
         id="stop1118" />
      <stop
         style="stop-color:#000000;stop-opacity:0;"
         offset="1"
         id="stop1120" />
    </linearGradient>
    <style
       type="text/css"
       id="current-color-scheme">
            .ColorScheme-Text {
                color:#232629;
                stop-color:#232629;
            }
            .ColorScheme-Background {
                color:#1a2332;
                stop-color:#1a2332;
            }
        </style>
    <radialGradient
       inkscape:collect="always"
       xlink:href="#linearGradient1122"
       id="radialGradient1124"
       cx="80"
       cy="20"
       fx="80"
       fy="20"
       r="12"
       gradientUnits="userSpaceOnUse"
       gradientTransform="matrix(-8.3333343e-8,-1.9166667,1.9166667,-8.2837529e-8,41.666673,173.33333)" />
    <linearGradient
       inkscape:collect="always"
       xlink:href="#linearGradient1187"
       id="linearGradient1189"
       x1="20"
       y1="-92"
       x2="-3"
       y2="-92"
       gradientUnits="userSpaceOnUse"
       gradientTransform="matrix(1,0,0,1.3333333,0,26.666667)" />
  </defs>
  <rect
     id="hint-tile-center"
     height="5"
     style="fill:#ff6600"
     width="5"
     x="0"
     y="0" />
  <g
     id="shadow-topleft"
     transform="translate(0,4)">
    <path
       id="rect529"
       d="M 56,-4 V 20 H 68 C 68,13.352007 73.352007,8 80,8 V -4 Z"
       style="opacity:0.12;fill:url(#radialGradient1124);fill-opacity:1" />
  </g>
  <g
     id="shadow-center"
     transform="translate(80,24)">
    <rect
       id="rect4908"
       height="32"
       style="opacity:0.00100002;fill:#000000;fill-opacity:0.00392157"
       width="32"
       x="0"
       y="0" />
  </g>
  <g
     id="shadow-top"
     transform="translate(0,4)">
    <rect
       id="rect1212"
       width="24"
       height="24"
       x="80"
       y="-4"
       style="fill:none" />
    <rect
       id="rect556"
       width="12"
       height="32"
       x="-4"
       y="-112"
       rx="0"
       ry="0"
       style="opacity:0.12;fill:url(#linearGradient1189);fill-opacity:1;stroke-width:0.979796"
       transform="rotate(90)" />
  </g>
  <use
     x="0"
     y="0"
     xlink:href="#shadow-topleft"
     id="shadow-topright"
     transform="rotate(90,96,40)" />
  <use
     x="0"
     y="0"
     xlink:href="#shadow-top"
     id="shadow-right"
     transform="rotate(90,96,40)" />
  <use
     x="0"
     y="0"
     xlink:href="#shadow-top"
     id="shadow-bottom"
     transform="rotate(180,96,40)" />
  <use
     x="0"
     y="0"
     xlink:href="#shadow-top"
     id="shadow-left"
     transform="rotate(-90,96,40)" />
  <use
     x="0"
     y="0"
     xlink:href="#shadow-topleft"
     id="shadow-bottomright"
     transform="rotate(180,96,40)" />
  <use
     x="0"
     y="0"
     xlink:href="#shadow-topleft"
     id="shadow-bottomleft"
     transform="rotate(-90,96,40)" />
  <rect
     id="rect30894"
     height="56"
     rx="12"
     style="fill:#ffff00;fill-rule:evenodd;stroke-width:1.27273"
     width="56"
     x="68"
     y="12"
     ry="12" />
  <rect
     id="shadow-hint-top-margin"
     height="12"
     style="fill:#ff00ff;stroke-width:1.09545"
     width="2"
     x="93"
     y="0" />
  <rect
     id="shadow-hint-bottom-margin"
     height="12"
     style="fill:#ff00ff;stroke-width:1.09545"
     width="2"
     x="93"
     y="68" />
  <rect
     id="shadow-hint-right-margin"
     height="2"
     style="fill:#ff00ff;stroke-width:1.09545"
     width="12"
     x="124"
     y="41" />
  <rect
     id="shadow-hint-left-margin"
     height="2"
     style="fill:#ff00ff;stroke-width:1.09545"
     width="12"
     x="56"
     y="37" />
  <rect
     id="shadow-hint-top-inset"
     height="12"
     style="fill:#00ff00;stroke-width:1.09545"
     width="2"
     x="97"
     y="0" />
  <rect
     id="shadow-hint-bottom-inset"
     height="12"
     style="fill:#00ff00;stroke-width:1.09545"
     width="2"
     x="97"
     y="68" />
  <rect
     id="shadow-hint-right-inset"
     height="2"
     style="fill:#00ff00;stroke-width:1.09545"
     width="12"
     x="124"
     y="37" />
  <rect
     id="shadow-hint-left-inset"
     height="2"
     style="fill:#00ff00;stroke-width:1.09545"
     width="12"
     x="56"
     y="41" />
  <rect
     id="mask-top"
     height="12"
     width="32"
     x="148"
     y="12" />
  <rect
     id="mask-center"
     height="32"
     width="32"
     x="148"
     y="24" />
  <rect
     id="mask-bottom"
     height="12"
     width="32"
     x="148"
     y="56" />
  <rect
     id="mask-left"
     height="32"
     width="12"
     x="136"
     y="24" />
  <rect
     id="mask-right"
     height="32"
     width="12"
     x="180"
     y="24" />
  <path
     id="mask-topleft"
     d="m 148,12 c -6.64799,0 -12,5.352007 -12,12 h 12 z" />
  <path
     id="mask-topright"
     d="m 192,24 c 0,-6.64799 -5.35201,-12 -12,-12 v 12 z" />
  <path
     id="mask-bottomright"
     d="m 180,68 c 6.64799,0 12,-5.35201 12,-12 h -12 z" />
  <path
     id="mask-bottomleft"
     d="m 136,56 c 0,6.64799 5.35201,12 12,12 V 56 Z" />
  <g
     id="g3031"
     inkscape:label="group1">
    <g
       id="top"
       transform="translate(0,4)">
      <rect
         id="rect4152"
         height="12"
         class="ColorScheme-Background"
         width="32"
         x="12"
         y="8"
         fill="currentColor"
         style="opacity:0.75" />
      <rect
         id="rect363"
         height="1"
         width="32"
         x="12"
         y="8"
         style="opacity:0.04;fill:#fefeff" />
      <rect
         id="rect4793"
         height="0.48680824"
         width="32"
         x="12"
         y="8"
         style="opacity:0.12;fill:#0a0f15;stroke-width:0.697716;fill-opacity:1" />
    </g>
    <g
       id="center"
       transform="translate(0,4)">
      <rect
         id="rect4138"
         height="32"
         class="ColorScheme-Background"
         width="32"
         x="12"
         y="20"
         fill="currentColor"
         style="opacity:0.75" />
    </g>
    <g
       id="topleft"
       transform="translate(0,4)">
      <path
         id="rect433"
         d="M 12,8 C 5.352007,8 0,13.352007 0,20 h 12 z"
         class="ColorScheme-Background"
         fill="currentColor"
         style="opacity:0.75" />
      <path
         id="path346"
         d="M 12,8 C 5.3520136,8 0,13.352014 0,20 H 0.04492187 C 0.55038046,13.823894 5.6891943,9 12,9 Z"
         style="display:none;opacity:0.04;fill:#fefeff"
         inkscape:label="curve1" />
      <path
         id="path3886"
         style="opacity:0.04;fill:#fefeff"
         d="M 11.999999,8 C 5.3520215,8 0,13.352022 0,20 h 0.044922 l 0.70781387,0.01387 c 0,-3.068028 1.38937813,-5.870178 3.27070213,-7.986499 C 6.1401325,10.14438 8.9304755,9 11.999999,9 V 8.044922 Z"
         inkscape:label="curve2"
         sodipodi:nodetypes="cccccccc" />
      <path
         id="path4849"
         style="opacity:0.12;fill:#0a0f15;fill-opacity:1"
         inkscape:label="curve3"
         d="M 12 8 C 8.2196339 8.0065946 4.7694969 9.7463137 2.4980469 12.466797 C 0.93260238 14.597308 -4.9352116e-16 17.229511 0 20 L 0.044921875 20 L 0.37304688 20.011719 L 0.49023438 20.013672 C 0.49023438 18.074097 1.0458672 16.242039 1.9296875 14.621094 C 2.5245394 13.451561 3.2531692 12.382108 4.0234375 11.515625 C 6.1401299 9.6326355 8.9304796 8.4882813 12 8.4882812 L 12 8 z " />
    </g>
    <use
       x="0"
       y="0"
       xlink:href="#topleft"
       id="topright"
       transform="matrix(-1,0,0,1,56,0)" />
    <g
       id="bottomright"
       transform="rotate(180,28,38)">
      <path
         id="path351"
         d="M 12,8 C 5.352007,8 0,13.352007 0,20 h 12 z"
         class="ColorScheme-Background"
         fill="currentColor"
         style="opacity:0.75" />
      <path
         id="path3883"
         d="M 12,8 C 5.3520135,8 5e-7,13.352014 5e-7,20 h 0.04492 C 0.5503795,13.823894 5.6891925,9.0000004 11.999998,9.0000004 Z"
         style="display:none;opacity:0.04;fill:#fefeff" />
      <path
         id="path3911"
         style="opacity:0.04;fill:#fefeff"
         d="M 11.999998,8 C 5.352022,8 0,13.352022 0,20 h 0.04492 l 0.707814,0.01387 c 0,-3.068028 1.389378,-5.870178 3.270702,-7.986499 C 6.140131,10.14438 8.930473,9 11.999996,9 V 8.044922 Z"
         inkscape:label="curve2"
         sodipodi:nodetypes="cccccccc" />
      <path
         id="path4919"
         style="opacity:0.12;fill:#0a0f15;fill-opacity:1"
         inkscape:label="curve3"
         d="M 11.999999,8 C 8.219633,8.0066 4.769497,9.7463126 2.498046,12.466797 0.932602,14.597308 0,17.229511 0,20 h 0.04492 l 0.328125,0.01172 0.117187,0.002 c 0,-1.939575 0.555633,-3.771633 1.439454,-5.392578 0.594851,-1.169533 1.323481,-2.238986 2.093749,-3.105469 2.116693,-1.8829904 4.907043,-3.027344 7.976563,-3.027344 z" />
    </g>
    <g
       id="bottomleft"
       transform="matrix(1,0,0,-1,0,76)">
      <path
         id="path357"
         d="M 12,8 C 5.352007,8 0,13.352007 0,20 h 12 z"
         class="ColorScheme-Background"
         fill="currentColor"
         style="opacity:0.75" />
      <path
         id="path3880"
         d="M 11.999999,8 C 5.3520134,8 -1.8e-7,13.352014 -1.8e-7,20 h 0.044922 C 0.55038042,13.823894 5.6891943,9.0000002 12,9.0000002 Z"
         style="display:none;opacity:0.04;fill:#fefeff" />
      <path
         id="path3908"
         style="opacity:0.04;fill:#fefeff"
         d="M 11.999998,8 C 5.3520218,8 0,13.352022 0,20 h 0.044922 l 0.7078138,0.01387 c 0,-3.068028 1.389378,-5.870178 3.270702,-7.986499 C 6.1401328,10.14438 8.9304754,9 11.999998,9 V 8.044922 Z"
         inkscape:label="curve2"
         sodipodi:nodetypes="cccccccc" />
      <path
         id="path4916"
         style="opacity:0.12;fill:#0a0f15;fill-opacity:1"
         inkscape:label="curve3"
         d="M 11.999999,8 C 8.2196335,8.0066 4.7694966,9.746313 2.4980465,12.466797 0.9326023,14.597308 0,17.229511 0,20 h 0.044922 l 0.328125,0.01172 0.1171875,0.002 c 0,-1.939575 0.5556328,-3.771633 1.4394532,-5.392578 C 2.5245395,13.451609 3.2531694,12.382156 4.0234375,11.515673 6.1401304,9.632683 8.9304804,8.488329 12,8.488329 Z" />
    </g>
    <g
       id="right"
       transform="rotate(90,26,38)">
      <rect
         id="rect377"
         height="12"
         class="ColorScheme-Background"
         width="32"
         x="12"
         y="8"
         fill="currentColor"
         style="opacity:0.75" />
      <rect
         id="rect3905"
         height="0.75321239"
         width="32"
         x="-44"
         y="-64"
         style="opacity:0.04;fill:#fefeff;stroke-width:0.867878"
         transform="translate(56,72)" />
      <rect
         id="rect4925"
         height="0.48680824"
         width="32"
         x="12"
         y="8"
         style="opacity:0.12;fill:#0a0f15;fill-opacity:1;stroke-width:0.697716" />
    </g>
    <g
       id="bottom"
       transform="rotate(180,28,38)">
      <rect
         id="rect371"
         height="12"
         class="ColorScheme-Background"
         width="32"
         x="12"
         y="8"
         fill="currentColor"
         style="opacity:0.75" />
      <rect
         id="rect3876"
         height="1"
         width="32"
         x="-44"
         y="-9"
         style="opacity:0.04;fill:#fefeff"
         transform="scale(-1)" />
      <rect
         id="rect4922"
         height="0.48680824"
         width="32"
         x="-44"
         y="-8.4868078"
         style="opacity:0.12;fill:#0a0f15;fill-opacity:1;stroke-width:0.697716"
         transform="scale(-1)" />
    </g>
    <g
       id="left"
       transform="rotate(-90,30,38)">
      <rect
         id="rect365"
         height="12"
         class="ColorScheme-Background"
         width="32"
         x="12"
         y="8"
         fill="currentColor"
         style="opacity:0.75" />
      <rect
         id="rect3898"
         height="0.75321239"
         width="32"
         x="-44"
         y="-8.7532129"
         style="opacity:0.04;fill:#fefeff;stroke-width:0.867878"
         transform="scale(-1)" />
      <rect
         id="rect4853"
         height="0.48680824"
         width="32"
         x="-44"
         y="-8.4868088"
         style="opacity:0.12;fill:#0a0f15;fill-opacity:1;stroke-width:0.697716"
         transform="scale(-1)" />
    </g>
  </g>
  <rect
     id="hint-top-margin"
     height="12"
     style="fill:#ff00ff;stroke-width:1.41421"
     width="4"
     x="26"
     y="12" />
  <rect
     id="hint-bottom-margin"
     height="12"
     style="fill:#ff00ff;stroke-width:1.41421"
     width="4"
     x="26"
     y="56" />
  <rect
     id="hint-right-margin"
     height="4"
     style="fill:#ff00ff;stroke-width:1.41421"
     width="12"
     x="44"
     y="38" />
  <rect
     id="hint-left-margin"
     height="4"
     style="fill:#ff00ff;stroke-width:1.41421"
     width="12"
     x="0"
     y="38" />
  <g
     id="g3071"
     inkscape:label="group3"
     transform="matrix(1.024888,0,0,1.024888,-0.69686268,-0.99551811)"
     style="display:none">
    <g
       id="g3037"
       transform="translate(0,4)">
      <path
         id="rect3033"
         style="opacity:0.75"
         class="ColorScheme-Background"
         d="M 11.999775,7.9996063 V 19.999774 h 0.388762 V 8.6799398 H 43.611461 V 19.999774 h 0.388762 V 7.9996063 Z" />
      <rect
         id="rect3035"
         height="1"
         width="32"
         x="12"
         y="8"
         style="opacity:0.04;fill:#fefeff" />
    </g>
    <g
       id="g3041"
       transform="translate(0,4)" />
    <g
       id="g3047"
       transform="translate(0,4)">
      <path
         id="path3043"
         style="opacity:0.75"
         class="ColorScheme-Background"
         d="m 11.999775,7.9996063 c -6.6479866,0 -12.00016816003,5.3521817 -12.00016816003,12.0001677 H 0.68946881 C 0.88951595,13.824464 5.8244646,8.8895154 11.999775,8.6894682 Z" />
      <path
         id="path3045"
         d="M 12,8 C 5.3520136,8 0,13.352014 0,20 H 0.04492187 C 0.55038046,13.823894 5.6891943,9 12,9 Z"
         style="opacity:0.04;fill:#fefeff" />
    </g>
    <use
       x="0"
       y="0"
       xlink:href="#topleft"
       id="use3049"
       transform="matrix(-1,0,0,1,56,0)" />
    <g
       id="g3053"
       transform="rotate(180,28,38)">
      <path
         id="path3051"
         style="opacity:0.75"
         class="ColorScheme-Background"
         d="M 0.68947138,19.999778 C 0.88951853,13.824468 5.8244672,8.8895191 11.999777,8.6894719 V 7.99961 c -6.647986,0 -12.00016758414,5.352182 -12.00016758414,12.000168 z" />
    </g>
    <g
       id="g3057"
       transform="matrix(1,0,0,-1,0,76)">
      <path
         id="path3055"
         style="opacity:0.75"
         class="ColorScheme-Background"
         d="M -3.9316003e-4,19.999778 C -3.9316003e-4,13.351792 5.3517884,7.99961 11.999775,7.99961 V 8.6894719 C 5.8244646,8.8895191 0.88951595,13.824468 0.68946881,19.999778 Z" />
    </g>
    <g
       id="g3061"
       transform="rotate(90,26,38)">
      <path
         id="rect3059"
         style="opacity:0.75"
         class="ColorScheme-Background"
         d="m 11.999774,19.999777 h 0.388762 V 8.6799429 H 43.61146 V 19.999777 h 0.388762 V 7.9996094 H 11.999774 Z" />
    </g>
    <g
       id="g3065"
       transform="rotate(180,28,38)">
      <path
         id="rect3063"
         style="opacity:0.75"
         class="ColorScheme-Background"
         d="M 44.000225,19.999778 V 7.99961 H 11.999777 v 12.000168 h 0.388762 V 8.6799435 H 43.611463 V 19.999778 Z" />
    </g>
    <g
       id="g3069"
       transform="rotate(-90,30,38)">
      <path
         id="rect3067"
         style="opacity:0.75"
         class="ColorScheme-Background"
         d="M 44.000226,7.9996068 H 11.999778 V 19.999775 H 12.38854 V 8.6799403 H 43.611464 V 19.999775 h 0.388762 z" />
    </g>
  </g>
</svg>
