<?xml version="1.0" encoding="UTF-8" standalone="no"?>
<svg
   viewBox="0 0 16 16"
   version="1.1"
   id="svg12"
   sodipodi:docname="start-here-symbolic.svg"
   inkscape:version="1.2.2 (b0a8486541, 2022-12-01)"
   xmlns:inkscape="http://www.inkscape.org/namespaces/inkscape"
   xmlns:sodipodi="http://sodipodi.sourceforge.net/DTD/sodipodi-0.dtd"
   xmlns="http://www.w3.org/2000/svg"
   xmlns:svg="http://www.w3.org/2000/svg">
  <sodipodi:namedview
     id="namedview14"
     pagecolor="#ffffff"
     bordercolor="#000000"
     borderopacity="0.25"
     inkscape:showpageshadow="2"
     inkscape:pageopacity="0.0"
     inkscape:pagecheckerboard="0"
     inkscape:deskcolor="#d1d1d1"
     showgrid="false"
     inkscape:zoom="9.1936581"
     inkscape:cx="17.29453"
     inkscape:cy="8.5384946"
     inkscape:window-width="1920"
     inkscape:window-height="1022"
     inkscape:window-x="0"
     inkscape:window-y="27"
     inkscape:window-maximized="1"
     inkscape:current-layer="Layer 2" />
  <defs
     id="defs4">
    <style
       id="style2">.cls-1{fill:#ccdcff;}</style>
  </defs>
  <title
     id="title6">start_here</title>
  <g
     id="Layer 2"
     data-name="Layer 1"
     transform="matrix(0.0882524,0,0,0.0882524,0,0.00246444)">
    <rect
       style="fill:none;fill-opacity:0.25;stroke:none;stroke-width:11.3311;stroke-opacity:0.3;-inkscape-stroke:none;stop-color:#000000"
       id="rect906"
       width="181.29819"
       height="181.29819"
       x="0"
       y="-0.02792491"
       rx="11.331137"
       ry="11.331137" />
    <path
       class="cls-1"
       d="M 173.42977,31.754143 170.56671,30.675589 91.806056,1.9402945 a 3.4513725,3.4513725 0 0 0 -2.320529,0 L 7.8880457,31.741075 A 3.3925422,3.3925422 0 0 0 5.6655679,34.924438 V 146.70184 a 3.3990792,3.3990792 0 0 0 2.2355479,3.18335 L 89.492067,179.3003 a 3.3860055,3.3860055 0 0 0 2.307449,0 l 81.591044,-29.41511 a 3.3925422,3.3925422 0 0 0 2.24206,-3.18335 V 34.924438 a 3.3860055,3.3860055 0 0 0 -2.20285,-3.170295 z M 84.066637,70.32066 v 93.5269 L 18.470945,140.04092 V 46.494378 Z M 148.57725,37.839785 90.923632,58.914102 a 0.8105497,0.8105497 0 0 1 -0.555622,0 L 32.714394,37.813665 a 0.8105497,0.8105497 0 0 1 0,-1.523045 L 90.36801,15.216314 a 0.8105497,0.8105497 0 0 1 0.555622,0 L 148.57725,36.29062 a 0.8105497,0.8105497 0 0 1 0,1.523045 z m 14.24993,8.680755 v 93.52038 L 97.225033,163.84756 V 70.294484 Z"
       id="path8"
       style="stroke-width:0.653693" />
  </g>
</svg>
