<?xml version="1.0" encoding="UTF-8" standalone="no"?>
<svg
   xmlns:dc="http://purl.org/dc/elements/1.1/"
   xmlns:cc="http://creativecommons.org/ns#"
   xmlns:rdf="http://www.w3.org/1999/02/22-rdf-syntax-ns#"
   xmlns:svg="http://www.w3.org/2000/svg"
   xmlns="http://www.w3.org/2000/svg"
   xmlns:sodipodi="http://sodipodi.sourceforge.net/DTD/sodipodi-0.dtd"
   xmlns:inkscape="http://www.inkscape.org/namespaces/inkscape"
   style="isolation:isolate"
   viewBox="0 0 34 34"
   width="34pt"
   height="34pt"
   version="1.1"
   id="svg16"
   sodipodi:docname="restart.svg"
   inkscape:version="1.0.2 (e86c870879, 2021-01-15)">
  <metadata
     id="metadata22">
    <rdf:RDF>
      <cc:Work
         rdf:about="">
        <dc:format>image/svg+xml</dc:format>
        <dc:type
           rdf:resource="http://purl.org/dc/dcmitype/StillImage" />
        <dc:title />
      </cc:Work>
    </rdf:RDF>
  </metadata>
  <defs
     id="defs20" />
  <sodipodi:namedview
     pagecolor="#ffffff"
     bordercolor="#666666"
     borderopacity="1"
     objecttolerance="10"
     gridtolerance="10"
     guidetolerance="10"
     inkscape:pageopacity="0"
     inkscape:pageshadow="2"
     inkscape:window-width="1848"
     inkscape:window-height="1056"
     id="namedview18"
     showgrid="false"
     inkscape:zoom="6.424208"
     inkscape:cx="45.550398"
     inkscape:cy="26.56675"
     inkscape:window-x="72"
     inkscape:window-y="24"
     inkscape:window-maximized="1"
     inkscape:current-layer="svg16"
     inkscape:document-rotation="0" />
  <linearGradient
     id="_lgradient_2"
     x1="0"
     y1="0.5"
     x2="1"
     y2="0.5">
    <stop
       offset="0%"
       stop-opacity="1"
       style="stop-color:#89ddff"
       id="stop2" />
    <stop
       offset="100%"
       stop-opacity="1"
       style="stop-color:#89ddff"
       id="stop4" />
  </linearGradient>
  <linearGradient
     id="_lgradient_3"
     x1="0"
     y1="0.5"
     x2="1"
     y2="0.5"
     gradientTransform="matrix(33,0,0,33,0.5,0.5)"
     gradientUnits="userSpaceOnUse">
    <stop
       offset="0%"
       stop-opacity="1"
       style="stop-color:#89ddff"
       id="stop9" />
    <stop
       offset="100%"
       stop-opacity="1"
       style="stop-color:#89ddff"
       id="stop11" />
  </linearGradient>
  <g
     id="g937">
    <path
       d="m 58.609,17 c 0,-4.234 3.536,-7.672 7.891,-7.672 4.355,0 7.891,3.438 7.891,7.672 0,4.234 -3.536,7.672 -7.891,7.672 -4.355,0 -7.891,-3.438 -7.891,-7.672 z"
       fill="none"
       vector-effect="non-scaling-stroke"
       stroke-width="2"
       stroke="url(#_lgradient_2)"
       stroke-linejoin="miter"
       stroke-linecap="square"
       stroke-miterlimit="3"
       id="path7"
       style="stroke:#89ddff;stroke-width:2.00025;stroke-miterlimit:3;stroke-dasharray:none;stroke-opacity:1" />
    <path
       d="m 59.379,4.549 v 0 c 2.187,-1.141 4.634,-1.737 7.121,-1.737 2.647,0 5.251,0.676 7.547,1.967 v 0 c 0.34,0.192 0.778,0.078 0.976,-0.255 v 0 c 0.198,-0.333 0.082,-0.76 -0.259,-0.952 v 0 C 72.253,2.156 69.398,1.417 66.5,1.417 c -2.838,0 -5.626,0.713 -8.099,2.066 l 0.354,-2.034 v 0 C 58.832,1.006 58.524,0.586 58.069,0.511 v 0 C 57.613,0.437 57.181,0.736 57.104,1.178 v 0 l -0.498,2.895 c -0.154,0.896 0.449,1.743 1.347,1.89 l 3.023,0.497 v 0 c 0.456,0.075 0.888,-0.224 0.965,-0.667 v 0 C 62.018,5.35 61.71,4.93 61.255,4.855 v 0 z m -5.892,20.289 v 0 c 0.197,0.331 0.082,0.757 -0.259,0.952 v 0 c -0.34,0.194 -0.781,0.083 -0.983,-0.248 v 0 C 50.775,23.087 50,20.297 50,17.458 c 0,-2.552 0.624,-5.063 1.822,-7.337 v 0 c 0.182,-0.342 0.616,-0.477 0.969,-0.3 v 0 c 0.352,0.177 0.49,0.599 0.308,0.942 v 0 c -1.097,2.071 -1.664,4.366 -1.664,6.695 0,2.595 0.703,5.141 2.052,7.38 z M 74.09,30.11 v 0 c 0.341,-0.192 0.779,-0.08 0.979,0.251 v 0 c 0.2,0.331 0.086,0.76 -0.254,0.956 v 0 C 72.289,32.747 69.42,33.5 66.5,33.5 c -2.819,0 -5.603,-0.704 -8.063,-2.044 v 0 C 58.092,31.268 57.97,30.843 58.164,30.508 v 0 c 0.194,-0.335 0.631,-0.457 0.976,-0.272 v 0 c 2.245,1.227 4.785,1.869 7.36,1.869 2.669,0 5.287,-0.683 7.59,-1.995 z m 5.99,-18.991 v 0 c -0.17,-0.347 -0.019,-0.763 0.337,-0.928 v 0 c 0.357,-0.166 0.787,-0.019 0.962,0.328 v 0 c 1.069,2.162 1.621,4.533 1.621,6.939 0,2.734 -0.717,5.42 -2.088,7.812 v 0 c -0.194,0.335 -0.631,0.455 -0.975,0.268 v 0 c -0.345,-0.186 -0.47,-0.613 -0.28,-0.952 v 0 c 1.255,-2.176 1.908,-4.631 1.908,-7.128 0,-2.197 -0.502,-4.359 -1.485,-6.339 z M 77.62,7.345 c 0,-0.385 0.321,-0.697 0.717,-0.697 0.396,0 0.717,0.312 0.717,0.697 0,0.385 -0.321,0.698 -0.717,0.698 -0.396,0 -0.717,-0.313 -0.717,-0.698 z m -0.718,20.924 c 0,-0.385 0.322,-0.697 0.718,-0.697 0.396,0 0.717,0.312 0.717,0.697 0,0.385 -0.321,0.698 -0.717,0.698 -0.396,0 -0.718,-0.313 -0.718,-0.698 z m -22.956,0 c 0,-0.385 0.321,-0.697 0.717,-0.697 0.396,0 0.717,0.312 0.717,0.697 0,0.385 -0.321,0.698 -0.717,0.698 -0.396,0 -0.717,-0.313 -0.717,-0.698 z"
       fill-rule="evenodd"
       fill="url(#_lgradient_3)"
       id="path14"
       style="fill:#89ddff;fill-opacity:1" />
  </g>
  <rect
     x="-44.431198"
     y="6.1140308"
     width="24"
     height="24"
     rx="0"
     ry="0"
     style="opacity:0;stroke-width:1.5;paint-order:fill markers stroke"
     id="rect125" />
  <path
     id="path131"
     overflow="visible"
     d="m -32.43123,7.2390952 c -5.999987,0 -10.874993,4.8750068 -10.874993,10.8749928 0,6.00001 4.875006,10.874993 10.874993,10.874993 6.00001,0 10.874993,-4.874983 10.874993,-10.874993 0,-5.999986 -4.874983,-10.8749928 -10.874993,-10.8749928 z"
     inkscape:connector-curvature="0"
     style="color:#000000;overflow:visible;opacity:0.35;fill:none;stroke-width:0.750001" />
  <g
     id="system-log-out"
     class="ColorScheme-Text"
     style="color:#333333;fill:#dfdfdf;fill-opacity:1"
     transform="matrix(0.75000003,0,0,0.75000003,-134.43121,67.614094)">
    <rect
       x="120"
       y="-82"
       width="32"
       height="32"
       rx="0"
       ry="0"
       style="opacity:0;fill:#dfdfdf;fill-opacity:1;stroke-width:2;paint-order:fill markers stroke"
       id="rect139" />
    <path
       d="m 136,-82 c -8.8276,0 -16,7.1724 -16,16 0,8.8276 7.1724,16 16,16 8.8276,0 16,-7.1724 16,-16 0,-8.8276 -7.1724,-16 -16,-16 z"
       overflow="visible"
       id="path141"
       inkscape:connector-curvature="0"
       style="color:#000000;overflow:visible;opacity:0;fill:#dfdfdf;fill-opacity:1" />
  </g>
  <g
     id="g929"
     transform="matrix(1.4086092,0,0,1.4086092,62.702752,-8.1910284)">
    <path
       d="m -32.516163,6.8640912 a 11.25,11.25 0 0 0 -11.16504,11.2499998 11.25,11.25 0 0 0 11.25,11.250001 11.25,11.25 0 0 0 11.250001,-11.250001 11.25,11.25 0 0 0 -11.250001,-11.2499998 11.25,11.25 0 0 0 -0.08496,0 z m 0.0044,1.5 a 9.7500686,9.7500686 0 0 1 0.08054,0 9.7500686,9.7500686 0 0 1 9.750001,9.7499998 9.7500686,9.7500686 0 0 1 -9.750001,9.750001 9.7500686,9.7500686 0 0 1 -9.75,-9.750001 9.7500686,9.7500686 0 0 1 9.669434,-9.7499998 z"
       style="fill:#89ddff;fill-opacity:1;stroke-width:1.5;stroke-linecap:round;stroke-linejoin:round;paint-order:stroke fill markers"
       id="path842" />
    <path
       d="m -32.303761,10.741533 c -0.191718,-2e-6 -0.383367,0.07282 -0.530273,0.219726 -0.293796,0.293796 -0.293796,0.766751 0,1.060547 l 0.840819,0.842285 h -0.437988 a 5.2499998,5.2499998 0 0 0 -0.07031,0 5.2499998,5.2499998 0 0 0 -5.179688,5.25 5.2499998,5.2499998 0 0 0 5.25,5.250001 5.2499998,5.2499998 0 0 0 5.250001,-5.250001 0.75000002,0.75000002 0 0 0 -0.75,-0.75 0.75000002,0.75000002 0 0 0 -0.75,0.75 3.7500678,3.7500678 0 0 1 -3.750001,3.750001 3.7500678,3.7500678 0 0 1 -3.75,-3.750001 3.7500678,3.7500678 0 0 1 3.75,-3.75 h 0.437988 l -0.840819,0.842286 c -0.293796,0.293795 -0.293813,0.766734 0,1.060546 0.293795,0.293796 0.766751,0.293796 1.060546,0 l 2.121094,-2.122558 c 0,0 0.0015,0 0.0015,0 0.07315,-0.07315 0.127337,-0.157719 0.164063,-0.247559 0,0 0,-0.0015 0,-0.0015 0.03669,-0.09022 0.05563,-0.185357 0.05563,-0.281215 0,-0.09586 -0.01894,-0.19246 -0.05566,-0.282715 -0.03658,-0.08989 -0.09106,-0.17578 -0.164063,-0.249023 l -2.122566,-2.121094 c -0.146898,-0.146898 -0.338556,-0.219724 -0.530273,-0.219726 z"
       style="fill:#89ddff;fill-opacity:1;fill-rule:nonzero;stroke:none;stroke-width:0.375;stroke-linecap:square;stroke-linejoin:miter;stroke-miterlimit:4;stroke-dasharray:none;stroke-opacity:1;paint-order:normal"
       id="path879" />
  </g>
  <rect
     x="-34.072266"
     y="-26.302906"
     width="24"
     height="24"
     rx="0"
     ry="0"
     style="opacity:0;stroke-width:1.5;paint-order:fill markers stroke"
     id="rect125-2" />
  <path
     id="path131-9"
     overflow="visible"
     d="m -22.072296,-25.177842 c -5.999987,0 -10.874993,4.875007 -10.874993,10.874993 0,6.0000099 4.875006,10.8749928 10.874993,10.8749928 6.00001,0 10.874993,-4.8749829 10.874993,-10.8749928 0,-5.999986 -4.874983,-10.874993 -10.874993,-10.874993 z"
     inkscape:connector-curvature="0"
     style="color:#000000;overflow:visible;opacity:0.35;fill:none;stroke-width:0.750001" />
  <g
     id="system-log-out-1"
     class="ColorScheme-Text"
     style="color:#333333;fill:#dfdfdf;fill-opacity:1"
     transform="matrix(0.75000003,0,0,0.75000003,-124.07228,35.197157)">
    <rect
       x="120"
       y="-82"
       width="32"
       height="32"
       rx="0"
       ry="0"
       style="opacity:0;fill:#dfdfdf;fill-opacity:1;stroke-width:2;paint-order:fill markers stroke"
       id="rect139-2" />
    <path
       d="m 136,-82 c -8.8276,0 -16,7.1724 -16,16 0,8.8276 7.1724,16 16,16 8.8276,0 16,-7.1724 16,-16 0,-8.8276 -7.1724,-16 -16,-16 z"
       overflow="visible"
       id="path141-7"
       inkscape:connector-curvature="0"
       style="color:#000000;overflow:visible;opacity:0;fill:#dfdfdf;fill-opacity:1" />
  </g>
  <g
     id="g933"
     transform="translate(-5.6265451,-2.051565)">
    <path
       d="m -22.157229,-25.552846 a 11.25,11.25 0 0 0 -11.16504,11.25 11.25,11.25 0 0 0 11.25,11.2500009 11.25,11.25 0 0 0 11.250001,-11.2500009 11.25,11.25 0 0 0 -11.250001,-11.25 11.25,11.25 0 0 0 -0.08496,0 z m 0.0044,1.5 a 9.7500686,9.7500686 0 0 1 0.08053,0 9.7500686,9.7500686 0 0 1 9.750001,9.75 9.7500686,9.7500686 0 0 1 -9.750001,9.7500009 9.7500686,9.7500686 0 0 1 -9.75,-9.7500009 9.7500686,9.7500686 0 0 1 9.669434,-9.75 z"
       style="fill:#d6def5;fill-opacity:1;stroke-width:1.5;stroke-linecap:round;stroke-linejoin:round;paint-order:stroke fill markers"
       id="path842-0" />
    <path
       d="m -21.944827,-21.675404 c -0.191718,-2e-6 -0.383367,0.07282 -0.530273,0.219726 -0.293796,0.293796 -0.293796,0.766751 0,1.060547 l 0.840819,0.842285 h -0.437988 a 5.2499998,5.2499998 0 0 0 -0.07031,0 5.2499998,5.2499998 0 0 0 -5.179688,5.25 5.2499998,5.2499998 0 0 0 5.25,5.2500007 5.2499998,5.2499998 0 0 0 5.250001,-5.2500007 0.75000002,0.75000002 0 0 0 -0.75,-0.75 0.75000002,0.75000002 0 0 0 -0.75,0.75 3.7500678,3.7500678 0 0 1 -3.750001,3.750001 3.7500678,3.7500678 0 0 1 -3.75,-3.750001 3.7500678,3.7500678 0 0 1 3.75,-3.75 h 0.437988 l -0.840819,0.842286 c -0.293796,0.293795 -0.293813,0.766734 0,1.060546 0.293795,0.293796 0.766751,0.293796 1.060546,0 l 2.121094,-2.122558 c 0,0 0.0015,0 0.0015,0 0.07315,-0.07316 0.127337,-0.157719 0.164063,-0.247559 0,0 0,-0.0015 0,-0.0015 0.03669,-0.09022 0.05563,-0.185357 0.05563,-0.281215 0,-0.09586 -0.01894,-0.19246 -0.05567,-0.282715 -0.03658,-0.08989 -0.09106,-0.17578 -0.164063,-0.249023 l -2.122558,-2.121094 c -0.146898,-0.146898 -0.338556,-0.219724 -0.530273,-0.219726 z"
       style="fill:#d6def5;fill-opacity:1;stroke-width:1.5;stroke-linecap:round;stroke-linejoin:round;paint-order:stroke fill markers"
       id="path879-9" />
  </g>
</svg>
