<?xml version="1.0" encoding="UTF-8" standalone="no"?>
<svg
   style="isolation:isolate"
   viewBox="0 0 34 34"
   width="34pt"
   height="34pt"
   version="1.1"
   id="svg16"
   sodipodi:docname="restart.svg"
   inkscape:version="1.2.2 (b0a8486541, 2022-12-01)"
   xml:space="preserve"
   xmlns:inkscape="http://www.inkscape.org/namespaces/inkscape"
   xmlns:sodipodi="http://sodipodi.sourceforge.net/DTD/sodipodi-0.dtd"
   xmlns="http://www.w3.org/2000/svg"
   xmlns:svg="http://www.w3.org/2000/svg"
   xmlns:rdf="http://www.w3.org/1999/02/22-rdf-syntax-ns#"
   xmlns:cc="http://creativecommons.org/ns#"
   xmlns:dc="http://purl.org/dc/elements/1.1/"><metadata
     id="metadata22"><rdf:RDF><cc:Work
         rdf:about=""><dc:format>image/svg+xml</dc:format><dc:type
           rdf:resource="http://purl.org/dc/dcmitype/StillImage" /><dc:title /></cc:Work></rdf:RDF></metadata><defs
     id="defs20"><style
       type="text/css"
       id="current-color-scheme">      .ColorScheme-Text {
        color:#31363b;
      }
      .ColorScheme-Background{
        color:#eff0f1;
      }
      .ColorScheme-ViewText {
        color:#31363b;
      }
      .ColorScheme-ViewBackground{
        color:#fcfcfc;
      }
      .ColorScheme-ViewHover {
        color:#3daee9;
      }
      .ColorScheme-ViewFocus{
        color:#3daee9;
      }
      .ColorScheme-ButtonText {
        color:#31363b;
      }
      .ColorScheme-ButtonBackground{
        color:#eff0f1;
      }
      .ColorScheme-ButtonHover {
        color:#3daee9;
      }
      .ColorScheme-ButtonFocus{
        color:#3daee9;
      }</style></defs><sodipodi:namedview
     pagecolor="#ffffff"
     bordercolor="#666666"
     borderopacity="1"
     objecttolerance="10"
     gridtolerance="10"
     guidetolerance="10"
     inkscape:pageopacity="0"
     inkscape:pageshadow="2"
     inkscape:window-width="1920"
     inkscape:window-height="1032"
     id="namedview18"
     showgrid="false"
     inkscape:zoom="6.6848976"
     inkscape:cx="-7.7039325"
     inkscape:cy="8.6762735"
     inkscape:window-x="0"
     inkscape:window-y="24"
     inkscape:window-maximized="1"
     inkscape:current-layer="svg16"
     inkscape:document-rotation="0"
     inkscape:showpageshadow="2"
     inkscape:pagecheckerboard="0"
     inkscape:deskcolor="#d1d1d1"
     inkscape:document-units="pt" /><linearGradient
     id="_lgradient_2"
     x1="0"
     y1="0.5"
     x2="1"
     y2="0.5"><stop
       offset="0%"
       stop-opacity="1"
       style="stop-color:#89ddff"
       id="stop2" /><stop
       offset="100%"
       stop-opacity="1"
       style="stop-color:#89ddff"
       id="stop4" /></linearGradient><linearGradient
     id="_lgradient_3"
     x1="0"
     y1="0.5"
     x2="1"
     y2="0.5"
     gradientTransform="matrix(33,0,0,33,0.5,0.5)"
     gradientUnits="userSpaceOnUse"><stop
       offset="0%"
       stop-opacity="1"
       style="stop-color:#89ddff"
       id="stop9" /><stop
       offset="100%"
       stop-opacity="1"
       style="stop-color:#89ddff"
       id="stop11" /></linearGradient><g
     id="g929"
     transform="matrix(1.4086092,0,0,1.4086092,62.70275,-8.1910268)"
     style="color:#333333;display:inline;isolation:isolate;fill:#dfdfdf;fill-opacity:1"
     inkscape:label="system-reboot"><path
       id="path7128"
       style="display:inline;isolation:isolate;fill:#89ddff;fill-opacity:1;stroke-width:2.05105;stroke-linecap:round;stroke-linejoin:round;paint-order:stroke fill markers"
       class="UnoptimicedTransforms"
       inkscape:label="path842"
       d="M -23.669373,0.72467331 A 15.382877,15.382877 0 0 0 -38.936632,16.106562 15.382877,15.382877 0 0 0 -23.553395,31.4898 15.382877,15.382877 0 0 0 -8.1701572,16.106562 15.382877,15.382877 0 0 0 -10.948229,7.2895546 c -0.351397,-0.2828834 -0.856475,-0.3142319 -1.235299,-0.036412 -0.458347,0.3371506 -0.567359,1.0219543 -0.238698,1.4955738 0.107847,0.1680881 0.177835,0.2908035 0.226561,0.3802992 a 13.331921,13.331921 0 0 1 1.97432,6.9775464 13.331921,13.331921 0 0 1 -13.33205,13.33205 13.331921,13.331921 0 0 1 -13.332049,-13.33205 13.331921,13.331921 0 0 1 13.221466,-13.3307008 13.331921,13.331921 0 0 1 0.110583,0 13.331921,13.331921 0 0 1 5.780009,1.3256529 c 0.461047,0.096067 0.946672,-0.1452658 1.144943,-0.6014662 0.208252,-0.4780367 0.03074,-1.0379362 -0.385694,-1.3162128 a 15.382877,15.382877 0 0 0 -6.539258,-1.45916219 15.382877,15.382877 0 0 0 -0.115978,4e-7 z"
       transform="matrix(0.73103544,0,0,0.73103544,-15.212724,6.3454116)" /><path
       d="m -32.303236,10.741533 c -0.192508,-2e-6 -0.384947,0.07282 -0.532459,0.219726 -0.295009,0.293796 -0.295009,0.766751 0,1.060547 l 0.844287,0.842285 h -0.439795 a 5.2716586,5.2499998 0 0 0 -0.0706,0 5.2716586,5.2499998 0 0 0 -5.201057,5.25 5.2716586,5.2499998 0 0 0 5.271659,5.250001 5.2716586,5.2499998 0 0 0 5.27166,-5.250001 0.75309413,0.75000002 0 0 0 -0.753094,-0.75 0.75309413,0.75000002 0 0 0 -0.753095,0.75 3.7655387,3.7500678 0 0 1 -3.765471,3.750001 3.7655387,3.7500678 0 0 1 -3.76547,-3.750001 3.7655387,3.7500678 0 0 1 3.76547,-3.75 h 0.439795 l -0.844288,0.842286 c -0.295008,0.293795 -0.295026,0.766734 0,1.060546 0.295007,0.293796 0.769915,0.293796 1.064921,0 l 2.129844,-2.122558 c 0,0 0.0015,0 0.0015,0 0.07346,-0.07315 0.127862,-0.157719 0.16474,-0.247559 0,0 0,-0.0015 0,-0.0015 0.03684,-0.09022 0.05586,-0.185357 0.05586,-0.281215 0,-0.09586 -0.01902,-0.19246 -0.05589,-0.282715 -0.03672,-0.08989 -0.09144,-0.17578 -0.16474,-0.249023 l -2.131323,-2.121094 c -0.147504,-0.146898 -0.339952,-0.219724 -0.532461,-0.219726 z"
       style="display:none;isolation:isolate;fill:#8addff;fill-opacity:1;fill-rule:nonzero;stroke:none;stroke-width:0.375773;stroke-linecap:square;stroke-linejoin:miter;stroke-miterlimit:4;stroke-dasharray:none;stroke-opacity:1;paint-order:normal"
       id="path3290" /><path
       d="m -33.374523,11.204907 c 0.19067,-0.02148 0.389788,0.03055 0.552132,0.160602 0.324641,0.259995 0.376163,0.730132 0.1155,1.054248 l -0.745786,0.929011 0.436275,-0.04773 a 5.2499995,5.2606002 83.748257 0 1 0.07016,-0.0072 5.2499995,5.2606002 83.748257 0 1 5.730995,4.6536 5.2499995,5.2606002 83.748257 0 1 -4.657608,5.791632 5.2499995,5.2606002 83.748257 0 1 -5.801012,-4.645915 0.74999999,0.75151438 83.748257 0 1 0.665366,-0.827353 0.74999999,0.75151438 83.748257 0 1 0.828737,0.663672 3.7500676,3.7576396 83.748257 0 0 4.143586,3.318525 3.7500676,3.7576396 83.748257 0 0 3.326853,-4.136881 3.7500676,3.7576396 83.748257 0 0 -4.143586,-3.318524 l -0.436275,0.04773 0.929226,0.745524 c 0.324641,0.259994 0.376162,0.730131 0.1155,1.054247 -0.260639,0.324092 -0.731731,0.375709 -1.056372,0.115739 L -35.64467,14.87736 c 0,0 -0.0015,1.67e-4 -0.0015,1.67e-4 -0.08114,-0.06491 -0.144375,-0.142943 -0.190671,-0.228136 0,0 -1.67e-4,-0.0015 -1.67e-4,-0.0015 -0.0463,-0.08567 -0.07565,-0.178262 -0.08615,-0.273454 -0.0095,-0.09545 -0.002,-0.193295 0.02482,-0.287103 0.02649,-0.09331 0.07159,-0.184705 0.136022,-0.265435 l 1.883199,-2.340092 c 0.130295,-0.162034 0.313306,-0.255437 0.504239,-0.276341 z"
       style="display:inline;isolation:isolate;fill:#89ddff;fill-opacity:1;stroke-width:1.50151;stroke-linecap:round;stroke-linejoin:round;paint-order:stroke fill markers"
       id="path3440"
       inkscape:label="path879" /></g><g
     id="g937"><path
       d="m 58.609,17 c 0,-4.234 3.536,-7.672 7.891,-7.672 4.355,0 7.891,3.438 7.891,7.672 0,4.234 -3.536,7.672 -7.891,7.672 -4.355,0 -7.891,-3.438 -7.891,-7.672 z"
       fill="none"
       vector-effect="non-scaling-stroke"
       stroke-width="2"
       stroke="url(#_lgradient_2)"
       stroke-linejoin="miter"
       stroke-linecap="square"
       stroke-miterlimit="3"
       id="path7"
       style="stroke:#89ddff;stroke-width:2.00025;stroke-miterlimit:3;stroke-dasharray:none;stroke-opacity:1" /><path
       d="m 59.379,4.549 v 0 c 2.187,-1.141 4.634,-1.737 7.121,-1.737 2.647,0 5.251,0.676 7.547,1.967 v 0 c 0.34,0.192 0.778,0.078 0.976,-0.255 v 0 c 0.198,-0.333 0.082,-0.76 -0.259,-0.952 v 0 C 72.253,2.156 69.398,1.417 66.5,1.417 c -2.838,0 -5.626,0.713 -8.099,2.066 l 0.354,-2.034 v 0 C 58.832,1.006 58.524,0.586 58.069,0.511 v 0 C 57.613,0.437 57.181,0.736 57.104,1.178 v 0 l -0.498,2.895 c -0.154,0.896 0.449,1.743 1.347,1.89 l 3.023,0.497 v 0 c 0.456,0.075 0.888,-0.224 0.965,-0.667 v 0 C 62.018,5.35 61.71,4.93 61.255,4.855 v 0 z m -5.892,20.289 v 0 c 0.197,0.331 0.082,0.757 -0.259,0.952 v 0 c -0.34,0.194 -0.781,0.083 -0.983,-0.248 v 0 C 50.775,23.087 50,20.297 50,17.458 c 0,-2.552 0.624,-5.063 1.822,-7.337 v 0 c 0.182,-0.342 0.616,-0.477 0.969,-0.3 v 0 c 0.352,0.177 0.49,0.599 0.308,0.942 v 0 c -1.097,2.071 -1.664,4.366 -1.664,6.695 0,2.595 0.703,5.141 2.052,7.38 z M 74.09,30.11 v 0 c 0.341,-0.192 0.779,-0.08 0.979,0.251 v 0 c 0.2,0.331 0.086,0.76 -0.254,0.956 v 0 C 72.289,32.747 69.42,33.5 66.5,33.5 c -2.819,0 -5.603,-0.704 -8.063,-2.044 v 0 C 58.092,31.268 57.97,30.843 58.164,30.508 v 0 c 0.194,-0.335 0.631,-0.457 0.976,-0.272 v 0 c 2.245,1.227 4.785,1.869 7.36,1.869 2.669,0 5.287,-0.683 7.59,-1.995 z m 5.99,-18.991 v 0 c -0.17,-0.347 -0.019,-0.763 0.337,-0.928 v 0 c 0.357,-0.166 0.787,-0.019 0.962,0.328 v 0 c 1.069,2.162 1.621,4.533 1.621,6.939 0,2.734 -0.717,5.42 -2.088,7.812 v 0 c -0.194,0.335 -0.631,0.455 -0.975,0.268 v 0 c -0.345,-0.186 -0.47,-0.613 -0.28,-0.952 v 0 c 1.255,-2.176 1.908,-4.631 1.908,-7.128 0,-2.197 -0.502,-4.359 -1.485,-6.339 z M 77.62,7.345 c 0,-0.385 0.321,-0.697 0.717,-0.697 0.396,0 0.717,0.312 0.717,0.697 0,0.385 -0.321,0.698 -0.717,0.698 -0.396,0 -0.717,-0.313 -0.717,-0.698 z m -0.718,20.924 c 0,-0.385 0.322,-0.697 0.718,-0.697 0.396,0 0.717,0.312 0.717,0.697 0,0.385 -0.321,0.698 -0.717,0.698 -0.396,0 -0.718,-0.313 -0.718,-0.698 z m -22.956,0 c 0,-0.385 0.321,-0.697 0.717,-0.697 0.396,0 0.717,0.312 0.717,0.697 0,0.385 -0.321,0.698 -0.717,0.698 -0.396,0 -0.717,-0.313 -0.717,-0.698 z"
       fill-rule="evenodd"
       fill="url(#_lgradient_3)"
       id="path14"
       style="fill:#89ddff;fill-opacity:1" /></g></svg>
