<?xml version="1.0" encoding="UTF-8" standalone="no"?>
<svg
   style="isolation:isolate"
   viewBox="0 0 33.999999 33.999999"
   width="45.333332"
   height="45.333332"
   version="1.1"
   id="svg16"
   xml:space="preserve"
   sodipodi:docname="restart.svg"
   inkscape:version="1.2.2 (b0a8486541, 2022-12-01)"
   inkscape:export-filename="restart.png"
   inkscape:export-xdpi="96"
   inkscape:export-ydpi="96"
   xmlns:inkscape="http://www.inkscape.org/namespaces/inkscape"
   xmlns:sodipodi="http://sodipodi.sourceforge.net/DTD/sodipodi-0.dtd"
   xmlns="http://www.w3.org/2000/svg"
   xmlns:svg="http://www.w3.org/2000/svg"><sodipodi:namedview
   id="namedview9"
   pagecolor="#ffffff"
   bordercolor="#000000"
   borderopacity="0.25"
   inkscape:showpageshadow="2"
   inkscape:pageopacity="0.0"
   inkscape:pagecheckerboard="0"
   inkscape:deskcolor="#d1d1d1"
   showgrid="false"
   inkscape:zoom="13.668939"
   inkscape:cx="7.5353327"
   inkscape:cy="20.630717"
   inkscape:window-width="1920"
   inkscape:window-height="1056"
   inkscape:window-x="0"
   inkscape:window-y="24"
   inkscape:window-maximized="1"
   inkscape:current-layer="svg16" /><defs
   id="svg1" />
    
   <g
   id="system-restart"
   transform="scale(1.0542636)">
     <rect
   style="opacity:1;isolation:isolate;fill:none;stroke:none"
   id="rect202"
   width="32.25"
   height="32.25"
   x="-4.2123168e-16"
   y="0" />
    
    <path
   d="m 16.314815,6.5824106 c -0.257212,-2.7e-6 -0.514331,0.097295 -0.711423,0.2935775 -0.394163,0.3925429 -0.394163,1.0244616 0,1.4170046 l 1.128058,1.1253831 h -0.587613 a 7.0435015,7.0145631 0 0 0 -0.09433,0 7.0435015,7.0145631 0 0 0 -6.9491705,7.0145632 7.0435015,7.0145631 0 0 0 7.0435025,7.014565 7.0435015,7.0145631 0 0 0 7.043503,-7.014565 1.0062146,1.0020805 0 0 0 -1.006214,-1.00208 1.0062146,1.0020805 0 0 0 -1.006216,1.00208 5.0311637,5.010493 0 0 1 -5.031073,5.010404 5.0311637,5.010493 0 0 1 -5.031072,-5.010404 5.0311637,5.010493 0 0 1 5.031072,-5.010402 h 0.587613 l -1.128059,1.125384 c -0.394163,0.392542 -0.394187,1.024439 0,1.417003 0.394161,0.392543 1.028689,0.392543 1.422848,0 l 2.8457,-2.835965 c 0,0 0.002,0 0.002,0 0.09815,-0.09774 0.170837,-0.210729 0.22011,-0.330765 0,0 0,-0.002 0,-0.002 0.04922,-0.120544 0.07464,-0.247657 0.07464,-0.375734 0,-0.128079 -0.02541,-0.257147 -0.07467,-0.377737 C 20.044955,9.922616 19.971843,9.8078578 19.873906,9.7099972 L 17.02623,6.8759881 C 16.829149,6.6797166 16.572018,6.5824132 16.314805,6.5824106 Z"
   style="display:none;fill:#8addff;fill-opacity:1"
   id="path3290" />
    <path
   id="path3440"
   style="fill:#89ddff;fill-opacity:1"
   d="m 14.88346,7.2015279 c 0.254756,-0.0287 0.520799,0.040818 0.737708,0.2145815 0.433755,0.3473813 0.502594,0.9755347 0.15432,1.4085885 l -0.99645,1.2412581 0.58291,-0.06377 a 7.0145627,7.0287263 83.748257 0 1 0.09374,-0.00962 7.0145627,7.0287263 83.748257 0 1 7.657224,6.217709 7.0145627,7.0287263 83.748257 0 1 -6.223064,7.738242 7.0145627,7.0287263 83.748257 0 1 -7.7507747,-6.207441 1.0020805,1.0041038 83.748257 0 1 0.8890007,-1.105433 1.0020805,1.0041038 83.748257 0 1 1.107281,0.886737 5.0104927,5.0206097 83.748257 0 0 5.536276,4.433906 5.0104927,5.0206097 83.748257 0 0 4.445032,-5.527317 5.0104927,5.0206097 83.748257 0 0 -5.536275,-4.433904 l -0.58291,0.06377 1.241545,0.9961 c 0.433755,0.34738 0.502593,0.975534 0.154321,1.408587 -0.348242,0.433022 -0.977672,0.501988 -1.411427,0.15464 L 11.8503,12.108319 c 0,0 -0.002,2.23e-4 -0.002,2.23e-4 -0.108412,-0.08673 -0.1929,-0.190987 -0.254757,-0.304814 0,0 -2.23e-4,-0.002 -2.23e-4,-0.002 -0.06186,-0.114464 -0.101077,-0.238177 -0.115106,-0.365364 -0.01269,-0.127531 -0.0027,-0.258263 0.03316,-0.3836 0.03539,-0.124672 0.09565,-0.246786 0.18174,-0.35465 L 14.209269,7.5715 C 14.383358,7.3550052 14.62788,7.2302088 14.882987,7.2022788 Z M 16.030706,1.4165394 A 15.025099,15.025099 0 0 0 1.1185364,16.440673 15.025099,15.025099 0 0 0 16.143987,31.466124 15.025099,15.025099 0 0 0 31.169438,16.440673 15.025099,15.025099 0 0 0 28.455979,7.8287333 c -0.343224,-0.2763041 -0.836555,-0.3069235 -1.206568,-0.035565 -0.447687,0.3293091 -0.554163,0.9981855 -0.233146,1.4607895 0.105338,0.1641786 0.173699,0.2840399 0.221291,0.3714541 A 13.021844,13.021844 0 0 1 29.165957,16.440673 13.021844,13.021844 0 0 1 16.143987,29.462643 13.021844,13.021844 0 0 1 3.1220174,16.440673 13.021844,13.021844 0 0 1 16.035976,3.4200203 a 13.021844,13.021844 0 0 1 0.108011,0 13.021844,13.021844 0 0 1 5.645576,1.2948206 c 0.450324,0.093833 0.924654,-0.1418872 1.118314,-0.5874772 0.203408,-0.4669184 0.03003,-1.0137957 -0.376724,-1.2856 a 15.025099,15.025099 0 0 0 -6.387166,-1.4252247 15.025099,15.025099 0 0 0 -0.113281,4e-7 z" />
   </g>
 </svg>
