<?xml version="1.0" encoding="UTF-8" standalone="no"?>
<svg
   style="isolation:isolate"
   viewBox="0 0 33.999999 33.999999"
   width="45.333332"
   height="45.333332"
   version="1.1"
   id="svg9"
   sodipodi:docname="shutdown.svg"
   inkscape:version="1.2.2 (b0a8486541, 2022-12-01)"
   xml:space="preserve"
   inkscape:export-filename="shutdown.png"
   inkscape:export-xdpi="96"
   inkscape:export-ydpi="96"
   xmlns:inkscape="http://www.inkscape.org/namespaces/inkscape"
   xmlns:sodipodi="http://sodipodi.sourceforge.net/DTD/sodipodi-0.dtd"
   xmlns="http://www.w3.org/2000/svg"
   xmlns:svg="http://www.w3.org/2000/svg"
   xmlns:rdf="http://www.w3.org/1999/02/22-rdf-syntax-ns#"
   xmlns:cc="http://creativecommons.org/ns#"
   xmlns:dc="http://purl.org/dc/elements/1.1/"><metadata
     id="metadata15"><rdf:RDF><cc:Work
         rdf:about=""><dc:format>image/svg+xml</dc:format><dc:type
           rdf:resource="http://purl.org/dc/dcmitype/StillImage" /></cc:Work></rdf:RDF></metadata><defs
     id="defs13" /><sodipodi:namedview
     pagecolor="#ffffff"
     bordercolor="#666666"
     borderopacity="1"
     objecttolerance="10"
     gridtolerance="10"
     guidetolerance="10"
     inkscape:pageopacity="0"
     inkscape:pageshadow="2"
     inkscape:window-width="1920"
     inkscape:window-height="1056"
     id="namedview11"
     showgrid="false"
     inkscape:zoom="6.649355"
     inkscape:cx="46.169892"
     inkscape:cy="45.869111"
     inkscape:window-x="0"
     inkscape:window-y="24"
     inkscape:window-maximized="1"
     inkscape:current-layer="system-shutdown"
     inkscape:document-rotation="0"
     inkscape:showpageshadow="2"
     inkscape:pagecheckerboard="0"
     inkscape:deskcolor="#d1d1d1"
     inkscape:document-units="px" /><g
     id="system-shutdown"
     transform="matrix(0.75,0,0,0.75,87.787162,4.9455774)"><g
       id="g871"
       transform="matrix(1.9468337,0,0,1.9468337,-61.569981,-12.064098)"
       style="isolation:isolate"><path
         id="path7128"
         style="display:inline;isolation:isolate;fill:#ff5370;fill-opacity:1;stroke-width:2.05105;stroke-linecap:round;stroke-linejoin:round;paint-order:stroke fill markers"
         class="UnoptimicedTransforms"
         inkscape:label="path842"
         d="M -23.669373,0.72467331 A 15.382877,15.382877 0 0 0 -38.936632,16.106562 15.382877,15.382877 0 0 0 -23.553395,31.4898 15.382877,15.382877 0 0 0 -8.1701572,16.106562 15.382877,15.382877 0 0 0 -10.948229,7.2895546 c -0.351397,-0.2828834 -0.856475,-0.3142319 -1.235299,-0.036412 -0.458347,0.3371506 -0.567359,1.0219543 -0.238698,1.4955738 0.107847,0.1680881 0.177835,0.2908035 0.226561,0.3802992 a 13.331921,13.331921 0 0 1 1.97432,6.9775464 13.331921,13.331921 0 0 1 -13.33205,13.33205 13.331921,13.331921 0 0 1 -13.332049,-13.33205 13.331921,13.331921 0 0 1 13.221466,-13.3307008 13.331921,13.331921 0 0 1 0.110583,0 13.331921,13.331921 0 0 1 5.780009,1.3256529 c 0.461047,0.096067 0.946672,-0.1452658 1.144943,-0.6014662 0.208252,-0.4780367 0.03074,-1.0379362 -0.385694,-1.3162128 a 15.382877,15.382877 0 0 0 -6.539258,-1.45916219 15.382877,15.382877 0 0 0 -0.115978,4e-7 z"
         transform="matrix(0.73141444,0,0,0.73141444,0.3656794,2.6485734)" /><path
         d="m -12.618472,10.187659 a 0.75000003,0.75000003 0 0 0 -1.060643,0 0.75000003,0.75000003 0 0 0 0,1.060643 4.500068,4.500068 0 0 1 1.317535,3.182001 4.500068,4.500068 0 0 1 -4.499536,4.499512 4.500068,4.500068 0 0 1 -4.499513,-4.499512 4.500068,4.500068 0 0 1 1.317535,-3.182001 0.75000003,0.75000003 0 0 0 0,-1.060643 0.75000003,0.75000003 0 0 0 -1.060643,0 6.0000039,6.0000039 0 0 0 -1.757771,4.241594 6.0000039,6.0000039 0 0 0 6.000392,6.000392 6.0000039,6.0000039 0 0 0 5.999365,-5.999342 6.0000039,6.0000039 0 0 0 -1.756721,-4.242644 z"
         style="fill:#ff5370;fill-opacity:1;stroke-width:1.71428;stroke-linecap:round;stroke-linejoin:round;paint-order:stroke fill markers"
         id="path961" /><rect
         ry="0.74998313"
         y="7.6796069"
         x="-17.611589"
         height="6"
         width="1.4999663"
         id="rect979"
         style="fill:#ff5370;fill-opacity:1;stroke-width:1.04445;stroke-linecap:round;stroke-linejoin:round;paint-order:stroke fill markers" /></g></g></svg>
