<?xml version="1.0" encoding="UTF-8" standalone="no"?>
<!-- Created with Inkscape (http://www.inkscape.org/) -->

<svg
   width="16"
   height="16"
   viewBox="0 0 4.2333332 4.2333335"
   version="1.1"
   id="svg2435"
   inkscape:version="1.2.2 (b0a8486541, 2022-12-01)"
   sodipodi:docname="configure.svg"
   xmlns:inkscape="http://www.inkscape.org/namespaces/inkscape"
   xmlns:sodipodi="http://sodipodi.sourceforge.net/DTD/sodipodi-0.dtd"
   xmlns="http://www.w3.org/2000/svg"
   xmlns:svg="http://www.w3.org/2000/svg"
   xmlns:rdf="http://www.w3.org/1999/02/22-rdf-syntax-ns#"
   xmlns:cc="http://creativecommons.org/ns#"
   xmlns:dc="http://purl.org/dc/elements/1.1/">
  <defs
     id="defs2429">
    <style
       id="current-color-scheme"
       type="text/css">.ColorScheme-Text {
        color:#ccdcff;
      }</style>
  </defs>
  <sodipodi:namedview
     id="base"
     pagecolor="#ffffff"
     bordercolor="#666666"
     borderopacity="1.0"
     inkscape:pageopacity="0.0"
     inkscape:pageshadow="2"
     inkscape:zoom="20.879381"
     inkscape:cx="16.188219"
     inkscape:cy="12.021429"
     inkscape:document-units="px"
     inkscape:current-layer="g4732"
     showgrid="true"
     units="px"
     inkscape:window-width="1920"
     inkscape:window-height="1026"
     inkscape:window-x="0"
     inkscape:window-y="24"
     inkscape:window-maximized="1"
     inkscape:showpageshadow="2"
     inkscape:pagecheckerboard="0"
     inkscape:deskcolor="#d1d1d1">
    <inkscape:grid
       type="xygrid"
       id="grid2980"
       spacingx="0.13229167"
       spacingy="0.13229167"
       visible="false"
       originx="0"
       originy="0" />
  </sodipodi:namedview>
  <metadata
     id="metadata2432">
    <rdf:RDF>
      <cc:Work
         rdf:about="">
        <dc:format>image/svg+xml</dc:format>
        <dc:type
           rdf:resource="http://purl.org/dc/dcmitype/StillImage" />
      </cc:Work>
    </rdf:RDF>
  </metadata>
  <g
     id="g4732"
     style="display:inline"
     inkscape:label="configure"
     transform="matrix(0.72727274,0,0,0.72727274,0,-3.2226561e-6)">
    <rect
       style="display:inline;fill:none;stroke-width:0.418571;stroke-opacity:0.372549"
       id="rect845"
       width="5.8208332"
       height="5.8208332"
       x="0"
       y="-1.1816406e-05" />
    <path
       id="rect2907-3"
       class="ColorScheme-Text"
       style="display:inline;fill:currentColor;fill-opacity:1;fill-rule:evenodd;stroke:none;stroke-width:0.374196;stroke-linecap:square"
       d="m 1.6630953,0.72759234 c -0.5182621,0 -0.93549115,0.41722896 -0.93549115,0.93549106 0,0.518262 0.41722905,0.935491 0.93549115,0.935491 h 2.4946428 c 0.518262,0 0.935491,-0.417229 0.935491,-0.935491 0,-0.5182621 -0.417229,-0.93549106 -0.935491,-0.93549106 z m 0,0.31183036 h 2.4946428 c 0.345508,0 0.6236607,0.2781527 0.6236607,0.6236607 0,0.345508 -0.2781527,0.6236607 -0.6236607,0.6236607 H 1.6630953 c -0.345508,0 -0.6236608,-0.2781527 -0.6236608,-0.6236607 0,-0.345508 0.2781528,-0.6236607 0.6236608,-0.6236607 z m 0.081613,0.1467794 A 0.46774553,0.46774553 0 0 0 1.2769623,1.6539477 0.46774553,0.46774553 0 0 0 1.7447078,2.1216932 0.46774553,0.46774553 0 0 0 2.2124533,1.6539477 0.46774553,0.46774553 0 0 0 1.7447083,1.1862021 Z m -0.081613,2.0360331 c -0.5182621,0 -0.93549115,0.417229 -0.93549115,0.9354909 0,0.5182621 0.41722905,0.9354911 0.93549115,0.9354911 h 2.4946428 c 0.518262,0 0.935491,-0.417229 0.935491,-0.9354911 0,-0.5182619 -0.417229,-0.9354909 -0.935491,-0.9354909 z M 4.1577381,3.5340655 A 0.6236607,0.6236607 0 0 1 4.7813988,4.1577261 0.6236607,0.6236607 0 0 1 4.1577381,4.7813869 0.6236607,0.6236607 0 0 1 3.5340774,4.1577261 0.6236607,0.6236607 0 0 1 4.1577381,3.5340655 Z" />
  </g>
</svg>
