<?xml version="1.0" encoding="UTF-8" standalone="no"?>
<svg
   version="1.1"
   viewBox="0 0 16 16"
   id="svg7"
   sodipodi:docname="folder-open-recent.svg"
   inkscape:version="1.2.2 (b0a8486541, 2022-12-01)"
   width="16"
   height="16"
   xmlns:inkscape="http://www.inkscape.org/namespaces/inkscape"
   xmlns:sodipodi="http://sodipodi.sourceforge.net/DTD/sodipodi-0.dtd"
   xmlns="http://www.w3.org/2000/svg"
   xmlns:svg="http://www.w3.org/2000/svg">
  <sodipodi:namedview
     id="namedview9"
     pagecolor="#ffffff"
     bordercolor="#666666"
     borderopacity="1.0"
     inkscape:pageshadow="2"
     inkscape:pageopacity="0.0"
     inkscape:pagecheckerboard="0"
     showgrid="false"
     inkscape:zoom="16.844068"
     inkscape:cx="0.47494465"
     inkscape:cy="8.6083718"
     inkscape:current-layer="svg7"
     inkscape:showpageshadow="2"
     inkscape:deskcolor="#d1d1d1"
     inkscape:window-width="1920"
     inkscape:window-height="1026"
     inkscape:window-x="0"
     inkscape:window-y="24"
     inkscape:window-maximized="1" />
  <defs
     id="defs3">
    <style
       type="text/css"
       id="current-color-scheme">
            .ColorScheme-Text {
                color:#ccdcff;
            }
        </style>
  </defs>
  <rect
     style="fill:none;fill-opacity:1;stroke-width:4.34852;stroke-opacity:0.372549"
     id="rect898"
     width="16"
     height="16"
     x="0"
     y="0" />
  <path
     style="clip-rule:evenodd;fill:currentColor;fill-rule:evenodd;stroke-width:0.867531;stroke-linejoin:round;stroke-miterlimit:2"
     class="ColorScheme-Text"
     d="m 4.6161287,3.2672011 c 0.310577,0 0.4589253,0.1604937 0.6905568,0.4676007 0.2316316,0.3062394 0.3374707,0.5005671 0.7616947,0.5170502 h 6.3564208 c 0.382582,0 0.690557,0.307107 0.690557,0.6896894 v 7.0790766 c 0,0.382583 -0.307975,0.690557 -0.690557,0.690557 H 7.3193644 c 0.1127789,-0.205606 0.2064727,-0.423356 0.2767432,-0.65065 h 4.4495814 c 0.231631,0 0.419018,-0.187388 0.419018,-0.419019 V 5.3206537 c 0,-0.2316316 -0.187387,-0.4181514 -0.419018,-0.4181514 H 5.8775228 C 5.612925,4.9025023 5.1435892,4.5832499 4.9761552,4.4158159 4.8087212,4.2483818 4.6716508,3.9178515 4.2370164,3.9178515 H 2.471585 c -0.2316315,0 -0.4190188,0.1873873 -0.4190188,0.4190188 V 8.2485804 C 1.8079217,8.4403055 1.5893031,8.6632611 1.4019159,8.9122436 V 3.957758 c 0,-0.3825824 0.3079744,-0.6905569 0.6905568,-0.6905569 z"
     id="path5-3"
     inkscape:label="path5" />
  <path
     style="clip-rule:evenodd;fill:currentColor;fill-opacity:0.3;fill-rule:evenodd;stroke-width:0.867531;stroke-linejoin:round;stroke-miterlimit:2"
     class="ColorScheme-Text"
     d="m 3.0146612,3.2672011 v -0.561294 c 0,-0.3825824 0.307107,-0.6905569 0.6896894,-0.6905569 H 6.228874 c 0.3105771,0 0.4589256,0.1613612 0.6896896,0.4676007 0.2316315,0.3062394 0.3374707,0.5005666 0.7625622,0.5170498 h 6.3564202 c 0.381715,0 0.68969,0.3079745 0.68969,0.6896893 v 7.079944 c 0,0.381715 -0.307975,0.68969 -0.68969,0.68969 H 13.115358 V 4.9415414 c 0,-0.3825824 -0.307975,-0.6896894 -0.690557,-0.6896894 H 6.0683802 C 5.6441562,4.2353689 5.5383171,4.0410412 5.3066855,3.7348018 5.075054,3.4276948 4.9267057,3.2672011 4.6161287,3.2672011 Z"
     id="path7" />
  <path
     style="clip-rule:evenodd;fill:currentColor;fill-rule:evenodd;stroke-width:0.867531;stroke-linejoin:round;stroke-miterlimit:2"
     class="ColorScheme-Text"
     d="m 4.2222683,7.9891876 c -1.665665,0 -3.0363684,1.3707033 -3.0363684,3.0363694 0,1.665665 1.3707034,3.036368 3.0363684,3.036368 1.6656649,0 3.0363685,-1.370703 3.0363685,-3.036368 0,-1.6656661 -1.3707036,-3.0363694 -3.0363685,-3.0363694 z M 3.9906367,8.8567215 h 0.4632631 l 0.2021354,1.7350685 1.7350676,0.275875 v 0.315783 l -2.6026014,0.275876 z"
     id="path9" />
</svg>
